<svg xmlns="http://www.w3.org/2000/svg" viewBox="0 0 226.66 226.67"><title>Asset 3</title><g id="Layer_2" data-name="Layer 2"><g id="Layer_4" data-name="Layer 4"><path d="M224.66,113.33A111.33,111.33,0,1,1,113.33,2,111.33,111.33,0,0,1,224.66,113.33Z" style="fill:#fff"/><path d="M113.33,226.67A113.34,113.34,0,1,1,226.66,113.33,113.46,113.46,0,0,1,113.33,226.67ZM113.33,4A109.34,109.34,0,1,0,222.66,113.33,109.46,109.46,0,0,0,113.33,4Z" style="fill:#28c1d8"/><path d="M140.52,137.27H86.64A10.69,10.69,0,0,1,76,126.6V94A10.69,10.69,0,0,1,86.64,83.35h53.88A10.69,10.69,0,0,1,151.2,94V126.6A10.69,10.69,0,0,1,140.52,137.27ZM86.64,87.35A6.68,6.68,0,0,0,80,94V126.6a6.67,6.67,0,0,0,6.67,6.67h53.88a6.68,6.68,0,0,0,6.68-6.67V94a6.69,6.69,0,0,0-6.68-6.68Z" style="fill:#1f407b"/><rect x="77.97" y="95.15" width="71.23" height="4" style="fill:#1f407b"/><path d="M161.33,152.59a11.2,11.2,0,1,1,11.2-11.19A11.2,11.2,0,0,1,161.33,152.59Zm0-18.39a7.2,7.2,0,1,0,7.2,7.2A7.21,7.21,0,0,0,161.33,134.2Z" style="fill:#1f407b"/><path d="M180,176.64H142.67v-6.86a18.67,18.67,0,0,1,37.33,0Zm-33.33-4H176v-2.86a14.67,14.67,0,0,0-29.33,0Z" style="fill:#1f407b"/><path d="M67,152.59A11.2,11.2,0,1,1,78.18,141.4,11.21,11.21,0,0,1,67,152.59Zm0-18.39a7.2,7.2,0,1,0,7.19,7.2A7.21,7.21,0,0,0,67,134.2Z" style="fill:#1f407b"/><path d="M85.65,176.64H48.32v-6.86a18.67,18.67,0,0,1,37.33,0Zm-33.33-4H81.65v-2.86a14.67,14.67,0,0,0-29.33,0Z" style="fill:#1f407b"/><path d="M150.2,103V130.6a8.68,8.68,0,0,1-8.68,8.68H91.65A8.68,8.68,0,0,1,83,130.6V103" style="fill:#4cbea0;opacity:0.5"/><rect x="77.97" y="95.15" width="71.23" height="4" style="fill:#1f407b"/><g style="opacity:0.5"><path d="M125.92,44.14a9.2,9.2,0,1,1-9.2-9.19A9.2,9.2,0,0,1,125.92,44.14Z" style="fill:#53c7de"/><path d="M133.39,77.39V72.53a16.67,16.67,0,0,0-16.67-16.67h0a16.66,16.66,0,0,0-16.66,16.67v4.86Z" style="fill:#53c7de"/></g><g style="opacity:0.5"><path d="M173.53,145.4a9.19,9.19,0,1,1-9.19-9.19A9.18,9.18,0,0,1,173.53,145.4Z" style="fill:#53c7de"/><path d="M181,178.65v-4.87a16.66,16.66,0,0,0-16.66-16.66h0a16.66,16.66,0,0,0-16.66,16.66v4.87Z" style="fill:#53c7de"/></g><g style="opacity:0.5"><path d="M79.18,145.4A9.19,9.19,0,1,1,70,136.21,9.18,9.18,0,0,1,79.18,145.4Z" style="fill:#53c7de"/><path d="M86.65,178.65v-4.87A16.66,16.66,0,0,0,70,157.12h0a16.66,16.66,0,0,0-16.66,16.66v4.87Z" style="fill:#53c7de"/></g><rect x="95.49" y="106.95" width="13.69" height="11.86" style="fill:#fff"/><path d="M47.12,134.08A70.25,70.25,0,0,1,92.41,45.36l1.22,3.81a66.25,66.25,0,0,0-42.71,83.66Z" style="fill:#1f407b"/><path d="M113.82,182.39a70.16,70.16,0,0,1-21.14-3.24l1.21-3.82a66.49,66.49,0,0,0,40.41-.17l1.24,3.8A70.23,70.23,0,0,1,113.82,182.39Z" style="fill:#1f407b"/><path d="M180.86,133,177,131.81A66.23,66.23,0,0,0,133.5,49l1.19-3.82A70.23,70.23,0,0,1,180.86,133Z" style="fill:#1f407b"/><path d="M140.52,137.27H86.64A10.69,10.69,0,0,1,76,126.6V94A10.69,10.69,0,0,1,86.64,83.35h53.88A10.69,10.69,0,0,1,151.2,94V126.6A10.69,10.69,0,0,1,140.52,137.27ZM86.64,87.35A6.68,6.68,0,0,0,80,94V126.6a6.67,6.67,0,0,0,6.67,6.67h53.88a6.68,6.68,0,0,0,6.68-6.67V94a6.69,6.69,0,0,0-6.68-6.68Z" style="fill:#1f407b"/><rect x="77.97" y="95.15" width="71.23" height="4" style="fill:#1f407b"/><path d="M110.56,120.81H92.88V104.69h17.68Zm-13.68-4h9.68v-8.12H96.88Z" style="fill:#1f407b"/><rect x="115.52" y="104.69" width="18.85" height="4" style="fill:#1f407b"/><rect x="115.52" y="111.04" width="18.85" height="4" style="fill:#1f407b"/><rect x="115.52" y="117.4" width="18.85" height="4" style="fill:#1f407b"/><rect x="93.81" y="123.75" width="40.56" height="4" style="fill:#1f407b"/><path d="M126.17,91.43a2,2,0,1,1-2-2A2,2,0,0,1,126.17,91.43Z" style="fill:#1f407b"/><path d="M132.63,91.43a2,2,0,1,1-2-2A2,2,0,0,1,132.63,91.43Z" style="fill:#1f407b"/><path d="M139.09,91.43a2,2,0,1,1-2-2A2,2,0,0,1,139.09,91.43Z" style="fill:#1f407b"/><path d="M113.72,51.33a11.19,11.19,0,1,1,11.19-11.19A11.2,11.2,0,0,1,113.72,51.33Zm0-18.38a7.19,7.19,0,1,0,7.19,7.19A7.2,7.2,0,0,0,113.72,33Z" style="fill:#1f407b"/><path d="M132.39,75.39H95.06V68.52a18.67,18.67,0,0,1,37.33,0Zm-33.33-4h29.33V68.52a14.67,14.67,0,0,0-29.33,0Z" style="fill:#1f407b"/><path d="M161.33,152.59a11.2,11.2,0,1,1,11.2-11.19A11.2,11.2,0,0,1,161.33,152.59Zm0-18.39a7.2,7.2,0,1,0,7.2,7.2A7.21,7.21,0,0,0,161.33,134.2Z" style="fill:#1f407b"/><path d="M180,176.64H142.67v-6.86a18.67,18.67,0,0,1,37.33,0Zm-33.33-4H176v-2.86a14.67,14.67,0,0,0-29.33,0Z" style="fill:#1f407b"/><path d="M67,152.59A11.2,11.2,0,1,1,78.18,141.4,11.21,11.21,0,0,1,67,152.59Zm0-18.39a7.2,7.2,0,1,0,7.19,7.2A7.21,7.21,0,0,0,67,134.2Z" style="fill:#1f407b"/><path d="M85.65,176.64H48.32v-6.86a18.67,18.67,0,0,1,37.33,0Zm-33.33-4H81.65v-2.86a14.67,14.67,0,0,0-29.33,0Z" style="fill:#1f407b"/></g></g></svg>