<svg xmlns="http://www.w3.org/2000/svg" viewBox="0 0 226.67 226.67"><title>Asset 9</title><g id="Layer_2" data-name="Layer 2"><g id="Layer_4" data-name="Layer 4"><path d="M224.67,113.33A111.34,111.34,0,1,1,113.33,2,111.34,111.34,0,0,1,224.67,113.33Z" style="fill:#fff"/><path d="M113.33,226.67A113.34,113.34,0,1,1,226.67,113.33,113.46,113.46,0,0,1,113.33,226.67ZM113.33,4A109.34,109.34,0,1,0,222.67,113.33,109.46,109.46,0,0,0,113.33,4Z" style="fill:#28c1d8"/><path d="M171.59,81.82h-64s-2.73-26.26,22-28.61H151.9S172.47,53.83,171.59,81.82Z" style="fill:#53c7de;opacity:0.5"/><polygon points="153.93 163.16 124.26 163.16 124.26 89.49 156.93 89.49 153.93 163.16" style="fill:#4cbea0;opacity:0.2"/><path d="M122.31,97.71l-3.36.45s-.33-1-2-.31c-1.16.49-7.29,2.45-11.1,3.66-.38-4.14-.77-8.28-1.09-12.42A5.08,5.08,0,0,0,102.58,85c-.88-.61-1.74-1.26-2.62-1.87-1.32-.92-2.65-1.8-3.94-2.73-.47-.35-.63-1.92-.19-2.27.81-.66.93-1.62,1.34-2.46a13.63,13.63,0,0,0,1-5.3c.1-1.92-.91-3.32-2-4.68A5,5,0,0,0,93.38,64H91.22c-.61.17-1.4.15-1.81.54A16.68,16.68,0,0,0,86.32,68,5.35,5.35,0,0,0,86,72.88,8.82,8.82,0,0,1,86.6,75a2.68,2.68,0,0,0,.59,1.56c.52.57.51,1.08-.13,1.52a13.3,13.3,0,0,1-2.72,1.54c-2.58,1-5.21,1.9-7.82,2.81a2.42,2.42,0,0,0-1.61,1.84c-.68,2.51-1.29,5-2.2,7.48a32.64,32.64,0,0,0-2.26,13.76c.28,4.17.83,8.32,1.33,12.48.15,1.21.64,2.39.83,3.6a2.38,2.38,0,0,0,1.1,2c.22.12.35.39.55.56a7.07,7.07,0,0,0,1.46,1.18,1.05,1.05,0,0,1,.69,1.14,118.68,118.68,0,0,1-1,14.59A18,18,0,0,1,74.21,146a15.52,15.52,0,0,0-1.27,5.92c-.14,4.83,0,9.67-.64,14.48a.86.86,0,0,0,.32.67c.48.28.42.59.15.94s-.53.5-.73.79c-.51.77-1.07-.47-1.45.36s-.28,1.24.73,1.58c.5.16,1,.28,1.51.42h3.31a20.08,20.08,0,0,1,2.42-.42c.59,0,.8-.24.86-.78.13-1.11.28-.22.43-1.35.65-.2.66-.26.75-1s.29-1.79.4-2.68a2.83,2.83,0,0,0,0-1.39,1.29,1.29,0,0,1,.41-1.75,1.42,1.42,0,0,0,.55-1.45,21.19,21.19,0,0,1-.17-2.65,2.23,2.23,0,0,1,.24-1.31c.7-.83.57-1.83.75-2.77.38-2,0-4.18,1.15-6.07A1.25,1.25,0,0,0,84,147c.56-3.76,1-7.53,1.69-11.27.45-2.61,1.15-5.17,1.74-7.76,0-.16.1-.31.15-.47a22,22,0,0,1,.1,3.43c-.19,3.08-.44,6.16-.66,9.23a37.74,37.74,0,0,1-.83,6.32,35.52,35.52,0,0,0-1.15,9.07,7.59,7.59,0,0,1-.44,2.88,2.68,2.68,0,0,0-.15,1.05c.07,1,.28,2,.29,3,0,1.65-.08,3.29-.12,4.94,0,.18,0,.47.08.53.58.38.45-1,.52-.51s.15,1.33.22,2,.33.93,1,.86,1.44-.2,1.92.57c.06.1.3.13.45.13,1.89,0,3.78,0,5.68-.09.68,0,.89-.33.81-1a2.85,2.85,0,0,0-1-1.86c-.65-.6-1.29.79-1.9.15a1.38,1.38,0,0,1-.11-1.59,4.6,4.6,0,0,0,.53-1.49c0-.92-.14-1.85-.16-2.78A3.08,3.08,0,0,1,93,161,8.73,8.73,0,0,0,94,156.43a5.32,5.32,0,0,1,.31-2,9,9,0,0,0,.3-4.73,2.75,2.75,0,0,1,.28-1.2,8.68,8.68,0,0,0,.45-1.33c.34-2.32.54-4.66,1-7,.46-2.51,1.11-5,1.68-7.47.38-1.68.75-3.36,1.14-5,0-.19.13-.92.26-1s.11-1.42.2-1.36l.29-1.84,2.29-.88,1.08-13.6a3.23,3.23,0,0,0,3,.43v0L117.79,105l.81-2.05a6.33,6.33,0,0,0,2.41,1.48,4.12,4.12,0,0,0,3.17-1C124.56,102.83,122.31,97.71,122.31,97.71Z" style="fill:#ccc;fill-rule:evenodd;opacity:0.6000000000000001"/><path d="M170.53,79.82H102.79L102.6,78c0-.53-1.26-13.07,6.15-22.12,4.13-5,10.08-8,17.69-8.69h22.45a22.21,22.21,0,0,1,14.46,6.92c5.13,5.45,7.56,13.44,7.24,23.75Zm-64-4h60.12c-.14-23.66-17.05-24.59-17.79-24.61h-22.1c-6.46.63-11.47,3.06-14.89,7.24C107,64.36,106.47,72.31,106.5,75.82Z" style="fill:#1f407b"/><rect x="54.55" y="167.15" width="114.04" height="4" style="fill:#1f407b"/><rect x="111.59" y="107.67" width="4" height="61.48" style="fill:#1f407b"/><rect x="111.59" y="77.82" width="4" height="12.23" style="fill:#1f407b"/><rect x="158.92" y="77.82" width="4" height="91.33" style="fill:#1f407b"/><path d="M154.92,161.15H119.26V83.49h35.66Zm-31.66-4h27.66V87.49H123.26Z" style="fill:#1f407b"/><path d="M117.59,71.77c-.09-.64-2.23-15.81,11.11-24.25l2.13,3.38C119.68,58,121.53,71,121.55,71.17Z" style="fill:#1f407b"/><path d="M155.57,71.77l-3.95-.59c.08-.54,1.81-13.26-9.29-20.28l2.14-3.38C157.81,56,155.67,71.13,155.57,71.77Z" style="fill:#1f407b"/><rect x="135.76" y="49.21" width="4" height="21.64" style="fill:#1f407b"/><path d="M73.31,171.15H69.56l-.7-.18q-.6-.15-1.17-.33A3.24,3.24,0,0,1,65.56,169a3.16,3.16,0,0,1,.21-2.64,15.87,15.87,0,0,1,1.32-2.22l.29-.41a1.43,1.43,0,0,1,.14-.2,2.63,2.63,0,0,1-.2-1.35,87.22,87.22,0,0,0,.55-10.47c0-1.27,0-2.54.07-3.8a17.53,17.53,0,0,1,1.43-6.68,16.15,16.15,0,0,0,1-4.38,113.86,113.86,0,0,0,1-13.91,8.27,8.27,0,0,1-1.14-.93l-.32-.29a4.47,4.47,0,0,1-.42-.45,4.39,4.39,0,0,1-1.89-3.34,14.5,14.5,0,0,0-.35-1.46,15.75,15.75,0,0,1-.49-2.22l-.2-1.65c-.44-3.57-.89-7.26-1.14-10.93A34.48,34.48,0,0,1,67.83,87c.68-1.8,1.18-3.67,1.71-5.64.14-.56.29-1.11.44-1.66a4.41,4.41,0,0,1,2.88-3.2l.93-.33c2.25-.78,4.58-1.59,6.83-2.46A9.76,9.76,0,0,0,82.09,73a5.53,5.53,0,0,1-.48-1.72,6.15,6.15,0,0,0-.49-1.6A7.32,7.32,0,0,1,81.58,63,18.27,18.27,0,0,1,85,59.1a4,4,0,0,1,2.29-1l.41-.07L88,58h2.66l.23.05a6.91,6.91,0,0,1,3.93,2.37,8.77,8.77,0,0,1,2.42,6A15.42,15.42,0,0,1,96,72.48a4.74,4.74,0,0,0-.24.58,6,6,0,0,1-1.07,2c.66.47,1.33.93,2,1.38l1.44,1,1.25.9,1.36,1a7,7,0,0,1,3,5.63c.25,3.3.56,6.64.86,9.92,6.7-2.15,8.22-2.7,8.56-2.85a3.88,3.88,0,0,1,3.51,0l3.89-.52.6,1.38c2.67,6.08,2.2,6.84,1.74,7.58-.85,1.39-3.15,2-4.5,2h0a4.73,4.73,0,0,1-.67,0,4.28,4.28,0,0,1-1.18-.38l-.2.51-11,4.25V107l-1.43.45a6.38,6.38,0,0,1-1.79.27h0l-1,12.38-2.39.93-.2,1.27h0a6.76,6.76,0,0,1-.16,1l-.25,1.53-.12-.07-.63,2.79L97,129.14c-.18.78-.36,1.56-.55,2.34-.4,1.66-.81,3.37-1.12,5.05-.25,1.38-.42,2.76-.59,4.22-.11.89-.22,1.78-.35,2.67a5.6,5.6,0,0,1-.39,1.3l-.13.33c0,.15-.1.29-.15.44l0,.06a11,11,0,0,1-.4,5.43,4.2,4.2,0,0,0-.24,1.24,10.29,10.29,0,0,1-1.24,5.57,1.93,1.93,0,0,0,0,.48c0,.35,0,.69.08,1a15.45,15.45,0,0,1,.09,1.86,4.66,4.66,0,0,1-.54,1.86c0,.05,0,.1-.07.14.43.44.9.89,1.43,1.38a4.86,4.86,0,0,1,1.63,3.1,2.92,2.92,0,0,1-.62,2.34,2.82,2.82,0,0,1-2.13.92c-1.76.05-3.53.07-5.29.08h-.42a2.6,2.6,0,0,1-1.92-.74h-.28a2.48,2.48,0,0,1-.38,0,2.76,2.76,0,0,1-2.83-2.65c0-.5-.11-1-.17-1.5l0-.48a2.38,2.38,0,0,1,0-.39,2.66,2.66,0,0,1-.59-1.89c0,.14,0,.28,0,.42a3,3,0,0,1-.88,2.06c-.11.78-.21,1.54-.29,2.31a2.75,2.75,0,0,1-2.74,2.56,10,10,0,0,0-1.4.22l-.78.16Zm-3.22-4H73l.5-.1c.34-.07.7-.15,1.09-.21.06-.51.13-1,.2-1.53l.29-2.25.64-.19c0-.34.1-.67.16-1s.13-.81.18-1.21l0-.14c0-.11,0-.27,0-.38a3.23,3.23,0,0,1,.85-3.76c-.09-.83-.14-1.7-.15-2.69a3.81,3.81,0,0,1,.7-2.61,1.93,1.93,0,0,0,.19-.9c0-.33.07-.65.13-1a16.08,16.08,0,0,0,.2-1.82,11.11,11.11,0,0,1,1-4.62v0c.17-1.15.33-2.31.5-3.46.36-2.58.74-5.24,1.19-7.86.33-1.87.78-3.72,1.21-5.51.19-.78.38-1.56.56-2.35a4.1,4.1,0,0,1,.16-.53l3-9.29,1,9.59a23.66,23.66,0,0,1,.12,3.76c-.13,2-.29,4.08-.44,6.11-.08,1.05-.15,2.1-.23,3.14a39.58,39.58,0,0,1-.88,6.65,33.27,33.27,0,0,0-1.09,8.57,9.73,9.73,0,0,1-.56,3.6.6.6,0,0,0,0,.22c0,.36.08.73.12,1.09a15.69,15.69,0,0,1,.17,2c0,1.13,0,2.25-.06,3.34,0,.43,0,.85,0,1.27a3.52,3.52,0,0,1,.57,1.94,1.21,1.21,0,0,0,0,.19l.06.48.06.55a3.28,3.28,0,0,1,2.06.75l3,0c-.52-.5-1-1-1.42-1.41a3.27,3.27,0,0,1-.51-3.72c.07-.17.15-.34.23-.51a3.38,3.38,0,0,0,.16-.36,11.83,11.83,0,0,0-.07-1.27c0-.44-.08-.89-.09-1.33a5,5,0,0,1,.4-2.22,6.83,6.83,0,0,0,.91-3.5,7.1,7.1,0,0,1,.38-2.82,6.91,6.91,0,0,0,.26-3.71,3.43,3.43,0,0,1,.26-2c0-.07,0-.14.07-.2.07-.23.16-.45.25-.67a3.45,3.45,0,0,0,.13-.37c.13-.85.23-1.71.34-2.57.17-1.46.36-3,.63-4.46.33-1.78.75-3.55,1.16-5.27l.54-2.28.37-1.64c.25-1.14.51-2.27.77-3.4l0-.09a4.64,4.64,0,0,1,.27-1.07v-.14a5.39,5.39,0,0,1,.13-.87h0l.48-3,2.18-.84,1.28-16.15,3,2.42a1.21,1.21,0,0,0,1,.12l.09,0,10.66-4.11,1.27-3.25-.14-.42c-1.31.5-5,1.71-11,3.6l-2.37.75-.32-3.49c-.35-3.74-.7-7.61-1-11.43a3,3,0,0,0-1.29-2.65c-.48-.33-1-.67-1.42-1l-1.21-.86-1.41-1c-.86-.59-1.72-1.18-2.56-1.79a3.73,3.73,0,0,1-1.27-2.9,3,3,0,0,1,1-2.54,2.25,2.25,0,0,0,.41-.84,8.4,8.4,0,0,1,.38-.94,11.62,11.62,0,0,0,.84-4.53c0-1.09-.46-1.94-1.56-3.33A2.79,2.79,0,0,0,90.12,62H88.45l-.52.09-.31,0A14.47,14.47,0,0,0,85.05,65a3.4,3.4,0,0,0-.24,3.07,10.79,10.79,0,0,1,.77,2.61,1.68,1.68,0,0,0,.09.49,3,3,0,0,1,.87,2.41,2.94,2.94,0,0,1-1.34,2.1,15.53,15.53,0,0,1-3.14,1.76c-2.31.89-4.67,1.71-7,2.51l-.93.32c-.16.06-.23.08-.34.49s-.29,1.08-.44,1.63c-.53,2-1.07,4-1.82,6a30.34,30.34,0,0,0-2.13,12.92c.23,3.56.68,7.2,1.11,10.72l.2,1.65a11.78,11.78,0,0,0,.38,1.63,17.27,17.27,0,0,1,.44,1.91,5,5,0,0,0,.12.61,3,3,0,0,1,.89.78l.41.39a4.25,4.25,0,0,0,.59.5,3,3,0,0,1,1.82,3,120.57,120.57,0,0,1-1,14.85A19.5,19.5,0,0,1,73,142.8a14,14,0,0,0-1.1,5.17q0,1.88-.06,3.75a95.64,95.64,0,0,1-.5,10.22,2.45,2.45,0,0,1,.56,1.16,2.6,2.6,0,0,1-.59,2.14,6.64,6.64,0,0,1-.51.55l-.15.15-.28.41-.5.75Zm45.5-70.93L117,97.53a5,5,0,0,0,1.38,1,2.57,2.57,0,0,0,.65-.1c-.22-.67-.57-1.59-.94-2.51Z" style="fill:#1f407b"/></g></g></svg>