<svg xmlns="http://www.w3.org/2000/svg" viewBox="0 0 226.67 226.67"><title>Asset 8</title><g id="Layer_2" data-name="Layer 2"><g id="Layer_4" data-name="Layer 4"><circle cx="113.33" cy="113.33" r="111.33" transform="translate(-25.24 193.87) rotate(-75.16)" style="fill:#fff"/><path d="M113.33,226.67A113.34,113.34,0,1,1,226.67,113.33,113.46,113.46,0,0,1,113.33,226.67ZM113.33,4A109.34,109.34,0,1,0,222.67,113.33,109.46,109.46,0,0,0,113.33,4Z" style="fill:#28c1d8"/><path d="M123.09,77.11c4.86,3.34,6.2,2.09,6.38-1.86.23-5.27-.47-9.55,7.17-6.31s15.51-6,15.57-3.24,9.43,5.33,9,8.33-1.39,17.13,2.55,8.57a21.84,21.84,0,0,1,4.08-6.13h-.05s5.05-22.8-11-22.69c0,0-3.55-6.24-15.7-4.84S118.83,58.5,123.67,77A2.33,2.33,0,0,0,123.09,77.11Z" style="fill:#ccc;opacity:0.6000000000000001"/><path d="M92.25,157.54s.64-28,12.47-36.12,20.13-5,27.64-9.42c0,0,1.57,25.71,13.33,34.66a.17.17,0,0,0,.18,0c11.77-8.95,13.37-34.67,13.37-34.67,7.51,4.47,15.82,1.27,27.65,9.42s12.46,36.12,12.46,36.12" style="fill:#53c7de;opacity:0.5"/><path d="M143.82,138.13a27.4,27.4,0,0,0,4.55-7.33l-1.84-12.14,3.68-10.39c-6.29,2.71-12.82,0-12.82,0l3.68,10.39-1.84,12.14a25.79,25.79,0,0,0,4.47,7.32S143.77,138.17,143.82,138.13Z" style="fill:#1f407b"/><path d="M85.61,81S74.08,92.64,62.53,91.63c0,0,3.79,21.24,11.54,24.77H51S40.11,57,81.82,56s30.33,60.41,30.33,60.41H90.41s9.36-7.83,10.11-26.54C100.52,89.86,87.89,86.83,85.61,81Z" style="fill:#4cbea0;opacity:0.5"/><path d="M74.83,153l-17.35-18.3,3.09-3.32h-9l9.52-9.76c-30.9,4.75-29.65,28.79-29.58,29.87l-4,.27c0-.32-1.69-31.85,38.76-34.74l5.25-.38L61.06,127.35h8.69L63,134.64l14.76,15.57Z" style="fill:#1f407b"/><path d="M143.48,106.9c-13.27,0-19.28-13.81-20.82-22a10.77,10.77,0,0,1-4.08-5.31c-1.39-3.41-1.5-5.94-.33-7.72a3.92,3.92,0,0,1,1.07-1.11c-1.78-8-.92-14.64,2.56-19.73s9.47-8.27,17-9.13a30.73,30.73,0,0,1,3.64-.22c7.94,0,11.82,3.35,13.3,5.07A11.92,11.92,0,0,1,165,51.18c4.49,5.59,3.69,14.92,3.09,18.87a4.17,4.17,0,0,1,1.85,1.8c1,1.94.6,4.62-1.3,8.18a13.29,13.29,0,0,1-4.32,4.79c-1.25,8.05-6.84,21.81-20.39,22.08ZM121.71,74s-.07,0-.13.13-.51,1,.7,4S125,81.67,125,81.68l1.25.34.2,1.29c0,.19,3.17,19.59,17.05,19.59h.31c14.16-.28,16.54-18.74,16.63-19.53l.13-1.09,1-.48a9.07,9.07,0,0,0,3.51-3.65c1.45-2.71,1.48-4.08,1.29-4.43,0-.1-.32-.22-.81-.28l-2.22-.24L163.8,71c0-.11,2.52-11.76-2-17.34-1.57-2-3.84-2.92-6.93-2.92h-1.27l-.58-1c-.09-.14-2.56-4-10.55-4a29.9,29.9,0,0,0-3.19.19c-4.48.52-10.57,2.22-14.13,7.42-3,4.44-3.57,10.55-1.58,18.16l.71,2.73Z" style="fill:#1f407b"/><path d="M195.35,152.58c0-.27-.76-27-11.6-34.51C177.26,113.6,172,112.76,167,112a37.79,37.79,0,0,1-8-1.89c-.82,7.2-3.85,25.57-13.88,33.2l-.2.15-.24.1a2.13,2.13,0,0,1-2.2-.3c-10-7.65-13-26-13.81-33.15a37.7,37.7,0,0,1-8,1.89c-5,.81-10.26,1.65-16.75,6.12-10.84,7.47-11.59,34.24-11.6,34.51l-4-.09c0-1.18.81-29.09,13.33-37.72,7.24-5,13.16-5.93,18.39-6.77,3.51-.56,6.55-1,9.37-2.73l2.82-1.67.2,3.27c0,.24,1.54,23.2,11.43,32.26,9.88-9.07,11.44-32,11.45-32.26l.21-3.27,2.81,1.67c2.82,1.69,5.86,2.17,9.37,2.73,5.23.84,11.15,1.79,18.39,6.77,12.52,8.63,13.3,36.54,13.33,37.72Z" style="fill:#1f407b"/><path d="M111.81,113.4H82.91l4.22-3.53c.08-.07,8.16-7.15,9.31-23.5-3.2-.93-10-3.27-13.25-7.25-3.51,3-11.54,9.1-20.21,9.55,1.71,7.86,5.45,18.87,9.92,20.91l8.36,3.82H47.31l-.3-1.64c-.25-1.38-6-33.92,8.46-51.7C61.24,53,69.41,49.24,79.77,49s18.43,3.12,24.16,10c14.52,17.47,8.45,51.33,8.19,52.77Zm-19-4h15.61c1-6.9,4-33.88-7.59-47.85-4.91-5.9-11.95-8.77-21-8.56s-16.3,3.45-21.29,9.59C47,76.78,49.75,102.66,50.7,109.4H66.84c-5.41-7.15-8-20.58-8.28-22.42l-.46-2.57,2.61.23c10.55.92,21.38-9.93,21.48-10l2.16-2.19,1.12,2.87C87,79.24,96,82.19,99,82.92l1.6.38-.07,1.64C100,97.41,95.85,105.28,92.83,109.4Z" style="fill:#1f407b"/><path d="M74.83,153l-17.35-18.3,3.09-3.32h-9l9.52-9.76c-30.9,4.75-29.65,28.79-29.58,29.87l-4,.27c0-.32-1.69-31.85,38.76-34.74l5.25-.38L61.06,127.35h8.69L63,134.64l14.76,15.57Z" style="fill:#1f407b"/></g></g></svg>