<svg xmlns="http://www.w3.org/2000/svg" viewBox="0 0 226.67 226.67"><title>Asset 7</title><g id="Layer_2" data-name="Layer 2"><g id="Layer_4" data-name="Layer 4"><circle cx="113.33" cy="113.33" r="111.33" transform="translate(-16.8 206.9) rotate(-80.72)" style="fill:#fff"/><path d="M113.33,226.67A113.34,113.34,0,1,1,226.67,113.33,113.47,113.47,0,0,1,113.33,226.67ZM113.33,4A109.34,109.34,0,1,0,222.67,113.33,109.46,109.46,0,0,0,113.33,4Z" style="fill:#28c1d8"/><rect x="71.62" y="85.54" width="103.13" height="98.56" style="fill:#ccc;opacity:0.6000000000000001"/><polyline points="82.4 184.1 82.4 124.11 109.4 124.11 109.4 184.1 82.4 184.1" style="fill:#fff"/><rect x="121.57" y="123.83" width="41.5" height="36" style="fill:#fff"/><path d="M74.15,65.91,59.05,91.15s1.65,15.59,12.49,15.11S83.6,91.15,83.6,91.15l9.3-25.24Z" style="fill:#4cbea0;opacity:0.5"/><path d="M89,65.91,81.23,86.79s.69,18.78,12.94,19.47,13.54-15.11,13.54-15.11l2.79-25.24Z" style="fill:#28c1d8"/><path d="M110.59,65.91l-3,26.18s.5,13.92,12.17,14.17,12.06-15.11,12.06-15.11l-2.56-25.24Z" style="fill:#28c1d8"/><path d="M148.11,65.91H127.69l3.07,24.77s3.13,16.27,15.38,15.58,10.58-15.11,10.58-15.11Z" style="fill:#28c1d8"/><path d="M165.68,65.91H146.92l9.31,25.24s1.22,14.63,12.06,15.11,12.48-15.11,12.48-15.11Z" style="fill:#4cbea0;opacity:0.5"/><path d="M165,102.25c-7.75,0-14.06-7.67-14.06-17.1h4c0,7.22,4.51,13.1,10.06,13.1s9.85-5.61,10.05-12.6L160.88,59.87H73.06L58.49,85.66c.2,7,4.63,12.59,10.05,12.59S78.6,92.37,78.6,85.14h4c0,9.44-6.31,17.11-14.06,17.11S54.48,94.58,54.48,85.14v-.52L70.73,55.87h92.51l15.82,28.76v.52C179.06,94.58,172.75,102.25,165,102.25Z" style="fill:#1f407b"/><path d="M92.65,102.25c-7.75,0-14.05-7.67-14.05-17.1h4c0,7.22,4.51,13.1,10.05,13.1s10.06-5.88,10.06-13.1h4C106.71,94.58,100.4,102.25,92.65,102.25Z" style="fill:#1f407b"/><path d="M116.77,102.25c-7.75,0-14.06-7.67-14.06-17.1h4c0,7.22,4.51,13.1,10.06,13.1s10.06-5.88,10.06-13.1h4C130.83,94.58,124.52,102.25,116.77,102.25Z" style="fill:#1f407b"/><path d="M140.88,102.25c-7.75,0-14-7.67-14-17.1h4c0,7.22,4.51,13.1,10,13.1s10.06-5.88,10.06-13.1h4C154.94,94.58,148.64,102.25,140.88,102.25Z" style="fill:#1f407b"/><rect x="56.48" y="83.14" width="120.58" height="4" style="fill:#1f407b"/><rect x="70.84" y="69.51" width="28.82" height="4" transform="translate(-9.95 129.11) rotate(-71.17)" style="fill:#1f407b"/><rect x="93.05" y="68.95" width="26.34" height="4" transform="translate(23.57 168.35) rotate(-83.43)" style="fill:#1f407b"/><rect x="125.44" y="57.8" width="4" height="26.31" transform="matrix(0.99, -0.11, 0.11, 0.99, -6.75, 13.79)" style="fill:#1f407b"/><rect x="146.75" y="57.22" width="4" height="27.48" transform="translate(-14.55 48.75) rotate(-17.76)" style="fill:#1f407b"/><polygon points="172.56 178.7 61.73 178.7 61.73 100.25 65.73 100.25 65.73 174.7 168.56 174.7 168.56 98.21 172.56 98.21 172.56 178.7" style="fill:#1f407b"/><polygon points="105.23 176.7 101.23 176.7 101.23 118.7 78.23 118.7 78.23 176.7 74.23 176.7 74.23 114.7 105.23 114.7 105.23 176.7" style="fill:#1f407b"/><path d="M159.06,154.7h-45.5v-40h45.5Zm-41.5-4h37.5v-32h-37.5Z" style="fill:#1f407b"/></g></g></svg>