<svg xmlns="http://www.w3.org/2000/svg" viewBox="0 0 226.67 226.67"><title>Asset 6</title><g id="Layer_2" data-name="Layer 2"><g id="Layer_4" data-name="Layer 4"><path d="M224.67,113.33A111.34,111.34,0,1,1,113.33,2,111.34,111.34,0,0,1,224.67,113.33Z" style="fill:#fff"/><path d="M113.33,226.67A113.34,113.34,0,1,1,226.67,113.33,113.46,113.46,0,0,1,113.33,226.67ZM113.33,4A109.34,109.34,0,1,0,222.67,113.33,109.46,109.46,0,0,0,113.33,4Z" style="fill:#28c1d8"/><polygon points="157.57 128.93 142.13 128.93 141.83 128.93 117.85 159.79 93.52 128.93 77.11 128.93 47.08 180.9 191.59 180.9 157.57 128.93" style="fill:#ccc;opacity:0.6000000000000001"/><path d="M117.85,36.39A46.52,46.52,0,0,0,71.33,82.91c0,25.69,46.52,75.54,46.52,75.54s46.53-49.85,46.53-75.54A46.52,46.52,0,0,0,117.85,36.39Zm0,71a24.5,24.5,0,1,1,24.5-24.49A24.49,24.49,0,0,1,117.85,107.4Z" style="fill:#53c7de;opacity:0.5"/><path d="M113.85,156.38l-1.46-1.57c-1.92-2.06-47.06-50.73-47.06-76.91a48.52,48.52,0,0,1,97,0c0,26.18-45.14,74.85-47.06,76.91Zm0-123A44.57,44.57,0,0,0,69.33,77.9c0,22.1,36.68,63.89,44.52,72.58,7.85-8.69,44.52-50.49,44.52-72.58A44.57,44.57,0,0,0,113.85,33.38Z" style="fill:#1f407b"/><path d="M113.85,104.4a26.5,26.5,0,1,1,26.5-26.5A26.53,26.53,0,0,1,113.85,104.4Zm0-49a22.5,22.5,0,1,0,22.5,22.5A22.53,22.53,0,0,0,113.85,55.4Z" style="fill:#1f407b"/><polygon points="191.29 177.89 39.61 177.89 71.95 121.93 89.57 121.93 89.57 125.93 74.26 125.93 46.54 173.89 183.89 173.89 152.48 125.93 138.13 125.93 138.13 121.93 154.65 121.93 191.29 177.89" style="fill:#1f407b"/></g></g></svg>