<svg xmlns="http://www.w3.org/2000/svg" viewBox="0 0 226.67 226.67"><title>Asset 5</title><g id="Layer_2" data-name="Layer 2"><g id="Layer_4" data-name="Layer 4"><circle cx="113.33" cy="113.33" r="111.33" transform="translate(-18.16 21.69) rotate(-10.13)" style="fill:#fff"/><path d="M113.33,226.67A113.34,113.34,0,1,1,226.67,113.33,113.46,113.46,0,0,1,113.33,226.67ZM113.33,4A109.34,109.34,0,1,0,222.67,113.33,109.46,109.46,0,0,0,113.33,4Z" style="fill:#28c1d8"/><path d="M79.23,119s12.53.47,14-5.38,0-16.76,0-16.76l-3.39-8.24S79.17,75.52,87,72.29c0,0,.71,5,2,2.3A91.63,91.63,0,0,0,93.87,59c.74-4.12,4.09-7.92,4.09-7.92s15,13.62,31.11,6a24,24,0,0,1,1.75,9.41c-.31,4.57.73,3.43-.43,7.52,0,0,7-5.5,5.19,5.12-1.12,6.69-5.19,5-5.19,5s-4.23,9.84-4.41,11.79.9,21.33,1.62,22.51,16.58,10.4,19.25,9.94c0,0-5.55-16.83-5.1-25.36s6.94-46.88-.4-58.41-26.58-26.23-49.19-6.64c0,0-16.08-.73-17.6,25.06s6.13,42.39,6.57,46.1S81.61,117.82,79.23,119Z" style="fill:#ccc"/><path d="M49.5,153.27S56,130.1,84.68,122.88L79,143.17,89.31,142l19.75,33.49L132.23,143l8.13.16-7.09-20.29s23.08,11.34,26.06,13.26,13,11.86,12.86,29c0,0-19.57,29.16-61.17,27.57S50,156.44,49.5,153.27Z" style="fill:#4cbea0;opacity:0.5"/><path d="M113.33,189.77A76.71,76.71,0,0,1,66.26,52.5l2.46,3.16a72.7,72.7,0,1,0,80.41-5.89l2-3.48a76.71,76.71,0,0,1-37.77,143.48Z" style="fill:#1f407b"/><path d="M108.59,107.36c-9.84,0-19.45-14.6-21.45-22.16-2.23-.83-5-3.16-5.29-8.25-.14-2.73.32-4.62,1.41-5.76A3.53,3.53,0,0,1,86,70.06c-.35-2-.44-4.06.27-5.41a51.21,51.21,0,0,0,3.92-11.36c.86-4.65,4.27-8.31,5.93-9l.39-.17H97c.93,0,1.54.49,2.86,1.57,2.81,2.3,8.67,7.09,16.91,7.09a24.31,24.31,0,0,0,10.43-2.5l.84-.4.85.39c.88.4,2.92,2,2.8,8.11-.07,3.19.32,3.83.34,3.86l.07.06a3.12,3.12,0,0,1,.66.71c.62.93.95,4,.81,6.74a3.8,3.8,0,0,1,3.06,1.46c1.15,1.5,1.25,3.86.3,7.41-.5,1.88-2,7.59-5.94,7.59l-.43,0C128.76,92.23,122.83,107.36,108.59,107.36ZM86.08,74.09a6.4,6.4,0,0,0-.24,2.66c.22,4.22,2.72,4.77,3.21,4.83l1.49.2.27,1.48c.85,5.51,9.78,20.1,17.78,20.1,14.24,0,18.67-20.32,18.71-20.53l.88-4.18L130.83,82l.15.11c.25-.18,1.15-1.08,2.1-4.6.66-2.49.52-3.5.42-3.82a3.83,3.83,0,0,0-1.4.44l-5.52,3.18,2.71-5.77c.46-1,.36-5,.07-6.41-1.17-1.1-1.75-2.62-1.66-6.9a12.27,12.27,0,0,0-.37-3.7,27.61,27.61,0,0,1-10.55,2.18c-9.67,0-16.52-5.6-19.45-8l-.26-.22A11.25,11.25,0,0,0,94.16,54a55.7,55.7,0,0,1-4.32,12.49c-.33.74.2,3.87,1.1,6.55l2.6,7.68-5.87-5.59A4.5,4.5,0,0,0,86.08,74.09Z" style="fill:#1f407b"/><path d="M110.41,131.61a39.5,39.5,0,0,1-15.21-3.23l-.77-.35L89,112.43l.35-.74c2.24-4.67.65-17.07-.16-21.46l3.93-.72c.31,1.68,2.84,16.08.18,23.12l4.33,12.44c2.77,1.09,12.63,4.46,21.39,1,1.38-4.83,3.52-11.89,4.91-14.58-.23-2.83-1-14.12,1.1-21.8l3.87,1c-2.14,8-.94,20.91-.93,21l.08.87-.58.65c-.68,1-3.07,8.49-4.86,14.8l-.26.9-.85.38A26.94,26.94,0,0,1,110.41,131.61Z" style="fill:#1f407b"/><path d="M109.46,176.24,87.25,139.17,75.06,140.5l8.27-23.68,8.87-9.64Zm-20.1-41.33L99,151.07l-8.92-35.72-3.28,3.57-5.91,16.91Z" style="fill:#1f407b"/><path d="M108.72,176.65l16.4-69.51,8.91,9.68,8.26,23.68-12.15-1.33Zm18.56-61.25L119,150.67l9-15.76,8.46.92-5.91-16.91Z" style="fill:#1f407b"/><path d="M169.19,160.2c-.46-13.45-3.86-22.13-10.39-26.52-3.47-1.93-7.32-4-11.38-6.19-6.33-3.4-12.86-6.92-18-9.94l2-3.45c5.11,3,11.62,6.49,17.91,9.87,4.11,2.21,8,4.3,11.5,6.25l.14.08c7.72,5.15,11.73,14.89,12.24,29.76Z" style="fill:#1f407b"/><path d="M50.5,150.33l-4-.16C47.29,131,71.76,119.26,86.28,114l1.37,3.75C76.72,121.7,51.21,132.89,50.5,150.33Z" style="fill:#1f407b"/><path d="M144.82,125.71c-6.67-12.73-7-29.22-5.08-40.4,4.42-25.77,2.47-43.86-5.49-50.95-22.84-20.34-40.85-1-41.61-.15l-.56.61-.82,0a13.39,13.39,0,0,0-10.64,5.38c-10.54,13.9-2.14,50.58.62,62.63.33,1.44.59,2.6.76,3.42,2.34,11.35-5,15.87-5.36,16l-2-3.44,1,1.72-1-1.71c.22-.13,5.24-3.35,3.5-11.81-.16-.8-.42-1.93-.74-3.34-3.17-13.82-11.57-50.54.09-65.94a17.23,17.23,0,0,1,12.84-6.9c3.63-3.5,23.28-20.35,46.64.45,9.16,8.16,11.5,27,6.78,54.61-1.73,10.06-1.54,26,4.67,37.87Z" style="fill:#1f407b"/></g></g></svg>