<svg xmlns="http://www.w3.org/2000/svg" viewBox="0 0 226.67 226.67"><title>Asset 4</title><g id="Layer_2" data-name="Layer 2"><g id="Layer_4" data-name="Layer 4"><circle cx="113.33" cy="113.33" r="111.33" transform="translate(-21.66 199.73) rotate(-77.62)" style="fill:#fff"/><path d="M113.33,226.67A113.34,113.34,0,1,1,226.67,113.33,113.46,113.46,0,0,1,113.33,226.67ZM113.33,4A109.34,109.34,0,1,0,222.67,113.33,109.46,109.46,0,0,0,113.33,4Z" style="fill:#28c1d8"/><g style="opacity:0.5"><path d="M124.38,45.36a9.19,9.19,0,1,1-9.19-9.19A9.19,9.19,0,0,1,124.38,45.36Z" style="fill:#4cbea0"/><path d="M131.85,78.6V73.74a16.66,16.66,0,0,0-16.66-16.66h0A16.66,16.66,0,0,0,98.53,73.74V78.6Z" style="fill:#4cbea0"/></g><g style="opacity:0.5"><path d="M77.64,146.61a9.19,9.19,0,1,1-9.19-9.19A9.19,9.19,0,0,1,77.64,146.61Z" style="fill:#4cbea0"/><path d="M85.12,179.86V175a16.67,16.67,0,0,0-16.67-16.67h0A16.66,16.66,0,0,0,51.79,175v4.86Z" style="fill:#4cbea0"/></g><path d="M113.88,129.25l-6.41-6.35.54-6.83c-1.34-1.78-2.14-6.14-2.14-6.14s-1.16.71-1.78-2.67c-.83-4.49.44-4.45.44-4.45C101.86,92.3,106,91.59,106,91.59c1.14-4,5.93-4.34,8.93-4.17l1.47,0c3,0,7,.61,8,4.2,0,0,4.1.71,1.43,11.22,0,0,1.27,0,.44,4.45-.62,3.38-1.78,2.67-1.78,2.67s-.8,4.36-2.14,6.14l.54,6.83-6.4,6.35-1.3,1.31Z" style="fill:#ccc;opacity:0.6000000000000001"/><polygon points="110.12 132 112.99 129.61 115.49 132.14 114.12 134.82 116.1 148.3 109.59 148.3 111.53 134.91 110.12 132" style="fill:#1f407b"/><g style="opacity:0.5"><path d="M172,146.61a9.19,9.19,0,1,1-9.19-9.19A9.19,9.19,0,0,1,172,146.61Z" style="fill:#4cbea0"/><path d="M179.47,179.86V175a16.67,16.67,0,0,0-16.67-16.67h0A16.66,16.66,0,0,0,146.14,175v4.86Z" style="fill:#4cbea0"/></g><path d="M104.22,124.05l9,8.51,9.17-7.49s2.58,23.89,2.37,29.24H102S102.39,127,104.22,124.05Z" style="fill:#53c7de;opacity:0.5"/><path d="M46.26,134.29a70.28,70.28,0,0,1,46.86-88.1L94.27,50A66.28,66.28,0,0,0,50.08,133.1Z" style="fill:#1f407b"/><path d="M113.28,183.6a70.31,70.31,0,0,1-19.49-2.74L94.9,177a66.82,66.82,0,0,0,35.63.32l1,3.86A70.21,70.21,0,0,1,113.28,183.6Z" style="fill:#1f407b"/><path d="M180.61,133.29l-3.84-1.13a66.27,66.27,0,0,0-43-81.69l1.24-3.8a70.28,70.28,0,0,1,45.61,86.62Z" style="fill:#1f407b"/><path d="M113.19,52.55a11.2,11.2,0,1,1,11.19-11.2A11.21,11.21,0,0,1,113.19,52.55Zm0-18.39a7.2,7.2,0,1,0,7.19,7.19A7.2,7.2,0,0,0,113.19,34.16Z" style="fill:#1f407b"/><path d="M131.85,76.6H94.52V69.74a18.67,18.67,0,1,1,37.33,0Zm-33.33-4h29.33V69.74a14.67,14.67,0,1,0-29.33,0Z" style="fill:#1f407b"/><path d="M160.8,153.8A11.19,11.19,0,1,1,172,142.61,11.2,11.2,0,0,1,160.8,153.8Zm0-18.38a7.19,7.19,0,1,0,7.19,7.19A7.2,7.2,0,0,0,160.8,135.42Z" style="fill:#1f407b"/><path d="M179.46,177.86H142.14V171a18.66,18.66,0,0,1,37.32,0Zm-33.32-4h29.32V171a14.66,14.66,0,0,0-29.32,0Z" style="fill:#1f407b"/><path d="M66.45,153.8a11.19,11.19,0,1,1,11.19-11.19A11.2,11.2,0,0,1,66.45,153.8Zm0-18.38a7.19,7.19,0,1,0,7.19,7.19A7.2,7.2,0,0,0,66.45,135.42Z" style="fill:#1f407b"/><path d="M85.11,177.86H47.79V171a18.66,18.66,0,0,1,37.32,0Zm-33.32-4H81.11V171a14.66,14.66,0,0,0-29.32,0Z" style="fill:#1f407b"/><path d="M113.17,129.4l-2.72-2.75-7-7,.56-7.08a19.78,19.78,0,0,1-1.78-5c-1-.62-1.68-1.95-2.06-4-.48-2.58-.41-4.29.21-5.42-1.08-4.8-.91-8.35.52-10.56a5,5,0,0,1,1.51-1.51c1.33-3.07,4.62-4.75,9.38-4.75.41,0,.81,0,1.18,0l1.67,0c4.76,0,8,1.68,9.39,4.75a4.9,4.9,0,0,1,1.5,1.51c1.43,2.21,1.61,5.76.53,10.56.62,1.13.68,2.84.21,5.42q-.57,3-2.06,4a19.78,19.78,0,0,1-1.78,5l.55,7.08Zm-5.63-11.27,5.63,5.58,5.63-5.58-.52-6.66.45-.6a17.24,17.24,0,0,0,1.77-5.31l.53-2.87,1.15.71c0-.15.07-.32.1-.51a13.58,13.58,0,0,0,.25-2.09h-1.3l.64-2.49c1.58-6.21.55-8.43,0-8.78l-1.08-.19-.34-1.2c-.66-2.28-3.56-2.76-5.87-2.76l-1.74,0h-.08c-2.4-.14-6.13.09-6.89,2.72l-.35,1.2-1.07.19c-.54.35-1.57,2.57,0,8.78l.63,2.49h-1.29a13.23,13.23,0,0,0,.24,2.09c0,.19.08.36.11.51l1.14-.71.53,2.87a17.15,17.15,0,0,0,1.77,5.31l.46.6Z" style="fill:#1f407b"/><path d="M100,148.34a166.5,166.5,0,0,1,1.48-25.86L89.5,126h-.34c-.19,0-2.23.07-3.27,2.95l-3.76-1.35c1.75-4.88,5.54-5.52,6.81-5.59l11.69-3.45,6.73-6-1.18,5.87A152.78,152.78,0,0,0,104,148.26Z" style="fill:#1f407b"/><path d="M126.71,148.3h-4a190.14,190.14,0,0,0-2.34-29.91l-1-5.68,6.57,5.85L137.62,122c1.27.07,5.06.71,6.81,5.58L140.67,129c-1.08-3-3.25-2.95-3.27-2.95h-.34l-12-3.55A201.7,201.7,0,0,1,126.71,148.3Z" style="fill:#1f407b"/></g></g></svg>