<svg xmlns="http://www.w3.org/2000/svg" viewBox="0 0 226.67 226.67"><title>Asset 2</title><g id="Layer_2" data-name="Layer 2"><g id="Layer_4" data-name="Layer 4"><circle cx="113.33" cy="113.33" r="111.33" transform="translate(-46.94 113.33) rotate(-45)" style="fill:#fff"/><path d="M113.33,226.67A113.34,113.34,0,1,1,226.67,113.33,113.46,113.46,0,0,1,113.33,226.67ZM113.33,4A109.34,109.34,0,1,0,222.67,113.33,109.46,109.46,0,0,0,113.33,4Z" style="fill:#28c1d8"/><path d="M73.23,31a6.24,6.24,0,0,0,1.59-4.15Z" style="fill:#1f407b"/><path d="M62.07,60a6.17,6.17,0,0,0-1.59,4.15Z" style="fill:#1f407b"/><path d="M160.74,115.67v-18l-26.89,18.15V97.18L113,110.9l-1-.08V84.08h-1.45l-53.86-6V126.8a76.56,76.56,0,0,1-2.65,17.13C51.49,153.52,48.4,166,48.4,172v15.13H187.79l7-90.13Z" style="fill:#4cbea0;opacity:0.5"/><rect x="107.71" y="118.99" width="9.65" height="14.62" style="fill:#4cbea0"/><rect x="131.16" y="119.8" width="13.57" height="13.81" style="fill:#4cbea0"/><rect x="157.95" y="119.8" width="14.16" height="13.81" style="fill:#4cbea0"/><rect x="131.16" y="146.84" width="13.57" height="15.74" style="fill:#4cbea0"/><rect x="158.09" y="147" width="13.99" height="14.79" style="fill:#4cbea0"/><path d="M188.6,178H38.4V164.3c0-5.11,2-14.91,6-30a79,79,0,0,0,2.71-17.46V70.07h62V97.19L132,82.1v19.52l28.2-19V101.4L188.6,81.82Zm-70.79-4H184.6V89.44L156.22,109V90.11l-28.2,19V89.52L109.11,102v14.9a79.09,79.09,0,0,0,2.71,17.44c4,15.07,6,24.87,6,30ZM42.4,174h71.41V164.3c0-4.69-2-14.43-5.85-28.94a81.46,81.46,0,0,1-2.85-18.46V74.07h-54v42.81a81.7,81.7,0,0,1-2.84,18.48c-3.89,14.51-5.86,24.25-5.86,28.94Z" style="fill:#1f407b"/><rect x="49.1" y="84.79" width="58.01" height="4" style="fill:#1f407b"/><path d="M146.73,136.09H128.57V117h18.16Zm-14.16-4h10.16V121H132.57Z" style="fill:#1f407b"/><path d="M174.11,136.09H156V117h18.16Zm-14.16-4h10.16V121H160Z" style="fill:#1f407b"/><path d="M146.73,163.94H128.57v-19.1h18.16Zm-14.16-4h10.16v-11.1H132.57Z" style="fill:#1f407b"/><polygon points="119.36 136.09 109.69 136.09 109.69 132.09 115.36 132.09 115.36 120.99 107.71 120.99 107.71 116.99 119.36 116.99 119.36 136.09" style="fill:#1f407b"/><polygon points="119.36 163.94 116 163.94 116 161.94 115.36 161.94 115.36 148.84 113.59 148.84 113.59 144.84 119.36 144.84 119.36 163.94" style="fill:#1f407b"/><path d="M174.11,163.94H156v-19.1h18.16Zm-14.16-4h10.16v-11.1H160Z" style="fill:#1f407b"/><path d="M65.61,47.49a8.22,8.22,0,1,1,0-16.43v4a4.22,4.22,0,1,0,0,8.43Z" style="fill:#1f407b"/><path d="M62.48,64.15h-4a8.23,8.23,0,0,1,8.22-8.22h15a4.22,4.22,0,0,0,0-8.44H55.61a8.22,8.22,0,1,1,0-16.43H68.53a4.24,4.24,0,0,0,4.29-4.22h4a8.23,8.23,0,0,1-8.22,8.22h-13a4.22,4.22,0,1,0,0,8.43H81.74a8.22,8.22,0,0,1,0,16.44h-15A4.24,4.24,0,0,0,62.48,64.15Z" style="fill:#1f407b"/><path d="M68.36,64.15h-4a8.23,8.23,0,0,1,8.22-8.22l.09,4h-.09A4.23,4.23,0,0,0,68.36,64.15Z" style="fill:#1f407b"/></g></g></svg>