<?xml version="1.0" encoding="utf-8"?>
<!-- Generator: Adobe Illustrator 16.0.0, SVG Export Plug-In . SVG Version: 6.00 Build 0)  -->
<!DOCTYPE svg PUBLIC "-//W3C//DTD SVG 1.1//EN" "http://www.w3.org/Graphics/SVG/1.1/DTD/svg11.dtd">
<svg version="1.1" id="Layer_5" xmlns="http://www.w3.org/2000/svg" xmlns:xlink="http://www.w3.org/1999/xlink" x="0px" y="0px"
	 width="1260.5px" height="804px" viewBox="0 0 1260.5 804" enable-background="new 0 0 1260.5 804" xml:space="preserve">
<path fill="#1F407B" d="M598.9,187.1c0,4.9-4,8.9-8.9,8.9H473.4c-4.9,0-8.9-4-8.9-8.9v-55.8c0-4.9,4-8.9,8.9-8.9H590
	c4.9,0,8.9,4,8.9,8.9V187.1z"/>
<path fill="#1F407B" d="M743.1,187.1c0,4.9-4,8.9-8.9,8.9H617.7c-4.9,0-8.9-4-8.9-8.9v-55.8c0-4.9,4-8.9,8.9-8.9h116.6
	c4.9,0,8.9,4,8.9,8.9V187.1z"/>
<g>
	
		<image overflow="visible" opacity="0.3" width="3079" height="2394" xlink:href="4EF07DF4.png"  transform="matrix(0.24 0 0 0.24 257.8486 98.459)">
	</image>
	<g>
		<path fill="#FFFFFF" d="M962.6,176.2H458.4c0,0-8.1-0.5-8.1-10.6v-34.2c0-4.9-4-8.9-8.9-8.9H324.9c-4.9,0-8.9,4-8.9,8.9v34.4
			c0,1.4-0.5,10.5-10.2,10.5h-14c-5.5,0-10,4.5-10,10v452.7c0,5.5,4.5,10,10,10h670.8c5.5,0,10-4.5,10-10V186.2
			C972.6,180.6,968.2,176.2,962.6,176.2z"/>
	</g>
</g>
<g opacity="0.5">
	<path fill="#F2F2F2" d="M947.5,552.2c0,1.7-1.3,3-3,3H310c-1.7,0-3-1.3-3-3V244.4c0-1.7,1.3-3,3-3h634.5c1.7,0,3,1.3,3,3V552.2z"/>
	<path fill="#CCCCCC" d="M944.5,555.7H310c-1.9,0-3.5-1.6-3.5-3.5V244.4c0-1.9,1.6-3.5,3.5-3.5h634.5c1.9,0,3.5,1.6,3.5,3.5v307.8
		C948,554.1,946.4,555.7,944.5,555.7z M310,241.9c-1.4,0-2.5,1.1-2.5,2.5v307.8c0,1.4,1.1,2.5,2.5,2.5h634.5c1.4,0,2.5-1.1,2.5-2.5
		V244.4c0-1.4-1.1-2.5-2.5-2.5H310z"/>
</g>
<g>
	<path fill="#1884B3" d="M671.6,160c0,2.2-1.8,3.9-3.9,3.9h-22.2c-2.2,0-3.9-1.8-3.9-3.9v-22.3c0-2.2,1.8-3.9,3.9-3.9h22.2
		c2.2,0,3.9,1.8,3.9,3.9V160z"/>
	<g>
		<path fill-rule="evenodd" clip-rule="evenodd" fill="#FFFFFF" d="M665,157c-1.2,0-2.4,0-3.6,0c0-0.2,0-0.3,0-0.4
			c0-1.7,0-3.5,0-5.2c0-0.3,0-0.6-0.1-1c-0.1-1-0.7-1.6-1.6-1.7c-1-0.1-1.8,0.5-2.1,1.5c-0.1,0.2-0.1,0.4-0.1,0.6c0,1.9,0,3.8,0,5.7
			c0,0.1,0,0.3,0,0.4c-1.2,0-2.4,0-3.6,0c0-3.6,0-7.2,0-10.8c1.2,0,2.4,0,3.6,0c0,0.5,0,0.9,0,1.5c0.1-0.1,0.2-0.2,0.2-0.3
			c0.9-1.3,2.2-1.6,3.7-1.5c1.5,0.2,2.5,1,3,2.3c0.2,0.5,0.3,1.1,0.4,1.6c0,0.1,0,0.1,0.1,0.2C665,152.4,665,154.7,665,157z"/>
		<path fill-rule="evenodd" clip-rule="evenodd" fill="#FFFFFF" d="M648.1,142.4c0.6-1.3,1.7-1.8,2.9-1.3c0.8,0.3,1.2,1.1,1.1,1.9
			c-0.1,0.7-0.6,1.4-1.4,1.6c-1.3,0.3-2.2-0.2-2.7-1.5C648.1,142.8,648.1,142.6,648.1,142.4z"/>
		<path fill-rule="evenodd" clip-rule="evenodd" fill="#FFFFFF" d="M648.4,146.1c1.2,0,2.4,0,3.6,0c0,3.6,0,7.2,0,10.8
			c-1.2,0-2.4,0-3.6,0C648.4,153.4,648.4,149.8,648.4,146.1z"/>
	</g>
</g>
<path fill="#1884B3" d="M528,160c0,2.2-1.8,3.9-3.9,3.9h-22.2c-2.2,0-3.9-1.8-3.9-3.9v-22.3c0-2.2,1.8-3.9,3.9-3.9h22.2
	c2.2,0,3.9,1.8,3.9,3.9V160z"/>
<path fill="#1884B3" d="M374,160c0,2.2-1.8,3.9-3.9,3.9h-22.2c-2.2,0-3.9-1.8-3.9-3.9v-22.3c0-2.2,1.8-3.9,3.9-3.9H370
	c2.2,0,3.9,1.8,3.9,3.9V160z"/>
<path fill-rule="evenodd" clip-rule="evenodd" fill="#FFFFFF" d="M359.8,164c0-2.3,0-4.6-0.1-6.9c0-0.6,0-1.3,0-2.1
	c-0.8,0-1.6,0-2.3,0c-0.6,0-0.8-0.2-0.8-0.8c0-0.8,0-1.7,0-2.5c0-0.5,0.2-0.7,0.7-0.7c0.8,0,1.5,0,2.4,0c0-1,0-1.9,0-2.8
	c0-2.5,1.5-4.2,4-4.4c1.1-0.1,2.2,0,3.4,0c0,1.2,0,2.3,0,3.6c-0.7,0-1.4,0-2.1,0c-1.1,0-1.4,0.3-1.4,1.4c0,0.6,0,1.3,0,1.9
	c0,0.1,0,0.2,0.1,0.3c1.1,0,2.2,0,3.4,0c-0.2,1.4-0.4,2.6-0.5,3.9c-1,0-1.9,0-3,0c0,3.1,0,6,0,9C362.4,164,361.1,164,359.8,164z"/>
<polygon fill="#1F407B" points="399.1,156.7 390.4,148 392.5,145.9 399.1,152.5 413.4,138.2 415.6,140.3 "/>
<polygon fill="#FFFFFF" points="564.2,147.4 555.4,147.4 555.4,138.6 552.4,138.6 552.4,147.4 543.5,147.4 543.5,150.4 552.4,150.4 
	552.4,159.3 555.4,159.3 555.4,150.4 564.2,150.4 "/>
<polygon fill="#FFFFFF" points="706.1,147.4 697.2,147.4 697.2,138.6 694.2,138.6 694.2,147.4 685.4,147.4 685.4,150.4 694.2,150.4 
	694.2,159.3 697.2,159.3 697.2,150.4 706.1,150.4 "/>
<path fill-rule="evenodd" clip-rule="evenodd" fill="#FFFFFF" d="M510.6,156.5c-0.8,0-1.5,0-2.3,0c-0.6-0.2-1.2-0.2-1.8-0.4
	c-1.1-0.3-2.1-0.7-3-1.3c2.1,0.1,4-0.4,5.7-1.7c-1.8-0.2-3.1-1.1-3.7-2.8c0.6,0,1.1,0.1,1.7-0.1c-2.3-0.6-3.2-2.6-3.1-4
	c0.3,0.1,0.5,0.2,0.8,0.3c0.3,0.1,0.5,0.2,0.8,0.1c-1.7-1.4-2-3.3-1.4-4.8c0.2-0.6,0.2-0.6,0.6-0.1c2,2.2,4.6,3.5,7.6,3.8
	c0.4,0,0.4-0.1,0.4-0.4c-0.3-2,1-3.8,2.9-4.4c0.2,0,0.3,0,0.5-0.2c0.4,0,0.8,0,1.3,0c0.8,0.2,1.6,0.5,2.3,1.2c0.1,0.1,0.2,0.1,0.4,0
	c0.8-0.2,1.5-0.5,2.3-0.9c-0.3,1-0.9,1.6-1.5,2.1c0.2,0,0.4,0,0.6-0.1c0.5-0.1,1-0.3,1.4-0.4c-0.5,0.7-1.1,1.3-1.8,1.9
	c-0.1,0.1-0.2,0.2-0.2,0.4c0,1-0.1,2.1-0.4,3.1c-1.2,4.3-3.8,7.1-8.2,8.3C511.9,156.3,511.2,156.4,510.6,156.5z"/>
<g>
	<rect x="926.7" y="200.7" fill="#929DAD" width="19.9" height="3"/>
	<rect x="926.7" y="207.5" fill="#929DAD" width="19.9" height="3"/>
	<rect x="926.7" y="214.2" fill="#929DAD" width="19.9" height="3"/>
</g>
<g>
	<polygon fill="#929DAD" points="897.6,217.3 901.7,217.3 901.7,214.7 900.2,214.7 900.2,203.2 901.7,203.2 901.7,200.7 
		897.6,200.7 	"/>
	<polygon fill="#929DAD" points="905,200.7 905,203.2 906.4,203.2 906.4,214.7 905,214.7 905,217.3 909,217.3 909,200.7 	"/>
</g>
<g>
	<path fill="#929DAD" d="M875.2,199.7h-10.6c-2.2,0-4,1.8-4,4v10.6c0,2.2,1.8,4,4,4h10.6c2.2,0,4-1.8,4-4v-10.6
		C879.2,201.5,877.4,199.7,875.2,199.7z M877.2,214.2c0,1.1-0.9,2-2,2h-10.6c-1.1,0-2-0.9-2-2v-10.6c0-1.1,0.9-2,2-2h10.6
		c1.1,0,2,0.9,2,2V214.2z"/>
	<polygon fill="#929DAD" points="868.1,210.3 866.5,208.7 865.1,210.2 868.1,213.1 875.3,205.9 873.9,204.5 	"/>
</g>
<g>
	<path fill="#999999" d="M637.4,199.6v16.2h-2.1v-16.2H637.4z"/>
	<path fill="#999999" d="M641.2,207.3c0-1.2,0-2.2-0.1-3.1h1.9l0.1,1.9h0c0.6-1.1,1.9-2.2,3.8-2.2c1.6,0,4.1,1,4.1,4.9v6.9H649V209
		c0-1.9-0.7-3.4-2.7-3.4c-1.4,0-2.5,1-2.8,2.2c-0.1,0.3-0.1,0.6-0.1,1v7h-2.1V207.3z"/>
	<path fill="#999999" d="M662.8,215.3c-0.6,0.3-1.8,0.7-3.3,0.7c-3.5,0-5.8-2.4-5.8-5.9c0-3.6,2.4-6.2,6.2-6.2
		c1.2,0,2.4,0.3,2.9,0.6l-0.5,1.6c-0.5-0.3-1.3-0.6-2.4-0.6c-2.7,0-4.1,2-4.1,4.4c0,2.7,1.7,4.3,4,4.3c1.2,0,2-0.3,2.6-0.6
		L662.8,215.3z"/>
	<path fill="#999999" d="M665.3,198.7h2.1v17h-2.1V198.7z"/>
	<path fill="#999999" d="M680.7,212.6c0,1.2,0,2.3,0.1,3.2h-1.9l-0.1-1.9h0c-0.6,0.9-1.8,2.2-3.8,2.2c-1.8,0-4-1-4-5.1v-6.8h2.1v6.4
		c0,2.2,0.7,3.7,2.6,3.7c1.4,0,2.4-1,2.8-1.9c0.1-0.3,0.2-0.7,0.2-1.1v-7.1h2.1V212.6z"/>
	<path fill="#999999" d="M694.2,198.7v14c0,1,0,2.2,0.1,3h-1.9l-0.1-2h0c-0.6,1.3-2.1,2.3-4,2.3c-2.8,0-5-2.4-5-5.9
		c0-3.9,2.4-6.2,5.2-6.2c1.8,0,3,0.8,3.5,1.8h0v-6.9H694.2z M692.1,208.9c0-0.3,0-0.6-0.1-0.9c-0.3-1.3-1.5-2.4-3-2.4
		c-2.2,0-3.5,1.9-3.5,4.5c0,2.4,1.2,4.3,3.4,4.3c1.4,0,2.7-0.9,3.1-2.5c0.1-0.3,0.1-0.6,0.1-0.9V208.9z"/>
	<path fill="#999999" d="M698.9,210.3c0,2.9,1.9,4,4,4c1.5,0,2.4-0.3,3.2-0.6l0.4,1.5c-0.7,0.3-2,0.7-3.9,0.7
		c-3.6,0-5.7-2.4-5.7-5.9c0-3.5,2.1-6.3,5.4-6.3c3.8,0,4.8,3.3,4.8,5.5c0,0.4,0,0.8-0.1,1H698.9z M705.1,208.8
		c0-1.3-0.6-3.4-2.9-3.4c-2.1,0-3.1,2-3.2,3.4H705.1z"/>
	<path fill="#999999" d="M717,201.3H712v-1.8h12v1.8h-4.9v14.4H717V201.3z"/>
	<path fill="#999999" d="M725.6,198.7h2.1v7.2h0c0.3-0.6,0.9-1.1,1.5-1.5c0.6-0.4,1.4-0.6,2.2-0.6c1.6,0,4.1,1,4.1,5v6.9h-2.1v-6.7
		c0-1.9-0.7-3.5-2.7-3.5c-1.4,0-2.4,1-2.8,2.1c-0.1,0.3-0.1,0.6-0.1,1v7h-2.1V198.7z"/>
	<path fill="#999999" d="M741.3,200.9c0,0.7-0.5,1.3-1.3,1.3c-0.7,0-1.3-0.6-1.3-1.3c0-0.7,0.6-1.3,1.3-1.3
		C740.8,199.5,741.3,200.1,741.3,200.9z M738.9,215.7v-11.6h2.1v11.6H738.9z"/>
	<path fill="#999999" d="M744.2,213.6c0.6,0.4,1.7,0.8,2.8,0.8c1.5,0,2.3-0.8,2.3-1.7c0-1-0.6-1.6-2.2-2.1c-2.1-0.7-3.1-1.9-3.1-3.3
		c0-1.9,1.5-3.4,4-3.4c1.2,0,2.2,0.3,2.9,0.7l-0.5,1.5c-0.5-0.3-1.3-0.7-2.4-0.7c-1.2,0-1.9,0.7-1.9,1.6c0,1,0.7,1.4,2.2,2
		c2,0.8,3,1.8,3,3.5c0,2-1.6,3.5-4.3,3.5c-1.3,0-2.4-0.3-3.3-0.8L744.2,213.6z"/>
	<path fill="#999999" d="M759.2,199.8c1-0.2,2.3-0.3,4-0.3c2.1,0,3.6,0.5,4.5,1.3c0.9,0.8,1.4,1.9,1.4,3.4c0,1.5-0.4,2.6-1.2,3.5
		c-1.1,1.2-2.9,1.8-4.9,1.8c-0.6,0-1.2,0-1.7-0.1v6.5h-2.1V199.8z M761.3,207.6c0.5,0.1,1,0.2,1.7,0.2c2.5,0,4.1-1.2,4.1-3.5
		c0-2.1-1.5-3.2-3.8-3.2c-0.9,0-1.6,0.1-2,0.2V207.6z"/>
	<path fill="#999999" d="M771.8,198.7h2.1v17h-2.1V198.7z"/>
	<path fill="#999999" d="M783.9,215.7l-0.2-1.5h-0.1c-0.6,0.9-1.9,1.7-3.6,1.7c-2.4,0-3.6-1.7-3.6-3.3c0-2.8,2.5-4.3,7-4.3v-0.2
		c0-1-0.3-2.7-2.6-2.7c-1.1,0-2.2,0.3-3,0.9l-0.5-1.4c1-0.6,2.4-1,3.8-1c3.6,0,4.4,2.4,4.4,4.8v4.3c0,1,0,2,0.2,2.8H783.9z
		 M783.5,209.8c-2.3,0-4.9,0.4-4.9,2.6c0,1.4,0.9,2,2,2c1.5,0,2.5-1,2.8-1.9c0.1-0.2,0.1-0.5,0.1-0.7V209.8z"/>
	<path fill="#999999" d="M791.4,200.8v3.3h3v1.6h-3v6.3c0,1.4,0.4,2.3,1.6,2.3c0.6,0,1-0.1,1.2-0.1l0.1,1.6
		c-0.4,0.2-1.1,0.3-1.9,0.3c-1,0-1.8-0.3-2.3-0.9c-0.6-0.6-0.8-1.7-0.8-3v-6.3h-1.8v-1.6h1.8v-2.8L791.4,200.8z"/>
	<path fill="#999999" d="M797.1,215.7v-10h-1.6v-1.6h1.6v-0.6c0-1.6,0.4-3.1,1.3-4.1c0.8-0.8,1.8-1.1,2.8-1.1c0.7,0,1.4,0.2,1.8,0.3
		l-0.3,1.6c-0.3-0.1-0.7-0.3-1.3-0.3c-1.8,0-2.3,1.6-2.3,3.4v0.6h2.8v1.6h-2.8v10H797.1z"/>
	<path fill="#999999" d="M814.1,209.8c0,4.3-3,6.2-5.8,6.2c-3.1,0-5.6-2.3-5.6-6c0-3.9,2.5-6.2,5.8-6.2
		C811.8,203.9,814.1,206.3,814.1,209.8z M804.8,210c0,2.5,1.5,4.5,3.5,4.5c2,0,3.5-1.9,3.5-4.5c0-2-1-4.5-3.5-4.5
		C805.9,205.4,804.8,207.7,804.8,210z"/>
	<path fill="#999999" d="M816.7,207.7c0-1.4,0-2.5-0.1-3.6h1.8l0.1,2.3h0.1c0.5-1.6,1.8-2.5,3.2-2.5c0.2,0,0.4,0,0.6,0.1v2
		c-0.2,0-0.4-0.1-0.7-0.1c-1.5,0-2.5,1.1-2.8,2.7c0,0.3-0.1,0.6-0.1,1v6.2h-2.1V207.7z"/>
	<path fill="#999999" d="M824.7,207.3c0-1.2,0-2.2-0.1-3.1h1.8l0.1,1.9h0.1c0.6-1.1,1.7-2.1,3.6-2.1c1.6,0,2.8,1,3.3,2.3h0
		c0.4-0.6,0.8-1.2,1.3-1.5c0.7-0.5,1.5-0.8,2.6-0.8c1.5,0,3.8,1,3.8,5v6.8h-2.1v-6.6c0-2.2-0.8-3.6-2.5-3.6c-1.2,0-2.1,0.9-2.5,1.9
		c-0.1,0.3-0.2,0.7-0.2,1.1v7.2h-2.1v-7c0-1.8-0.8-3.2-2.4-3.2c-1.3,0-2.3,1.1-2.6,2.1c-0.1,0.3-0.2,0.7-0.2,1v7h-2.1V207.3z"/>
</g>
<g>
	<path fill="#1F407B" d="M317.1,599.1v12.1h-2.8v-12.1H317.1z"/>
	<path fill="#1F407B" d="M319.5,605.2c0-1.1,0-2-0.1-2.8h2.4l0.1,1.2h0.1c0.4-0.6,1.3-1.4,2.7-1.4c1.8,0,3.2,1.2,3.2,3.8v5.2h-2.7
		v-4.9c0-1.1-0.4-1.9-1.4-1.9c-0.8,0-1.2,0.5-1.4,1c-0.1,0.2-0.1,0.4-0.1,0.7v5.1h-2.7V605.2z"/>
	<path fill="#1F407B" d="M330,608.8c0.5,0.3,1.5,0.7,2.4,0.7c0.8,0,1.2-0.3,1.2-0.7c0-0.5-0.3-0.7-1.3-1c-1.8-0.6-2.5-1.6-2.5-2.6
		c0-1.6,1.4-2.9,3.6-2.9c1,0,1.9,0.2,2.5,0.5l-0.5,1.9c-0.4-0.2-1.2-0.5-1.9-0.5c-0.7,0-1,0.3-1,0.7c0,0.4,0.3,0.6,1.4,1
		c1.7,0.6,2.4,1.4,2.4,2.7c0,1.6-1.3,2.8-3.8,2.8c-1.2,0-2.2-0.3-2.8-0.6L330,608.8z"/>
	<path fill="#1F407B" d="M339.9,607.7c0.1,1.1,1.2,1.7,2.5,1.7c0.9,0,1.7-0.1,2.4-0.4l0.4,1.9c-0.9,0.4-2,0.5-3.2,0.5
		c-3,0-4.7-1.7-4.7-4.5c0-2.2,1.4-4.7,4.4-4.7c2.8,0,3.9,2.2,3.9,4.4c0,0.5-0.1,0.9-0.1,1.1H339.9z M343.2,605.8
		c0-0.7-0.3-1.8-1.5-1.8c-1.2,0-1.6,1-1.7,1.8H343.2z"/>
	<path fill="#1F407B" d="M347.3,605.3c0-1.3,0-2.1-0.1-2.9h2.4l0.1,1.6h0.1c0.5-1.3,1.5-1.8,2.4-1.8c0.3,0,0.4,0,0.6,0v2.6
		c-0.2,0-0.4-0.1-0.7-0.1c-1,0-1.7,0.5-1.9,1.4c0,0.2-0.1,0.4-0.1,0.6v4.5h-2.7V605.3z"/>
	<path fill="#1F407B" d="M357.6,599.9v2.5h2v2h-2v3.2c0,1.1,0.3,1.5,1.1,1.5c0.3,0,0.6,0,0.8-0.1l0,2.1c-0.4,0.1-1,0.2-1.8,0.2
		c-0.9,0-1.6-0.3-2.1-0.8c-0.5-0.5-0.8-1.4-0.8-2.6v-3.6h-1.2v-2h1.2v-1.9L357.6,599.9z"/>
	<path fill="#1F407B" d="M364.9,599.1h2.8v9.8h4.8v2.3h-7.6V599.1z"/>
	<path fill="#1F407B" d="M376.8,600c0,0.8-0.6,1.4-1.5,1.4c-0.9,0-1.4-0.6-1.4-1.4c0-0.8,0.6-1.4,1.4-1.4
		C376.2,598.6,376.8,599.2,376.8,600z M374,611.2v-8.8h2.7v8.8H374z"/>
	<path fill="#1F407B" d="M378.9,605.2c0-1.1,0-2-0.1-2.8h2.4l0.1,1.2h0.1c0.4-0.6,1.3-1.4,2.7-1.4c1.8,0,3.2,1.2,3.2,3.8v5.2h-2.7
		v-4.9c0-1.1-0.4-1.9-1.4-1.9c-0.8,0-1.2,0.5-1.4,1c-0.1,0.2-0.1,0.4-0.1,0.7v5.1h-2.7V605.2z"/>
	<path fill="#1F407B" d="M392.2,606.1L392.2,606.1c0.2-0.4,0.5-0.7,0.7-1.1l1.8-2.6h3.3l-3.2,3.6l3.6,5.2H395l-2.1-3.6l-0.7,0.9v2.8
		h-2.7v-12.8h2.7V606.1z"/>
</g>
<g>
	<path fill="#1F407B" d="M507.5,608.1l-0.9,3.1h-2.8l3.7-12.1h3.6l3.8,12.1h-3l-0.9-3.1H507.5z M510.5,606.1l-0.8-2.6
		c-0.2-0.7-0.4-1.6-0.6-2.3h0c-0.2,0.7-0.4,1.6-0.6,2.3l-0.7,2.6H510.5z"/>
	<path fill="#1F407B" d="M524.6,598.4v10.2c0,1,0,2,0.1,2.6h-2.4l-0.1-1.3h0c-0.6,1-1.6,1.5-2.8,1.5c-2.1,0-3.8-1.8-3.8-4.5
		c0-3,1.8-4.7,3.9-4.7c1.1,0,1.9,0.4,2.3,1h0v-4.8H524.6z M521.9,606.1c0-0.1,0-0.3,0-0.5c-0.2-0.7-0.8-1.3-1.6-1.3
		c-1.2,0-1.9,1.1-1.9,2.5c0,1.5,0.7,2.4,1.9,2.4c0.8,0,1.4-0.5,1.6-1.3c0.1-0.2,0.1-0.4,0.1-0.6V606.1z"/>
	<path fill="#1F407B" d="M535.4,598.4v10.2c0,1,0,2,0.1,2.6H533l-0.1-1.3h0c-0.6,1-1.6,1.5-2.8,1.5c-2.1,0-3.8-1.8-3.8-4.5
		c0-3,1.8-4.7,3.9-4.7c1.1,0,1.9,0.4,2.3,1h0v-4.8H535.4z M532.6,606.1c0-0.1,0-0.3,0-0.5c-0.2-0.7-0.8-1.3-1.6-1.3
		c-1.2,0-1.9,1.1-1.9,2.5c0,1.5,0.7,2.4,1.9,2.4c0.8,0,1.4-0.5,1.6-1.3c0.1-0.2,0.1-0.4,0.1-0.6V606.1z"/>
	<path fill="#1F407B" d="M541.3,599.2c0.8-0.1,2-0.3,3.7-0.3c1.7,0,2.9,0.3,3.7,1c0.8,0.6,1.3,1.6,1.3,2.8c0,1.2-0.4,2.2-1.1,2.9
		c-0.9,0.9-2.3,1.3-3.9,1.3c-0.4,0-0.7,0-0.9-0.1v4.3h-2.7V599.2z M544,604.8c0.2,0.1,0.5,0.1,0.9,0.1c1.5,0,2.4-0.7,2.4-2
		c0-1.1-0.8-1.8-2.1-1.8c-0.6,0-0.9,0.1-1.1,0.1V604.8z"/>
	<path fill="#1F407B" d="M551.6,598.4h2.7v5h0c0.3-0.4,0.6-0.7,1.1-0.9c0.4-0.2,0.9-0.3,1.4-0.3c1.7,0,3.1,1.2,3.1,3.9v5.2h-2.7
		v-4.8c0-1.2-0.4-1.9-1.4-1.9c-0.7,0-1.2,0.5-1.4,1c-0.1,0.2-0.1,0.4-0.1,0.6v5.2h-2.7V598.4z"/>
	<path fill="#1F407B" d="M570.9,606.7c0,3.2-2.3,4.7-4.6,4.7c-2.6,0-4.6-1.7-4.6-4.5s1.9-4.7,4.7-4.7
		C569.1,602.2,570.9,604.1,570.9,606.7z M564.5,606.8c0,1.5,0.6,2.6,1.8,2.6c1.1,0,1.7-1.1,1.7-2.6c0-1.3-0.5-2.6-1.7-2.6
		C565,604.2,564.5,605.5,564.5,606.8z"/>
	<path fill="#1F407B" d="M575.6,599.9v2.5h2v2h-2v3.2c0,1.1,0.3,1.5,1.1,1.5c0.3,0,0.6,0,0.8-0.1l0,2.1c-0.4,0.1-1,0.2-1.8,0.2
		c-0.9,0-1.6-0.3-2.1-0.8c-0.5-0.5-0.8-1.4-0.8-2.6v-3.6h-1.2v-2h1.2v-1.9L575.6,599.9z"/>
	<path fill="#1F407B" d="M587.8,606.7c0,3.2-2.3,4.7-4.6,4.7c-2.6,0-4.6-1.7-4.6-4.5s1.9-4.7,4.7-4.7
		C586,602.2,587.8,604.1,587.8,606.7z M581.4,606.8c0,1.5,0.6,2.6,1.8,2.6c1.1,0,1.7-1.1,1.7-2.6c0-1.3-0.5-2.6-1.7-2.6
		C581.9,604.2,581.4,605.5,581.4,606.8z"/>
</g>
<g>
	<path fill="#1F407B" d="M690.6,608.1l-0.9,3.1h-2.8l3.7-12.1h3.6l3.8,12.1h-3l-0.9-3.1H690.6z M693.7,606.1l-0.8-2.6
		c-0.2-0.7-0.4-1.6-0.6-2.3h0c-0.2,0.7-0.4,1.6-0.6,2.3l-0.7,2.6H693.7z"/>
	<path fill="#1F407B" d="M707.8,598.4v10.2c0,1,0,2,0.1,2.6h-2.4l-0.1-1.3h0c-0.6,1-1.6,1.5-2.8,1.5c-2.1,0-3.8-1.8-3.8-4.5
		c0-3,1.8-4.7,3.9-4.7c1.1,0,1.9,0.4,2.3,1h0v-4.8H707.8z M705.1,606.1c0-0.1,0-0.3,0-0.5c-0.2-0.7-0.8-1.3-1.6-1.3
		c-1.2,0-1.9,1.1-1.9,2.5c0,1.5,0.7,2.4,1.9,2.4c0.8,0,1.4-0.5,1.6-1.3c0.1-0.2,0.1-0.4,0.1-0.6V606.1z"/>
	<path fill="#1F407B" d="M718.5,598.4v10.2c0,1,0,2,0.1,2.6h-2.4l-0.1-1.3h0c-0.6,1-1.6,1.5-2.8,1.5c-2.1,0-3.8-1.8-3.8-4.5
		c0-3,1.8-4.7,3.9-4.7c1.1,0,1.9,0.4,2.3,1h0v-4.8H718.5z M715.8,606.1c0-0.1,0-0.3,0-0.5c-0.2-0.7-0.8-1.3-1.6-1.3
		c-1.2,0-1.9,1.1-1.9,2.5c0,1.5,0.7,2.4,1.9,2.4c0.8,0,1.4-0.5,1.6-1.3c0.1-0.2,0.1-0.4,0.1-0.6V606.1z"/>
	<path fill="#1F407B" d="M733.4,610.9c-0.5,0.3-1.6,0.5-3.1,0.5c-4.2,0-6.4-2.6-6.4-6.1c0-4.1,3-6.4,6.6-6.4c1.4,0,2.5,0.3,3,0.5
		l-0.6,2.2c-0.6-0.2-1.3-0.5-2.3-0.5c-2.2,0-3.9,1.3-3.9,4c0,2.4,1.4,4,3.9,4c0.8,0,1.7-0.2,2.3-0.4L733.4,610.9z"/>
	<path fill="#1F407B" d="M743.4,606.7c0,3.2-2.3,4.7-4.6,4.7c-2.6,0-4.6-1.7-4.6-4.5s1.9-4.7,4.7-4.7
		C741.6,602.2,743.4,604.1,743.4,606.7z M737.1,606.8c0,1.5,0.6,2.6,1.8,2.6c1.1,0,1.7-1.1,1.7-2.6c0-1.3-0.5-2.6-1.7-2.6
		C737.5,604.2,737.1,605.5,737.1,606.8z"/>
	<path fill="#1F407B" d="M753.4,608.4c0,1.2,0,2.1,0.1,2.8h-2.4L751,610h-0.1c-0.3,0.5-1.2,1.4-2.8,1.4c-1.8,0-3.1-1.1-3.1-3.8v-5.2
		h2.8v4.7c0,1.3,0.4,2.1,1.4,2.1c0.8,0,1.2-0.5,1.4-1c0.1-0.2,0.1-0.4,0.1-0.6v-5.2h2.8V608.4z"/>
	<path fill="#1F407B" d="M755.6,605.4c0-1.2,0-2.1-0.1-3h2.4l0.1,1.2h0c0.6-0.9,1.7-1.4,2.9-1.4c1.9,0,3.7,1.7,3.7,4.5
		c0,3.2-2,4.7-4,4.7c-1.1,0-1.9-0.4-2.3-1h0v4.4h-2.7V605.4z M758.4,607.4c0,0.2,0,0.4,0.1,0.6c0.2,0.7,0.8,1.3,1.6,1.3
		c1.2,0,1.9-1,1.9-2.5c0-1.4-0.6-2.5-1.9-2.5c-0.8,0-1.5,0.6-1.6,1.4c0,0.1-0.1,0.3-0.1,0.5V607.4z"/>
	<path fill="#1F407B" d="M775.1,606.7c0,3.2-2.3,4.7-4.6,4.7c-2.6,0-4.6-1.7-4.6-4.5s1.9-4.7,4.7-4.7
		C773.3,602.2,775.1,604.1,775.1,606.7z M768.8,606.8c0,1.5,0.6,2.6,1.8,2.6c1.1,0,1.7-1.1,1.7-2.6c0-1.3-0.5-2.6-1.7-2.6
		C769.2,604.2,768.8,605.5,768.8,606.8z"/>
	<path fill="#1F407B" d="M776.8,605.2c0-1.1,0-2-0.1-2.8h2.4l0.1,1.2h0.1c0.4-0.6,1.3-1.4,2.7-1.4c1.8,0,3.2,1.2,3.2,3.8v5.2h-2.7
		v-4.9c0-1.1-0.4-1.9-1.4-1.9c-0.8,0-1.2,0.5-1.4,1c-0.1,0.2-0.1,0.4-0.1,0.7v5.1h-2.7V605.2z"/>
</g>
<g>
	<path fill-rule="evenodd" clip-rule="evenodd" fill="#1F407B" d="M444.6,604.2c-0.6-1.7-1.8-3-3.6-3.6c-1.1-0.4-2.2-0.5-3.4-0.5
		c-1.1,0-2.2,0-3.3-0.1c0,0-0.1,0-0.1,0c0,0,0,0,0,0.1c0.1,0,0.1,0.1,0.2,0.1c0.9,0.6,1.5,1.3,1.9,2.3c0.1,0.1,0.1,0.2,0.3,0.2
		c0.9,0,1.7,0,2.6,0.1c1.3,0.2,2.2,0.9,2.7,2.1c0.3,0.7,0.6,1.5,0.4,2.3c-0.4,1.8-1.9,3.1-3.8,3.1c-1.8,0-3.6,0-5.4,0
		c-1.1,0-2.1-0.4-2.9-1.2c-1-1-1.3-2.2-1-3.6c0.1-0.4,0.2-0.9,0.4-1.3c-0.7,0-1.4,0-2.2,0c-0.2,0-0.4-0.1-0.6,0
		c-0.1,0.1-0.1,0.4-0.2,0.6c-0.3,1-0.4,2.1-0.2,3.2c0.5,2.3,1.9,3.8,4.1,4.6c0.7,0.3,1.4,0.3,2.2,0.3c1.8,0,3.6,0,5.4,0
		c1.2,0,2.3-0.2,3.4-0.7c0.8-0.4,1.5-0.8,2.1-1.6C445.2,608.7,445.4,606.5,444.6,604.2z"/>
	<path fill-rule="evenodd" clip-rule="evenodd" fill="#1F407B" d="M425.7,610.3c-0.6,0-1.2,0-1.8,0c-1.6-0.1-2.8-0.8-3.5-2.2
		c-0.5-1-0.7-2.1-0.1-3.2c0.7-1.4,1.7-2.3,3.3-2.3c1.9,0,3.7,0,5.6,0c0.1,0,0.2,0,0.4,0c1.8,0.3,3.9,1.7,3.4,4.6
		c-0.1,0.5-0.2,1-0.3,1.5c0.9,0,1.8,0,2.6,0c0,0,0.1-0.1,0.1-0.1c0.1-0.2,0.1-0.4,0.2-0.6c0.2-1,0.3-2.1,0.1-3.1
		c-0.4-2.2-1.8-3.6-3.8-4.4c-0.8-0.3-1.6-0.4-2.4-0.4c-1.8,0-3.5,0-5.3,0c-0.4,0-0.8,0-1.2,0.1c-2.2,0.4-3.8,1.6-4.8,3.6
		c-1.1,2.4-0.5,5.4,1.4,7.3c1.1,1.1,2.5,1.7,4.1,1.8c1.4,0,2.7,0,4.1,0c0.1,0,0.1,0,0.2,0C427,612.1,426.1,611.4,425.7,610.3z"/>
</g>
<g>
	<path fill-rule="evenodd" clip-rule="evenodd" fill="#1F407B" d="M625.4,602.1c0-0.8-0.5-1.4-1.3-1.4c-0.6-0.1-1.2-0.1-1.7,0
		c-1.2,0.2-2.1-0.2-2.6-1.3c0,0,0-0.1-0.1-0.1c-0.4-0.5-1-0.8-1.7-0.8c-0.8,0-1.6,0-2.4,0c-1-0.1-1.8,0.3-2.3,1.2
		c-0.1,0.2-0.3,0.3-0.3,0.5c-0.2,0.5-0.6,0.6-1.1,0.5c-0.1-0.4,0-1.1-0.2-1.3c-0.3-0.2-0.9-0.2-1.3-0.2c-1.1,0-0.3,1-0.7,1.5
		c-1.2,0.1-1.8,0.6-1.8,1.5c0,3.1,0,6.3,0,9.4c0,0.9,0.6,1.5,1.5,1.5c4.8,0,9.7,0,14.5,0c0.9,0,1.5-0.6,1.5-1.5
		C625.4,608.4,625.4,605.2,625.4,602.1z M616.7,610.9c-2.5,0-4.6-2-4.6-4.6c0-2.5,2.1-4.6,4.6-4.6c2.5,0,4.6,2.1,4.6,4.6
		C621.3,608.9,619.2,610.9,616.7,610.9z M623.7,602.3c-0.4,0-0.6-0.2-0.6-0.6c0-0.4,0.2-0.6,0.6-0.6c0.4,0,0.6,0.2,0.6,0.5
		C624.3,602.1,624.1,602.3,623.7,602.3z"/>
	<path fill-rule="evenodd" clip-rule="evenodd" fill="#1F407B" d="M616.7,603.1c-1.8,0-3.3,1.4-3.3,3.3c0,1.8,1.4,3.2,3.2,3.3
		c1.8,0,3.3-1.5,3.3-3.3C619.9,604.5,618.5,603.1,616.7,603.1z"/>
</g>
<g>
	<path fill-rule="evenodd" clip-rule="evenodd" fill="#324563" d="M813,610c1.7-1.7,3.4-3.4,5.1-5.1c-0.6-0.3-1.2-0.2-1.7-0.1
		c-1,0.3-1.9,1-2.7,1.7c-0.6,0.6-1.3,1.3-1.9,1.9c-0.1,0.1-0.2,0.2-0.3,0.3c-0.4-0.4-0.7-0.7-1-1c0,0,0-0.2,0-0.2
		c0.5-1.6-0.4-3.1-2-3.5c-1.5-0.3-3,0.7-3.2,2.3c-0.2,1.5,1,2.9,2.4,3c0.6,0,1.1-0.1,1.6-0.4c0.4,0.4,0.8,0.8,1.1,1.1
		c-0.3,0.3-0.7,0.7-1.1,1.1c-0.3-0.1-0.6-0.2-0.9-0.3c-1.5-0.3-2.9,0.7-3.1,2.3c-0.2,1.5,0.9,2.7,2.2,3c2,0.3,3.6-1.5,3-3.5
		c-0.1-0.2,0-0.3,0.1-0.4c0.3-0.3,0.6-0.6,1-1c0,0.1,0.1,0.2,0.1,0.3c0.9,0.8,1.7,1.7,2.6,2.5c0.7,0.6,1.5,1.1,2.4,1.3
		c0.4,0.1,0.9,0.1,1.3-0.1C816.4,613.4,814.8,611.7,813,610z M809.4,613.4c0,0.7-0.6,1.3-1.3,1.3c-0.8,0-1.3-0.6-1.3-1.3
		c0-0.7,0.6-1.3,1.3-1.3C808.8,612.1,809.4,612.7,809.4,613.4z M809.4,606.6c0,0.7-0.6,1.3-1.3,1.3c-0.7,0-1.3-0.6-1.3-1.3
		c0-0.7,0.6-1.3,1.3-1.3C808.8,605.2,809.4,605.8,809.4,606.6z M812.1,610c0,0.2-0.2,0.4-0.4,0.4c-0.2,0-0.4-0.2-0.4-0.4
		c0-0.2,0.2-0.4,0.4-0.4C811.9,609.6,812.1,609.8,812.1,610z"/>
	<path fill-rule="evenodd" clip-rule="evenodd" fill="#324563" d="M816.3,598c-0.6,0-1.1-0.5-1.1-1.1c0-0.6,0.5-1.1,1.1-1.1
		c0.6,0,1.1,0.5,1.1,1.1C817.4,597.5,816.9,598,816.3,598z"/>
	<path fill-rule="evenodd" clip-rule="evenodd" fill="#324563" d="M820,611.1c-0.6,0-1.1-0.5-1.1-1.1c0-0.6,0.5-1.1,1.1-1.1
		c0.6,0,1.1,0.5,1.1,1.1C821.1,610.6,820.6,611.1,820,611.1z"/>
	<path fill-rule="evenodd" clip-rule="evenodd" fill="#324563" d="M826.5,602.4c0.6,0,1.1,0.5,1.1,1.1c0,0.6-0.5,1.1-1.1,1.1
		c-0.6,0-1.1-0.5-1.1-1.1C825.4,602.9,825.9,602.4,826.5,602.4z"/>
	<path fill-rule="evenodd" clip-rule="evenodd" fill="#324563" d="M809.5,598c-0.6,0-1.1-0.5-1.1-1.1c0-0.6,0.5-1.1,1.1-1.1
		c0.6,0,1.1,0.5,1.1,1.1C810.6,597.5,810.1,598,809.5,598z"/>
	<path fill-rule="evenodd" clip-rule="evenodd" fill="#324563" d="M823.1,598c-0.6,0-1.1-0.5-1.1-1.1c0-0.6,0.5-1.1,1.1-1.1
		c0.6,0,1.1,0.5,1.1,1.1C824.2,597.6,823.7,598,823.1,598z"/>
	<path fill-rule="evenodd" clip-rule="evenodd" fill="#324563" d="M812.9,598c-0.6,0-1.1-0.5-1.1-1.1c0-0.6,0.5-1.1,1.1-1.1
		c0.6,0,1.1,0.5,1.1,1.1C814,597.5,813.5,598,812.9,598z"/>
	<path fill-rule="evenodd" clip-rule="evenodd" fill="#324563" d="M823.2,611.1c-0.6,0-1.1-0.5-1.1-1.1c0-0.6,0.5-1.1,1.1-1.1
		c0.6,0,1.1,0.5,1.1,1.1C824.3,610.6,823.9,611.1,823.2,611.1z"/>
	<path fill-rule="evenodd" clip-rule="evenodd" fill="#324563" d="M826.5,599.1c0.6,0,1.1,0.5,1.1,1.1c0,0.6-0.5,1.1-1.1,1.1
		c-0.6,0-1.1-0.5-1.1-1.1C825.4,599.6,825.9,599.1,826.5,599.1z"/>
	<path fill-rule="evenodd" clip-rule="evenodd" fill="#324563" d="M819.7,598c-0.6,0-1.1-0.5-1.1-1.1c0-0.6,0.5-1.1,1.1-1.1
		c0.6,0,1.1,0.5,1.1,1.1C820.8,597.5,820.3,598,819.7,598z"/>
	<path fill-rule="evenodd" clip-rule="evenodd" fill="#324563" d="M815.6,610c0-0.6,0.5-1.1,1.1-1.1c0.6,0,1.1,0.5,1.1,1.1
		c0,0.6-0.5,1.1-1.1,1.1C816.1,611.1,815.6,610.6,815.6,610z"/>
	<path fill-rule="evenodd" clip-rule="evenodd" fill="#324563" d="M826.5,605.6c0.6,0,1.1,0.5,1.1,1.1c0,0.6-0.5,1.1-1.1,1.1
		c-0.6,0-1.1-0.5-1.1-1.1S825.9,605.6,826.5,605.6z"/>
	<path fill-rule="evenodd" clip-rule="evenodd" fill="#324563" d="M806.1,601.2c-0.6,0-1.1-0.5-1.1-1.1c0-0.6,0.5-1.1,1.1-1.1
		c0.6,0,1.1,0.5,1.1,1.1C807.2,600.8,806.7,601.2,806.1,601.2z"/>
	<path fill-rule="evenodd" clip-rule="evenodd" fill="#324563" d="M806.1,598c-0.6,0-1.1-0.5-1.1-1.1c0-0.6,0.5-1.1,1.1-1.1
		c0.6,0,1.1,0.5,1.1,1.1C807.2,597.6,806.7,598,806.1,598z"/>
	<path fill-rule="evenodd" clip-rule="evenodd" fill="#324563" d="M826.5,598c-0.6,0-1.1-0.5-1.1-1.1c0-0.6,0.5-1.1,1.1-1.1
		c0.6,0,1.1,0.5,1.1,1.1C827.6,597.6,827.1,598,826.5,598z"/>
	<path fill-rule="evenodd" clip-rule="evenodd" fill="#324563" d="M826.5,608.9c0.6,0,1.1,0.5,1.1,1.1c0,0.6-0.5,1.1-1.1,1.1
		c-0.6,0-1.1-0.5-1.1-1.1C825.4,609.4,825.9,608.9,826.5,608.9z"/>
</g>
<g opacity="0.4">
	<rect x="348.4" y="271.7" fill="#CCCCCC" width="130" height="7"/>
	<rect x="492.3" y="271.7" fill="#CCCCCC" width="126" height="7"/>
	<rect x="540.5" y="295.4" fill="#CCCCCC" width="77.9" height="7"/>
	<rect x="348.4" y="295.4" fill="#CCCCCC" width="178.2" height="7"/>
	<rect x="639" y="271.7" fill="#CCCCCC" width="130" height="7"/>
	<rect x="783" y="271.7" fill="#CCCCCC" width="126" height="7"/>
	<rect x="831.1" y="295.4" fill="#CCCCCC" width="77.9" height="7"/>
	<rect x="639" y="295.4" fill="#CCCCCC" width="178.2" height="7"/>
	<rect x="348.4" y="319.2" fill="#CCCCCC" width="228.6" height="7"/>
</g>
<polygon fill="#929DAD" points="847.3,358.8 843.1,354.5 835.3,362.3 827.5,354.5 823.2,358.8 831,366.6 823.2,374.4 827.5,378.6 
	835.3,370.8 843.1,378.6 847.3,374.4 839.5,366.6 "/>
<rect x="348.4" y="356.7" opacity="0.8" fill="#53C7DE" width="456.6" height="161.5"/>
<g>
	<path fill="#1F407B" d="M384.2,373h2.8v2.6c3.2,0.4,5.2,2.2,6.2,5.4l-3.9,1.6c-0.8-2.2-1.9-3.3-3.5-3.3c-0.8,0-1.4,0.2-1.9,0.7
		c-0.5,0.5-0.7,1.1-0.7,1.8c0,0.7,0.2,1.3,0.7,1.6c0.5,0.4,1.5,0.9,3,1.4c1.7,0.6,3,1.2,4,1.7c1,0.5,1.7,1.3,2.3,2.3
		c0.6,1,0.9,2.1,0.9,3.4c0,2-0.6,3.6-1.8,5c-1.2,1.3-2.9,2.1-5.1,2.3v3.4h-2.8v-3.4c-3.7-0.4-6-2.5-6.9-6.5l4.4-1.1
		c0.4,2.5,1.8,3.7,4,3.7c1.1,0,1.9-0.3,2.4-0.8c0.5-0.5,0.8-1.2,0.8-1.9c0-0.8-0.3-1.4-0.8-1.8c-0.5-0.4-1.6-0.9-3.4-1.5
		c-1.6-0.5-2.8-1.1-3.7-1.6c-0.9-0.5-1.6-1.3-2.1-2.2c-0.5-1-0.8-2.1-0.8-3.3c0-1.7,0.5-3.2,1.5-4.5c1-1.3,2.5-2.1,4.6-2.4V373z"/>
	<path fill="#1F407B" d="M404.6,374.8h4.2v21.3h4.2v4.1h-13.9v-4.1h4.2v-14.9c-1.3,1.3-2.7,2.4-4.2,3.2v-4.9
		C401.3,378.3,403.2,376.8,404.6,374.8z"/>
	<path fill="#1F407B" d="M432.1,387.3c0,4.5-0.7,7.9-2,10.1s-3.5,3.2-6.4,3.2c-3.1,0-5.3-1.1-6.5-3.3c-1.3-2.2-1.9-5.3-1.9-9.3
		c0-4.6,0.7-7.9,2-10.1c1.3-2.1,3.5-3.2,6.4-3.2c3.1,0,5.3,1.1,6.5,3.3C431.5,380.3,432.1,383.4,432.1,387.3z M426.3,387.7
		c0-3.8-0.2-6.3-0.5-7.3s-1-1.6-2.1-1.6c-0.9,0-1.6,0.5-2,1.4c-0.4,0.9-0.6,3.4-0.6,7.6c0,4.1,0.2,6.6,0.6,7.6s1.1,1.4,2,1.4
		c0.9,0,1.6-0.4,2-1.3C426.1,394.4,426.3,391.9,426.3,387.7z"/>
	<path fill="#1F407B" d="M460.2,387.6c0,8.7-3,13-9.1,13c-3,0-5.3-1.1-6.8-3.3c-1.5-2.2-2.3-5.4-2.3-9.7c0-8.6,3-13,9.1-13
		c3,0,5.2,1.1,6.8,3.2C459.4,380.1,460.2,383.3,460.2,387.6z M454.3,387.6c0-3.4-0.3-5.7-0.8-6.8c-0.5-1.1-1.4-1.7-2.5-1.7
		c-1.1,0-2,0.6-2.5,1.7s-0.8,3.4-0.8,6.8c0,3.3,0.3,5.6,0.8,6.7c0.5,1.2,1.4,1.8,2.5,1.8c1.1,0,2-0.6,2.5-1.7
		C454.1,393.3,454.3,391.1,454.3,387.6z"/>
	<path fill="#1F407B" d="M464,375.1h14.9v4.3h-9.4v6.6h7.2v4.3h-7.2v10H464V375.1z"/>
	<path fill="#1F407B" d="M480.7,375.1h14.9v4.3h-9.4v6.6h7.2v4.3h-7.2v10h-5.5V375.1z"/>
	<path fill="#FFFFFF" d="M382.8,420.4h5.6l7.2,25.2h-5.7l-1.3-5.2h-7.1l-1.2,5.2h-5.1L382.8,420.4z M387.6,436.1l-2.5-10.3
		l-2.4,10.3H387.6z"/>
	<path fill="#FFFFFF" d="M397.5,420.4h6.1l6.5,15.6v-15.6h4.3v25.2h-4.9l-7.7-18.2v18.2h-4.3V420.4z"/>
	<path fill="#FFFFFF" d="M415.5,420.4h6.1l3.6,9.2l3.8-9.2h5.4l-7,14.5v10.6h-5.5v-10.6L415.5,420.4z"/>
	<path fill="#FFFFFF" d="M460.1,433c0,8.7-3,13-9.1,13c-3,0-5.3-1.1-6.8-3.3c-1.5-2.2-2.3-5.4-2.3-9.7c0-8.6,3-13,9.1-13
		c3,0,5.2,1.1,6.8,3.2C459.3,425.4,460.1,428.7,460.1,433z M454.2,433c0-3.4-0.3-5.7-0.8-6.8c-0.5-1.1-1.4-1.7-2.5-1.7
		c-1.1,0-2,0.6-2.5,1.7s-0.8,3.4-0.8,6.8c0,3.3,0.3,5.6,0.8,6.7c0.5,1.2,1.4,1.8,2.5,1.8c1.1,0,2-0.6,2.5-1.7
		C454,438.7,454.2,436.4,454.2,433z"/>
	<path fill="#FFFFFF" d="M463.9,420.4h5.5v25.2h-5.5V420.4z"/>
	<path fill="#FFFFFF" d="M474.2,420.4h5.5v20.5h8.1v4.7h-13.6V420.4z"/>
	<path fill="#FFFFFF" d="M509.6,436.4l5.1,0.3c-0.2,2.7-1.1,5-2.6,6.7c-1.5,1.7-3.6,2.6-6.1,2.6c-3.1,0-5.5-1.1-7.1-3.4
		c-1.6-2.3-2.4-5.5-2.4-9.5c0-4.1,0.8-7.3,2.4-9.6c1.6-2.3,4-3.4,7.2-3.4c5.3,0,8.1,3.2,8.6,9.7l-5.1,0.4c-0.1-3.7-1.3-5.6-3.5-5.6
		c-1.2,0-2.1,0.6-2.8,1.8c-0.7,1.2-1,3.5-1,7c0,3.1,0.3,5.2,0.9,6.4c0.6,1.2,1.6,1.7,2.8,1.7C508,441.5,509.2,439.8,509.6,436.4z"/>
	<path fill="#FFFFFF" d="M517.9,420.4h5.5v10.2h6v-10.2h5.5v25.2h-5.5v-10.3h-6v10.3h-5.5V420.4z"/>
	<path fill="#FFFFFF" d="M544.3,420.4h5.6l7.2,25.2h-5.7l-1.3-5.2H543l-1.2,5.2h-5.1L544.3,420.4z M549.1,436.1l-2.5-10.3l-2.4,10.3
		H549.1z"/>
	<path fill="#FFFFFF" d="M558.9,420.4h6.1l6.5,15.6v-15.6h4.3v25.2h-4.9l-7.7-18.2v18.2h-4.3V420.4z"/>
	<path fill="#FFFFFF" d="M589.2,432.1h8.7v13.4h-2.3l-0.7-2.9c-1.4,2.2-3.4,3.3-6.1,3.3c-2.9,0-5.1-1.1-6.8-3.4
		c-1.7-2.3-2.5-5.3-2.5-9.1c0-4.1,0.8-7.4,2.5-9.8c1.7-2.4,4.1-3.6,7.3-3.6c5.2,0,8,2.9,8.7,8.6l-5,0.8c-0.3-3.3-1.5-4.9-3.6-4.9
		c-1.2,0-2.2,0.6-3,1.8s-1.1,3.5-1.1,6.9c0,3,0.4,5.1,1.1,6.4c0.7,1.2,1.8,1.8,3.2,1.8c2.3,0,3.4-1.7,3.4-5h-3.8V432.1z"/>
	<path fill="#FFFFFF" d="M602.3,420.4h15.3v4.3h-9.8v5.8h7.6v4.3h-7.6v6.2h9.8v4.5h-15.3V420.4z"/>
</g>
<g opacity="0.4">
	<rect x="377.4" y="465.5" fill="#FFFFFF" width="113.8" height="3.9"/>
	<rect x="503.4" y="465.5" fill="#FFFFFF" width="110.3" height="3.9"/>
	<rect x="545.5" y="478.7" fill="#FFFFFF" width="68.2" height="3.9"/>
	<rect x="377.4" y="478.7" fill="#FFFFFF" width="156" height="3.9"/>
	<rect x="377.4" y="492" fill="#FFFFFF" width="64" height="3.9"/>
</g>
<path fill="#1F407B" d="M653.9,516.7c-0.6,0-1-0.4-1-1c0-88.8,24.2-100.2,28.3-101.5c2.2-5.3,14.5-35.2,15.6-36.9
	c0.7-1.2,2-1.8,3.2-1.6c1.1,0.1,1.9,0.8,2.2,1.8c0.5,1.7,2,1.6,2.7,1.4c1.1-1.1,2.2-1.5,3.3-1.3c1.1,0.2,1.9,1,2.4,1.8
	c0.6-0.3,1.4-0.4,2.1-0.2c1.4,0.5,2.8,2.1,2.8,3.2c0.1,0.2,0.9,1.3,2,1.7c0.8,0.2,1.6,0,2.4-0.8c2.1-2.1,5.3-2.2,7.6-1.5
	c0.8,0.2,2.8,0.9,3.1,2.3c0.2,0.5,1.7,1.6,3.5,2.8c0.4-1.3,1.1-2.2,2-2.8c1.1-0.7,2.1-0.7,2.4-0.6c1.1,0,15.9-0.3,23-6.1
	c7.7-6.2,30.3-21.2,30.5-21.4c0.5-0.3,1.1-0.2,1.4,0.3c0.3,0.5,0.2,1.1-0.3,1.4c-0.2,0.1-22.8,15.1-30.4,21.3
	c-7.9,6.4-23.7,6.5-24.3,6.5c-0.1,0-0.1,0-0.2,0c-0.2,0-1.9-0.2-2.5,3.2c-0.1,0.3-0.3,0.6-0.6,0.7c-0.3,0.1-0.6,0.1-0.9,0
	c-1.9-1.1-5.2-3.1-5.6-4.7c-0.1-0.2-1.2-0.8-2.9-1c-1.1-0.1-3.1-0.1-4.5,1.3c-1.4,1.4-3.2,1.8-4.9,1.1c-1.6-0.6-3-2.3-3-3.4
	c-0.1-0.3-0.8-1.2-1.5-1.4c-0.1,0-0.5-0.1-0.8,0.4c-0.2,0.3-0.6,0.5-0.9,0.4c-0.4,0-0.7-0.3-0.8-0.6c-0.2-0.4-0.8-1.6-1.6-1.7
	c-0.6-0.1-1.2,0.5-1.7,1c-0.1,0.1-0.3,0.2-0.5,0.3c-1.7,0.5-4.6,0.2-5.4-2.7c-0.1-0.3-0.3-0.4-0.6-0.4c-0.5-0.1-0.9,0.2-1.2,0.7
	c-0.8,1.2-9.7,22.9-15.6,37.1c-0.1,0.3-0.4,0.5-0.7,0.6c-0.3,0.1-27.3,6.9-27.3,99.7C654.9,516.3,654.5,516.7,653.9,516.7z"/>
<path fill="#1F407B" d="M797.7,519.3c-0.1,0-0.2,0-0.3-0.1c-37-13.2-70.9-48.7-82.1-60.3c-1.4-1.5-2.5-2.6-3-3
	c-3.6-3.2-3.6-5.3-3.6-6.5c0-0.1,0-0.2,0-0.3c-0.4-0.3-1.8-0.5-3.2-0.6c-3.9,1.3-6.6,0.1-7.8-0.8c-1.5-1-2.5-2.6-2.6-3.9
	c0-0.8-1.3-2.5-2.3-3.7c-0.6,0.2-1.2,0.2-1.7,0.1c-1.1-0.3-1.9-1.1-2.3-1.8c-2.4,0.2-3.9-1.8-5-3.4c-0.5-0.7-1.1-1.5-1.5-1.7
	c-0.8-0.4-1.3,0.2-1.6,0.5l-16,82.1c-0.1,0.5-0.6,0.9-1.2,0.8c-0.5-0.1-0.9-0.6-0.8-1.2l16.1-82.3c0-0.1,0.1-0.2,0.1-0.3
	c0.6-0.9,2.1-2.3,4.2-1.3c0.9,0.4,1.5,1.3,2.3,2.3c1.3,1.8,2.3,2.9,3.6,2.5c0.5-0.1,1,0.1,1.2,0.5c0.2,0.3,0.8,1.2,1.5,1.4
	c0.2,0,0.5,0.1,0.9-0.2c0.4-0.3,0.9-0.2,1.3,0.1c0.5,0.6,3.3,3.5,3.3,5.5c0,0.5,0.6,1.5,1.7,2.3c1.2,0.8,3.2,1.5,6.2,0.5
	c0.1,0,0.2-0.1,0.4-0.1c3.3,0.2,5,0.9,5.2,2.2c0,0.2,0,0.5,0,0.7c0,1,0,2.4,2.9,5c0.5,0.5,1.5,1.5,3.1,3.1
	c11.1,11.6,44.7,46.8,81.3,59.8c0.5,0.2,0.8,0.8,0.6,1.3C798.5,519.1,798.1,519.3,797.7,519.3z"/>
<path opacity="0.2" fill="#1F407B" d="M802.9,502.7c-0.2,0-0.3,0-0.5-0.1c-22.8-11.7-36.6-25.7-41.2-41.4
	c-2.4-8.1-3.4-20.8,5.2-35.5c3.7-6.4,29.5-29.1,30.6-30c0.4-0.4,1-0.3,1.4,0.1c0.4,0.4,0.3,1-0.1,1.4c-0.3,0.2-26.7,23.5-30.2,29.5
	c-8.2,14-7.3,26.2-5,33.9c4.4,15.2,17.9,28.7,40.2,40.2c0.5,0.3,0.7,0.9,0.4,1.3C803.6,502.5,803.2,502.7,802.9,502.7z"/>
<ellipse transform="matrix(0.9604 0.2785 -0.2785 0.9604 140.873 -178.8397)" opacity="0.4" fill="#1F407B" cx="699.8" cy="406.4" rx="1.3" ry="24.6"/>
<ellipse transform="matrix(0.9604 0.2785 -0.2785 0.9604 142.7679 -179.8574)" opacity="0.4" fill="#1F407B" cx="704.4" cy="412.5" rx="1.3" ry="24.6"/>
<ellipse transform="matrix(0.8858 0.4641 -0.4641 0.8858 275.7351 -283.6864)" opacity="0.4" fill="#1F407B" cx="714.2" cy="418.3" rx="2.4" ry="24.6"/>
<path fill="#FFFFFF" d="M675.3,425.3c0,0-15.9,18-15.6,60.3C659.8,508.1,669.7,436.2,675.3,425.3z"/>
<path opacity="0.3" fill="#FFFFFF" d="M762.3,400.3c0.2-0.1,1.2-0.8,2.9-1.9c8.9-5.7,35.2-22.4,34.3-26.7
	c-1.1-5-34.8,13.3-40.9,21.5S760.1,402.1,762.3,400.3z"/>
<path opacity="0.1" fill="#1F407B" d="M798.4,385.7c0,0-46.5,24.8-50.2,44.4s-7.3,45.4,56.8,76.5l-1.1-123.8"/>
<g>
	<polygon fill="#1C3664" points="806.5,519.6 802,519.6 802,516.6 803.5,516.6 803.5,515.1 806.5,515.1 	"/>
	<path fill="#1C3664" d="M796,519.6h-6v-3h6V519.6z M784,519.6h-6v-3h6V519.6z M772,519.6h-6v-3h6V519.6z M759.9,519.6h-6v-3h6
		V519.6z M747.9,519.6h-6v-3h6V519.6z M735.9,519.6h-6v-3h6V519.6z M723.9,519.6h-6v-3h6V519.6z M711.9,519.6h-6v-3h6V519.6z
		 M699.9,519.6h-6v-3h6V519.6z M687.9,519.6h-6v-3h6V519.6z M675.8,519.6h-6v-3h6V519.6z M663.8,519.6h-6v-3h6V519.6z M651.8,519.6
		h-6v-3h6V519.6z M639.8,519.6h-6v-3h6V519.6z M627.8,519.6h-6v-3h6V519.6z M615.8,519.6h-6v-3h6V519.6z M603.7,519.6h-6v-3h6V519.6
		z M591.7,519.6h-6v-3h6V519.6z M579.7,519.6h-6v-3h6V519.6z M567.7,519.6h-6v-3h6V519.6z M555.7,519.6h-6v-3h6V519.6z M543.7,519.6
		h-6v-3h6V519.6z M531.7,519.6h-6v-3h6V519.6z M519.6,519.6h-6v-3h6V519.6z M507.6,519.6h-6v-3h6V519.6z M495.6,519.6h-6v-3h6V519.6
		z M483.6,519.6h-6v-3h6V519.6z M471.6,519.6h-6v-3h6V519.6z M459.6,519.6h-6v-3h6V519.6z M447.6,519.6h-6v-3h6V519.6z M435.5,519.6
		h-6v-3h6V519.6z M423.5,519.6h-6v-3h6V519.6z M411.5,519.6h-6v-3h6V519.6z M399.5,519.6h-6v-3h6V519.6z M387.5,519.6h-6v-3h6V519.6
		z M375.5,519.6h-6v-3h6V519.6z M363.4,519.6h-6v-3h6V519.6z"/>
	<polygon fill="#1C3664" points="351.4,519.6 346.9,519.6 346.9,515.1 349.9,515.1 349.9,516.6 351.4,516.6 	"/>
	<path fill="#1C3664" d="M349.9,508.9h-3v-6.2h3V508.9z M349.9,496.5h-3v-6.2h3V496.5z M349.9,484h-3v-6.2h3V484z M349.9,471.6h-3
		v-6.2h3V471.6z M349.9,459.2h-3v-6.2h3V459.2z M349.9,446.7h-3v-6.2h3V446.7z M349.9,434.3h-3v-6.2h3V434.3z M349.9,421.8h-3v-6.2
		h3V421.8z M349.9,409.4h-3v-6.2h3V409.4z M349.9,397h-3v-6.2h3V397z M349.9,384.5h-3v-6.2h3V384.5z M349.9,372.1h-3v-6.2h3V372.1z"
		/>
	<polygon fill="#1C3664" points="349.9,359.7 346.9,359.7 346.9,355.2 351.4,355.2 351.4,358.2 349.9,358.2 	"/>
	<path fill="#1C3664" d="M796,358.2h-6v-3h6V358.2z M784,358.2h-6v-3h6V358.2z M772,358.2h-6v-3h6V358.2z M759.9,358.2h-6v-3h6
		V358.2z M747.9,358.2h-6v-3h6V358.2z M735.9,358.2h-6v-3h6V358.2z M723.9,358.2h-6v-3h6V358.2z M711.9,358.2h-6v-3h6V358.2z
		 M699.9,358.2h-6v-3h6V358.2z M687.9,358.2h-6v-3h6V358.2z M675.8,358.2h-6v-3h6V358.2z M663.8,358.2h-6v-3h6V358.2z M651.8,358.2
		h-6v-3h6V358.2z M639.8,358.2h-6v-3h6V358.2z M627.8,358.2h-6v-3h6V358.2z M615.8,358.2h-6v-3h6V358.2z M603.7,358.2h-6v-3h6V358.2
		z M591.7,358.2h-6v-3h6V358.2z M579.7,358.2h-6v-3h6V358.2z M567.7,358.2h-6v-3h6V358.2z M555.7,358.2h-6v-3h6V358.2z M543.7,358.2
		h-6v-3h6V358.2z M531.7,358.2h-6v-3h6V358.2z M519.6,358.2h-6v-3h6V358.2z M507.6,358.2h-6v-3h6V358.2z M495.6,358.2h-6v-3h6V358.2
		z M483.6,358.2h-6v-3h6V358.2z M471.6,358.2h-6v-3h6V358.2z M459.6,358.2h-6v-3h6V358.2z M447.6,358.2h-6v-3h6V358.2z M435.5,358.2
		h-6v-3h6V358.2z M423.5,358.2h-6v-3h6V358.2z M411.5,358.2h-6v-3h6V358.2z M399.5,358.2h-6v-3h6V358.2z M387.5,358.2h-6v-3h6V358.2
		z M375.5,358.2h-6v-3h6V358.2z M363.4,358.2h-6v-3h6V358.2z"/>
	<polygon fill="#1C3664" points="806.5,359.7 803.5,359.7 803.5,358.2 802,358.2 802,355.2 806.5,355.2 	"/>
	<path fill="#1C3664" d="M806.5,508.9h-3v-6.2h3V508.9z M806.5,496.5h-3v-6.2h3V496.5z M806.5,484h-3v-6.2h3V484z M806.5,471.6h-3
		v-6.2h3V471.6z M806.5,459.2h-3v-6.2h3V459.2z M806.5,446.7h-3v-6.2h3V446.7z M806.5,434.3h-3v-6.2h3V434.3z M806.5,421.8h-3v-6.2
		h3V421.8z M806.5,409.4h-3v-6.2h3V409.4z M806.5,397h-3v-6.2h3V397z M806.5,384.5h-3v-6.2h3V384.5z M806.5,372.1h-3v-6.2h3V372.1z"
		/>
</g>
<g>
	
		<image overflow="visible" width="2999" height="353" xlink:href="4EF07DF5.png"  transform="matrix(0.24 0 0 0.24 265.1929 641.1641)">
	</image>
</g>
</svg>
