<?xml version="1.0" encoding="utf-8"?>
<!-- Generator: Adobe Illustrator 16.0.0, SVG Export Plug-In . SVG Version: 6.00 Build 0)  -->
<!DOCTYPE svg PUBLIC "-//W3C//DTD SVG 1.1//EN" "http://www.w3.org/Graphics/SVG/1.1/DTD/svg11.dtd">
<svg version="1.1" xmlns="http://www.w3.org/2000/svg" xmlns:xlink="http://www.w3.org/1999/xlink" x="0px" y="0px" width="1200px"
	 height="640px" viewBox="0 0 1200 640" enable-background="new 0 0 1200 640" xml:space="preserve">
<g id="Layer_5">
	<g>
		<path fill="#1F407B" d="M124.7,272.2c-0.1-2.3-0.3-5-0.2-7h-0.1c-0.6,1.9-1.2,3.9-2,6.1l-2.9,7.8h-1.6l-2.6-7.7
			c-0.8-2.3-1.4-4.4-1.9-6.3h0c0,2-0.2,4.7-0.3,7.2l-0.4,6.9h-2l1.1-16.2h2.7l2.8,7.8c0.7,2,1.2,3.8,1.6,5.4h0.1
			c0.4-1.6,1-3.4,1.7-5.4l2.9-7.8h2.7l1,16.2h-2L124.7,272.2z"/>
		<path fill="#1F407B" d="M136.9,279.4l-0.2-1.5h-0.1c-0.6,0.9-1.9,1.7-3.6,1.7c-2.4,0-3.6-1.7-3.6-3.3c0-2.8,2.5-4.3,7-4.3v-0.2
			c0-1-0.3-2.7-2.6-2.7c-1.1,0-2.2,0.3-3,0.9l-0.5-1.4c1-0.6,2.4-1,3.8-1c3.6,0,4.4,2.4,4.4,4.8v4.3c0,1,0,2,0.2,2.8H136.9z
			 M136.6,273.4c-2.3,0-4.9,0.4-4.9,2.6c0,1.4,0.9,2,2,2c1.5,0,2.5-1,2.8-1.9c0.1-0.2,0.1-0.5,0.1-0.7V273.4z"/>
		<path fill="#1F407B" d="M142,270.9c0-1.2,0-2.2-0.1-3.1h1.9l0.1,1.9h0c0.6-1.1,1.9-2.2,3.8-2.2c1.6,0,4.1,1,4.1,4.9v6.9h-2.1v-6.7
			c0-1.9-0.7-3.4-2.7-3.4c-1.4,0-2.5,1-2.8,2.2c-0.1,0.3-0.1,0.6-0.1,1v7H142V270.9z"/>
		<path fill="#1F407B" d="M165,276.2c0,1.2,0,2.3,0.1,3.2h-1.9l-0.1-1.9h0c-0.6,0.9-1.8,2.2-3.8,2.2c-1.8,0-4-1-4-5.1v-6.8h2.1v6.4
			c0,2.2,0.7,3.7,2.6,3.7c1.4,0,2.4-1,2.8-1.9c0.1-0.3,0.2-0.7,0.2-1.1v-7.1h2.1V276.2z"/>
		<path fill="#1F407B" d="M168.8,279.4v-10h-1.6v-1.6h1.6v-0.6c0-1.6,0.4-3.1,1.3-4.1c0.8-0.8,1.8-1.1,2.8-1.1
			c0.7,0,1.4,0.2,1.8,0.3l-0.3,1.6c-0.3-0.1-0.7-0.3-1.3-0.3c-1.8,0-2.3,1.6-2.3,3.4v0.6h2.8v1.6h-2.8v10H168.8z"/>
		<path fill="#1F407B" d="M182,279.4l-0.2-1.5h-0.1c-0.6,0.9-1.9,1.7-3.6,1.7c-2.4,0-3.6-1.7-3.6-3.3c0-2.8,2.5-4.3,7-4.3v-0.2
			c0-1-0.3-2.7-2.6-2.7c-1.1,0-2.2,0.3-3,0.9l-0.5-1.4c1-0.6,2.4-1,3.8-1c3.6,0,4.4,2.4,4.4,4.8v4.3c0,1,0,2,0.2,2.8H182z
			 M181.7,273.4c-2.3,0-4.9,0.4-4.9,2.6c0,1.4,0.9,2,2,2c1.5,0,2.5-1,2.8-1.9c0.1-0.2,0.1-0.5,0.1-0.7V273.4z"/>
		<path fill="#1F407B" d="M195.4,278.9c-0.6,0.3-1.8,0.7-3.3,0.7c-3.5,0-5.8-2.4-5.8-5.9c0-3.6,2.4-6.2,6.2-6.2
			c1.2,0,2.4,0.3,2.9,0.6l-0.5,1.6c-0.5-0.3-1.3-0.6-2.4-0.6c-2.7,0-4.1,2-4.1,4.4c0,2.7,1.7,4.3,4,4.3c1.2,0,2-0.3,2.6-0.6
			L195.4,278.9z"/>
		<path fill="#1F407B" d="M200.7,264.4v3.3h3v1.6h-3v6.3c0,1.4,0.4,2.3,1.6,2.3c0.6,0,1-0.1,1.2-0.1l0.1,1.6
			c-0.4,0.2-1.1,0.3-1.9,0.3c-1,0-1.8-0.3-2.3-0.9c-0.6-0.6-0.8-1.7-0.8-3v-6.3h-1.8v-1.6h1.8v-2.8L200.7,264.4z"/>
		<path fill="#1F407B" d="M215.9,276.2c0,1.2,0,2.3,0.1,3.2h-1.9l-0.1-1.9h0c-0.6,0.9-1.8,2.2-3.8,2.2c-1.8,0-4-1-4-5.1v-6.8h2.1
			v6.4c0,2.2,0.7,3.7,2.6,3.7c1.4,0,2.4-1,2.8-1.9c0.1-0.3,0.2-0.7,0.2-1.1v-7.1h2.1V276.2z"/>
		<path fill="#1F407B" d="M219.4,271.4c0-1.4,0-2.5-0.1-3.6h1.8l0.1,2.3h0.1c0.5-1.6,1.8-2.5,3.2-2.5c0.2,0,0.4,0,0.6,0.1v2
			c-0.2,0-0.4-0.1-0.7-0.1c-1.5,0-2.5,1.1-2.8,2.7c0,0.3-0.1,0.6-0.1,1v6.2h-2.1V271.4z"/>
		<path fill="#1F407B" d="M228.1,273.9c0,2.9,1.9,4,4,4c1.5,0,2.4-0.3,3.2-0.6l0.4,1.5c-0.7,0.3-2,0.7-3.9,0.7
			c-3.6,0-5.7-2.4-5.7-5.9c0-3.5,2.1-6.3,5.4-6.3c3.8,0,4.8,3.3,4.8,5.5c0,0.4,0,0.8-0.1,1H228.1z M234.3,272.4
			c0-1.3-0.6-3.4-2.9-3.4c-2.1,0-3.1,2-3.2,3.4H234.3z"/>
		<path fill="#1F407B" d="M238.7,277.2c0.6,0.4,1.7,0.8,2.8,0.8c1.5,0,2.3-0.8,2.3-1.7c0-1-0.6-1.6-2.2-2.1
			c-2.1-0.7-3.1-1.9-3.1-3.3c0-1.9,1.5-3.4,4-3.4c1.2,0,2.2,0.3,2.9,0.7l-0.5,1.5c-0.5-0.3-1.3-0.7-2.4-0.7c-1.2,0-1.9,0.7-1.9,1.6
			c0,1,0.7,1.4,2.2,2c2,0.8,3,1.8,3,3.5c0,2-1.6,3.5-4.3,3.5c-1.3,0-2.4-0.3-3.3-0.8L238.7,277.2z"/>
	</g>
	<g>
		<path fill="#1F407B" d="M928.7,263.4c1.1-0.2,2.6-0.3,4-0.3c2.2,0,3.7,0.4,4.7,1.3c0.8,0.7,1.3,1.8,1.3,3.1c0,2.1-1.3,3.6-3,4.1
			v0.1c1.2,0.4,2,1.6,2.4,3.3c0.5,2.3,0.9,3.8,1.2,4.4h-2.2c-0.3-0.5-0.6-1.8-1.1-3.9c-0.5-2.2-1.3-3.1-3.2-3.1h-2v7h-2.1V263.4z
			 M930.8,270.8h2.1c2.2,0,3.6-1.2,3.6-3.1c0-2.1-1.5-3-3.7-3c-1,0-1.7,0.1-2.1,0.2V270.8z"/>
		<path fill="#1F407B" d="M942.8,273.9c0,2.9,1.9,4,4,4c1.5,0,2.4-0.3,3.2-0.6l0.4,1.5c-0.7,0.3-2,0.7-3.9,0.7
			c-3.6,0-5.7-2.4-5.7-5.9c0-3.5,2.1-6.3,5.4-6.3c3.8,0,4.8,3.3,4.8,5.5c0,0.4,0,0.8-0.1,1H942.8z M949,272.4c0-1.3-0.6-3.4-2.9-3.4
			c-2.1,0-3.1,2-3.2,3.4H949z"/>
		<path fill="#1F407B" d="M963.6,267.7c0,0.8-0.1,1.8-0.1,3.2v6.7c0,2.7-0.5,4.3-1.7,5.3c-1.1,1.1-2.8,1.4-4.2,1.4
			c-1.4,0-2.9-0.3-3.9-1l0.5-1.6c0.8,0.5,2,0.9,3.4,0.9c2.2,0,3.7-1.1,3.7-4.1v-1.3h0c-0.6,1.1-1.9,1.9-3.7,1.9
			c-2.9,0-4.9-2.4-4.9-5.7c0-3.9,2.6-6.2,5.2-6.2c2,0,3.1,1.1,3.6,2h0l0.1-1.8H963.6z M961.5,272.3c0-0.4,0-0.7-0.1-1
			c-0.4-1.2-1.4-2.2-3-2.2c-2,0-3.5,1.7-3.5,4.4c0,2.3,1.2,4.2,3.4,4.2c1.3,0,2.5-0.8,2.9-2.2c0.1-0.4,0.2-0.8,0.2-1.1V272.3z"/>
		<path fill="#1F407B" d="M969.3,264.5c0,0.7-0.5,1.3-1.3,1.3c-0.7,0-1.3-0.6-1.3-1.3c0-0.7,0.6-1.3,1.3-1.3
			C968.8,263.1,969.3,263.7,969.3,264.5z M966.9,279.4v-11.6h2.1v11.6H966.9z"/>
		<path fill="#1F407B" d="M983,273.4c0,4.3-3,6.2-5.8,6.2c-3.1,0-5.6-2.3-5.6-6c0-3.9,2.5-6.2,5.8-6.2
			C980.8,267.5,983,269.9,983,273.4z M973.8,273.6c0,2.5,1.5,4.5,3.5,4.5c2,0,3.5-1.9,3.5-4.5c0-2-1-4.5-3.5-4.5
			S973.8,271.4,973.8,273.6z"/>
		<path fill="#1F407B" d="M985.7,270.9c0-1.2,0-2.2-0.1-3.1h1.9l0.1,1.9h0c0.6-1.1,1.9-2.2,3.8-2.2c1.6,0,4.1,1,4.1,4.9v6.9h-2.1
			v-6.7c0-1.9-0.7-3.4-2.7-3.4c-1.4,0-2.5,1-2.8,2.2c-0.1,0.3-0.1,0.6-0.1,1v7h-2.1V270.9z"/>
		<path fill="#1F407B" d="M1005.4,279.4l-0.2-1.5h-0.1c-0.6,0.9-1.9,1.7-3.6,1.7c-2.4,0-3.6-1.7-3.6-3.3c0-2.8,2.5-4.3,7-4.3v-0.2
			c0-1-0.3-2.7-2.6-2.7c-1.1,0-2.2,0.3-3,0.9l-0.5-1.4c1-0.6,2.4-1,3.8-1c3.6,0,4.4,2.4,4.4,4.8v4.3c0,1,0,2,0.2,2.8H1005.4z
			 M1005.1,273.4c-2.3,0-4.9,0.4-4.9,2.6c0,1.4,0.9,2,2,2c1.5,0,2.5-1,2.8-1.9c0.1-0.2,0.1-0.5,0.1-0.7V273.4z"/>
		<path fill="#1F407B" d="M1010.6,262.3h2.1v17h-2.1V262.3z"/>
		<path fill="#1F407B" d="M1021.4,263.4c1.3-0.2,2.8-0.3,4.4-0.3c3,0,5.1,0.7,6.6,2c1.4,1.3,2.3,3.2,2.3,5.8c0,2.6-0.8,4.8-2.3,6.3
			c-1.5,1.5-4,2.3-7.2,2.3c-1.5,0-2.7-0.1-3.8-0.2V263.4z M1023.5,277.7c0.5,0.1,1.3,0.1,2.1,0.1c4.5,0,6.9-2.5,6.9-6.9
			c0-3.8-2.1-6.2-6.6-6.2c-1.1,0-1.9,0.1-2.4,0.2V277.7z"/>
		<path fill="#1F407B" d="M1039.7,264.5c0,0.7-0.5,1.3-1.3,1.3c-0.7,0-1.3-0.6-1.3-1.3c0-0.7,0.6-1.3,1.3-1.3
			C1039.2,263.1,1039.7,263.7,1039.7,264.5z M1037.3,279.4v-11.6h2.1v11.6H1037.3z"/>
		<path fill="#1F407B" d="M1042.9,271.4c0-1.4,0-2.5-0.1-3.6h1.8l0.1,2.3h0.1c0.5-1.6,1.8-2.5,3.2-2.5c0.2,0,0.4,0,0.6,0.1v2
			c-0.2,0-0.4-0.1-0.7-0.1c-1.5,0-2.5,1.1-2.8,2.7c0,0.3-0.1,0.6-0.1,1v6.2h-2.1V271.4z"/>
		<path fill="#1F407B" d="M1051.7,273.9c0,2.9,1.9,4,4,4c1.5,0,2.4-0.3,3.2-0.6l0.4,1.5c-0.7,0.3-2,0.7-3.9,0.7
			c-3.6,0-5.7-2.4-5.7-5.9c0-3.5,2.1-6.3,5.4-6.3c3.8,0,4.8,3.3,4.8,5.5c0,0.4,0,0.8-0.1,1H1051.7z M1057.9,272.4
			c0-1.3-0.6-3.4-2.9-3.4c-2.1,0-3.1,2-3.2,3.4H1057.9z"/>
		<path fill="#1F407B" d="M1070.8,278.9c-0.6,0.3-1.8,0.7-3.3,0.7c-3.5,0-5.8-2.4-5.8-5.9c0-3.6,2.4-6.2,6.2-6.2
			c1.2,0,2.4,0.3,2.9,0.6l-0.5,1.6c-0.5-0.3-1.3-0.6-2.4-0.6c-2.7,0-4.1,2-4.1,4.4c0,2.7,1.7,4.3,4,4.3c1.2,0,2-0.3,2.6-0.6
			L1070.8,278.9z"/>
		<path fill="#1F407B" d="M1076.2,264.4v3.3h3v1.6h-3v6.3c0,1.4,0.4,2.3,1.6,2.3c0.6,0,1-0.1,1.2-0.1l0.1,1.6
			c-0.4,0.2-1.1,0.3-1.9,0.3c-1,0-1.8-0.3-2.3-0.9c-0.6-0.6-0.8-1.7-0.8-3v-6.3h-1.8v-1.6h1.8v-2.8L1076.2,264.4z"/>
		<path fill="#1F407B" d="M1091.9,273.4c0,4.3-3,6.2-5.8,6.2c-3.1,0-5.6-2.3-5.6-6c0-3.9,2.5-6.2,5.8-6.2
			C1089.7,267.5,1091.9,269.9,1091.9,273.4z M1082.7,273.6c0,2.5,1.5,4.5,3.5,4.5c2,0,3.5-1.9,3.5-4.5c0-2-1-4.5-3.5-4.5
			S1082.7,271.4,1082.7,273.6z"/>
		<path fill="#1F407B" d="M1094.6,271.4c0-1.4,0-2.5-0.1-3.6h1.8l0.1,2.3h0.1c0.5-1.6,1.8-2.5,3.2-2.5c0.2,0,0.4,0,0.6,0.1v2
			c-0.2,0-0.4-0.1-0.7-0.1c-1.5,0-2.5,1.1-2.8,2.7c0,0.3-0.1,0.6-0.1,1v6.2h-2.1V271.4z"/>
		<path fill="#1F407B" d="M1102.2,277.2c0.6,0.4,1.7,0.8,2.8,0.8c1.5,0,2.3-0.8,2.3-1.7c0-1-0.6-1.6-2.2-2.1
			c-2.1-0.7-3.1-1.9-3.1-3.3c0-1.9,1.5-3.4,4-3.4c1.2,0,2.2,0.3,2.9,0.7l-0.5,1.5c-0.5-0.3-1.3-0.7-2.4-0.7c-1.2,0-1.9,0.7-1.9,1.6
			c0,1,0.7,1.4,2.2,2c2,0.8,3,1.8,3,3.5c0,2-1.6,3.5-4.3,3.5c-1.3,0-2.4-0.3-3.3-0.8L1102.2,277.2z"/>
		<path fill="#1F407B" d="M938.4,292h8.7v1.8h-6.6v5.4h6.1v1.7h-6.1v7.3h-2.1V292z"/>
		<path fill="#1F407B" d="M951.7,293.3c0,0.7-0.5,1.3-1.3,1.3c-0.7,0-1.3-0.6-1.3-1.3c0-0.7,0.6-1.3,1.3-1.3
			C951.2,291.9,951.7,292.5,951.7,293.3z M949.4,308.2v-11.6h2.1v11.6H949.4z"/>
		<path fill="#1F407B" d="M956.2,302.7c0,2.9,1.9,4,4,4c1.5,0,2.4-0.3,3.2-0.6l0.4,1.5c-0.7,0.3-2,0.7-3.9,0.7
			c-3.6,0-5.7-2.4-5.7-5.9c0-3.5,2.1-6.3,5.4-6.3c3.8,0,4.8,3.3,4.8,5.5c0,0.4,0,0.8-0.1,1H956.2z M962.3,301.2
			c0-1.3-0.6-3.4-2.9-3.4c-2.1,0-3.1,2-3.2,3.4H962.3z"/>
		<path fill="#1F407B" d="M967,291.1h2.1v17H967V291.1z"/>
		<path fill="#1F407B" d="M982.7,291.1v14c0,1,0,2.2,0.1,3h-1.9l-0.1-2h0c-0.6,1.3-2.1,2.3-4,2.3c-2.8,0-5-2.4-5-5.9
			c0-3.9,2.4-6.2,5.2-6.2c1.8,0,3,0.8,3.5,1.8h0v-6.9H982.7z M980.6,301.3c0-0.3,0-0.6-0.1-0.9c-0.3-1.3-1.5-2.4-3-2.4
			c-2.2,0-3.5,1.9-3.5,4.5c0,2.4,1.2,4.3,3.4,4.3c1.4,0,2.7-0.9,3.1-2.5c0.1-0.3,0.1-0.6,0.1-0.9V301.3z"/>
		<path fill="#1F407B" d="M1005.2,299.9c0,5.6-3.4,8.5-7.5,8.5c-4.3,0-7.3-3.3-7.3-8.2c0-5.1,3.2-8.5,7.5-8.5
			C1002.3,291.7,1005.2,295.1,1005.2,299.9z M992.6,300.2c0,3.5,1.9,6.6,5.2,6.6c3.3,0,5.2-3,5.2-6.7c0-3.2-1.7-6.6-5.2-6.6
			C994.4,293.4,992.6,296.6,992.6,300.2z"/>
		<path fill="#1F407B" d="M1007.8,300.3c0-1.5,0-2.7-0.1-3.8h1.9l0.1,2h0c0.9-1.4,2.2-2.3,4.1-2.3c2.8,0,4.9,2.4,4.9,5.9
			c0,4.2-2.5,6.2-5.3,6.2c-1.5,0-2.9-0.7-3.6-1.8h0v6.3h-2.1V300.3z M1009.9,303.4c0,0.3,0,0.6,0.1,0.9c0.4,1.5,1.7,2.5,3.2,2.5
			c2.2,0,3.5-1.8,3.5-4.5c0-2.3-1.2-4.3-3.5-4.3c-1.4,0-2.8,1-3.2,2.6c-0.1,0.3-0.1,0.6-0.1,0.9V303.4z"/>
		<path fill="#1F407B" d="M1022.7,302.7c0,2.9,1.9,4,4,4c1.5,0,2.4-0.3,3.2-0.6l0.4,1.5c-0.7,0.3-2,0.7-3.9,0.7
			c-3.6,0-5.7-2.4-5.7-5.9c0-3.5,2.1-6.3,5.4-6.3c3.8,0,4.8,3.3,4.8,5.5c0,0.4,0,0.8-0.1,1H1022.7z M1028.8,301.2
			c0-1.3-0.6-3.4-2.9-3.4c-2.1,0-3.1,2-3.2,3.4H1028.8z"/>
		<path fill="#1F407B" d="M1033.5,300.2c0-1.4,0-2.5-0.1-3.6h1.8l0.1,2.3h0.1c0.5-1.6,1.8-2.5,3.2-2.5c0.2,0,0.4,0,0.6,0.1v2
			c-0.2,0-0.4-0.1-0.7-0.1c-1.5,0-2.5,1.1-2.8,2.7c0,0.3-0.1,0.6-0.1,1v6.2h-2.1V300.2z"/>
		<path fill="#1F407B" d="M1047.7,308.2l-0.2-1.5h-0.1c-0.6,0.9-1.9,1.7-3.6,1.7c-2.4,0-3.6-1.7-3.6-3.3c0-2.8,2.5-4.3,7-4.3v-0.2
			c0-1-0.3-2.7-2.6-2.7c-1.1,0-2.2,0.3-3,0.9l-0.5-1.4c1-0.6,2.4-1,3.8-1c3.6,0,4.4,2.4,4.4,4.8v4.3c0,1,0,2,0.2,2.8H1047.7z
			 M1047.4,302.2c-2.3,0-4.9,0.4-4.9,2.6c0,1.4,0.9,2,2,2c1.5,0,2.5-1,2.8-1.9c0.1-0.2,0.1-0.5,0.1-0.7V302.2z"/>
		<path fill="#1F407B" d="M1055.3,293.2v3.3h3v1.6h-3v6.3c0,1.4,0.4,2.3,1.6,2.3c0.6,0,1-0.1,1.2-0.1l0.1,1.6
			c-0.4,0.2-1.1,0.3-1.9,0.3c-1,0-1.8-0.3-2.3-0.9c-0.6-0.6-0.8-1.7-0.8-3v-6.3h-1.8v-1.6h1.8v-2.8L1055.3,293.2z"/>
		<path fill="#1F407B" d="M1063,293.3c0,0.7-0.5,1.3-1.3,1.3c-0.7,0-1.3-0.6-1.3-1.3c0-0.7,0.6-1.3,1.3-1.3
			C1062.5,291.9,1063,292.5,1063,293.3z M1060.6,308.2v-11.6h2.1v11.6H1060.6z"/>
		<path fill="#1F407B" d="M1076.8,302.2c0,4.3-3,6.2-5.8,6.2c-3.1,0-5.6-2.3-5.6-6c0-3.9,2.5-6.2,5.8-6.2
			C1074.5,296.3,1076.8,298.7,1076.8,302.2z M1067.6,302.4c0,2.5,1.5,4.5,3.5,4.5c2,0,3.5-1.9,3.5-4.5c0-2-1-4.5-3.5-4.5
			S1067.6,300.2,1067.6,302.4z"/>
		<path fill="#1F407B" d="M1079.4,299.7c0-1.2,0-2.2-0.1-3.1h1.9l0.1,1.9h0c0.6-1.1,1.9-2.2,3.8-2.2c1.6,0,4.1,1,4.1,4.9v6.9h-2.1
			v-6.7c0-1.9-0.7-3.4-2.7-3.4c-1.4,0-2.5,1-2.8,2.2c-0.1,0.3-0.1,0.6-0.1,1v7h-2.1V299.7z"/>
		<path fill="#1F407B" d="M1092.5,306c0.6,0.4,1.7,0.8,2.8,0.8c1.5,0,2.3-0.8,2.3-1.7c0-1-0.6-1.6-2.2-2.1c-2.1-0.7-3.1-1.9-3.1-3.3
			c0-1.9,1.5-3.4,4-3.4c1.2,0,2.2,0.3,2.9,0.7l-0.5,1.5c-0.5-0.3-1.3-0.7-2.4-0.7c-1.2,0-1.9,0.7-1.9,1.6c0,1,0.7,1.4,2.2,2
			c2,0.8,3,1.8,3,3.5c0,2-1.6,3.5-4.3,3.5c-1.3,0-2.4-0.3-3.3-0.8L1092.5,306z"/>
	</g>
	<g>
		<path fill="#1F407B" d="M399.2,570.2h8.7v1.8h-6.6v5.4h6.1v1.7h-6.1v7.3h-2.1V570.2z"/>
		<path fill="#1F407B" d="M410.2,578.4c0-1.4,0-2.5-0.1-3.6h1.8l0.1,2.3h0.1c0.5-1.6,1.8-2.5,3.2-2.5c0.2,0,0.4,0,0.6,0.1v2
			c-0.2,0-0.4-0.1-0.7-0.1c-1.5,0-2.5,1.1-2.8,2.7c0,0.3-0.1,0.6-0.1,1v6.2h-2.1V578.4z"/>
		<path fill="#1F407B" d="M424.3,586.4l-0.2-1.5h-0.1c-0.6,0.9-1.9,1.7-3.6,1.7c-2.4,0-3.6-1.7-3.6-3.3c0-2.8,2.5-4.3,7-4.3v-0.2
			c0-1-0.3-2.7-2.6-2.7c-1.1,0-2.2,0.3-3,0.9l-0.5-1.4c1-0.6,2.4-1,3.8-1c3.6,0,4.4,2.4,4.4,4.8v4.3c0,1,0,2,0.2,2.8H424.3z
			 M424,580.5c-2.3,0-4.9,0.4-4.9,2.6c0,1.4,0.9,2,2,2c1.5,0,2.5-1,2.8-1.9c0.1-0.2,0.1-0.5,0.1-0.7V580.5z"/>
		<path fill="#1F407B" d="M429.5,577.9c0-1.2,0-2.2-0.1-3.1h1.9l0.1,1.9h0c0.6-1.1,1.9-2.2,3.8-2.2c1.6,0,4.1,1,4.1,4.9v6.9h-2.1
			v-6.7c0-1.9-0.7-3.4-2.7-3.4c-1.4,0-2.5,1-2.8,2.2c-0.1,0.3-0.1,0.6-0.1,1v7h-2.1V577.9z"/>
		<path fill="#1F407B" d="M451.1,586c-0.6,0.3-1.8,0.7-3.3,0.7c-3.5,0-5.8-2.4-5.8-5.9c0-3.6,2.4-6.2,6.2-6.2c1.2,0,2.4,0.3,2.9,0.6
			l-0.5,1.6c-0.5-0.3-1.3-0.6-2.4-0.6c-2.7,0-4.1,2-4.1,4.4c0,2.7,1.7,4.3,4,4.3c1.2,0,2-0.3,2.6-0.6L451.1,586z"/>
		<path fill="#1F407B" d="M453.5,569.4h2.1v7.2h0c0.3-0.6,0.9-1.1,1.5-1.5c0.6-0.4,1.4-0.6,2.2-0.6c1.6,0,4.1,1,4.1,5v6.9h-2.1v-6.7
			c0-1.9-0.7-3.5-2.7-3.5c-1.4,0-2.4,1-2.8,2.1c-0.1,0.3-0.1,0.6-0.1,1v7h-2.1V569.4z"/>
		<path fill="#1F407B" d="M469.2,571.5c0,0.7-0.5,1.3-1.3,1.3c-0.7,0-1.3-0.6-1.3-1.3c0-0.7,0.6-1.3,1.3-1.3
			C468.7,570.2,469.2,570.8,469.2,571.5z M466.8,586.4v-11.6h2.1v11.6H466.8z"/>
		<path fill="#1F407B" d="M472.2,584.3c0.6,0.4,1.7,0.8,2.8,0.8c1.5,0,2.3-0.8,2.3-1.7c0-1-0.6-1.6-2.2-2.1
			c-2.1-0.7-3.1-1.9-3.1-3.3c0-1.9,1.5-3.4,4-3.4c1.2,0,2.2,0.3,2.9,0.7l-0.5,1.5c-0.5-0.3-1.3-0.7-2.4-0.7c-1.2,0-1.9,0.7-1.9,1.6
			c0,1,0.7,1.4,2.2,2c2,0.8,3,1.8,3,3.5c0,2-1.6,3.5-4.3,3.5c-1.3,0-2.4-0.3-3.3-0.8L472.2,584.3z"/>
		<path fill="#1F407B" d="M483.1,581c0,2.9,1.9,4,4,4c1.5,0,2.4-0.3,3.2-0.6l0.4,1.5c-0.7,0.3-2,0.7-3.9,0.7c-3.6,0-5.7-2.4-5.7-5.9
			c0-3.5,2.1-6.3,5.4-6.3c3.8,0,4.8,3.3,4.8,5.5c0,0.4,0,0.8-0.1,1H483.1z M489.3,579.5c0-1.3-0.6-3.4-2.9-3.4c-2.1,0-3.1,2-3.2,3.4
			H489.3z"/>
		<path fill="#1F407B" d="M495.2,581c0,2.9,1.9,4,4,4c1.5,0,2.4-0.3,3.2-0.6l0.4,1.5c-0.7,0.3-2,0.7-3.9,0.7c-3.6,0-5.7-2.4-5.7-5.9
			c0-3.5,2.1-6.3,5.4-6.3c3.8,0,4.8,3.3,4.8,5.5c0,0.4,0,0.8-0.1,1H495.2z M501.4,579.5c0-1.3-0.6-3.4-2.9-3.4c-2.1,0-3.1,2-3.2,3.4
			H501.4z"/>
		<path fill="#1F407B" d="M505.7,584.3c0.6,0.4,1.7,0.8,2.8,0.8c1.5,0,2.3-0.8,2.3-1.7c0-1-0.6-1.6-2.2-2.1
			c-2.1-0.7-3.1-1.9-3.1-3.3c0-1.9,1.5-3.4,4-3.4c1.2,0,2.2,0.3,2.9,0.7l-0.5,1.5c-0.5-0.3-1.3-0.7-2.4-0.7c-1.2,0-1.9,0.7-1.9,1.6
			c0,1,0.7,1.4,2.2,2c2,0.8,3,1.8,3,3.5c0,2-1.6,3.5-4.3,3.5c-1.3,0-2.4-0.3-3.3-0.8L505.7,584.3z"/>
	</g>
	<g>
		<path fill="#1F407B" d="M104.6,579.3c-0.1-2.3-0.3-5-0.2-7h-0.1c-0.6,1.9-1.2,3.9-2,6.1l-2.9,7.8h-1.6l-2.6-7.7
			c-0.8-2.3-1.4-4.4-1.9-6.3h0c0,2-0.2,4.7-0.3,7.2l-0.4,6.9h-2l1.1-16.2h2.7l2.8,7.8c0.7,2,1.2,3.8,1.6,5.4h0.1
			c0.4-1.6,1-3.4,1.7-5.4l2.9-7.8h2.7l1,16.2h-2L104.6,579.3z"/>
		<path fill="#1F407B" d="M120,583.2c0,1.2,0,2.3,0.1,3.2h-1.9l-0.1-1.9h0c-0.6,0.9-1.8,2.2-3.8,2.2c-1.8,0-4-1-4-5.1v-6.8h2.1v6.4
			c0,2.2,0.7,3.7,2.6,3.7c1.4,0,2.4-1,2.8-1.9c0.1-0.3,0.2-0.7,0.2-1.1v-7.1h2.1V583.2z"/>
		<path fill="#1F407B" d="M123.5,569.4h2.1v17h-2.1V569.4z"/>
		<path fill="#1F407B" d="M131.7,571.5v3.3h3v1.6h-3v6.3c0,1.4,0.4,2.3,1.6,2.3c0.6,0,1-0.1,1.2-0.1l0.1,1.6
			c-0.4,0.2-1.1,0.3-1.9,0.3c-1,0-1.8-0.3-2.3-0.9c-0.6-0.6-0.8-1.7-0.8-3v-6.3h-1.8v-1.6h1.8V572L131.7,571.5z"/>
		<path fill="#1F407B" d="M139.5,571.5c0,0.7-0.5,1.3-1.3,1.3c-0.7,0-1.3-0.6-1.3-1.3c0-0.7,0.6-1.3,1.3-1.3
			C139,570.2,139.5,570.8,139.5,571.5z M137.1,586.4v-11.6h2.1v11.6H137.1z"/>
		<path fill="#1F407B" d="M147.7,579.1v1.6h-5.9v-1.6H147.7z"/>
		<path fill="#1F407B" d="M152.3,570.2v9.6c0,3.6,1.6,5.2,3.8,5.2c2.4,0,3.9-1.6,3.9-5.2v-9.6h2.1v9.4c0,5-2.6,7-6.1,7
			c-3.3,0-5.8-1.9-5.8-6.9v-9.5H152.3z"/>
		<path fill="#1F407B" d="M165.7,577.9c0-1.2,0-2.2-0.1-3.1h1.9l0.1,1.9h0c0.6-1.1,1.9-2.2,3.8-2.2c1.6,0,4.1,1,4.1,4.9v6.9h-2.1
			v-6.7c0-1.9-0.7-3.4-2.7-3.4c-1.4,0-2.5,1-2.8,2.2c-0.1,0.3-0.1,0.6-0.1,1v7h-2.1V577.9z"/>
		<path fill="#1F407B" d="M181.3,571.5c0,0.7-0.5,1.3-1.3,1.3c-0.7,0-1.3-0.6-1.3-1.3c0-0.7,0.6-1.3,1.3-1.3
			C180.8,570.2,181.3,570.8,181.3,571.5z M179,586.4v-11.6h2.1v11.6H179z"/>
		<path fill="#1F407B" d="M187.1,571.5v3.3h3v1.6h-3v6.3c0,1.4,0.4,2.3,1.6,2.3c0.6,0,1-0.1,1.2-0.1l0.1,1.6
			c-0.4,0.2-1.1,0.3-1.9,0.3c-1,0-1.8-0.3-2.3-0.9c-0.6-0.6-0.8-1.7-0.8-3v-6.3h-1.8v-1.6h1.8V572L187.1,571.5z"/>
		<path fill="#1F407B" d="M190.8,587.4l6.7-17.4h1.6l-6.7,17.4H190.8z"/>
		<path fill="#1F407B" d="M214.5,579.3c-0.1-2.3-0.3-5-0.2-7h-0.1c-0.6,1.9-1.2,3.9-2,6.1l-2.9,7.8h-1.6l-2.6-7.7
			c-0.8-2.3-1.4-4.4-1.9-6.3h0c0,2-0.2,4.7-0.3,7.2l-0.4,6.9h-2l1.1-16.2h2.7l2.8,7.8c0.7,2,1.2,3.8,1.6,5.4h0.1
			c0.4-1.6,1-3.4,1.7-5.4l2.9-7.8h2.7l1,16.2h-2L214.5,579.3z"/>
		<path fill="#1F407B" d="M226.6,586.4l-0.2-1.5h-0.1c-0.6,0.9-1.9,1.7-3.6,1.7c-2.4,0-3.6-1.7-3.6-3.3c0-2.8,2.5-4.3,7-4.3v-0.2
			c0-1-0.3-2.7-2.6-2.7c-1.1,0-2.2,0.3-3,0.9l-0.5-1.4c1-0.6,2.4-1,3.8-1c3.6,0,4.4,2.4,4.4,4.8v4.3c0,1,0,2,0.2,2.8H226.6z
			 M226.3,580.5c-2.3,0-4.9,0.4-4.9,2.6c0,1.4,0.9,2,2,2c1.5,0,2.5-1,2.8-1.9c0.1-0.2,0.1-0.5,0.1-0.7V580.5z"/>
		<path fill="#1F407B" d="M231.5,584.3c0.6,0.4,1.7,0.8,2.8,0.8c1.5,0,2.3-0.8,2.3-1.7c0-1-0.6-1.6-2.2-2.1
			c-2.1-0.7-3.1-1.9-3.1-3.3c0-1.9,1.5-3.4,4-3.4c1.2,0,2.2,0.3,2.9,0.7l-0.5,1.5c-0.5-0.3-1.3-0.7-2.4-0.7c-1.2,0-1.9,0.7-1.9,1.6
			c0,1,0.7,1.4,2.2,2c2,0.8,3,1.8,3,3.5c0,2-1.6,3.5-4.3,3.5c-1.3,0-2.4-0.3-3.3-0.8L231.5,584.3z"/>
		<path fill="#1F407B" d="M243.8,571.5v3.3h3v1.6h-3v6.3c0,1.4,0.4,2.3,1.6,2.3c0.6,0,1-0.1,1.2-0.1l0.1,1.6
			c-0.4,0.2-1.1,0.3-1.9,0.3c-1,0-1.8-0.3-2.3-0.9c-0.6-0.6-0.8-1.7-0.8-3v-6.3H240v-1.6h1.8V572L243.8,571.5z"/>
		<path fill="#1F407B" d="M250.3,581c0,2.9,1.9,4,4,4c1.5,0,2.4-0.3,3.2-0.6l0.4,1.5c-0.7,0.3-2,0.7-3.9,0.7c-3.6,0-5.7-2.4-5.7-5.9
			c0-3.5,2.1-6.3,5.4-6.3c3.8,0,4.8,3.3,4.8,5.5c0,0.4,0,0.8-0.1,1H250.3z M256.4,579.5c0-1.3-0.6-3.4-2.9-3.4c-2.1,0-3.1,2-3.2,3.4
			H256.4z"/>
		<path fill="#1F407B" d="M261.1,578.4c0-1.4,0-2.5-0.1-3.6h1.8l0.1,2.3h0.1c0.5-1.6,1.8-2.5,3.2-2.5c0.2,0,0.4,0,0.6,0.1v2
			c-0.2,0-0.4-0.1-0.7-0.1c-1.5,0-2.5,1.1-2.8,2.7c0,0.3-0.1,0.6-0.1,1v6.2h-2.1V578.4z"/>
		<path fill="#1F407B" d="M106.6,610.1l-1.7,5.1h-2.2l5.5-16.2h2.5l5.5,16.2H114l-1.7-5.1H106.6z M111.9,608.5l-1.6-4.7
			c-0.4-1.1-0.6-2-0.8-3h0c-0.2,1-0.5,1.9-0.8,2.9l-1.6,4.7H111.9z"/>
		<path fill="#1F407B" d="M118.5,607.2c0-1.4,0-2.5-0.1-3.6h1.8l0.1,2.3h0.1c0.5-1.6,1.8-2.5,3.2-2.5c0.2,0,0.4,0,0.6,0.1v2
			c-0.2,0-0.4-0.1-0.7-0.1c-1.5,0-2.5,1.1-2.8,2.7c0,0.3-0.1,0.6-0.1,1v6.2h-2.1V607.2z"/>
		<path fill="#1F407B" d="M127.3,609.8c0,2.9,1.9,4,4,4c1.5,0,2.4-0.3,3.2-0.6l0.4,1.5c-0.7,0.3-2,0.7-3.9,0.7
			c-3.6,0-5.7-2.4-5.7-5.9s2.1-6.3,5.4-6.3c3.8,0,4.8,3.3,4.8,5.5c0,0.4,0,0.8-0.1,1H127.3z M133.5,608.3c0-1.3-0.6-3.4-2.9-3.4
			c-2.1,0-3.1,2-3.2,3.4H133.5z"/>
		<path fill="#1F407B" d="M144.5,615.2l-0.2-1.5h-0.1c-0.6,0.9-1.9,1.7-3.6,1.7c-2.4,0-3.6-1.7-3.6-3.3c0-2.8,2.5-4.3,7-4.3v-0.2
			c0-1-0.3-2.7-2.6-2.7c-1.1,0-2.2,0.3-3,0.9l-0.5-1.4c1-0.6,2.4-1,3.8-1c3.6,0,4.4,2.4,4.4,4.8v4.3c0,1,0,2,0.2,2.8H144.5z
			 M144.2,609.3c-2.3,0-4.9,0.4-4.9,2.6c0,1.4,0.9,2,2,2c1.5,0,2.5-1,2.8-1.9c0.1-0.2,0.1-0.5,0.1-0.7V609.3z"/>
		<path fill="#1F407B" d="M164.8,598.2v14c0,1,0,2.2,0.1,3H163l-0.1-2h0c-0.6,1.3-2.1,2.3-4,2.3c-2.8,0-5-2.4-5-5.9
			c0-3.9,2.4-6.2,5.2-6.2c1.8,0,3,0.8,3.5,1.8h0v-6.9H164.8z M162.7,608.3c0-0.3,0-0.6-0.1-0.9c-0.3-1.3-1.5-2.4-3-2.4
			c-2.2,0-3.5,1.9-3.5,4.5c0,2.4,1.2,4.3,3.4,4.3c1.4,0,2.7-0.9,3.1-2.5c0.1-0.3,0.1-0.6,0.1-0.9V608.3z"/>
		<path fill="#1F407B" d="M169.5,609.8c0,2.9,1.9,4,4,4c1.5,0,2.4-0.3,3.2-0.6l0.4,1.5c-0.7,0.3-2,0.7-3.9,0.7
			c-3.6,0-5.7-2.4-5.7-5.9s2.1-6.3,5.4-6.3c3.8,0,4.8,3.3,4.8,5.5c0,0.4,0,0.8-0.1,1H169.5z M175.7,608.3c0-1.3-0.6-3.4-2.9-3.4
			c-2.1,0-3.1,2-3.2,3.4H175.7z"/>
		<path fill="#1F407B" d="M181.1,603.6l2.3,6.5c0.4,1.1,0.7,2,0.9,3h0.1c0.3-1,0.6-1.9,1-3l2.3-6.5h2.2l-4.6,11.6h-2l-4.4-11.6
			H181.1z"/>
		<path fill="#1F407B" d="M192.8,609.8c0,2.9,1.9,4,4,4c1.5,0,2.4-0.3,3.2-0.6l0.4,1.5c-0.7,0.3-2,0.7-3.9,0.7
			c-3.6,0-5.7-2.4-5.7-5.9s2.1-6.3,5.4-6.3c3.8,0,4.8,3.3,4.8,5.5c0,0.4,0,0.8-0.1,1H192.8z M199,608.3c0-1.3-0.6-3.4-2.9-3.4
			c-2.1,0-3.1,2-3.2,3.4H199z"/>
		<path fill="#1F407B" d="M203.7,598.2h2.1v17h-2.1V598.2z"/>
		<path fill="#1F407B" d="M219.8,609.3c0,4.3-3,6.2-5.8,6.2c-3.1,0-5.6-2.3-5.6-6c0-3.9,2.5-6.2,5.8-6.2
			C217.6,603.3,219.8,605.8,219.8,609.3z M210.6,609.4c0,2.5,1.5,4.5,3.5,4.5c2,0,3.5-1.9,3.5-4.5c0-2-1-4.5-3.5-4.5
			S210.6,607.2,210.6,609.4z"/>
		<path fill="#1F407B" d="M222.5,607.4c0-1.5,0-2.7-0.1-3.8h1.9l0.1,2h0c0.9-1.4,2.2-2.3,4.1-2.3c2.8,0,4.9,2.4,4.9,5.9
			c0,4.2-2.5,6.2-5.3,6.2c-1.5,0-2.9-0.7-3.6-1.8h0v6.3h-2.1V607.4z M224.6,610.5c0,0.3,0,0.6,0.1,0.9c0.4,1.5,1.7,2.5,3.2,2.5
			c2.2,0,3.5-1.8,3.5-4.5c0-2.3-1.2-4.3-3.5-4.3c-1.4,0-2.8,1-3.2,2.6c-0.1,0.3-0.1,0.6-0.1,0.9V610.5z"/>
		<path fill="#1F407B" d="M237.3,609.8c0,2.9,1.9,4,4,4c1.5,0,2.4-0.3,3.2-0.6l0.4,1.5c-0.7,0.3-2,0.7-3.9,0.7
			c-3.6,0-5.7-2.4-5.7-5.9s2.1-6.3,5.4-6.3c3.8,0,4.8,3.3,4.8,5.5c0,0.4,0,0.8-0.1,1H237.3z M243.5,608.3c0-1.3-0.6-3.4-2.9-3.4
			c-2.1,0-3.1,2-3.2,3.4H243.5z"/>
		<path fill="#1F407B" d="M248.2,607.2c0-1.4,0-2.5-0.1-3.6h1.8l0.1,2.3h0.1c0.5-1.6,1.8-2.5,3.2-2.5c0.2,0,0.4,0,0.6,0.1v2
			c-0.2,0-0.4-0.1-0.7-0.1c-1.5,0-2.5,1.1-2.8,2.7c0,0.3-0.1,0.6-0.1,1v6.2h-2.1V607.2z"/>
	</g>
	<g>
		<path fill="#1F407B" d="M417.4,274.3l-1.7,5.1h-2.2l5.5-16.2h2.5l5.5,16.2h-2.2l-1.7-5.1H417.4z M422.7,272.6l-1.6-4.7
			c-0.4-1.1-0.6-2-0.8-3h0c-0.2,1-0.5,1.9-0.8,2.9l-1.6,4.7H422.7z"/>
		<path fill="#1F407B" d="M439.2,267.7c0,0.8-0.1,1.8-0.1,3.2v6.7c0,2.7-0.5,4.3-1.7,5.3c-1.1,1.1-2.8,1.4-4.2,1.4
			c-1.4,0-2.9-0.3-3.9-1l0.5-1.6c0.8,0.5,2,0.9,3.4,0.9c2.2,0,3.7-1.1,3.7-4.1v-1.3h0c-0.6,1.1-1.9,1.9-3.7,1.9
			c-2.9,0-4.9-2.4-4.9-5.7c0-3.9,2.6-6.2,5.2-6.2c2,0,3.1,1.1,3.6,2h0l0.1-1.8H439.2z M437,272.3c0-0.4,0-0.7-0.1-1
			c-0.4-1.2-1.4-2.2-3-2.2c-2,0-3.5,1.7-3.5,4.4c0,2.3,1.2,4.2,3.4,4.2c1.3,0,2.5-0.8,2.9-2.2c0.1-0.4,0.2-0.8,0.2-1.1V272.3z"/>
		<path fill="#1F407B" d="M443.7,273.9c0,2.9,1.9,4,4,4c1.5,0,2.4-0.3,3.2-0.6l0.4,1.5c-0.7,0.3-2,0.7-3.9,0.7
			c-3.6,0-5.7-2.4-5.7-5.9c0-3.5,2.1-6.3,5.4-6.3c3.8,0,4.8,3.3,4.8,5.5c0,0.4,0,0.8-0.1,1H443.7z M449.9,272.4
			c0-1.3-0.6-3.4-2.9-3.4c-2.1,0-3.1,2-3.2,3.4H449.9z"/>
		<path fill="#1F407B" d="M454.6,270.9c0-1.2,0-2.2-0.1-3.1h1.9l0.1,1.9h0c0.6-1.1,1.9-2.2,3.8-2.2c1.6,0,4.1,1,4.1,4.9v6.9h-2.1
			v-6.7c0-1.9-0.7-3.4-2.7-3.4c-1.4,0-2.5,1-2.8,2.2c-0.1,0.3-0.1,0.6-0.1,1v7h-2.1V270.9z"/>
		<path fill="#1F407B" d="M476.2,278.9c-0.6,0.3-1.8,0.7-3.3,0.7c-3.5,0-5.8-2.4-5.8-5.9c0-3.6,2.4-6.2,6.2-6.2
			c1.2,0,2.4,0.3,2.9,0.6l-0.5,1.6c-0.5-0.3-1.3-0.6-2.4-0.6c-2.7,0-4.1,2-4.1,4.4c0,2.7,1.7,4.3,4,4.3c1.2,0,2-0.3,2.6-0.6
			L476.2,278.9z"/>
		<path fill="#1F407B" d="M481,264.5c0,0.7-0.5,1.3-1.3,1.3c-0.7,0-1.3-0.6-1.3-1.3c0-0.7,0.6-1.3,1.3-1.3
			C480.5,263.1,481,263.7,481,264.5z M478.7,279.4v-11.6h2.1v11.6H478.7z"/>
		<path fill="#1F407B" d="M485.5,273.9c0,2.9,1.9,4,4,4c1.5,0,2.4-0.3,3.2-0.6l0.4,1.5c-0.7,0.3-2,0.7-3.9,0.7
			c-3.6,0-5.7-2.4-5.7-5.9c0-3.5,2.1-6.3,5.4-6.3c3.8,0,4.8,3.3,4.8,5.5c0,0.4,0,0.8-0.1,1H485.5z M491.6,272.4
			c0-1.3-0.6-3.4-2.9-3.4c-2.1,0-3.1,2-3.2,3.4H491.6z"/>
		<path fill="#1F407B" d="M496,277.2c0.6,0.4,1.7,0.8,2.8,0.8c1.5,0,2.3-0.8,2.3-1.7c0-1-0.6-1.6-2.2-2.1c-2.1-0.7-3.1-1.9-3.1-3.3
			c0-1.9,1.5-3.4,4-3.4c1.2,0,2.2,0.3,2.9,0.7l-0.5,1.5c-0.5-0.3-1.3-0.7-2.4-0.7c-1.2,0-1.9,0.7-1.9,1.6c0,1,0.7,1.4,2.2,2
			c2,0.8,3,1.8,3,3.5c0,2-1.6,3.5-4.3,3.5c-1.3,0-2.4-0.3-3.3-0.8L496,277.2z"/>
	</g>
	<g>
		<path fill="#1F407B" d="M689,263.2h8.7v1.8h-6.6v5.4h6.1v1.7h-6.1v7.3H689V263.2z"/>
		<path fill="#1F407B" d="M700,271.4c0-1.4,0-2.5-0.1-3.6h1.8l0.1,2.3h0.1c0.5-1.6,1.8-2.5,3.2-2.5c0.2,0,0.4,0,0.6,0.1v2
			c-0.2,0-0.4-0.1-0.7-0.1c-1.5,0-2.5,1.1-2.8,2.7c0,0.3-0.1,0.6-0.1,1v6.2H700V271.4z"/>
		<path fill="#1F407B" d="M714.2,279.4l-0.2-1.5h-0.1c-0.6,0.9-1.9,1.7-3.6,1.7c-2.4,0-3.6-1.7-3.6-3.3c0-2.8,2.5-4.3,7-4.3v-0.2
			c0-1-0.3-2.7-2.6-2.7c-1.1,0-2.2,0.3-3,0.9l-0.5-1.4c1-0.6,2.4-1,3.8-1c3.6,0,4.4,2.4,4.4,4.8v4.3c0,1,0,2,0.2,2.8H714.2z
			 M713.9,273.4c-2.3,0-4.9,0.4-4.9,2.6c0,1.4,0.9,2,2,2c1.5,0,2.5-1,2.8-1.9c0.1-0.2,0.1-0.5,0.1-0.7V273.4z"/>
		<path fill="#1F407B" d="M719.3,270.9c0-1.2,0-2.2-0.1-3.1h1.9l0.1,1.9h0c0.6-1.1,1.9-2.2,3.8-2.2c1.6,0,4.1,1,4.1,4.9v6.9h-2.1
			v-6.7c0-1.9-0.7-3.4-2.7-3.4c-1.4,0-2.5,1-2.8,2.2c-0.1,0.3-0.1,0.6-0.1,1v7h-2.1V270.9z"/>
		<path fill="#1F407B" d="M740.9,278.9c-0.6,0.3-1.8,0.7-3.3,0.7c-3.5,0-5.8-2.4-5.8-5.9c0-3.6,2.4-6.2,6.2-6.2
			c1.2,0,2.4,0.3,2.9,0.6l-0.5,1.6c-0.5-0.3-1.3-0.6-2.4-0.6c-2.7,0-4.1,2-4.1,4.4c0,2.7,1.7,4.3,4,4.3c1.2,0,2-0.3,2.6-0.6
			L740.9,278.9z"/>
		<path fill="#1F407B" d="M743.4,262.3h2.1v7.2h0c0.3-0.6,0.9-1.1,1.5-1.5c0.6-0.4,1.4-0.6,2.2-0.6c1.6,0,4.1,1,4.1,5v6.9h-2.1v-6.7
			c0-1.9-0.7-3.5-2.7-3.5c-1.4,0-2.4,1-2.8,2.1c-0.1,0.3-0.1,0.6-0.1,1v7h-2.1V262.3z"/>
		<path fill="#1F407B" d="M759,264.5c0,0.7-0.5,1.3-1.3,1.3c-0.7,0-1.3-0.6-1.3-1.3c0-0.7,0.6-1.3,1.3-1.3
			C758.5,263.1,759,263.7,759,264.5z M756.7,279.4v-11.6h2.1v11.6H756.7z"/>
		<path fill="#1F407B" d="M762,277.2c0.6,0.4,1.7,0.8,2.8,0.8c1.5,0,2.3-0.8,2.3-1.7c0-1-0.6-1.6-2.2-2.1c-2.1-0.7-3.1-1.9-3.1-3.3
			c0-1.9,1.5-3.4,4-3.4c1.2,0,2.2,0.3,2.9,0.7l-0.5,1.5c-0.5-0.3-1.3-0.7-2.4-0.7c-1.2,0-1.9,0.7-1.9,1.6c0,1,0.7,1.4,2.2,2
			c2,0.8,3,1.8,3,3.5c0,2-1.6,3.5-4.3,3.5c-1.3,0-2.4-0.3-3.3-0.8L762,277.2z"/>
		<path fill="#1F407B" d="M782.3,273.4c0,4.3-3,6.2-5.8,6.2c-3.1,0-5.6-2.3-5.6-6c0-3.9,2.5-6.2,5.8-6.2
			C780.1,267.5,782.3,269.9,782.3,273.4z M773.1,273.6c0,2.5,1.5,4.5,3.5,4.5c2,0,3.5-1.9,3.5-4.5c0-2-1-4.5-3.5-4.5
			S773.1,271.4,773.1,273.6z"/>
		<path fill="#1F407B" d="M785,271.4c0-1.4,0-2.5-0.1-3.6h1.8l0.1,2.3h0.1c0.5-1.6,1.8-2.5,3.2-2.5c0.2,0,0.4,0,0.6,0.1v2
			c-0.2,0-0.4-0.1-0.7-0.1c-1.5,0-2.5,1.1-2.8,2.7c0,0.3-0.1,0.6-0.1,1v6.2H785V271.4z"/>
	</g>
	<g>
		<path fill="#1F407B" d="M687.8,578.8h-6.3v5.8h7v1.8h-9.1v-16.2h8.7v1.8h-6.6v5.1h6.3V578.8z"/>
		<path fill="#1F407B" d="M691.1,577.9c0-1.2,0-2.2-0.1-3.1h1.8l0.1,1.9h0.1c0.6-1.1,1.7-2.1,3.6-2.1c1.6,0,2.8,1,3.3,2.3h0
			c0.4-0.6,0.8-1.2,1.3-1.5c0.7-0.5,1.5-0.8,2.6-0.8c1.5,0,3.8,1,3.8,5v6.8h-2.1v-6.6c0-2.2-0.8-3.6-2.5-3.6c-1.2,0-2.1,0.9-2.5,1.9
			c-0.1,0.3-0.2,0.7-0.2,1.1v7.2h-2.1v-7c0-1.8-0.8-3.2-2.4-3.2c-1.3,0-2.3,1.1-2.6,2.1c-0.1,0.3-0.2,0.7-0.2,1v7h-2.1V577.9z"/>
		<path fill="#1F407B" d="M711.2,578.6c0-1.5,0-2.7-0.1-3.8h1.9l0.1,2h0c0.9-1.4,2.2-2.3,4.1-2.3c2.8,0,4.9,2.4,4.9,5.9
			c0,4.2-2.5,6.2-5.3,6.2c-1.5,0-2.9-0.7-3.6-1.8h0v6.3h-2.1V578.6z M713.3,581.7c0,0.3,0,0.6,0.1,0.9c0.4,1.5,1.7,2.5,3.2,2.5
			c2.2,0,3.5-1.8,3.5-4.5c0-2.3-1.2-4.3-3.5-4.3c-1.4,0-2.8,1-3.2,2.6c-0.1,0.3-0.1,0.6-0.1,0.9V581.7z"/>
		<path fill="#1F407B" d="M724.8,569.4h2.1v17h-2.1V569.4z"/>
		<path fill="#1F407B" d="M741,580.5c0,4.3-3,6.2-5.8,6.2c-3.1,0-5.6-2.3-5.6-6c0-3.9,2.5-6.2,5.8-6.2
			C738.7,574.5,741,577,741,580.5z M731.8,580.6c0,2.5,1.5,4.5,3.5,4.5c2,0,3.5-1.9,3.5-4.5c0-2-1-4.5-3.5-4.5
			S731.8,578.4,731.8,580.6z"/>
		<path fill="#1F407B" d="M744.3,574.8l2.5,6.9c0.3,0.8,0.6,1.7,0.7,2.4h0c0.2-0.7,0.5-1.6,0.7-2.4l2.3-6.8h2.2l-3.2,8.3
			c-1.5,4-2.5,6-4,7.3c-1,0.9-2.1,1.3-2.6,1.4l-0.5-1.8c0.5-0.2,1.2-0.5,1.8-1c0.6-0.5,1.3-1.3,1.8-2.4c0.1-0.2,0.2-0.4,0.2-0.5
			s0-0.3-0.1-0.6l-4.3-10.7H744.3z"/>
		<path fill="#1F407B" d="M755.7,581c0,2.9,1.9,4,4,4c1.5,0,2.4-0.3,3.2-0.6l0.4,1.5c-0.7,0.3-2,0.7-3.9,0.7c-3.6,0-5.7-2.4-5.7-5.9
			s2.1-6.3,5.4-6.3c3.8,0,4.8,3.3,4.8,5.5c0,0.4,0,0.8-0.1,1H755.7z M761.9,579.5c0-1.3-0.6-3.4-2.9-3.4c-2.1,0-3.1,2-3.2,3.4H761.9
			z"/>
		<path fill="#1F407B" d="M767.8,581c0,2.9,1.9,4,4,4c1.5,0,2.4-0.3,3.2-0.6l0.4,1.5c-0.7,0.3-2,0.7-3.9,0.7c-3.6,0-5.7-2.4-5.7-5.9
			s2.1-6.3,5.4-6.3c3.8,0,4.8,3.3,4.8,5.5c0,0.4,0,0.8-0.1,1H767.8z M773.9,579.5c0-1.3-0.6-3.4-2.9-3.4c-2.1,0-3.1,2-3.2,3.4H773.9
			z"/>
		<path fill="#1F407B" d="M778.3,584.3c0.6,0.4,1.7,0.8,2.8,0.8c1.5,0,2.3-0.8,2.3-1.7c0-1-0.6-1.6-2.2-2.1
			c-2.1-0.7-3.1-1.9-3.1-3.3c0-1.9,1.5-3.4,4-3.4c1.2,0,2.2,0.3,2.9,0.7l-0.5,1.5c-0.5-0.3-1.3-0.7-2.4-0.7c-1.2,0-1.9,0.7-1.9,1.6
			c0,1,0.7,1.4,2.2,2c2,0.8,3,1.8,3,3.5c0,2-1.6,3.5-4.3,3.5c-1.3,0-2.4-0.3-3.3-0.8L778.3,584.3z"/>
	</g>
	<g>
		<path fill="#1F407B" d="M968.7,585.9c-0.8,0.4-2.3,0.8-4.3,0.8c-4.6,0-8-2.9-8-8.2c0-5.1,3.4-8.5,8.4-8.5c2,0,3.3,0.4,3.8,0.7
			l-0.5,1.7c-0.8-0.4-1.9-0.7-3.3-0.7c-3.8,0-6.3,2.4-6.3,6.7c0,4,2.3,6.5,6.2,6.5c1.3,0,2.6-0.3,3.4-0.7L968.7,585.9z"/>
		<path fill="#1F407B" d="M980.7,583.2c0,1.2,0,2.3,0.1,3.2h-1.9l-0.1-1.9h0c-0.6,0.9-1.8,2.2-3.8,2.2c-1.8,0-4-1-4-5.1v-6.8h2.1
			v6.4c0,2.2,0.7,3.7,2.6,3.7c1.4,0,2.4-1,2.8-1.9c0.1-0.3,0.2-0.7,0.2-1.1v-7.1h2.1V583.2z"/>
		<path fill="#1F407B" d="M983.9,584.3c0.6,0.4,1.7,0.8,2.8,0.8c1.5,0,2.3-0.8,2.3-1.7c0-1-0.6-1.6-2.2-2.1
			c-2.1-0.7-3.1-1.9-3.1-3.3c0-1.9,1.5-3.4,4-3.4c1.2,0,2.2,0.3,2.9,0.7l-0.5,1.5c-0.5-0.3-1.3-0.7-2.4-0.7c-1.2,0-1.9,0.7-1.9,1.6
			c0,1,0.7,1.4,2.2,2c2,0.8,3,1.8,3,3.5c0,2-1.6,3.5-4.3,3.5c-1.3,0-2.4-0.3-3.3-0.8L983.9,584.3z"/>
		<path fill="#1F407B" d="M996.3,571.5v3.3h3v1.6h-3v6.3c0,1.4,0.4,2.3,1.6,2.3c0.6,0,1-0.1,1.2-0.1l0.1,1.6
			c-0.4,0.2-1.1,0.3-1.9,0.3c-1,0-1.8-0.3-2.3-0.9c-0.6-0.6-0.8-1.7-0.8-3v-6.3h-1.8v-1.6h1.8V572L996.3,571.5z"/>
		<path fill="#1F407B" d="M1012,580.5c0,4.3-3,6.2-5.8,6.2c-3.1,0-5.6-2.3-5.6-6c0-3.9,2.5-6.2,5.8-6.2
			C1009.8,574.5,1012,577,1012,580.5z M1002.8,580.6c0,2.5,1.5,4.5,3.5,4.5c2,0,3.5-1.9,3.5-4.5c0-2-1-4.5-3.5-4.5
			S1002.8,578.4,1002.8,580.6z"/>
		<path fill="#1F407B" d="M1014.7,577.9c0-1.2,0-2.2-0.1-3.1h1.8l0.1,1.9h0.1c0.6-1.1,1.7-2.1,3.6-2.1c1.6,0,2.8,1,3.3,2.3h0
			c0.4-0.6,0.8-1.2,1.3-1.5c0.7-0.5,1.5-0.8,2.6-0.8c1.5,0,3.8,1,3.8,5v6.8h-2.1v-6.6c0-2.2-0.8-3.6-2.5-3.6c-1.2,0-2.1,0.9-2.5,1.9
			c-0.1,0.3-0.2,0.7-0.2,1.1v7.2h-2.1v-7c0-1.8-0.8-3.2-2.4-3.2c-1.3,0-2.3,1.1-2.6,2.1c-0.1,0.3-0.2,0.7-0.2,1v7h-2.1V577.9z"/>
		<path fill="#1F407B" d="M1035.9,581c0,2.9,1.9,4,4,4c1.5,0,2.4-0.3,3.2-0.6l0.4,1.5c-0.7,0.3-2,0.7-3.9,0.7
			c-3.6,0-5.7-2.4-5.7-5.9s2.1-6.3,5.4-6.3c3.8,0,4.8,3.3,4.8,5.5c0,0.4,0,0.8-0.1,1H1035.9z M1042.1,579.5c0-1.3-0.6-3.4-2.9-3.4
			c-2.1,0-3.1,2-3.2,3.4H1042.1z"/>
		<path fill="#1F407B" d="M1046.7,578.4c0-1.4,0-2.5-0.1-3.6h1.8l0.1,2.3h0.1c0.5-1.6,1.8-2.5,3.2-2.5c0.2,0,0.4,0,0.6,0.1v2
			c-0.2,0-0.4-0.1-0.7-0.1c-1.5,0-2.5,1.1-2.8,2.7c0,0.3-0.1,0.6-0.1,1v6.2h-2.1V578.4z"/>
		<path fill="#1F407B" d="M1054.3,584.3c0.6,0.4,1.7,0.8,2.8,0.8c1.5,0,2.3-0.8,2.3-1.7c0-1-0.6-1.6-2.2-2.1
			c-2.1-0.7-3.1-1.9-3.1-3.3c0-1.9,1.5-3.4,4-3.4c1.2,0,2.2,0.3,2.9,0.7l-0.5,1.5c-0.5-0.3-1.3-0.7-2.4-0.7c-1.2,0-1.9,0.7-1.9,1.6
			c0,1,0.7,1.4,2.2,2c2,0.8,3,1.8,3,3.5c0,2-1.6,3.5-4.3,3.5c-1.3,0-2.4-0.3-3.3-0.8L1054.3,584.3z"/>
	</g>
</g>
<g id="Layer_3">
	<g>
		<circle fill="#FFFFFF" cx="178" cy="138.4" r="111.3"/>
		<path fill="#28C1D8" d="M178,251.8c-62.5,0-113.3-50.8-113.3-113.3S115.5,25.1,178,25.1s113.3,50.8,113.3,113.3
			S240.5,251.8,178,251.8z M178,29.1c-60.3,0-109.3,49-109.3,109.3s49,109.3,109.3,109.3s109.3-49,109.3-109.3S238.3,29.1,178,29.1z
			"/>
	</g>
	<g>
		<circle fill="#FFFFFF" cx="1018.5" cy="138.4" r="111.3"/>
		<path fill="#28C1D8" d="M1018.5,251.8c-62.5,0-113.3-50.8-113.3-113.3S956,25.1,1018.5,25.1s113.3,50.8,113.3,113.3
			S1081,251.8,1018.5,251.8z M1018.5,29.1c-60.3,0-109.3,49-109.3,109.3s49,109.3,109.3,109.3c60.3,0,109.3-49,109.3-109.3
			S1078.8,29.1,1018.5,29.1z"/>
	</g>
	<g>
		<circle fill="#FFFFFF" cx="455.1" cy="445.5" r="111.3"/>
		<path fill="#28C1D8" d="M455.1,558.8c-62.5,0-113.3-50.8-113.3-113.3c0-62.5,50.8-113.3,113.3-113.3S568.4,383,568.4,445.5
			C568.4,508,517.6,558.8,455.1,558.8z M455.1,336.2c-60.3,0-109.3,49-109.3,109.3c0,60.3,49,109.3,109.3,109.3
			s109.3-49,109.3-109.3C564.4,385.2,515.4,336.2,455.1,336.2z"/>
	</g>
	<g>
		<circle fill="#FFFFFF" cx="178.2" cy="445.5" r="111.3"/>
		<path fill="#28C1D8" d="M178.2,558.8c-62.5,0-113.3-50.8-113.3-113.3s50.8-113.3,113.3-113.3c62.5,0,113.3,50.8,113.3,113.3
			S240.7,558.8,178.2,558.8z M178.2,336.2c-60.3,0-109.3,49-109.3,109.3s49,109.3,109.3,109.3c60.3,0,109.3-49,109.3-109.3
			S238.5,336.2,178.2,336.2z"/>
	</g>
	<g>
		<circle fill="#FFFFFF" cx="458.2" cy="138.4" r="111.3"/>
		<path fill="#28C1D8" d="M458.2,251.8c-62.5,0-113.3-50.8-113.3-113.3S395.7,25.1,458.2,25.1c62.5,0,113.3,50.8,113.3,113.3
			S520.7,251.8,458.2,251.8z M458.2,29.1c-60.3,0-109.3,49-109.3,109.3s49,109.3,109.3,109.3c60.3,0,109.3-49,109.3-109.3
			S518.5,29.1,458.2,29.1z"/>
	</g>
	<g>
		<circle fill="#FFFFFF" cx="738.3" cy="138.4" r="111.3"/>
		<path fill="#28C1D8" d="M738.3,251.8c-62.5,0-113.3-50.8-113.3-113.3S675.9,25.1,738.3,25.1c62.5,0,113.3,50.8,113.3,113.3
			S800.8,251.8,738.3,251.8z M738.3,29.1c-60.3,0-109.3,49-109.3,109.3s49,109.3,109.3,109.3c60.3,0,109.3-49,109.3-109.3
			S798.6,29.1,738.3,29.1z"/>
	</g>
	<g>
		<circle fill="#FFFFFF" cx="732" cy="445.5" r="111.3"/>
		<path fill="#28C1D8" d="M732,558.8c-62.5,0-113.3-50.8-113.3-113.3S669.5,332.2,732,332.2c62.5,0,113.3,50.8,113.3,113.3
			S794.5,558.8,732,558.8z M732,336.2c-60.3,0-109.3,49-109.3,109.3s49,109.3,109.3,109.3c60.3,0,109.3-49,109.3-109.3
			S792.3,336.2,732,336.2z"/>
	</g>
	<g>
		<circle fill="#FFFFFF" cx="1009" cy="445.5" r="111.3"/>
		<path fill="#28C1D8" d="M1009,558.8c-62.5,0-113.3-50.8-113.3-113.3s50.8-113.3,113.3-113.3c62.5,0,113.3,50.8,113.3,113.3
			S1071.5,558.8,1009,558.8z M1009,336.2c-60.3,0-109.3,49-109.3,109.3s49,109.3,109.3,109.3c60.3,0,109.3-49,109.3-109.3
			S1069.2,336.2,1009,336.2z"/>
	</g>
</g>
<g id="Layer_6">
	<polygon opacity="0.6" fill="#CCCCCC" points="222.4,461.1 207,461.1 206.7,461.1 182.7,492 158.4,461.1 142,461.1 111.9,513.1 
		256.5,513.1 	"/>
	<rect x="413.4" y="417.7" opacity="0.6" fill="#CCCCCC" width="103.1" height="98.6"/>
	<path fill="#1F407B" d="M137.9,56.1c1-1.1,1.6-2.6,1.6-4.1L137.9,56.1z"/>
	<path fill="#1F407B" d="M126.7,85.1c-1,1.1-1.6,2.6-1.6,4.1L126.7,85.1z"/>
	<path opacity="0.5" fill="#4CBEA0" d="M225.4,140.8v-18L198.5,141v-18.7L177.7,136l-1-0.1v-26.7h-1.4l-53.9-6v48.7
		c0,0-0.1,7.5-2.6,17.1c-2.6,9.6-5.7,22.1-5.7,28.1s0,15.1,0,15.1h139.4l7-90.1L225.4,140.8z"/>
	<rect x="172.4" y="144.1" fill="#4CBEA0" width="9.6" height="14.6"/>
	<rect x="195.8" y="144.9" fill="#4CBEA0" width="13.6" height="13.8"/>
	<rect x="222.6" y="144.9" fill="#4CBEA0" width="14.2" height="13.8"/>
	<rect x="195.8" y="171.9" fill="#4CBEA0" width="13.6" height="15.7"/>
	<rect x="222.8" y="172.1" fill="#4CBEA0" width="14" height="14.8"/>
	<polyline fill="#FFFFFF" points="424.2,516.3 424.2,456.3 451.2,456.3 451.2,516.3 424.2,516.3 	"/>
	<rect x="463.4" y="456" fill="#FFFFFF" width="41.5" height="36"/>
	<path opacity="0.5" fill="#4CBEA0" d="M415.9,398.1l-15.1,25.2c0,0,1.6,15.6,12.5,15.1c10.8-0.5,12.1-15.1,12.1-15.1l9.3-25.2
		H415.9z"/>
	<path fill="#28C1D8" d="M430.8,398.1L423,419c0,0,0.7,18.8,12.9,19.5s13.5-15.1,13.5-15.1l2.8-25.2H430.8z"/>
	<path fill="#28C1D8" d="M452.4,398.1l-3,26.2c0,0,0.5,13.9,12.2,14.2s12.1-15.1,12.1-15.1l-2.6-25.2H452.4z"/>
	<path fill="#28C1D8" d="M489.9,398.1h-20.4l3.1,24.8c0,0,3.1,16.3,15.4,15.6s10.6-15.1,10.6-15.1L489.9,398.1z"/>
	<path opacity="0.5" fill="#4CBEA0" d="M507.5,398.1h-18.8l9.3,25.2c0,0,1.2,14.6,12.1,15.1c10.8,0.5,12.5-15.1,12.5-15.1
		L507.5,398.1z"/>
	<path opacity="0.5" fill="#53C7DE" d="M182.7,368.6c-25.7,0-46.5,20.8-46.5,46.5s46.5,75.5,46.5,75.5s46.5-49.9,46.5-75.5
		S208.4,368.6,182.7,368.6z M182.7,439.6c-13.5,0-24.5-11-24.5-24.5s11-24.5,24.5-24.5s24.5,11,24.5,24.5S196.2,439.6,182.7,439.6z"
		/>
	<path fill="#1F407B" d="M485.4,162.4h-53.9c-5.9,0-10.7-4.8-10.7-10.7v-32.6c0-5.9,4.8-10.7,10.7-10.7h53.9
		c5.9,0,10.7,4.8,10.7,10.7v32.6C496,157.6,491.2,162.4,485.4,162.4z M431.5,112.5c-3.7,0-6.7,3-6.7,6.7v32.6c0,3.7,3,6.7,6.7,6.7
		h53.9c3.7,0,6.7-3,6.7-6.7v-32.6c0-3.7-3-6.7-6.7-6.7H431.5z"/>
	<rect x="422.8" y="120.3" fill="#1F407B" width="71.2" height="4"/>
	<g>
		<path fill="#1F407B" d="M506.2,177.7c-6.2,0-11.2-5-11.2-11.2c0-6.2,5-11.2,11.2-11.2c6.2,0,11.2,5,11.2,11.2
			C517.4,172.7,512.3,177.7,506.2,177.7z M506.2,159.3c-4,0-7.2,3.2-7.2,7.2c0,4,3.2,7.2,7.2,7.2c4,0,7.2-3.2,7.2-7.2
			C513.4,162.5,510.1,159.3,506.2,159.3z"/>
		<path fill="#1F407B" d="M524.8,201.8h-37.3v-6.9c0-10.3,8.4-18.7,18.7-18.7c10.3,0,18.7,8.4,18.7,18.7V201.8z M491.5,197.8h29.3
			v-2.9c0-8.1-6.6-14.7-14.7-14.7c-8.1,0-14.7,6.6-14.7,14.7V197.8z"/>
	</g>
	<g>
		<path fill="#1F407B" d="M411.8,177.7c-6.2,0-11.2-5-11.2-11.2c0-6.2,5-11.2,11.2-11.2c6.2,0,11.2,5,11.2,11.2
			C423,172.7,418,177.7,411.8,177.7z M411.8,159.3c-4,0-7.2,3.2-7.2,7.2c0,4,3.2,7.2,7.2,7.2c4,0,7.2-3.2,7.2-7.2
			C419,162.5,415.8,159.3,411.8,159.3z"/>
		<path fill="#1F407B" d="M430.5,201.8h-37.3v-6.9c0-10.3,8.4-18.7,18.7-18.7c10.3,0,18.7,8.4,18.7,18.7V201.8z M397.2,197.8h29.3
			v-2.9c0-8.1-6.6-14.7-14.7-14.7c-8.1,0-14.7,6.6-14.7,14.7V197.8z"/>
	</g>
	<path opacity="0.5" fill="#4CBEA0" d="M495,128.1v27.6c0,4.8-3.9,8.7-8.7,8.7h-49.9c-4.8,0-8.7-3.9-8.7-8.7v-27.6"/>
	<rect x="422.8" y="120.3" fill="#1F407B" width="71.2" height="4"/>
	<g opacity="0.5">
		<circle fill="#53C7DE" cx="461.6" cy="69.3" r="9.2"/>
		<path fill="#53C7DE" d="M478.2,102.5v-4.9c0-9.2-7.5-16.7-16.7-16.7l0,0c-9.2,0-16.7,7.5-16.7,16.7v4.9H478.2z"/>
	</g>
	<g opacity="0.5">
		<circle fill="#53C7DE" cx="509.2" cy="170.5" r="9.2"/>
		<path fill="#53C7DE" d="M525.8,203.8v-4.9c0-9.2-7.5-16.7-16.7-16.7l0,0c-9.2,0-16.7,7.5-16.7,16.7v4.9H525.8z"/>
	</g>
	<g opacity="0.5">
		<circle fill="#53C7DE" cx="414.8" cy="170.5" r="9.2"/>
		<path fill="#53C7DE" d="M431.5,203.8v-4.9c0-9.2-7.5-16.7-16.7-16.7l0,0c-9.2,0-16.7,7.5-16.7,16.7v4.9H431.5z"/>
	</g>
	<rect x="440.3" y="132.1" fill="#FFFFFF" width="13.7" height="11.9"/>
	<g opacity="0.5">
		<circle fill="#4CBEA0" cx="740.2" cy="70.5" r="9.2"/>
		<path fill="#4CBEA0" d="M756.9,103.7v-4.9c0-9.2-7.5-16.7-16.7-16.7l0,0c-9.2,0-16.7,7.5-16.7,16.7v4.9H756.9z"/>
	</g>
	<g opacity="0.5">
		<circle fill="#4CBEA0" cx="693.5" cy="171.7" r="9.2"/>
		<path fill="#4CBEA0" d="M710.1,205v-4.9c0-9.2-7.5-16.7-16.7-16.7l0,0c-9.2,0-16.7,7.5-16.7,16.7v4.9H710.1z"/>
	</g>
	<path opacity="0.6" fill="#CCCCCC" d="M738.9,154.4l-6.4-6.3l0.5-6.8c-1.3-1.8-2.1-6.1-2.1-6.1s-1.2,0.7-1.8-2.7
		c-0.8-4.5,0.4-4.5,0.4-4.5c-2.7-10.5,1.4-11.2,1.4-11.2c1.1-4,5.9-4.3,8.9-4.2l1.5,0c3,0,7,0.6,8,4.2c0,0,4.1,0.7,1.4,11.2
		c0,0,1.3,0,0.4,4.5c-0.6,3.4-1.8,2.7-1.8,2.7s-0.8,4.4-2.1,6.1l0.5,6.8l-6.4,6.3l-1.3,1.3L738.9,154.4z"/>
	<polygon fill="#1F407B" points="735.1,157.1 738,154.7 740.5,157.2 739.1,159.9 741.1,173.4 734.6,173.4 736.5,160 	"/>
	<g opacity="0.5">
		<circle fill="#4CBEA0" cx="787.8" cy="171.7" r="9.2"/>
		<path fill="#4CBEA0" d="M804.5,205v-4.9c0-9.2-7.5-16.7-16.7-16.7l0,0c-9.2,0-16.7,7.5-16.7,16.7v4.9H804.5z"/>
	</g>
	<path opacity="0.5" fill="#53C7DE" d="M729.2,149.2l9,8.5l9.2-7.5c0,0,2.6,23.9,2.4,29.2H727C727,179.4,727.4,152.1,729.2,149.2z"
		/>
	<path fill="none" stroke="#1F407B" stroke-width="4" stroke-miterlimit="10" d="M799,130.1"/>
	<path opacity="0.6" fill="#CCCCCC" d="M741.8,409.3c4.9,3.3,6.2,2.1,6.4-1.9c0.2-5.3-0.5-9.5,7.2-6.3s15.5-6,15.6-3.2
		s9.4,5.3,9,8.3s-1.4,17.1,2.5,8.6c1.2-2.7,2.7-4.7,4.1-6.1c0,0,0,0-0.1,0c0,0,5.1-22.8-11-22.7c0,0-3.5-6.2-15.7-4.8
		c-12.2,1.4-22.3,9.6-17.4,28.1C742.4,409.2,742.1,409.2,741.8,409.3z"/>
	<path opacity="0.5" fill="#53C7DE" d="M711,489.7c0,0,0.6-28,12.5-36.1c11.8-8.1,20.1-5,27.6-9.4c0,0,1.6,25.7,13.3,34.7
		c0,0,0.1,0.1,0.2,0c11.8-8.9,13.4-34.7,13.4-34.7c7.5,4.5,15.8,1.3,27.6,9.4c11.8,8.1,12.5,36.1,12.5,36.1"/>
	<path fill="#1F407B" d="M762.5,470.3c2.7-2.7,4.5-7.3,4.5-7.3l-1.8-12.1l3.7-10.4c-6.3,2.7-12.8,0-12.8,0l3.7,10.4l-1.8,12.1
		c0,0,1.8,4.6,4.5,7.3C762.4,470.3,762.5,470.3,762.5,470.3z"/>
	<path opacity="0.5" fill="#4CBEA0" d="M704.3,413.2c0,0-11.5,11.6-23.1,10.6c0,0,3.8,21.2,11.5,24.8h-23.1c0,0-10.9-59.4,30.8-60.4
		c41.7-1,30.3,60.4,30.3,60.4h-21.7c0,0,9.4-7.8,10.1-26.5C719.2,422,706.6,419,704.3,413.2z"/>
	<path fill="#1F407B" d="M693.5,485.1l-17.3-18.3l3.1-3.3h-9l9.5-9.8c-30.9,4.8-29.6,28.8-29.6,29.9l-4,0.3
		c0-0.3-1.7-31.8,38.8-34.7l5.2-0.4l-10.5,10.7h8.7l-6.8,7.3l14.8,15.6L693.5,485.1z"/>
	<path fill="#CCCCCC" d="M984.4,144.1c0,0,12.5,0.5,14-5.4c1.5-5.9,0-16.8,0-16.8l-3.4-8.2c0,0-10.7-13.1-2.9-16.3c0,0,0.7,5,2,2.3
		c1.3-2.7,4.1-11.5,4.9-15.6c0.7-4.1,4.1-7.9,4.1-7.9s15,13.6,31.1,6c0,0,2.1,4.8,1.7,9.4s0.7,3.4-0.4,7.5c0,0,7-5.5,5.2,5.1
		c-1.1,6.7-5.2,5-5.2,5s-4.2,9.8-4.4,11.8c-0.2,1.9,0.9,21.3,1.6,22.5s16.6,10.4,19.2,9.9c0,0-5.6-16.8-5.1-25.4s6.9-46.9-0.4-58.4
		c-7.3-11.5-26.6-26.2-49.2-6.6c0,0-16.1-0.7-17.6,25.1s6.1,42.4,6.6,46.1S986.8,142.9,984.4,144.1z"/>
	<path opacity="0.5" fill="#4CBEA0" d="M954.7,178.4c0,0,6.5-23.2,35.2-30.4l-5.7,20.3l10.3-1.1l19.8,33.5l23.2-32.5l8.1,0.2
		l-7.1-20.3c0,0,23.1,11.3,26.1,13.3c3,1.9,13,11.9,12.9,29c0,0-19.6,29.2-61.2,27.6S955.2,181.5,954.7,178.4z"/>
	<path opacity="0.5" fill="#53C7DE" d="M1067.2,414h-64c0,0-2.7-26.3,22-28.6h22.3C1047.5,385.4,1068.1,386,1067.2,414z"/>
	<polygon opacity="0.2" fill="#4CBEA0" points="1049.6,495.3 1019.9,495.3 1019.9,421.7 1052.6,421.7 	"/>
	<path opacity="0.6" fill-rule="evenodd" clip-rule="evenodd" fill="#CCCCCC" d="M1017.9,429.9l-3.4,0.4c0,0-0.3-1-2-0.3
		c-1.2,0.5-7.3,2.5-11.1,3.7c-0.4-4.1-0.8-8.3-1.1-12.4c-0.1-1.7-0.7-3.1-2.1-4.1c-0.9-0.6-1.7-1.3-2.6-1.9
		c-1.3-0.9-2.6-1.8-3.9-2.7c-0.5-0.3-0.6-1.9-0.2-2.3c0.8-0.7,0.9-1.6,1.3-2.5c0.8-1.7,0.9-3.5,1-5.3c0.1-1.9-0.9-3.3-2-4.7
		c-0.7-0.9-1.7-1.4-2.8-1.7c-0.7,0-1.4,0-2.2,0c-0.6,0.2-1.4,0.2-1.8,0.5c-1.1,1.1-2.3,2.2-3.1,3.5c-0.8,1.4-1.1,3.2-0.3,4.8
		c0.3,0.7,0.5,1.4,0.6,2.1c0.1,0.6,0.2,1.1,0.6,1.6c0.5,0.6,0.5,1.1-0.1,1.5c-0.9,0.6-1.8,1.2-2.7,1.5c-2.6,1-5.2,1.9-7.8,2.8
		c-0.9,0.3-1.4,0.9-1.6,1.8c-0.7,2.5-1.3,5.1-2.2,7.5c-1.7,4.5-2.6,9-2.3,13.8c0.3,4.2,0.8,8.3,1.3,12.5c0.1,1.2,0.6,2.4,0.8,3.6
		c0.1,0.8,0.3,1.6,1.1,2c0.2,0.1,0.4,0.4,0.6,0.6c0.5,0.4,0.9,0.9,1.5,1.2c0.5,0.3,0.7,0.6,0.7,1.1c-0.1,4.9-0.4,9.8-1,14.6
		c-0.2,1.7-0.5,3.3-1.2,4.9c-0.8,1.9-1.2,3.9-1.3,5.9c-0.1,4.8,0,9.7-0.6,14.5c0,0.2,0.1,0.6,0.3,0.7c0.5,0.3,0.4,0.6,0.1,0.9
		c-0.2,0.3-0.5,0.5-0.7,0.8c-0.5,0.8-1.1-0.5-1.5,0.4c-0.5,1-0.3,1.2,0.7,1.6c0.5,0.2,1,0.3,1.5,0.4c1.1,0,2.2,0,3.3,0
		c0.8-0.1,1.6-0.4,2.4-0.4c0.6,0,0.8-0.2,0.9-0.8c0.1-1.1,0.3-0.2,0.4-1.4c0.7-0.2,0.7-0.3,0.7-1c0.1-0.9,0.3-1.8,0.4-2.7
		c0.1-0.5,0.1-1,0-1.4c-0.3-0.7-0.2-1.3,0.4-1.8c0.5-0.4,0.6-0.8,0.5-1.4c-0.1-0.9-0.2-1.8-0.2-2.6c0-0.4,0-1,0.2-1.3
		c0.7-0.8,0.6-1.8,0.7-2.8c0.4-2,0.1-4.2,1.2-6.1c0.1-0.1,0.1-0.3,0.1-0.5c0.6-3.8,1-7.5,1.7-11.3c0.5-2.6,1.2-5.2,1.7-7.8
		c0-0.2,0.1-0.3,0.1-0.5c0.1,1.2,0.2,2.3,0.1,3.4c-0.2,3.1-0.4,6.2-0.7,9.2c-0.2,2.1-0.3,4.2-0.8,6.3c-0.7,3-1.2,6-1.1,9.1
		c0,1-0.1,1.9-0.4,2.9c-0.1,0.3-0.2,0.7-0.2,1c0.1,1,0.3,2,0.3,3c0,1.6-0.1,3.3-0.1,4.9c0,0.2,0,0.5,0.1,0.5c0.6,0.4,0.4-1,0.5-0.5
		c0.1,0.7,0.2,1.3,0.2,2c0.1,0.6,0.3,0.9,1,0.9c0.7-0.1,1.4-0.2,1.9,0.6c0.1,0.1,0.3,0.1,0.5,0.1c1.9,0,3.8,0,5.7-0.1
		c0.7,0,0.9-0.3,0.8-1c-0.1-0.7-0.4-1.3-1-1.9c-0.7-0.6-1.3,0.8-1.9,0.1c-0.5-0.5-0.3-1-0.1-1.6c0.2-0.5,0.5-1,0.5-1.5
		c0-0.9-0.1-1.9-0.2-2.8c0-0.5,0-0.9,0.2-1.3c0.7-1.4,1.2-2.9,1.1-4.5c-0.1-0.7,0.1-1.4,0.3-2c0.5-1.6,0.7-3.1,0.3-4.7
		c-0.1-0.4,0.2-0.8,0.3-1.2c0.1-0.4,0.4-0.9,0.5-1.3c0.3-2.3,0.5-4.7,1-7c0.5-2.5,1.1-5,1.7-7.5c0.4-1.7,0.7-3.4,1.1-5
		c0-0.2,0.1-0.9,0.3-0.9c0.1,0,0.1-1.4,0.2-1.4l0.3-1.8l2.3-0.9l1.1-13.6c1,0.8,2.2,0.7,3,0.4c0,0,0,0,0,0l11.5-4.4l0.8-2.1
		c0,0,1.4,1.3,2.4,1.5c1,0.2,2.8-0.4,3.2-1C1020.2,435,1017.9,429.9,1017.9,429.9z"/>
</g>
<g id="Layer_4">
	<path fill="#1F407B" d="M1018.5,214.9c-42.3,0-76.7-34.4-76.7-76.7c0-23.8,10.8-45.9,29.6-60.6l2.5,3.2
		c-17.8,13.9-28.1,34.8-28.1,57.4c0,40.1,32.6,72.7,72.7,72.7s72.7-32.6,72.7-72.7c0-26.1-14.1-50.4-36.9-63.3l2-3.5
		c24,13.6,38.9,39.2,38.9,66.8C1095.2,180.5,1060.8,214.9,1018.5,214.9z"/>
	<path fill="#1F407B" d="M392,159.2c-2.3-7-3.5-14.4-3.5-21.9c0-30.7,19.6-57.5,48.8-66.9l1.2,3.8c-27.5,8.8-46,34.1-46,63
		c0,7.1,1.1,14,3.3,20.6L392,159.2z"/>
	<path fill="#1F407B" d="M458.7,207.5c-7.2,0-14.3-1.1-21.1-3.2l1.2-3.8c6.4,2,13.1,3.1,19.9,3.1c7,0,13.9-1.1,20.5-3.2l1.2,3.8
		C473.4,206.3,466.1,207.5,458.7,207.5z"/>
	<path fill="#1F407B" d="M525.7,158.1l-3.8-1.2c2-6.3,3-12.9,3-19.6c0-29.2-18.7-54.6-46.5-63.2l1.2-3.8c29.5,9.2,49.3,36.1,49.3,67
		C528.8,144.4,527.8,151.4,525.7,158.1z"/>
	<g>
		<path fill="#1F407B" d="M253.3,203.1H103.1v-13.7c0-5.1,2-14.9,6-30c2.6-9.7,2.7-17.4,2.7-17.5V95.2h62v27.1l22.9-15.1v19.5
			l28.2-19v18.8l28.4-19.6V203.1z M182.5,199.1h66.8v-84.5l-28.4,19.6v-18.9l-28.2,19v-19.6l-18.9,12.5V142c0,0.1,0.1,7.8,2.7,17.4
			c4,15.1,6,24.9,6,30V199.1z M107.1,199.1h71.4v-9.7c0-4.7-2-14.4-5.9-28.9c-2.7-10.2-2.8-18.1-2.8-18.5V99.2h-54V142
			c0,0.4-0.1,8.3-2.8,18.5c-3.9,14.5-5.9,24.3-5.9,28.9V199.1z"/>
		<rect x="113.8" y="109.9" fill="#1F407B" width="58" height="4"/>
		<path fill="#1F407B" d="M211.4,161.2h-18.2v-19.1h18.2V161.2z M197.2,157.2h10.2v-11.1h-10.2V157.2z"/>
		<path fill="#1F407B" d="M238.8,161.2h-18.2v-19.1h18.2V161.2z M224.6,157.2h10.2v-11.1h-10.2V157.2z"/>
		<path fill="#1F407B" d="M211.4,189h-18.2v-19.1h18.2V189z M197.2,185h10.2v-11.1h-10.2V185z"/>
		<polygon fill="#1F407B" points="184,161.2 174.4,161.2 174.4,157.2 180,157.2 180,146.1 172.4,146.1 172.4,142.1 184,142.1 		"/>
		<polygon fill="#1F407B" points="184,189 180.7,189 180.7,187 180,187 180,173.9 178.2,173.9 178.2,169.9 184,169.9 		"/>
		<path fill="#1F407B" d="M238.8,189h-18.2v-19.1h18.2V189z M224.6,185h10.2v-11.1h-10.2V185z"/>
		<path fill="#1F407B" d="M130.3,72.6c-4.5,0-8.2-3.7-8.2-8.2c0-4.5,3.7-8.2,8.2-8.2v4c-2.3,0-4.2,1.9-4.2,4.2
			c0,2.3,1.9,4.2,4.2,4.2V72.6z"/>
		<path fill="#1F407B" d="M127.1,89.3h-4c0-4.5,3.7-8.2,8.2-8.2h15c2.3,0,4.2-1.9,4.2-4.2c0-2.3-1.9-4.2-4.2-4.2h-26.1
			c-4.5,0-8.2-3.7-8.2-8.2c0-4.5,3.7-8.2,8.2-8.2h12.9c2.4,0,4.3-1.9,4.3-4.2h4c0,4.5-3.7,8.2-8.2,8.2h-13c-2.3,0-4.2,1.9-4.2,4.2
			c0,2.3,1.9,4.2,4.2,4.2h26.1c4.5,0,8.2,3.7,8.2,8.2c0,4.5-3.7,8.2-8.2,8.2h-15C129,85,127.1,86.9,127.1,89.3z"/>
		<path fill="#1F407B" d="M133,89.3h-4c0-4.5,3.7-8.2,8.2-8.2l0.1,4h-0.1C134.9,85,133,86.9,133,89.3z"/>
	</g>
	<g>
		<path fill="#1F407B" d="M506.8,434.4c-7.8,0-14.1-7.7-14.1-17.1h4c0,7.2,4.5,13.1,10.1,13.1c5.4,0,9.8-5.6,10.1-12.6L502.7,392
			h-87.8l-14.6,25.8c0.2,7,4.6,12.6,10.1,12.6c5.5,0,10.1-5.9,10.1-13.1h4c0,9.4-6.3,17.1-14.1,17.1c-7.8,0-14.1-7.7-14.1-17.1v-0.5
			l16.2-28.7H505l15.8,28.8v0.5C520.8,426.8,514.5,434.4,506.8,434.4z"/>
		<path fill="#1F407B" d="M434.4,434.4c-7.8,0-14.1-7.7-14.1-17.1h4c0,7.2,4.5,13.1,10.1,13.1c5.5,0,10.1-5.9,10.1-13.1h4
			C448.5,426.8,442.2,434.4,434.4,434.4z"/>
		<path fill="#1F407B" d="M458.6,434.4c-7.8,0-14.1-7.7-14.1-17.1h4c0,7.2,4.5,13.1,10.1,13.1s10.1-5.9,10.1-13.1h4
			C472.6,426.8,466.3,434.4,458.6,434.4z"/>
		<path fill="#1F407B" d="M482.7,434.4c-7.8,0-14.1-7.7-14.1-17.1h4c0,7.2,4.5,13.1,10.1,13.1c5.5,0,10.1-5.9,10.1-13.1h4
			C496.7,426.8,490.4,434.4,482.7,434.4z"/>
		<rect x="398.3" y="415.3" fill="#1F407B" width="120.6" height="4"/>
		
			<rect x="425" y="389.3" transform="matrix(0.9465 0.3227 -0.3227 0.9465 153.1351 -116.2166)" fill="#1F407B" width="4" height="28.8"/>
		
			<rect x="446" y="390" transform="matrix(0.9934 0.1145 -0.1145 0.9934 49.1062 -48.6465)" fill="#1F407B" width="4" height="26.3"/>
		
			<rect x="456.1" y="401.1" transform="matrix(0.1051 0.9945 -0.9945 0.1051 820.8036 -105.8727)" fill="#1F407B" width="26.3" height="4"/>
		
			<rect x="476.8" y="401.1" transform="matrix(0.305 0.9523 -0.9523 0.305 724.8262 -186.9951)" fill="#1F407B" width="27.5" height="4"/>
		<polygon fill="#1F407B" points="514.3,510.9 403.5,510.9 403.5,432.4 407.5,432.4 407.5,506.9 510.3,506.9 510.3,430.4 
			514.3,430.4 		"/>
		<polygon fill="#1F407B" points="447,508.9 443,508.9 443,450.9 420,450.9 420,508.9 416,508.9 416,446.9 447,446.9 		"/>
		<path fill="#1F407B" d="M500.8,486.9h-45.5v-40h45.5V486.9z M459.3,482.9h37.5v-32h-37.5V482.9z"/>
	</g>
	<g>
		<path fill="#1F407B" d="M178.7,488.6l-1.5-1.6c-1.9-2.1-47.1-50.7-47.1-76.9c0-26.8,21.8-48.5,48.5-48.5s48.5,21.8,48.5,48.5
			c0,26.2-45.1,74.8-47.1,76.9L178.7,488.6z M178.7,365.6c-24.5,0-44.5,20-44.5,44.5c0,22.1,36.7,63.9,44.5,72.6
			c7.8-8.7,44.5-50.5,44.5-72.6C223.2,385.5,203.3,365.6,178.7,365.6z"/>
		<path fill="#1F407B" d="M178.7,436.6c-14.6,0-26.5-11.9-26.5-26.5s11.9-26.5,26.5-26.5s26.5,11.9,26.5,26.5
			S193.3,436.6,178.7,436.6z M178.7,387.6c-12.4,0-22.5,10.1-22.5,22.5s10.1,22.5,22.5,22.5s22.5-10.1,22.5-22.5
			S191.1,387.6,178.7,387.6z"/>
		<polygon fill="#1F407B" points="256.2,510.1 104.5,510.1 136.8,454.1 154.4,454.1 154.4,458.1 139.1,458.1 111.4,506.1 
			248.8,506.1 217.3,458.1 203,458.1 203,454.1 219.5,454.1 		"/>
	</g>
	<path fill="#1F407B" d="M485.4,162.4h-53.9c-5.9,0-10.7-4.8-10.7-10.7v-32.6c0-5.9,4.8-10.7,10.7-10.7h53.9
		c5.9,0,10.7,4.8,10.7,10.7v32.6C496,157.6,491.2,162.4,485.4,162.4z M431.5,112.5c-3.7,0-6.7,3-6.7,6.7v32.6c0,3.7,3,6.7,6.7,6.7
		h53.9c3.7,0,6.7-3,6.7-6.7v-32.6c0-3.7-3-6.7-6.7-6.7H431.5z"/>
	<rect x="422.8" y="120.3" fill="#1F407B" width="71.2" height="4"/>
	<path fill="#1F407B" d="M455.4,145.9h-17.7v-16.1h17.7V145.9z M441.7,141.9h9.7v-8.1h-9.7V141.9z"/>
	<rect x="460.4" y="129.8" fill="#1F407B" width="18.8" height="4"/>
	<rect x="460.4" y="136.2" fill="#1F407B" width="18.8" height="4"/>
	<rect x="460.4" y="142.5" fill="#1F407B" width="18.8" height="4"/>
	<rect x="438.6" y="148.9" fill="#1F407B" width="40.6" height="4"/>
	<circle fill="#1F407B" cx="469" cy="116.5" r="2"/>
	<circle fill="#1F407B" cx="475.5" cy="116.5" r="2"/>
	<circle fill="#1F407B" cx="482" cy="116.5" r="2"/>
	<g>
		<path fill="#1F407B" d="M458.6,76.4c-6.2,0-11.2-5-11.2-11.2c0-6.2,5-11.2,11.2-11.2c6.2,0,11.2,5,11.2,11.2
			C469.8,71.4,464.7,76.4,458.6,76.4z M458.6,58.1c-4,0-7.2,3.2-7.2,7.2c0,4,3.2,7.2,7.2,7.2c4,0,7.2-3.2,7.2-7.2
			C465.8,61.3,462.5,58.1,458.6,58.1z"/>
		<path fill="#1F407B" d="M477.2,100.5h-37.3v-6.9c0-10.3,8.4-18.7,18.7-18.7c10.3,0,18.7,8.4,18.7,18.7V100.5z M443.9,96.5h29.3
			v-2.9c0-8.1-6.6-14.7-14.7-14.7c-8.1,0-14.7,6.6-14.7,14.7V96.5z"/>
	</g>
	<g>
		<path fill="#1F407B" d="M506.2,177.7c-6.2,0-11.2-5-11.2-11.2c0-6.2,5-11.2,11.2-11.2c6.2,0,11.2,5,11.2,11.2
			C517.4,172.7,512.3,177.7,506.2,177.7z M506.2,159.3c-4,0-7.2,3.2-7.2,7.2c0,4,3.2,7.2,7.2,7.2c4,0,7.2-3.2,7.2-7.2
			C513.4,162.5,510.1,159.3,506.2,159.3z"/>
		<path fill="#1F407B" d="M524.8,201.8h-37.3v-6.9c0-10.3,8.4-18.7,18.7-18.7c10.3,0,18.7,8.4,18.7,18.7V201.8z M491.5,197.8h29.3
			v-2.9c0-8.1-6.6-14.7-14.7-14.7c-8.1,0-14.7,6.6-14.7,14.7V197.8z"/>
	</g>
	<g>
		<path fill="#1F407B" d="M411.8,177.7c-6.2,0-11.2-5-11.2-11.2c0-6.2,5-11.2,11.2-11.2c6.2,0,11.2,5,11.2,11.2
			C423,172.7,418,177.7,411.8,177.7z M411.8,159.3c-4,0-7.2,3.2-7.2,7.2c0,4,3.2,7.2,7.2,7.2c4,0,7.2-3.2,7.2-7.2
			C419,162.5,415.8,159.3,411.8,159.3z"/>
		<path fill="#1F407B" d="M430.5,201.8h-37.3v-6.9c0-10.3,8.4-18.7,18.7-18.7c10.3,0,18.7,8.4,18.7,18.7V201.8z M397.2,197.8h29.3
			v-2.9c0-8.1-6.6-14.7-14.7-14.7c-8.1,0-14.7,6.6-14.7,14.7V197.8z"/>
	</g>
	<path fill="#1F407B" d="M671.3,159.4c-2.1-6.7-3.2-13.8-3.2-20.9c0-30.8,20.6-58.4,50-67.2l1.1,3.8c-27.8,8.3-47.2,34.4-47.2,63.4
		c0,6.7,1,13.3,3,19.7L671.3,159.4z"/>
	<path fill="#1F407B" d="M738.3,208.7c-6.6,0-13.2-0.9-19.5-2.7l1.1-3.8c11.5,3.3,24.1,3.4,35.6,0.3l1,3.9
		C750.7,207.9,744.5,208.7,738.3,208.7z"/>
	<path fill="#1F407B" d="M805.6,158.4l-3.8-1.1c1.8-6.1,2.7-12.4,2.7-18.7c0-28.8-18.4-54.1-45.7-62.9l1.2-3.8
		c29,9.4,48.5,36.2,48.5,66.8C808.5,145.3,807.5,152,805.6,158.4z"/>
	<g>
		<path fill="#1F407B" d="M738.2,77.7c-6.2,0-11.2-5-11.2-11.2c0-6.2,5-11.2,11.2-11.2c6.2,0,11.2,5,11.2,11.2
			C749.4,72.6,744.4,77.7,738.2,77.7z M738.2,59.3c-4,0-7.2,3.2-7.2,7.2c0,4,3.2,7.2,7.2,7.2s7.2-3.2,7.2-7.2
			C745.4,62.5,742.2,59.3,738.2,59.3z"/>
		<path fill="#1F407B" d="M756.9,101.7h-37.3v-6.9c0-10.3,8.4-18.7,18.7-18.7s18.7,8.4,18.7,18.7V101.7z M723.5,97.7h29.3v-2.9
			c0-8.1-6.6-14.7-14.7-14.7c-8.1,0-14.7,6.6-14.7,14.7V97.7z"/>
	</g>
	<g>
		<path fill="#1F407B" d="M785.8,178.9c-6.2,0-11.2-5-11.2-11.2c0-6.2,5-11.2,11.2-11.2c6.2,0,11.2,5,11.2,11.2
			C797,173.9,792,178.9,785.8,178.9z M785.8,160.5c-4,0-7.2,3.2-7.2,7.2c0,4,3.2,7.2,7.2,7.2c4,0,7.2-3.2,7.2-7.2
			C793,163.8,789.8,160.5,785.8,160.5z"/>
		<path fill="#1F407B" d="M804.5,203h-37.3v-6.9c0-10.3,8.4-18.7,18.7-18.7c10.3,0,18.7,8.4,18.7,18.7V203z M771.2,199h29.3v-2.9
			c0-8.1-6.6-14.7-14.7-14.7c-8.1,0-14.7,6.6-14.7,14.7V199z"/>
	</g>
	<g>
		<path fill="#1F407B" d="M691.5,178.9c-6.2,0-11.2-5-11.2-11.2c0-6.2,5-11.2,11.2-11.2c6.2,0,11.2,5,11.2,11.2
			C702.7,173.9,697.6,178.9,691.5,178.9z M691.5,160.5c-4,0-7.2,3.2-7.2,7.2c0,4,3.2,7.2,7.2,7.2c4,0,7.2-3.2,7.2-7.2
			C698.7,163.8,695.4,160.5,691.5,160.5z"/>
		<path fill="#1F407B" d="M710.1,203h-37.3v-6.9c0-10.3,8.4-18.7,18.7-18.7c10.3,0,18.7,8.4,18.7,18.7V203z M676.8,199h29.3v-2.9
			c0-8.1-6.6-14.7-14.7-14.7c-8.1,0-14.7,6.6-14.7,14.7V199z"/>
	</g>
	<path fill="#1F407B" d="M738.2,154.5l-2.7-2.7l-7-7l0.6-7.1c-0.9-1.5-1.5-3.6-1.8-5c-1-0.6-1.7-1.9-2.1-4c-0.5-2.6-0.4-4.3,0.2-5.4
		c-1.1-4.8-0.9-8.4,0.5-10.6c0.4-0.7,1-1.2,1.5-1.5c1.3-3.1,4.6-4.7,9.4-4.7c0.4,0,0.8,0,1.2,0l1.7,0c4.8,0,8.1,1.7,9.4,4.7
		c0.5,0.3,1.1,0.8,1.5,1.5c1.4,2.2,1.6,5.8,0.5,10.6c0.6,1.1,0.7,2.8,0.2,5.4c-0.4,2-1.1,3.4-2.1,4c-0.3,1.4-0.9,3.5-1.8,5l0.6,7.1
		L738.2,154.5z M732.6,143.2l5.6,5.6l5.6-5.6l-0.5-6.7l0.5-0.6c0.7-1,1.5-3.7,1.8-5.3l0.5-2.9l1.1,0.7c0-0.1,0.1-0.3,0.1-0.5
		c0.2-1,0.2-1.7,0.2-2.1h-1.3l0.6-2.5c1.6-6.2,0.6-8.4,0-8.8l-1.1-0.2l-0.3-1.2c-0.7-2.3-3.6-2.8-5.9-2.8l-1.7,0l-0.1,0
		c-2.4-0.1-6.1,0.1-6.9,2.7l-0.3,1.2l-1.1,0.2c-0.5,0.3-1.6,2.6,0,8.8l0.6,2.5h-1.3c0,0.4,0.1,1.1,0.2,2.1c0,0.2,0.1,0.4,0.1,0.5
		l1.1-0.7l0.5,2.9c0.3,1.6,1,4.3,1.8,5.3l0.5,0.6L732.6,143.2z"/>
	<path fill="#1F407B" d="M725,173.4c-0.2-11.2,0.7-20.5,1.5-25.9l-12,3.5l-0.3,0c-0.2,0-2.2,0.1-3.3,3l-3.8-1.4
		c1.8-4.9,5.5-5.5,6.8-5.6l11.7-3.5l6.7-6l-1.2,5.9c0,0.1-2.5,12.9-2.2,29.8L725,173.4z"/>
	<path fill="#1F407B" d="M751.7,173.4h-4c0-16.6-2.3-29.8-2.3-29.9l-1-5.7l6.6,5.8l11.7,3.5c1.3,0.1,5.1,0.7,6.8,5.6l-3.8,1.4
		c-1.1-3-3.2-3-3.3-3l-0.3,0l-12-3.6C750.7,152.9,751.7,162.3,751.7,173.4z"/>
	<path fill="#1F407B" d="M762.2,439.1c-13.3,0-19.3-13.8-20.8-22c-1.1-0.7-2.8-2.2-4.1-5.3c-1.4-3.4-1.5-5.9-0.3-7.7
		c0.3-0.5,0.7-0.8,1.1-1.1c-1.8-8-0.9-14.6,2.6-19.7c3.4-5,9.5-8.3,17-9.1c1.3-0.1,2.5-0.2,3.6-0.2c7.9,0,11.8,3.3,13.3,5.1
		c3.9,0.2,7,1.7,9.2,4.4c4.5,5.6,3.7,14.9,3.1,18.9c1,0.5,1.5,1.2,1.9,1.8c1,1.9,0.6,4.6-1.3,8.2c-1.3,2.5-3.2,4-4.3,4.8
		c-1.2,8-6.8,21.8-20.4,22.1L762.2,439.1z M740.4,406.2c0,0-0.1,0-0.1,0.1c-0.1,0.1-0.5,1,0.7,4c1.2,2.9,2.7,3.6,2.7,3.6l1.3,0.3
		l0.2,1.3c0,0.2,3.2,19.6,17,19.6l0.3,0c14.2-0.3,16.5-18.7,16.6-19.5l0.1-1.1l1-0.5c0,0,2.1-1.1,3.5-3.7c1.4-2.7,1.5-4.1,1.3-4.4
		c-0.1-0.1-0.3-0.2-0.8-0.3l-2.2-0.2l0.5-2.2c0-0.1,2.5-11.8-2-17.3c-1.6-2-3.8-2.9-6.9-2.9l-1.3,0l-0.6-1c-0.1-0.1-2.6-4-10.5-4
		c-1,0-2.1,0.1-3.2,0.2c-4.5,0.5-10.6,2.2-14.1,7.4c-3,4.4-3.6,10.6-1.6,18.2l0.7,2.7L740.4,406.2z"/>
	<path fill="#1F407B" d="M814.1,484.8c0-0.3-0.8-27-11.6-34.5c-6.5-4.5-11.7-5.3-16.7-6.1c-2.8-0.4-5.4-0.9-8-1.9
		c-0.8,7.2-3.8,25.6-13.9,33.2l-0.2,0.2l-0.2,0.1c-0.8,0.3-1.6,0.2-2.2-0.3c-10-7.7-13-26-13.8-33.2c-2.6,1-5.3,1.5-8,1.9
		c-5,0.8-10.3,1.6-16.7,6.1c-10.8,7.5-11.6,34.2-11.6,34.5l-4-0.1c0-1.2,0.8-29.1,13.3-37.7c7.2-5,13.2-5.9,18.4-6.8
		c3.5-0.6,6.5-1,9.4-2.7l2.8-1.7l0.2,3.3c0,0.2,1.5,23.2,11.4,32.3c9.9-9.1,11.4-32,11.5-32.3l0.2-3.3l2.8,1.7
		c2.8,1.7,5.9,2.2,9.4,2.7c5.2,0.8,11.2,1.8,18.4,6.8c12.5,8.6,13.3,36.5,13.3,37.7L814.1,484.8z"/>
	<path fill="#1F407B" d="M730.5,445.6h-28.9l4.2-3.5c0.1-0.1,8.2-7.1,9.3-23.5c-3.2-0.9-9.9-3.3-13.3-7.3c-3.5,3-11.5,9.1-20.2,9.5
		c1.7,7.9,5.5,18.9,9.9,20.9l8.4,3.8H666l-0.3-1.6c-0.3-1.4-6-33.9,8.5-51.7c5.8-7.1,13.9-10.8,24.3-11.1c10.3-0.2,18.4,3.1,24.2,10
		c14.5,17.5,8.5,51.3,8.2,52.8L730.5,445.6z M711.5,441.6h15.6c1-6.9,4-33.9-7.6-47.8c-4.9-5.9-11.9-8.8-21-8.6
		c-9.1,0.2-16.3,3.4-21.3,9.6c-11.6,14.2-8.8,40.1-7.9,46.8h16.1c-5.4-7.2-8-20.6-8.3-22.4l-0.5-2.6l2.6,0.2
		c10.6,0.9,21.4-9.9,21.5-10l2.2-2.2l1.1,2.9c1.5,4,10.5,6.9,13.5,7.6l1.6,0.4l-0.1,1.6C718.7,429.6,714.6,437.5,711.5,441.6z"/>
	<path fill="#1F407B" d="M693.5,485.1l-17.3-18.3l3.1-3.3h-9l9.5-9.8c-30.9,4.8-29.6,28.8-29.6,29.9l-4,0.3
		c0-0.3-1.7-31.8,38.8-34.7l5.2-0.4l-10.5,10.7h8.7l-6.8,7.3l14.8,15.6L693.5,485.1z"/>
	<path fill="#1F407B" d="M1066.2,412h-67.7l-0.2-1.8c-0.1-0.5-1.3-13.1,6.1-22.1c4.1-5,10.1-8,17.7-8.7l0.2,0h22.3
		c0.4,0,8.2,0.3,14.5,6.9c5.1,5.4,7.6,13.4,7.2,23.7L1066.2,412z M1002.1,408h60.1c-0.1-23.7-17.1-24.6-17.8-24.6l-22.1,0
		c-6.5,0.6-11.5,3.1-14.9,7.2C1002.6,396.5,1002.1,404.5,1002.1,408z"/>
	<rect x="950.2" y="499.3" fill="#1F407B" width="114" height="4"/>
	<rect x="1007.2" y="439.8" fill="#1F407B" width="4" height="61.5"/>
	<rect x="1007.2" y="410" fill="#1F407B" width="4" height="12.2"/>
	<rect x="1054.6" y="410" fill="#1F407B" width="4" height="91.3"/>
	<path fill="#1F407B" d="M1050.6,493.3h-35.7v-77.7h35.7V493.3z M1018.9,489.3h27.7v-69.7h-27.7V489.3z"/>
	<path fill="#1F407B" d="M1013.2,403.9c-0.1-0.6-2.2-15.8,11.1-24.3l2.1,3.4c-11.2,7.1-9.3,20.1-9.3,20.3L1013.2,403.9z"/>
	<path fill="#1F407B" d="M1013.8,132.5c-9.8,0-19.5-14.6-21.5-22.2c-2.2-0.8-5-3.2-5.3-8.2c-0.1-2.7,0.3-4.6,1.4-5.8
		c0.7-0.8,1.7-1.2,2.8-1.1c-0.3-2-0.4-4.1,0.3-5.4c1-1.9,3.2-7.4,3.9-11.4c0.9-4.7,4.3-8.3,5.9-9.1l0.4-0.2l0.5,0
		c0.9,0,1.5,0.5,2.9,1.6c2.8,2.3,8.7,7.1,16.9,7.1c3.4,0,6.9-0.8,10.4-2.5l0.8-0.4l0.8,0.4c0.9,0.4,2.9,2,2.8,8.1
		c-0.1,3.2,0.3,3.8,0.3,3.9c0,0,0,0,0.1,0.1c0.2,0.1,0.4,0.4,0.7,0.7c0.6,0.9,0.9,4,0.8,6.7c1.3,0,2.3,0.5,3.1,1.5
		c1.2,1.5,1.3,3.9,0.3,7.4c-0.5,1.9-2,7.6-5.9,7.6c-0.1,0-0.3,0-0.4,0C1034,117.3,1028,132.5,1013.8,132.5z M991.3,99.2
		c-0.1,0.3-0.3,1-0.2,2.7c0.2,4.2,2.7,4.8,3.2,4.8l1.5,0.2l0.3,1.5c0.9,5.5,9.8,20.1,17.8,20.1c14.2,0,18.7-20.3,18.7-20.5l0.9-4.2
		l2.6,3.4c0,0,0.1,0.1,0.1,0.1c0.2-0.2,1.2-1.1,2.1-4.6c0.7-2.5,0.5-3.5,0.4-3.8c-0.6,0-1.2,0.3-1.4,0.4l-5.5,3.2l2.7-5.8
		c0.5-1,0.4-5,0.1-6.4c-1.2-1.1-1.7-2.6-1.7-6.9c0-1.9-0.2-3-0.4-3.7c-3.5,1.4-7.1,2.2-10.6,2.2c-9.7,0-16.5-5.6-19.4-8
		c-0.1-0.1-0.2-0.1-0.3-0.2c-0.9,1-2.4,3-2.9,5.5c-0.8,4.4-3.2,10.4-4.3,12.5c-0.3,0.7,0.2,3.9,1.1,6.6l2.6,7.7l-5.9-5.6
		C992.2,99.6,991.6,99.3,991.3,99.2z"/>
	<path fill="#1F407B" d="M1015.6,156.7c-8.1,0-14.8-3-15.2-3.2l-0.8-0.4l-5.4-15.6l0.4-0.7c2.2-4.7,0.6-17.1-0.2-21.5l3.9-0.7
		c0.3,1.7,2.8,16.1,0.2,23.1l4.3,12.4c2.8,1.1,12.6,4.5,21.4,1c1.4-4.8,3.5-11.9,4.9-14.6c-0.2-2.8-1-14.1,1.1-21.8l3.9,1
		c-2.1,8-0.9,20.9-0.9,21l0.1,0.9l-0.6,0.7c-0.7,1-3.1,8.5-4.9,14.8l-0.3,0.9l-0.8,0.4C1023,156.1,1019.2,156.7,1015.6,156.7z"/>
	<path fill="#1F407B" d="M1014.6,201.4l-22.2-37.1l-12.2,1.3l8.3-23.7l8.9-9.6L1014.6,201.4z M994.6,160l9.7,16.2l-8.9-35.7L992,144
		l-5.9,16.9L994.6,160z"/>
	<path fill="#1F407B" d="M1013.9,201.8l16.4-69.5l8.9,9.7l8.3,23.7l-12.2-1.3L1013.9,201.8z M1032.5,140.5l-8.3,35.3l9-15.8l8.5,0.9
		l-5.9-16.9L1032.5,140.5z"/>
	<path fill="#1F407B" d="M1074.4,185.3c-0.5-13.5-3.9-22.1-10.4-26.5c-3.5-1.9-7.3-4-11.4-6.2c-6.3-3.4-12.9-6.9-18-9.9l2-3.5
		c5.1,3,11.6,6.5,17.9,9.9c4.1,2.2,8,4.3,11.5,6.2l0.1,0.1c7.7,5.1,11.7,14.9,12.2,29.8L1074.4,185.3z"/>
	<path fill="#1F407B" d="M955.7,175.4l-4-0.2c0.8-19.1,25.3-30.9,39.8-36.2l1.4,3.8C981.9,146.8,956.4,158,955.7,175.4z"/>
	<path fill="#1F407B" d="M1050,150.8c-6.7-12.7-7-29.2-5.1-40.4c4.4-25.8,2.5-43.9-5.5-50.9c-22.8-20.3-40.9-1-41.6-0.2l-0.6,0.6
		l-0.8,0c-4.6,0.2-8.1,2-10.6,5.4c-10.5,13.9-2.1,50.6,0.6,62.6c0.3,1.4,0.6,2.6,0.8,3.4c2.3,11.3-5,15.9-5.4,16.1l-2-3.4l1,1.7
		l-1-1.7c0.2-0.1,5.2-3.4,3.5-11.8c-0.2-0.8-0.4-1.9-0.7-3.3c-3.2-13.8-11.6-50.5,0.1-65.9c3.1-4.1,7.4-6.5,12.8-6.9
		c3.6-3.5,23.3-20.4,46.6,0.5c9.2,8.2,11.5,27,6.8,54.6c-1.7,10.1-1.5,26,4.7,37.9L1050,150.8z"/>
	<path fill="#1F407B" d="M1051.2,403.9l-4-0.6c0.1-0.5,1.8-13.3-9.3-20.3l2.1-3.4C1053.4,388.1,1051.3,403.3,1051.2,403.9z"/>
	<rect x="1031.4" y="381.4" fill="#1F407B" width="4" height="21.6"/>
	<path fill="#1F407B" d="M968.9,503.3h-3.8l-0.7-0.2c-0.4-0.1-0.8-0.2-1.2-0.3c-0.5-0.2-1.6-0.5-2.1-1.7c-0.5-1.1,0-2.2,0.2-2.6
		c0.4-0.8,0.9-1.5,1.3-2.2l0.3-0.4c0-0.1,0.1-0.1,0.1-0.2c-0.2-0.4-0.3-0.9-0.2-1.4c0.5-3.4,0.5-7,0.6-10.5c0-1.3,0-2.5,0.1-3.8
		c0.1-2.4,0.5-4.7,1.4-6.7c0.6-1.3,0.8-2.8,1-4.4c0.6-4.3,0.9-8.9,1-13.9c-0.5-0.3-0.8-0.6-1.1-0.9c-0.1-0.1-0.2-0.2-0.3-0.3
		c-0.2-0.1-0.3-0.3-0.4-0.4c-1.5-1-1.8-2.5-1.9-3.3c-0.1-0.5-0.2-0.9-0.3-1.5c-0.2-0.7-0.4-1.4-0.5-2.2l-0.2-1.6
		c-0.4-3.6-0.9-7.3-1.1-10.9c-0.3-4.7,0.5-9.5,2.4-14.6c0.7-1.8,1.2-3.7,1.7-5.6c0.1-0.6,0.3-1.1,0.4-1.7c0.4-1.6,1.4-2.7,2.9-3.2
		l0.9-0.3c2.3-0.8,4.6-1.6,6.8-2.5c0.5-0.2,1-0.5,1.5-0.8c-0.3-0.6-0.4-1.2-0.5-1.7c-0.1-0.5-0.2-1-0.5-1.6
		c-0.9-2.2-0.8-4.5,0.5-6.6c0.9-1.6,2.2-2.8,3.4-3.9c0.8-0.7,1.7-0.9,2.3-1c0.1,0,0.3,0,0.4-0.1l0.3-0.1h2.7l0.2,0.1
		c1.7,0.4,3,1.2,3.9,2.4c1,1.3,2.6,3.2,2.4,6c-0.1,1.8-0.2,3.9-1.2,6.1c-0.1,0.2-0.2,0.4-0.2,0.6c-0.2,0.6-0.5,1.3-1.1,2
		c0.7,0.5,1.3,0.9,2,1.4c0.5,0.3,1,0.7,1.4,1c0.4,0.3,0.8,0.6,1.3,0.9c0.5,0.3,0.9,0.7,1.4,1c1.8,1.3,2.8,3.1,3,5.6
		c0.3,3.3,0.6,6.6,0.9,9.9c6.7-2.1,8.2-2.7,8.6-2.8c1.4-0.6,2.7-0.5,3.5,0l3.9-0.5l0.6,1.4c2.7,6.1,2.2,6.8,1.7,7.6
		c-0.9,1.4-3.2,2-4.5,2l0,0c-0.2,0-0.5,0-0.7,0c-0.4-0.1-0.8-0.2-1.2-0.4l-0.2,0.5l-11,4.2v0.1l-1.4,0.4c-0.6,0.2-1.2,0.3-1.8,0.3
		c0,0,0,0,0,0l-1,12.4l-2.4,0.9l-0.2,1.3c0,0,0,0,0,0c0,0.3-0.1,0.6-0.2,1l-0.2,1.5l-0.1-0.1c-0.2,0.9-0.4,1.9-0.6,2.8l-0.4,1.6
		c-0.2,0.8-0.4,1.6-0.5,2.3c-0.4,1.7-0.8,3.4-1.1,5.1c-0.3,1.4-0.4,2.8-0.6,4.2c-0.1,0.9-0.2,1.8-0.3,2.7c-0.1,0.5-0.3,1-0.4,1.3
		c0,0.1-0.1,0.2-0.1,0.3c0,0.1-0.1,0.3-0.2,0.4c0,0,0,0,0,0.1c0.3,1.7,0.2,3.4-0.4,5.4c-0.1,0.2-0.3,0.9-0.2,1.2
		c0.2,2.1-0.5,3.9-1.2,5.6c0,0-0.1,0.2,0,0.5c0,0.3,0,0.7,0.1,1c0.1,0.6,0.1,1.2,0.1,1.9c0,0.8-0.3,1.4-0.5,1.9c0,0,0,0.1-0.1,0.1
		c0.4,0.4,0.9,0.9,1.4,1.4c0.9,0.9,1.5,1.9,1.6,3.1c0.1,0.9-0.1,1.7-0.6,2.3c-0.4,0.4-1,0.9-2.1,0.9c-1.8,0-3.5,0.1-5.3,0.1l-0.4,0
		h0c-0.8,0-1.5-0.3-1.9-0.7c0,0-0.1,0-0.1,0l-0.1,0c-0.1,0-0.3,0-0.4,0c-1.5,0-2.7-1-2.8-2.7c-0.1-0.5-0.1-1-0.2-1.5l-0.1-0.5
		c0-0.1,0-0.3,0-0.4c-0.6-0.7-0.6-1.6-0.6-1.9c0,0.1,0,0.3-0.1,0.4c-0.1,0.9-0.3,1.6-0.9,2.1c-0.1,0.8-0.2,1.5-0.3,2.3
		c-0.2,1.5-1.2,2.5-2.7,2.6c-0.4,0-0.9,0.1-1.4,0.2c-0.3,0.1-0.5,0.1-0.8,0.2L968.9,503.3z M965.7,499.3h2.9c0.2,0,0.3-0.1,0.5-0.1
		c0.3-0.1,0.7-0.1,1.1-0.2c0.1-0.5,0.1-1,0.2-1.5l0.3-2.3l0.6-0.2c0-0.3,0.1-0.7,0.2-1c0.1-0.4,0.1-0.8,0.2-1.2l0-0.1
		c0-0.1,0-0.3,0-0.4c-0.6-1.4-0.2-2.8,0.9-3.8c-0.1-0.8-0.1-1.7-0.2-2.7c0-0.7,0-1.8,0.7-2.6c0.1-0.1,0.1-0.4,0.2-0.9
		c0-0.3,0.1-0.6,0.1-1c0.1-0.6,0.2-1.2,0.2-1.8c0.1-1.4,0.2-3,1-4.6l0,0c0.2-1.2,0.3-2.3,0.5-3.5c0.4-2.6,0.7-5.2,1.2-7.9
		c0.3-1.9,0.8-3.7,1.2-5.5c0.2-0.8,0.4-1.6,0.6-2.3c0-0.2,0.1-0.4,0.2-0.5l3-9.3l1,9.6c0.1,1.5,0.2,2.7,0.1,3.8
		c-0.1,2-0.3,4.1-0.4,6.1c-0.1,1-0.2,2.1-0.2,3.1c-0.2,2.1-0.3,4.4-0.9,6.6c-0.8,3.1-1.1,5.9-1.1,8.6c0,1.4-0.2,2.5-0.6,3.6
		c0,0.1,0,0.2,0,0.2c0,0.4,0.1,0.7,0.1,1.1c0.1,0.6,0.2,1.3,0.2,2c0,1.1,0,2.3-0.1,3.3c0,0.4,0,0.8,0,1.3c0.5,0.7,0.5,1.5,0.6,1.9
		c0,0.1,0,0.1,0,0.2l0.1,0.5c0,0.2,0,0.4,0.1,0.5c0.9,0,1.6,0.3,2.1,0.7c1,0,2,0,3,0c-0.5-0.5-1-1-1.4-1.4c-0.6-0.7-1.3-1.9-0.5-3.7
		c0.1-0.2,0.1-0.3,0.2-0.5c0.1-0.1,0.1-0.3,0.2-0.4c0-0.4,0-0.8-0.1-1.3c0-0.4-0.1-0.9-0.1-1.3c0-0.8,0.1-1.6,0.4-2.2
		c0.6-1.3,1-2.4,0.9-3.5c-0.1-1,0.1-2,0.4-2.8c0.4-1.4,0.5-2.6,0.3-3.7c-0.2-0.9,0.1-1.6,0.3-2c0-0.1,0.1-0.1,0.1-0.2
		c0.1-0.2,0.2-0.4,0.2-0.7c0.1-0.1,0.1-0.3,0.1-0.4c0.1-0.8,0.2-1.7,0.3-2.6c0.2-1.5,0.4-3,0.6-4.5c0.3-1.8,0.8-3.6,1.2-5.3
		c0.2-0.8,0.4-1.5,0.5-2.3l0.4-1.6c0.3-1.1,0.5-2.3,0.8-3.4l0-0.1c0-0.3,0.1-0.7,0.3-1.1c0,0,0-0.1,0-0.1c0-0.2,0-0.5,0.1-0.9h0
		l0.5-3l2.2-0.8l1.3-16.1l3,2.4c0.1,0.1,0.5,0.2,1,0.1l0.1,0l10.7-4.1l1.3-3.3l-0.1-0.4c-1.3,0.5-5,1.7-11,3.6l-2.4,0.8l-0.3-3.5
		c-0.3-3.7-0.7-7.6-1-11.4c-0.1-1.5-0.6-2.2-1.3-2.7c-0.5-0.3-1-0.7-1.4-1c-0.4-0.3-0.8-0.6-1.2-0.9c-0.5-0.3-0.9-0.6-1.4-1
		c-0.9-0.6-1.7-1.2-2.6-1.8c-1.1-0.8-1.3-2.3-1.3-2.9c0-1.1,0.3-2,1-2.5c0.1-0.1,0.2-0.4,0.4-0.8c0.1-0.3,0.2-0.6,0.4-0.9
		c0.6-1.3,0.7-2.7,0.8-4.5c0.1-1.1-0.5-1.9-1.6-3.3c-0.3-0.4-0.8-0.7-1.5-0.9h-1.7c-0.2,0-0.3,0.1-0.5,0.1c-0.1,0-0.2,0-0.3,0.1
		c-1,1-2,1.9-2.6,2.9c-0.4,0.7-0.8,1.8-0.2,3.1c0.4,0.9,0.7,1.8,0.8,2.6c0,0.3,0.1,0.5,0.1,0.5c0.8,0.9,0.9,1.8,0.9,2.4
		c-0.1,0.6-0.4,1.4-1.3,2.1c-0.9,0.6-1.9,1.3-3.1,1.8c-2.3,0.9-4.7,1.7-7,2.5l-0.9,0.3c-0.2,0.1-0.2,0.1-0.3,0.5
		c-0.1,0.5-0.3,1.1-0.4,1.6c-0.5,2-1.1,4-1.8,6c-1.7,4.5-2.4,8.8-2.1,12.9c0.2,3.6,0.7,7.2,1.1,10.7l0.2,1.7
		c0.1,0.5,0.2,1.1,0.4,1.6c0.2,0.6,0.3,1.2,0.4,1.9c0,0.1,0.1,0.5,0.1,0.6c0.5,0.3,0.7,0.6,0.9,0.8c0.1,0.1,0.3,0.3,0.4,0.4
		c0.2,0.2,0.5,0.4,0.6,0.5c1.2,0.6,1.8,1.6,1.8,3c-0.1,5.4-0.4,10.2-1,14.8c-0.3,1.8-0.5,3.6-1.3,5.5c-0.7,1.5-1,3.3-1.1,5.2
		c0,1.3,0,2.5-0.1,3.7c0,3.3-0.1,6.8-0.5,10.2c0.3,0.4,0.5,0.8,0.6,1.2c0.1,0.5,0.1,1.3-0.6,2.1c-0.2,0.2-0.3,0.4-0.5,0.6
		c-0.1,0-0.1,0.1-0.2,0.2l-0.3,0.4c-0.2,0.3-0.3,0.5-0.5,0.8L965.7,499.3z M1011.2,428.4l1.4,1.3c0.4,0.4,1.1,0.9,1.4,1
		c0.2,0,0.4,0,0.7-0.1c-0.2-0.7-0.6-1.6-0.9-2.5L1011.2,428.4z"/>
</g>
</svg>
