<svg width="213" height="432" viewBox="0 0 213 432" xmlns="http://www.w3.org/2000/svg" xmlns:xlink="http://www.w3.org/1999/xlink"><defs><path d="M.138.042h200.547v13.566c0 11.046-8.955 20-20 20H20.138c-11.046 0-20-8.954-20-20V.042z" id="a"/></defs><g fill="none" fill-rule="evenodd"><path d="M37.424 13.024C24.184 13.024 13.45 23.759 13.45 37v358.694c.016 13.235 10.74 23.96 23.974 23.976h138.728c13.24 0 23.974-10.734 23.974-23.976V37a23.977 23.977 0 0 0-23.974-23.976H37.424z" fill="#F6F5F6" fill-rule="nonzero"/><path d="M189.84 84.416H18.476v27.715a3 3 0 0 0 3.004 2.997h168.36a3 3 0 0 0 3.004-2.997V87.413a3 3 0 0 0-3.004-2.997h0z" stroke="#999" stroke-width=".75" fill="#FFF" fill-rule="nonzero"/><path d="M19.034 75.563l2.313-5.994h.859l2.463 5.994h-.907l-.703-1.799h-2.517l-.661 1.799h-.847zm1.736-2.47h2.043l-.601-1.66a14.868 14.868 0 0 1-.427-1.247 8.25 8.25 0 0 1-.324 1.15l-.691 1.757zm7.27 2.47v-.552a1.359 1.359 0 0 1-1.202.647 1.763 1.763 0 0 1-.961-.281 1.955 1.955 0 0 1-.68-.803 2.817 2.817 0 0 1-.24-1.2c-.006-.41.07-.817.223-1.198.124-.333.351-.619.649-.815a1.74 1.74 0 0 1 .973-.282c.244-.005.486.05.703.162.196.107.368.254.505.432V69.52h.733v5.994l-.703.048zm-2.338-2.17c-.033.444.093.886.355 1.247a1.052 1.052 0 0 0 1.658 0c.248-.349.367-.773.337-1.2a2.07 2.07 0 0 0-.343-1.312 1.082 1.082 0 0 0-.853-.42 1.034 1.034 0 0 0-.841.402c-.248.38-.358.832-.313 1.283zm7.018 2.17v-.552a1.37 1.37 0 0 1-1.202.647 1.75 1.75 0 0 1-.955-.281 1.901 1.901 0 0 1-.679-.803 2.728 2.728 0 0 1-.24-1.2c-.009-.41.065-.817.216-1.198a1.715 1.715 0 0 1 1.628-1.097c.244-.005.486.05.703.162.196.106.366.253.499.432V69.52h.739v5.994l-.71.048zm-2.337-2.17c-.035.443.088.885.348 1.247.201.257.508.409.835.413.321.002.625-.144.823-.396a1.79 1.79 0 0 0 .343-1.198 2.064 2.064 0 0 0-.349-1.313 1.064 1.064 0 0 0-.847-.42 1.028 1.028 0 0 0-.823.402c-.25.372-.366.818-.33 1.265zm7.997 2.17v-5.299h-1.99v-.707h4.777v.707h-1.995v5.299zm3.202-5.161v-.845h1.157v.845h-1.157zm0 5.16v-4.351h1.157v4.352h-1.157zm3.478-.659l.108.654a2.92 2.92 0 0 1-.558.066 1.204 1.204 0 0 1-.601-.132.69.69 0 0 1-.313-.33 2.667 2.667 0 0 1-.09-.875v-2.5h-.546v-.599h.546v-1.079l.733-.443v1.522h.745v.6h-.745v2.54a1.4 1.4 0 0 0 .036.408c.03.06.075.11.132.144.078.041.165.06.253.054.1-.004.2-.014.3-.03zm.703.66v-5.994h.74v5.994zm4.885-1.403l.763.096a1.87 1.87 0 0 1-.667 1.037 2.022 2.022 0 0 1-1.25.365 1.997 1.997 0 0 1-1.52-.599 2.292 2.292 0 0 1-.559-1.648c-.04-.62.163-1.23.565-1.703.38-.403.917-.622 1.472-.599a1.877 1.877 0 0 1 1.43.6 2.34 2.34 0 0 1 .553 1.672v.192h-3.257c0 .404.145.795.409 1.102a1.2 1.2 0 0 0 .913.378c.247.006.49-.067.691-.21.215-.179.374-.416.457-.683zm-2.404-1.199h2.404a1.46 1.46 0 0 0-.277-.821 1.125 1.125 0 0 0-.919-.426 1.167 1.167 0 0 0-.853.342 1.311 1.311 0 0 0-.39.911l.035-.006zm3.791-2.301l.193-.6c.327.105.644.237.949.396a11.507 11.507 0 0 1-.084-1.02h.6c-.014.34-.046.678-.095 1.014.315-.152.64-.282.973-.39l.186.6c-.332.11-.674.187-1.021.227.255.238.49.497.703.774l-.493.347c-.156-.216-.342-.51-.559-.88a6.524 6.524 0 0 1-.534.88l-.487-.347a8.44 8.44 0 0 1 .685-.75c-.36-.09-.697-.168-1.016-.251zm-31.301 62.936l-1.598-5.994h.817l.913 3.938c.102.413.186.82.258 1.228.15-.64.24-1.013.27-1.108l1.142-4.058h.962l.865 3.039c.204.698.36 1.408.468 2.127.078-.377.175-.815.3-1.306l.944-3.86h.799l-1.646 5.994h-.77l-1.273-4.544c-.102-.383-.168-.6-.186-.707-.06.276-.12.51-.174.707l-1.28 4.574-.811-.03zm6.789 0v-5.994h.739v2.157c.322-.389.804-.61 1.31-.599a1.8 1.8 0 0 1 .84.192c.227.111.408.298.511.527.12.31.172.64.157.971v2.758h-.74v-2.758a1.155 1.155 0 0 0-.24-.803.902.902 0 0 0-.679-.252c-.211.003-.418.06-.6.168a.96.96 0 0 0-.415.462c-.094.257-.137.53-.126.803v2.398l-.757-.03zm4.404-2.146c-.057-.67.19-1.33.673-1.798a2.04 2.04 0 0 1 1.375-.486 1.96 1.96 0 0 1 1.466.6 2.21 2.21 0 0 1 .571 1.624c.021.455-.065.909-.252 1.324a1.752 1.752 0 0 1-.733.714 2.13 2.13 0 0 1-1.052.27 1.973 1.973 0 0 1-1.484-.6 2.352 2.352 0 0 1-.564-1.648zm.763 0c-.035.447.093.892.36 1.253.231.269.57.423.925.42.352 0 .685-.154.914-.42.272-.368.402-.822.366-1.277a1.795 1.795 0 0 0-.366-1.199 1.203 1.203 0 0 0-1.839 0 1.848 1.848 0 0 0-.36 1.223zm4.14-3.063v-.857h.792v.677c.018.27-.025.54-.126.791-.122.224-.317.4-.553.498l-.18-.294a.6.6 0 0 0 .33-.282c.081-.166.122-.348.12-.533h-.384zm1.471 3.913l.733-.119c.024.26.147.503.343.677.226.168.505.25.787.234.268.017.535-.057.757-.21a.599.599 0 0 0 .246-.485.443.443 0 0 0-.222-.396 3.141 3.141 0 0 0-.751-.246 7.384 7.384 0 0 1-1.13-.353 1.073 1.073 0 0 1-.637-1.001 1.119 1.119 0 0 1 .133-.54c.088-.16.211-.3.36-.407.143-.102.304-.176.475-.216a2.18 2.18 0 0 1 .637-.09 2.45 2.45 0 0 1 .9.15c.226.073.424.21.571.396.139.202.227.434.259.677l-.727.096a.767.767 0 0 0-.283-.522 1.041 1.041 0 0 0-.666-.191 1.204 1.204 0 0 0-.727.167.497.497 0 0 0-.217.396c0 .094.032.185.09.258.075.09.173.158.283.197.072 0 .288.09.649.186.373.09.74.204 1.1.342.195.081.364.216.486.39a1.1 1.1 0 0 1 .174.629c0 .248-.076.49-.216.695a1.405 1.405 0 0 1-.601.504 2.294 2.294 0 0 1-.925.18 2.046 2.046 0 0 1-1.292-.354 1.623 1.623 0 0 1-.589-1.043zm6.843-3.847v-.851h1.158v.85h-1.158zm0 5.155v-4.352h1.158v4.352h-1.158zm1.863-.012v-4.352h.667v.6c.3-.47.83-.745 1.388-.72a1.9 1.9 0 0 1 .726.138 1.2 1.2 0 0 1 .493.372c.113.164.191.35.228.545.036.238.05.479.042.72v2.673h-.738v-2.644a2.117 2.117 0 0 0-.085-.677.732.732 0 0 0-.306-.354.963.963 0 0 0-.517-.132c-.3-.007-.59.098-.817.294a1.49 1.49 0 0 0-.342 1.139v2.398h-.74zm8.633-.66l.102.654c-.183.04-.37.062-.558.066a1.294 1.294 0 0 1-.601-.126.72.72 0 0 1-.307-.336 2.572 2.572 0 0 1-.096-.87v-2.505h-.54v-.599h.54v-1.073l.74-.443v1.516h.744v.6h-.745v2.547c-.008.135.004.27.036.401.03.06.075.11.133.144.077.042.164.06.252.054.1-.004.2-.014.3-.03zm.721.66v-5.994h.74v2.157c.318-.388.8-.61 1.303-.599.292-.007.581.06.841.192.227.113.409.299.517.527.116.31.168.64.15.971v2.758h-.74v-2.758a1.125 1.125 0 0 0-.24-.803.896.896 0 0 0-.678-.252c-.212.003-.42.06-.601.168a.99.99 0 0 0-.415.462c-.089.258-.13.53-.12.803v2.398l-.757-.03zm4.68-5.143v-.851H62.2v.85h-1.158zm0 5.155v-4.352H62.2v4.352h-1.158zm1.569-1.308l.732-.119c.025.26.147.503.343.677.227.168.505.25.787.234a1.2 1.2 0 0 0 .757-.21.599.599 0 0 0 .246-.485.45.45 0 0 0-.216-.396 3.34 3.34 0 0 0-.757-.246 7.625 7.625 0 0 1-1.13-.353 1.073 1.073 0 0 1-.636-1.001 1.119 1.119 0 0 1 .132-.54 1.2 1.2 0 0 1 .366-.407c.14-.102.3-.176.469-.216a2.18 2.18 0 0 1 .637-.09 2.45 2.45 0 0 1 .901.15c.235.07.444.207.6.396.134.204.22.435.253.677l-.72.096a.797.797 0 0 0-.29-.522 1.041 1.041 0 0 0-.666-.191 1.204 1.204 0 0 0-.727.167.497.497 0 0 0-.216.396c0 .094.03.185.09.258a.697.697 0 0 0 .282.197c.072 0 .295.09.655.186.372.09.737.205 1.093.342.196.081.365.216.487.39.12.187.182.406.174.629 0 .248-.075.49-.216.695a1.405 1.405 0 0 1-.6.504 2.254 2.254 0 0 1-.92.18 2.052 2.052 0 0 1-1.298-.354 1.654 1.654 0 0 1-.612-1.043zm6.837 2.968v-6.024h.678v.57c.138-.205.321-.375.535-.498a1.45 1.45 0 0 1 .727-.168c.35-.007.694.094.985.288.292.2.517.482.65.809a3.122 3.122 0 0 1 0 2.344 1.8 1.8 0 0 1-.698.82 1.805 1.805 0 0 1-.967.288 1.43 1.43 0 0 1-1.142-.551v2.122h-.768zm.672-3.824c-.035.443.086.884.343 1.247.198.253.501.4.823.401a1.08 1.08 0 0 0 .847-.42c.263-.376.386-.831.349-1.288a1.933 1.933 0 0 0-.343-1.247 1.034 1.034 0 0 0-.817-.413 1.075 1.075 0 0 0-.841.443 1.975 1.975 0 0 0-.36 1.283v-.006zm4.008 2.152v-5.994h.739v2.157c.321-.389.804-.61 1.31-.599a1.8 1.8 0 0 1 .84.192c.226.113.406.3.511.527.12.31.172.64.157.971v2.758h-.74v-2.758a1.125 1.125 0 0 0-.24-.803.884.884 0 0 0-.679-.252c-.211.003-.418.06-.6.168a.948.948 0 0 0-.409.462c-.094.257-.137.53-.126.803v2.398l-.763-.03zm4.403-2.146a2.22 2.22 0 0 1 .674-1.798c.38-.326.868-.499 1.37-.486a1.967 1.967 0 0 1 1.471.6c.41.439.627 1.024.601 1.624.021.455-.065.909-.252 1.324a1.8 1.8 0 0 1-.733.744c-.323.18-.688.273-1.058.27a1.973 1.973 0 0 1-1.478-.6 2.328 2.328 0 0 1-.594-1.678zm.758 0c-.033.448.097.892.366 1.253a1.203 1.203 0 0 0 1.839 0c.27-.37.4-.822.366-1.277a1.795 1.795 0 0 0-.372-1.199 1.16 1.16 0 0 0-.914-.414 1.203 1.203 0 0 0-.919.414 1.85 1.85 0 0 0-.366 1.223zm5.809 1.486l.109.654a2.92 2.92 0 0 1-.56.066 1.264 1.264 0 0 1-.6-.126.702.702 0 0 1-.312-.336 2.625 2.625 0 0 1-.09-.87v-2.505h-.553v-.599h.54v-1.073l.733-.443v1.516h.745v.6h-.757v2.547c-.01.135.004.271.042.401.025.061.07.112.127.144.077.04.165.059.252.054.109-.003.217-.013.324-.03zm.445-1.486a2.227 2.227 0 0 1 .679-1.798c.38-.327.868-.5 1.37-.486a1.973 1.973 0 0 1 1.472.6c.399.444.604 1.028.57 1.624.021.455-.065.909-.252 1.324a1.764 1.764 0 0 1-.739.744 2.11 2.11 0 0 1-1.051.27 1.973 1.973 0 0 1-1.484-.6 2.352 2.352 0 0 1-.565-1.678zm.763 0c-.015.433.123.857.39 1.199a1.203 1.203 0 0 0 1.803 0c.272-.368.402-.821.366-1.277a1.795 1.795 0 0 0-.366-1.199 1.203 1.203 0 0 0-1.802 0c-.29.36-.43.817-.391 1.277zm9.402 1.612a2.921 2.921 0 0 1-.793.492 2.276 2.276 0 0 1-.817.143 1.6 1.6 0 0 1-1.105-.353 1.197 1.197 0 0 1-.385-.893 1.197 1.197 0 0 1 .145-.6c.095-.166.226-.31.384-.42a1.9 1.9 0 0 1 .535-.245c.216-.048.434-.084.655-.108a7.08 7.08 0 0 0 1.315-.252v-.197a.826.826 0 0 0-.21-.636 1.258 1.258 0 0 0-.841-.245 1.312 1.312 0 0 0-.769.18 1.084 1.084 0 0 0-.366.647l-.727-.102c.05-.27.16-.524.324-.743.172-.205.4-.357.655-.438.318-.112.654-.165.991-.156.308-.01.615.034.907.132.197.062.374.176.511.33.118.146.198.319.234.503.03.225.043.451.036.677v.983a9.43 9.43 0 0 0 .048 1.301c.03.184.093.36.187.522h-.793a1.424 1.424 0 0 1-.12-.522zm-.066-1.648c-.388.14-.791.232-1.201.276a3.094 3.094 0 0 0-.643.15.6.6 0 0 0-.288.24.64.64 0 0 0 .12.845c.188.139.42.206.655.191.264.006.525-.058.757-.186a1.2 1.2 0 0 0 .492-.51c.09-.234.128-.485.114-.736l-.006-.27zm1.869 2.182v-4.352h.667v.6c.302-.469.83-.743 1.388-.72.249-.002.496.045.727.138.195.077.365.205.492.372.115.163.195.35.235.545.03.239.041.479.036.72v2.673h-.74v-2.644a1.956 1.956 0 0 0-.083-.677.732.732 0 0 0-.307-.354.963.963 0 0 0-.517-.132 1.203 1.203 0 0 0-.81.294 1.49 1.49 0 0 0-.343 1.139v2.398h-.745zm7.51 0v-.546a1.359 1.359 0 0 1-1.202.647 1.721 1.721 0 0 1-.961-.287 1.89 1.89 0 0 1-.673-.803 2.728 2.728 0 0 1-.24-1.2 3.11 3.11 0 0 1 .216-1.198c.128-.333.357-.618.655-.815.29-.187.628-.285.973-.282a1.48 1.48 0 0 1 1.202.6v-2.158h.733v5.994l-.703.048zm-2.337-2.146c-.033.444.092.886.354 1.247a1.046 1.046 0 0 0 1.658 0c.247-.35.366-.773.337-1.2a2.07 2.07 0 0 0-.343-1.312 1.076 1.076 0 0 0-.853-.414 1.028 1.028 0 0 0-.823.402 1.957 1.957 0 0 0-.33 1.277zm7.33 2.146l-1.34-4.352h.769l.69 2.511.259.936c0-.048.09-.342.228-.894l.691-2.553h.763l.655 2.523.216.834.247-.84.75-2.517h.716l-1.358 4.352h-.77l-.696-2.602-.168-.743-.883 3.345h-.77zm5.269 0v-5.994h.738v2.157c.32-.388.8-.61 1.304-.599.292-.007.581.06.841.192.227.111.407.298.511.527.119.31.172.64.156.971v2.758h-.739v-2.758a1.125 1.125 0 0 0-.24-.803.896.896 0 0 0-.679-.252c-.212.003-.419.06-.6.168a.99.99 0 0 0-.415.462c-.09.258-.13.53-.12.803v2.398l-.757-.03zm7.522-.534a2.753 2.753 0 0 1-.794.492 2.242 2.242 0 0 1-.81.143c-.4.026-.796-.1-1.106-.353a1.15 1.15 0 0 1-.385-.893c-.006-.402.19-.78.523-1.007.165-.108.345-.191.535-.246.216-.048.435-.084.655-.108.447-.038.89-.118 1.321-.24v-.197a.826.826 0 0 0-.204-.636 1.288 1.288 0 0 0-.847-.246 1.336 1.336 0 0 0-.769.18 1.114 1.114 0 0 0-.366.648l-.721-.102c.05-.27.16-.524.324-.743a1.39 1.39 0 0 1 .655-.438c.316-.111.65-.164.985-.156.308-.011.615.034.907.132.199.062.377.176.517.33.116.146.194.32.228.503.03.225.043.451.036.677v.983c-.01.435.006.869.048 1.301.033.183.096.36.187.522h-.77a1.544 1.544 0 0 1-.15-.546zm-.06-1.648a5.34 5.34 0 0 1-1.202.276c-.22.025-.435.075-.643.15a.6.6 0 0 0-.294.24.652.652 0 0 0-.103.347.635.635 0 0 0 .223.497.99.99 0 0 0 .655.192c.266.006.53-.058.763-.186a1.14 1.14 0 0 0 .486-.51c.092-.234.133-.485.12-.736l-.006-.27zm3.508 1.522l.102.654c-.183.04-.37.062-.559.066a1.294 1.294 0 0 1-.6-.126.72.72 0 0 1-.307-.336 2.625 2.625 0 0 1-.09-.87v-2.505h-.547v-.599h.547v-1.073l.733-.443v1.516h.745v.6h-.769v2.547c-.008.135.004.27.036.401a.34.34 0 0 0 .132.144c.078.042.165.06.253.054.108-.003.217-.013.324-.03zm.697-4.549v-.857h.793v.677c.018.27-.025.54-.126.791a1.11 1.11 0 0 1-.547.498l-.186-.294a.6.6 0 0 0 .33-.282 1.16 1.16 0 0 0 .127-.533h-.391zm1.441 3.913l.734-.119c.024.26.147.503.342.677.227.168.506.25.787.234.27.021.538-.053.757-.21a.599.599 0 0 0 .247-.485.45.45 0 0 0-.217-.396 3.34 3.34 0 0 0-.757-.246 7.625 7.625 0 0 1-1.13-.353 1.073 1.073 0 0 1-.636-1.001 1.119 1.119 0 0 1 .132-.54 1.2 1.2 0 0 1 .367-.407c.14-.102.3-.176.468-.216a2.18 2.18 0 0 1 .637-.09 2.45 2.45 0 0 1 .901.15c.236.07.445.207.601.396.134.204.22.435.253.677l-.721.096a.797.797 0 0 0-.289-.522 1.041 1.041 0 0 0-.667-.191 1.204 1.204 0 0 0-.727.167.497.497 0 0 0-.216.396.41.41 0 0 0 .09.258.697.697 0 0 0 .283.197c.072 0 .294.09.654.186.372.09.738.204 1.094.342.196.081.365.216.487.39.123.186.184.406.174.629 0 .248-.076.49-.217.695a1.369 1.369 0 0 1-.6.504 2.25 2.25 0 0 1-.92.18c-.46.03-.917-.095-1.297-.354a1.654 1.654 0 0 1-.613-1.043zm6.844-3.847v-.851h1.158v.85h-1.158zm0 5.155v-4.352h1.158v4.352h-1.158zm3.479-.672l.108.654a2.92 2.92 0 0 1-.559.066 1.282 1.282 0 0 1-.6-.126.732.732 0 0 1-.313-.336 2.625 2.625 0 0 1-.09-.87v-2.505h-.541v-.599h.54v-1.073l.74-.443v1.516h.739v.6h-.74v2.547c-.007.135.005.27.037.401a.29.29 0 0 0 .126.144c.078.04.165.059.252.054.1-.004.201-.014.3-.03zm5.905.126a2.832 2.832 0 0 1-.787.492 2.294 2.294 0 0 1-.817.143c-.4.026-.795-.1-1.105-.353a1.15 1.15 0 0 1-.385-.893 1.197 1.197 0 0 1 .145-.6 1.23 1.23 0 0 1 .384-.42c.162-.108.34-.191.529-.245.218-.048.439-.084.66-.108a7.08 7.08 0 0 0 1.316-.252v-.197a.826.826 0 0 0-.21-.636 1.27 1.27 0 0 0-.841-.245 1.312 1.312 0 0 0-.769.18 1.12 1.12 0 0 0-.373.647l-.72-.102c.05-.27.16-.524.324-.743a1.39 1.39 0 0 1 .655-.438c.318-.112.654-.165.991-.156.308-.01.615.034.907.132.196.064.372.178.511.33.116.147.194.32.228.503.03.225.043.451.036.677v.983c-.01.435.006.869.048 1.301.035.183.098.358.187.522h-.77a1.544 1.544 0 0 1-.144-.522zm-.06-1.648a5.34 5.34 0 0 1-1.201.276 3.01 3.01 0 0 0-.643.15.649.649 0 0 0-.294.24.658.658 0 0 0 .12.844c.189.139.42.206.655.192.266.006.53-.058.763-.186a1.14 1.14 0 0 0 .486-.51c.092-.234.133-.485.12-.736l-.006-.27zm2.578 2.182h-.685v-5.994h.739v2.146a1.45 1.45 0 0 1 1.202-.6 1.81 1.81 0 0 1 .763.162c.234.1.44.257.6.455.163.212.285.452.36.708a2.8 2.8 0 0 1 .133.88 2.502 2.502 0 0 1-.553 1.733 1.744 1.744 0 0 1-1.334.6 1.383 1.383 0 0 1-1.201-.648l-.024.558zm0-2.206c-.028.39.047.78.216 1.133a1.057 1.057 0 0 0 1.803.144c.258-.363.382-.804.348-1.247a1.92 1.92 0 0 0-.336-1.259 1.04 1.04 0 0 0-.818-.407c-.33 0-.641.156-.84.42a1.85 1.85 0 0 0-.385 1.216h.012zm3.719.06a2.22 2.22 0 0 1 .673-1.798 2.04 2.04 0 0 1 1.37-.486 1.967 1.967 0 0 1 1.471.6c.4.444.605 1.028.571 1.624.021.455-.065.909-.252 1.324a1.8 1.8 0 0 1-.703.714c-.323.18-.688.273-1.057.27a1.973 1.973 0 0 1-1.478-.6 2.328 2.328 0 0 1-.595-1.648zm.757 0c-.033.448.097.892.366 1.253a1.203 1.203 0 0 0 1.839 0c.27-.37.4-.822.366-1.277a1.795 1.795 0 0 0-.366-1.199 1.203 1.203 0 0 0-1.839 0 1.85 1.85 0 0 0-.366 1.223zm7.053 2.146v-.636c-.299.47-.823.75-1.382.737a1.71 1.71 0 0 1-.72-.15 1.201 1.201 0 0 1-.5-.371 1.365 1.365 0 0 1-.228-.545 3.791 3.791 0 0 1-.042-.69v-2.697h.74v2.398c-.01.26.004.52.041.779.04.182.145.344.295.455a.92.92 0 0 0 .559.168c.212-.004.419-.064.6-.174a.906.906 0 0 0 .415-.461c.091-.274.132-.563.12-.851v-2.332h.739v4.352l-.637.018zm3.437-.66l.102.654c-.184.04-.37.062-.559.066a1.252 1.252 0 0 1-.6-.126.702.702 0 0 1-.313-.336 2.625 2.625 0 0 1-.09-.87v-2.505h-.547v-.599h.547v-1.073l.733-.443v1.516h.745v.6h-.745v2.547c-.008.135.004.27.036.401a.34.34 0 0 0 .132.144.46.46 0 0 0 .252.054c.103-.004.205-.014.307-.03zm2.097-.815v-.222a2.13 2.13 0 0 1 .12-.749c.067-.177.167-.34.294-.48.163-.184.34-.357.529-.515a2.4 2.4 0 0 0 .498-.54.85.85 0 0 0 .115-.437 1 1 0 0 0-.355-.725 1.119 1.119 0 0 0-.823-.33 1.131 1.131 0 0 0-.787.294 1.575 1.575 0 0 0-.415.923l-.763-.09a1.805 1.805 0 0 1 1.953-1.732 2.01 2.01 0 0 1 1.406.48c.339.288.532.712.529 1.156.004.254-.06.505-.187.725a3.333 3.333 0 0 1-.72.81 4.2 4.2 0 0 0-.475.473 1.09 1.09 0 0 0-.162.348c-.044.21-.064.426-.06.641l-.697-.03zm-.043 1.475v-.84h.842v.84h-.842zM19.034 198.252l2.313-5.994h.859l2.463 5.994h-.907l-.703-1.798h-2.517l-.661 1.798h-.847zm1.736-2.47h2.043l-.601-1.666a14.855 14.855 0 0 1-.427-1.24c-.08.389-.188.771-.324 1.144l-.691 1.762zm7.27 2.47v-.552a1.359 1.359 0 0 1-1.202.648 1.721 1.721 0 0 1-.961-.288 1.907 1.907 0 0 1-.68-.803 2.817 2.817 0 0 1-.24-1.199 3.11 3.11 0 0 1 .223-1.199c.127-.331.354-.616.649-.815.29-.185.628-.282.973-.282a1.42 1.42 0 0 1 .703.168c.199.104.372.251.505.432v-2.158h.733v5.994l-.703.054zm-2.338-2.176c-.032.446.093.89.355 1.253a1.052 1.052 0 0 0 1.658 0c.248-.349.367-.773.337-1.199a2.04 2.04 0 0 0-.343-1.307 1.064 1.064 0 0 0-.853-.42 1.016 1.016 0 0 0-.823.402 1.968 1.968 0 0 0-.33 1.271zm7.018 2.176v-.552a1.37 1.37 0 0 1-1.202.648 1.703 1.703 0 0 1-.955-.288 1.865 1.865 0 0 1-.679-.803 2.728 2.728 0 0 1-.24-1.199 3.11 3.11 0 0 1 .216-1.199 1.706 1.706 0 0 1 1.628-1.097 1.42 1.42 0 0 1 .703.168c.199.102.37.25.499.432v-2.158h.739v5.994l-.71.054zm-2.337-2.176c-.035.446.088.889.348 1.253.201.257.508.41.835.413a1.04 1.04 0 0 0 .823-.395c.254-.346.376-.771.343-1.199a2.034 2.034 0 0 0-.349-1.307 1.046 1.046 0 0 0-.847-.42 1.01 1.01 0 0 0-.823.402c-.248.369-.365.81-.33 1.253zm6.627 2.176v-5.994h2.667a3.57 3.57 0 0 1 1.202.162c.285.116.521.328.667.6.168.271.255.585.252.904.01.4-.14.788-.415 1.08a2.153 2.153 0 0 1-1.28.557c.173.075.335.174.481.293.252.24.474.51.661.804l1.046 1.636h-1.004l-.793-1.253a7.336 7.336 0 0 0-.6-.827 1.926 1.926 0 0 0-.403-.402 1.16 1.16 0 0 0-.367-.161 2.65 2.65 0 0 0-.444 0h-.926v2.667l-.745-.066zm.793-3.357h1.718c.289.009.577-.03.853-.114a.955.955 0 0 0 .469-.36c.101-.161.155-.348.156-.539a.892.892 0 0 0-.307-.701 1.444 1.444 0 0 0-.979-.276h-1.91v1.99zm8.158 1.955l.763.09a1.846 1.846 0 0 1-.666 1.036 2.27 2.27 0 0 1-2.77-.216 2.304 2.304 0 0 1-.559-1.648 2.442 2.442 0 0 1 .565-1.708c.382-.401.918-.62 1.472-.6a1.865 1.865 0 0 1 1.43.6 2.34 2.34 0 0 1 .552 1.672v.198h-3.256c-.002.403.144.793.409 1.097.235.253.567.393.913.383.248.007.49-.069.69-.215a1.39 1.39 0 0 0 .457-.69zm-2.403-1.2h2.433a1.448 1.448 0 0 0-.276-.827 1.137 1.137 0 0 0-.913-.425 1.21 1.21 0 0 0-.86.341 1.36 1.36 0 0 0-.408.918l.024-.006zm4.086 2.602v-5.994h.739v5.994zm4.866-1.402l.763.09a1.798 1.798 0 0 1-.673 1.036c-.862.567-2 .478-2.763-.216a2.304 2.304 0 0 1-.56-1.648 2.394 2.394 0 0 1 .566-1.708c.381-.401.917-.62 1.472-.6a1.877 1.877 0 0 1 1.43.6c.39.467.587 1.065.552 1.672v.198h-3.25c-.005.403.14.794.408 1.097.234.251.564.39.908.383.25.007.495-.069.696-.215.217-.18.374-.42.451-.69zm-2.403-1.2h2.433a1.496 1.496 0 0 0-.276-.827 1.149 1.149 0 0 0-.92-.425 1.167 1.167 0 0 0-.853.341c-.25.241-.397.57-.408.918l.024-.006zm6.939 2.062a2.68 2.68 0 0 1-.787.492 2.318 2.318 0 0 1-.817.144c-.4.026-.795-.1-1.105-.354a1.132 1.132 0 0 1-.385-.893 1.197 1.197 0 0 1 .144-.6c.09-.171.222-.318.385-.425.16-.11.34-.19.528-.24.216-.053.435-.091.655-.114.448-.041.89-.125 1.322-.251v-.192a.814.814 0 0 0-.21-.635 1.234 1.234 0 0 0-.841-.252 1.338 1.338 0 0 0-.775.18c-.19.17-.32.397-.367.647l-.72-.096a1.79 1.79 0 0 1 .324-.75c.17-.205.398-.357.654-.437a2.924 2.924 0 0 1 1.004-.15c.308-.01.615.034.907.132.198.064.376.177.517.33.116.147.194.32.228.503.03.225.042.451.036.678v.983c-.01.434.005.868.048 1.3.032.185.095.364.186.528h-.78a1.621 1.621 0 0 1-.15-.528zm-.06-1.648a5.628 5.628 0 0 1-1.202.282c-.219.022-.435.07-.642.144a.6.6 0 0 0-.397.6.599.599 0 0 0 .222.49.96.96 0 0 0 .655.198c.267.005.53-.062.763-.191a1.11 1.11 0 0 0 .487-.51c.091-.235.132-.486.12-.737l-.006-.276zm1.598.887l.727-.114c.026.26.15.5.349.672.225.166.5.249.78.233.27.022.538-.053.758-.21a.599.599 0 0 0 .246-.485.443.443 0 0 0-.216-.39 3.267 3.267 0 0 0-.757-.251 7.252 7.252 0 0 1-1.124-.354 1.129 1.129 0 0 1-.48-.413 1.107 1.107 0 0 1-.163-.6c0-.188.048-.374.139-.54a1.11 1.11 0 0 1 .36-.407c.143-.097.301-.17.469-.216.208-.06.425-.091.642-.09a2.45 2.45 0 0 1 .902.15c.225.073.423.21.57.396.14.202.226.434.253.677l-.721.096a.779.779 0 0 0-.283-.521 1.071 1.071 0 0 0-.672-.192 1.258 1.258 0 0 0-.727.168.497.497 0 0 0-.217.395c0 .094.032.185.09.258a.697.697 0 0 0 .283.198c.078 0 .294.09.655.186.37.095.735.209 1.093.341a1.053 1.053 0 0 1 .667 1.019c0 .248-.076.49-.216.696-.15.22-.358.395-.601.503a2.25 2.25 0 0 1-.92.18c-.46.03-.916-.095-1.297-.354a1.623 1.623 0 0 1-.589-1.03zm7.486-.101l.763.09a1.846 1.846 0 0 1-.667 1.036 2.27 2.27 0 0 1-2.77-.216 2.304 2.304 0 0 1-.558-1.648 2.394 2.394 0 0 1 .565-1.708c.381-.401.917-.62 1.472-.6a1.877 1.877 0 0 1 1.43.6c.39.467.587 1.065.552 1.672v.198h-3.256c-.002.403.143.793.408 1.097a1.2 1.2 0 0 0 .914.383c.248.007.49-.069.69-.215a1.39 1.39 0 0 0 .457-.69zm-2.403-1.2H66.1a1.496 1.496 0 0 0-.276-.827 1.143 1.143 0 0 0-.92-.425 1.167 1.167 0 0 0-.853.341c-.25.241-.397.57-.408.918l.024-.006z" fill="#000" fill-rule="nonzero"/><path d="M24.453 102.008v-5.575h2.475c.385-.017.769.034 1.136.15.253.105.464.29.6.528.156.254.237.547.235.845.007.372-.133.732-.39 1a1.925 1.925 0 0 1-1.202.516c.161.072.313.165.45.276.23.222.432.472.601.743l.973 1.517h-.93l-.692-1.127a8.954 8.954 0 0 0-.535-.767 1.59 1.59 0 0 0-.378-.378 1.095 1.095 0 0 0-.337-.144 2.132 2.132 0 0 0-.408-.03h-.86v2.476l-.738-.03zm.739-3.111h1.586c.269.01.537-.026.793-.108a.859.859 0 0 0 .439-.336.916.916 0 0 0 .15-.497.838.838 0 0 0-.289-.654 1.372 1.372 0 0 0-.913-.251h-1.766v1.846zm7.432 2.613a2.5 2.5 0 0 1-.733.456 2.143 2.143 0 0 1-.757.138 1.462 1.462 0 0 1-1.028-.33 1.06 1.06 0 0 1-.36-.827 1.13 1.13 0 0 1 .492-.935c.15-.103.317-.18.493-.228.198-.048.398-.083.6-.102.408-.039.81-.117 1.203-.234v-.18a.772.772 0 0 0-.193-.599 1.204 1.204 0 0 0-.787-.228c-.25-.02-.5.04-.715.168a1.042 1.042 0 0 0-.336.6l-.673-.09c.045-.252.148-.49.3-.696a1.29 1.29 0 0 1 .601-.407c.296-.101.607-.15.92-.144.285-.008.569.033.84.12.183.062.348.167.481.305a1.2 1.2 0 0 1 .21.468c.03.21.043.423.036.635v.911c-.01.4.003.8.043 1.2.03.17.088.334.174.485h-.715a1.346 1.346 0 0 1-.096-.486zm-.06-1.528a4.996 4.996 0 0 1-1.118.257c-.205.024-.406.07-.6.138a.66.66 0 0 0-.271.222.599.599 0 0 0 .114.785c.172.13.385.194.6.18a1.36 1.36 0 0 0 .704-.174c.2-.103.36-.27.456-.473.083-.218.12-.45.109-.684l.006-.251zm1.754 2.026v-5.575h.709v5.575zm1.736 0v-5.575h.685v5.575zm1.755-4.789v-.786h1.157v.786H37.81zm0 4.795v-4.04h1.157v4.04H37.81zm1.478-2.026a2.089 2.089 0 0 1 .6-1.66 1.89 1.89 0 0 1 1.274-.45 1.805 1.805 0 0 1 1.364.545c.37.413.561.957.529 1.51.02.423-.06.844-.235 1.23a1.632 1.632 0 0 1-.679.689 1.968 1.968 0 0 1-.979.252 1.84 1.84 0 0 1-1.376-.546 2.184 2.184 0 0 1-.498-1.57zm.702 0c-.032.416.09.83.343 1.163a1.13 1.13 0 0 0 1.706 0c.252-.347.371-.772.337-1.2a1.664 1.664 0 0 0-.343-1.138 1.13 1.13 0 0 0-1.7 0c-.257.335-.38.754-.343 1.175zm6.069-2.769v-.786h1.157v.786h-1.157zm0 4.795v-4.04h1.157v4.04h-1.157zm1.73-.006v-4.04h.6v.6a1.46 1.46 0 0 1 1.292-.666c.231-.003.46.041.673.132.18.072.337.19.457.341.106.153.18.327.216.51.03.22.042.443.036.665v2.482h-.685v-2.458a1.992 1.992 0 0 0-.078-.6.642.642 0 0 0-.288-.329.879.879 0 0 0-.475-.126 1.131 1.131 0 0 0-.757.276c-.25.291-.366.674-.318 1.055v2.206l-.673-.048zm6.597 0v-5.575h.757l2.937 4.376v-4.376h.71v5.575h-.758l-2.937-4.382v4.382zm5.035 0l2.144-5.575h.8l2.288 5.575h-.847l-.649-1.685H60.82l-.6 1.685h-.8zm1.61-2.29h1.898l-.6-1.54a14.068 14.068 0 0 1-.397-1.157 6.857 6.857 0 0 1-.307 1.06l-.595 1.637zm3.959.498l.697-.06c.023.244.103.48.234.689.139.196.333.347.559.431a2.294 2.294 0 0 0 1.61.042c.191-.065.358-.186.48-.347a.802.802 0 0 0 .157-.474.736.736 0 0 0-.15-.461 1.136 1.136 0 0 0-.505-.354 12.57 12.57 0 0 0-.998-.27 5.32 5.32 0 0 1-1.075-.347 1.477 1.477 0 0 1-.6-.522 1.298 1.298 0 0 1-.193-.695c-.001-.28.083-.554.24-.785a1.45 1.45 0 0 1 .697-.558c.327-.13.676-.194 1.028-.192.376-.007.75.06 1.099.198.297.124.55.332.727.6.173.262.27.567.276.88l-.709.055a1.138 1.138 0 0 0-.384-.797 1.523 1.523 0 0 0-.98-.27 1.571 1.571 0 0 0-.973.24.737.737 0 0 0-.312.599.599.599 0 0 0 .222.497c.34.204.719.339 1.112.396.422.083.836.201 1.237.354.292.13.541.337.721.6a1.4 1.4 0 0 1 .235.796c0 .3-.09.592-.259.84a1.73 1.73 0 0 1-.733.599 2.589 2.589 0 0 1-1.075.216 3.19 3.19 0 0 1-1.274-.222 1.801 1.801 0 0 1-.805-.66 1.927 1.927 0 0 1-.306-1.018zm9.451-.162l.738.185a2.498 2.498 0 0 1-.835 1.391 2.31 2.31 0 0 1-1.466.45 2.666 2.666 0 0 1-1.472-.366 2.303 2.303 0 0 1-.859-1.06 3.786 3.786 0 0 1-.294-1.5 3.26 3.26 0 0 1 .33-1.516c.208-.418.54-.764.95-.989a2.83 2.83 0 0 1 1.357-.336c.505-.015 1 .135 1.412.426.39.3.67.722.793 1.199l-.727.174a1.702 1.702 0 0 0-.565-.887 1.498 1.498 0 0 0-.93-.282 1.805 1.805 0 0 0-1.076.312 1.595 1.595 0 0 0-.601.827 3.242 3.242 0 0 0-.174 1.073c-.01.422.06.843.204 1.24.119.33.348.61.649.792.286.174.614.265.95.263.382.01.755-.117 1.05-.36.298-.274.497-.638.565-1.036zm1.039 1.954l2.144-5.575h.8l2.289 5.575h-.848l-.648-1.685h-2.338l-.6 1.685h-.8zm1.61-2.29h1.898l-.6-1.54a14.46 14.46 0 0 1-.397-1.157 6.857 6.857 0 0 1-.306 1.06l-.595 1.637zm4.199 2.29v-5.575h2.482a3.28 3.28 0 0 1 1.135.15c.253.106.464.291.6.528.156.254.238.547.235.845a1.4 1.4 0 0 1-.384 1 1.96 1.96 0 0 1-1.202.516c.16.074.308.166.445.276.23.222.432.472.6.743l.974 1.517h-.931l-.673-1.127a8.954 8.954 0 0 0-.535-.767 1.703 1.703 0 0 0-.342-.432 1.13 1.13 0 0 0-.343-.144 2.041 2.041 0 0 0-.408-.03h-.86v2.476l-.793.024zm.74-3.111h1.591c.269.01.537-.027.793-.108a.823.823 0 0 0 .481-.306c.1-.146.152-.32.15-.497a.838.838 0 0 0-.288-.654 1.354 1.354 0 0 0-.907-.251h-1.773l-.048 1.816z" fill="#666766" fill-rule="nonzero"/><path d="M19.046 121.176h174.363" stroke="#CCC" stroke-width=".75"/><path d="M189.84 141.4H18.476v27.716a3 3 0 0 0 3.004 2.996h168.36a3 3 0 0 0 3.004-2.996v-24.72a3 3 0 0 0-3.004-2.996h0z" stroke="#999" stroke-width=".75" fill="#FFF" fill-rule="nonzero"/><path fill="#666766" fill-rule="nonzero" d="M24.429 159.022v-5.58h.763l2.938 4.381v-4.382h.709v5.58h-.763l-2.938-4.387v4.388zm5.305-2.044a2.095 2.095 0 0 1 .6-1.666 1.89 1.89 0 0 1 1.274-.45c.515-.02 1.013.18 1.37.551.372.41.563.953.529 1.505.02.422-.06.843-.234 1.229-.144.29-.37.531-.65.695a2.01 2.01 0 0 1-.979.246 1.805 1.805 0 0 1-1.37-.546 2.137 2.137 0 0 1-.54-1.564zm.709 0c-.03.415.089.827.336 1.163a1.137 1.137 0 0 0 1.706 0c.259-.344.38-.771.343-1.2a1.676 1.676 0 0 0-.343-1.138 1.143 1.143 0 0 0-1.706 0c-.25.338-.37.756-.336 1.175zm5.017 2.044l-1.539-4.04h.721l.872 2.397c.096.264.18.534.258.816.06-.21.15-.468.258-.768l.901-2.463h.703l-1.532 4.058h-.643zm5.575-1.325l.709.084a1.72 1.72 0 0 1-.601.965 1.87 1.87 0 0 1-1.16.342 1.853 1.853 0 0 1-1.411-.546 2.155 2.155 0 0 1-.517-1.534 2.244 2.244 0 0 1 .523-1.583c.354-.375.853-.58 1.37-.563a1.75 1.75 0 0 1 1.327.551c.363.434.546.99.51 1.553v.186h-3.003c-.003.374.131.737.378 1.019.219.233.527.362.847.353.23.006.457-.063.643-.198.187-.167.321-.386.385-.629zm-2.253-1.109h2.253a1.365 1.365 0 0 0-.265-.767 1.04 1.04 0 0 0-.847-.396 1.077 1.077 0 0 0-.793.318 1.245 1.245 0 0 0-.372.845h.024zm3.803 2.434v-4.04h.6v.563c.128-.198.304-.361.511-.473a1.517 1.517 0 0 1 1.454 0c.191.123.335.306.409.521a1.46 1.46 0 0 1 1.25-.707c.342-.025.679.097.925.336.238.286.355.654.324 1.025v2.775h-.679v-2.548a1.95 1.95 0 0 0-.066-.599.6.6 0 0 0-.246-.288.758.758 0 0 0-.409-.114.944.944 0 0 0-.709.288c-.214.25-.317.578-.282.905v2.356h-.69v-2.626a1.197 1.197 0 0 0-.163-.683.644.644 0 0 0-.553-.234.993.993 0 0 0-.535.156.875.875 0 0 0-.354.444 2.392 2.392 0 0 0-.114.845v2.098h-.673zm7.137 0h-.636v-5.58h.684v1.983c.263-.347.676-.55 1.112-.545.244 0 .485.052.709.15.213.097.4.242.547.425.152.195.266.417.336.654.086.267.128.546.126.827a2.298 2.298 0 0 1-.516 1.6 1.621 1.621 0 0 1-1.238.57 1.286 1.286 0 0 1-1.124-.6v.516zm0-2.05a2.1 2.1 0 0 0 .199 1.049.98.98 0 0 0 1.652.138c.245-.337.362-.749.33-1.163a1.795 1.795 0 0 0-.312-1.169.956.956 0 0 0-.763-.378.986.986 0 0 0-.775.39c-.238.32-.357.711-.337 1.109l.006.024zm6.483.725l.709.084a1.72 1.72 0 0 1-.6.965c-.339.239-.747.36-1.16.342a1.853 1.853 0 0 1-1.412-.546 2.155 2.155 0 0 1-.517-1.534 2.244 2.244 0 0 1 .523-1.583c.354-.375.853-.58 1.37-.563.5-.016.982.185 1.321.551.368.431.554.988.517 1.553v.186h-3.004c-.003.374.131.737.379 1.019.218.233.527.362.847.353.23.005.455-.064.642-.198a1.31 1.31 0 0 0 .385-.629zm-2.253-1.109h2.265a1.412 1.412 0 0 0-.264-.767 1.04 1.04 0 0 0-.847-.396 1.1 1.1 0 0 0-.8.318 1.27 1.27 0 0 0-.354.845zm3.821 2.434v-4.04h.6v.6a1.74 1.74 0 0 1 .44-.57.776.776 0 0 1 .438-.138c.252.008.498.084.709.222l-.24.635a.981.981 0 0 0-.499-.15.674.674 0 0 0-.409.138.743.743 0 0 0-.252.378c-.08.258-.118.527-.114.797v2.128h-.673zm4.891 0v-5.58h2.48c.385-.015.77.036 1.136.15.254.106.465.294.601.533.152.253.23.544.228.839a1.39 1.39 0 0 1-.384 1 1.925 1.925 0 0 1-1.202.516c.163.07.313.165.445.282.228.222.43.47.6.737l.974 1.523h-.931l-.703-1.199a8.953 8.953 0 0 0-.535-.767 1.656 1.656 0 0 0-.378-.372 1.119 1.119 0 0 0-.337-.15 2.294 2.294 0 0 0-.414 0h-.853v2.488h-.727zm.745-3.117h1.586c.268.01.537-.026.793-.108a.847.847 0 0 0 .438-.33.94.94 0 0 0 .145-.503.832.832 0 0 0-.283-.647 1.342 1.342 0 0 0-.913-.258h-1.766v1.846zm7.425 2.595a2.578 2.578 0 0 1-.739.456 2.1 2.1 0 0 1-.757.132 1.455 1.455 0 0 1-1.02-.324 1.072 1.072 0 0 1-.361-.833 1.095 1.095 0 0 1 .138-.54c.081-.16.204-.296.354-.395.15-.103.317-.18.493-.228.132-.03.336-.066.6-.102.408-.04.81-.118 1.202-.234v-.18a.742.742 0 0 0-.198-.599 1.137 1.137 0 0 0-.781-.234c-.25-.02-.5.04-.715.168a1.078 1.078 0 0 0-.342.6l-.667-.09c.046-.252.148-.49.3-.696a1.34 1.34 0 0 1 .6-.407c.297-.101.608-.15.92-.144.286-.01.57.033.841.126.361.102.63.403.691.773.03.208.043.419.036.63v.91c-.01.4.004.801.042 1.2.03.17.088.334.175.485h-.721a1.55 1.55 0 0 1-.09-.474zm-.06-1.534c-.363.13-.74.22-1.123.264-.205.02-.407.063-.6.131a.564.564 0 0 0-.271.228.556.556 0 0 0-.096.324.599.599 0 0 0 .204.455.92.92 0 0 0 .6.18 1.42 1.42 0 0 0 .704-.168c.196-.108.355-.273.456-.473.084-.22.12-.455.108-.69l.018-.251zm4.404.551l.673.084a1.73 1.73 0 0 1-.565 1.091 1.66 1.66 0 0 1-1.123.396 1.738 1.738 0 0 1-1.334-.54 2.214 2.214 0 0 1-.505-1.558 2.823 2.823 0 0 1 .217-1.145c.134-.311.366-.57.66-.737a1.98 1.98 0 0 1 .968-.246c.388-.015.77.103 1.081.336.288.24.478.577.535.947l-.667.102a1.096 1.096 0 0 0-.336-.6.872.872 0 0 0-.601-.21 1.077 1.077 0 0 0-.841.372 1.76 1.76 0 0 0-.325 1.199 1.83 1.83 0 0 0 .313 1.199c.198.245.501.383.817.371a.969.969 0 0 0 .673-.246c.22-.215.35-.507.36-.815zm4.032.18l.709.084a1.72 1.72 0 0 1-.601.965 1.89 1.89 0 0 1-1.16.342 1.853 1.853 0 0 1-1.412-.546 2.13 2.13 0 0 1-.516-1.534 2.244 2.244 0 0 1 .522-1.583c.353-.373.85-.578 1.364-.563.502-.017.986.184 1.328.551.368.431.553.988.517 1.553v.186h-3.004c-.004.374.131.737.378 1.019.217.232.523.36.841.353.232.006.46-.063.65-.198.185-.169.318-.387.384-.629zm-2.253-1.109h2.259a1.365 1.365 0 0 0-.259-.767 1.04 1.04 0 0 0-.847-.396 1.1 1.1 0 0 0-.799.318 1.27 1.27 0 0 0-.354.845zm5.725.732v-.696h2.109v.684zm5.101 1.702v-5.58h.715v4.92h2.752v.66zm6.927-.522a2.554 2.554 0 0 1-.733.456 2.1 2.1 0 0 1-.757.132 1.486 1.486 0 0 1-1.027-.324 1.072 1.072 0 0 1-.36-.833 1.095 1.095 0 0 1 .138-.54c.081-.16.203-.296.354-.395.15-.102.317-.18.493-.228.132-.03.336-.066.6-.102.408-.039.81-.117 1.202-.234v-.18a.766.766 0 0 0-.192-.599 1.161 1.161 0 0 0-.787-.234c-.25-.02-.5.04-.715.168a1.042 1.042 0 0 0-.337.6l-.673-.09c.046-.252.15-.49.3-.696a1.34 1.34 0 0 1 .602-.407c.295-.101.606-.15.919-.144.286-.01.57.033.841.126.185.057.35.162.48.306.108.136.18.296.21.467.031.208.043.419.037.63v.91c-.01.4.003.801.042 1.2.032.17.09.333.174.485h-.715a1.412 1.412 0 0 1-.096-.474zm-.06-1.534c-.36.13-.736.22-1.117.264-.205.02-.407.064-.601.131a.6.6 0 0 0-.156 1.007c.172.13.385.194.6.18a1.42 1.42 0 0 0 .703-.168c.198-.107.357-.272.457-.473.083-.22.12-.455.108-.69l.006-.251zm1.484.857l.679-.108c.03.232.143.445.318.6.212.155.471.231.733.215.25.018.498-.05.703-.192a.599.599 0 0 0 .229-.45.425.425 0 0 0-.205-.365 3.195 3.195 0 0 0-.703-.233 5.868 5.868 0 0 1-1.045-.33.989.989 0 0 1-.6-.923 1.041 1.041 0 0 1 .125-.504c.082-.151.197-.282.337-.383.134-.09.282-.157.438-.198.196-.057.398-.085.601-.084.285-.004.567.043.835.138.21.069.393.198.529.371.125.18.207.384.24.6l-.673.09a.725.725 0 0 0-.264-.486.95.95 0 0 0-.6-.18 1.156 1.156 0 0 0-.68.156.467.467 0 0 0-.198.366.353.353 0 0 0 .084.24c.068.086.16.15.265.185l.6.174c.347.085.688.191 1.022.318.181.075.337.2.45.36.116.178.173.387.163.599 0 .229-.07.452-.199.641a1.25 1.25 0 0 1-.6.468 2.071 2.071 0 0 1-.86.168 1.88 1.88 0 0 1-1.201-.33 1.516 1.516 0 0 1-.523-.923zm8.039 1.199l-2.17-5.58h.8l1.454 4.051c.12.324.216.6.294.917.09-.305.186-.599.3-.917l1.515-4.052h.757l-2.193 5.58h-.757zm5.864-1.325l.708.084a1.75 1.75 0 0 1-.6.965 1.89 1.89 0 0 1-1.16.342 1.853 1.853 0 0 1-1.412-.546 2.13 2.13 0 0 1-.522-1.534 2.25 2.25 0 0 1 .528-1.583c.353-.373.85-.578 1.364-.563.502-.016.986.185 1.328.551.365.433.55.988.517 1.553v.186h-3.004c-.003.373.13.734.372 1.019.22.231.527.36.847.353.232.006.46-.063.649-.198.186-.169.319-.387.385-.629zm-2.253-1.109h2.259a1.364 1.364 0 0 0-.259-.767 1.04 1.04 0 0 0-.859-.396 1.1 1.1 0 0 0-.799.318 1.24 1.24 0 0 0-.342.845zm3.7 2.745l.667.096c.007.176.09.34.229.45.207.138.454.205.703.192a1.24 1.24 0 0 0 .733-.192.926.926 0 0 0 .348-.534c.047-.289.065-.582.054-.875a1.425 1.425 0 0 1-1.123.528 1.527 1.527 0 0 1-1.292-.6 2.286 2.286 0 0 1-.457-1.438c-.006-.367.066-.73.21-1.067a1.61 1.61 0 0 1 1.545-1.025 1.47 1.47 0 0 1 1.201.6v-.486h.631v3.44c.028.454-.037.91-.192 1.337a1.398 1.398 0 0 1-.601.6c-.317.163-.67.241-1.027.227a1.962 1.962 0 0 1-1.172-.324 1.096 1.096 0 0 1-.457-.929zm.565-2.397c-.034.41.079.82.319 1.157a.998.998 0 0 0 .793.365c.304.004.595-.128.793-.36a1.73 1.73 0 0 0 .318-1.144 1.64 1.64 0 0 0-.33-1.115 1.016 1.016 0 0 0-1.574 0 1.658 1.658 0 0 0-.319 1.067v.03zm6.543 1.564a2.554 2.554 0 0 1-.733.456c-.242.09-.499.135-.757.132a1.486 1.486 0 0 1-1.027-.324 1.137 1.137 0 0 1 .132-1.768 1.72 1.72 0 0 1 .498-.228c.133-.03.337-.066.601-.102.407-.04.81-.118 1.202-.234v-.18a.742.742 0 0 0-.198-.599 1.137 1.137 0 0 0-.782-.234c-.25-.02-.5.04-.714.168a1.013 1.013 0 0 0-.343.6l-.673-.09a1.68 1.68 0 0 1 .337-.672 1.34 1.34 0 0 1 .6-.407c.296-.101.607-.15.92-.144.285-.01.57.033.84.126a.966.966 0 0 1 .692.773c.017.21.017.42 0 .63v.91c-.01.4.006.801.048 1.2.029.17.088.334.174.485h-.721a1.555 1.555 0 0 1-.096-.498zm-.054-1.534c-.363.13-.74.219-1.124.264a2.48 2.48 0 0 0-.6.131.564.564 0 0 0-.27.228.556.556 0 0 0-.097.324.599.599 0 0 0 .204.455c.173.13.386.193.601.18a1.42 1.42 0 0 0 .703-.168c.195-.108.352-.274.45-.473.095-.215.14-.449.133-.683v-.258zm1.484.857l.679-.108c.027.233.14.446.318.6.21.155.467.231.727.215.25.02.498-.048.703-.192a.557.557 0 0 0 .228-.45.42.42 0 0 0-.198-.365 3.195 3.195 0 0 0-.703-.233 5.868 5.868 0 0 1-1.045-.33.987.987 0 0 1-.595-.923 1.041 1.041 0 0 1 .126-.504 1.08 1.08 0 0 1 .337-.383 1.39 1.39 0 0 1 .432-.198c.195-.057.398-.085.6-.084.285-.005.568.042.836.138.21.069.397.198.535.371.122.18.202.385.234.6l-.667.09a.707.707 0 0 0-.27-.486.939.939 0 0 0-.601-.18 1.142 1.142 0 0 0-.673.156.473.473 0 0 0-.204.366c0 .087.03.171.084.24a.6.6 0 0 0 .264.185c.072 0 .27.084.601.174.345.085.684.191 1.015.318.182.075.338.2.451.36a.97.97 0 0 1 .168.599c0 .23-.07.454-.204.641a1.25 1.25 0 0 1-.6.468 2.07 2.07 0 0 1-.854.168 1.88 1.88 0 0 1-1.201-.33 1.516 1.516 0 0 1-.523-.923zm6.416 1.199v-5.58h1.112l1.322 3.95.27.827c.06-.204.162-.504.294-.894l1.34-3.884h.98v5.58h-.716v-4.668l-1.61 4.669h-.679l-1.604-4.795v4.795h-.709zm6.182-2.044a2.095 2.095 0 0 1 .601-1.666 1.89 1.89 0 0 1 1.274-.45 1.805 1.805 0 0 1 1.364.551c.374.41.567.952.535 1.505.02.422-.06.843-.235 1.229a1.662 1.662 0 0 1-.685.695c-.3.163-.637.248-.979.246a1.805 1.805 0 0 1-1.376-.546 2.16 2.16 0 0 1-.498-1.564zm.71 0a1.71 1.71 0 0 0 .336 1.163 1.137 1.137 0 0 0 1.706 0c.252-.347.371-.772.337-1.2a1.676 1.676 0 0 0-.343-1.138 1.064 1.064 0 0 0-.847-.384 1.089 1.089 0 0 0-.853.384 1.705 1.705 0 0 0-.337 1.175zm5.389 1.408l.102.6a2.54 2.54 0 0 1-.523.066 1.204 1.204 0 0 1-.6-.12.6.6 0 0 1-.29-.312 2.32 2.32 0 0 1-.083-.809v-2.326h-.505v-.527h.505v-1.001l.679-.414v1.415h.69v.527h-.69v2.368c-.008.127.004.254.036.378a.31.31 0 0 0 .12.131.488.488 0 0 0 .234.048c.109 0 .217-.007.325-.024zm.414-1.408a2.095 2.095 0 0 1 .601-1.666 1.89 1.89 0 0 1 1.274-.45c.514-.02 1.013.18 1.37.551.37.412.56.953.528 1.505.02.422-.06.843-.234 1.229a1.662 1.662 0 0 1-.685.695c-.3.163-.637.248-.98.246a1.805 1.805 0 0 1-1.37-.546 2.137 2.137 0 0 1-.504-1.564zm.71 0c-.03.415.088.827.336 1.163a1.137 1.137 0 0 0 1.706 0c.256-.345.376-.772.336-1.2a1.705 1.705 0 0 0-.336-1.138 1.143 1.143 0 0 0-1.706 0c-.251.338-.37.756-.337 1.175zm3.887 2.044v-4.04h.6v.6c.105-.219.254-.413.439-.57a.776.776 0 0 1 .438-.138c.253.008.498.084.71.222l-.241.635a.981.981 0 0 0-.499-.15.674.674 0 0 0-.408.138.707.707 0 0 0-.253.378c-.08.258-.118.527-.114.797v2.128h-.673zm4.613-1.798l.697-.06c.02.242.098.477.229.683.142.197.338.349.564.438.273.111.565.166.86.161.254.005.506-.038.745-.126.19-.064.357-.183.48-.341a.796.796 0 0 0 .162-.48.712.712 0 0 0-.156-.455 1.136 1.136 0 0 0-.504-.33 9.438 9.438 0 0 0-.992-.276 4.923 4.923 0 0 1-1.081-.347 1.537 1.537 0 0 1-.601-.516 1.28 1.28 0 0 1-.198-.695 1.406 1.406 0 0 1 .24-.791c.172-.253.417-.448.703-.558a2.68 2.68 0 0 1 1.027-.191 2.7 2.7 0 0 1 1.094.203c.3.122.555.33.733.6.169.261.262.564.27.875l-.709.054a1.114 1.114 0 0 0-.384-.797 1.517 1.517 0 0 0-.974-.27 1.577 1.577 0 0 0-.979.246.73.73 0 0 0-.306.599.635.635 0 0 0 .216.492c.34.207.721.342 1.117.395.422.085.836.205 1.238.36.289.12.538.316.721.57a1.4 1.4 0 0 1 .228.79c0 .299-.088.59-.252.84a1.681 1.681 0 0 1-.733.599 2.6 2.6 0 0 1-1.081.222 3.263 3.263 0 0 1-1.268-.222 1.798 1.798 0 0 1-1.112-1.666l.006-.006zm5.372 3.32v-5.586h.6v.521a1.56 1.56 0 0 1 .499-.461c.21-.108.443-.162.679-.156.325-.006.644.089.913.27.271.184.48.445.601.749.135.34.203.702.198 1.067.007.383-.069.763-.222 1.115a1.691 1.691 0 0 1-1.544 1.025 1.282 1.282 0 0 1-.6-.144 1.507 1.507 0 0 1-.452-.366v1.966h-.672zm.6-3.548c-.03.41.083.819.319 1.157a.986.986 0 0 0 1.55 0c.244-.35.358-.774.324-1.2a1.76 1.76 0 0 0-.318-1.156.944.944 0 0 0-.757-.384.986.986 0 0 0-.775.408 1.795 1.795 0 0 0-.325 1.175h-.018zm6.513.701l.715.084c-.088.38-.299.719-.6.965-.339.239-.747.36-1.16.342a1.805 1.805 0 0 1-1.406-.546 2.13 2.13 0 0 1-.523-1.534 2.244 2.244 0 0 1 .523-1.583c.354-.375.853-.58 1.37-.563a1.74 1.74 0 0 1 1.327.551c.364.434.546.99.511 1.553v.186h-3.004c-.003.374.132.737.379 1.019.218.233.527.362.847.353.23.006.456-.063.643-.198.184-.168.316-.387.378-.629zm-2.253-1.109h2.265c-.01-.275-.1-.542-.258-.767a1.064 1.064 0 0 0-.853-.396 1.089 1.089 0 0 0-.793.318 1.245 1.245 0 0 0-.361.845zm6.597 1.109l.715.084c-.088.38-.3.719-.601.965a1.87 1.87 0 0 1-1.16.342 1.805 1.805 0 0 1-1.405-.546 2.13 2.13 0 0 1-.523-1.534 2.244 2.244 0 0 1 .523-1.583c.354-.375.853-.58 1.37-.563a1.75 1.75 0 0 1 1.31.563c.362.434.545.99.51 1.553v.186h-3.004c-.003.374.131.737.378 1.019.219.233.527.362.847.353.23.006.456-.063.643-.198.194-.169.332-.392.397-.64zm-2.253-1.109h2.265a1.42 1.42 0 0 0-.259-.767 1.064 1.064 0 0 0-.853-.396 1.089 1.089 0 0 0-.793.318 1.245 1.245 0 0 0-.36.845zm6.452 2.434v-.51a1.244 1.244 0 0 1-1.13.6 1.607 1.607 0 0 1-.888-.264 1.727 1.727 0 0 1-.631-.75 2.536 2.536 0 0 1-.222-1.096 2.925 2.925 0 0 1 .198-1.097c.117-.308.327-.571.6-.755.27-.175.586-.267.908-.264.226-.003.449.05.649.156.184.097.344.234.468.401v-2.002h.68v5.58h-.632zm-2.168-2.044c-.033.414.084.827.33 1.163a.98.98 0 0 0 1.538.018c.234-.325.344-.722.312-1.121a1.915 1.915 0 0 0-.318-1.199.992.992 0 0 0-.787-.39.962.962 0 0 0-.77.372 1.849 1.849 0 0 0-.305 1.157zm4.632 2.044l-1.238-4.04h.709l.643 2.331.24.864c0-.042.084-.318.21-.834l.65-2.361h.702l.601 2.343.204.774.229-.786.697-2.331h.666l-1.261 4.04h-.715l-.643-2.398-.156-.69-.817 3.088h-.721zm7.54-.522a2.638 2.638 0 0 1-.733.456 2.15 2.15 0 0 1-.763.132 1.468 1.468 0 0 1-1.022-.324 1.072 1.072 0 0 1-.36-.833 1.095 1.095 0 0 1 .138-.54c.082-.16.204-.296.355-.395.15-.103.316-.18.492-.228.132-.03.337-.066.601-.102.407-.039.81-.117 1.202-.234v-.18a.742.742 0 0 0-.199-.599 1.137 1.137 0 0 0-.78-.234c-.25-.02-.5.04-.716.168a1.078 1.078 0 0 0-.342.6l-.667-.09c.046-.252.149-.49.3-.696a1.34 1.34 0 0 1 .601-.407c.296-.101.607-.15.92-.144.285-.01.57.033.84.126a.963.963 0 0 1 .691.773c.03.208.043.419.036.63v.91c-.01.4.004.801.043 1.2.029.17.088.334.174.485h-.715a1.412 1.412 0 0 1-.096-.474zm-.06-1.534a5.02 5.02 0 0 1-1.118.264c-.205.02-.407.063-.6.131a.564.564 0 0 0-.271.228.599.599 0 0 0 .114.78c.172.13.385.194.6.18a1.42 1.42 0 0 0 .704-.169c.196-.108.355-.273.456-.473.084-.22.12-.455.109-.69l.006-.251zm1.705 3.584l-.077-.641c.127.037.258.057.39.06a.777.777 0 0 0 .367-.072.654.654 0 0 0 .228-.216c.084-.164.154-.334.21-.51 0-.035.03-.095.06-.167l-1.538-4.046h.74l.84 2.338c.116.306.214.618.295.935.078-.31.172-.617.282-.918l.865-2.355h.691l-1.544 4.106c-.108.313-.237.62-.384.917-.096.198-.24.37-.42.497a.963.963 0 0 1-.566.156 1.252 1.252 0 0 1-.438-.084z"/><path d="M19.046 177.567h174.363" stroke="#CCC" stroke-width=".75"/><path fill="#1F407B" fill-rule="nonzero" d="M178.798 187.517l-3.058 3.554h3.058z"/><path d="M187.63 187.517h-7.75v4.633h-4.14v10.741a1.61 1.61 0 0 0 1.622 1.613h10.268a1.612 1.612 0 0 0 1.616-1.613v-13.756a1.61 1.61 0 0 0-1.616-1.618zm-4.464 12.341h-4.5v-1.079h4.5v1.08zm3.238-2.397h-7.714v-1.073h7.738l-.024 1.073zm0-2.398h-7.714v-1.079h7.738l-.024 1.08z" fill="#1F407B" fill-rule="nonzero"/><g transform="translate(5.522 389.763)"><mask id="b" fill="#fff"><use xlink:href="#a"/></mask><use fill="#1F407B" fill-rule="nonzero" xlink:href="#a"/><path stroke="#979797" fill="#D8D8D8" mask="url(#b)" d="M.5.5h199.667v32.566H.5z"/></g><path d="M80.189 405.252c.004.3-.06.597-.186.869a2.121 2.121 0 0 1-.523.677 2.5 2.5 0 0 1-.793.45c-.31.109-.638.164-.967.161a2.71 2.71 0 0 1-.956-.161 2.567 2.567 0 0 1-.763-.438 2.078 2.078 0 0 1-.72-1.439l.84-.18a1.4 1.4 0 0 0 .15.6 1.433 1.433 0 0 0 .86.707c.205.067.42.1.637.096a1.69 1.69 0 0 0 1.135-.371 1.2 1.2 0 0 0 .433-.953 1.113 1.113 0 0 0-.09-.462.96.96 0 0 0-.295-.354 1.882 1.882 0 0 0-.528-.281 8.191 8.191 0 0 0-.818-.246 4.814 4.814 0 0 1-.979-.312c-.234-.1-.45-.24-.637-.413a1.396 1.396 0 0 1-.348-.522 1.896 1.896 0 0 1-.102-.6 1.8 1.8 0 0 1 .18-.796c.118-.244.286-.46.493-.636a2.31 2.31 0 0 1 .733-.425c.29-.1.594-.15.9-.15.299-.004.595.043.878.138.25.08.485.207.69.371a2 2 0 0 1 .704 1.2l-.847.185a1.15 1.15 0 0 0-.493-.803 1.637 1.637 0 0 0-.973-.288c-.19 0-.378.028-.559.084a1.62 1.62 0 0 0-.445.234 1.043 1.043 0 0 0-.294.353 1.07 1.07 0 0 0-.102.45.779.779 0 0 0 .354.677c.155.103.323.186.499.246.245.09.496.164.751.222.355.083.7.199 1.033.347.248.117.475.273.673.462.171.167.299.372.373.6.073.226.108.463.102.7zm5.113 2.068a1.143 1.143 0 0 1-.145-.432 3.14 3.14 0 0 1-.036-.45 2.782 2.782 0 0 1-.805.665 2.37 2.37 0 0 1-.552.222 2.324 2.324 0 0 1-.601.084 1.968 1.968 0 0 1-1.262-.39 1.293 1.293 0 0 1-.486-1.066 1.63 1.63 0 0 1 .138-.671 1.62 1.62 0 0 1 .54-.63 4.24 4.24 0 0 1 1.112-.551c.603-.2 1.222-.346 1.85-.438a.922.922 0 0 0-.33-.743 1.39 1.39 0 0 0-.931-.282 2.203 2.203 0 0 0-.89.162c-.242.104-.47.24-.678.402l-.523-.6a3.396 3.396 0 0 1 2.878-.69c.242.048.472.146.673.289.213.155.384.361.498.599.138.288.204.604.193.923v2.398c.001.213.02.425.054.635.036.21.105.411.204.6l-.901-.037zm-.259-2.926c-.461.075-.917.182-1.363.318a3.747 3.747 0 0 0-.854.372 1.278 1.278 0 0 0-.438.413.94.94 0 0 0-.12.456.598.598 0 0 0 .09.33c.062.09.144.163.24.215.107.061.222.106.343.132.326.075.667.05.979-.072.206-.083.395-.203.559-.353.173-.16.312-.354.408-.57a1.71 1.71 0 0 0 .156-.761v-.48zm4.584 3.231l-2.733-5.718h.949l1.802 3.794 1.803-3.794h.955zm8.796-3.045c.003.048.003.096 0 .144a.765.765 0 0 0 0 .114.897.897 0 0 0 0 .12h-4.56c.033.226.108.443.222.641.116.194.26.37.427.522.347.3.79.466 1.25.467a2.15 2.15 0 0 0 .847-.18c.279-.119.529-.297.733-.521l.6.557c-.27.318-.611.566-.997.726-.38.158-.789.24-1.201.24a2.802 2.802 0 0 1-2.577-1.714 2.782 2.782 0 0 1 .6-3.058 2.88 2.88 0 0 1 .89-.6 2.763 2.763 0 0 1 1.093-.221 2.69 2.69 0 0 1 1.087.222c.322.143.614.346.86.6a2.6 2.6 0 0 1 .546.88c.126.34.187.7.18 1.061zm-.913-.407a2.06 2.06 0 0 0-.6-1.145 1.709 1.709 0 0 0-1.203-.408c-.23 0-.457.04-.672.12a1.86 1.86 0 0 0-.98.815c-.11.186-.188.389-.234.6l3.689.018zm7.997 3.147v-7.193h.865v7.192zm10.207 0v-3.075a1.718 1.718 0 0 0-.378-1.2 1.371 1.371 0 0 0-1.983 0 1.694 1.694 0 0 0-.385 1.2v3.074h-.865v-3.074a1.718 1.718 0 0 0-.378-1.2 1.27 1.27 0 0 0-.998-.419 1.284 1.284 0 0 0-.99.426 1.724 1.724 0 0 0-.38 1.199v3.074h-.865v-5.394h.866v.677c.135-.224.325-.41.552-.54.283-.157.602-.235.926-.227.402-.015.799.096 1.135.318.296.204.517.498.63.839.135-.345.372-.64.68-.845a2.01 2.01 0 0 1 1.123-.312c.305-.002.607.055.89.168.257.109.49.268.684.467.195.199.347.436.445.696.105.275.158.568.156.863v3.308l-.865-.024zm6.14 0a1.143 1.143 0 0 1-.144-.432 3.14 3.14 0 0 1-.036-.45 2.782 2.782 0 0 1-.805.665 2.479 2.479 0 0 1-1.154.306 1.968 1.968 0 0 1-1.261-.39 1.294 1.294 0 0 1-.517-1.048c-.001-.231.046-.46.138-.671a1.62 1.62 0 0 1 .54-.63 4.24 4.24 0 0 1 1.112-.551c.603-.2 1.222-.346 1.85-.438a.922.922 0 0 0-.33-.743 1.39 1.39 0 0 0-.93-.282 2.203 2.203 0 0 0-.89.162 3.1 3.1 0 0 0-.679.402l-.523-.6a3.396 3.396 0 0 1 2.878-.69c.243.048.472.146.673.289.213.155.385.361.499.599.138.288.204.604.192.923v2.398c.002.213.02.425.054.635.037.21.106.411.204.6l-.87-.055zm-.258-2.926c-.463.076-.92.182-1.37.318a3.808 3.808 0 0 0-.847.372 1.278 1.278 0 0 0-.439.413.88.88 0 0 0-.12.456.598.598 0 0 0 .09.33c.062.09.145.163.24.215.107.061.223.106.343.132.326.075.668.05.98-.072.205-.084.394-.204.558-.353.174-.16.313-.354.409-.57.107-.24.16-.499.156-.761v-.48zm7.81 2.314c.001.38-.07.756-.21 1.109a2.72 2.72 0 0 1-.6.899c-.252.26-.555.464-.89.6-.355.15-.738.225-1.123.221a2.664 2.664 0 0 1-2.205-1.055l.654-.521c.364.487.942.769 1.55.755.258.002.513-.047.752-.144.228-.097.433-.242.6-.425.185-.197.33-.427.427-.678a2.44 2.44 0 0 0 .156-.899v-.138a2.119 2.119 0 0 1-.757.69 2.296 2.296 0 0 1-1.147.281 2.665 2.665 0 0 1-1.923-.827 2.997 2.997 0 0 1-.6-.887 2.817 2.817 0 0 1 0-2.164 2.97 2.97 0 0 1 .6-.887 2.665 2.665 0 0 1 1.923-.827c.4-.007.796.09 1.147.282.305.164.565.401.757.69v-.882h.865l.024 4.807zm-.865-2.092a1.95 1.95 0 0 0-.15-.773 2.097 2.097 0 0 0-.39-.63 2.013 2.013 0 0 0-.601-.419 1.872 1.872 0 0 0-1.496 0 2.013 2.013 0 0 0-.601.42 2.097 2.097 0 0 0-.39 2.17c.093.232.225.447.39.635.171.177.375.32.6.42.48.199 1.018.199 1.497 0 .225-.1.43-.243.6-.42a2.21 2.21 0 0 0 .39-.636c.102-.243.154-.504.151-.767zm7.799-.036v.144a.765.765 0 0 0 0 .114.897.897 0 0 0 0 .12h-4.585c.035.226.112.444.229.641.113.194.255.37.42.522.179.148.382.263.601.341.217.084.447.127.679.126a2.171 2.171 0 0 0 1.58-.701l.6.557c-.27.318-.611.566-.996.726a3.16 3.16 0 0 1-1.202.24c-.376 0-.748-.075-1.094-.222a2.914 2.914 0 0 1-.883-.6 2.787 2.787 0 0 1-.6-.893 2.65 2.65 0 0 1-.223-1.079 2.778 2.778 0 0 1 1.7-2.577 2.757 2.757 0 0 1 1.088-.222 2.665 2.665 0 0 1 1.947.815c.243.252.431.553.552.881.129.341.192.703.186 1.067zm-.914-.39a2.018 2.018 0 0 0-.6-1.144 1.715 1.715 0 0 0-1.202-.408 1.948 1.948 0 0 0-1.232.444 1.8 1.8 0 0 0-.414.491 1.88 1.88 0 0 0-.235.6l3.683.018z" fill="#FFF" fill-rule="nonzero"/><path d="M5.66 56.981V35.547c0-16.551 13.45-29.97 30.04-29.97h140.466c16.591 0 30.04 13.419 30.04 29.97v21.458" fill="#4CBEA0" fill-rule="nonzero"/><path d="M159.993 8.515v7.288c0 6.621-5.38 11.988-12.016 11.988H63.799c-6.636 0-12.016-5.367-12.016-11.988V8.515" fill="#336" fill-rule="nonzero"/><path d="M191.379 23.368a.745.745 0 0 0-.775-.6h-.643a2.65 2.65 0 0 0-.084-.36 1.013 1.013 0 0 0-.457-.563 1.204 1.204 0 0 0-.637-.15h-7.912a1.022 1.022 0 0 0-.877.54 3.412 3.412 0 0 0-.157.42v3.83c.037.132.081.262.132.389.178.374.56.609.974.6h7.888a1.074 1.074 0 0 0 1.094-.996v-.077h.709a.704.704 0 0 0 .6-.282 2.06 2.06 0 0 0 .157-.324v-2.397l-.012-.03zm-2.145 2.997a.39.39 0 0 1-.445.42h-7.768a.433.433 0 0 1-.349-.115.401.401 0 0 1-.108-.305v-3.477a.383.383 0 0 1 .439-.437h7.81a.39.39 0 0 1 .42.245c.02.058.03.119.03.18l-.03 3.489zm1.436-.666h-.715v-2.158h.715V25.7z" fill="#000" fill-rule="nonzero"/><path d="M187.39 24.926c-.247-.485-.481-.971-.734-1.45a.601.601 0 0 0-.54-.318h-4.434a.355.355 0 0 0-.397.395v2.074a.36.36 0 0 0 .409.402h5.87c.228 0 .306-.126.21-.33l-.385-.773zm-11.842-1.366a4.375 4.375 0 0 0-5.9 0 .306.306 0 0 0-.054.443.307.307 0 0 0 .45 0l.132-.12a3.713 3.713 0 0 1 3.335-.767 3.66 3.66 0 0 1 1.634.869.313.313 0 0 0 .475 0 .317.317 0 0 0-.072-.426z" fill="#000" fill-rule="nonzero"/><path d="M174.82 24.584a3.322 3.322 0 0 0-2.649-.803 3.185 3.185 0 0 0-1.748.78 1.3 1.3 0 0 0-.18.245c.03.168.114.312.252.312a.511.511 0 0 0 .318-.108 2.756 2.756 0 0 1 2.403-.6c.443.101.856.307 1.202.6a.433.433 0 0 0 .307.102.402.402 0 0 0 .222-.222.257.257 0 0 0-.126-.306z" fill="#000" fill-rule="nonzero"/><path d="M174.016 25.507a2.298 2.298 0 0 0-1.334-.467 2.365 2.365 0 0 0-1.514.491.491.491 0 0 0-.138.21c-.04.12.01.25.12.312a.319.319 0 0 0 .39-.048 1.752 1.752 0 0 1 2.121 0c.186.132.367.126.475 0 .108-.126.072-.36-.12-.498zm-1.406.84a.566.566 0 0 0-.601.563.57.57 0 0 0 1.135 0 .6.6 0 0 0-.534-.563zm-7.769-4.328v5.448h1.16V22.02zm-1.574 1.744v3.704h1.112v-3.824h-1.118l.006.12zm-.474 1.163h-1.112v2.541h1.112v-2.469a.37.37 0 0 0 0-.072zm-2.703 2.541h1.135v-1.282h-1.136z" fill="#000" fill-rule="nonzero"/><path d="M77.732 40.109l3.4 7.983h-.925l-1.154-2.673h-3.665l-1.117 2.673h-1.093l3.604-7.983h.95zm-2.02 4.579h3.065l-1.514-3.596-1.55 3.596zm11.14 3.404v-.983a2.33 2.33 0 0 1-.841.768 2.52 2.52 0 0 1-1.274.311 2.896 2.896 0 0 1-1.202-.245 3.004 3.004 0 0 1-.961-.672 3.29 3.29 0 0 1-.649-.989 3.11 3.11 0 0 1 0-2.397 3.29 3.29 0 0 1 .649-.99c.273-.284.6-.512.961-.67a2.892 2.892 0 0 1 1.202-.246c.445-.01.884.097 1.274.311.34.183.628.446.84.768V39.7h.962v8.391h-.961zm0-2.996a2.267 2.267 0 0 0-.601-1.553 2.007 2.007 0 0 0-.66-.467 2.065 2.065 0 0 0-1.66 0 2.004 2.004 0 0 0-.66.467c-.19.202-.338.438-.439.695a2.344 2.344 0 0 0 0 1.715c.101.259.25.497.439.7.186.2.411.36.66.468.53.224 1.13.224 1.66 0 .249-.109.474-.268.66-.467a2.293 2.293 0 0 0 .601-1.571v.013zm7.714 2.996v-.983a2.33 2.33 0 0 1-.841.768 2.52 2.52 0 0 1-1.274.311 2.896 2.896 0 0 1-1.201-.245 3.004 3.004 0 0 1-.962-.672 3.29 3.29 0 0 1-.649-.989 3.11 3.11 0 0 1 0-2.397 3.29 3.29 0 0 1 .65-.99 2.99 2.99 0 0 1 .96-.67 2.895 2.895 0 0 1 1.202-.246c.445-.01.884.097 1.274.311.34.183.629.446.841.768V39.7h.961v8.391h-.961zm0-2.996a2.267 2.267 0 0 0-.6-1.553 2.007 2.007 0 0 0-.662-.467 2.065 2.065 0 0 0-1.658 0c-.25.109-.475.268-.66.467-.19.202-.339.438-.44.695a2.344 2.344 0 0 0 0 1.715c.101.259.25.497.44.7.185.2.41.36.66.468a2.13 2.13 0 0 0 1.658 0c.25-.109.475-.268.661-.467a2.293 2.293 0 0 0 .601-1.571v.013zm9.324 2.996V40.11h.962v7.983zm11.343 0v-3.416a1.891 1.891 0 0 0-.42-1.319 1.42 1.42 0 0 0-1.106-.467 1.402 1.402 0 0 0-1.099.473 1.91 1.91 0 0 0-.427 1.313v3.416h-.96v-3.416a1.891 1.891 0 0 0-.421-1.319 1.42 1.42 0 0 0-1.106-.467 1.406 1.406 0 0 0-1.1.473 1.91 1.91 0 0 0-.426 1.313v3.416h-.961V42.1h.961v.755c.148-.246.354-.452.6-.6a1.944 1.944 0 0 1 1.028-.251 2.16 2.16 0 0 1 1.262.353c.329.225.574.551.697.93.154-.38.417-.706.757-.936.371-.24.807-.361 1.25-.347.337-.006.672.057.985.185a2.26 2.26 0 0 1 1.255 1.29c.117.305.177.63.175.958v3.68l-.944-.024zm6.826 0a1.197 1.197 0 0 1-.163-.479 3.152 3.152 0 0 1-.042-.504 2.64 2.64 0 0 1-.384.396c-.16.13-.33.247-.51.348a2.607 2.607 0 0 1-1.28.336 2.184 2.184 0 0 1-1.407-.432 1.437 1.437 0 0 1-.54-1.199c0-.256.053-.509.156-.743a1.8 1.8 0 0 1 .6-.701 4.65 4.65 0 0 1 1.238-.6c.67-.22 1.358-.382 2.055-.485a1.048 1.048 0 0 0-.366-.828 1.547 1.547 0 0 0-1.04-.311 2.408 2.408 0 0 0-.985.18 3.799 3.799 0 0 0-.757.443l-.6-.683a3.74 3.74 0 0 1 1.08-.6 3.71 3.71 0 0 1 1.31-.227c.263.002.524.03.781.084.268.053.522.16.745.317a1.8 1.8 0 0 1 .553.636c.155.318.23.67.216 1.025v2.649c.001.237.021.473.06.707.034.244.11.48.229.695l-.95-.024zm-.289-3.248a11.01 11.01 0 0 0-1.52.347c-.33.097-.648.236-.943.414-.198.112-.365.27-.487.462a.963.963 0 0 0-.138.503c-.007.13.03.258.102.366a.768.768 0 0 0 .27.245c.118.07.246.118.379.144a1.806 1.806 0 0 0 1.087-.084 2.038 2.038 0 0 0 1.058-1.019c.12-.267.179-.558.174-.85l.018-.528zm8.676 2.566c.003.422-.077.841-.235 1.234a3.004 3.004 0 0 1-1.64 1.672c-.395.165-.82.249-1.25.246a2.952 2.952 0 0 1-2.45-1.199l.732-.6a2.086 2.086 0 0 0 1.719.84c.286.002.57-.053.835-.162.259-.108.492-.269.685-.473.2-.22.358-.474.468-.75.12-.32.18-.659.174-1v-.156a2.33 2.33 0 0 1-.84.767 2.52 2.52 0 0 1-1.274.311 2.878 2.878 0 0 1-1.202-.245 2.95 2.95 0 0 1-.961-.672 3.176 3.176 0 0 1-.65-.989 3.11 3.11 0 0 1 0-2.397c.153-.367.373-.703.65-.99a2.95 2.95 0 0 1 .961-.67 2.878 2.878 0 0 1 1.202-.246c.444-.01.884.097 1.273.311.34.183.629.446.841.768v-.983h.962v5.382zm-.962-2.326a2.269 2.269 0 0 0-.6-1.553 2.067 2.067 0 0 0-.661-.467 2.065 2.065 0 0 0-1.658 0 1.936 1.936 0 0 0-.661.467c-.19.202-.338.438-.439.695a2.344 2.344 0 0 0 0 1.715c.1.259.25.497.439.701.185.2.41.36.66.467.53.224 1.129.224 1.659 0 .249-.11.473-.27.66-.467a2.313 2.313 0 0 0 .601-1.558zm8.664-.036v.155a1.008 1.008 0 0 0 0 .132.512.512 0 0 0 0 .132h-5.07c.034.252.12.495.251.713a2.074 2.074 0 0 0 1.105.983c.243.092.5.138.758.138.323-.002.641-.07.937-.198.314-.136.593-.34.817-.599l.685.6c-.3.35-.679.625-1.105.803a3.504 3.504 0 0 1-1.334.263 3.098 3.098 0 0 1-2.199-.91 3.122 3.122 0 0 1-.667-.99 2.925 2.925 0 0 1-.246-1.198 3.08 3.08 0 0 1 .901-2.182 3.098 3.098 0 0 1 3.4-.666c.357.156.68.38.95.66.264.282.468.614.6.977.145.379.218.781.217 1.187zm-1.01-.432a2.288 2.288 0 0 0-.678-1.27 1.877 1.877 0 0 0-1.304-.456 2.029 2.029 0 0 0-.745.132 2.212 2.212 0 0 0-.6.36 1.931 1.931 0 0 0-.463.545 2.125 2.125 0 0 0-.259.689h4.05z" fill="#FFF" fill-rule="nonzero"/><path d="M25.696 24.8l.601-.06c.032.226.135.436.295.6a.8.8 0 0 0 .558.191c.182.005.36-.04.517-.131a1.2 1.2 0 0 0 .36-.354c.106-.188.185-.39.235-.6.065-.252.097-.512.096-.773a1.07 1.07 0 0 0 0-.126 1.452 1.452 0 0 1-1.232.678 1.444 1.444 0 0 1-1.081-.462c-.3-.326-.46-.756-.445-1.199-.02-.464.146-.917.463-1.258.3-.319.722-.493 1.16-.48.326-.003.646.091.919.27.285.188.507.457.637.773.165.463.239.954.216 1.445a4.635 4.635 0 0 1-.216 1.57c-.118.355-.34.666-.637.893-.291.206-.64.313-.998.306a1.468 1.468 0 0 1-.99-.336 1.437 1.437 0 0 1-.458-.947zm2.596-2.272a1.257 1.257 0 0 0-.294-.869.92.92 0 0 0-.697-.317.962.962 0 0 0-.74.347 1.28 1.28 0 0 0-.312.887c-.01.297.098.586.3.804.19.2.457.312.734.305a.932.932 0 0 0 .72-.305c.204-.236.307-.541.289-.852zm1.67.432v-.72h1.158v.72h-1.158zm0 2.997v-.72h1.158v.72h-1.158zm1.652-1.319l.661-.054c.03.276.153.534.349.732.176.161.41.247.649.24a1.04 1.04 0 0 0 .775-.342c.218-.254.33-.583.312-.917a1.197 1.197 0 0 0-.3-.851 1.057 1.057 0 0 0-.8-.312 1.126 1.126 0 0 0-.552.138 1.2 1.2 0 0 0-.39.36l-.602-.079.505-2.643h2.566v.6h-2.061l-.277 1.384a1.66 1.66 0 0 1 .974-.324c.429-.008.842.161 1.141.468.312.32.479.753.463 1.199.009.435-.136.859-.409 1.199-.33.402-.831.625-1.351.599a1.673 1.673 0 0 1-1.154-.396 1.521 1.521 0 0 1-.499-1zm4.014-.006l.63-.09c.04.293.17.565.373.78a.92.92 0 0 0 .637.233c.284.007.558-.103.757-.305.202-.204.313-.48.306-.768a.964.964 0 0 0-1.01-1c-.15.004-.3.028-.444.071l.066-.557h.103c.26.005.515-.068.733-.21a.713.713 0 0 0 .324-.647.766.766 0 0 0-.24-.6.818.818 0 0 0-.601-.227.866.866 0 0 0-.601.227c-.18.19-.29.435-.312.696l-.637-.114c.057-.37.24-.708.516-.96a1.54 1.54 0 0 1 1.028-.347c.269-.002.535.06.775.18.448.211.734.662.733 1.157 0 .213-.062.422-.18.6a1.21 1.21 0 0 1-.53.437c.282.057.533.212.71.437.175.242.264.535.252.833.008.433-.172.848-.492 1.14a1.745 1.745 0 0 1-1.244.473 1.624 1.624 0 0 1-1.13-.408 1.551 1.551 0 0 1-.522-1.03z" fill="#231F20" fill-rule="nonzero"/><path stroke="#FFF" stroke-linecap="round" d="M31.158 39.114l-4.59 4.585 4.566 4.555m-4.566-4.561h8.97"/><path stroke="#000" stroke-width=".75" stroke-linecap="round" stroke-linejoin="round" d="M40.957 22.067l3.953-1.828-1.802 4.19V22.15z"/><path fill="#EBE7F3" fill-rule="nonzero" d="M12.233 212.961H199.25v176.281H12.233z"/><path d="M63.084 246.017L39.935 269.91s-11.048 4.573-12.34 15.243c-1.292 10.669-1.995 24.736-1.995 24.736s-.234 11.251 3.996 19.696c4.23 8.446 9.87 21.92 9.87 21.92s2.819 13.6 31.242 15.95c28.424 2.35 72.276 1.289 72.276 1.289s25.06.713 32.443-21.578c7.384-22.292 9.012-25.882 9.012-25.882s2.926-9.506 3.004-16.945c.079-7.438.469-12.521.469-12.521s.943-10.448-7.167-18.072c-8.111-7.624-30.257-30.143-30.257-30.143s-7.81-9.938-9.955-11.335c-2.145-1.396-7.402-3.057-30.767-3.182-23.365-.126-28.976.76-33.446 4.71-4.47 3.95-13.236 12.222-13.236 12.222z" fill="#1F407B" fill-rule="nonzero" opacity=".5"/><path d="M71.477 367.538l.157-16.747s.69-2.763 4.493-2.398c3.804.366 60.837 0 60.837 0s5.66-.833 5.858 5.719l.174 14.703M31.5 333.534a17.04 17.04 0 0 1 3.84 4.436c1.321 2.433 6.29 16.243 22.09 21.914l13.747 2.805-.457 4.795s-18.084-.336-27.672-9.896a24.604 24.604 0 0 1-4.951-9.273l-6.597-14.78z" fill="#1F407B" fill-rule="nonzero" opacity=".5"/><path d="M178.18 337.988s-3.27 5.227-5.606 8.913c-2.337 3.686-12.389 15.069-29.65 15.782l.643 6.084s13.164 0 22.037-7.229c8.874-7.229 12.575-23.55 12.575-23.55z" fill="#1F407B" fill-rule="nonzero"/><path d="M127.358 239.556s41.455-4.55 49.265 0c4.763 2.774 18.698 13.514 29.794 22.878 7.1 5.993 8.49 37.574.079 50.047-8.412 12.474 2.57 11.943-16.055 25.13-18.624 13.186 13.218 32.966-63.083 39.56 0 0-83.331 6.113-84.232-26.842-.902-32.954 84.232-110.773 84.232-110.773z" fill="#999" fill-rule="nonzero" opacity=".2"/><path d="M63.084 246.017L39.935 269.91s-11.048 4.573-12.34 15.243c-1.292 10.669-1.995 24.736-1.995 24.736s-.234 11.251 3.996 19.696c4.23 8.446 9.87 21.92 9.87 21.92s2.819 13.6 31.242 15.95c28.424 2.35 72.276 1.289 72.276 1.289s25.06.713 32.443-21.578c7.384-22.292 9.012-25.882 9.012-25.882s2.926-9.506 3.004-16.945c.079-7.438.469-12.521.469-12.521s.943-10.448-7.167-18.072c-8.111-7.624-30.257-30.143-30.257-30.143s-7.81-9.938-9.955-11.335c-2.145-1.396-7.402-3.057-30.767-3.182-23.365-.126-28.976.76-33.446 4.71-4.47 3.95-13.236 12.222-13.236 12.222z" stroke="#336" stroke-width="2" stroke-linecap="round"/><path d="M58.909 256.543s-2.818 4.082 2.457 5.898c5.275 1.816 36.378-.366 47.56-.366 11.18 0 42.56.09 47.835-.27 5.275-.36 3.004-4.441.366-7.192-2.637-2.752-9.643-12.072-9.643-12.072s-2.36-4.993-11.367-5.443c-9.006-.45-27.036-.545-27.036-.545s-23.227.27-25.954.545c-2.728.276-8.19.27-11.734 4.538-3.545 4.267-12.484 14.907-12.484 14.907z" stroke="#FFF" stroke-width="2" fill="#1F407B" fill-rule="nonzero" opacity=".5"/><path d="M70.005 245.292l.86-.168c.558-.114 1.381-.27 2.403-.45 1.021-.18 2.325-.419 3.79-.599l2.344-.341c.823-.114 1.7-.132 2.607-.228 1.803-.18 3.791-.276 5.876-.42 2.085-.144 4.284-.3 6.56-.39l7.03-.263 3.605-.132h3.647l7.257-.042c2.404-.054 4.747.078 7.03.138l6.573.204 3.046.102 2.835.216c.908.083 1.803.083 2.614.203l2.343.318 3.809.515c2.109.288 3.304.474 3.304.474s-1.201 0-3.346-.03l-3.84-.06-2.354-.042c-.83 0-1.695-.132-2.602-.186l-2.83-.21-3.034-.101-6.548-.204c-2.271-.06-4.62-.192-7.006-.138l-7.24.042h-3.604l-3.605.132-7.005.264c-2.271.09-4.464.27-6.543.39-2.079.119-4.05.233-5.858.413-.907.066-1.772.197-2.601.227l-2.355.072-3.827.162-2.476.108-.859.024zm-10.183 13.516l.276.036c.186 0 .463.054.817.084l1.316.12 1.802.108c1.334.102 2.956.138 4.807.198.931.03 1.922.066 2.968.054 1.045-.012 2.139.12 3.28.162 2.29.137 4.806.161 7.402.233l4.037.09h8.58c1.472 0 2.968 0 4.47-.03l9.132-.168 33.644-.797c1.148 0 2.247-.108 3.293-.078 1.045.03 2.043.048 2.968.042 1.862 0 3.49.03 4.806-.054l.95-.036.823-.101c.435-.038.867-.11 1.291-.216l1.058-.294-1.022.408a8.27 8.27 0 0 1-1.28.365l-.828.192-.944.132c-1.34.204-2.962.336-4.806.503-.931.09-1.923.15-2.968.234-1.045.084-2.15.048-3.298.102l-33.645.797-9.138.168c-1.508.036-3.004.042-4.488.03h-8.616l-4.055-.09c-2.638-.072-5.125-.096-7.426-.24-1.148-.072-2.253-.066-3.298-.161a80.702 80.702 0 0 1-2.962-.336c-1.857-.234-3.479-.42-4.807-.653l-1.766-.288-1.304-.27c-.348-.072-.6-.132-.799-.18l-.27-.066z" fill="#336" fill-rule="nonzero"/><g opacity=".4" fill-rule="nonzero"><path d="M36.228 311.813s.8-11.389 4.579-7.763c3.779 3.627 3.893 7.763 11.222 12.45 7.33 4.687 14.42 6.51 14.54 10.052.12 3.542 1.832 11.388-2.29 9.818-4.12-1.57-19.922-7.307-19.922-7.307s-4.007-1.259-7.095-11.31c.006 0-1.208-4.22-1.034-5.94z" fill="#FFF"/><path d="M36.174 311.813s0-.39.103-1.11c.102-.719.21-1.798.468-3.116.143-.741.333-1.472.57-2.188a6.25 6.25 0 0 1 .53-1.199 2.4 2.4 0 0 1 1.075-1.049 1.806 1.806 0 0 1 1.64.276c.115.077.226.161.33.252l.175.144.132.137.553.558.559.6c.186.203.354.437.534.659.355.45.727.917 1.04 1.402l1.003 1.469c.33.497.66 1.013 1.04 1.486A23.241 23.241 0 0 0 48.388 313l1.454 1.337c.522.414 1.075.815 1.622 1.235.27.203.546.413.829.6l.883.598c.6.384 1.202.762 1.802 1.133 2.47 1.517 5.173 2.817 7.81 4.322.679.374 1.331.792 1.953 1.253a6 6 0 0 1 1.629 1.732c.21.369.343.777.39 1.199l.102 1.156.265 2.302c.236 1.56.3 3.143.192 4.717a4.72 4.72 0 0 1-.313 1.235 2.1 2.1 0 0 1-.955 1.097c-.455.208-.97.253-1.454.126-.39-.103-.775-.225-1.153-.366l-8.412-2.997c-2.733-.983-5.407-1.942-7.864-2.883l-1.844-.695-.902-.336c-.138-.054-.306-.114-.444-.18-.138-.065-.33-.185-.493-.275-.318-.198-.547-.414-.823-.6a9.2 9.2 0 0 1-.685-.683 10.194 10.194 0 0 1-1.153-1.439 9.802 9.802 0 0 1-.92-1.492l-.402-.737-.198-.36-.157-.372c-.204-.497-.408-.977-.6-1.444a11.48 11.48 0 0 1-.523-1.379c-.289-.899-.553-1.75-.8-2.53-.119-.375-.22-.757-.3-1.144-.084-.366-.168-.707-.234-1.043a25.539 25.539 0 0 1-.517-3.11 5.244 5.244 0 0 1 0-.834v-.33zm.12 0v.281c-.011.272 0 .545.037.815.12 1.037.32 2.063.6 3.07.174.723.393 1.436.655 2.133.3.755.601 1.57.968 2.44.17.45.37.889.6 1.312.229.438.457.893.697 1.355l.18.354.217.33.438.677c.288.472.61.922.962 1.348a9.69 9.69 0 0 0 1.13 1.265c.199.21.41.41.63.6.228.155.463.353.685.479l.33.18c.145.06.283.101.439.161l.907.324 1.85.665c2.512.888 5.143 1.865 7.865 2.89l8.381 3.164c.355.132.721.288 1.01.366.255.094.537.094.793 0 .432-.174.703-.887.81-1.582.177-1.503.191-3.02.043-4.526l-.163-2.32-.048-1.15a2.639 2.639 0 0 0-.282-1.013 5.55 5.55 0 0 0-1.49-1.625 16.122 16.122 0 0 0-1.886-1.258c-2.632-1.505-5.408-2.71-7.973-4.076a64.34 64.34 0 0 1-1.905-1.043l-.925-.54-.889-.599c-.6-.402-1.202-.78-1.742-1.199l-1.562-1.354a5.4 5.4 0 0 1-.715-.72c-.229-.245-.45-.497-.673-.743a13.826 13.826 0 0 1-1.202-1.534c-.75-1.025-1.364-2.086-1.976-3.057-.295-.504-.601-.941-.908-1.39-.156-.223-.288-.444-.456-.66l-.517-.6-.505-.599-.126-.144-.114-.108a2.27 2.27 0 0 0-.258-.228 1.204 1.204 0 0 0-1.1-.293c-.375.16-.688.434-.895.785a5.9 5.9 0 0 0-.6 1.085 12.775 12.775 0 0 0-.68 2.116 26.096 26.096 0 0 0-.54 3.08 82.734 82.734 0 0 0-.096 1.091v-.005z" fill="#336"/></g><g opacity=".4" fill-rule="nonzero"><path d="M176.617 309.906s-.799-11.424-4.578-7.792c-3.78 3.633-3.893 7.792-11.223 12.45-7.33 4.657-14.42 6.51-14.54 10.051-.12 3.543-1.832 11.419 2.29 9.825 4.121-1.595 19.922-7.313 19.922-7.313s4.008-1.259 7.102-11.31c.024.023 1.225-4.196 1.027-5.91z" fill="#FFF"/><path d="M176.557 309.906s-.03-.383-.114-1.102a26.317 26.317 0 0 0-.54-3.081 12.722 12.722 0 0 0-.68-2.11 5.762 5.762 0 0 0-.6-1.091 1.933 1.933 0 0 0-.896-.785 1.204 1.204 0 0 0-1.1.3 2.84 2.84 0 0 0-.258.221l-.114.108-.12.144-.51.6-.517.599c-.169.21-.3.437-.457.653-.294.45-.6.887-.907 1.39-.6.972-1.202 2.033-1.977 3.064a13.617 13.617 0 0 1-1.201 1.528c-.223.246-.445.497-.673.743a5.4 5.4 0 0 1-.715.72l-1.562 1.354c-.565.408-1.154.785-1.743 1.199l-.889.6-.925.539c-.6.36-1.262.701-1.905 1.043-2.577 1.366-5.34 2.571-7.972 4.076a16.91 16.91 0 0 0-1.887 1.258c-.6.435-1.105.988-1.484 1.625a2.543 2.543 0 0 0-.288 1.013l-.048 1.156-.162 2.314a21.05 21.05 0 0 0 .042 4.525c.108.696.378 1.409.81 1.583.257.094.538.094.794 0 .288-.078.655-.228 1.01-.366l8.374-3.17a411.079 411.079 0 0 1 7.865-2.89l1.85-.665.908-.324c.156-.06.294-.102.438-.161l.33-.18c.223-.126.457-.324.685-.48.229-.156.421-.395.601-.6.411-.39.79-.816 1.13-1.27.352-.426.673-.877.961-1.348l.439-.678.222-.33.174-.353.697-1.355c.23-.421.43-.858.6-1.306l.968-2.446c.262-.695.48-1.406.655-2.128.28-1.006.48-2.032.6-3.069.037-.272.049-.547.037-.82l.054-.247zm.12 0v.282c.022.28.022.56 0 .84a25.48 25.48 0 0 1-.517 3.104c-.066.336-.15.683-.234 1.05a10.02 10.02 0 0 1-.3 1.138l-.793 2.535c-.15.468-.326.926-.53 1.373-.191.467-.396.947-.6 1.444l-.156.372-.198.36-.403.737a10.257 10.257 0 0 1-.913 1.492c-.344.514-.732.998-1.16 1.445-.228.222-.426.468-.685.677-.258.21-.504.42-.823.6-.156.09-.33.192-.492.275-.162.084-.3.126-.445.18l-.901.336-1.845.695c-2.487.941-5.13 1.906-7.864 2.883l-8.441 2.997c-.378.141-.763.263-1.154.366-.484.13-.999.085-1.454-.126a2.1 2.1 0 0 1-.955-1.097 4.72 4.72 0 0 1-.312-1.235 21.558 21.558 0 0 1 .192-4.717l.264-2.302.102-1.15c.048-.422.181-.83.39-1.2a6 6 0 0 1 1.63-1.731c.621-.461 1.274-.88 1.952-1.253 2.667-1.505 5.37-2.805 7.84-4.316.6-.377 1.232-.755 1.803-1.139l.883-.599.829-.6c.547-.419 1.1-.815 1.622-1.234l1.454-1.337c.9-.885 1.723-1.843 2.463-2.865.379-.473.71-.989 1.04-1.486l1.003-1.469c.312-.485.685-.953 1.04-1.402.18-.222.348-.456.534-.66l.565-.57c.18-.19.366-.377.546-.563l.133-.137.174-.144c.107-.09.22-.175.336-.252a1.806 1.806 0 0 1 1.634-.27 2.4 2.4 0 0 1 1.082 1.043c.217.381.396.783.535 1.199.231.717.42 1.448.564 2.188.259 1.336.39 2.397.469 3.117.078.719.096 1.12.096 1.12v.006z" fill="#336"/></g><path d="M70.005 329.974s2.404-2.625 3.894-2.997c1.49-.372 43.39-.803 65.372 0 0 0 3.209 1.367 3.551 2.997 0 0-1.946 5.029-3.322 5.712-1.376.684-6.543 2.512-6.543 2.512s-14.696 1.942-26.177 2.283c-11.481.342-27.516-2.397-31.524-3.896.024 0-4.446-2.84-5.25-6.611z" stroke="#FFF" stroke-width="2" fill="#1F407B" fill-rule="nonzero" opacity=".5"/><path d="M27.565 313.886l4.344 6.324a428.13 428.13 0 0 0 5.094 7.193c1.004 1.36 2.08 2.817 3.28 4.267a16.898 16.898 0 0 0 1.857 2.062c.199.144.403.324.601.438l.6.36c.403.24.884.443 1.329.67 3.755 1.643 8.165 2.764 12.845 3.663 4.68.9 9.697 1.552 14.894 2.08 5.196.527 10.592.845 16.07 1.127 2.747.09 5.51.204 8.286.27 2.776.065 5.57.101 8.357.12 5.581 0 11.15-.049 16.642-.264 5.491-.216 10.869-.6 16.065-1.121a143.82 143.82 0 0 0 14.852-2.266 69.604 69.604 0 0 0 12.821-3.848 37.418 37.418 0 0 0 5.221-2.74 18.363 18.363 0 0 0 4.062-3.326c.534-.6 1.003-1.283 1.484-1.924.48-.641.925-1.253 1.363-1.846l2.404-3.249 1.94-2.62c.6-.754 1.003-1.432 1.382-1.965l1.135-1.654-1.033 1.72c-.342.551-.733 1.265-1.262 2.056l-1.802 2.715-2.229 3.369-1.268 1.918c-.438.653-.877 1.354-1.43 2.056a19.287 19.287 0 0 1-4.103 3.734 30.81 30.81 0 0 1-5.407 2.853 70.507 70.507 0 0 1-13.043 3.926 145.512 145.512 0 0 1-14.984 2.284 305.014 305.014 0 0 1-32.816 1.366c-2.8 0-5.593-.084-8.381-.12-2.788-.036-5.558-.18-8.31-.27-5.496-.281-10.916-.599-16.137-1.132-5.22-.534-10.261-1.2-15.02-2.092a62.92 62.92 0 0 1-13.115-3.752c-.487-.246-.961-.444-1.442-.726l-.709-.425c-.24-.144-.414-.3-.6-.45a12.765 12.765 0 0 1-2.055-2.283c-1.154-1.553-2.151-3.063-3.089-4.484-1.874-2.847-3.442-5.394-4.728-7.438-1.285-2.044-2.265-3.729-2.938-4.85l-1.027-1.726z" fill="#336" fill-rule="nonzero"/><path d="M71.634 366.31v-15.52s.69-2.762 4.493-2.397c3.804.366 60.837 0 60.837 0s5.66-.833 5.858 5.719v13.965" stroke="#336" stroke-width="2" stroke-linecap="round"/><path d="M142.804 362.09s.6 0 1.646-.102a40.74 40.74 0 0 0 4.368-.6 45.288 45.288 0 0 0 6.008-1.624 41.872 41.872 0 0 0 3.286-1.295 42.295 42.295 0 0 0 3.257-1.63c.54-.294 1.057-.6 1.58-.93a35.498 35.498 0 0 0 4.302-3.183 38.405 38.405 0 0 0 2.403-2.283l1.04-1.133.906-1.108a36.852 36.852 0 0 0 1.49-2.026c.42-.618.775-1.2 1.04-1.637l.883-1.504-.793 1.498c-.253.48-.601 1.025-.997 1.673a28.488 28.488 0 0 1-1.43 2.08l-.884 1.144-1.003 1.2c-.715.79-1.496 1.6-2.349 2.397-.853.797-1.802 1.552-2.758 2.29-.492.359-.997.713-1.508 1.066-.51.354-1.033.678-1.568.995-1.07.6-2.157 1.235-3.268 1.756a51.139 51.139 0 0 1-3.299 1.421 46.343 46.343 0 0 1-6.104 1.84c-1.47.34-2.958.6-4.458.78-1.081.131-1.73.155-1.73.155a.6.6 0 1 1 0-1.199l-.06-.042zm-71.128 1.198s-.77 0-2.055-.096a42.058 42.058 0 0 1-5.305-.773 41.994 41.994 0 0 1-3.473-.869 52.077 52.077 0 0 1-3.773-1.283 30.329 30.329 0 0 1-3.875-1.798 35.986 35.986 0 0 1-7.258-4.915c-.54-.48-1.081-.953-1.574-1.462l-.75-.738a29.775 29.775 0 0 1-.704-.773c-.228-.252-.462-.503-.685-.755l-.63-.78a34.533 34.533 0 0 1-1.202-1.54c-.757-1.007-1.364-2.026-1.947-2.96l-.757-1.38c-.24-.437-.468-.85-.648-1.258-.367-.815-.733-1.499-.95-2.098l-.745-1.864.793 1.84c.235.6.601 1.27 1.004 2.068.203.426.43.84.679 1.24.246.432.51.888.787 1.355.6.911 1.231 1.912 2.006 2.895.367.51.781.995 1.202 1.493l.643.755c.228.246.462.486.697.731l.715.744.763.713c.498.491 1.045.94 1.592 1.402a37.955 37.955 0 0 0 3.49 2.548 38.874 38.874 0 0 0 3.773 2.104 39.703 39.703 0 0 0 3.84 1.642c1.28.45 2.529.857 3.73 1.163 1.202.306 2.35.6 3.419.761 1.714.31 3.446.51 5.185.6 1.268.071 1.958.041 1.958.041a.602.602 0 0 1 .631.6.6.6 0 0 1-.6.6h.024v.047z" fill="#336" fill-rule="nonzero"/><path d="M84.076 352.865v12.755m11.409-13.624v13.624m11.74-12.755v12.755m10.982-12.755v12.755m11.673-12.755v12.755" stroke="#336" stroke-width="2" stroke-linecap="round"/><path d="M55.736 263.16a434.741 434.741 0 0 0-3.334 10.83 288.394 288.394 0 0 0-3.004 10.91l-.685 2.745-.66 2.745c-.451 1.798-.896 3.65-1.257 5.497-.192.917-.354 1.84-.51 2.763a54.785 54.785 0 0 0-.39 2.77l-.133 1.39c0 .455-.054.923-.054 1.378-.022.89.058 1.779.24 2.65l-.39-.414c.985.336 1.934.701 2.884 1.09.949.39 1.886.798 2.823 1.2.938.401 1.85.863 2.782 1.294.457.222.925.426 1.376.666l1.364.707c.895.48 1.802.911 2.703 1.432l2.662 1.517c.444.246.89.497 1.316.78l1.297.808 2.596 1.625-.265-.096c3.263.36 6.543.665 9.818.929 3.274.264 6.554.51 9.835.707 1.64.108 3.286.192 4.926.27 1.64.078 3.287.174 4.927.222 1.64.048 3.286.131 4.926.167l4.933.102c1.64.036 3.286 0 4.926.03h2.47l2.463-.042c1.64-.042 3.286-.036 4.926-.108l4.921-.21c1.64-.071 3.274-.221 4.915-.323l2.457-.18 2.445-.264 2.445-.257 1.202-.132 1.201-.18 4.86-.731-.27.126a130.383 130.383 0 0 1 5.077-3.818c.86-.6 1.725-1.2 2.596-1.799a59.875 59.875 0 0 1 2.655-1.75c.445-.282.883-.6 1.34-.851l1.364-.827c.925-.522 1.832-1.067 2.788-1.547.474-.245.943-.503 1.43-.719.486-.216.967-.461 1.465-.665l1.502-.6 1.569-.48-.457.6c0-1.798-.066-3.554-.144-5.334-.078-1.78-.187-3.56-.325-5.335-.066-.887-.132-1.798-.228-2.661l-.24-2.661-.253-2.662c-.078-.887-.204-1.798-.306-2.655a73.168 73.168 0 0 0-.355-2.65c-.138-.88-.252-1.798-.414-2.643l-.487-2.625c-.168-.875-.39-1.738-.6-2.607-.103-.438-.193-.875-.307-1.301l-.366-1.289c-.259-.85-.457-1.726-.781-2.553-.325-.827-.601-1.696-.926-2.512l-1.111-2.445 1.237 2.397c.391.81.697 1.655 1.052 2.476.354.821.6 1.684.907 2.535l.427 1.277c.132.432.24.863.36 1.295.234.869.499 1.726.703 2.601l.6 2.625c.205.876.35 1.763.53 2.644.18.88.336 1.762.474 2.65.138.886.3 1.797.42 2.66l.367 2.668c.102.887.192 1.798.277 2.673.084.875.132 1.798.21 2.685.138 1.798.24 3.597.318 5.395.078 1.798.144 3.596.15 5.394v.444l-.462.138-1.454.443-1.436.6c-.475.191-.943.431-1.412.641-.468.21-.931.461-1.394.701-.93.468-1.802 1.007-2.733 1.523l-1.34.809c-.45.27-.89.563-1.328.839-.89.557-1.754 1.15-2.625 1.732-.872.582-1.725 1.199-2.578 1.798a113.13 113.13 0 0 0-5.022 3.777l-.127.101h-.144l-4.908.738-1.202.186-1.232.131-2.469.258-2.463.264-2.47.18c-1.646.108-3.292.257-4.938.33l-4.95.21c-1.647.071-3.299.065-4.945.107l-2.475.042h-2.476c-1.646 0-3.298 0-4.944-.03l-4.945-.102c-1.646-.036-3.292-.114-4.944-.168-1.653-.054-3.293-.138-4.939-.221a340.672 340.672 0 0 1-4.939-.276c-3.292-.196-6.58-.432-9.865-.707a482.762 482.762 0 0 1-9.853-.93h-.132l-.126-.083-2.572-1.607-1.28-.803c-.426-.276-.864-.521-1.303-.773l-2.637-1.499c-.872-.515-1.803-.94-2.674-1.42l-1.346-.696c-.444-.24-.913-.437-1.364-.659-.919-.425-1.802-.887-2.745-1.277-.944-.39-1.845-.82-2.788-1.198a57.89 57.89 0 0 0-2.806-1.061l-.324-.114-.072-.306a12.29 12.29 0 0 1-.283-2.997c0-.491.042-.97.06-1.45l.133-1.439c.114-.947.24-1.894.396-2.835.156-.941.33-1.876.523-2.805.192-.93.396-1.858.6-2.781.205-.923.41-1.852.656-2.77.45-1.84.997-3.656 1.538-5.472a356.911 356.911 0 0 1 3.484-10.789 295.297 295.297 0 0 1 3.87-10.723z" fill="#336" fill-rule="nonzero"/><path d="M175.013 292.686l1.646-1.72v-1.876l7.859-4.826s2.8 2.95 3.304 10.352l-3.304 2.236s-1.382-5.173-3.972-3.105l-5.533-1.061zm-135.078 0l-1.646-1.72v-1.876l-7.858-4.826s-2.8 2.95-3.305 10.352l3.305 2.236s1.382-5.173 3.971-3.105l5.533-1.061z" stroke="#336" stroke-width="2" fill="#FFF" fill-rule="nonzero" opacity=".4" stroke-linecap="round"/><path d="M108.703 316.943a2.37 2.37 0 0 1-2.393 2.338 2.37 2.37 0 0 1-2.353-2.378 2.37 2.37 0 0 1 2.373-2.357 2.4 2.4 0 0 1 2.373 2.397zm31.079-2.08a2.397 2.397 0 0 1-1.47 2.24c-.9.378-1.941.175-2.632-.514a2.393 2.393 0 0 1-.515-2.627 2.403 2.403 0 0 1 2.244-1.466 2.4 2.4 0 0 1 2.373 2.367zm23.99-11.268a2.37 2.37 0 0 1-2.383 2.337 2.37 2.37 0 0 1-2.363-2.357 2.376 2.376 0 1 1 4.051-1.684c.453.451.703 1.066.695 1.704zm-87.548 11.664a2.397 2.397 0 0 1-1.466 2.243c-.9.381-1.942.18-2.634-.51a2.393 2.393 0 0 1-.518-2.627 2.402 2.402 0 0 1 2.244-1.468 2.37 2.37 0 0 1 2.374 2.362zM52.96 304.985a2.397 2.397 0 0 1-1.469 2.24 2.41 2.41 0 0 1-2.633-.514 2.393 2.393 0 0 1-.515-2.627 2.403 2.403 0 0 1 2.245-1.466 2.4 2.4 0 0 1 2.373 2.367z" fill="#FFF" fill-rule="nonzero" opacity=".4"/><path d="M79.624 239.112S77 242.38 77.18 242.781c0 0 4.806-.6 6.158-.78 0 0 1.268-2.35 1.989-2.889a36.668 36.668 0 0 0-5.702 0h0zm56.506-.12s5.25.21 6.242.75c.99.54 3.442 3.039 3.442 3.039l-7.967-.78-1.718-3.009z" stroke="#CCC" stroke-width="2" opacity=".5" stroke-linecap="round"/><path d="M96.59 239.682l-2.505.042.15-.234c.067-.114.079-.18 0-.21a.602.602 0 0 0-.288-.042 1.156 1.156 0 0 0-.408.066.51.51 0 0 0-.24.186c-.067.108-.067.186 0 .24.198.1.414.16.636.18a8.066 8.066 0 0 1 1.935.503c.228.138.24.36.048.671a1.303 1.303 0 0 1-.601.504c-.387.145-.79.242-1.202.288-.597.083-1.199.13-1.802.137a10.43 10.43 0 0 1-1.766-.101c-.463-.072-.727-.174-.805-.3-.079-.126-.042-.312.108-.552l.126-.203 2.505-.042-.24.383c-.072.12-.084.198-.036.234a.717.717 0 0 0 .342.042c.15.005.299-.02.439-.072a.493.493 0 0 0 .252-.192c.12-.186.114-.311 0-.365-.355-.11-.716-.2-1.081-.27-.601-.126-.968-.216-1.148-.276a.703.703 0 0 1-.384-.246c-.072-.101-.06-.24.048-.413.15-.241.373-.428.637-.534a4.617 4.617 0 0 1 1.147-.281 12.646 12.646 0 0 1 1.7-.12c.576-.018 1.152.006 1.725.072.29.006.572.09.817.245.096.102.06.282-.096.534l-.012.126zm1.67-.977l2.716-.042h1.665c.269.012.535.058.793.138.156.068.24.146.252.233a.784.784 0 0 1-.168.444l-.174.276c-.113.191-.28.346-.481.443a3.01 3.01 0 0 1-.89.228c-.483.068-.97.106-1.46.114h-.726l-.8 1.283-2.697.042 1.97-3.16zm2.362.497l-.505.81h.199c.184.004.368-.019.546-.066a.498.498 0 0 0 .289-.234l.168-.258c.066-.108.054-.18-.036-.21a2.577 2.577 0 0 0-.661-.042zm4.224-.605l4.5-.072-.42.635-1.803.03-.373.6 1.682-.03-.378.6h-1.682l-.439.694 1.983-.03-.397.636-4.68.078zm10.117-.162l-.445 3.153-2.751.048.21-.57h-.967l-.517.6-2.788.048 3.359-3.201 3.9-.078zm-2.704 2.068c.115-.451.256-.895.421-1.33-.655.599-1.105 1.06-1.352 1.348l.931-.018zm4.705-2.098l1.91-.03h2.56c.33 0 .657.074.955.216.204.12.228.312.054.6a1.147 1.147 0 0 1-.6.503c-.419.11-.849.166-1.28.168.33.003.657.054.973.15.144.065.216.125.228.18a1.138 1.138 0 0 1-.228.467l-.523.839-2.505.042.66-1.055c.109-.174.127-.276.067-.318a1.915 1.915 0 0 0-.65-.048l-.894 1.433-2.698.042 1.97-3.189zm2.36.498l-.444.707c.222.006.443-.01.661-.048a.48.48 0 0 0 .337-.252l.114-.174c.06-.102.042-.161-.054-.191a2.632 2.632 0 0 0-.613-.042zm9.824.257l-2.505.042.144-.233c.072-.114.078-.18.036-.21a.638.638 0 0 0-.295-.042c-.136 0-.272.022-.402.066a.462.462 0 0 0-.24.192c-.066.101-.072.18 0 .233.2.1.419.164.642.186a8.373 8.373 0 0 1 1.935.498c.222.137.234.36.042.67a1.285 1.285 0 0 1-.57.504c-.377.146-.77.243-1.172.288-.598.083-1.2.13-1.803.138a10.556 10.556 0 0 1-1.772-.096c-.457-.078-.727-.18-.805-.306-.078-.126-.036-.311.108-.545l.132-.21 2.506-.042-.24.39c-.079.12-.09.192-.043.228a.77.77 0 0 0 .343.042c.151.005.302-.02.444-.072a.493.493 0 0 0 .253-.192c.114-.186.108-.312 0-.366a8.476 8.476 0 0 0-1.082-.264c-.6-.125-.967-.221-1.147-.275a.703.703 0 0 1-.379-.252c-.078-.102-.06-.24.042-.408.15-.243.372-.432.637-.54a4.78 4.78 0 0 1 1.148-.28 12.724 12.724 0 0 1 1.7-.12c.578-.018 1.156.006 1.73.071.29.01.57.095.817.246.09.108.06.282-.096.533l-.108.126zm-22.476 47.982c-8.483 0-15.392-4.676-15.392-10.424 0-2.835 1.64-5.556 4.5-7.468a17.954 17.954 0 0 1 10.49-2.698 15.643 15.643 0 0 1 9.51 3.471c1.935 1.69 2.794 3.662 2.367 5.394-1.081 4.43-6.879 4.466-7.444 4.46-3.256-.324-4.722-1.798-5.317-2.673 2.506-.204 5.918-1.163 6.062-3.842a2.923 2.923 0 0 0-1.321-2.632c-1.845-1.342-4.927-1.354-5.06-1.354h-5.154v12.743h1.64v-11.575h3.49s2.53.03 3.876 1.007c.597.397.93 1.086.871 1.799-.15 2.787-5.347 2.775-5.57 2.78h-1.05l.24.72c.054.144 1.303 3.656 7.09 4.196h.077c.078 0 7.81.144 9.162-5.395.511-2.074-.48-4.381-2.71-6.33-2.643-2.301-6.644-3.763-10.705-3.901-4.41-.144-8.568.923-11.704 2.997-3.136 2.073-4.999 5.142-4.999 8.295 0 6.378 7.637 11.568 17.027 11.568a22.431 22.431 0 0 0 12.232-3.386c3.347-2.2 5.185-5.113 5.185-8.194h-1.634c0 5.67-7.216 10.442-15.759 10.442zm-26.435 6.329a3.058 3.058 0 0 0-.745-.515 7.182 7.182 0 0 0-.98-.42 7.338 7.338 0 0 0-1.039-.264 5.365 5.365 0 0 0-.895-.09h-5.972V303.2h1.67v-10.004h3.966c.185.002.37.022.552.06.21.048.427.102.637.168a7 7 0 0 1 .601.216c.159.06.31.139.45.234.294.21.557.46.782.743.25.315.382.707.372 1.109.007.264-.053.526-.174.761-.118.214-.27.406-.45.57-.186.16-.387.3-.601.42-.205.119-.391.227-.565.317-.138.064-.28.116-.427.156-.174.048-.36.09-.565.125l-.6.09c-.193 0-.355.048-.499.054-.18.019-.361.019-.54 0h-1.587l5.335 4.981h2.007l-4.32-4.022a.054.054 0 0 1 0-.048s.042-.048.12-.048c.378 0 .755-.042 1.124-.125.35-.078.693-.182 1.027-.312.297-.119.585-.261.86-.426.227-.13.444-.278.648-.443a2.66 2.66 0 0 0 .601-.833 2.53 2.53 0 0 0 .27-1.151 2.43 2.43 0 0 0-.366-1.39 6.535 6.535 0 0 0-.697-.93zm9.463-1.289L82.64 303.2h2.151l2.193-3.686h7.21l2.264 3.686h1.803l-6.681-11.017H89.7zm-2.08 6.318l3.047-4.945 2.974 4.945h-6.02zm15.898 3.375a2.652 2.652 0 0 1-.547-.282 2.215 2.215 0 0 1-.402-.372.713.713 0 0 1-.21-.467v-8.572h-1.7v8.853c.004.132.037.26.095.378.068.154.155.299.259.432.115.15.246.289.39.413.15.13.31.246.48.348.372.193.765.34 1.172.437.352.092.713.144 1.076.156h5.094V302h-4.806a2.27 2.27 0 0 1-.901-.125zm12.406 0a2.742 2.742 0 0 1-.54-.282 2.215 2.215 0 0 1-.403-.372.689.689 0 0 1-.21-.467v-8.572h-1.7v8.853c.005.131.035.26.09.378.07.154.159.299.264.432.236.31.532.568.871.76a5 5 0 0 0 1.172.438c.35.092.708.144 1.07.156h5.1V302h-4.806a2.27 2.27 0 0 1-.908-.125zm9.776-9.693h1.887v11.017H125.7zm21.171 3.387a6.109 6.109 0 0 0-1.736-1.756 9.154 9.154 0 0 0-2.56-1.199 11.085 11.085 0 0 0-3.141-.438 10.898 10.898 0 0 0-3.125.438 9.021 9.021 0 0 0-2.54 1.199 6 6 0 0 0-1.701 1.756 4.044 4.044 0 0 0 0 4.28 6 6 0 0 0 1.7 1.756c.78.53 1.637.934 2.541 1.199 1.015.294 2.068.44 3.125.431a11.085 11.085 0 0 0 3.142-.431 9.142 9.142 0 0 0 2.56-1.2 6.109 6.109 0 0 0 1.735-1.755 3.91 3.91 0 0 0 0-4.28zm-1.321 3.926a4.987 4.987 0 0 1-1.418 1.42 7.146 7.146 0 0 1-2.09.96 9.032 9.032 0 0 1-2.56.347 8.821 8.821 0 0 1-2.524-.347 6.91 6.91 0 0 1-2.054-.96 4.92 4.92 0 0 1-1.382-1.42 3.231 3.231 0 0 1-.505-1.738c0-.617.175-1.222.505-1.744a4.8 4.8 0 0 1 1.382-1.421 7.217 7.217 0 0 1 2.054-.959 8.616 8.616 0 0 1 2.524-.36 8.803 8.803 0 0 1 2.56.36c.742.21 1.447.533 2.09.959.567.37 1.05.853 1.418 1.42.338.52.518 1.126.516 1.745.01.615-.161 1.22-.492 1.738h-.024z" fill="#FFF" fill-rule="nonzero"/><path d="M73.85 329.554h10.178l10.424.054 11.944.084c2.036.036 4.067.048 6.068.042l5.876.036h10.41c1.526 0 2.92-.042 4.158-.06l3.208-.066 2.806-.036-2.788.264-3.202.282c-1.238.102-2.632.264-4.158.306l-4.932.21c-1.748.06-3.605.167-5.497.173l-5.888.066h-6.074l-6.074-.084c-2.007 0-3.978-.096-5.882-.144a426.366 426.366 0 0 1-10.424-.42c-3.046-.161-5.587-.335-7.366-.443-1.778-.108-2.788-.264-2.788-.264zm.697 3.291h10.178l10.424.048 11.944.09c2.036.036 4.067.042 6.068.036l5.875.036c1.905.03 3.75 0 5.492 0h4.926c1.526 0 2.92-.048 4.158-.066l3.208-.066 2.806-.036-2.788.27-3.202.282c-1.238.101-2.632.257-4.158.3l-4.932.215c-1.749.06-3.605.168-5.497.168l-5.888.066c-2.007 0-4.038.03-6.074 0l-6.074-.144c-2.007 0-3.978-.102-5.882-.15a398.252 398.252 0 0 1-10.424-.42c-3.046-.167-5.588-.335-7.366-.443a195.228 195.228 0 0 1-2.794-.186zm-.558 3.039h10.177l10.424.054 11.944.084c2.037.036 4.067.042 6.068.042l5.876.036h10.418c1.526 0 2.92-.042 4.157-.06l3.208-.066 2.8-.036-2.782.264-3.202.281c-1.237.102-2.631.258-4.157.306l-4.933.21c-1.748.06-3.605.168-5.503.174l-5.882.066h-6.074l-6.074-.084c-2.007 0-3.977-.102-5.882-.15a428.568 428.568 0 0 1-10.424-.414c-3.046-.162-5.587-.341-7.366-.443-1.778-.102-2.793-.264-2.793-.264z" opacity=".3" fill="#0F1031" fill-rule="nonzero"/><path fill="#FFF" fill-rule="nonzero" d="M94.62 336.585l2.29-4.555h5.725v-1.942h7.21v1.6l8.362.228-2.409 4.67h-5.72l-.114 1.384h-7.786v-1.385z"/><path d="M148.085 327.355s.048-.336.186-.917c.184-.808.431-1.6.74-2.368.208-.532.47-1.042.78-1.522a3.85 3.85 0 0 1 .667-.774c.35-.32.833-.453 1.298-.36l.186.06h.042c-.048 0 .078.049.066.043l.048.03.205.125c.175.13.336.276.48.438.12.156.229.312.343.468l.258.503c.281.67.47 1.373.565 2.092a9.442 9.442 0 0 1 0 2.14 6.754 6.754 0 0 1-.529 2.038c-.146.322-.33.626-.547.905l-.078.102-.036.042-.042.036-.162.155a3.13 3.13 0 0 1-.409.318 2.534 2.534 0 0 1-1.838.42 2.767 2.767 0 0 1-1.382-.636 2.728 2.728 0 0 1-.697-.893 1.795 1.795 0 0 1-.174-.69v-.25s0 .083.06.239c.07.215.176.418.313.6.213.254.469.469.757.635.366.208.78.322 1.201.33a1.92 1.92 0 0 0 1.238-.45c.098-.072.187-.157.264-.252l.144-.168.036-.048c0-.03-.03 0 0 0l.048-.084c.06-.114.139-.215.199-.341.06-.126.108-.246.168-.372.19-.564.307-1.15.348-1.744a8.187 8.187 0 0 0-.06-1.876 6.927 6.927 0 0 0-.432-1.798l-.186-.384-.217-.342a.858.858 0 0 1-.09-.108c-.036-.036-.042-.077-.126-.125l-.192-.144-.048-.036h.048-.036a.53.53 0 0 0-.433.12c-.207.15-.393.327-.553.527-.323.408-.616.838-.877 1.289-.499.857-.871 1.618-1.135 2.146l-.409.88zm6.393 2.199s.396-.425 1.021-1.198c.312-.39.679-.875 1.063-1.45a8.52 8.52 0 0 0 .571-.93c.084-.174.192-.336.276-.515.085-.18.15-.372.235-.558.3-.779.6-1.696.931-2.613a42.07 42.07 0 0 1 1.166-2.907c.45-1.033.97-2.035 1.556-2.997.162-.246.312-.498.498-.737a6.6 6.6 0 0 1 .601-.714c.106-.124.222-.238.349-.341.123-.122.26-.228.408-.318l.24-.138.12-.066h.03l.109-.036h.054a.987.987 0 0 1 .312-.042c.088-.009.177-.009.265 0 .066.012.13.032.192.06.378.17.693.452.901.81.175.276.322.57.439.875.216.563.38 1.145.492 1.738.221 1.128.304 2.28.247 3.428a7.825 7.825 0 0 1-.727 3.201 2.736 2.736 0 0 1-1.142 1.199 1.88 1.88 0 0 1-.81.216.53.53 0 0 1-.133 0h-.571a5.682 5.682 0 0 1-.715-.186 2.615 2.615 0 0 1-.6-.36l-.247-.228c-.066-.078-.126-.173-.186-.257a2.306 2.306 0 0 1-.277-.522 4.216 4.216 0 0 1-.222-1.864c.028-.404.09-.805.186-1.199.066-.263.109-.395.109-.395a7.218 7.218 0 0 0-.024 1.546c.018.581.155 1.152.402 1.678a1.899 1.899 0 0 0 1.616 1.05 1.82 1.82 0 0 0 1.106-.192 2 2 0 0 0 .715-.912 7.56 7.56 0 0 0 .48-2.84 14.67 14.67 0 0 0-.324-3.165 9.842 9.842 0 0 0-.45-1.535 4.234 4.234 0 0 0-.337-.66.912.912 0 0 0-.337-.34c.03-.097-.48.215-.81.599a5.51 5.51 0 0 0-.5.599c-.168.21-.312.437-.462.665a28.697 28.697 0 0 0-1.58 2.835 78.348 78.348 0 0 0-1.292 2.794c-.39.899-.739 1.75-1.13 2.553-.107.198-.21.396-.306.6-.096.203-.234.347-.348.515a8.76 8.76 0 0 1-.691.905c-.391.47-.81.917-1.256 1.337-.36.353-.673.599-.877.779l-.336.233zm-1.01-9.062c.37.099.716.272 1.016.51.31.23.59.503.829.808.273.352.501.737.679 1.145.171.41.292.838.36 1.277.03.21.036.42.048.6.013.18.013.363 0 .545a3.78 3.78 0 0 1-.168.797c-.06.186-.108.294-.108.294s-.054-.108-.132-.288c-.036-.09-.085-.198-.12-.318-.037-.12-.109-.258-.157-.407a4.62 4.62 0 0 0-.18-.468l-.186-.503c-.138-.348-.277-.714-.433-1.067-.156-.354-.306-.72-.474-1.05-.169-.329-.313-.653-.451-.928l-.523-.947zm13.915-3.705s-.066-.143-.18-.42a8.168 8.168 0 0 1-.385-1.198 5.55 5.55 0 0 1-.138-.923c-.03-.379.007-.76.108-1.127.03-.104.07-.204.12-.3.04-.108.096-.21.168-.3.15-.209.259-.323.367-.497.228-.347.456-.725.69-1.133l1.509-2.637c.546-.929 1.111-1.918 1.802-2.9.18-.247.367-.492.6-.738.233-.278.504-.52.806-.72.28-.182.633-.216.943-.09a.917.917 0 0 1 .427.396l.114.204c.16.277.295.568.403.87.474 1.216.794 2.486.955 3.781.196 1.3.17 2.623-.078 3.914a9.915 9.915 0 0 1-.553 1.798c-.21.6-.439 1.14-.673 1.685a39.087 39.087 0 0 1-1.46 3.093c-.47.915-.998 1.8-1.58 2.649a8.827 8.827 0 0 1-.877 1.09c-.16.164-.334.31-.523.438-.204.152-.454.23-.709.222a.746.746 0 0 1-.372-.162l-.114-.132a.378.378 0 0 1-.06-.071l-.03-.06-.259-.45a6.466 6.466 0 0 1-.378-.857 3.51 3.51 0 0 1-.187-1.277c.01-.15.04-.3.09-.443a1.477 1.477 0 0 0 0 .443c.047.415.16.82.337 1.199.128.265.277.52.445.761l.3.42c.096.126.186.204.288.186.21 0 .523-.294.763-.6a8.39 8.39 0 0 0 .727-1.073c.469-.797.907-1.702 1.352-2.667.445-.965.865-2.014 1.292-3.099a21.715 21.715 0 0 0 1.07-3.35 10.656 10.656 0 0 0 0-3.525 15.213 15.213 0 0 0-.824-3.464c-.054-.126-.084-.258-.15-.39l-.21-.413-.103-.204c.043.084 0 .036.103.096.102.06.174 0 .078.036a2.576 2.576 0 0 0-.541.473c-.186.198-.366.42-.54.641-.698.906-1.322 1.853-1.917 2.746s-1.148 1.75-1.682 2.53c-.27.389-.53.766-.812 1.108a3.358 3.358 0 0 0-.702.899 3.92 3.92 0 0 0-.163 1.864c.063.569.178 1.13.343 1.678zM64.79 329.153l-.402-.84c-.264-.527-.637-1.282-1.136-2.14a11.243 11.243 0 0 0-.883-1.294c-.156-.2-.34-.375-.547-.521a.518.518 0 0 0-.432-.126h-.042.054l-.048.036-.198.138a.372.372 0 0 0-.12.126.876.876 0 0 1-.097.113l-.21.336-.186.39a6.886 6.886 0 0 0-.439 1.798 8.18 8.18 0 0 0-.054 1.876c.042.594.159 1.18.349 1.744l.168.378c.054.12.138.222.198.335l.048.084.036.042.144.174c.079.094.168.178.265.252.338.28.762.437 1.201.443a2.407 2.407 0 0 0 1.202-.33c.29-.163.55-.379.763-.635a2.05 2.05 0 0 0 .312-.599l.054-.234v.246a1.932 1.932 0 0 1-.174.69 2.728 2.728 0 0 1-.697.892c-.392.337-.87.557-1.382.636a2.582 2.582 0 0 1-1.844-.414 3.039 3.039 0 0 1-.403-.323l-.162-.156-.042-.036-.036-.042-.078-.102a4.643 4.643 0 0 1-.553-.9 6.826 6.826 0 0 1-.522-2.043 9.06 9.06 0 0 1 0-2.134 7.87 7.87 0 0 1 .564-2.098l.259-.497c.114-.162.216-.318.342-.474.146-.16.307-.307.48-.437l.199-.126.054-.03s.108-.066.066-.036h.048l.18-.066c.469-.093.953.043 1.304.366.259.224.483.484.667.773.311.477.571.985.775 1.516.313.768.562 1.56.745 2.368.162.545.21.88.21.88zm-6.386 2.2l-.319-.264c-.21-.174-.516-.426-.877-.78a14.243 14.243 0 0 1-1.255-1.336 9.557 9.557 0 0 1-.697-.899c-.114-.168-.235-.336-.343-.521l-.306-.6c-.39-.797-.727-1.648-1.13-2.553a92.04 92.04 0 0 0-1.297-2.787 28.056 28.056 0 0 0-1.574-2.842c-.15-.221-.295-.455-.463-.659a4.996 4.996 0 0 0-.505-.6c-.324-.359-.835-.677-.805-.599a.966.966 0 0 0-.336.342 3.764 3.764 0 0 0-.337.66 9.244 9.244 0 0 0-.456 1.534 15.549 15.549 0 0 0-.325 3.17 7.776 7.776 0 0 0 .48 2.836c.144.368.396.686.722.91.336.181.721.25 1.1.199a1.905 1.905 0 0 0 1.621-1.055c.25-.526.387-1.097.403-1.679a7.403 7.403 0 0 0-.06-1.564s.048.138.114.401c.094.382.156.771.186 1.163a4.306 4.306 0 0 1-.222 1.864 2.611 2.611 0 0 1-.276.528c-.06.084-.12.174-.193.258l-.24.221c-.181.149-.384.27-.6.36a4.177 4.177 0 0 1-.716.186h-.709a2.095 2.095 0 0 1-.81-.216 2.82 2.82 0 0 1-1.136-1.199 7.974 7.974 0 0 1-.721-3.177c-.051-1.15.031-2.303.246-3.434.117-.592.284-1.174.499-1.738.117-.303.262-.593.432-.87.21-.359.528-.643.908-.815.062-.026.126-.046.192-.06.088-.006.176-.006.264 0a.83.83 0 0 1 .313.042h.054l.102.036.126.066.24.144c.147.09.284.194.409.312.126.103.243.217.348.342.218.222.419.46.601.713.192.246.343.491.505.743a24.74 24.74 0 0 1 1.556 2.997c.444.995.823 1.978 1.165 2.907.343.93.601 1.834.932 2.613l.234.558c.084.18.186.347.276.515.172.323.362.635.571.935.379.57.745 1.055 1.064 1.445a19.723 19.723 0 0 0 1.045 1.247z" opacity=".4" fill="#FFF" fill-rule="nonzero"/><path d="M59.413 322.29l-.492.959-.457.929c-.162.33-.312.69-.469 1.049-.156.36-.294.72-.432 1.067l-.192.51c-.067.161-.115.317-.175.46-.06.145-.114.283-.156.408-.042.126-.084.228-.12.318-.078.18-.132.288-.132.288a2.538 2.538 0 0 1-.108-.294 3.302 3.302 0 0 1-.169-1.343c0-.191 0-.395.048-.599.066-.439.188-.868.361-1.277.172-.41.4-.796.679-1.144a4.16 4.16 0 0 1 .829-.81c.29-.239.625-.416.985-.521zm-13.92-3.704c.167-.548.282-1.11.342-1.679a4.001 4.001 0 0 0-.162-1.864 3.376 3.376 0 0 0-.697-.899c-.282-.348-.54-.72-.811-1.109-.54-.785-1.1-1.636-1.682-2.535-.583-.9-1.202-1.84-1.917-2.74a8.768 8.768 0 0 0-.54-.647 2.522 2.522 0 0 0-.541-.467c-.096-.066-.066 0 .078-.042.144-.042.06 0 .102-.09l-.108.204-.204.407c-.057.13-.107.261-.15.396a14.776 14.776 0 0 0-.824 3.458 10.824 10.824 0 0 0 0 3.525 22.416 22.416 0 0 0 1.094 3.356 62.65 62.65 0 0 0 1.285 3.1c.44.97.89 1.875 1.352 2.666.218.376.46.736.727 1.08.24.305.553.599.77.599.095 0 .192-.06.288-.186.096-.126.204-.288.3-.42.167-.243.313-.5.439-.767a3.68 3.68 0 0 0 .342-1.199 1.836 1.836 0 0 0 0-.443c.05.143.08.292.09.443.016.436-.047.87-.186 1.283a5.777 5.777 0 0 1-.385.851l-.252.45-.036.06a.372.372 0 0 1-.054.072l-.12.138a.698.698 0 0 1-.373.155 1.053 1.053 0 0 1-.703-.221 3.062 3.062 0 0 1-.522-.438 7.927 7.927 0 0 1-.877-1.09 22.4 22.4 0 0 1-1.58-2.65 41.327 41.327 0 0 1-1.467-3.093 48.858 48.858 0 0 1-.672-1.678 10.063 10.063 0 0 1-.547-1.828 11.59 11.59 0 0 1-.078-3.915c.16-1.294.48-2.564.949-3.782.112-.3.249-.59.409-.869l.108-.204a.954.954 0 0 1 .432-.395.987.987 0 0 1 .938.096c.306.194.577.437.805.719.213.233.413.477.6.731.65.938 1.252 1.909 1.803 2.907.535.935 1.04 1.798 1.502 2.638.234.401.468.785.697 1.126.108.18.21.288.36.504.074.088.133.187.174.294.052.096.09.199.115.305.107.366.144.748.108 1.127a6.22 6.22 0 0 1-.132.917 7.72 7.72 0 0 1-.391 1.2c-.126.317-.198.443-.198.443z" opacity=".4" fill="#FFF" fill-rule="nonzero"/><path d="M146.727 353.374a3.315 3.315 0 0 1-.138-.491 4.718 4.718 0 0 1-.096-1.45 3.84 3.84 0 0 1 .871-2.123 4.61 4.61 0 0 1 1.106-.94c.222-.127.462-.234.703-.354l.72-.294a72.282 72.282 0 0 1 3.215-1.235c1.153-.407 2.36-.845 3.64-1.199a28.852 28.852 0 0 1 4.056-.989 7.01 7.01 0 0 1 1.154-.071c.247.005.491.056.72.15.191.082.353.22.463.395l.048.084s.036.078 0 .054v.06l.048.126c.063.197.115.397.156.6.036.185.079.377.097.562.054.368.089.738.102 1.11a9.636 9.636 0 0 1-.757 4.393 3.12 3.12 0 0 1-.289.515l-.168.246-.198.234-.21.228-.247.191-.258.186-.216.132c-.601.36-1.202.671-1.803.983a46.489 46.489 0 0 1-6.729 2.847c-.931.312-1.888.543-2.86.69a5.42 5.42 0 0 1-2.283-.048 1.527 1.527 0 0 1-.739-.444 1.27 1.27 0 0 1-.282-.563 2.488 2.488 0 0 1-.042-.51c.019.167.055.332.108.492.166.433.555.74 1.016.803a5.269 5.269 0 0 0 2.138-.168 21.423 21.423 0 0 0 2.71-.905 59.575 59.575 0 0 0 6.465-3.129c.6-.312 1.16-.653 1.718-.995l.216-.138.15-.126.157-.125.132-.162.138-.156.12-.186c.086-.124.159-.256.216-.396a8.547 8.547 0 0 0 .601-3.842 9.24 9.24 0 0 0-.078-1c0-.162-.048-.318-.078-.48a3.96 3.96 0 0 0-.102-.426l-.048-.126v-.06s.066.078.066.072c-.1-.03-.203-.046-.307-.048a5.679 5.679 0 0 0-.937.048 34.14 34.14 0 0 0-3.911.858c-2.541.689-4.897 1.438-6.91 2.091l-.738.246-.65.264a3.917 3.917 0 0 0-1.05.737 3.504 3.504 0 0 0-.974 1.858 5.448 5.448 0 0 0-.066 1.409c.026.174.065.346.114.515z" opacity=".4" fill="#336" fill-rule="nonzero"/><path d="M149.43 352.026c.08-.255.176-.503.29-.744.113-.233.252-.51.438-.82.214-.348.46-.675.733-.978.334-.38.73-.703 1.171-.953a3.1 3.1 0 0 1 1.803-.36c.325.043.641.136.937.276l.228.102h.054c-.036-.03.054.036.048 0l.085.054.174.126.228.228a2.64 2.64 0 0 1 .57 2.062 5.523 5.523 0 0 1-.6 1.798 7.15 7.15 0 0 1-1.033 1.456 4.845 4.845 0 0 1-2.716 1.625 2.228 2.228 0 0 1-1.31-.18 2.078 2.078 0 0 1-.75-.6 2.228 2.228 0 0 1-.295-.527l-.084-.192.138.156c.125.145.264.277.415.396.217.173.469.298.739.365.331.072.676.051.997-.06a4.804 4.804 0 0 0 2.06-1.636c.311-.403.58-.836.8-1.295.228-.446.376-.929.438-1.426a1.502 1.502 0 0 0-.234-1.157.384.384 0 0 1-.06-.078l-.168-.132-.078-.06h.036-.066l-.15-.078c-.188-.11-.39-.19-.601-.24a2.499 2.499 0 0 0-1.238.126 4.917 4.917 0 0 0-1.088.648c-.293.239-.574.493-.84.761-.229.252-.44.474-.601.665-.3.408-.47.672-.47.672zm-83.33.749c.035-.166.06-.334.072-.504.04-.468.017-.94-.066-1.402a3.504 3.504 0 0 0-.973-1.858 3.917 3.917 0 0 0-1.052-.738l-.648-.263-.74-.246c-2.012-.653-4.367-1.403-6.909-2.092a32.913 32.913 0 0 0-3.935-.84 5.679 5.679 0 0 0-.937-.047.94.94 0 0 0-.306.048l.066-.072c.066-.072 0 0 0 0s0-.06 0 0v.06l-.048.126c-.048.168-.067.264-.103.425a4.44 4.44 0 0 0-.078.48 9.24 9.24 0 0 0-.078 1 8.547 8.547 0 0 0 .601 3.843c.058.14.13.272.216.396l.12.185.139.156.132.162.156.126.15.126.217.138c.558.341 1.147.677 1.718.995a59.575 59.575 0 0 0 6.464 3.128 21.54 21.54 0 0 0 2.71.906 5.258 5.258 0 0 0 2.139.167c.46-.061.85-.37 1.015-.803.053-.16.09-.324.108-.491.004.17-.01.341-.042.51a1.252 1.252 0 0 1-.282.557 1.49 1.49 0 0 1-.74.45 5.42 5.42 0 0 1-2.282.047 16.434 16.434 0 0 1-2.86-.695 46.687 46.687 0 0 1-6.729-2.841c-.6-.312-1.201-.6-1.802-.983l-.217-.132-.258-.186-.246-.192-.21-.228-.199-.233-.168-.246a3.39 3.39 0 0 1-.288-.516 9.636 9.636 0 0 1-.757-4.393c0-.372.048-.737.102-1.115 0-.18.06-.372.096-.557a5.84 5.84 0 0 1 .156-.6l.048-.12v-.12l.048-.077a1.02 1.02 0 0 1 .463-.396c.229-.093.473-.144.72-.15a6.45 6.45 0 0 1 1.154.072c1.374.231 2.73.562 4.056.989 1.28.384 2.493.81 3.647 1.199 1.153.39 2.223.833 3.208 1.235l.72.293c.241.12.481.228.704.354.418.25.792.568 1.105.941.502.601.807 1.342.871 2.122a4.71 4.71 0 0 1-.096 1.45 3.313 3.313 0 0 1-.072.45z" opacity=".4" fill="#336" fill-rule="nonzero"/><path d="M63.397 351.426s-.169-.234-.493-.6c-.156-.19-.367-.413-.6-.664a10.853 10.853 0 0 0-.842-.762 4.917 4.917 0 0 0-1.087-.647 2.408 2.408 0 0 0-1.238-.126c-.211.05-.414.13-.6.24l-.151.078h-.036.036l-.078.066-.168.132a.384.384 0 0 1-.06.077 1.502 1.502 0 0 0-.235 1.157c.062.498.21.98.439 1.427.22.458.488.892.799 1.295a4.804 4.804 0 0 0 2.06 1.636c.321.11.666.131.998.06a1.95 1.95 0 0 0 .739-.366c.15-.118.29-.25.414-.395l.139-.156-.085.192a2.012 2.012 0 0 1-1.045 1.127 2.19 2.19 0 0 1-1.31.185 4.88 4.88 0 0 1-2.715-1.624 7.15 7.15 0 0 1-1.034-1.457 5.571 5.571 0 0 1-.6-1.798 2.645 2.645 0 0 1 .57-2.062l.229-.227.174-.126.084-.06.048-.036h.054l.228-.102a3.31 3.31 0 0 1 .938-.282 3.154 3.154 0 0 1 1.802.366 4.4 4.4 0 0 1 1.172.953c.275.301.52.628.733.977.161.265.308.54.438.821.11.227.204.461.283.701z" opacity=".4" fill="#336" fill-rule="nonzero"/><path d="M141.705 346.415s.985-3.734 1.97-2.9c.986.832.685 2.703 1.202 2.9.517.198 3.64.294 2.661 1.325-.979 1.03-2.265 1.079-1.922 2.158.342 1.079.829 4.375-.89 2.997-1.718-1.379-1.802-1.199-3.003-.246-1.202.953-1.875.348-1.43-.54.444-.887.715-2.451-.132-2.75-.848-.3-3.575-2.272-1.346-2.698 1.412-.276 1.904.192 2.89-.246zM42.549 276.58s.985-3.728 1.964-2.895c.98.833.691 2.703 1.202 2.895.51.192 3.64.3 2.662 1.331-.98 1.03-2.265 1.079-1.923 2.158.342 1.079.83 4.375-.89 2.997-1.717-1.379-1.802-1.2-3.003-.246-1.202.953-1.875.342-1.43-.54.445-.88.715-2.457-.132-2.75-.847-.294-3.575-2.278-1.346-2.704 1.418-.27 1.91.198 2.896-.246zm90.931-24.653s.51-1.924 1.021-1.492c.51.431.355 1.39.6 1.492.247.102 1.881.15 1.37.684-.51.533-1.165.557-.99 1.115.174.557.432 2.26-.457 1.546-.89-.713-.938-.6-1.55-.126-.613.474-.962.18-.733-.276.228-.455.366-1.27-.072-1.42-.439-.15-1.845-1.199-.691-1.397.745-.126.979.102 1.502-.126zm4.115-1.744s.27-1.007.535-.785c.264.222.186.731.318.785.132.054.986.078.721.36-.264.281-.6.293-.522.6.078.305.228 1.198-.24.808-.47-.39-.493-.317-.812-.066-.318.252-.505.09-.384-.15.12-.24.192-.665-.036-.743-.229-.078-.968-.6-.367-.731.39-.084.523.042.787-.078zm31.41 19.283s.523-1.978 1.045-1.535c.523.444.367 1.433.601 1.535.234.101 1.935.155 1.412.707-.523.551-1.202.57-1.015 1.145.186.575.438 2.32-.475 1.588-.913-.731-.967-.6-1.592-.126-.625.474-.991.18-.757-.288.234-.467.378-1.306-.072-1.462-.45-.156-1.899-1.199-.715-1.433.75-.143 1.015.102 1.568-.131z" fill="#FFF" fill-rule="nonzero"/><path d="M175.16 431.67H36.416C16.562 431.646.473 415.52.45 395.62V36.073C.473 16.174 16.562.047 36.416.024H175.16c19.854.023 35.943 16.15 35.966 36.05V395.62c-.023 19.9-16.112 36.027-35.966 36.05zM36.416 12.04c-13.243 0-23.978 10.76-23.978 24.034V395.62c.017 13.267 10.742 24.017 23.978 24.034H175.16c13.242 0 23.977-10.76 23.977-24.034V36.074a24.062 24.062 0 0 0-7.022-16.994 23.949 23.949 0 0 0-16.955-7.04H36.416z" fill="#CCC" fill-rule="nonzero"/><path d="M208.177 400.03c-.665 0-.737-9.866-.737-10.533l-.516-349.818c-.02-19.238-15.574-34.828-34.767-34.848L42.32 4.296c-.665 0-7.75-.042-7.75-.709 0-.667 7.007-.751 7.672-.751l129.915-.409c20.516.024 37.142 16.688 37.165 37.252l-.546 349.98c0 .643.06 10.37-.6 10.37z" fill="#FFF" fill-rule="nonzero"/><path d="M36.416 12.04c-13.243 0-23.978 10.76-23.978 24.034V395.62c.017 13.267 10.742 24.017 23.978 24.034H175.16c13.242 0 23.977-10.76 23.977-24.034V36.074a24.062 24.062 0 0 0-7.022-16.994 23.949 23.949 0 0 0-16.955-7.04H36.416z" stroke="#336" stroke-width="3" stroke-linecap="round"/><path d="M37.532 13.024c-13.24 0-23.974 10.735-23.974 23.976v358.694c0 13.242 10.733 23.976 23.974 23.976h138.722c13.24 0 23.974-10.734 23.974-23.976V37a23.977 23.977 0 0 0-23.974-23.976H37.532z" stroke="#336" stroke-width="3"/></g></svg>