<svg width="212" height="430" viewBox="0 0 212 430" xmlns="http://www.w3.org/2000/svg"><defs><radialGradient cx="50.001%" cy="49.999%" fx="50.001%" fy="49.999%" r="50.111%" gradientTransform="matrix(.99777 0 0 1 .001 0)" id="a"><stop stop-color="#FFCE34" offset="76%"/><stop stop-color="#FBAA38" offset="85%"/><stop stop-color="#F89838" offset="100%"/></radialGradient><linearGradient x1="49.987%" y1="0%" x2="49.987%" y2="99.982%" id="b"><stop stop-color="#FFF" stop-opacity=".8" offset="0%"/><stop stop-color="#FFF" stop-opacity="0" offset="76%"/></linearGradient><radialGradient cx="50.033%" cy="59.574%" fx="50.033%" fy="59.574%" r="85.82%" gradientTransform="matrix(.45173 0 0 1 .274 0)" id="c"><stop stop-color="#603913" stop-opacity=".8" offset="0%"/><stop stop-color="#463713" offset="100%"/></radialGradient><radialGradient cx="55.356%" cy="63.121%" fx="55.356%" fy="63.121%" r="79.148%" gradientTransform="scale(.50206 1) rotate(-22.18 .828 -.77)" id="d"><stop stop-color="#603913" stop-opacity=".8" offset="0%"/><stop stop-color="#463713" offset="100%"/></radialGradient><radialGradient cx="54.854%" cy="18.336%" fx="54.854%" fy="18.336%" r="78.781%" gradientTransform="matrix(.48698 .24817 -.12476 .96872 .304 -.13)" id="e"><stop stop-color="#603913" stop-opacity=".8" offset="0%"/><stop stop-color="#463713" offset="100%"/></radialGradient><linearGradient x1="49.987%" y1=".089%" x2="49.987%" y2="99.937%" id="f"><stop stop-color="#FFF" stop-opacity=".8" offset="0%"/><stop stop-color="#FFF" stop-opacity="0" offset="76%"/></linearGradient><radialGradient cx="52.779%" cy="41.694%" fx="52.779%" fy="41.694%" r="59.786%" gradientTransform="scale(1 .35336) rotate(1.257 -34.244 .798)" id="g"><stop stop-color="#BA7E2E" offset="0%"/><stop stop-color="#472B10" offset="100%"/></radialGradient><radialGradient cx="52.716%" cy="41.382%" fx="52.716%" fy="41.382%" r="59.786%" gradientTransform="scale(1 .35447) rotate(1.257 -33.816 .79)" id="h"><stop stop-color="#BA7E2E" offset="0%"/><stop stop-color="#472B10" offset="100%"/></radialGradient><linearGradient x1="49.998%" y1="69.072%" x2="49.998%" y2="6.201%" id="i"><stop stop-color="#BA7E2E" offset="0%"/><stop stop-color="#472814" offset="100%"/></linearGradient><radialGradient cx="49.99%" cy="49.949%" fx="49.99%" fy="49.949%" r="214.156%" gradientTransform="matrix(.16745 0 0 1 .416 0)" id="j"><stop stop-color="#FFF" offset="36%"/><stop stop-color="#D1D3D4" offset="100%"/></radialGradient><linearGradient x1="49.987%" y1="0%" x2="49.987%" y2="99.982%" id="k"><stop stop-color="#FFF" stop-opacity=".8" offset="0%"/><stop stop-color="#FFF" stop-opacity="0" offset="76%"/></linearGradient><radialGradient cx="50%" cy="58.889%" fx="50%" fy="58.889%" r="77.864%" gradientTransform="matrix(1 0 0 .71938 0 .165)" id="l"><stop stop-color="#BA7E2E" offset="0%"/><stop stop-color="#472B10" offset="100%"/></radialGradient><radialGradient cx="49.928%" cy="50.138%" fx="49.928%" fy="50.138%" r="272.503%" gradientTransform="matrix(.13104 0 0 1 .434 0)" id="m"><stop stop-color="#BA7E2E" offset="0%"/><stop stop-color="#472B10" offset="100%"/></radialGradient><radialGradient cx="50.001%" cy="50.038%" fx="50.001%" fy="50.038%" r="50.111%" gradientTransform="matrix(.99777 0 0 1 .001 0)" id="n"><stop stop-color="#FFCE34" offset="76%"/><stop stop-color="#FBAA38" offset="85%"/><stop stop-color="#F89838" offset="100%"/></radialGradient><linearGradient x1="49.987%" y1="0%" x2="49.987%" y2="99.937%" id="o"><stop stop-color="#FFF" stop-opacity=".8" offset="0%"/><stop stop-color="#FFF" stop-opacity="0" offset="76%"/></linearGradient><radialGradient cx="50.072%" cy="8.744%" fx="50.072%" fy="8.744%" r="137.45%" gradientTransform="matrix(.4015 0 0 1 .3 0)" id="p"><stop stop-color="#481710" offset="44%"/><stop stop-color="#885427" offset="100%"/></radialGradient><radialGradient cx="49.978%" cy="49.61%" fx="49.978%" fy="49.61%" r="100.513%" gradientTransform="matrix(.88918 0 0 1 .055 0)" id="q"><stop stop-color="#DF192B" offset="8%"/><stop stop-color="#410000" offset="100%"/></radialGradient><radialGradient cx="50.022%" cy="49.61%" fx="50.022%" fy="49.61%" r="100.513%" gradientTransform="matrix(-.88918 0 0 -1 .945 .992)" id="r"><stop stop-color="#DF192B" offset="8%"/><stop stop-color="#410000" offset="100%"/></radialGradient><radialGradient cx="50.001%" cy="49.999%" fx="50.001%" fy="49.999%" r="50.111%" gradientTransform="matrix(.99777 0 0 1 .001 0)" id="s"><stop stop-color="#E06430" offset="64%"/><stop stop-color="#CE1B2A" offset="85%"/><stop stop-color="#AB0D1F" offset="100%"/></radialGradient><linearGradient x1="49.987%" y1="0%" x2="49.987%" y2="99.937%" id="t"><stop stop-color="#FFF" stop-opacity=".8" offset="0%"/><stop stop-color="#FFF" stop-opacity="0" offset="76%"/></linearGradient><linearGradient x1="50%" y1="76.471%" x2="50%" y2="1.887%" id="u"><stop stop-color="#7D4418" offset="4%"/><stop stop-color="#3D0000" offset="100%"/></linearGradient><linearGradient x1="49.966%" y1="76.504%" x2="49.966%" y2="1.873%" id="v"><stop stop-color="#7D4418" offset="4%"/><stop stop-color="#3D0000" offset="100%"/></linearGradient><linearGradient x1="49.959%" y1="76.536%" x2="49.959%" y2="1.786%" id="w"><stop stop-color="#7D4418" offset="4%"/><stop stop-color="#3D0000" offset="100%"/></linearGradient><linearGradient x1="50.06%" y1="76.536%" x2="50.06%" y2="1.786%" id="x"><stop stop-color="#7D4418" offset="4%"/><stop stop-color="#3D0000" offset="100%"/></linearGradient></defs><g fill="none" fill-rule="evenodd"><path d="M36.956 12.258c-13.241 0-23.975 10.734-23.975 23.976v358.694c.017 13.235 10.74 23.96 23.975 23.976h138.727c13.24 0 23.975-10.735 23.975-23.976V36.234a23.977 23.977 0 0 0-23.975-23.976H36.956z" fill="#FFF" fill-rule="nonzero"/><g transform="translate(25.981 11)"><path d="M134.49.206V3.89c0 6.614-5.374 11.975-12.002 11.975H38.407c-6.629 0-12.002-5.361-12.002-11.975V.206" fill="#336" fill-rule="nonzero"/><path d="M165.84 11.445a.744.744 0 0 0-.775-.598h-.642a2.648 2.648 0 0 0-.084-.36 1.012 1.012 0 0 0-.456-.563 1.202 1.202 0 0 0-.636-.15h-7.904a1.02 1.02 0 0 0-.876.54 3.63 3.63 0 0 0-.156.419v3.826a3.7 3.7 0 0 0 .132.39c.178.373.558.607.972.598h7.88a1.073 1.073 0 0 0 1.092-.994v-.078h.708a.703.703 0 0 0 .6-.281 2.01 2.01 0 0 0 .156-.324v-2.395l-.012-.03zm-2.143 2.994a.389.389 0 0 1-.444.42h-7.76a.433.433 0 0 1-.348-.114.4.4 0 0 1-.108-.306v-3.473a.383.383 0 0 1 .438-.437h7.802a.39.39 0 0 1 .42.246.606.606 0 0 1 .03.18l-.03 3.484zm1.434-.664h-.714v-2.156h.714v2.156z" fill="#000" fill-rule="nonzero"/><path d="M161.854 13.002c-.246-.485-.48-.97-.732-1.449a.6.6 0 0 0-.54-.317h-4.429a.355.355 0 0 0-.396.395v2.072a.359.359 0 0 0 .408.4h5.863c.229 0 .307-.125.21-.328l-.384-.773zm-11.828-1.365a4.37 4.37 0 0 0-5.893 0 .305.305 0 0 0-.054.443.306.306 0 0 0 .45 0l.132-.12a3.709 3.709 0 0 1 3.331-.766c.61.145 1.172.444 1.632.868a.312.312 0 0 0 .474 0 .317.317 0 0 0-.072-.425z" fill="#000" fill-rule="nonzero"/><path d="M149.3 12.66a3.318 3.318 0 0 0-2.646-.801 3.184 3.184 0 0 0-1.747.778 1.3 1.3 0 0 0-.18.245c.03.168.114.312.252.312a.51.51 0 0 0 .319-.108c.66-.568 1.55-.79 2.4-.599.442.1.854.306 1.2.599a.433.433 0 0 0 .306.102.402.402 0 0 0 .222-.222.257.257 0 0 0-.126-.305z" fill="#000" fill-rule="nonzero"/><path d="M148.496 13.583a2.296 2.296 0 0 0-1.332-.467 2.362 2.362 0 0 0-1.512.49.49.49 0 0 0-.138.21c-.04.12.01.25.12.312a.319.319 0 0 0 .39-.048 1.75 1.75 0 0 1 2.118 0c.186.132.366.126.474 0 .108-.126.072-.36-.12-.497zm-1.404.838a.565.565 0 0 0-.6.563.57.57 0 0 0 1.134 0 .6.6 0 0 0-.534-.563zm-7.76-4.323v5.443h1.159v-5.443zm-1.572 1.742v3.701h1.11v-3.82h-1.116l.006.12zm-.474 1.162h-1.11v2.539h1.11v-2.467a.37.37 0 0 0 0-.072zm-2.7 2.539h1.134V14.26h-1.134z" fill="#000" fill-rule="nonzero"/><path d="M9.32 53.994a6.165 6.165 0 0 1-1.8.263 5.72 5.72 0 0 1-4.051-1.67 5.733 5.733 0 0 1 0-8.107 5.762 5.762 0 0 1 1.8-1.198 5.87 5.87 0 0 1 4.2-.114 4.99 4.99 0 0 1 1.537.862l-.804 1.006a5.339 5.339 0 0 0-1.314-.712 4.21 4.21 0 0 0-1.363-.21 4.341 4.341 0 0 0-1.71.342 4.298 4.298 0 0 0-2.328 2.347 4.55 4.55 0 0 0 .93 4.916c.4.4.875.717 1.398.934.54.233 1.122.351 1.71.347.462.005.92-.07 1.357-.222a5.688 5.688 0 0 0 1.32-.682l.804 1.018a5.261 5.261 0 0 1-1.686.88zm12.614-2.437a4.49 4.49 0 0 1-.96 1.455 4.003 4.003 0 0 1-1.405.922 4.558 4.558 0 0 1-3.372 0 4.003 4.003 0 0 1-1.404-.922 4.394 4.394 0 0 1-.96-1.455 5.044 5.044 0 0 1-.355-1.928v-6.676h1.345v6.586c-.006.485.071.967.228 1.425.135.402.35.772.63 1.09.268.298.597.535.966.695.791.327 1.68.327 2.472 0 .369-.16.698-.397.967-.695.267-.322.47-.692.6-1.09.156-.458.233-.94.228-1.425v-6.586h1.356v6.676c.015.658-.1 1.313-.336 1.928zm10.382-.653c.006.466-.094.927-.294 1.348a3.162 3.162 0 0 1-.81 1.053 3.854 3.854 0 0 1-1.2.701 4.45 4.45 0 0 1-1.513.251 4.21 4.21 0 0 1-1.482-.251 3.89 3.89 0 0 1-1.2-.683 3.265 3.265 0 0 1-.799-.994 3.288 3.288 0 0 1-.342-1.197l1.309-.288c.007.313.085.62.228.899.137.256.323.483.546.67.236.19.504.336.792.431.32.101.654.152.99.15a2.602 2.602 0 0 0 1.764-.599 1.86 1.86 0 0 0 .672-1.485 1.697 1.697 0 0 0-.144-.712 1.552 1.552 0 0 0-.45-.551 3.31 3.31 0 0 0-.828-.437 12.022 12.022 0 0 0-1.266-.377 7.213 7.213 0 0 1-1.518-.485c-.365-.162-.7-.38-.996-.647a2.167 2.167 0 0 1-.535-.802 2.988 2.988 0 0 1 .114-2.222c.184-.38.446-.716.769-.988.336-.287.722-.51 1.14-.658a4.133 4.133 0 0 1 1.398-.234 4.26 4.26 0 0 1 1.368.21 3.6 3.6 0 0 1 1.068.598c.296.24.545.532.733.863.179.326.3.68.36 1.047l-1.315.288a1.796 1.796 0 0 0-.768-1.252 2.573 2.573 0 0 0-1.506-.443c-.295-.004-.59.04-.87.132a2.402 2.402 0 0 0-.69.36 1.57 1.57 0 0 0-.456.556 1.536 1.536 0 0 0-.162.695c-.016.42.192.818.546 1.048.24.16.5.29.774.383.383.138.774.254 1.17.347a8.156 8.156 0 0 1 1.602.545c.389.175.744.416 1.05.712.267.252.473.561.6.905.11.36.161.736.15 1.113zm6.114-6.76V54.15h-1.343V44.144h-3.211v-1.197h7.765v1.197zm9.644-1.191a5.592 5.592 0 0 1 2.233.449 5.755 5.755 0 0 1 3.06 2.994c.6 1.385.6 2.956 0 4.34a5.778 5.778 0 0 1-1.236 1.797 5.786 5.786 0 0 1-4.057 1.617 5.647 5.647 0 0 1-5.244-3.413 5.599 5.599 0 0 1 0-4.341 5.653 5.653 0 0 1 3-2.994 5.502 5.502 0 0 1 2.244-.45zm.03 10.179a4.735 4.735 0 0 0 3.313-1.324 4.604 4.604 0 0 0 1.008-1.443 4.225 4.225 0 0 0 .366-1.76 4.291 4.291 0 0 0-.366-1.796 4.473 4.473 0 0 0-1.008-1.443 5.048 5.048 0 0 0-1.488-.976 4.636 4.636 0 0 0-1.8-.36 4.51 4.51 0 0 0-1.8.36 4.802 4.802 0 0 0-1.465.976 4.502 4.502 0 0 0-1.344 3.24 4.315 4.315 0 0 0 .36 1.76 4.62 4.62 0 0 0 .984 1.442 4.634 4.634 0 0 0 3.21 1.324h.03zM68.04 54.15l-2.538-7.784-3.241 8.185-3.247-8.185-2.538 7.784h-1.41l3.81-11.563 3.36 8.467 3.362-8.467L69.45 54.15zm3.475 0V42.953h6.6v1.197H72.86v3.743h5.04v1.197h-5.04v3.862h5.22v1.198zm9.565 0V42.953h4.255c.215.007.429.04.636.095.255.064.503.154.738.27.247.117.483.257.702.42.202.147.38.324.528.526.203.298.38.612.529.94.188.445.276.925.258 1.407.005.396-.06.789-.192 1.162a2.734 2.734 0 0 1-.445.85 4.4 4.4 0 0 1-1.074.88c-.233.13-.478.236-.732.318a2.616 2.616 0 0 1-.798.125c-.054 0-.084 0-.084.048a.072.072 0 0 0 0 .054l3.073 4.072H87.08l-3.798-5.048h1.104c.127.018.257.018.384 0 .119-.011.237-.03.354-.054l.42-.096c.138-.027.273-.07.402-.125.108-.04.21-.092.306-.156.12-.09.258-.198.402-.323.152-.129.29-.27.414-.425a2.14 2.14 0 0 0 .444-1.348 2.217 2.217 0 0 0-.27-1.125 3.85 3.85 0 0 0-.552-.755 1.512 1.512 0 0 0-.324-.233 5.645 5.645 0 0 0-.426-.222c-.149-.065-.3-.12-.456-.168a1.515 1.515 0 0 0-.39-.065H82.28V54.15h-1.2zm25.205-3.246a3.12 3.12 0 0 1-.294 1.348 3.18 3.18 0 0 1-.817 1.053c-.354.305-.76.542-1.2.701-.483.17-.993.255-1.506.251a4.263 4.263 0 0 1-1.488-.251 3.795 3.795 0 0 1-1.2-.683 3.175 3.175 0 0 1-.799-.994 3.072 3.072 0 0 1-.342-1.197l1.309-.288c.004.314.082.621.228.899.134.258.32.486.546.67.233.191.5.338.786.431.322.1.658.151.996.15a2.602 2.602 0 0 0 1.764-.599c.439-.367.686-.914.672-1.485a1.697 1.697 0 0 0-.144-.712 1.51 1.51 0 0 0-.456-.551 3.159 3.159 0 0 0-.822-.437 12.491 12.491 0 0 0-1.266-.377 7.26 7.26 0 0 1-1.524-.485 3.727 3.727 0 0 1-.99-.647 2.113 2.113 0 0 1-.54-.802 2.988 2.988 0 0 1-.157-.982 2.761 2.761 0 0 1 .276-1.24c.182-.379.442-.716.763-.988a3.71 3.71 0 0 1 1.146-.658 4.119 4.119 0 0 1 1.392-.234 4.26 4.26 0 0 1 1.368.21c.389.135.75.338 1.068.598.298.238.546.53.733.863.184.323.306.679.36 1.047l-1.309.288a1.844 1.844 0 0 0-.768-1.252 2.579 2.579 0 0 0-1.512-.443 2.67 2.67 0 0 0-.864.132c-.25.082-.485.203-.696.36a1.615 1.615 0 0 0-.456.556 1.614 1.614 0 0 0-.156.695c-.007.206.036.412.126.598.099.187.243.345.42.462.239.163.5.292.774.383.381.137.77.253 1.164.347a8.084 8.084 0 0 1 1.614.521c.388.177.743.418 1.05.713.267.251.473.56.6.904a3.3 3.3 0 0 1 .15 1.125zm11.222.653a4.304 4.304 0 0 1-.96 1.455 4.033 4.033 0 0 1-1.399.922 4.481 4.481 0 0 1-1.692.324 4.427 4.427 0 0 1-1.686-.324 4.003 4.003 0 0 1-1.405-.922 4.49 4.49 0 0 1-.96-1.455 5.044 5.044 0 0 1-.348-1.928v-6.676h1.344v6.586c-.007.484.068.966.222 1.425.132.397.335.767.6 1.09.269.298.598.535.967.695.791.327 1.68.327 2.472 0 .369-.16.698-.397.966-.695.28-.318.495-.688.63-1.09.157-.458.234-.94.228-1.425v-6.586h1.345v6.676a5.043 5.043 0 0 1-.324 1.928zm3.643 2.593V42.953h4.254c.215.007.429.04.636.095.255.064.503.154.738.27.248.115.484.255.702.42.202.147.38.324.529.526.202.298.379.612.528.94.188.445.276.925.258 1.407.005.396-.06.789-.192 1.162a2.734 2.734 0 0 1-.444.85 3.786 3.786 0 0 1-.463.45 4.14 4.14 0 0 1-.6.43 3.869 3.869 0 0 1-.732.318 2.616 2.616 0 0 1-.798.125c-.054 0-.084 0-.084.048a.072.072 0 0 0 0 .054l3.073 4.072h-1.429l-3.792-5.048h1.104a1.3 1.3 0 0 0 .384 0c.119-.011.237-.03.354-.054l.42-.096c.138-.027.273-.07.402-.125.108-.04.21-.092.306-.156.12-.09.258-.198.402-.323.152-.129.29-.27.414-.425a2.14 2.14 0 0 0 .444-1.348 2.217 2.217 0 0 0-.27-1.125 3.85 3.85 0 0 0-.552-.755 1.512 1.512 0 0 0-.324-.233 5.645 5.645 0 0 0-.426-.222 4.21 4.21 0 0 0-.456-.168 1.515 1.515 0 0 0-.39-.065h-2.826V54.15h-1.17zm13.748.341l-5.401-11.538h1.476l3.9 8.484 3.895-8.484h1.483zm7.057-.341V42.953h6.601v1.197h-5.245v3.743h5.041v1.197h-5.04v3.862h5.244v1.198zm13.442-4.994v4.994h-1.344v-4.964l-4.2-6.203h1.614l3.258 4.748 3.259-4.748h1.614z" fill="#CE434F" fill-rule="nonzero"/><path fill="#1F407B" fill-rule="nonzero" d="M1.794 92.435v-7.712h1.02v3.167h4.021v-3.167h1.032v7.712H6.841v-3.634h-4.02v3.634zm7.274-2.796a2.888 2.888 0 0 1 .864-2.3 2.632 2.632 0 0 1 1.764-.598 2.53 2.53 0 0 1 1.89.754c.512.57.776 1.32.733 2.084a3.711 3.711 0 0 1-.325 1.7 2.284 2.284 0 0 1-.948.958 2.741 2.741 0 0 1-1.35.342 2.541 2.541 0 0 1-1.902-.749 3.031 3.031 0 0 1-.726-2.191zm.978 0a2.391 2.391 0 0 0 .468 1.61 1.568 1.568 0 0 0 2.358 0 2.445 2.445 0 0 0 .468-1.64 2.314 2.314 0 0 0-.468-1.569 1.574 1.574 0 0 0-2.358 0 2.391 2.391 0 0 0-.45 1.599h-.018zm6.439 2.796l-1.716-5.586h.978l.894 3.227.33 1.197c0-.06.114-.443.294-1.155l.888-3.27h.978l.84 3.24.277 1.072.324-1.084.96-3.227h.918l-1.746 5.586h-.99l-.889-3.347-.216-.952-1.14 4.3h-.984zm10.802 0L25.57 86.85h.979l.894 3.227.33 1.197c0-.06.114-.443.294-1.155l.888-3.27h.978l.84 3.24.276 1.072.325-1.084.96-3.227h.918l-1.746 5.586h-.99l-.889-3.347-.216-.952-1.14 4.3h-.984zm10.418-.689a3.421 3.421 0 0 1-1.015.63 2.86 2.86 0 0 1-1.044.185 2.043 2.043 0 0 1-1.422-.45 1.477 1.477 0 0 1-.492-1.149c-.004-.261.06-.52.186-.748a1.58 1.58 0 0 1 .486-.545c.21-.14.441-.244.684-.312.28-.064.562-.112.846-.143a8.639 8.639 0 0 0 1.693-.324v-.251a1.046 1.046 0 0 0-.27-.814 1.575 1.575 0 0 0-1.08-.318 1.701 1.701 0 0 0-.99.234 1.406 1.406 0 0 0-.469.826l-.93-.126c.062-.347.204-.675.414-.958a1.8 1.8 0 0 1 .84-.563c.41-.138.84-.205 1.272-.197.395-.014.79.043 1.165.167.253.083.48.23.66.426.148.186.25.406.294.64.039.29.055.582.048.874v1.246c-.016.557.004 1.115.06 1.67.042.236.123.462.24.671h-1.008a2.104 2.104 0 0 1-.168-.67zm-.078-2.113a6.96 6.96 0 0 1-1.549.353c-.282.032-.56.096-.828.192a.819.819 0 0 0-.51.76.802.802 0 0 0 .288.629c.24.183.539.272.84.251.342.008.68-.075.978-.24.273-.147.493-.375.63-.652a2.3 2.3 0 0 0 .15-.946v-.347zm2.046 1.137l.936-.15c.032.334.191.643.444.863.29.215.648.32 1.008.3.345.026.688-.068.973-.264a.808.808 0 0 0 .318-.599.6.6 0 0 0-.282-.509 4.075 4.075 0 0 0-.973-.317 9.617 9.617 0 0 1-1.446-.455 1.41 1.41 0 0 1-.6-.533c-.267-.44-.28-.99-.036-1.443.112-.21.273-.39.468-.527.182-.127.385-.22.6-.275a2.79 2.79 0 0 1 .822-.114 3.29 3.29 0 0 1 1.159.185c.29.099.546.277.738.515.174.26.284.558.324.869l-.93.125a1.011 1.011 0 0 0-.366-.676 1.328 1.328 0 0 0-.859-.24 1.551 1.551 0 0 0-.93.216.628.628 0 0 0-.282.503c0 .122.043.24.12.335.096.114.22.2.36.251.096.036.378.114.84.24.478.115.948.263 1.405.443.243.105.451.278.6.497.16.238.24.522.228.808 0 .319-.096.63-.276.893a1.8 1.8 0 0 1-.798.646 2.97 2.97 0 0 1-1.2.228 2.645 2.645 0 0 1-1.663-.45 2.112 2.112 0 0 1-.702-1.365zm8.744 3.82l-.103-.892c.176.051.358.08.54.084.176.007.351-.028.51-.101a.93.93 0 0 0 .313-.3c.113-.226.21-.46.288-.7 0-.054.042-.132.084-.234l-2.125-5.598h1.02l1.165 3.233c.156.413.288.844.408 1.293.108-.43.238-.853.39-1.27l1.2-3.256h.948l-2.13 5.682a11.76 11.76 0 0 1-.534 1.27c-.138.274-.345.51-.6.682-.23.153-.504.23-.78.221a1.912 1.912 0 0 1-.594-.113zm5.088-4.951c-.066-.857.253-1.7.87-2.3a2.602 2.602 0 0 1 1.759-.598 2.53 2.53 0 0 1 1.89.754c.512.57.775 1.32.732 2.084a3.711 3.711 0 0 1-.324 1.7c-.211.406-.54.74-.942.958a2.765 2.765 0 0 1-1.356.342 2.541 2.541 0 0 1-1.902-.749 3.031 3.031 0 0 1-.727-2.191zm.979 0a2.391 2.391 0 0 0 .468 1.61 1.568 1.568 0 0 0 2.358 0 2.445 2.445 0 0 0 .468-1.64 2.314 2.314 0 0 0-.468-1.569 1.574 1.574 0 0 0-2.358 0 2.391 2.391 0 0 0-.468 1.599zm9.056 2.796v-.82a2.06 2.06 0 0 1-1.801.946 2.255 2.255 0 0 1-.924-.186 1.572 1.572 0 0 1-.642-.479 1.794 1.794 0 0 1-.288-.7c-.05-.293-.07-.59-.06-.887v-3.46h.948v3.095c-.013.335.007.67.06 1a.97.97 0 0 0 .378.599c.21.15.463.225.72.215.28.002.556-.073.798-.215.24-.134.426-.345.528-.599.122-.35.175-.72.156-1.09v-2.993h.954v5.586l-.828-.012zm2.328 0V86.85h.852v.832c.14-.302.345-.57.6-.785.176-.122.385-.187.6-.185.348.008.687.113.978.305l-.33.874a1.388 1.388 0 0 0-.69-.21.944.944 0 0 0-.558.186 1.054 1.054 0 0 0-.354.521 3.788 3.788 0 0 0-.156 1.102v2.928l-.942.018zm10.442-1.796l.978.12c-.127.527-.43.995-.859 1.329a2.922 2.922 0 0 1-3.552-.282 2.948 2.948 0 0 1-.72-2.12 3.065 3.065 0 0 1 .732-2.185 2.445 2.445 0 0 1 1.884-.778 2.403 2.403 0 0 1 1.836.76c.507.598.763 1.368.715 2.15v.251h-4.201a2.147 2.147 0 0 0 .522 1.407 1.54 1.54 0 0 0 1.2.491c.319.01.632-.087.888-.275.274-.226.475-.528.576-.868zm-3.115-1.533h3.126a1.877 1.877 0 0 0-.36-1.06 1.454 1.454 0 0 0-1.2-.545 1.49 1.49 0 0 0-1.098.437c-.3.315-.468.733-.468 1.168zm4.657 3.329l2.046-2.904-1.896-2.682h1.2l.858 1.31c.162.246.294.456.39.6l.426-.6.948-1.316h1.135l-1.95 2.634 2.082 2.958h-1.165L80.774 90.7l-.306-.467-1.47 2.203h-1.146zm6.031 2.144v-7.73h.864v.724a2.23 2.23 0 0 1 .69-.64c.29-.147.612-.219.936-.21.45-.01.891.118 1.266.365.375.256.664.62.829 1.042a4.045 4.045 0 0 1-.03 2.994 2.334 2.334 0 0 1-2.13 1.419 1.804 1.804 0 0 1-.853-.198 1.943 1.943 0 0 1-.6-.509v2.725l-.972.018zm.858-4.904a2.439 2.439 0 0 0 .438 1.592c.257.325.648.515 1.062.515a1.39 1.39 0 0 0 1.086-.533 2.54 2.54 0 0 0 .45-1.652 2.487 2.487 0 0 0-.444-1.605 1.321 1.321 0 0 0-1.05-.527 1.37 1.37 0 0 0-1.074.563 2.529 2.529 0 0 0-.468 1.647zm8.983.964l.985.12a2.395 2.395 0 0 1-.865 1.329 2.922 2.922 0 0 1-3.552-.282 2.948 2.948 0 0 1-.72-2.12 3.065 3.065 0 0 1 .732-2.185 2.451 2.451 0 0 1 1.884-.778 2.403 2.403 0 0 1 1.837.76 3.04 3.04 0 0 1 .714 2.15v.251h-4.201a2.147 2.147 0 0 0 .522 1.407c.301.324.728.503 1.17.491.32.01.635-.086.894-.275.283-.223.492-.525.6-.868zm-3.114-1.533h3.126a1.877 1.877 0 0 0-.36-1.06 1.454 1.454 0 0 0-1.2-.545 1.49 1.49 0 0 0-1.098.437c-.3.315-.468.733-.468 1.168zm5.275 3.329V86.85h.858v.832c.14-.302.345-.57.6-.785.176-.122.386-.187.6-.185.349.008.687.114.978.305l-.33.874a1.407 1.407 0 0 0-.708-.21.932.932 0 0 0-.558.186c-.17.132-.294.315-.354.521a3.585 3.585 0 0 0-.156 1.102v2.928l-.93.018zm3.618-6.622v-1.09h1.013v1.09h-1.013zm0 6.622V86.85h1.013v5.586h-1.013zm6.23-1.796l.978.12c-.13.526-.432.994-.858 1.329a2.922 2.922 0 0 1-3.553-.282 2.948 2.948 0 0 1-.72-2.12 3.061 3.061 0 0 1 .726-2.185 2.463 2.463 0 0 1 1.89-.778 2.403 2.403 0 0 1 1.837.76c.504.6.758 1.37.708 2.15v.251h-4.201a2.147 2.147 0 0 0 .522 1.407c.301.324.728.503 1.17.491.32.01.635-.086.894-.275a1.85 1.85 0 0 0 .607-.868zm-3.121-1.533h3.127a1.92 1.92 0 0 0-.354-1.06 1.46 1.46 0 0 0-1.2-.545 1.514 1.514 0 0 0-1.105.437 1.716 1.716 0 0 0-.468 1.168zm5.293 3.329V86.85h.852v.79a2.024 2.024 0 0 1 1.8-.916c.32-.004.636.057.93.18.254.096.474.262.637.478.149.207.25.444.294.695.044.305.062.614.054.922v3.437h-.966v-3.401a2.42 2.42 0 0 0-.114-.862.91.91 0 0 0-.39-.461 1.244 1.244 0 0 0-.66-.168 1.532 1.532 0 0 0-1.05.383 1.89 1.89 0 0 0-.439 1.455v3.054h-.948zm9.662-2.048l.93.12a2.393 2.393 0 0 1-.78 1.509c-.43.368-.982.562-1.549.545a2.403 2.403 0 0 1-1.848-.749 3.031 3.031 0 0 1-.702-2.15 3.938 3.938 0 0 1 .3-1.586c.186-.43.509-.788.918-1.018.41-.223.871-.339 1.338-.335a2.29 2.29 0 0 1 1.489.46c.401.329.666.794.744 1.306l-.918.144a1.562 1.562 0 0 0-.468-.85 1.202 1.202 0 0 0-.81-.282 1.46 1.46 0 0 0-1.165.51 2.445 2.445 0 0 0-.45 1.628 2.517 2.517 0 0 0 .432 1.634 1.41 1.41 0 0 0 1.128.51c.345.01.68-.113.937-.342a1.72 1.72 0 0 0 .474-1.054zm5.581.252l.978.12a2.4 2.4 0 0 1-.858 1.329 2.922 2.922 0 0 1-3.553-.282 2.948 2.948 0 0 1-.72-2.12 3.061 3.061 0 0 1 .726-2.185 2.463 2.463 0 0 1 1.89-.778 2.403 2.403 0 0 1 1.837.76c.504.6.758 1.37.708 2.15v.251h-4.2a2.147 2.147 0 0 0 .521 1.407c.31.33.748.51 1.2.491.319.01.632-.087.889-.275a1.81 1.81 0 0 0 .582-.868zm-3.12-1.533h3.126a1.92 1.92 0 0 0-.354-1.06 1.46 1.46 0 0 0-1.2-.545 1.514 1.514 0 0 0-1.105.437 1.746 1.746 0 0 0-.468 1.168zm9.325 3.329l-1.717-5.586h.985l.894 3.227.33 1.197c0-.06.108-.443.288-1.155l.894-3.27h.972l.84 3.24.282 1.072.318-1.084.96-3.227h.925l-1.753 5.586h-.984l-.894-3.347-.216-.952-1.134 4.3h-.99zm6.775-6.622v-1.09h1.012v1.09h-1.012zm0 6.622V86.85h1.012v5.586h-1.012zm4.465-.845l.138.833a3.29 3.29 0 0 1-.72.084c-.276.015-.55-.04-.799-.162a.911.911 0 0 1-.402-.425 3.4 3.4 0 0 1-.114-1.12v-3.215H138v-.736h.69v-1.384l.943-.598v1.952h.954v.736h-.954v3.27c-.01.174.006.35.048.52a.402.402 0 0 0 .168.18.598.598 0 0 0 .324.072c.14.007.28.005.42-.006zm.93.845v-7.712h.948v2.766a2.114 2.114 0 0 1 1.674-.766 2.22 2.22 0 0 1 1.087.245c.288.143.518.38.654.67.15.402.218.83.198 1.258v3.54h-.948v-3.558a1.447 1.447 0 0 0-.313-1.036 1.136 1.136 0 0 0-.87-.323c-.278 0-.552.074-.792.216a1.27 1.27 0 0 0-.534.598c-.116.331-.169.68-.156 1.03v3.06l-.948.012zM.912 105.369l3-7.713h1.105l3.162 7.713H7.015l-.906-2.336H2.881l-.853 2.336H.912zm2.233-3.168h2.622l-.81-2.138a23.5 23.5 0 0 1-.546-1.598 10 10 0 0 1-.42 1.473l-.846 2.263zm5.701 3.168v-5.587h.852v.79a2.024 2.024 0 0 1 1.8-.916 2.4 2.4 0 0 1 .936.18c.24.102.448.267.6.479.149.208.25.444.3.694.039.306.055.614.048.923v3.437h-.948v-3.402a2.593 2.593 0 0 0-.108-.862.923.923 0 0 0-.396-.46 1.244 1.244 0 0 0-.66-.168 1.544 1.544 0 0 0-1.05.383c-.34.404-.5.93-.438 1.455v3.054h-.936zm9.661-.689a3.489 3.489 0 0 1-1.014.629 2.85 2.85 0 0 1-1.05.185 2.037 2.037 0 0 1-1.416-.449 1.483 1.483 0 0 1-.498-1.15 1.59 1.59 0 0 1 .678-1.293c.21-.139.44-.244.684-.311.279-.064.561-.112.846-.144a8.7 8.7 0 0 0 1.692-.323v-.252a1.046 1.046 0 0 0-.27-.814 1.593 1.593 0 0 0-1.08-.317 1.677 1.677 0 0 0-.99.233c-.25.213-.417.505-.474.826l-.924-.125c.061-.347.203-.675.414-.958a1.8 1.8 0 0 1 .84-.563c.41-.14.84-.206 1.272-.198a3.35 3.35 0 0 1 1.164.168c.253.082.481.229.66.425.149.187.25.407.294.64.04.29.056.583.048.875v1.263c-.015.558.005 1.116.06 1.67.042.236.124.463.24.672h-.99a1.967 1.967 0 0 1-.186-.69zm-.078-2.114a7.113 7.113 0 0 1-1.554.354c-.283.031-.56.096-.828.191a.864.864 0 0 0-.372.311.777.777 0 0 0-.132.45c.005.231.11.45.288.598.24.183.539.273.84.252a1.96 1.96 0 0 0 .978-.24c.263-.15.473-.378.6-.652.118-.301.172-.624.156-.946l.024-.318zm2.431 2.803v-7.713h.948v2.767a2.114 2.114 0 0 1 1.662-.767c.375-.01.747.074 1.08.246.288.143.52.38.654.67.152.402.219.83.198 1.258v3.539h-.948v-3.54a1.477 1.477 0 0 0-.306-1.035 1.16 1.16 0 0 0-.876-.323 1.542 1.542 0 0 0-.792.215 1.258 1.258 0 0 0-.528.599 2.671 2.671 0 0 0-.162 1.036v3.053l-.93-.005zm9.841-1.797l.985.12a2.395 2.395 0 0 1-.865 1.33 2.922 2.922 0 0 1-3.552-.282 2.948 2.948 0 0 1-.72-2.12c-.05-.796.213-1.58.732-2.185a2.451 2.451 0 0 1 1.884-.779 2.403 2.403 0 0 1 1.836.76 3.04 3.04 0 0 1 .715 2.15v.252h-4.201a2.147 2.147 0 0 0 .522 1.407 1.54 1.54 0 0 0 1.2.49c.32.01.635-.086.894-.275a1.79 1.79 0 0 0 .57-.868zm-3.114-1.52h3.126a1.877 1.877 0 0 0-.36-1.06 1.454 1.454 0 0 0-1.2-.545 1.49 1.49 0 0 0-1.098.437c-.3.315-.468.733-.468 1.167zm5.293-3.306v-1.09h1.012v1.09H32.88zm0 6.623v-5.587h1.012v5.587H32.88zm2.394 0v-5.587h.852v.784a2.02 2.02 0 0 1 .696-.664 2.038 2.038 0 0 1 1.003-.246 1.84 1.84 0 0 1 1.02.258c.263.169.46.422.558.718a2.011 2.011 0 0 1 1.734-.976c.472-.032.936.135 1.278.461.33.394.493.902.45 1.413v3.839h-.942v-3.521a2.635 2.635 0 0 0-.096-.82.803.803 0 0 0-.336-.402 1.04 1.04 0 0 0-.57-.15 1.33 1.33 0 0 0-.978.39c-.29.352-.43.803-.39 1.257v3.246h-.948v-3.629a1.602 1.602 0 0 0-.234-.952.883.883 0 0 0-.762-.311 1.352 1.352 0 0 0-.739.21 1.2 1.2 0 0 0-.492.598 3.436 3.436 0 0 0-.156 1.167v2.899l-.948.018zm10.778-1.899v-.287a2.72 2.72 0 0 1 .156-.958c.092-.22.22-.421.378-.599a8.33 8.33 0 0 1 .678-.664c.249-.196.465-.428.642-.689a1.07 1.07 0 0 0 .15-.563 1.297 1.297 0 0 0-.432-.97 1.46 1.46 0 0 0-1.062-.419 1.436 1.436 0 0 0-1.014.377c-.306.329-.492.75-.528 1.198l-.978-.12c.02-.631.3-1.227.773-1.647a2.314 2.314 0 0 1 1.73-.574 2.578 2.578 0 0 1 1.8.598 1.98 1.98 0 0 1 .438 2.395 4.59 4.59 0 0 1-.93 1.036 5 5 0 0 0-.6.599 1.406 1.406 0 0 0-.21.45 3.581 3.581 0 0 0-.079.82l-.912.017zm-.06 1.899v-1.078h1.08v1.078h-1.08z"/><path d="M.348 12.876l.6-.06c.031.226.135.436.294.6a.8.8 0 0 0 .558.19.97.97 0 0 0 .516-.13c.144-.092.267-.212.36-.354.105-.188.184-.39.235-.599a3.03 3.03 0 0 0 .096-.772 1.07 1.07 0 0 0 0-.126 1.45 1.45 0 0 1-1.23.677 1.442 1.442 0 0 1-1.08-.461 1.68 1.68 0 0 1-.445-1.198c-.02-.464.146-.917.462-1.257a1.53 1.53 0 0 1 1.158-.48c.326-.002.646.091.918.27.286.188.507.457.637.772.165.463.239.953.216 1.443a4.63 4.63 0 0 1-.216 1.57 1.856 1.856 0 0 1-.637.891c-.29.206-.64.313-.996.306a1.466 1.466 0 0 1-.99-.336 1.436 1.436 0 0 1-.456-.946zm2.593-2.269a1.256 1.256 0 0 0-.295-.868.919.919 0 0 0-.696-.317.961.961 0 0 0-.738.347 1.28 1.28 0 0 0-.312.886c-.01.297.098.585.3.802.19.201.456.312.732.306a.931.931 0 0 0 .72-.306c.203-.235.307-.54.289-.85zm1.668.431v-.718H5.62v.718H4.609zm0 2.994v-.718H5.62v.718H4.609zm1.651-1.317l.66-.054c.03.275.152.533.347.73a.913.913 0 0 0 .648.24c.295.002.577-.122.775-.341a1.3 1.3 0 0 0 .312-.917 1.196 1.196 0 0 0-.3-.85c-.21-.211-.5-.325-.799-.311a1.124 1.124 0 0 0-.552.138 1.2 1.2 0 0 0-.39.359l-.6-.078.504-2.64h2.563v.598H7.369l-.276 1.383c.282-.207.622-.32.972-.323a1.55 1.55 0 0 1 1.14.467c.312.32.479.752.463 1.198.008.434-.136.858-.408 1.197a1.64 1.64 0 0 1-1.35.599 1.67 1.67 0 0 1-1.153-.395 1.52 1.52 0 0 1-.498-1zm4.008-.006l.63-.09c.04.292.17.564.372.778a.92.92 0 0 0 .636.234c.284.007.557-.104.756-.305.202-.204.313-.48.306-.767a.963.963 0 0 0-1.008-1c-.15.005-.3.029-.444.072l.066-.557h.102c.26.005.515-.068.732-.21a.712.712 0 0 0 .324-.646.766.766 0 0 0-.24-.599.817.817 0 0 0-.6-.227.865.865 0 0 0-.6.227c-.18.19-.29.435-.312.695l-.636-.114c.057-.369.239-.707.516-.958a1.53 1.53 0 0 1 1.026-.347c.269-.003.534.059.774.18.448.21.733.66.732 1.155a1.07 1.07 0 0 1-.18.599 1.2 1.2 0 0 1-.528.437 1.2 1.2 0 0 1 .708.437c.175.241.264.534.252.832.008.432-.171.847-.492 1.138a1.742 1.742 0 0 1-1.242.473 1.622 1.622 0 0 1-1.128-.407 1.55 1.55 0 0 1-.522-1.03z" fill="#231F20" fill-rule="nonzero"/><path stroke="#000" stroke-width=".75" stroke-linecap="round" stroke-linejoin="round" d="M15.59 10.146l3.95-1.826-1.8 4.191V10.23z"/><path d="M.912 118.326h159.154" stroke="#CE434F" stroke-width="2"/><rect fill="#4CBEA0" fill-rule="nonzero" x="35.736" y="360.972" width="88.882" height="29.939" rx="3"/><path d="M65.568 377.222l1.518-.15c.049.428.244.825.552 1.126a2.086 2.086 0 0 0 2.268.036.933.933 0 0 0 .372-.748.694.694 0 0 0-.162-.467 1.327 1.327 0 0 0-.558-.336c-.186-.06-.6-.173-1.254-.335a4.205 4.205 0 0 1-1.758-.766 2.015 2.015 0 0 1-.378-2.653c.234-.352.571-.624.966-.778a3.843 3.843 0 0 1 1.518-.27 3.282 3.282 0 0 1 2.196.635c.49.43.77 1.05.769 1.7l-1.56.066a1.298 1.298 0 0 0-.433-.85 1.557 1.557 0 0 0-.984-.263c-.377-.02-.75.078-1.068.281a.562.562 0 0 0-.246.48.598.598 0 0 0 .234.466c.442.26.928.434 1.434.515a7.53 7.53 0 0 1 1.68.557c.353.179.65.45.859.784.21.364.316.778.306 1.198.002.44-.126.87-.366 1.24-.248.39-.614.692-1.045.862a4.45 4.45 0 0 1-1.686.28 3.354 3.354 0 0 1-2.25-.676 2.943 2.943 0 0 1-.924-1.934zm7.597 2.509v-7.712h5.73v1.305h-4.2v1.707h3.883v1.3h-3.883v2.1h4.32v1.3zm7.219 0v-7.712h1.518l3.169 5.15v-5.15h1.446v7.712h-1.566l-3.115-5.03v5.03zm7.784-7.712h2.85c.494-.016.989.032 1.47.144.455.126.868.372 1.194.712.336.358.588.785.739 1.252.18.581.264 1.188.252 1.796a4.93 4.93 0 0 1-.24 1.64 3.37 3.37 0 0 1-.829 1.366c-.315.28-.69.485-1.098.599a4.75 4.75 0 0 1-1.38.161h-2.934l-.024-7.67zm1.56 1.305v5.108h1.164c.316.01.632-.014.942-.072a1.43 1.43 0 0 0 .63-.323c.2-.208.343-.464.414-.743.117-.462.17-.937.156-1.413a4.78 4.78 0 0 0-.156-1.377 1.831 1.831 0 0 0-.444-.743 1.52 1.52 0 0 0-.726-.365 7.217 7.217 0 0 0-1.278-.072h-.702z" fill="#FFF" fill-rule="nonzero"/><path d="M59.116 284.317a15.532 15.532 0 0 1-9.61 14.35 15.592 15.592 0 0 1-16.964-3.367 15.507 15.507 0 0 1-3.374-16.927 15.567 15.567 0 0 1 14.382-9.588c8.597 0 15.566 6.954 15.566 15.532z" fill="url(#a)" fill-rule="nonzero"/><path d="M55.402 282.473c0 6.532-5.305-1.198-11.852-1.198-6.547 0-11.846 7.736-11.846 1.198 0-6.539 5.305-10.808 11.846-10.808 6.54 0 11.852 4.275 11.852 10.808z" fill="url(#b)" fill-rule="nonzero"/><path d="M48.074 294.406c0 1.108-1.614-1.095-4.41-.97-2.947.132-4.645 1.647-4.645.785 0-1.545 2.208-3.593 4.645-3.593 2.436 0 4.41 2.509 4.41 3.778z" fill="url(#c)" fill-rule="nonzero"/><path d="M47.882 294.891a2.2 2.2 0 0 1-.84-.341 6.492 6.492 0 0 0-3.15-.946h-.222c-1.174.08-2.327.34-3.42.772-.316.14-.65.233-.991.276a.397.397 0 0 1-.294-.108.419.419 0 0 1-.114-.323 3.537 3.537 0 0 1 1.47-2.503 5.342 5.342 0 0 1 3.343-1.258 4.763 4.763 0 0 1 3.21 1.461 4.027 4.027 0 0 1 1.344 2.485c.024.45-.204.485-.336.485zm-4.008-1.628a6.78 6.78 0 0 1 3.312.988c.21.135.438.236.678.299v-.144c0-1.197-1.92-3.592-4.242-3.592-2.323 0-4.471 1.934-4.471 3.425a.173.173 0 0 0 0 .084h.054c.3-.048.592-.135.87-.258a11.423 11.423 0 0 1 3.523-.79l.276-.012z" fill="#F7ED38" fill-rule="nonzero"/><path d="M40.273 285.754c.24.64-1.368 1.03-3.174 1.707-1.807.676-3.47 1.377-3.715.736-.246-.64.132-1.856 2.7-2.796 2.479-.898 3.949-.294 4.19.353z" fill="url(#d)" fill-rule="nonzero"/><path d="M33.888 288.622c-.432 0-.6-.197-.66-.365a1.368 1.368 0 0 1 .072-1.048c.246-.533.918-1.305 2.73-1.964a6.879 6.879 0 0 1 2.347-.467c1.26 0 1.896.491 2.052.916a.49.49 0 0 1 0 .401c-.21.45-1.068.749-2.25 1.162-.324.114-.666.234-1.008.365l-.51.192c-.882.4-1.815.671-2.773.808zm4.489-3.503a6.614 6.614 0 0 0-2.233.444c-1.698.598-2.316 1.317-2.532 1.796-.127.242-.15.524-.066.784 0 .042.054.144.342.144a10.4 10.4 0 0 0 2.64-.784l.51-.192c.349-.132.69-.252 1.015-.365.984-.348 1.908-.671 2.058-.988a.161.161 0 0 0 0-.138c-.126-.341-.72-.7-1.734-.7z" fill="#F7ED38" fill-rule="nonzero"/><path d="M46.772 285.676c-.24.647 1.368 1.036 3.175 1.713 1.806.676 3.468 1.377 3.708.73.24-.646-.126-1.85-2.7-2.79-2.472-.904-3.943-.293-4.183.347z" fill="url(#e)" fill-rule="nonzero"/><path d="M53.151 288.544a10.261 10.261 0 0 1-2.754-.808l-.51-.192c-.348-.131-.684-.245-1.008-.359-1.2-.419-2.04-.718-2.25-1.161a.532.532 0 0 1 0-.408c.161-.419.791-.916 2.058-.916.803.02 1.596.179 2.346.467 1.8.665 2.484 1.437 2.73 1.97.163.324.188.7.072 1.042-.084.168-.246.365-.684.365zm-4.476-3.502c-1.015 0-1.615.359-1.74.694a.173.173 0 0 0 0 .144c.15.317 1.073.64 2.058.982.324.114.666.233 1.014.365l.51.192c.838.38 1.725.646 2.634.79.294 0 .33-.108.348-.144a1.052 1.052 0 0 0-.066-.79c-.216-.473-.834-1.198-2.532-1.796a6.668 6.668 0 0 0-2.226-.437z" fill="#F7ED38" fill-rule="nonzero"/><path d="M59.116 199.142a15.532 15.532 0 0 1-9.61 14.35 15.592 15.592 0 0 1-16.964-3.367 15.507 15.507 0 0 1-3.374-16.927 15.567 15.567 0 0 1 14.382-9.588c8.597 0 15.566 6.954 15.566 15.532z" fill="url(#a)" fill-rule="nonzero"/><path d="M55.402 197.298c0 6.526-5.305-1.198-11.852-1.198-6.547 0-11.846 7.736-11.846 1.198 0-6.539 5.305-10.82 11.846-10.82 6.54 0 11.852 4.287 11.852 10.82z" fill="url(#f)" fill-rule="nonzero"/><path d="M49.797 194.394c0 2.628-.756 4.754-1.687 4.754-.93 0-1.686-2.126-1.686-4.754 0-2.629.75-4.79 1.686-4.79.937 0 1.687 2.161 1.687 4.79z" fill="url(#g)" fill-rule="nonzero"/><path d="M48.11 199.322c-1.164 0-1.86-2.51-1.86-4.928 0-2.42.696-4.928 1.86-4.928 1.165 0 1.855 2.503 1.855 4.928s-.69 4.928-1.855 4.928zm0-9.52c-.72 0-1.518 1.885-1.518 4.592 0 2.706.798 4.586 1.518 4.586s1.519-1.886 1.519-4.586-.798-4.593-1.519-4.593z" fill="#F7ED38" fill-rule="nonzero"/><path d="M40.957 194.478c0 2.628-.756 4.76-1.686 4.76-.93 0-1.686-2.132-1.686-4.76 0-2.63.756-4.755 1.686-4.755.93 0 1.686 2.144 1.686 4.755z" fill="url(#h)" fill-rule="nonzero"/><path d="M39.27 199.411c-1.163 0-1.86-2.508-1.86-4.933s.697-4.928 1.86-4.928c1.165 0 1.861 2.508 1.861 4.928 0 2.419-.696 4.933-1.86 4.933zm0-9.52c-.72 0-1.517 1.886-1.517 4.587 0 2.7.798 4.592 1.518 4.592s1.518-1.886 1.518-4.592c0-2.707-.798-4.587-1.518-4.587z" fill="#F7ED38" fill-rule="nonzero"/><path d="M53.913 201.202c.475 5.34-4.896 9.706-10.273 9.706s-10.802-4.365-10.334-9.706c.096-1.09 4.963.952 10.334.952 5.37 0 10.177-2.048 10.273-.952z" fill="url(#i)" fill-rule="nonzero"/><path d="M43.64 211.075a11.48 11.48 0 0 1-8.222-3.634 8.175 8.175 0 0 1-2.286-6.257c.03-.312.306-.473.828-.473.888.065 1.769.2 2.634.407 2.315.515 4.675.803 7.046.862a36.083 36.083 0 0 0 7.02-.868 16.874 16.874 0 0 1 2.6-.401c.521 0 .798.161.822.473a8.21 8.21 0 0 1-2.293 6.299 11.24 11.24 0 0 1-8.15 3.592zm-9.68-10.023c-.312 0-.48.054-.486.168a7.828 7.828 0 0 0 2.19 5.987 11.173 11.173 0 0 0 7.976 3.527 11.055 11.055 0 0 0 7.903-3.485 7.905 7.905 0 0 0 2.202-6.035c0-.114-.174-.174-.486-.174-.853.068-1.7.202-2.532.401a36.612 36.612 0 0 1-7.087.874 36.684 36.684 0 0 1-7.112-.868 16.645 16.645 0 0 0-2.568-.395z" fill="#F7ED38" fill-rule="nonzero"/><path d="M52.96 203.453c0 1.64-4.16 2.802-9.29 2.802-5.131 0-9.002-.73-9.284-2.802-.114-.868 4.159.383 9.284.383 5.125 0 9.29-1.257 9.29-.383z" fill="#311C10" fill-rule="nonzero"/><path d="M52.99 202.854c0 1.647-4.16 2.803-9.284 2.803-5.125 0-9.002-.73-9.29-2.803-.114-.868 4.159.39 9.29.39 5.13 0 9.283-1.264 9.283-.39z" fill="url(#j)" fill-rule="nonzero"/><path d="M59.116 241.727a15.532 15.532 0 0 1-9.61 14.35 15.592 15.592 0 0 1-16.964-3.368 15.507 15.507 0 0 1-3.374-16.926 15.567 15.567 0 0 1 14.382-9.589c8.597 0 15.566 6.954 15.566 15.533z" fill="url(#a)" fill-rule="nonzero"/><path d="M55.402 239.882c0 6.533-5.305-1.197-11.852-1.197-6.547 0-11.846 7.736-11.846 1.197 0-6.538 5.305-10.808 11.846-10.808 6.54 0 11.852 4.282 11.852 10.808z" fill="url(#k)" fill-rule="nonzero"/><ellipse fill="url(#l)" fill-rule="nonzero" cx="48.561" cy="239.511" rx="1.938" ry="2.694"/><path d="M48.56 242.38c-1.164 0-2.106-1.288-2.106-2.869 0-1.58.942-2.868 2.107-2.868 1.164 0 2.106 1.287 2.106 2.868 0 1.58-.942 2.868-2.106 2.868zm0-5.39c-.978 0-1.77 1.132-1.77 2.527 0 1.395.792 2.527 1.77 2.527.979 0 1.77-1.132 1.77-2.527 0-1.395-.797-2.533-1.77-2.533v.006z" fill="#F7ED38" fill-rule="nonzero"/><path d="M51.915 247.163a1.091 1.091 0 0 1-1.092 1.084H36.42a1.088 1.088 0 0 1-1.092-1.084 1.083 1.083 0 0 1 1.092-1.09h14.403c.603 0 1.092.488 1.092 1.09z" fill="url(#m)" fill-rule="nonzero"/><path d="M50.823 248.42H36.42a1.258 1.258 0 1 1 0-2.514h14.403a1.259 1.259 0 1 1 0 2.515zm-14.403-2.179a.92.92 0 1 0 0 1.838h14.403a.923.923 0 0 0 0-1.838H36.42z" fill="#F7ED38" fill-rule="nonzero"/><ellipse fill="url(#l)" fill-rule="nonzero" cx="39.133" cy="239.511" rx="1.938" ry="2.694"/><path d="M39.133 242.38c-1.158 0-2.106-1.288-2.106-2.869 0-1.58.948-2.868 2.106-2.868s2.112 1.287 2.112 2.868c0 1.58-.972 2.868-2.112 2.868zm0-5.39c-.972 0-1.764 1.132-1.764 2.527 0 1.395.792 2.527 1.764 2.527s1.8-1.132 1.8-2.527c0-1.395-.822-2.533-1.8-2.533v.006z" fill="#F7ED38" fill-rule="nonzero"/><path d="M59.116 156.54a15.532 15.532 0 0 1-9.61 14.35 15.592 15.592 0 0 1-16.964-3.368 15.507 15.507 0 0 1-3.374-16.926 15.567 15.567 0 0 1 14.382-9.589c8.597 0 15.566 6.954 15.566 15.532z" fill="url(#n)" fill-rule="nonzero"/><path d="M55.402 154.707c0 6.533-5.305-1.197-11.852-1.197-6.547 0-11.846 7.736-11.846 1.197 0-6.538 5.305-10.808 11.846-10.808 6.54 0 11.852 4.258 11.852 10.808z" fill="url(#o)" fill-rule="nonzero"/><path d="M51.357 162.48c.294 3.316-4.333 6.023-7.67 6.023-3.336 0-8.077-2.707-7.8-6.024.06-.676 4.446.599 7.8.599 3.355 0 7.61-1.275 7.67-.599z" fill="url(#p)" fill-rule="nonzero"/><path d="M43.688 168.677a9.852 9.852 0 0 1-6.661-2.94 4.294 4.294 0 0 1-1.29-3.27c.03-.353.54-.353.731-.353.826.045 1.648.143 2.46.293a33.18 33.18 0 0 0 4.76.491 32.403 32.403 0 0 0 4.723-.497 19.31 19.31 0 0 1 2.4-.293c.186 0 .69 0 .72.36a4.336 4.336 0 0 1-1.302 3.322 9.708 9.708 0 0 1-6.541 2.887zm-7.616-6.15a3.983 3.983 0 0 0 1.2 2.994 9.503 9.503 0 0 0 6.416 2.826 9.33 9.33 0 0 0 6.283-2.772 4.025 4.025 0 0 0 1.2-3.06.788.788 0 0 0-.384-.054 18.88 18.88 0 0 0-2.346.288c-1.576.284-3.17.452-4.771.503a33.576 33.576 0 0 1-4.801-.497 20.207 20.207 0 0 0-2.4-.294.752.752 0 0 0-.397.066z" fill="#F7ED38" fill-rule="nonzero"/><path d="M44.93 154.144s-.816-3.97 2.808-4.191c2.593-.168 2.833 2.994 2.833 2.994s2.448-2.898 4.615-.76c2.166 2.137-.234 4.46-.234 4.46l-5.593 3.21a.745.745 0 0 1-1.002-.312c-.427-.688-3.427-5.4-3.427-5.4z" fill="url(#q)" fill-rule="nonzero"/><path d="M49.005 160.06a.937.937 0 0 1-.793-.467 566.15 566.15 0 0 1-3.426-5.389v-.06c0-.077-.396-1.982.6-3.275a3.045 3.045 0 0 1 2.364-1.126h.21c2.01 0 2.593 1.952 2.749 2.779a4.234 4.234 0 0 1 2.742-1.348 2.62 2.62 0 0 1 1.879.839 2.88 2.88 0 0 1 .954 2.101 4.104 4.104 0 0 1-1.2 2.605l-5.593 3.203a.932.932 0 0 1-.486.138zm-3.913-5.988c.246.39 3 4.73 3.409 5.336a.6.6 0 0 0 .504.323.601.601 0 0 0 .264-.066l5.575-3.191a3.81 3.81 0 0 0 1.08-2.354 2.578 2.578 0 0 0-.858-1.856 2.283 2.283 0 0 0-1.639-.736c-1.452 0-2.712 1.467-2.73 1.485l-.264.311-.03-.407c0-.114-.246-2.82-2.467-2.82h-.186a2.739 2.739 0 0 0-2.118.994c-.84 1.09-.558 2.736-.558 2.976l.018.005z" fill="#F7ED38" fill-rule="nonzero"/><path d="M42.283 154.144s.817-3.97-2.808-4.191c-2.593-.168-2.833 2.994-2.833 2.994s-2.448-2.898-4.614-.76c-2.167 2.137.234 4.46.234 4.46l5.593 3.21c.363.189.81.05 1.002-.312.426-.688 3.426-5.4 3.426-5.4z" fill="url(#r)" fill-rule="nonzero"/><path d="M38.209 160.06a.932.932 0 0 1-.438-.108l-5.611-3.215a4.104 4.104 0 0 1-1.2-2.605 2.883 2.883 0 0 1 .954-2.101 2.62 2.62 0 0 1 1.878-.839 4.234 4.234 0 0 1 2.742 1.348c.156-.827.739-2.779 2.749-2.779h.21c.918 0 1.787.414 2.364 1.126.997 1.293.6 3.197.6 3.275v.036c-.03.048-3 4.737-3.426 5.39a.937.937 0 0 1-.822.472zm-5.84-3.592l5.576 3.191a.601.601 0 0 0 .264.066.6.6 0 0 0 .504-.323c.408-.6 3.162-4.946 3.408-5.335.042-.24.294-1.887-.54-2.994a2.739 2.739 0 0 0-2.118-.994h-.186c-2.226 0-2.46 2.79-2.467 2.82v.413l-.27-.317s-1.272-1.485-2.724-1.485a2.283 2.283 0 0 0-1.638.736 2.578 2.578 0 0 0-.907 1.898 3.81 3.81 0 0 0 1.099 2.324z" fill="#F7ED38" fill-rule="nonzero"/><path d="M59.116 326.908a15.532 15.532 0 0 1-9.61 14.35 15.592 15.592 0 0 1-16.964-3.368 15.507 15.507 0 0 1-3.374-16.926 15.567 15.567 0 0 1 14.382-9.589c8.597 0 15.566 6.954 15.566 15.533z" fill="url(#s)" fill-rule="nonzero"/><path d="M55.402 325.063c0 6.527-5.305-1.197-11.852-1.197-6.547 0-11.846 7.736-11.846 1.197 0-6.538 5.305-10.807 11.846-10.807 6.54 0 11.852 4.275 11.852 10.807z" fill="url(#t)" fill-rule="nonzero"/><path d="M49.79 328.913c0 1.485-.863 2.695-1.938 2.695-1.074 0-1.938-1.198-1.938-2.695 0-1.496.87-2.7 1.938-2.7 1.069 0 1.939 1.21 1.939 2.7z" fill="url(#u)" fill-rule="nonzero"/><path d="M47.852 331.776c-1.158 0-2.106-1.282-2.106-2.863 0-1.58.948-2.868 2.106-2.868 1.159 0 2.113 1.288 2.113 2.868 0 1.581-.948 2.863-2.113 2.863zm0-5.39c-.972 0-1.764 1.132-1.764 2.527 0 1.396.792 2.527 1.764 2.527.973 0 1.8-1.137 1.8-2.527 0-1.389-.821-2.526-1.8-2.526z" fill="#F79431" fill-rule="nonzero"/><path d="M47.936 336.542c0 1.49-1.302-.773-4.32-.7-2.743.071-4.387 1.915-4.387.43s1.662-3.377 4.387-3.377c2.952 0 4.32 2.156 4.32 3.647z" fill="url(#v)" fill-rule="nonzero"/><path d="M47.684 337.218a2.121 2.121 0 0 1-.798-.31 6.204 6.204 0 0 0-3.264-.893 8.471 8.471 0 0 0-2.923.694 3.6 3.6 0 0 1-1.08.312c-.372 0-.564-.252-.564-.749a3.297 3.297 0 0 1 1.236-2.395 5.03 5.03 0 0 1 3.325-1.197 4.584 4.584 0 0 1 3.39 1.311 3.738 3.738 0 0 1 1.098 2.503c0 .168 0 .677-.42.677v.047zm-3.918-1.544a6.654 6.654 0 0 1 3.282.934c.197.123.412.215.636.275.072 0 .078-.263.078-.341 0-1.401-1.314-3.479-4.146-3.479-2.719 0-4.201 1.898-4.201 3.21 0 .407.126.407.222.407.33-.05.652-.147.954-.288a8.934 8.934 0 0 1 3.037-.718h.138z" fill="#F79431" fill-rule="nonzero"/><path d="M41.263 328.913c0 1.485-.87 2.695-1.938 2.695s-1.938-1.198-1.938-2.695c0-1.496.864-2.7 1.938-2.7 1.074 0 1.938 1.21 1.938 2.7z" fill="url(#u)" fill-rule="nonzero"/><path d="M39.325 331.776c-1.164 0-2.112-1.282-2.112-2.863 0-1.58.948-2.868 2.112-2.868 1.164 0 2.106 1.288 2.106 2.868 0 1.581-.948 2.863-2.106 2.863zm0-5.39c-.978 0-1.77 1.132-1.77 2.527 0 1.396.792 2.527 1.77 2.527s1.764-1.137 1.764-2.527c0-1.389-.816-2.526-1.764-2.526z" fill="#F79431" fill-rule="nonzero"/><path d="M45.488 327.303s-.318-.45.18-1.198a6.746 6.746 0 0 1 6.295-2.592c.762.12.462.724-.414.94-.876.215-3.823 1.251-5.1 2.526-.625.641-.961.324-.961.324z" fill="url(#w)" fill-rule="nonzero"/><path d="M45.74 327.554a.529.529 0 0 1-.366-.131 1.195 1.195 0 0 1 .174-1.372 7.056 7.056 0 0 1 5.401-2.754c.352 0 .703.03 1.05.09.51.084.6.353.6.467 0 .335-.378.659-.978.808-.858.21-3.763 1.198-5.023 2.48a1.231 1.231 0 0 1-.858.412zm-.126-.371c.054 0 .282.126.714-.305 1.308-1.306 4.297-2.354 5.185-2.575.51-.12.72-.365.714-.461-.006-.096-.096-.114-.294-.15a6.976 6.976 0 0 0-.996-.078 6.666 6.666 0 0 0-5.13 2.605.962.962 0 0 0-.193.97v-.006z" fill="#F15623" fill-rule="nonzero"/><path d="M41.617 327.303s.318-.45-.18-1.198a6.746 6.746 0 0 0-6.295-2.592c-.768.12-.462.724.414.94.876.215 3.823 1.251 5.095 2.526.624.641.966.324.966.324z" fill="url(#x)" fill-rule="nonzero"/><path d="M41.365 327.554a1.243 1.243 0 0 1-.834-.437c-1.254-1.251-4.159-2.27-5.017-2.479-.6-.15-.99-.473-.978-.808 0-.114.072-.383.6-.467a6.2 6.2 0 0 1 1.044-.09 7.056 7.056 0 0 1 5.401 2.754c.343.375.413.924.174 1.372a.529.529 0 0 1-.39.155zm-5.203-3.958a6.964 6.964 0 0 0-.99.078c-.204.036-.294.102-.3.15-.006.048.21.341.72.461.882.222 3.877 1.27 5.18 2.575a.913.913 0 0 0 .6.335c.04.01.084.01.125 0 .042-.078.174-.42-.192-.964a6.672 6.672 0 0 0-5.143-2.635z" fill="#F15623" fill-rule="nonzero"/><path fill="#1F407B" fill-rule="nonzero" d="M67.326 158.57v-5.988h4.465v1.017h-3.247v1.33h3v1.012h-3v1.628h3.36v1.012zm4.993 0l2.058-3.132-1.86-2.868h1.416l1.2 1.928 1.2-1.928h1.405l-1.867 2.916 2.053 3.083h-1.465l-1.332-2.071-1.338 2.071zm10.063-2.204l1.2.371a2.64 2.64 0 0 1-.9 1.461 2.843 2.843 0 0 1-3.564-.341 3.11 3.11 0 0 1-.768-2.234 3.289 3.289 0 0 1 .774-2.329 2.655 2.655 0 0 1 2.034-.826 2.488 2.488 0 0 1 1.8.652c.298.306.505.687.6 1.102l-1.2.288a1.233 1.233 0 0 0-.444-.737 1.268 1.268 0 0 0-.822-.27 1.388 1.388 0 0 0-1.086.48 2.355 2.355 0 0 0-.414 1.55 2.54 2.54 0 0 0 .408 1.623c.265.314.658.49 1.068.48.307.008.606-.102.834-.306.255-.265.423-.601.48-.964zm2.221 2.204v-5.988h4.459v1.017h-3.247v1.33h3v1.012h-3v1.628h3.36v1.012zm5.635 0v-5.953h1.2v4.94h3v1.012zm5.137 0v-5.953h1.2v4.94h3v1.012zm5.095 0v-5.988h4.458v1.017h-3.24v1.33h3v1.012h-3v1.628h3.354v1.012zm5.617 0v-5.988h1.2l2.46 4.005v-4.005h1.128v5.987h-1.2l-2.4-3.91v3.91zm7.399 0v-4.983h-1.8v-1.017h4.8v1.017h-1.8v4.982zm-43.358 40.38v-1.012h2.617v2.396a3.332 3.332 0 0 1-1.104.646 4.083 4.083 0 0 1-1.47.282 3.294 3.294 0 0 1-1.645-.396 2.541 2.541 0 0 1-1.056-1.131 3.664 3.664 0 0 1-.348-1.599c-.01-.578.124-1.15.39-1.665a2.698 2.698 0 0 1 1.152-1.12c.45-.209.944-.31 1.44-.293a2.885 2.885 0 0 1 1.753.467c.422.315.711.777.81 1.294l-1.2.227a1.293 1.293 0 0 0-.48-.7 1.46 1.46 0 0 0-.877-.252 1.658 1.658 0 0 0-1.266.503 2.12 2.12 0 0 0-.468 1.491c-.04.574.128 1.144.474 1.605a1.61 1.61 0 0 0 1.248.533c.264 0 .524-.052.768-.15.235-.09.455-.213.655-.365v-.76h-1.393zm3.487-.754a3.86 3.86 0 0 1 .264-1.539 2.85 2.85 0 0 1 .564-.826 2.4 2.4 0 0 1 .774-.54 3.38 3.38 0 0 1 1.296-.233 2.824 2.824 0 0 1 2.167.82 3.67 3.67 0 0 1 0 4.563 2.818 2.818 0 0 1-2.119.82 2.86 2.86 0 0 1-2.136-.814 3.103 3.103 0 0 1-.81-2.251zm1.254-.042a2.218 2.218 0 0 0 .474 1.545 1.622 1.622 0 0 0 2.4 0c.34-.45.505-1.007.463-1.569a2.266 2.266 0 0 0-.45-1.539 1.688 1.688 0 0 0-2.4 0 2.24 2.24 0 0 0-.487 1.563zm5.281.042a3.86 3.86 0 0 1 .276-1.539 2.85 2.85 0 0 1 .564-.826 2.4 2.4 0 0 1 .774-.54 3.361 3.361 0 0 1 1.297-.233 2.824 2.824 0 0 1 2.13.82 3.694 3.694 0 0 1 0 4.563 2.818 2.818 0 0 1-2.118.82 2.86 2.86 0 0 1-2.137-.814 3.103 3.103 0 0 1-.786-2.251zm1.254-.042a2.218 2.218 0 0 0 .474 1.545 1.622 1.622 0 0 0 2.4 0c.34-.45.505-1.007.463-1.569a2.266 2.266 0 0 0-.45-1.539 1.701 1.701 0 0 0-2.4 0c-.351.443-.524 1-.487 1.563zm5.527-2.994h2.22a4.24 4.24 0 0 1 1.14.114 2 2 0 0 1 .907.55c.27.276.474.607.6.97.143.46.21.94.198 1.42a3.87 3.87 0 0 1-.186 1.281 2.708 2.708 0 0 1-.642 1.06c-.245.22-.536.384-.852.48a3.759 3.759 0 0 1-1.08.125h-2.28l-.025-6zm1.2 1.012v3.976h.907c.245.01.491-.01.732-.06.182-.04.35-.124.492-.245a1.29 1.29 0 0 0 .318-.6c.095-.358.138-.73.126-1.101.013-.36-.03-.72-.126-1.066a1.436 1.436 0 0 0-.342-.599 1.201 1.201 0 0 0-.564-.281 5.118 5.118 0 0 0-.996-.06l-.547.036zM67.08 240.786a3.89 3.89 0 0 1 .276-1.544 2.82 2.82 0 0 1 .564-.82c.218-.232.481-.415.774-.54a3.271 3.271 0 0 1 1.296-.24 2.83 2.83 0 0 1 2.13.827c.56.627.848 1.45.799 2.288a3.121 3.121 0 0 1-.792 2.269 2.8 2.8 0 0 1-2.119.826 2.842 2.842 0 0 1-2.136-.82 3.091 3.091 0 0 1-.792-2.246zm1.254-.041c-.04.555.129 1.106.474 1.544.302.345.742.539 1.2.527.46.015.901-.179 1.2-.527.34-.447.504-1.003.463-1.562a2.254 2.254 0 0 0-.45-1.54 1.676 1.676 0 0 0-2.4 0 2.23 2.23 0 0 0-.487 1.558zm5.545 2.999v-5.987h1.2v2.664l2.449-2.664h1.632l-2.262 2.34 2.4 3.66h-1.572l-1.65-2.815-.997.994v1.796zm-6.553 36.591h2.22a4.24 4.24 0 0 1 1.14.114c.347.097.661.288.907.55.268.28.472.612.6.977a4.4 4.4 0 0 1 .198 1.419c.01.432-.053.864-.186 1.275a2.657 2.657 0 0 1-.642 1.06 2.162 2.162 0 0 1-.853.48 3.74 3.74 0 0 1-1.074.125H67.35l-.024-6zm1.2 1.018v3.97h.906c.247.007.495-.01.738-.054a1.07 1.07 0 0 0 .486-.251c.16-.166.27-.374.318-.6.095-.356.138-.725.127-1.095a3.525 3.525 0 0 0-.127-1.072 1.412 1.412 0 0 0-.342-.598 1.201 1.201 0 0 0-.564-.282 5.816 5.816 0 0 0-.996-.054l-.546.036zm4.831 4.982v-5.988h1.2v5.988zm2.064-1.952l1.2-.114c.04.332.192.64.433.874.25.196.564.294.882.276a1.37 1.37 0 0 0 .882-.246.748.748 0 0 0 .3-.598.55.55 0 0 0-.126-.366 1.015 1.015 0 0 0-.438-.257 16.423 16.423 0 0 0-.972-.264 3.304 3.304 0 0 1-1.369-.598 1.56 1.56 0 0 1-.294-2.066c.185-.27.446-.478.75-.599.382-.151.79-.222 1.2-.21a2.506 2.506 0 0 1 1.705.497c.384.33.603.812.6 1.318l-1.2.054a1.035 1.035 0 0 0-.336-.665 1.238 1.238 0 0 0-.768-.204 1.347 1.347 0 0 0-.828.222.437.437 0 0 0-.192.371.46.46 0 0 0 .18.365c.344.2.722.337 1.116.402.452.09.89.235 1.308.43.272.137.502.344.666.6.17.288.253.618.24.952 0 .344-.1.68-.288.97a1.71 1.71 0 0 1-.81.664 3.34 3.34 0 0 1-1.308.222 2.596 2.596 0 0 1-1.753-.527 2.274 2.274 0 0 1-.78-1.503zm11.336 1.952h-1.32l-.528-1.36h-2.4l-.499 1.36h-1.29l2.347-5.988h1.284l2.406 5.988zm-2.238-2.395l-.828-2.228-.81 2.252 1.638-.024zm2.881 2.395v-5.988h1.95c.484-.019.968.011 1.446.09.348.096.652.308.864.599.251.347.374.77.348 1.197.012.321-.056.64-.198.928a1.666 1.666 0 0 1-.516.6 1.76 1.76 0 0 1-.6.287 7.265 7.265 0 0 1-1.254.083h-.792v2.264l-1.249-.06zm1.2-4.982v1.7h.66c.323.02.647-.012.96-.095a.822.822 0 0 0 .384-.294.807.807 0 0 0 .132-.467.753.753 0 0 0-.192-.538.823.823 0 0 0-.486-.27 6.688 6.688 0 0 0-.876-.036H88.6zm4.404 4.982v-5.988h1.95c.483-.02.965.01 1.44.09.35.095.658.306.871.599a2.17 2.17 0 0 1 .144 2.095 1.6 1.6 0 0 1-.51.6 1.748 1.748 0 0 1-.63.287 7.295 7.295 0 0 1-1.26.084h-.792v2.263l-1.213-.03zm1.2-4.982v1.7h.679c.323.02.647-.012.96-.095a.784.784 0 0 0 .516-.76.753.753 0 0 0-.192-.54.823.823 0 0 0-.486-.269 6.688 6.688 0 0 0-.876-.036h-.6zm4.159 2.018a3.759 3.759 0 0 1 .276-1.539c.135-.305.324-.583.558-.82.219-.233.485-.417.78-.539.411-.168.853-.25 1.297-.24a2.842 2.842 0 0 1 2.124.82 3.67 3.67 0 0 1 0 4.563 3.168 3.168 0 0 1-4.249 0 3.097 3.097 0 0 1-.786-2.245zm1.249-.042c-.04.556.13 1.106.474 1.545a1.622 1.622 0 0 0 2.4 0 2.272 2.272 0 0 0 .468-1.563 2.224 2.224 0 0 0-.456-1.539 1.676 1.676 0 0 0-2.4 0c-.351.44-.525.996-.486 1.557zm5.472 3.006v-5.988h1.2v5.988zm2.401 0v-5.988h1.2l2.46 4.006v-4.006h1.14v5.988h-1.2l-2.4-3.91v3.91zm7.411 0v-4.982h-1.8v-1.018h4.8v1.018h-1.8v4.982zm3.744 0v-5.988h1.201v5.988zm2.383 0v-5.988h1.2l2.46 4.006v-4.006h1.13v5.988h-1.201l-2.4-3.91v3.91zm8.852-2.204v-1.011h2.616v2.395a3.2 3.2 0 0 1-1.104.646 3.926 3.926 0 0 1-1.464.282 3.294 3.294 0 0 1-1.644-.395 2.523 2.523 0 0 1-1.057-1.126 3.67 3.67 0 0 1-.354-1.599 3.455 3.455 0 0 1 .396-1.67 2.65 2.65 0 0 1 1.153-1.114 3.126 3.126 0 0 1 1.44-.3 2.88 2.88 0 0 1 1.746.467c.424.317.713.78.81 1.3l-1.2.221a1.245 1.245 0 0 0-.474-.694 1.43 1.43 0 0 0-.876-.258 1.64 1.64 0 0 0-1.266.503c-.341.42-.508.953-.468 1.491a2.343 2.343 0 0 0 .474 1.605 1.58 1.58 0 0 0 1.248.533c.261 0 .52-.051.762-.15.237-.085.46-.207.66-.36v-.76l-1.398-.006zm-61.193 44.794v-4.987h-1.8v-1.012h4.8v1.012h-1.8v4.987zm3.781 0v-5.987h4.459v1.012h-3.247v1.329h3v1.012h-3v1.635h3.36v1.011zm5.617 0v-5.987h2.556a4.42 4.42 0 0 1 1.404.161c.294.115.54.326.697.6.177.282.269.611.264.945.015.41-.129.809-.402 1.114-.321.322-.747.52-1.2.557.242.133.462.303.653.503.257.303.488.628.69.97l.733 1.197h-1.453l-.876-1.305a9.294 9.294 0 0 0-.642-.886.876.876 0 0 0-.366-.246 1.858 1.858 0 0 0-.6-.072h-.258v2.51l-1.2-.06zm1.2-3.466h.9c.366.018.732-.007 1.092-.072a.66.66 0 0 0 .342-.252.807.807 0 0 0 .12-.449.723.723 0 0 0-.162-.49.715.715 0 0 0-.456-.234 8.173 8.173 0 0 0-.888 0h-.948v1.497zm4.855 3.466v-5.987h2.556a4.42 4.42 0 0 1 1.404.161c.294.115.54.326.697.6.177.282.27.611.264.945.015.41-.129.809-.402 1.114-.321.322-.747.52-1.2.557.242.133.462.303.653.503.257.303.488.628.69.97l.733 1.197h-1.453l-.876-1.305a9.294 9.294 0 0 0-.642-.886.876.876 0 0 0-.366-.246 1.858 1.858 0 0 0-.6-.072h-.246v2.51l-1.212-.06zm1.2-3.466h.894c.366.018.732-.007 1.092-.072a.66.66 0 0 0 .342-.252.807.807 0 0 0 .12-.449.723.723 0 0 0-.162-.49.715.715 0 0 0-.456-.234 8.173 8.173 0 0 0-.888 0h-.942v1.497zm4.825 3.466v-5.987h1.2v5.987zm2.376-5.999h2.4a6.51 6.51 0 0 1 1.063.06c.226.033.441.117.63.245.188.133.345.305.462.503a1.452 1.452 0 0 1-.042 1.473c-.146.23-.354.412-.6.527.333.084.628.276.84.545.2.259.306.577.3.904-.002.277-.067.55-.192.796a1.552 1.552 0 0 1-.522.6 1.725 1.725 0 0 1-.816.287c-.198 0-.69.036-1.464.041h-2.047l-.012-5.981zm1.2.994v1.389h1.675a.799.799 0 0 0 .492-.216.634.634 0 0 0 .18-.467.664.664 0 0 0-.156-.455.709.709 0 0 0-.456-.21h-1.038l-.697-.041zm0 2.395v1.605h1.147c.278.008.557-.004.834-.036a.775.775 0 0 0 .438-.24.735.735 0 0 0 .168-.509.813.813 0 0 0-.126-.46.768.768 0 0 0-.384-.276 4.288 4.288 0 0 0-1.074-.084h-1.003zm4.897 2.61v-5.927h1.2v4.94h3.001v1.011zm5.101 0v-5.987h4.459v1.012h-3.247v1.329h3.001v1.012h-3v1.635h3.36v1.011z"/><rect stroke="#CE434F" stroke-width="2" x="16.371" y="137.061" width="127.624" height="39.118" rx="10"/></g><path d="M175.692 429.904H36.947C17.093 429.881 1.004 413.83.981 394.021V36.141C1.004 16.331 17.093.28 36.947.256h138.745c19.853.023 35.942 16.075 35.966 35.883V394.02c-.024 19.808-16.113 35.86-35.966 35.883zM36.947 12.218c-13.242 0-23.977 10.71-23.977 23.922v357.881c.016 13.205 10.742 23.906 23.977 23.922h138.745c13.242 0 23.977-10.71 23.977-23.922V36.141c0-6.345-2.526-12.43-7.023-16.916a24.005 24.005 0 0 0-16.954-7.007H36.947z" fill="#CCC" fill-rule="nonzero"/><path d="M208.708 398.41c-.665 0-.737-9.82-.737-10.483l-.515-348.198c-.02-19.15-15.574-34.668-34.768-34.687L42.852 4.509c-.666 0-7.751-.042-7.751-.705 0-.664 7.007-.748 7.673-.748l129.914-.407c20.516.023 37.142 16.61 37.165 37.08l-.545 348.36c0 .64.06 10.322-.6 10.322z" fill="#FFF" fill-rule="nonzero"/><path d="M36.947 12.218c-13.242 0-23.977 10.71-23.977 23.922v357.881c.016 13.205 10.742 23.906 23.977 23.922h138.745c13.242 0 23.977-10.71 23.977-23.922V36.141c0-6.345-2.526-12.43-7.023-16.916a24.005 24.005 0 0 0-16.954-7.007H36.947z" stroke="#336" stroke-width="3" stroke-linecap="round"/><path d="M37.063 12.258c-13.24 0-23.974 10.734-23.974 23.976v358.694c0 13.241 10.734 23.976 23.974 23.976h138.722c13.24 0 23.974-10.735 23.974-23.976V36.234a23.977 23.977 0 0 0-23.974-23.976H37.063z" stroke="#336" stroke-width="3"/></g></svg>