<svg xmlns="http://www.w3.org/2000/svg" viewBox="0 0 638.43 555.66"><g data-name="Layer 2"><path d="M140.19 502v41.47a8 8 0 0 0 4.74 7.63c5.11 2.25 10.83 3.86 12.81 3.52s11.83-5.56 11.83-5.56l-4.31-49.57zM528.5 137.17s-11.7-4.39-9.57-10.28.32-7.45 0-11.94-1.13-4.82.82-9 3.88-4.76 4.29-7.7-.66-8.46 1.82-6.43 7 8.15 7.72 11.75 4 7.7 4.31 10-.92 4.85-.15 6.89a10.67 10.67 0 0 1 .21 7.85c-1.16 3.56-6.89 11.83-9.45 8.86zM367 72l13-7.61 10 3.69 19.59-37.22 19.53 38.56-1.86 1 .28 17.44 65-37.18s5.68-1.92 9.52.9l7.34 4a15.18 15.18 0 0 1 2.47 7.55v55.33l-18 11.65-133.42-43.76zM253.73 25.54l7.47-9.85 60.37-14.54 17.37 30.35 17.39 17.17-24.64 5.73-77.96-28.86zM113.29 76s-4-6.1-.64-7.88c0 0-.09-11.21 11.45-10.1 0 0 5.13-10.19 11.07-2.92zm-35.25 58.44L60.6 154.23l5.57 3.17v34.69l7.66 1.16 4.21-58.81zM42.39 239.8s-7.9-5.82-1.93-12l-10-9.37L66 199.74v5.41l-4.12 42.07zM30.35 413.59v17.48l-5.88 5.64v6.75l3.41 1.71v2.28l-5.89 5.3 36.23 19.06 11.8-6.69 5.36-8.32-45.03-43.21z" fill="#ebe7f3"/><path d="M69.5 142.1s9-75 97-104 143-11 172 0 41 47 127 65 167 67 170 175-65 184-178 215-200 41-301 19-149-110-149-152 0-75.81 38-128c24.14-33.17 24-90 24-90z" fill="#ebe7f3"/><path d="M298.5 9.1s43 6 71 30m29 24s42 20 68 23 100 26 120 44m0 322s-56 39-94 54m-299 32s-159-9-192-137m58-293s-8 32-12 62-35 67-46 81" fill="none" stroke="#ebe7f3" stroke-linecap="round" stroke-miterlimit="10" stroke-width="3"/><path d="M158.45 253L501.72 55.81s9.55-6.17 10.11 7.31V335a20.53 20.53 0 0 1-9.55 21.69L161.82 553.58s-13.48 6.75-12.92-13.48V274.36s-.84-15.36 9.55-21.36z" fill="#fcfafb"/><path d="M179 266s.39-5.57 3.79-7.38S472.7 91.91 472.7 91.91s6.63-6.21 6.63.59V342s-.25 10.09-9.57 13.79-284.35 165-284.35 165-6.41 3.3-6.4-4.28z" fill="#1f407b" opacity=".5"/><path d="M507.87 54.4s-3.87-.23-5.39 1.05-345.75 198.72-345.75 198.72-7.6 7.32-7.87 17.29.24 271.71.24 271.71-1 9.48 8 11.49c0 0-14.43-3.68-15.66-6.8a18.31 18.31 0 0 1-1.32-7.44c.07-1.5 0-269 0-269s1.67-20.56 12.2-24.68L490.38 51.61s8.92-3 11.64 0z" fill="#1f407b" opacity=".5"/><path d="M168.51 548.76l418-206.71 34.1-19.7s15.82-22-8-25.14-100.77-14.06-100.77-14.06v50.18s1.89 16.08-7.12 21.66-336.21 193.77-336.21 193.77z" fill="#999" opacity=".4"/><path fill="#1f407b" opacity=".5" d="M181.38 305.06l.53.34 34.67 22.48v118.2l-21.8-14.68v-69.69l4.67-5.84-.93-5.59-18.33-9.19m55 13.49l44.58-24.89v38.91l-22.85-12.62-22.13 13.32.4-14.72zm2.37 46.32l25.73 15.6 22-6.6 17.47 13.85-36.77 21.53-30.8-14.59-1.4-29.79h3.77zm79.35-66.38l20.61 12.32-20.61 12.26v-24.58z"/><path fill="#999" opacity=".4" d="M38.84 340.43l24.44 14.43v11.78l-5.44-4.66-19 10.26v-31.81zm37.4 28.87v-7.59l26.81 14.86v43.76l-15.41-5.57.47-36.74-11.87-7.3m63.95 65.99l-25.63-12.96v-43.36l24.77 12.17.86 44.15zm-82.78 10.56l-25.64-12.96v-43.36l24.77 12.17.87 44.15zM76 209.94a16.55 16.55 0 0 1 3.76 11.45 7.53 7.53 0 0 1 1.73 1.71 10.89 10.89 0 0 1 1.5 9l21.24 10.77-1.29-66.21-37-18.25v47.17c3.35-.5 7.15 1.03 10.06 4.36zM66 302.7v6.64l13.55 7.69L94 311.58l.38-11.38-15.09 8.11L66 301.06m29.87 18.37v6.63l13.54 7.69 14.46-5.44.38-11.39-15.09 8.11-13.29-7.25m8.36-41.21v6.64l13.54 7.69 14.45-5.45.38-11.38-15.08 8.1-13.29-7.24"/><path fill="#1f407b" opacity=".5" d="M182.49 288.46l49.26-27.61 20.13 9.16-4.38 3.16-15.88-7.14-48.3 25.53-.83-3.1zm-3.48 203.17l27.57-15.26 26.82 12.68 8.67-4.41-36.52-18.58-26.54 10.31v15.26zm54.8-124.39l26.05-8.53-1.51-17.06-23.16 12.93-.4 14.72"/><path fill="#999" opacity=".4" d="M138.06 102.9l29.36 15.12 5.08-3.39v32.69l-34-20.15-.44-24.27zM195 135.58v24.23L228.71 180l.74-32.69-5.43 3.79L195 135.58zm81.79 1.08v16.1l16.73-9.57v-16.26l-16.73 9.73z"/><path fill="#999" d="M280.85 133.54l12.67 9.65v-16.26l-12.67 6.61z"/><path fill="#999" opacity=".4" d="M232.3 36.87l34.02 18.2.42 37.85-35.8-18.5 1.36-37.55z"/><path fill="#999" opacity=".4" d="M254.28 42.06l17.23 9.79 6.11-1.15v35.93l24.95 12.12-1.09-23.88-22.12-22.21-18.16-33.95-6.27 5.42-.65 17.93zm98.91 87.76l.74-36.92 31.57 18.25-32.31 18.67zm37.08-19.58v-.68l-.27-39.4 20.7-36.45-1.11 44.92v18.12"/><path fill="#999" opacity=".4" d="M387.03 111.99L351.44 91.3l9.93-14.63L390 92.92l.27 15.42-3.24 3.65zm-269.09 52.7l25.76-11.37v58.37l-25.76 13.47v-60.47zm394.2 10.73l19.08-3.4 19.91 27.39v63.37l-39.3-20.66.31-66.7zM157.59 158.2v32.73l23.23 12.6.12-4.9s-8.5-9.43-8.22-12.88-.68-13-.57-16.19 0-4.94 0-4.94z"/><path d="M189.16 169.77l46.11 27-29.72 18.8-12.05-6.45L148.86 233l-70.13 39.9L65.91 261l-.49-10.71 14.77 8.39 100.63-53.36 1.67-2.37.24-6.33s8.63-6.6 9.45-10.58-1.33-5.4-1-8.26-2.02-8.01-2.02-8.01zm41.26-110.54l-26.88 11.52 58.34 32.39 18.72-9.67 20.88 11.1 25.93-8.22-4.3-6.48-18.99 8.88-26.5-12.12-10.88 6.29-35.8-18.5-.52-15.19zm-15.89 44.73l32.11 21.15 21.4.05-34.06-20.35-19.45-.85zm-56.47-32.08l32.11 21.15 21.4.05-34.06-20.35-19.45-.85zm-57.23 55.68l32.11 21.16 21.4.04-34.06-20.35-19.45-.85z" fill="#999" opacity=".4"/><path fill="#999" opacity=".4" d="M248.13 111.99l33.15-17.29 31.2 17.29-48.4 30.42 1.4-15.03 3.61-2.91-20.96-12.48zm65.09 11.43l20.36 10.12 19.77-11.86-.81-13.99.65-8.52-39.68 19.38"/><path fill="#1f407b" opacity=".5" d="M261.94 210.93l57.78 38.89-2.79-38.35-15.06-20.54-39.93 20zm84.56 16.46v50.23l68.56 38.41v-24.39l-35.7-28.95v-16.26l-15.7-27.59-17.16 8.55zm104.51-7.98l-.51-70.24 11.6-14.1-32.98-19.76-20.5 10.91v65.46l42.39 27.73zm-68.12-61.62s-.71-3-5.18 0-2 7.21-9.19 6.83-8.8.64-9.16 6.82-3.11 4 3 9.66 10.61 6.43 13.94 6 8.4-1.35 8.31-5.65 0-10.34 0-10.34-3.66.67-1.22-3 2.15-9.11-.5-10.32zM376 327.88s-1.35 5.32-3.23 5.64-6.66-1.32-7.94 1-2.44 3.25-2.36 6-2.07.34-1 3.69-.09 2.48.61 5.15-2.12.84 2.75 3 3.92 6.12 10 3.15 10.79-4 9.26-6.16-.81 2.21-4.67-2.47-8-4.56-3.41-7.45 6.52-3.53 5.2-5.87-5.21-5.68-5.21-5.68zm86.39 31.86l-37.71-19.37 53.84-32.15.81 25.76s.47 15.5-5.82 19.31-10.51 6.45-10.51 6.45m-140.01 26.37l-2.29-2.79 35.35-17.35 45.99 28.39-5 3.65-42.42-27.75-30.26 16.02"/><path d="M185.4 183.21c-1.09.43-3.1 1.64-3.37.68-.36-1.31-.41-2.75-.67-4.1-.91-4.78-.4-9.77-.31-14.61a12.89 12.89 0 0 0 2.36-8.46c-.23-4.18-7.23-4.18-7 0 .28 5.15-4.66 8.12-5.16 13.25a62.74 62.74 0 0 0 1.3 17.44c.83 4.1 3.59 8.22 8.19 8 4.17-.15 6.45-4.47 8.91-7.19 2.82-3.08-.9-6.33-4.25-5.01zM80.57 234.72c-.32-3.07-4.85-4.67-6.53-1.63-.86 1.57-1.67 3.2-3.23 4.18-1.72 1.09-4.94.27-5.58-1.72a3.62 3.62 0 0 0-5.14-1.92c-3.56 1.94-5.68.83-5.73-3.31 0-4.32 1.83-7.39 5.12-10 .08-.06.13-.13.2-.19 2.3-1 3.47-4.19.57-5.71a14.34 14.34 0 0 0-15.71 1.3c-3.52 2.75-4.47 8.85-4 13.48-3.65 3.05-.52 6.87 2.52 10.52 1.74 2.08.36 4.5 1.78 6.72 1.54 2.42 4.79 3.89 7.41 4.7a3.39 3.39 0 0 0 3.35-.84 3.73 3.73 0 0 0 2.74.63 21 21 0 0 0 2.45-.52 19.32 19.32 0 0 0 5.69-.33c6.95-1.61 14.89-7.56 14.09-15.36zM140 63.86c-1.18-4-8-2.41-6.75 1.71.47 1.61 1.34 3.59 1 5.29-.22 1.18-1.27 2.1-2.05 2.93-.42.46-1.46 2.18-1.86 2.33a3.35 3.35 0 0 1-3.58-.54c-2.77-3.12-7.91 1.22-4.95 4.56 3.26 3.66 10.57 3.59 13.87 0 1.66-1.82 3.65-3.82 4.72-6.05 1.67-3.34.6-6.86-.4-10.23zM219 50a8.41 8.41 0 0 1-.13-1.36c.09-1.6-.54-3.26-.75-4.82-.46-3.58 2-6.87 1.49-10.58-.6-4.11-7.6-4.12-7 0 .52 3.57-1.5 7-1.49 10.58 0 1.61.61 3.22.75 4.82.16 2-.25 3.6.56 5.55 2.19 5.26 8.86 4.67 9.5-1.09.2-2.04-1.29-3.1-2.93-3.1zm126.54 42.9c-4.53 3.76-11.18-4.46-5.73-7.22a2.74 2.74 0 0 0 1.68-3c1.83-1.23 2.52-4-.1-5.34-7.68-4-15.86 1.15-15.8 8.56a3.76 3.76 0 0 0-2.14 2.5c-.54 1.78.58 3.68 1.56 5.05a11.93 11.93 0 0 0 2.76 2.3 10 10 0 0 0-.28 1.64c-.28 2.06 2.05 4 3.76 4.54a6.61 6.61 0 0 0 2.37.3 11 11 0 0 0 5.52 1.67c4.74.2 9.64-3 11.9-7.08 1.96-3.56-2.73-6.21-5.5-3.92zm187.57 35.89c-3.48-4.36-2.71-13.49-1.8-18.55a70.4 70.4 0 0 0 1.14-8.92c.15-3.13-1.75-5.34-3.18-7.95-2-3.61-8.16-.6-6 3.25.32.59.58 1.11.81 1.62-1 4.3-4.46 7.88-5.44 12.21s.65 10.53 1.39 14.82c.61 3.5 1.85 7 4.94 9.09s6.59 1 8.18-2.32a3.07 3.07 0 0 0-.04-3.25z" fill="#4cbea0" opacity=".7"/><path fill="none" stroke="#336" stroke-linecap="round" stroke-miterlimit="10" stroke-width="2" d="M279.77 368.6v-38.91l-44.58 24.89v76.11l30.8 14.59 35.14-20.23m-44.01-69.18l-21.93 11.9"/><path fill="none" stroke="#336" stroke-linecap="round" stroke-miterlimit="10" stroke-width="2" d="M274.46 411.05l-11.17 5.45-26.95-16.34"/><path fill="none" stroke="#336" stroke-linecap="round" stroke-miterlimit="10" stroke-width="2" d="M236.34 393.28l27.52 16.62 43.28-23.79m-64.24-35.83l18.66 49.88m-9.33-53.32l15.93 48.73m-11.04-53.23l19.35 49.79m-9.67-52.74l17.12 48.1m-11-53.97l17.88 49.73m6.31-63.92v59.96m0-4.07l12.61-7.98v-60.38l-12.61 8.74v-17.48l24.81-15.48v-4.2"/><path fill="none" stroke="#336" stroke-linecap="round" stroke-miterlimit="10" stroke-width="2" d="M297.11 309.01l7.74-5.16 4.87 3.01m7.19-21.1v75.21l-7.19 3.65m7.19-4.88l20.61-12.9-20.61-12.32M216.58 446.08l-21.8-14.68v-73.02"/><path d="M233.93 230.77c29.36 15.85 58.48 32.1 88 47.67l-23.23 14.73c.19-1.89.37-3.78.56-5.67-8.76 6.67-18.76 11.67-28.76 17.67-15 8-29 16-44 25-1 1-3 0-4 1-2 1-5 3-5 5-2 37-1 73-.92 109.91 3.33-1.47-.2-3 0 0 5.92-2.91 11.92-5.91 16.92-9.91 12 3 22 9 33 14 14-8 27-16 41.26-23.92L276 410.4c11.46-7.23 23.46-10.23 32.46-20.23a4.82 4.82 0 0 0-2-7c-4-2-7-3-11-5-11-7-21-13-33-18-8-3-6-12-5.38-18.06m-119.74 32.83c-16.84-10.77-34.84-19.77-52.84-30.77-8-5-17-8-24-15-10-2-17-8-26-14-4-2-14-4-10-12 24-12 46-25 70-38 23-13 45-26 69-39 10-5 20-10 30-17 5 1 7 5 12.05 6.45m-6.47 135.81c1.85 3.44-3.66 6.8-6 8.17q-6.72 4-13.47 7.95m2.02-51.2l33.79 18.17M179.77 362a141.94 141.94 0 0 1 17.87-10.26c-4.45-2.87-2.62.84 0 0l-17.46-10.63" fill="none" stroke="#336" stroke-linecap="round" stroke-miterlimit="10" stroke-width="2"/><path d="M24.8 305c18.8 9.64 36.76 20.81 55.08 31.31 9.42 5.4 19 10.41 28.17 16.2 9.48 6 19.34 11.31 29.14 16.79m61-149.55c-1.69-3.58-4.69-3.58-7.69-2.58-35 20-67 39-102 58-10 6-18 12-28 18-7 3-12 7-18.79 10.1 1.66 1 3.31 2 5 2.9-1.64-1-3.29-2-5-2.9l95.87 56.15M183 278.94c15.49-8.77 30.49-17.77 46.49-25.77 2-1 5 0 7 1 18 9 34 19 51 30 5 3 11 1 13.63-4.4a7 7 0 0 0-1.05.76 4 4 0 0 0 1.05-.76c-.54-.37-4.68-3.48-5-2.17s4.24 2.27 5 2.17L225 235.36m-4.11 2.37c25.36 14.48 50.72 29 76.22 43.19" fill="none" stroke="#336" stroke-linecap="round" stroke-miterlimit="10" stroke-width="2"/><path d="M46.09 305.84a12.29 12.29 0 0 0 3.41-2.67c40-21 76-44 114.77-64.86m67.48 22.54l-49.26 27.62a152.19 152.19 0 0 1-1.11 16.59l35.2 21.77 65.28-37.31z" fill="none" stroke="#336" stroke-linecap="round" stroke-miterlimit="10" stroke-width="2"/><path d="M183.32 291.56c16.18-8.39 32.18-17.39 48.18-26.39 6 2 11 5 16 8 10 7 21 11 30.31 18.66m-173.97-17.22v11.83l13.33 7.4 15.05-7.62v-12.47l-12.11-7.74-16.27 8.6z" fill="none" stroke="#336" stroke-linecap="round" stroke-miterlimit="10" stroke-width="2"/><path fill="none" stroke="#336" stroke-linecap="round" stroke-miterlimit="10" stroke-width="2" d="M103.84 274.61l14.19 6.88 14.19-7.74m-14.19 7.74v12.35M66 301.06v8.28l13.55 7.69 14.83-7.87v-8.96l-13.44-7.04-14.94 7.9z"/><path fill="none" stroke="#336" stroke-linecap="round" stroke-miterlimit="10" stroke-width="2" d="M66 301.06l14.19 6.88 14.19-7.74m-14.19 7.74v6.7m15.6 2.57v8.28l13.54 7.7 14.84-7.88v-8.96l-13.44-7.03-14.94 7.89z"/><path fill="none" stroke="#336" stroke-linecap="round" stroke-miterlimit="10" stroke-width="2" d="M95.79 317.21l14.19 6.88 14.19-7.74m-14.19 7.74v6.71m69.25 113.45c2.27-3.08 8.27-2.08 8.27-5.08 2-20 1-40 1-60-3-1-6-2-9.48 0m-87.83 42.07c15.08 8.95 30.26 17.75 45.7 26.06M27.88 311.29c-.36 22.56-.38 45.13-.38 67.69m151.6 4.27l6.22-4m3.01 53.59l6.45-1.44m70.37-31.24c0 .78-1.61 1.4-3.59 1.4s-3.58-.62-3.58-1.4 1.61-1.4 3.58-1.4 3.59.63 3.59 1.4zm7.38-4.03c0 .78-1.61 1.4-3.59 1.4s-3.58-.62-3.58-1.4 1.61-1.4 3.58-1.4 3.59.63 3.59 1.4zm8.07-4.42c0 .78-1.6 1.41-3.58 1.41s-3.58-.63-3.58-1.41 1.6-1.4 3.58-1.4 3.58.63 3.58 1.4zm6.4-4.79c0 .78-1.6 1.4-3.58 1.4s-3.58-.62-3.58-1.4 1.6-1.4 3.58-1.4 3.58.63 3.58 1.4zm7-3.6c0 .78-1.6 1.4-3.58 1.4s-3.58-.62-3.58-1.4 1.6-1.4 3.58-1.4 3.58.63 3.58 1.4zm-64.41-31.11l.55-19.57 7.07-3.62 2.02 8.63 2.11-11 6.95-3.47 1.43 17.52-5.76 3.69-.25-9.16-1.99 10.04-3.65 2.43-2.72-7.45-.22 9.1-5.54 2.86zm21.08-11.78l3.63-20.44 7.77-4.66 4.74 16.08-5.19 2.8-.86-2.54-4.73 1.8-.53 4.34-4.83 2.62z"/><path fill="none" stroke="#336" stroke-linecap="round" stroke-miterlimit="10" stroke-width="2" d="M258.56 323.47l-1.64 5.32 2.94-1.45-.88-3.93m8.98-11.52l.26 18.9 9.9-5.26-.07-5.05-4.36 2.4-.19-13.31-5.54 2.32zm11.9-5.97l.26 18.31 10.6-5.71-.07-5.08-5.3 2.85-.19-13.59-5.3 3.22z"/><path fill="none" stroke="#336" stroke-linecap="round" stroke-miterlimit="10" stroke-width="2" d="M283.36 301.51l-5.53 3.12.19 13.98-3.66 1.03m-1.46-10.78l-1.91-.64-5.54 2.59.2 14.11m-3.71-10.24l-2.26-.45-7.9 3.98-2.2 12.51m-1.3-8.2l-2.62-.8-6.31 3.3-1.42 4.16-2.28-1.65-7.43 3.81-1.38 19.55 2.04 1.42M38.84 369.3v-28.87l24.44 14.43v8.58m12.96 5.86v-7.59l26.81 14.86v43.76l-14.94-9.2m51.22 25.58l-24.77-12.96v-43.36l18.75 10.63"/><path d="M158.45 253L501.72 55.81s9.55-6.17 10.11 7.31V335a20.53 20.53 0 0 1-9.55 21.69L161.82 553.58s-13.48 6.75-12.92-13.48V274.36s-.84-15.36 9.55-21.36z" fill="none" stroke="#336" stroke-linecap="round" stroke-miterlimit="10" stroke-width="2"/><path d="M507.87 54.4l-8.18-3.91s-5.59-1.12-9.31 1.12L152.32 246.78s-11.83 4.81-12.13 26.52v269.5s-2.11 9.26 15.68 11.86" fill="none" stroke="#336" stroke-linecap="round" stroke-miterlimit="10" stroke-width="2"/><path d="M179.08 265.16a7.14 7.14 0 0 1 3.62-7.24l290.9-167.3s5.43-3.92 5.73 1.5V342a17.07 17.07 0 0 1-8.14 13L185.41 520.79s-6.48 5.73-6.4-7.54z" fill="none" stroke="#336" stroke-linecap="round" stroke-miterlimit="10" stroke-width="2"/><path d="M171.13 421.13a2.62 2.62 0 0 1-2.62 2.62 2.62 2.62 0 0 1-2.62-2.62V383a2.62 2.62 0 0 1 2.62-2.62 2.62 2.62 0 0 1 2.62 2.62zm.47-49.8a2.86 2.86 0 0 1-2.85 2.86 2.86 2.86 0 0 1-2.86-2.86 2.86 2.86 0 0 1 2.86-2.86 2.86 2.86 0 0 1 2.85 2.86z" fill="#1f407b" opacity=".5"/><path fill="none" stroke="#336" stroke-linecap="round" stroke-miterlimit="10" stroke-width="2" d="M31.57 378.43l25.72-16.72 30.35 14.86-28.04 16.72-28.03-12.07 25.41-15.79 22.3 9.59"/><path fill="none" stroke="#336" stroke-linecap="round" stroke-miterlimit="10" stroke-width="2" d="M87.64 376.57v5.58L59.6 399.8l-29.25-11.62v-6.96"/><path fill="none" stroke="#336" stroke-linecap="round" stroke-miterlimit="10" stroke-width="2" d="M30.35 384.93l-4.95 3.25 33.59 15.95 32.98-20.75m-4.33 2.73v46.19M59 404.13v28.17m-28.65-41.76v46.17l27.25 13.41 28.49-16.1"/><path fill="none" stroke="#336" stroke-linecap="round" stroke-miterlimit="10" stroke-width="2" d="M87.64 429.52l6.81 4.5-34.85 20.42-35.13-17.73 5.88-5.64m29.25 23.37v6.67l34.85-20.5v-6.59M59.6 461.11l-35.13-17.65v-6.75"/><path fill="none" stroke="#336" stroke-linecap="round" stroke-miterlimit="10" stroke-width="2" d="M89.62 443.45v5.46l-30.93 17.15-30.81-17.15v-3.74"/><path fill="none" stroke="#336" stroke-linecap="round" stroke-miterlimit="10" stroke-width="2" d="M27.88 447.45l-5.89 5.3 36.23 19.06 38.09-22.9-4.34-1.46m90.24 28.92l23.34-10.31 36.52 18.58"/><path fill="none" stroke="#336" stroke-linecap="round" stroke-miterlimit="10" stroke-width="2" d="M191.55 484.64l15.03-8.27 25.04 11.56M189.6 132.48l22.43-28.63 21.95.96 35.31 20.28-1.43 1.67-20.52-.96-22.43 26.96-35.31-20.28z"/><path fill="none" stroke="#336" stroke-linecap="round" stroke-miterlimit="10" stroke-width="2" d="M212.03 103.85l34.6 20.28 21.41 1.03m-21.99 0l-21.69 25.54-33.15-18.39"/><path fill="none" stroke="#336" stroke-linecap="round" stroke-miterlimit="10" stroke-width="2" d="M195 135.58v24.23L229.45 180l85.41-48.47m-50.78-4.15v32.67m-34.63-12.74V180"/><path fill="none" stroke="#336" stroke-linecap="round" stroke-miterlimit="10" stroke-width="2" d="M235.27 153.33l9.07-5.34v18.38l-9.07 5.71v-17.63m15.65-9.93l9.57-5.47v19l-9.57 5.09v-17.39m4.79-3.35v16.89m-15.9-8.19v17.01m-3.92-10.18l7.83-4.47m7.97-4.93l7.82-4.47m-37.15 28.77l-9.56-5.84.49-18.46 9.81 4.93v17.76m-9.97-16.53l9.23 4.91m-7.83-8.9v16.42m-16.88-28.07l9.19 5.84v18.25l-9.19-5.21v-17.39m0 4.72l9.19 5.44m-7.46-10.55v17.78m64.7-13.87l50.78-29.55v-1.17l-50.78 29.07m49.4-27.1v16.22m.9-18.19L280.6 93.47l-33.29 18.99m46.21 14.47v16.26l-12.67-8.13m-4.06 1.61v16.09m-8.75 7.29l11.32-6.59 15.15 8.19-11.18 7.2-15.29-8.8zM252 135.09c-1 2.77-3.48 5-5.47 5s-2.79-2.27-1.76-5.05 3.47-5 5.47-5 2.76 2.27 1.76 5.05zm48.65 56.67c7.85 7.41 12.85 16.41 19.85 24.41 13-4 24-13 36.28-19.53-1.08-1.41-10.77 6.24 0 0-1.08-1.41-5.29-4.87-6-1.17s4.48 2.07 6 1.17l-20-25.5"/><path d="M301.87 190.93c7.63 7.24 12.63 15.24 19.63 23.24 12-4 23-12 33.67-17.7" fill="none" stroke="#336" stroke-linecap="round" stroke-miterlimit="10" stroke-width="2"/><path d="M351.38 199.74c.12 8.43.12 16.43.12 24.43-3 2-7 3-10 5-8 6-16 10-24 15-19-9-35-21-54.27-30.49M282.29 201v23.26m34.64-12.79v32.69" fill="none" stroke="#336" stroke-linecap="round" stroke-miterlimit="10" stroke-width="2"/><path fill="none" stroke="#336" stroke-linecap="round" stroke-miterlimit="10" stroke-width="2" d="M311.11 217.49l-9.07-5.34v18.38l9.07 5.71v-17.63m-15.65-9.94l-9.57-5.46v19l9.57 5.09v-17.4m-4.79-3.34v16.89m15.9-8.2v17.02m3.91-10.19l-7.82-4.47m-7.97-4.92l-7.82-4.47m37.15 28.77l9.56-5.84-.49-18.46-9.81 4.92v17.76m9.97-16.52l-9.23 4.91m7.82-8.91v16.42m16.89-28.06l-9.19 5.83v18.26l9.19-5.22V204.7m0 4.72l-9.19 5.43m7.46-10.54v17.77M277.8 204l4.49 2.57m0 1.65q-3-1.75-6-3.49m-6.7 4.66v7.53m8.74 7.29l-11.31-6.6-15.15 8.2 11.18 7.2 15.28-8.8zm16.03-24.97c1 2.77 3.48 5 5.47 5s2.79-2.28 1.76-5.05-3.47-5-5.47-5-2.79 2.28-1.76 5.05zM132.66 99.8l22.43-28.63 21.95.96 35.31 20.28-1.43 1.67-20.52-.96-22.43 26.96-35.31-20.28z"/><path fill="none" stroke="#336" stroke-linecap="round" stroke-miterlimit="10" stroke-width="2" d="M155.09 71.17l34.59 20.28 21.42 1.03m-22 0l-21.68 25.54-33.15-18.39m3.79 3.27c.44 8.27.44 16.27.44 24.27 10 6 20 12 30 19 2 1 3 2 5 1a189.39 189.39 0 0 1 17.21-10.3m16.43-42.17v12.36m-34.64 7.57v32.69"/><path fill="none" stroke="#336" stroke-linecap="round" stroke-miterlimit="10" stroke-width="2" d="M178.33 120.65l9.07-5.34v18.38l-9.07 5.72v-17.64m15.67-.09v-8.61m0-1.23l9.57-5.47v4.74m-4.81-1.38v6.89m-15.9 1.8v17.01m-3.91-10.18l7.83-4.47m7.97-4.93l7.82-4.47m-37.16 28.77l-9.56-5.84.5-18.46 9.81 4.93v17.76m-9.98-16.52l9.24 4.9m-7.83-8.9v16.42m-16.89-28.07l9.19 5.84v18.25l-9.19-5.21v-17.39m0 4.72l9.19 5.44m-7.45-10.54v17.77m52.64-22.84c-1 2.77-3.48 5-5.48 5s-2.78-2.27-1.75-5.05 3.47-5 5.47-5 2.78 2.27 1.76 5.05zm219.98 189.23v28.1m0-2.82l-8.42 4.24-26.29-14.27v3.41m-1.79-4.61l-40.17-22.9m76.67 33.24l-7.08-3.34-.23-3.24-5.94-3.47-4.33 2.46"/><path fill="none" stroke="#336" stroke-linecap="round" stroke-miterlimit="10" stroke-width="2" d="M407.48 309.72l-3.85 1.98v4.97l4.44-2.65m-4.92 2.44l-5.67-3.26m5.13.82l-4.91-2.32m2.46-4.81l-1.77-.91m0 1.23v-2.3l-1.34-.97m-.96 4.39l-2.84-1.89v-1.91l2.36-1.28"/><path fill="none" stroke="#336" stroke-linecap="round" stroke-miterlimit="10" stroke-width="2" d="M393.25 304.53l3.26 1.91v1.89m-3.26-2.35l-2.94 1.6v2.67l4.01 2.61 2.19-.89v-3.43l-2.3 1.18-3.34-1.82m3.35 1.82v2.62m-.81-8.4l-30.22-17.32m0 2v-14.71l-9.99-5.4-3.41 1.51v14.36l9.89 5.9 3.15-1.5"/><path fill="none" stroke="#336" stroke-linecap="round" stroke-miterlimit="10" stroke-width="2" d="M362.75 274.25l-2.66 1.54v13.91m-.33-13.91l-9.55-5.77m4.77 3.31v14.15m-8.99-9.86l3.8 2.19m23.68-6.91l-11.05-6.13v6.13m11.05.43v14.15l-9.89-5.51m4.36-11.46v13.04m4.78 1.66l-8.72-4.8m-4.24-8.52v-6.7l-11.13-6.56v13.26l1.16 1.01m4.41-10.2v5.4m13.37-22.76l-11.08-6.4v14.04l11.08 6.65V246m-5.54-3.86v12.75m5.54 3.16l-9.89-5.57"/><path fill="none" stroke="#336" stroke-linecap="round" stroke-miterlimit="10" stroke-width="2" d="M345.72 226.24l17.94-7.4 15.7 26.75-33.37-19.35v51.38l-8.34 4.68v3.33l68.74 39.71 52.28-32.94v-25.63m-79.31-21.18l47.42-28.07m-63.12 1.32l47.14-27.16m-.52.3l16.5 25.54m-16.73-25.54l-7.57 1.93-55.98 32m79.17-7.73v14.94"/><path fill="none" stroke="#336" stroke-linecap="round" stroke-miterlimit="10" stroke-width="2" d="M378.56 245.59v23.64l37.59 22.41 44.86-26.24"/><path fill="none" stroke="#336" stroke-linecap="round" stroke-miterlimit="10" stroke-width="2" d="M378.56 260.91l48.22-27.79 34.23 32.28m-54.24 27.02l-11.04-6.39v14.27l11.04 6.59v-14.1m-.5 11.97l-9.75-5.52m4.73-9.54v11.84m-11.22.46v-13.8l-8.88-5.39v13.65"/><path fill="none" stroke="#336" stroke-linecap="round" stroke-miterlimit="10" stroke-width="2" d="M388.04 288.82l-5.15-2.79v5.61l5.15 2.6m70.63-28.84l-42.82 24.88-36.49-29.37m45.19-41.01l-45.19 26.53-32.86-19.04m107.82 48.4l-34.53 19.49v6.26l34.53-19.57v-6.18zM230.94 36.14l35.38 18.93 11.3-4.37v35.93l-10.88 6.29-35.8-18.5V36.14l22.75-7.49"/><path fill="none" stroke="#336" stroke-linecap="round" stroke-miterlimit="10" stroke-width="2" d="M232.3 40.99l33.59 18.66 11.2-4.26m-10.77-.32v37m10.77-28.58l-9.39 4.05v21.65l8.75-4.37V65.2m-33.49-10.13l11.32 5.71v17.43l-11.32-6.83V56.99l9.92 4.9m-6.24-3.09v13.33m3.15-11.34v11.34m-11.41-33.38l15.35-4.9m-.85-7.25l8.32-10.35 19.41 36.32 20.79 21 53.96-24.9-16.42-17.17-54.92 21.75"/><path fill="none" stroke="#336" stroke-linecap="round" stroke-miterlimit="10" stroke-width="2" d="M330.62 21.48l-.96 12.15-32.74 12.16-15.25-26.02 15.46 11.73 34.56-10.77L315.2 5.88l-37.58 9.19 20.06 14.69 31.65-9.6m-32.2 11.34v14.29"/><path fill="none" stroke="#336" stroke-linecap="round" stroke-miterlimit="10" stroke-width="2" d="M305.33 42.67V31.5l8.18-2.85v8.6m3.97.9V26.98l8.18-2.85v8.6"/><path fill="none" stroke="#336" stroke-linecap="round" stroke-miterlimit="10" stroke-width="2" d="M261.2 16.25l60.37-15.1 17.37 30.35m-36.25 41.47v23.06m49.85-21.34c2.82-7.79 0-16.34.67-24.37m-75.59 36.31c8.88 4.54 16.88 8.54 25.88 12.54 6-2 11-6 16.11-8.66"/><path fill="none" stroke="#336" stroke-linecap="round" stroke-miterlimit="10" stroke-width="2" d="M307.01 76.34l12.43-5.89v16.11l-11.73 6.36V79.21l10.46-5.64v12m-50.84-52.54l-7.61-3.61v9.86l7.18 3.9v-8.4l-6.4-3.45v7.35m28.54 30.28l-5.46-2.59v7.07l5.15 2.8v-6.02l-4.59-2.48v5.27m39.68 6.86c-2.32-7.7 5.68-10.7 10.46-13.37 0 1.55-2.9 1.57 0 0v4.63"/><path d="M323.11 69.28l12.44-5.89v7m3.73-1.86c-.53-6 5.74-9.45 10.82-10.42.28 3.65-2.86 1.28 0 0v12" fill="none" stroke="#336" stroke-linecap="round" stroke-miterlimit="10" stroke-width="2"/><path d="M338.94 60.88L351.37 55c0 4.45 1.46 11.81-.83 15.82m-77.76-18.25l-18.5-10.51V26.6l6.92-7.89 18.83 35.2 20.04 20.71m1.41.25l53.88-24.55m17.7 136.61s-12.39.84-10.72-5.83c0 0-7.63-5.6-3-9.66 0 0-1.31-11.43 12.15-10.72 0 0 3.58-6.31 7.75-5.6s6.91 6.44 6.55 9.29a5.88 5.88 0 0 1 1.81 6.59s3.69 4.71-.6 8c0 0-1.57 8.13-10.13 7.9 0 0-6.19 1.27-7.62-3.37" fill="none" stroke="#336" stroke-linecap="round" stroke-miterlimit="10" stroke-width="2"/><path fill="none" stroke="#336" stroke-linecap="round" stroke-miterlimit="10" stroke-width="2" d="M376.28 187.13v13.86l1.43.96h-5.36l1.9-1.55v-13.27m.12-23.07l-2.74-7.87M125.56 82.71s-11.67.78-10.1-5.5c0 0-7.18-5.28-2.81-9.09 0 0-1.23-10.78 11.45-10.1 0 0 3.37-6 7.3-5.28s6.51 6.06 6.17 8.76a5.52 5.52 0 0 1 1.68 6.21s3.48 4.45-.56 7.59c0 0-1.48 7.66-9.54 7.44 0 0-5.83 1.2-7.18-3.17"/><path fill="none" stroke="#336" stroke-linecap="round" stroke-miterlimit="10" stroke-width="2" d="M128.59 82.89v13.06l1.35.9h-5.05l1.79-1.46v-12.5m.12-21.73l-2.59-7.41M60 250.24s-17.51 1.18-15.15-8.24c0 0-10.78-7.92-4.21-13.66 0 0-1.85-16.18 17.19-15.17 0 0 5.06-8.93 11-7.92s9.78 9.1 9.27 13.15c0 0 4.72 3.68 2.53 9.34 0 0 5.23 6.67-.84 11.39 0 0-2.23 11.5-14.33 11.18 0 0-8.77 1.8-10.79-4.77"/><path fill="none" stroke="#336" stroke-linecap="round" stroke-miterlimit="10" stroke-width="2" d="M64.58 250.51v19.62l2.02 1.35h-7.59l2.7-2.19v-18.78m.17-32.64L58 206.75m280.13-104.56s-12.39.83-10.72-5.84c0 0-7.63-5.6-3-9.65 0 0-1.31-11.44 12.15-10.72 0 0 3.58-6.32 7.75-5.6s6.91 6.43 6.55 9.29a5.87 5.87 0 0 1 1.79 6.6s3.69 4.72-.6 8.06c0 0-1.57 8.12-10.12 7.89 0 0-6.2 1.28-7.63-3.37"/><path fill="none" stroke="#336" stroke-linecap="round" stroke-miterlimit="10" stroke-width="2" d="M341.35 102.38v13.87l1.43.95h-5.36l1.9-1.55v-13.27m.12-23.07l-2.74-7.86m36.76 286.37s-12.4.83-10.73-5.84c0 0-7.62-5.6-3-9.65 0 0-1.31-11.44 12.16-10.73 0 0 3.57-6.31 7.74-5.6s6.91 6.44 6.56 9.3a5.87 5.87 0 0 1 1.78 6.6s3.7 4.72-.59 8.05c0 0-1.58 8.13-10.13 7.9 0 0-6.2 1.28-7.63-3.37"/><path fill="none" stroke="#336" stroke-linecap="round" stroke-miterlimit="10" stroke-width="2" d="M376.67 358.01v13.87l1.43.95h-5.36l1.91-1.55v-13.27m.12-23.07l-2.74-7.86m106.16-79.68c-2.92.52-6.65-.11-7.62-3.37"/><path d="M474.38 247.37c-3.88-.2-10.88.8-10.88-6.2l-2-1c-4-6-1-14 4-18 2-2 5 0 7-1s3-3 5.19-5.08m-.48 46.29h-3.54c2.47-2 1.9-3.07 1.9-6.28v-8.54m2.03 0v13.87m-1.91-36.94l-2.74-7.86M381 358.34l42 25m-106.07-63.12c13.57 7.95 26.57 15.95 40.26 23.94m121.33-35.94l-53.84 32.15 37.71 19.37m-1.38-69.61l13.06-7.32-15.23-8.56M325.09 381.92l30.08-16.5 39.71 25.12" fill="none" stroke="#336" stroke-linecap="round" stroke-miterlimit="10" stroke-width="2"/><path fill="none" stroke="#336" stroke-linecap="round" stroke-miterlimit="10" stroke-width="2" d="M324.36 386.28l30.08-16.5 39.71 25.11m-86.79-15.6l38.63 27.1M342 244.17l-18.72 13.88 16.26 7.12 6.45-4.7m86.74 78.92l44.48-25.37M390 109V70.16L408.41 81l20.71-11.53-19.53-37.92L390 68.08l-10-3.69-19.48 11.39-9.09 14.52 35.8 20.43c.94-.57 1.86-1.16 2.77-1.73zm19.59-77.45v49.11m67.64 37.79l-22.42-12.92M413.94 126c13.56 4.19 24.56 13.19 35.56 21.19 9-8 16-19 27.23-24.21m-49.47-52.53V86.8m29.15 17.58l1.4 2.88m7.64 4.41l3.75-1.43 2.74 5.16m-40.7 1.31l27.46 16.61"/><path fill="none" stroke="#336" stroke-linecap="round" stroke-miterlimit="10" stroke-width="2" d="M426.6 133.32l4.14-2.07 1.93 5.58 6.16-10.61-7.35 4.59m7.35 9.58l3.27-3.56 2.55 5.66 6.36-10.06-8.14 4.4m-25.33-13.05l3 6 4.87-10m-44.27-12.52l3.45-2.93c.81 2 1.63 4 2.44 5.93m-2.44-5.93l5.41-2.37m-21.81-2.1l3.68-3.92 2.07 6.02 7.2-10.66-8.38 4.64m-16.2-2.72l2.88-3.83 2.96 6.55 7.99-11.88-9.76 5.33m.74-12.72l27.95 17.01m20.14 35.43c0 9.06 0 18.06 1 27.06 1 13-2 25-2 38 0 4-3 6-6.45 7.49.05-1.78 1.28-1.14 0 0 .43-3.08 2.73-7.22 6.06-7.84m1.52-111.98v14.91m-21.39 89l15 9.55"/><path d="M402.05 201.66c-6.55-4.49-14.55-6.49-18.55-12.49-1-1 4 0 3.9-3.13m-33.58-57.12V91.4m2.68 73.77a8.66 8.66 0 0 1-2.57-4.09m35.73-19.73q-.07 10.1 0 20.19m61.35-12.91v70.78l-41.42-23.07m42.16 23.07l24.85-14.68m-19.23 3.88l9.47-4.88v-20s-1.78-5.18-5.48-2.51-4 8.87-4 8.87v16.13l7.54-3.55.15-18.68a18.64 18.64 0 0 1-2.22-1.59m14.68-9.74c-8.07 4.09-4.8 18.35-4.76 25.45l3.73-1.75m-3.73 4.12l3.58-1.85" fill="none" stroke="#336" stroke-linecap="round" stroke-miterlimit="10" stroke-width="2"/><path d="M440.59 207.47l-6.5-4.51V184.5s1.22-4.78 3.76-2.32 2.74 8.2 2.74 8.2v14.9l-5.18-3.28-.1-17.26a13.27 13.27 0 0 0 1.52-1.47m4.48-7.75L434.8 171v-18.45s1.22-4.78 3.76-2.32 2.75 8.2 2.75 8.2v14.9l-5.19-3.28-.1-17.26a13.27 13.27 0 0 0 1.52-1.47m-12.99 47.21L418 194v-18.43s1.22-4.79 3.77-2.33 2.74 8.21 2.74 8.21v14.9l-5.18-3.28-.11-17.26a13.69 13.69 0 0 0 1.53-1.47m4.51-7.76l-6.5-4.51v-18.45s1.22-4.79 3.76-2.33 2.74 8.2 2.74 8.2v14.9l-5.18-3.28-.1-17.26a12.15 12.15 0 0 0 1.52-1.47m-18.86 46.14l-6.51-4.52v-18.45s1.22-4.79 3.76-2.32 2.75 8.2 2.75 8.2v14.9l-5.19-3.28-.1-17.26a13.27 13.27 0 0 0 1.52-1.47m2.56-30.78c2.51 6.17 1.21 14.22 1.21 20.69-2.56-1.62-5.05-2.11-5.2-5.12-.23-4.35-.05-8.75-.08-13.11m5.28 20.42c-8.14-2.25-8.14-12.25-6.51-19.27m.98-33.26c0-2.79-.3-3.14 1.5-5.14" fill="none" stroke="#336" stroke-linecap="round" stroke-miterlimit="10" stroke-width="2"/><path d="M395.87 104.57a20.82 20.82 0 0 1 .1-4.93c1.25-4.85 4.71-1.47 5.63 1.65M361.74 160c.06-1.23.21-2.44.26-3.67m5.22-2.55v4.14m-6.77 2.73c.06-1.21.21-2.41.26-3.62m2-32.95c.79-3.91-2.21-8.91 1.46-12.52" fill="none" stroke="#336" stroke-linecap="round" stroke-miterlimit="10" stroke-width="2"/><path d="M361.43 124.75c1.07-4.58-2.93-11.58 3.07-14.58 3 3 3 7 3.43 11.09m89.44 71.23l7.66-3.99m-3.83-3.26v17.9M457.37 175l9.47-4.88v-20s-1.78-5.17-5.48-2.51-4 8.87-4 8.87v16.13l7.54-3.55.15-18.68a18.64 18.64 0 0 1-2.22-1.59m13.57-8.99c-6 5.07-3.65 18-3.65 24.73l4.4-2.07m-4.4 4.44l4.74-2.44m-20.12-5.55l7.66-3.99m-3.83-3.26v17.9M403 87.6c1.08 3.28.33 6-1.67 6.16s-4.51-2.46-5.59-5.75-.33-6.05 1.68-6.16 4.51 2.46 5.58 5.75zm14.31 5.67a1.83 1.83 0 0 0 .57 0c.72-.36 1.43-.74 2.13-1.13a10.67 10.67 0 0 0 2.89-4.57c1.08-3.29.33-6-1.68-6.17s-4.5 2.46-5.58 5.75-.33 6.01 1.67 6.12zm-27.04-24.34l18.8 9.12 17.89-9.68M351.43 91.3l34.07 19.85m26.8 15.54c7.2 5.48 14.2 7.48 21.2 13.48 6 3 11 7 17 9a3.49 3.49 0 0 1 2-1c3-4 3-9 6-12 5-5 12-8 18-11M60.6 154.23l40.71 23.17 26.81-32.44 33.43 6.95-35.74-22.17-35.75-8.94-29.46 33.43z" fill="none" stroke="#336" stroke-linecap="round" stroke-miterlimit="10" stroke-width="2"/><path d="M84.85 234.07c5.65 2.1 10.65 6.1 15.65 8.1 2 1 3 0 5-1 18-10 35-19 52-29 0-20 0-41-.05-61.11m-91.29 6.34v46.78m37.53-29.65v68.41m-32.52-38.46v-32.94" fill="none" stroke="#336" stroke-linecap="round" stroke-miterlimit="10" stroke-width="2"/><path d="M71.17 169.88c8.33 5.29 17.33 8.29 24.33 14.29 0 15 0 29-.48 44.06-3.57-2 0-9.16 0 0l-10.71-6m-13.14-37.94L95.02 197m-22.67 3.83l22.67 12.04m-6.85-30.94v40.93M78.73 176v34.43m39.21-45.74l24.09-13.63v58.74l-24.09 13.06v-56.52m0 9.69l22.44-12.52m-22.44 18.42l22.44-13.7m-22.44 23.86l22.44-12.76M117.94 197l24.09-12.71m-24.09 24.44L139.2 197m-21.26 15.87l22.44-12.04m-14.18-38.5v54.32m9.92-59.05v54.09m-44.7-90.55l36.7 23.82m-64.64 8.9l37.54 20.67 25.18-30.81m2.96 3.12l32.39 6.48" fill="none" stroke="#336" stroke-linecap="round" stroke-miterlimit="10" stroke-width="2"/><path fill="none" stroke="#336" stroke-linecap="round" stroke-miterlimit="10" stroke-width="2" d="M143.7 153.32v58.37l-25.76 13.47m-33.3-.16L95 230.56m468.76-80.93l-33.12 8.28-18.46 11.45c.06 2 0 4 0 6.06L528.5 172l24.83 30 37.72-21.47zm22.13 33.91c-1.39 20.63.61 40.63-.39 61.63a323.88 323.88 0 0 1-32 17c-2 1-3 0-5-1s-3-3-5-4c-10-5-20-10-29.12-15.66m36.75-42.1v63.37"/><path fill="none" stroke="#336" stroke-linecap="round" stroke-miterlimit="10" stroke-width="2" d="M581.26 195.11l-22.1 12.47v41.58l22.1-12.48v-40.04m0 11.81l-22.1 11.78m21 3.54l-21 11.16m6.34-28.66v37.92m8.76-43.39v39.83m-36.33-50.34l-22.32-12.62v54.42l22.32 12.1v-52.37m0 8.98l-20.79-11.6m20.79 17.07l-20.79-12.7m20.79 22.11l-20.79-11.82m20.79 16.37l-22.32-11.78m22.32 22.64l-19.69-10.86m19.69 14.7l-20.79-11.16m13.13-35.67v50.33m-9.19-54.7v50.11m41.42-83.89l-34 22.07m59.88 8.24l-34.78 19.15-23.33-28.54m-2.73 2.88l-14.33 2.87"/><path fill="none" stroke="#336" stroke-linecap="round" stroke-miterlimit="10" stroke-width="2" d="M514.07 179.76v54.08l23.86 12.48m43.33-6.76l-22.1 11.76m-31.11-114.75s-9.5-3.76-8.61-8.78 1.14-2.69-.06-10.4-3.1-6.64 0-10.94.11-1.08 3.49-6.81.16-11.12 5.18-6.1 4 7.17 6.28 13.63 4.84 5 3.58 10.75 3.36 4.31.34 9.87-5.9 9.5-10.2 8.78z"/><path fill="none" stroke="#336" stroke-linecap="round" stroke-miterlimit="10" stroke-width="2" d="M528.05 136.57v8.79h1.79v-8.7m-348.9 59.87s-9.51-3.76-8.61-8.78 1.13-2.69-.06-10.4-3.11-6.64 0-10.94.11-1.08 3.49-6.82.15-11.11 5.18-6.09 3.94 7.17 6.27 13.62 4.84 5 3.59 10.76 3.36 4.31.33 9.87-5.89 9.5-10.19 8.78z"/><path fill="none" stroke="#336" stroke-linecap="round" stroke-miterlimit="10" stroke-width="2" d="M180.94 196.53v8.79h1.79v-8.7m34.64-138.21s-6.61-2.63-6-6.12.79-1.87 0-7.24-2.17-4.62 0-7.62.07-.75 2.43-4.74.11-7.74 3.6-4.25 2.75 5 4.37 9.49 3.37 3.5 2.5 7.49 2.34 3 .23 6.87-4.13 6.61-7.13 6.12z"/><path fill="none" stroke="#336" stroke-linecap="round" stroke-miterlimit="10" stroke-width="2" d="M217.37 58.41v6.11h1.25v-6.06m-30.55 109.15l47.2 29.21m-63.12-32.2l-14.56-8.93m36.39-4.24l-9.64 4.97m-26.75 34.51l23.23 12.6L81 259.14l-14.4-8.86m-25.96-21.96l-10.14-9.48 35.5-19.1m247.22-76.32l20.36 10.12 19.61-11.86m-31.27-25.65l-18.87 8.54M222 81.06l-26.5-14.69m66.38 36.77l-13.62-7.54m-44.72-24.85l26.88-11.52m-92.36 58.79L101.5 97.36m412.88 160.08l48.12 25.71 59-31.05m-109.27 36.84l37.91 22.35m-37.91-174.12l27.27 17.06m45.98 38.74l25.02 17.48 26.93-11.25M400.51 356.38l-1-1.09v-3.57l1.4-1.09a13.57 13.57 0 0 1 9.47-5l6.68 1.7 5 .24 8.24 5.2 5 4.27s3.89 2.72 3.73 4.27c0 0-.07 2 0 3.5s-5.83 4.89-7.78 5.51-6.29-.85-6.29-.85-3.88-7.92-5.2-2.88l-13.43-7.37s-1.64-4.51-3.27-5.36-2.86.81-2.55 2.52z"/><path d="M410.22 355.29s2.17-2.4 4.89-1.86 5.83 3.57 5.83 3.57 3.49 4.27 2.09 4.35-12.81-6.06-12.81-6.06zm-1.79-1.94l5.59-1s5.47-4.4 7.15-4.35c0 0-3.88-.62-5.44 0s-7.45 3.41-7.3 5.35zm14.93 4l2.47 4.47s8.15-2.72 8.85-4.47l-4.42-4s-5.95 4.43-6.9 4zm4.8 8.82s0-.86.54-1 2.25-.78 2.1 0 .15 1.55-.85 1.47a5.52 5.52 0 0 1-1.79-.47zm8.62-4.82s1.24-1.24 1.47-.93-.07.62 0 .93-.85.47-.93.47a3.71 3.71 0 0 1-.54-.47zm-16.92 4.9s.69 3.1 1.85 3.33 2 0 1.65-1.66m-.45 1.91s1.79-.07 1.79-.63M400.59 355s1 3.34 2.27 3.59a1.57 1.57 0 0 0 1.83-2.23m-.89 2.48a4.42 4.42 0 0 0 1.58-.21" fill="none" stroke="#336" stroke-linecap="round" stroke-miterlimit="10" stroke-width="2"/><path d="M425.57 366.64s3.34 1.74 4.91 1.58 7.2-3.65 7.86-4.23m-6.03 1.72s4.75-2 5.48-2.76m-35.08-10.23s3.38 3 3.71 4.86m16.13 6.42a10.85 10.85 0 0 1 3 4.24m93.52-83.65l-1-1.09v-3.57l1.4-1.09a13.64 13.64 0 0 1 9.48-5l6.68 1.71 5 .24 8.23 5.2 5 4.27s3.88 2.72 3.73 4.27c0 0-.07 2 0 3.5s-5.83 4.89-7.77 5.51-6.29-.85-6.29-.85-3.88-7.93-5.2-2.88l-13.44-7.37s-1.63-4.51-3.26-5.36-2.87.8-2.56 2.51z" fill="none" stroke="#336" stroke-linecap="round" stroke-miterlimit="10" stroke-width="2"/><path d="M528.78 283.5s2.18-2.41 4.9-1.86 5.82 3.57 5.82 3.57 3.5 4.27 2.1 4.35-12.82-6.06-12.82-6.06zm-1.78-1.94l5.59-1s5.46-4.4 7.14-4.35c0 0-3.88-.62-5.43 0s-7.46 3.4-7.3 5.35zm14.93 4l2.46 4.47s8.16-2.72 8.86-4.47l-4.43-4s-5.94 4.44-6.89 4zm4.79 8.81s0-.85.55-1 2.25-.78 2.09 0 .16 1.55-.85 1.47a5.38 5.38 0 0 1-1.79-.47zm8.62-4.81s1.25-1.24 1.48-.93-.08.62 0 .93-.85.47-.93.47a3.35 3.35 0 0 1-.55-.47zm-16.92 4.9s.69 3.1 1.86 3.33 2 0 1.65-1.66m-.46 1.87s1.79-.07 1.79-.63m-24.1-14.16s1 3.34 2.27 3.59a1.57 1.57 0 0 0 1.83-2.23m-.89 2.48a4.42 4.42 0 0 0 1.58-.21" fill="none" stroke="#336" stroke-linecap="round" stroke-miterlimit="10" stroke-width="2"/><path d="M544.14 294.85s3.34 1.74 4.9 1.58 7.21-3.65 7.87-4.23m-6.04 1.71s4.75-2 5.48-2.75m-35.07-10.23s3.38 3 3.71 4.86m16.12 6.41a10.93 10.93 0 0 1 3 4.24M217.56 90.83l-.77-.83v-2.72l1.07-.82a10.35 10.35 0 0 1 7.21-3.85l5.08 1.3 3.78.18 6.27 4 3.8 3.21s3 2.07 2.84 3.25v2.66c0 1.12-4.44 3.73-5.92 4.2s-4.79-.65-4.79-.65-3-6-4-2.19L222 93s-1.24-3.43-2.48-4.08-2.2.61-1.96 1.91z" fill="none" stroke="#336" stroke-linecap="round" stroke-miterlimit="10" stroke-width="2"/><path d="M225 90a4.44 4.44 0 0 1 3.72-1.42c2.07.42 4.44 2.72 4.44 2.72s2.66 3.25 1.59 3.31S225 90 225 90zm-1.41-1.48l4.26-.76s4.16-3.36 5.44-3.31c0 0-3-.48-4.14 0s-5.68 2.55-5.56 4.07zM235 91.57l1.87 3.4s6.21-2.07 6.74-3.4l-3.37-3s-4.56 3.32-5.24 3zm3.61 6.71s0-.65.41-.77 1.71-.59 1.6 0 .11 1.18-.66 1.12a4.13 4.13 0 0 1-1.35-.35zm6.56-3.67s.94-.94 1.12-.71-.06.48 0 .71-.65.36-.71.36a2.5 2.5 0 0 1-.41-.36zm-12.88 3.73s.52 2.36 1.41 2.54 1.52 0 1.26-1.27m-.35 1.45s1.36 0 1.36-.47m-18.35-10.81s.79 2.54 1.73 2.73a1.19 1.19 0 0 0 1.39-1.69m-.67 1.88a3.3 3.3 0 0 0 1.2-.16" fill="none" stroke="#336" stroke-linecap="round" stroke-miterlimit="10" stroke-width="2"/><path d="M236.64 98.64s2.54 1.32 3.73 1.2 5.48-2.78 6-3.21m-4.61 1.3a28.39 28.39 0 0 0 4.17-2.1m-26.69-7.78s2.57 2.31 2.82 3.7m12.27 4.88a8.23 8.23 0 0 1 2.31 3.22M91.73 466.5l-1-1.09v-3.57l1.4-1.09a13.57 13.57 0 0 1 9.47-5l6.68 1.7 5 .24 8.23 5.2 5 4.27s3.89 2.72 3.73 4.27c0 0-.07 2 0 3.5s-5.83 4.89-7.77 5.51-6.29-.85-6.29-.85-3.88-7.92-5.2-2.88l-13.43-7.41s-1.63-4.51-3.26-5.36-2.87.85-2.56 2.56z" fill="none" stroke="#336" stroke-linecap="round" stroke-miterlimit="10" stroke-width="2"/><path d="M101.44 465.41s2.17-2.4 4.89-1.86 5.82 3.57 5.82 3.57 3.5 4.27 2.1 4.35-12.81-6.06-12.81-6.06zm-1.79-1.94l5.59-1s5.47-4.4 7.15-4.35c0 0-3.89-.62-5.44 0s-7.46 3.41-7.3 5.35zm14.93 4l2.47 4.47s8.15-2.72 8.85-4.47l-4.43-4s-5.94 4.43-6.89 4zm4.8 8.82s0-.86.54-1 2.25-.78 2.1 0 .15 1.55-.86 1.47a5.41 5.41 0 0 1-1.78-.47zm8.62-4.82s1.24-1.24 1.47-.93-.07.62 0 .93-.85.47-.93.47-.54-.47-.54-.47zm-16.92 4.9s.69 3.1 1.85 3.33 2 0 1.65-1.66m-.45 1.96s1.79-.07 1.79-.63m-24.11-14.25s1 3.34 2.27 3.59a1.57 1.57 0 0 0 1.83-2.23M95 469a4.42 4.42 0 0 0 1.58-.21" fill="none" stroke="#336" stroke-linecap="round" stroke-miterlimit="10" stroke-width="2"/><path d="M116.79 476.76s3.34 1.74 4.91 1.58 7.2-3.65 7.86-4.23m-6.03 1.72s4.74-2 5.47-2.76m-35.07-10.23s3.38 3 3.71 4.86m16.13 6.41a10.85 10.85 0 0 1 3 4.24" fill="none" stroke="#336" stroke-linecap="round" stroke-miterlimit="10" stroke-width="2"/><path d="M332 258.24c-4.39 12-13.93 19.5-21.31 16.79s-9.79-14.61-5.4-26.59 13.93-19.5 21.31-16.79 9.74 14.61 5.4 26.59zm-16.18 138.69c-9.28 25.3-28.66 41.47-43.29 36.11s-19-30.23-9.69-55.54 28.66-41.5 43.29-36.1 18.97 30.22 9.69 55.53zM290 278.33c-7.74 21.11-25.21 34.12-39 29.06s-18.73-26.29-11-47.4 25.21-34.12 39-29.05 18.7 26.28 11 47.39zm147.71-62.23c-7.74 21.11-25.21 34.12-39 29.06s-18.74-26.28-11-47.4 25.21-34.12 39-29 18.74 26.24 11 47.34zm-70.83 95.62c-.1 12.5-7.89 22.58-17.41 22.51s-17.15-10.23-17.06-22.78 7.89-22.58 17.41-22.51 17.18 10.27 17.06 22.78zm-119.34 77.71c-5 13.51-15.3 22.13-23.11 19.27s-10.12-16.13-5.17-29.64 15.3-22.13 23.1-19.27 10.13 16.13 5.18 29.64z" fill="#1f407b" opacity=".5"/><path fill="none" stroke="#fff" stroke-linecap="round" stroke-miterlimit="10" stroke-width="3" d="M293.15 258.68l12.15-4.07"/><path d="M289.46 274.42c-7.46 20.33-23.74 33.06-36.37 28.43s-16.83-24.87-9.37-45.2 23.74-33.07 36.37-28.44 16.82 24.87 9.37 45.21zm148.64-63.08c-7.46 20.33-23.74 33.06-36.37 28.43s-16.83-24.87-9.37-45.2 23.74-33.06 36.37-28.43 16.82 24.86 9.37 45.2zM311.56 394.88c-8.63 23.53-26.65 38.57-40.25 33.58s-17.64-28.11-9-51.64 26.65-38.56 40.25-33.57 17.63 28.11 9 51.63zm-66.13-6.22c-4.4 12-13.34 19.71-20 17.28s-8.46-14.12-4.07-26.1 13.34-19.72 20-17.29 8.46 14.13 4.07 26.11zm86.32-134.43c-4.39 12-13.34 19.72-20 17.28s-8.47-14.12-4.08-26.1 13.34-19.72 20-17.28 8.47 14.12 4.08 26.1zm32.94 55.13c-.88 11.83-7.94 20.95-15.77 20.37s-13.47-10.65-12.6-22.47 7.94-20.95 15.77-20.37 13.47 10.64 12.6 22.47z" fill="#fff" stroke="#fff" stroke-linecap="round" stroke-miterlimit="10" stroke-width="2"/><path d="M359 308.93c-.52 7.05-4.73 12.49-9.4 12.14s-8-6.34-7.51-13.39 4.73-12.49 9.4-12.14 7.99 6.34 7.51 13.39z" fill="#1f407b"/><path d="M320 262.76l-6-8.85s-3.46-11.45 6-16.49 8.8 6.87 6 12.67-6 12.67-6 12.67z" fill="#4cbea0"/><path d="M324.9 247.22c-.88 3.45-3.42 5.79-5.68 5.22s-3.38-3.84-2.51-7.29 3.41-5.8 5.67-5.22 3.39 3.83 2.52 7.29z" fill="#fff"/><path fill="none" stroke="#fff" stroke-linecap="round" stroke-miterlimit="10" stroke-width="3" d="M286.93 280.35l50.12 22.09m20.17-13.65l37.47-54.13m-56.15 86.43l-26.89 30.21"/><path d="M288.57 360.36c-11.28 7.26-20.36 24.61-20.28 38.75.07 13.05 7.92 18.81 18 13.93l-.1-17.32L281 399v-8.58l5.16-3.32v-6.33a20.25 20.25 0 0 1 7.47-13.71l6.17-4 .05 8.45-4.27 2.74a5.56 5.56 0 0 0-2.11 4.47v3.8l6.4-4.12.05 8.58-6.92 4.48.09 16.82c9.23-8.4 16.1-23.14 16-35.45-.02-14.14-9.23-19.73-20.52-12.47z" fill="#3a579b"/><path d="M227.16 402.78c0-1.73-.07-3.32-.13-4.89a.8.8 0 0 0-.25-.63c-4.66-2.41-3.94-12.73 2-20.46 5.4-7.07 12.34-8.16 14.45-2.28 1.9 5.27-.71 13.38-6 18.51a16.31 16.31 0 0 1-5.58 3.76 2.33 2.33 0 0 0-1.22 1.07c-1.04 1.61-2.11 3.14-3.27 4.92zm1.44-4.56c.36-.55.64-.9.86-1.3a4.25 4.25 0 0 1 2.34-2.16 13 13 0 0 0 4.77-3.12c5.72-5.53 7.28-13.8 4.13-17.41-2.28-2.61-6.6-1.49-10.29 2.69-6.4 7.26-6.54 17.47-2.14 18.63.14 0 .25.3.26.53.06.64.05 1.32.07 2.14z" fill="#28c1d8" fill-rule="evenodd"/><path d="M240.63 377.65c-1.16 2.25-2.29 4.26-3.22 6.35-.85 1.9-1.69 2.74-2.95 2.73a10.79 10.79 0 0 0-2.55.54 2 2 0 0 0-.83.53c-1.33 1.39-2.66 2.81-4.13 4.38 1.22-2.4 2.41-4.56 3.45-6.79.7-1.51 1.36-2.19 2.4-2.24a15.53 15.53 0 0 0 2.92-.61 1.71 1.71 0 0 0 .72-.46c1.35-1.4 2.69-2.84 4.19-4.43z" fill="#28c1d8" fill-rule="evenodd"/><path d="M251.88 270a3.3 3.3 0 0 1-2.1-2.52v-1.47a4.27 4.27 0 0 0 .13-.48c.74-4.05 1.46-8.1 2.21-12.15a3.11 3.11 0 0 1 1.7-2.54l4.9-2.59-.18 2.76-.69 11a.64.64 0 0 0-.06.46v.35a9.69 9.69 0 0 1-2.32 5.41 4.65 4.65 0 0 1-3.59 1.77z" fill="#4cbea0" fill-rule="evenodd"/><path d="M282.35 250.37a14.1 14.1 0 0 1-1.94 4.55c-.23.2-.46.38-.69.59-2 1.84-3.89 1.79-4.9-.06a8.47 8.47 0 0 1-.53-2.11l-.81-6.3c-.26-2.08-.5-4.16-.76-6.24 1.67-.88 3.33-1.78 5-2.65.88-.47 1.33-.28 1.62.66s.48 1.7.75 2.53c.76 2.44 1.37 5 2.23 7.38 0 .55.02 1.1.03 1.65z" fill="#7bd0e4" fill-rule="evenodd"/><path d="M280.49 257.32c.12 4.48.26 9 .37 13.46a3.91 3.91 0 0 1-1.67 3.2c-.22.15-.44.25-.65.37L254.75 287c-1.75.93-2.42.46-2.48-1.76q-.15-6.37-.31-12.75a2 2 0 0 1 .92-.29c2.12-.5 4.07-2.87 4.75-5.79.06-.23-.06-.55.23-.68s.22.25.3.43c.52 1.1 1.25 1.83 2.39 1.75 2.3-.15 4.32-2.36 5.3-5.74.06-.24 0-.58.29-.71s.23.24.31.41a2.4 2.4 0 0 0 2.7 1.65c2.19-.37 4.13-2.69 5-5.84.07-.26 0-.59.27-.74s.2.27.26.43c.82 2.12 2.84 2.38 4.92.65a3.17 3.17 0 0 1 .89-.7zm-3.25 10.48l.12.1a5.7 5.7 0 0 1-2.3 3.83c-1.23.87-2.35.71-2.91-.4a4.68 4.68 0 0 1 .22-4.13c.86-1.93 2.46-3.09 3.81-2.65.67.21.8-.64 1.05-1.1.35-.67-.18-.52-.35-.59-1.42-.59-3.31.42-4.73 2.47a8.39 8.39 0 0 0-1.44 6.51c.64 2.18 2.66 2.8 4.57 1.4a9.25 9.25 0 0 0 3.47-7.28c0-.48-.13-.58-.51-.37-1 .58-2.08 1.14-3.12 1.65a.89.89 0 0 0-.52 1.05c0 .43-.07 1 .54.6s1.4-.73 2.1-1.09z" fill="#3a6bb1" fill-rule="evenodd"/><path d="M280.49 257.32a3.17 3.17 0 0 0-.92.68c-2.08 1.73-4.1 1.47-4.92-.65-.06-.16 0-.61-.26-.43s-.2.48-.27.74c-.84 3.15-2.78 5.47-5 5.84a2.4 2.4 0 0 1-2.7-1.65c-.08-.17-.05-.53-.31-.41s-.23.47-.29.71c-1 3.38-3 5.59-5.3 5.74-1.14.08-1.87-.65-2.39-1.75-.08-.18-.07-.54-.3-.43s-.17.45-.23.68c-.68 2.92-2.63 5.29-4.75 5.79a2 2 0 0 0-.92.29c0-.82-.05-1.64-.08-2.46a4.65 4.65 0 0 0 3.56-1.73 9.69 9.69 0 0 0 2.32-5.41c.09.26.2.51.28.79a2.62 2.62 0 0 0 4 1.57 8.76 8.76 0 0 0 4-7c0 .1.08.19.1.29.51 3.11 3.26 3.66 5.69 1.08a9 9 0 0 0 2.48-6.29 8.47 8.47 0 0 0 .53 2.11c1 1.85 2.94 1.9 4.9.06.23-.21.46-.39.69-.59a15.74 15.74 0 0 1 .09 2.43z" fill="#1f407b" fill-rule="evenodd"/><path d="M266 258.26a8.76 8.76 0 0 1-4 7 2.62 2.62 0 0 1-4-1.57c-.08-.28-.19-.53-.28-.79s0-.24 0-.35a.49.49 0 0 0 .06-.46l.69-11 .18-2.76 6.92-3.68c0 .35.06.7.07 1.07q.21 6.28.36 12.54z" fill="#7bd0e4" fill-rule="evenodd"/><path d="M257.81 262.06a.49.49 0 0 1-.06.46.64.64 0 0 1 .06-.46z" fill="#5783c3" fill-rule="evenodd"/><path d="M266 258.26q-.18-6.3-.35-12.61c0-.37-.05-.72-.07-1.07l7.12-3.78c.26 2.08.5 4.16.76 6.24l.81 6.3a9 9 0 0 1-2.48 6.29c-2.43 2.58-5.18 2-5.69-1.08 0-.1-.05-.19-.1-.29z" fill="#4cbea0" fill-rule="evenodd"/><path d="M277.24 267.8c-.7.36-1.4.67-2.1 1.09s-.5-.17-.54-.6a.89.89 0 0 1 .52-1.05c1-.51 2.08-1.07 3.12-1.65.38-.21.5-.11.51.37a9.25 9.25 0 0 1-3.47 7.28c-1.91 1.4-3.93.78-4.57-1.4a8.39 8.39 0 0 1 1.44-6.51c1.42-2.05 3.31-3.06 4.73-2.47.17.07.7-.08.35.59-.25.46-.38 1.31-1.05 1.1-1.35-.44-2.95.72-3.81 2.65a4.68 4.68 0 0 0-.22 4.13c.56 1.11 1.68 1.27 2.91.4a5.7 5.7 0 0 0 2.3-3.83c.01-.12-.03-.15-.12-.1z" fill="#f8f9fd" fill-rule="evenodd"/><path d="M277.24 267.8c.09-.05.13 0 .12.1z" fill="#567ebf" fill-rule="evenodd"/><path d="M399.73 221.65V209c.09-1 .16-2 .27-3a22.44 22.44 0 0 1 7.05-13.21c1.06-1 2.16-1.87 3.24-2.8l11.88-8.66 2.59-1.59c3.92-2.32 6.81-1.57 7.56 2 .21 1 .28 2.1.41 3.15v12.71c-.09 1-.17 2-.28 3a22.47 22.47 0 0 1-7.05 13.21c-1.06 1-2.15 1.86-3.23 2.79l-11.88 8.66c-.87.53-1.73 1.08-2.6 1.59-3.91 2.32-6.8 1.58-7.56-2-.21-1.02-.27-2.14-.4-3.2zm30.12-28.33l-.21.15c0-2.51.06-5.05 0-7.5-.11-4-2.43-4.89-6.26-2.19q-7.14 5-14.28 10.41a14.91 14.91 0 0 0-6.25 11.22q-.15 7.74 0 15.25c.07 4 2.44 4.81 6.24 2.12q7.14-5 14.29-10.4a14.91 14.91 0 0 0 6.16-10.47c.28-2.97.22-5.74.31-8.59z" fill="#28c1d8" fill-rule="evenodd"/><path d="M416.22 212.31c-4.72 3.44-8.45 2.16-8.45-2.9s3.77-11.75 8.51-15.19 8.4-2.11 8.4 2.9-3.74 11.75-8.46 15.19zm-5.49-5c0 3.24 2.46 4.08 5.48 1.88s5.51-6.63 5.52-9.86-2.46-4.13-5.52-1.89-5.48 6.62-5.48 9.85zM427 186.07a5.17 5.17 0 0 1-2 3.52c-1.08.78-2 .44-2-.74a5.17 5.17 0 0 1 2.07-3.56c1.11-.74 1.93-.39 1.93.78z" fill="#28c1d8" fill-rule="evenodd"/><path fill="none" stroke="#fff" stroke-linecap="round" stroke-miterlimit="10" stroke-width="3" d="M246.6 384.91l15.28-3.64"/></g></svg>