<svg xmlns="http://www.w3.org/2000/svg" viewBox="0 0 649.07 494.63"><g data-name="Layer 2"><path d="M96.33 141S-44.2 197.57 38.06 375.82C63.9 431.81 143 497.4 253.34 469.9c146.47-36.51 158.72-12 320.86-47.92 103-22.82 72.74-185.6 47.49-214.5-60.34-69.06-19.35-101.95-84.57-150.76C500.24 29.12 411.76 5.71 348 16.84c-127.23 22.21-96.6 33.73-173.27 78-30.29 17.48-51.07 33.67-78.4 46.16z" fill="#ebe7f3"/><path d="M421.07 5.31s76.6 5.34 123.87 39.69 43.93 60.35 49.93 79M284.51 14s48.73-14 73.2-12.37M56.92 426.81s72.78 88.44 185.35 61.07S424.93 460.5 444.64 460M60.07 142.57S-4.54 193 2 241.47" fill="none" stroke="#ebe7f3" stroke-linecap="round" stroke-miterlimit="10" stroke-width="3"/><path d="M648.45 205.22c-8-10.43-37.89-10.63-37.89-10.63-5-23.81-19.44-25.84-23.2-27.17s-6 .59-5.78-5.82-4.92-2.32-6.8-3-2.88-8.92-2.88-8.92 2.06 1.73 1.6-1.67 3.5-14.09 6-19.38-9.89-17-15-20.08-26.27 14-28.56 15.33-2.95 1.28-5 .65-1.5 1.88-1.5 1.88 3.2 2.51 1.86 3.09-3.31 1-1.94 2.75 6.2 3.53 6.2 3.53l-2.56 8.96a27.16 27.16 0 0 1 3.11 4.76c.8 1.9-1.49 3.35-1 5.9a19.2 19.2 0 0 0 2.12 4.43c-5.86 2.48-11.34 4.7-11.34 4.7s-5.38-1.16-7.69.43-11.66-.43-11.66-.43l8-23.7s12.8-45.63 13.36-48.47-2.8-8.07-7.35-11-24.65-1.52-24.65-1.52c.33-5.14-5.24-.23-5.24-.23s-3.51-12.7-2.05-14.16 5.24-8.26 4.51-10.05-1.89-12.87-1.42-16.78a28.55 28.55 0 0 1 1.08-4.47c-10.2-2.58-24.57-5.29-32-6.64a15.88 15.88 0 0 0-3.44 8.79l-5.78-.66c-6.86 4.12 1.82 22.71 2.84 25.59s2 5.4 1.18 7.71 4.24 6.76 4.24 6.76-1.82 2.22-1.91 3.3 2.7-.68 5.17-.11-3.32 6.31-3.32 6.31-2.85 2.83-10.54 4.15-12.81 10-15.82 13.42-1.36 21.83-2 37.52 6.15 24.19 7.3 25.17a23.89 23.89 0 0 0 4.85 2.29s-8.88 14.61-10.16 17.22-2.68 12.36-2.68 12.36L420.18 270l-21.5-1.15 1.8-7.51s3.65-2 9.22-5.52 7.48-18.07 7.68-24.27-2.79-28-3.93-35.12-12.91-9.49-12.91-9.49l-6-.38-1.86-6.74-1.07-4.82-4.33-.79.53-2.86 7.25-10s2.55-1.74 3.4-2.51-.78-5.77-.78-5.77 6-16.48 6.46-18.71a8.42 8.42 0 0 0-1.48-5.74 5.41 5.41 0 0 1-.29-4.48c.61-1.15-2.28-2.26-6.45-3.09s-1.75 1.09-6.68-2-4.25-.39-8.42.48-5.85.56-8 3.42-5 1.11-5.41 3.49-2.1 3-4.39 5.77-2.31 19.51-2.31 19.51c-5.08 5.18 1.53 9.18 1 10.43s2.15 9.3 2.15 9.3l-.77 4.2-3 .66S342.51 170 340 165.47s-2.29-56.11-2.54-58.23-7.23-4.9-8.66-5.91 8.38-7.55 8.8-7.82 15.88-15.59 17.24-20.27-2-22.21-3.7-24.42-3.46-1-11.79-2.46-7.84-2-17.78 4.7-11.86 30.5-12.57 33.7-6.8 11-8 12.27-12.7 4.81-16.13 5.62-16.69 17.59-16.69 17.59-17.49 22.26-19.49 24.76 2.22 16.28 2.22 16.28l8.81 28-11.84 18.85 2 1.65c-6.89 9.07-7.4 40.48-7.4 40.48l-9.37-2v-4.23l-8.14.19-.24 2.92-35.25 1.11 18-20.13 1.71.6 3.06-.6 1.67-5.24 5.49-3.22 1.87 3.22 13.24-2.24-1.79-33.46-18.3 3.13 1.36 16.24-6.87 7.79a50.62 50.62 0 0 1-6.39 1.61c-2.06.24-1.24 5.13-1.24 5.13l-24.81 20s-20.24-27.45-20.06-29.58-3.59-10.56-3-13.86 11.93-9.22 11.93-9.22 8.1 4.34 9.27 4.54 3.49-2.67 5.94-5.8 4.89-3.38 5.84-3.38 2.32-1.5 4-6.18 2.83-5.5 2.83-5.5l6.16-9.07a12.46 12.46 0 0 0 6.33-8.61c1.09-6.11-18.08-21.51-28.76-25.48s-20.67 19.24-20.67 19.24-6.15 18.05-7.57 20.16 2.71 5.88 2.71 5.88-7.36 9.72-7.71 10.12-.42-2.16-3.13-2.29S130.16 193 130.16 193l1 2.32c-19.09 16.22-24.54 39.11-26.28 44.66s-1.27 17.47-1.93 40.39S107.4 319 107.4 319c-4.54.94-8.56-12.82-10.38-18.91s.19-21.44.93-29.13-1.56-26.45-2.73-29.91a11.86 11.86 0 0 0-7.86-7.77c-4.1-1.22-2.31 9.88-4 19.23s.75 65.77 1.53 70.79 3.09 6.46 4.77 7.09 14-1 14-1-2.56 8.06-4.49 11.72 5.34 2.15 5.34 2.15l28.49-3.5-4.31 23 3.9-.73-4.38 22.4h-2.61l-7.13 29.79L115 414l4.79 5.07s1.55 7.21 2.45 10.55 3.43-1.18 4.87-2.62.4-6.9.4-6.9h4.57s2.1 1.49 4.26 3.3 11.85 2.76 12.89 1.84-1.26-4.69-1.26-4.69 4.36-1 3.89.26 4.71 5.51 6.09 5.67 1.17-7.05 1.17-7.05l1.57-3-14.28-1.32s-2.61-10.45-1.28-9.15 2.28-2 3-3.55 33.47-34.21 33.47-34.21l-5.82 31.64h20.07l9.5-46s9.64 17.59 15.72 30.55 5.75 34.81 5.75 34.81l1.71-1.32c-1.17 6.24 2.58 9.73 3.69 10s12.39 1.86 20.22 3.34 17.35-2.48 20.14-4.14-3.32-2.71-10-3.72-15.19-9.72-15.19-9.72c8.29.11 12.92-1.76 12.92-1.76 7.33-1.58 11.29-3.23 4.21-8.73s-3.64-20.83-3.64-20.83a7.56 7.56 0 0 0 3 0c1.15-.36 2.51-7.28 3.22-9.59s-2.19-4.7-2.19-4.7c1-6.07 15.53-33.48 17.88-38.67s13.45-19.09 15.48-25.26 5.24-24 5.24-24h8.12c-2.59 6 3.94 7.61 3.94 7.61s-3.47 5.27-4.34 10 .95 18.78.95 18.78a18.24 18.24 0 0 0-9 7.13c-3.21 5.26 12.63 6.63 12.63 6.63L327 371.73l-10.22 16.82-6.34 1.08-6.22 12.25s4.5-.65 4.16 1.91-23.56 13.09-28.91 17.83 6.62 6.17 17 5.43 14.27-5.85 15.08-7.39 8.46-10.13 8.46-10.13l6.85 1.33 5.81-7.71 1.57-.65c-2.37 3.28.9 11.93 5.75 17.67s21 7.72 21 7.72c3 1.15 4.9-2.41 4.31-4.52s-6.21-6.75-9.42-9.4-4.46-18.69-4.46-18.69l5-3.22-2.2-8.82-8.75-.53-1-7.66 34.31-44.77c10.63.68 18.76-3.93 18.11-9.24s-8.61-5.21-8.61-5.21 3.63-10.55 5.26-16.8-5.75-13.16-3.34-12.89 7.85-6.36 7.85-6.36h20.32s-3.59 38.89-6.26 47.52-5.66 76.7-5.66 76.7l2.75.19s-9.35 6.15-11.57 8.26-14.28 7.46-10.1 9.23 29.42-5.37 31.28-6.87 4.53-10.14 4.53-10.14l3.1-.48 18.85-102.49-7 103.11 4.1-.61s-11.58 11.54-13.38 18.1 5.42 4.88 8.33 4.74 13.26-7 14.65-9.29 3.54-13.55 3.54-13.55h1.82l6.65-41.32s1.33-6.17 3.08-14.22c1.6 3.82 5.92 14.15 6.55 15.89.77 2.11 3.08 14 3.77 17.1s2.58 2.72 3.67 3.8 1.61 3.35 1.35 6.72.74 1.9 2.52 4.65.07 5.11.44 7.77 1 5.39.25 7.76-5.13 3.6-10.05 4.16a14.58 14.58 0 0 0-8.15 4c-2.54 8.4 13.07 7.26 13.07 7.26h20.34a12.34 12.34 0 0 0 11.88-1.37l20.46-.35s.22-9.28.08-9.43 1.36-.38 3.22-1.43-.21-6.55 0-8.39 1.1 0 3-1.12-.21-1.87-1.08-4 .16-5 2.31-7.7.93-7 .28-10 1.85-6.83 2.8-8.6 1-2.86 1.23-6.79 6.48-28.51 6.48-28.51l6.6 1-.8 12.69 4.24 1.34-2.67 25.47s-4.82 3.49-4.87 4.65-3.13 30.58-3.13 30.58l-7.2-3.13s-4.88 8.19-4.42 9.92a5.66 5.66 0 0 0 1.42 2.6l-33.57 6.74s-9.44 1.41-9.48 5.36-3 14.42 5.22 14.49c3.89 0 3.79-3 4.33-4.16s.89-7.54 5.36-8.27 33.71-3.43 33.71-3.43-1.76 9.82-1.17 10.75 5.06 9.23 8.92 6.29 5.65-16.59 4.51-17 34.09.59 34.09.59 3.55 9.24 5.1 8.37 8.72-7.45 7.42-13.28a7.42 7.42 0 0 0-5-2.33c-3.3-.23-34.53-6.34-34.53-6.34l3.93-37.9s-1.63-3.11-3.1-3.91l3-24.63s6.41.18 7.34-1.27c.61-.94 1.29-7 1.69-11.19 3.9.57 7.48 1.09 10.12 1.46 10.74 1.5 16.28.24 24.71.06s8.39-9.36 8.39-9.36c3.48-39.1 25.47-121.24 26.83-125.3s-.04-5.72-.04-5.72zm-435.53 59.22a7.07 7.07 0 0 1-.77.9c-4.69 4.53-13.1 4.35-18.51 4.39-3.54 0-7-.13-10.55-.26a27 27 0 0 0-8.26.58c-2 .53-4.45 1.23-6.11 2.74-2.2 2-1.06 4.21.52 5.62 3.35 3 9.57 2.37 14.24 2.11 2.39-.13 4.82-.34 7.19-.31 1.43 0 3.16 0 4.26.76.92.68.6 2.27.46 3.34a39.28 39.28 0 0 1-1.64 8.05.57.57 0 0 1-.5.33c-8.25.35-15.7-2.36-23.74-2.85-4.33-.26-8.69-.46-13-1-4.07-.47-7.86-1.85-12-2-.32 0-.43-.27-.34-.56.58-1.72 4.11-4.72 1-5.54a3.08 3.08 0 0 1-2.17-1.36c-1.4-2.64-.65-6-.08-9.05a116.67 116.67 0 0 1 7.08-24.78.57.57 0 0 1 .26-.27c-.08-.11-.17-.21-.24-.32-.31-.43.45-1.07.76-.63 3.24 4.56 7.67 8 11.8 11.74 3.53 3.21 6.73 7.9 11.85 9.06 6 1.37 13.09-.69 19.46-1.31 3.55-.35 7.11-.64 10.68-1.19 3.09-.48 6-1.42 9-2.13a.38.38 0 0 1 .5.43v.14c2.84-.43 5.68-.74 8.51-1.34a26.18 26.18 0 0 0 6.07-1.84 23.71 23.71 0 0 1 3.86-1.74c2.55-.7 4.09 1.23 5.92 2.25 2.65 1.48 6 1.8 8.33 3.8.28.24.15.67-.26.82-4.19 1.53-8.42 1.39-12.53 1.29-4.68-.11-9.41 0-14.12-.05-2 0-4 .08-6 .16zm25.29 55.43q-1.78 8.36-3.57 16.72c-.09.41-.78.66-.89.23a119.91 119.91 0 0 1-2.45-15.38c-.33-2.85-.65-5.7-1.14-8.5-.38-2.22-1.14-4.41-1.16-6.72s.36-4.47 0-6.56a6.6 6.6 0 0 0-3.19-4.57c-2.62-1.74-6.57-3.93-10.34-3.1a.71.71 0 0 1-.1.14v.12c.16.52-.71 1-.87.46 0-.14-.06-.28-.1-.42h-.08c-.48 0-.45-.55-.1-.8a15.39 15.39 0 0 1 1.63-9.2c1.32-2.4 4-3.13 6.4-3.28 3.31-.21 6.38.37 9.57.63a67.9 67.9 0 0 0 7.84.54c1.55-.05 3.24-.17 4.35.8 2 1.72 1.59 5.69 1.42 8.25a73.34 73.34 0 0 1-2 14.06 69.51 69.51 0 0 1-2.87 8 51.85 51.85 0 0 0-2.35 8.58zm44.51-30.49c-.09 2.69 0 5.76-.79 8.48-1.76 5.77-7.2 10.84-11.35 15.4-2.34 2.58-5 5.32-6.53 8.41a49.41 49.41 0 0 0-1.5 4.76 5 5 0 0 1-1.06 1.67c-.34 1.86-.72 3.72-1 5.58a60.22 60.22 0 0 0-.37 7.32 60.27 60.27 0 0 1-1.12 11 37.17 37.17 0 0 1-3.68 10.87 22.8 22.8 0 0 1-2.91 4.24c-1.39 1.53-3 2.88-4.11 4.64a53.1 53.1 0 0 1 .62 7.71c-.06 2.19-.18 5.85-2.65 7.37-2.94 1.82-5.36-.22-4.47-3.24.62-2.09 2.76-3 3.21-5.26.53-2.65 1.41-5.26 2-7.9-.2-2.23.67-4.86 1.06-7.06.86-4.79 2.14-9.56 2.83-14.36s1.12-9.69 2.63-14.46c.6-1.9 1.52-3.76 2.05-5.66.14-.51.27-1 .45-1.51-1-2.41.13-6.07 1-8.59 2.29-6.66 5.33-13.12 7.35-19.84 1.82-6.1 4.8-12.43 5.1-18.57h-.13c-.59.09-.67-.77-.08-.87a35.92 35.92 0 0 1 8.74.12c1.46.11 3 .37 3.62 1.73 1.09 2.43 1.17 5.28 1.09 8.02zm40.58-29.52c-.3 3.61-.17 9.73-5.8 9.1-.78-.08-2.75.12-3.37-.61-.05.19-.08.38-.13.58a.61.61 0 0 1-.42.43 22 22 0 0 1-7.24.05c-.84-.13-1.56-.45-1.71-1.33a26.37 26.37 0 0 1 .23-6.44c.26-2.94.63-5.88 1.15-8.83l-.5-.32c-.44-.31.16-1.09.6-.78.17.12.37.23.55.35a.38.38 0 0 1 .27.17 25.54 25.54 0 0 0 6.71 3c.72.2 1.43.3 1.74 1a2.55 2.55 0 0 1 .15.59 3.9 3.9 0 0 1 .89-.74.59.59 0 0 1 .78-.53l.33.14a.36.36 0 0 1 .25.11c2.53.93 5.83.46 5.52 4.06zm6.25-24.19c-.23 1.65-.7 7.44-3.25 8.2l.71.39c.46.28-.14 1.05-.6.78-2.86-1.7-10.6-3.76-9.05-8.62 1-3.18 3.54-6.06 5.91-8.56 1.5-1.58 3.71-4 5.83-4.62 3.51-.97.73 10.44.45 12.43zm6.38-52.5c-.15 2.4-2.61 5.09-4.29 6.93-2.83 3.1-4.91 6.66-7.47 10-2.35 3-4.69 6-6.74 9.24-2.83 4.44-8.49 1.74-8-2.26a17.77 17.77 0 0 0-.53-5.33 4 4 0 0 1-.33-2.14c.08-1-.66-2.22-.91-3.12a44.37 44.37 0 0 1-.87-5.46c-.49-3.53-1.41-7.13-1-10.86.79-7.31 4.48-14.88 7.74-21.83 0-.11.12-.22.17-.32l.14-.42a6.83 6.83 0 0 1 3.27-3.68 9.53 9.53 0 0 1 2.86-.91 14.06 14.06 0 0 0 1.68-.29 3.79 3.79 0 0 1 5 3.14 4.51 4.51 0 0 1-.16 1.59 4 4 0 0 1 .18 2.23c-.61 3.6.32 7.32 1.5 10.44a47.66 47.66 0 0 1 2.24 5.58 3.38 3.38 0 0 1 .68.56c1.96 2.1 5.06 3.47 4.84 6.91zm171.19-9l5.39 2-2.38 12.83 11.87-.56c-.62 1.32-1.31 2.82-2 4.44-4-.06-10.47-.15-16.4-.19 1.66-9 3.52-18.56 3.52-18.56zm12.31 205.25c-.95 3.64-2.65 2.78-4.13 4.92s.79 4.51.16 7.37-3.26 7.7-3.26 7.7a23.94 23.94 0 0 0-4.48-4.09c-2.49-1.67-.19-4.78.47-7.14s1.19-5.35-.61-8.15-4.47-5.37-5.63-10.3-10.57-28.65-10.58-30.5-8.37-17.1-8.37-17.1l27.19 2.42s-4.63 3.65-8.42 6-.09 9.8 5.67 8.74 17.61-2 17.61-2-4.66 38.45-5.62 42.09zm13.08-95.08c-2.57 2.21.49 3.76.49 3.76s-33.91 4.73-53.83 8.28c2.09-8 4.2-15.95 4.2-15.95l53.22-.55a17.77 17.77 0 0 1-4.08 4.42zm-47-14.9s5.16-19.74 9.54-37.1l2.72 13.25-3 9c-1.22 4 4.16 5.4 8.37 5.44 6.35.07 14.19.23 15.72.23 2.53 0 16.95-.26 16.95-.26s.5 4.78.91 9.45z" fill="#999" opacity=".2"/><path d="M559.32 262.4h-93.63s4.34-56.57 4.05-62.67 0-33.14 0-33.14l5.71 2v13l43.55-2.15s-5.38-26.28-6.14-28.94-1.62-6.54-3.19-4.79-23 11.22-23 11.22-5.57-1.17-7.57.44-11.67-.44-11.67-.44l3.63-23.83s4.3-45.89 4.34-48.74-4.26-8.12-9.33-11.09-24.79-1.52-24.79-1.52c-.6-5.17-5.24-.24-5.24-.24s-5.82-12.76-4.64-14.23 3.7-8.31 2.65-10.11-4.23-12.94-4.48-16.87 1.51-12.43 2.64-14.68-.33-3.71-2.67-5.1-23.1 2.53-29.49 5.7S395 28 395 28l-5.86-.65c-6.14 4.1 5.93 22.8 7.47 25.65s3 5.43 2.59 7.76 5.45 6.8 5.45 6.8-1.31 2.25-1.24 3.37 2.56-.69 5.12-.12-2.15 6.35-2.15 6.35-2.31 2.85-9.72 4.17-10.9 10.08-13.27 13.5 2.64 21.95 4.89 37.74 10.54 24.32 11.86 25.3a29.25 29.25 0 0 0 5.24 2.3s-6.15 14.7-6.95 17.32S398 190 398 190l2.79 73-21.59-1.15.41-7.55s3.27-2.05 8.16-5.56 4.14-18.17 3.2-24.41-7.9-28.16-10.33-35.32-14.57-9.54-14.57-9.54l-6-.38-3.07-6.8-2-4.85-4.46-.8v-2.88l5.46-10.09a37.94 37.94 0 0 0 2.93-2.53c.71-.77-1.84-5.8-1.84-5.8s3-16.58 3-18.82a10.2 10.2 0 0 0-2.52-5.77 5.89 5.89 0 0 1-1.12-4.5c.4-1.16-2.68-2.28-7-3.11s-1.55 1.1-7-2-4.31-.38-8.29.49-5.71.56-7.36 3.45-4.8 1.11-4.75 3.51-1.52 3-3.3 5.8S320 144 320 144c-4.11 5.2 3.2 9.22 2.94 10.49s3.84 9.35 3.84 9.35V168l-2.9.66s-18.59-6.27-22-10.77-12.54-56.42-13.18-58.56-8.08-4.92-9.69-5.94 7-7.59 7.33-7.87 12.93-15.67 13.44-20.38-6.08-22.33-8.15-24.56-3.62-1-12.17-2.47-8.17-2-16.82 4.73-6.17 30.67-6.31 33.9-4.76 11-5.68 12.33-11.75 4.84-15 5.66-13.38 17.68-13.38 17.68-13.27 22.42-14.85 24.89 5.18 16.37 5.18 16.37l13.89 28.19-8.32 19 2.27 1.65c-5.18 9.13.06 40.71.06 40.71l-9.7-2-.75-4.25-8.05.18.29 2.94-34.85 1.13 14.23-20.25 1.81.6 2.93-.6.71-5.27 4.86-3.24 2.45 3.24 12.76-2.26-7.91-33.64-17.61 3.15 4.33 16.28-5.4 7.84a43.1 43.1 0 0 1-6.06 1.62c-2 .24-.3 5.15-.3 5.15l-21 20.14s-25.15-27.6-25.35-29.75-5.5-10.61-5.5-13.93 10.15-9.3 10.15-9.3 8.84 4.37 10 4.57 3-2.69 4.85-5.84 4.24-3.4 5.19-3.4 2-1.5 2.85-6.21 1.81-5.53 1.81-5.53l4.47-9.12a9.84 9.84 0 0 0 4.71-8.66c0-6.15-21.91-21.63-33.25-25.62s-17 19.36-17 19.36-2.81 18.14-3.84 20.27 3.77 5.91 3.77 5.91-5.54 9.77-5.82 10.18-.81-2.17-3.52-2.31-8.43 11-8.43 11l1.37 2.33c-16 16.31-17.25 39.34-18 44.92s1.93 17.56 5.46 40.61 11.55 38.91 11.55 38.91c-4.34.95-10.86-12.89-13.78-19s-3.73-21.56-4.4-29.29-6.38-26.6-8.19-30.07a15.25 15.25 0 0 0-9.23-7.82c-4.3-1.22-.5 9.94-.52 19.34s12.78 66.14 14.48 71.19 4.24 6.49 6 7.12 13.71-1 13.71-1-1.07 8.1-2.32 11.78 5.7 2.17 5.7 2.17l27.7-3.53-.07 23.16 3.73-.73-.25 22.53h-2.6l-1.64 30-3.38-.27s.14-30.67 0-32.3-.59-4.21-5.21-4.48-14.22-.94-14.22-.94v-3.65s-6.54 0-9.81-1.17-4.6-2-8.4-2.38-10.45 1.63-12.46 3.46-7 1.38-7 1.38L65.37 371H50.85c-6.1 0-4.57 6.15-4.57 6.15s0 29.95-.72 36.9 14.06 6.76 14.06 6.76 54.87.53 56.55.77 7-3.62 7.59-5.27a9.54 9.54 0 0 0 0-4.25l5.64 1s2.86 7.25 4.36 10.61 3.2-1.19 4.37-2.64-.86-6.94-.86-6.94h4.54s2.36 1.5 4.84 3.32 12.29 2.77 13.15 1.85-2.11-4.72-2.11-4.72 4.15-1 3.92.26 5.69 5.54 7.09 5.7-.12-7.09-.12-7.09l1-3-14.42-1.41s-4.5-10.5-2.94-9.2 1.9-2 2.3-3.57 27-34.45 27-34.45v31.81h20l1-46.3S215.32 365 223.73 378s12.08 35 12.08 35l1.46-1.32c0 6.27 4.35 9.78 5.51 10.08s12.66 1.87 20.71 3.36 16.8-2.5 19.27-4.17-3.8-2.73-10.62-3.74-16.89-9.77-16.89-9.77c8.26.1 12.53-1.78 12.53-1.78 7-1.58 10.64-3.24 2.6-8.77S262.94 376 262.94 376a7.6 7.6 0 0 0 3 0c1.08-.37 1.17-7.33 1.44-9.64s-3-4.74-3-4.74c-.1-6.09 9.33-33.66 10.71-38.88s9.88-19.21 10.77-25.41.83-24.11.83-24.11h8.07c-1.46 6 5.31 7.64 5.31 7.64s-2.48 5.31-2.48 10.06 4.37 18.88 4.37 18.88a14.08 14.08 0 0 0-7.69 7.17c-2.27 5.29 13.73 6.67 13.73 6.67l18.75 41.69-7.09 16.91-6.11 1.09-3.95 12.32s4.36-.65 4.5 1.92-21 13.17-25.49 17.93 7.71 6.21 17.94 5.46 13.12-5.88 13.64-7.43 6.56-10.19 6.56-10.19l7.05 1.34 4.37-7.75 1.45-.66c-1.76 3.3 3.06 12 8.94 17.77s22.31 7.76 22.31 7.76c3.17 1.15 4.43-2.43 3.45-4.55s-7.41-6.79-11.08-9.45-7.85-18.8-7.85-18.8l4.36-3.24-3.75-8.86-8.8-.53-2.42-7.71 25.94-45c10.69.69 17.94-3.95 16.31-9.29s-9.51-5.24-9.51-5.24 1.68-10.6 2.16-16.89-8.12-13.23-5.68-13 6.65-6.4 6.65-6.4h20.21s3.54 39.1 2.45 47.78 8.4 77.09 8.4 77.09l2.77.18s-8.18 6.19-10 8.31-12.83 7.51-8.35 9.29 28.27-5.41 29.85-6.92 2.65-10.19 2.65-10.19l3-.49V294.83l11.87 103.69 4-.62s-9.41 11.61-10 18.22 6.29 4.9 9.15 4.76 11.91-7 12.87-9.34 1.05-13.64 1.05-13.64h1.8l-.86-41.49s1.47-47 1.7-51.23 2.43-31.73 2.43-31.73L570 272.34V263zM145 387.52l-.8 2.48-4.92 1.72v-13.51l-2.57.08.21-24 3.18-1.18v-21.9l1.16.4S167 328.2 168.8 329s-10.74 41.17-23.8 58.52zm48.7-130.06a5.64 5.64 0 0 1-.6.9c-3.84 4.55-12.24 4.38-17.61 4.41-3.51 0-7-.12-10.53-.25a25.13 25.13 0 0 0-8.11.59c-1.9.53-4.21 1.23-5.58 2.75-1.82 2-.28 4.23 1.54 5.65 3.88 3 10 2.38 14.55 2.12 2.36-.13 4.73-.35 7.1-.31 1.42 0 3.13-.05 4.37.76 1 .68 1 2.28 1.07 3.36a37.81 37.81 0 0 1-.16 8.1.45.45 0 0 1-.44.33c-8.14.35-16-2.37-24.13-2.86-4.35-.27-8.72-.47-13.06-1-4.13-.47-8.15-1.86-12.32-2a.46.46 0 0 1-.44-.57c.26-1.73 3.23-4.75 0-5.57a3.86 3.86 0 0 1-2.4-1.37c-1.88-2.66-1.74-6-1.73-9.1 0-8.36.52-16.85 2.5-25a.39.39 0 0 1 .21-.27c-.1-.11-.21-.21-.3-.32-.39-.44.25-1.08.64-.64 4.05 4.59 9.09 8 13.88 11.81 4.1 3.22 8.13 7.94 13.44 9.11 6.23 1.37 12.89-.7 19.11-1.33 3.47-.35 7-.64 10.41-1.19 3-.49 5.69-1.44 8.6-2.15a.46.46 0 0 1 .57.44.71.71 0 0 0 0 .14c2.74-.44 5.5-.75 8.22-1.35a22.32 22.32 0 0 0 5.69-1.86 19.66 19.66 0 0 1 3.53-1.75c2.4-.7 4.28 1.24 6.29 2.27 2.91 1.48 6.33 1.81 9 3.81a.46.46 0 0 1-.11.83c-3.89 1.54-8.11 1.4-12.22 1.3-4.68-.11-9.37 0-14.05 0-2 0-3.95.07-5.94.15zm37.5 39.06a61.44 61.44 0 0 1-1.38 8.08 47.54 47.54 0 0 0-.84 8.59c-.16 5.6-.31 11.21-.49 16.82 0 .4-.65.66-.84.22a137.18 137.18 0 0 1-5.25-15.46c-.85-2.86-1.69-5.73-2.69-8.55-.78-2.23-1.94-4.43-2.38-6.76-.41-2.17-.46-4.49-1.2-6.59a8.53 8.53 0 0 0-4-4.6c-2.92-1.75-7.25-3.94-10.85-3.11a.37.37 0 0 1-.07.14.43.43 0 0 0 .05.12c.26.52-.52 1-.78.46-.07-.13-.11-.28-.18-.42h-.07a.44.44 0 0 1-.25-.8 15 15 0 0 1-.06-9.26c.87-2.41 3.41-3.14 5.77-3.3 3.25-.21 6.4.38 9.62.64a69.71 69.71 0 0 0 7.9.53c1.53 0 3.19-.17 4.47.81 2.26 1.73 2.62 5.73 2.92 8.3a72.71 72.71 0 0 1 .6 14.14zm37.24-5.47c-.7 5.8-5.18 10.9-8.48 15.49-1.86 2.6-4 5.35-4.95 8.46a48.09 48.09 0 0 0-.63 4.78 4 4 0 0 1-.74 1.68v5.62a64.83 64.83 0 0 0 1 7.35 59.81 59.81 0 0 1 .89 11.1 33.23 33.23 0 0 1-1.66 10.93 18.62 18.62 0 0 1-2.12 4.26c-1.11 1.54-2.51 2.9-3.24 4.67a61.3 61.3 0 0 1 2 7.75c.34 2.2.89 5.88-1.28 7.42-2.59 1.82-5.38-.23-5-3.26.23-2.1 2.2-3 2.23-5.29 0-2.67.44-5.29.57-7.95-.6-2.24-.22-4.89-.23-7.09 0-4.83.38-9.62.19-14.45s-.67-9.74 0-14.54c.25-1.91.83-3.78 1-5.69a15 15 0 0 1 .17-1.52c-1.44-2.42-1-6.11-.58-8.64 1.05-6.69 2.9-13.2 3.67-19.95.7-6.13 2.5-12.5 1.68-18.67h-.12c-.57.1-.82-.77-.24-.87a36.27 36.27 0 0 1 8.71.11c1.47.12 3.06.38 3.92 1.75a21 21 0 0 1 2.51 8c.36 2.73 1.06 5.82.73 8.55zm10.69-91.34a20.09 20.09 0 0 0-1.5-5.36 4.73 4.73 0 0 1-.72-2.14c-.09-1-1.06-2.24-1.47-3.14a51.38 51.38 0 0 1-1.86-5.49c-1.13-3.56-2.71-7.17-3-10.92-.56-7.35 1.72-15 3.7-22 0-.11.07-.21.11-.32s0-.27.06-.42a5.39 5.39 0 0 1 2.58-3.71 8.26 8.26 0 0 1 2.68-.91 12.79 12.79 0 0 0 1.62-.29 4.55 4.55 0 0 1 5.55 3.15 4.38 4.38 0 0 1 .13 1.6 4.48 4.48 0 0 1 .59 2.24c.05 3.62 1.66 7.37 3.4 10.51a58.59 58.59 0 0 1 3.24 5.6 4.69 4.69 0 0 1 .79.57c2.38 2.15 5.71 3.53 6.12 7 .28 2.42-1.67 5.12-3 7-2.25 3.13-3.67 6.71-5.61 10a98.77 98.77 0 0 0-5 9.29c-2 4.48-8.12 1.77-8.41-2.26zM298.52 262c-.79-.09-2.71.11-3.46-.62v.58a.45.45 0 0 1-.33.43 22 22 0 0 1-7.2.06 2.18 2.18 0 0 1-1.94-1.34 27.72 27.72 0 0 1-.95-6.48c-.28-3-.45-5.91-.47-8.87l-.55-.33c-.5-.31 0-1.09.45-.78l.61.35a.44.44 0 0 1 .29.17 31.17 31.17 0 0 0 7.24 3c.75.2 1.47.29 1.9 1a2.56 2.56 0 0 1 .26.58 2.78 2.78 0 0 1 .75-.74.49.49 0 0 1 .68-.53l.35.14a.41.41 0 0 1 .27.1c2.68 1 5.88.48 6.24 4.1s1.57 9.79-4.14 9.18zm4.94-24.85c.51.28.05 1.06-.46.78-3.15-1.7-11.23-3.77-10.57-8.66.44-3.2 2.41-6.1 4.32-8.61 1.2-1.58 2.94-4.07 4.94-4.65 3.32-1 2.64 10.5 2.72 12.5.07 1.66.67 7.49-1.73 8.25z" fill="#fffefe"/><path d="M116.17 166.64s-5.43-1.93-3.37-4.65 11.24-35.34 16.72-35 47.3 24.88 36.08 26.14-24.76 10-25.52 12.26 6.13-13.57-5.85-7.69-6.04-3.33-18.06 8.94zm160.44-74.88s16.2-8.45 18.24-16.1 5.61-16.68 0-25.55-4-8.11-7.61-8.49-12.27-1.27-14.06-.95-7.14 3.09-8.41 5.9-7 5.92-5.69 27.7-14.52 22-14.55 27.52 9.7 24.38 9.11 28.7c0 0 3.73-7.16 4.24-13.53s-4-18.53.17-25.2a41.26 41.26 0 0 0 5.31-13.42L262 71s-2.11-2.19-2.11-4.51-.15-10.48 2.54-6.33 1.93 4.84 1.93 4.84a20.19 20.19 0 0 1 15.21-8.87l-1.35 4.17 9.41 1.1 2.12-2.07s8.11 14.18-13.14 27.73zM321.22 146s-1.8-11.59 1.13-16.23-1.06-5.78 3.48-6.8 4.85-.46 5.32-2.61-2.25-3.29 1-2.83 4.18.56 6-.91 1.45-2.07 2.77-1.2 2.11-.64 3.59 0 1.58-.27 1.81 1.2-.33 1.36 1.59 1.59 3.51-.34 3.4 1.36a1.85 1.85 0 0 0 1.47 2.23c.57.15-1.23-3.09 2.22 0s5.1 3.07 5 5.22-3.84 22.93-4.93 20.88-.86-12.58-2.44-13.15-7.26 1.25-10.88 1.36-12.58-1.58-14.62-2.49-3.77 7.85-4.17 9.66-1.48 4.9-1.74 2.72zm71.09-101.78c-.18-.4-3.13-13-.63-13.14s4.95 2.19 5.54-.78 10-18.26 20.91-18.6 16.16-2.61 13.32 5.21S429 37.5 431 41s4.12 10.95 2.53 13.44-12.06 15.3-15.41 16.24-2.15.8-2.15.8v-5.26s12.06-7.5 13.76-9.88 3.42-8.41-2-15.31c0 0-3.86-10.26-3.78-10.73s-6.15-11.12-7.51-6.36c0 0 2 4.89-.5 6.36s-21.48 0-21.48 4.17a84.43 84.43 0 0 0 1.25 11.22s4.39 8 5.36 10.65 3.81 7.89 6.42 8.48l-2.41 2.26S398.83 64 399.22 61s-6.91-16.78-6.91-16.78z" fill="#1f407b" opacity=".5"/><path fill="#53c7de" d="M303.29 262.4l4.8-43.89h61.93l3.06 1.46v41.85l-69.79.58z"/><path d="M220.44 202.47l46.18 5.53-15.47 47.74-6 .08-6.24-7.65-18.39-5s-4.06-37.03-.08-40.7zm51.33 5.53h7.79l1.1 9s-16.71 19.66 3 27.53l1.51 17.9-24.17 1.44-3.64-8.52zm13.98 64.34s2.4 17.56-.62 28-12.74 25.26-13.39 30.84-8.11 33.09-8.11 33.09l-.36 2.1-9.66-2.1s2.06-1.8 4.26-10.76-3.67-26.12-.14-30.76 13-27.85 11.55-35.78a58.13 58.13 0 0 0-4.58-14.22zm-33.53.07s-2.25 19.95-2.13 22.76-1.24 8.07-1.66 10.16-1.85 26.71-1.9 30.75 0 37.1 0 37.1l-3.75 2.28-12.68-36.37s2.36-33 4-34.84 1.17-19.94-.59-23.39-4.85-8.12-4.85-8.12z" fill="#53c7de" opacity=".5"/><path d="M252.68 370.5l10.26 5.5s-4 12.67 8.7 21.92c0 0 8.59 5.46-1.51 6.44s-14.63-4.77-17.45-13.44-4-9.58-4-9.58 3.33-9.31 1-9.31 0-3 0-3z" fill="#1f407b" opacity=".7"/><path d="M245.84 381.51l4.83.06s.08 21 17.43 23.65c0 0-9.17 2.6-13.28 1.22s-5.07-2.1-5.07-2.1l2.05-2.68z" fill="#1f407b" opacity=".7"/><path d="M240.35 98.22l6.71-3.35s-6.54 10.12 1.8 22.18 4.51 15.8 4.51 15.8 6.25-16 5.55-20.4-3.48-16.45-1.58-17.58 10.59 26.74 10.59 26.74l8.68-24.53s8.79 5.75 7.76 6.48-7.93 13-4.81 20.78 6.44 11.88 4.06 16-9.7 7.22-9.7 7.22l-4.37 19.07-32.24-1.44s6.62-16.67 7.82-19.74 6.24-2.94 2.36-13.88-9.72-29.57-7.14-33.35zm-1.67 76.33s-.23 27.6 1.67 27.92 27 3.66 27 3.66l4-10.62 2.59 2.07v4.07l-2.73 4.48 8.92.94-10.52-33.53s-22.69 5.96-30.93 1.01z" fill="#4cbea0" opacity=".7"/><path fill="#1f407b" opacity=".5" d="M398.43 177.53L469.96 196l-4.27 66.4h-28.53l-11.31-31.92 2.99 31.92-23.02-1.66-7.39-83.21zM465 272.34s-3.73 64.09-3.7 69.84 1 55.72 1 55.72h-10.75l-12.06-124.68zm-35.17.51l1.74 125.05-15.38-.97-10.37-123.71 24.01-.37z"/><path d="M90.85 283s-5.37-55 1.28-63.91 8.79-21.68 19.09-21.46 48.54 44 48.54 44l44-2.71 2.26 12-51.46 7.57-26.91-22s-4.42 30.38-.9 35.85z" fill="#4cbea0" opacity=".6"/><path d="M575.1 269.73a3.72 3.72 0 0 1-3.71 3.72h-413.1a3.72 3.72 0 0 1-3.72-3.72 3.72 3.72 0 0 1 3.72-3.72h413.1a3.72 3.72 0 0 1 3.71 3.72z" fill="#1f407b"/><path fill="#1f407b" d="M180.45 268.61v16.52l19.36-.94v-15.58h-19.36zm21.03 76.78v48.23h-19.96v-30.76L199.81 342l1.67 3.39z"/><path d="M312.88 396.93l13.88 5.44s-5.68 10.77-7.08 12.71-12.36 9-27.11 5.95.49-8.07 7.46-8.67 12.85-15.43 12.85-15.43zm41.7-7.5s2 12.69 5.58 15.79 12.42 9.73 9.12 11.43-20.79-.24-24.65-5.66-3.85-13.09-3.85-13.09zm61.61 7.5l12.37 2.59s.28 7.11-3.77 10.13-28.34 7.68-24 5.1 15.4-17.82 15.4-17.82zm31.64.97l11.78.24s3.48 17.59-5.89 19.11-12.26-1-9-4.89 3.11-14.46 3.11-14.46z" fill="#1f407b" opacity=".5"/><path d="M301.93 309.83c-15.38 9 6.08 12.91 6.08 12.91m21.17-16.83l4.99 17.73h5.67l8.19-17.73h-18.85zm48.54 3.89l-7.05 13.83s11 2 14.14-1.85 2-8.39.9-9.34-7.99-2.64-7.99-2.64z" fill="#1f407b"/><path d="M62.47 244.32s-5.87-13.77-.74-13.12S76.17 258 77.24 266s11 44.14 20.2 47.21l3.57.43s4.87 5 9.49 5.24 67.09-5.47 67.09-5.47 5.47 5.3 5.55 9.51.57 8.94-2.21 8.75-12.74-3.2-17.18-2.55-23.67 2.56-23.67 2.56v21.22l-2.32 1.35-.86 24h2v13.9s-5.74 1-5.42 3.21 3.91 8.48 4.65 10.27 3.67 8.43 3.67 8.43l-4.39.73s1.76 5 .65 6.8-5.24 1.11-5.6.83-3.07-9.39-3.07-9.39l-5.65-1.29V409l3.77-.22 1.1-30.21 3.62-.22-.67-22.86-3.73.89V332.7l-28.43 4.2s-5.16 1.53-3.79-4.2a94.14 94.14 0 0 0 1.8-9.35s-16 1.33-17.4-.89-12.9-39.46-17.54-78.14z" fill="#1f407b" opacity=".4"/><path d="M145.36 391.18l5.3 7.35s6.42 15.84 7.36 17.29 2.2 4.67 0 4.61-8.6 2.47-11.36-3.09-8.16-15.75-7.74-19 6.44-7.16 6.44-7.16z" fill="#1f407b" opacity=".5"/><path d="M155.16 409l14.44 1.33-1.24 3.67.35 6.41s-8.12-3.95-7.58-6.41-4 0-4 0z" fill="#1f407b"/><path d="M249.75 404.34s17.48 10.44 24.06 11.16 12.64 5.22 6.2 7.25-34.17-1-34.17-1-4.62-9.49-3.06-10.35 6.97-7.06 6.97-7.06z" fill="#1f407b" opacity=".5"/><path d="M392.23 99.35s8.55-15.43 13.59-15l2.41 3-2.23 2.06s26.11 55.71 32 61.09l-30.71-9zM394 150.5l60.53 11.35 15.25 7L470 196l-62.5-16.44 8.5-12.49-10.33-7.83S396 155.43 394 150.5zm26-61.2s25.54-22.3 22.86-17.79 26.05 2.16 26.88 8.84-18-1.66-26.88 48.8zm26.17 63.41s18.69-45.38 22-52.68 7.36-13.31 6.51-5.16-7.22 62.06-7.22 62.06z" fill="#28c1d8" opacity=".3"/><path d="M129.05 280.75l-17.83 5.14s73.44 3.2 80.28 7.56 26 37 54.34 109.89l6.07-.45-35.46-101.78s2.15-20.78-34.93-14.9z" fill="#1f407b" opacity=".5"/><path d="M180.45 313l9.35-1.38 2.94 6.1 7.07 24.28s-43.41 49.35-45.47 54.93-5.89 1.7-5.27-2 32.8-45.53 32.45-53 1.2-11.48 1.2-11.48m115.6-46.52s14.95-2.63 17.72 2.61 11.75 17.71 11.75 17.71l20.78.63s10.13-16.54 18.41-16-38 94.36-42.92 98 5.88 6 5.88 6l46.55-81.35s7.32-30.43-6.8-33l1-4.9-64.11-.47-1.87 6.07s-5.24 2.28-6.39 4.7z" fill="#1f407b" opacity=".5"/><path d="M47.39 381.32s1.37 14.22 8.57 14.91l7.2.68v4.49L51 399.52s-6.36-8.12-3.61-18.2zm22.72 14.94h7.13s-.56 2.1 4.5 2.79 8.83-.39 10.39-3.73h8.1v8.25l-30.12.77zm35.47-1.88h10.53s5.67-4.44 6.36-7.35l.68-2.9v33.8l-3.69 3.4-.16-18.44-13.75-.41z" fill="#1f407b"/><path d="M46.22 414.75s-14.28 6.82-11.45 6.8 75.13 4 84.25 3.88 64.88-1.83 64.88-1.83V417l-14.24-1.45s2.18 8.84-7.1 1.45l-.81-2.51h-4.05s2.33 3.91 2.11 4.72-10.67-.54-11.27-1.15-6.14-4.42-6.14-4.42l-5.12.4s1.14 6.59.8 7.53-3.23 2.95-4.31 2.05-3.77-10.9-3.77-10.9l-6.23-.69v4.25c0 1.15-4.35 5.1-4.75 5.05s-35.66 0-35.66 0l-25.74-.59s-11.43-.46-11.4-5.99z" fill="#1f407b" opacity=".5"/><path d="M352.43 238.75A13.45 13.45 0 1 1 339 225.3a13.45 13.45 0 0 1 13.43 13.45z" fill="none" stroke="#fff" stroke-linecap="round" stroke-miterlimit="10" stroke-width="2"/><path d="M335.58 243.84v-10.65h2.64s3.53 0 3.42 3-3.93 2.91-3.93 2.91a4.65 4.65 0 0 0 3.93 3.31 5 5 0 0 0 5.1-4.32c.65-3.79-3.09-8.14-7.75-8.36a9.25 9.25 0 0 0-9.72 9.39 9.78 9.78 0 0 0 9.94 9.62c5.49 0 10.16-4.3 10.16-9.62" fill="none" stroke="#fff" stroke-miterlimit="10" stroke-width="2"/><path d="M155.74 237.1s26.16-27.47 27.49-25.79-9.63 26.52-17.6 30l-5.87.34-4-4.52" fill="#4cbea0" opacity=".6"/><path d="M267.81 405.72zm344.39 32.39c-4.72-.85-1.2-23.23-10.24-23.36s-67-5.19-67-5.19l-28.68 2.61c-22-2.56-45.61-2.7-45.61-2.7s-3 13.16-17.22 12.5-2.63-13.43-2.63-13.43l5.11-8-16.09 1.24s-8.53 12.92-15.4 13.35-21 1-19.38-1 16.61-13.55 16.61-13.55H358s.59 6.44 4.12 7.23 13.27 9.72 13.2 11.57-6.1 3.17-7.72 2.34-25.74-13.91-25.74-13.91l-2.22-8.31 1.15-2.56h-3.39l-3.59 7.75-7.05-2.31s-6.54 10.38-6.56 11.16a7.53 7.53 0 0 1-3.4 5c-2.35 1.34-28.62 5.05-29 1.18s3.6-6.48 6-8.1 14.68-9.92 16.87-11.77 2.14-2.91 2.14-2.91l-3.27-1.28.67-2.71s-37.89 1.17-41.15 2.12 10.9 5.93 4.78 8.53c-5.11 2.17-6 2.19-6.1 2.13.26.21 2.1 1.77-1.46 1.76-3.82 0-13-.63-13-.63s18.12 11.27 21.67 11.27 11.06.2 6.66 3.68-16.93 2.71-19.88 2.69-20.13-2.62-21.4-3.46-3.16-9.31-3.16-9.31l-1 .64s-32.34 2.42-25.52 6.37-10.65 3.83 9.7 6.43 28.66 3.32 36.84 4.77 44.13-5.37 52.27-4.5 21.84-10.44 28.05-8.78 11.75 13.69 37.65 13.49 31.87-3.74 19.45-6.69 9.94-2.18 16.9-2.2c5.91 0 24.55 1.82 44 2.26a3.37 3.37 0 0 0 1.3 2c6.44 5.39 31.65 10.81 28.68 12s12.51 3.11 12.51 3.11-7.17 11.74-2 11.34 15.13 3.81 19.6.7 31.69-9.79 31.69-9.79-6.69 10.82-1.29 10.7 24-1.58 24-1.58 4.23-9.73 8.45-9.09 28.9 4.81 33.72 2.73 4.75-6.64.03-7.53z" fill="#1f407b" opacity=".5"/><path d="M416 71.51s2 .73 10.62-8.3c10.27-10.82 8.73-13 6-17.77s-4.2-18.67-1.79-25.75 6-11-16.57-8.28S395 28 395 28s-12.05-5.72-5.42 9.94 9.34 18.67 9.64 22.89 5.45 6.8 5.45 6.8M401 54.47s1.21 8.74 4.82 9.64m19.65-4.82s-12.42-5.29-16.94 4.82" fill="none" stroke="#336" stroke-linecap="round" stroke-miterlimit="10" stroke-width="2"/><path d="M425.47 37.23s-3.62-2.48-12.54 4.52l-6 2.47s-9.23-1.93-11.07.92c0 0-3.31-11.44 0-13.25s29.52 4.82 20.18-8.13c0 0 2.71-7.53 9.63 10.69 0 0 1.51 6.77 4.22 10.69S432 56.28 426 60.49a46.1 46.1 0 0 1-10.54 5.73" fill="none" stroke="#336" stroke-linecap="round" stroke-miterlimit="10" stroke-width="2"/><path d="M425.47 39.49s2.26 5.87-4.29 8.36-8.25-2.49-8.25-2.49m-4.4 1.81s1.82 5.83-5.12 5.83-6.17-5.87-6.17-5.87M411.19 53s-.85 9.64 6.83 1.43m-14.61-13.4l-4.59 1.17m21.92-4.93h-5.21m15.92 20.86s3.73 12.44 4.64 13.38M420 89.3s13.77-13.22 14.83-15 8.51-9.26 6 0S420.74 91 420.74 91m22.12-19.49s34.33-5.14 32.52 16.09-7.9 69.33-7.9 69.33" fill="none" stroke="#336" stroke-linecap="round" stroke-miterlimit="10" stroke-width="2"/><path d="M438 150.5c-3-3.19-6.3-8.28-10.31-15.7-10.39-19.2-21.91-45.17-21.91-45.17l9.71-9.28s21.68 44.51 28.46 51.29m25.79-27.78s-8.14 44.71-17.17 49.23m13.55-74.75s-16 6.55-23.26 50.81" fill="none" stroke="#336" stroke-linecap="round" stroke-miterlimit="10" stroke-width="2"/><path d="M414.59 81.26s4.8-18.92-3.4-17.15-8.21 7.4-8.21 7.4 1.94.64 2.84 0 3.94-1.66 3.66 1.11-7.19 8.56-1.25 14.71" fill="none" stroke="#336" stroke-linecap="round" stroke-miterlimit="10" stroke-width="2"/><path d="M404.62 78.34s-23.79 5.94-21.68 22.81 7.38 50.74 15.88 55.78 55.67 8.36 55.67 8.36l2.51-10.45s-41.85-7.62-49.68-13.34c0 0-9-46.68-12.92-48.78m63.52 62.12s18.67 4.57 22.28 2.09 13.55 3.24 11.14 6.25-12.58 7.23-16.53 5.12-19.9-4.74-19.9-4.74" fill="none" stroke="#336" stroke-linecap="round" stroke-miterlimit="10" stroke-width="2"/><path d="M485.68 156.93s21-6.7 24-11.22 9.32 33.73 9.32 33.73l-43.59 2.11V170.1m-74.6 102.24c2.21 46.55 5.79 98.52 10.88 125.56h19.88s-2.26-106.27 0-119.31m-25.75-119.31s-6.77 14.14-7.68 19.56c-.42 2.55.26 39.19 2.19 83" fill="none" stroke="#336" stroke-linecap="round" stroke-miterlimit="10" stroke-width="2"/><path d="M465.69 262.4C467.83 231.47 470 196 470 196s-60.86-16.61-71.53-18.47m31.36 95.32c4.72 49.24 11.41 115.81 13.93 125h18.52s-2.26-75.43 0-93.49c.69-5.51 1.67-17.74 2.71-32.07M424.79 219s1.67 18.36 4 43.36m40.95-93.49s.5 19.84.22 25.78M447.83 397.9s-14.91 19.88-9.49 22.14 24.4 2.71 22.14-22.14m-45.69 0s-22.52 15.36-19.79 17.62 36.14 3.16 33.43-17.62M357 145.34s4.22-15.89 2.71-20.71.9-4.74-2.71-5 1.58-4.64-1.81-4.24-2-4.35-5.19-2.54-4.52-5-6.1-2.26-6.1-5.13-8.35-.65-7.23-.62-8.36 4-6.32 1.2-5.2 4.59-4.51 2.15-3.16 8.41c0 0-.45 9 1.36 16s2.26 3.16 3.38-2.71 2.49-6.55 2.49-6.55 14.32 5 24.16.9c2.71-1.13 4.3.9 4.52 9.71s2.26 1.05 2.26 1.05z" fill="none" stroke="#336" stroke-linecap="round" stroke-miterlimit="10" stroke-width="2"/><path d="M357.24 144.56s5.67 6.27-1.33 8.53c0 0-4.52 13.55-12.42 17.39s-18.74-7.41-20.55-16c0 0-8.12-7.58-2.26-9.89m29.89 19.17v8.53m-22.88-8.53v8.53" fill="none" stroke="#336" stroke-linecap="round" stroke-miterlimit="10" stroke-width="2"/><path d="M350.57 166.64s15.95.68-12.5 16.49c0 0-21.9-17.94-11.29-15.11" fill="none" stroke="#336" stroke-linecap="round" stroke-miterlimit="10" stroke-width="2"/><path d="M356.36 171.26s1.33 7.58 3.71 7.8-7.77 15.59-7.77 15.59-15.13-20.56-26 0c0 0-5-16-6.33-18.75s2.49-6.32 2.49-6.32m16.52 18.52v18.97m19.26-22.2s-4.36 13.62-4.59 22.2m-31.36-24.96s4.49 19.54 3.36 25" fill="none" stroke="#336" stroke-linecap="round" stroke-miterlimit="10" stroke-width="2"/><path d="M320 175.9s-16.49 1.58-20.32 6.21S278.87 220 274.83 229c-6.55 14.48 18.07 18.3 27.33 21.91" fill="none" stroke="#336" stroke-linecap="round" stroke-miterlimit="10" stroke-width="2"/><path d="M300.58 215.65c-.9.9-10.16 13.78-8.13 15.58s10.84 5.87 10.84 5.87M362 179.29s15.81-1.36 19.87 12.87 18.68 50.48 3.84 58.72a28.45 28.45 0 0 1-12.42 3.39m-.21-27.89s7.67 7.56 0 11.63" fill="none" stroke="#336" stroke-linecap="round" stroke-miterlimit="10" stroke-width="2"/><path fill="none" stroke="#336" stroke-linecap="round" stroke-miterlimit="10" stroke-width="2" d="M373.08 261.04v-46.97l-69.79-.91v46.98M356 292.21a191.17 191.17 0 0 0-22.9 51.49c-7.68 28.91-13.39 40.2-13.39 40.2s9.78 10.39 15.65 11.3-2.71 9.48-2.71 9.48l-23-9s3.16-13.55 5-14a7.4 7.4 0 0 1 4 .46"/><path d="M326.76 402.37a38 38 0 0 0-7.08 12.71c-2.14 7.15-32 8.13-32 4.8 0-9.18 24.4-15.43 25.24-22.95m13.84-31.6s-31.34-66.89-29.89-77.61 21.69-14 25.42 0 16.1 37.11 12.22 51m10.03 30.27l4.03 11.75-10.39 4.07" fill="none" stroke="#336" stroke-linecap="round" stroke-miterlimit="10" stroke-width="2"/><path fill="none" stroke="#336" stroke-linecap="round" stroke-miterlimit="10" stroke-width="2" d="M338.18 396.93l21.57-9.87-3.8-10.16h-7.38m6.01 12.53s3.82 15.93 7.43 17.85 19 12.49 11.07 14.43-29.7-7.49-32.3-16.14 0-7.67 0-7.67m7.25-91.99l-18.85-1.15m49.58 5.04s6.17-.13 8.22 4.54c.91 2.07 5.45 9.55-16.31 9.29m-30.6.01h-4.82m-27.25-.9s-13.3 0-13.75-4.86 6.55-8.42 7.67-8.05m73.39-31.24c5.62 0 4.15-6.25 4.15-6.25m-84.7 0s-1 10.37 7.16 8.23m71.16-85.98s-1.43 10.9-2.41 14.06m-68.75-14s6.92 14 5.28 14"/><path d="M370.67 272.34l-1 6.25c9.48.84 11.74 17.23 7.43 31.24s-47.18 83.11-47.18 83.11M367 278.59s-21.19 13.57-44.69 9.13m-17.62-15.38v2.71M131.77 157.91s-10.59 2.71-13.24 7.38-5.73-3.3-5.73-3.3c.44-4 7.5-37.57 11.91-40.18s20.3-.4 33.54 14.16 11 17.65 0 19.42a37.82 37.82 0 0 0-18.17 8.37s5.22-11.46 0-8.81-15.81 9.27-6.1 11.69m-17.81 0l-5.14 8.24" fill="none" stroke="#336" stroke-linecap="round" stroke-miterlimit="10" stroke-width="2"/><path d="M161.75 154.69s-2.89 8.79-4.47 9.92-1.81-1.36-2.49 2.14 0 9.6 0 9.6h-4.74s-5.19 4.75-6.32 8.36-10.84-5-13.1-6.32-.45-6.33 0-8.25m1.91 9.61s-8 5.41-9.36 8.12m2.48 9.71c-2.71-7.45-14.45-20.1-17.62-22.7s-9.71 10.71-9.71 10.71l1.36 2.28S77.78 212 82.75 244.32s8.81 70.47 24.62 74.09 82.43-6.78 82.43-6.78 6.78-9.48 4.74-4.06-5.42 7.45-2.48 7.22 8.35-7 5.64-3.61-6.55 5.2-5 6.55-.76 19.39 21.68 47.1c22.81 28.18 21.9 47.53 21.9 47.53l15.59-10.55s-31.62-91.58-35.46-100.7-13.55-13.19-28.23-14.32-59.17-6-59.17-6" fill="none" stroke="#336" stroke-linecap="round" stroke-miterlimit="10" stroke-width="2"/><path d="M105.11 187.87s20.2 11.07 22.75 15.36 31.9 38.39 31.9 38.39 42.46-2.48 44-2.71 2.26 12 2.26 12l4.74-1V237.1s-7.61-2-8.8 0" fill="none" stroke="#336" stroke-linecap="round" stroke-miterlimit="10" stroke-width="2"/><path d="M107.37 218.36c.67 0 41.78 38.39 46.52 40s47.2-6.39 49.69-6.92M153.21 234s20.55-19 22.59-22 5 8.35 7.68 9.48 3.84-3.61 3.61-4.74-6.33-8.73-7-8.88-6.11.29-6.1 3.23m7.68 9.83s-10.54 15.73-14.3 19.12m14.3-33.2a57.41 57.41 0 0 0 2.48-5.19c.23-.91 7-7.68 7.68-12s6.1 3.61 0 7.9-.68 11.07-.68 11.07l1.81 7 14.23-2.26-7.91-33.64-17.61 3.15 2.93 14.8m7.51 14.69s-5 2.16-5 3.29m-96.26 75.89c.05.22 36.39-9.49 38.88-12.88s2.48-5.87 0-5.65-36.8 10.78-38.88 9.99m35.94-44.55s-3.57 26.65 0 34.55m55.93 13.32s33.28-7 34.18 12.89M144.18 390s-14 3.16-9.94 8.13 4.29 12.2 9.94 17.39 18.29 6.78 15.13 2.26-8.86-15.36-8.58-17.17m99.02 3.73c1.13 1.12 20.1 13.55 30 13.78s-1.59 7.67-11.52 7-26.65-3.61-26.65-3.61-5.65-1.36-4.07-7.68" fill="none" stroke="#336" stroke-linecap="round" stroke-miterlimit="10" stroke-width="2"/><path d="M62.47 226.38s9.71-5.18 16 27.89S84 310 101 314.57m67.88 16.6c-1.89 6.6-3.83 14.28-6.18 21.34-5.87 17.62-18.52 36.5-18.52 36.5s8.58 16.8 10.16 7.92S199.81 342 199.81 342" fill="none" stroke="#336" stroke-linecap="round" stroke-miterlimit="10" stroke-width="2"/><path d="M62.47 244.32s10.79 78.16 19.27 79.32a57 57 0 0 0 15.42 0s-3.47 13.32 0 13.48c2.92.14 50.92-8.71 72.31-8 4 .14 7.12.61 8.78 1.55 10.49 5.93 3.88-15.39 0-16.1" fill="none" stroke="#336" stroke-linecap="round" stroke-miterlimit="10" stroke-width="2"/><path fill="none" stroke="#336" stroke-linecap="round" stroke-miterlimit="10" stroke-width="2" d="M127.86 332.7v23.71l12.22-2.92V332.7m-8.49 23.71v21.8m5.31-23.96v22.16m2.02 13.59v-11.79h-10.16l-.9 30.82h-4.09m-.01 2.67l6.66.66m1.3 8.34s-3.33-8.42-1-9.56 5-2.34 7.09 6.76-5.27 4.69-5.66 4.2m6-8.08h3.09m13.92-5.02l14.44 1.33-1.24 3.67s2.67 5.87.35 6.41-8.3-4.63-7.09-5.7-2.88-.71-2.88-.71"/><path d="M50.14 371.24s-4.1-.54-3.92 2.13 0 41.38 0 41.38-1.07 3.89 6.24 5.68 67 .9 67 .9 4.45-2.85 4.27-5.17 0-40.82 0-40.82-.53-3.66-3.91-4.15-67.92 0-67.92 0m14.29-1.02v-2.86s5 .13 8.37-2 9.63-2.83 12.66-2.29 5.35 3 9.45 3.48 7.67.79 7.67.79v2.86" fill="none" stroke="#336" stroke-linecap="round" stroke-miterlimit="10" stroke-width="2"/><path d="M76 370.17s-1.78-2.16 0-2.86 5.7-1.06 9.27-.79 9.27.64 9.27 2.14-1.79 2.34-1.79 2.34m-29.59 49.47v-35.15h7v34.05m30.07 1.1v-35.15h5.35v32.44m-58.47-40.64s.71 16.4 3.57 18 11 1.14 11 1.14m8.43 0h7.13M79 390s-3.21 8 0 8.51 11.59 3 12.66-1.07.89-7-1.25-7.44-11.23-1-11.23-1m12.95 6.32h8.1m5.35-.94h10.53s7.59 0 7.65-18m87.04-135.21s16.87 3.61 23.19 4.52 5.42 5.72 11.14 8.58M212 247.72s9.33 6.7 16 6.55" fill="none" stroke="#336" stroke-linecap="round" stroke-miterlimit="10" stroke-width="2"/><path fill="none" stroke="#336" stroke-linecap="round" stroke-miterlimit="10" stroke-width="2" d="M191.98 260.74l2.56-4.21 56.61-.81 20.18-60.21m2.59 6.14l-20.06 59.09m318.29 6.63a5 5 0 0 1-5 5H155.92a5 5 0 0 1-5-5h0a5 5 0 0 1 5-5h411.26a5 5 0 0 1 5 5zm-277.92-4.97v-14.24m85.4 14.24v-8.13m-234-93.43l6.54 3.17s-5.55 8.58-2.06 6.75a42 42 0 0 1 5.36-2.46m173.21-25.39h4.95m11.68 0h5.26M336 148.49v5.31s-1.38 2.69 2.18 3.13m-2.44 5.98s6.2 1 8 0m-5.56 2.38h2.77m2.77-17.76s4.15 1.71 6.85 0m-24.74 0s6.18 1.9 7.8.38M285.6 85.79s17.19-14.65 14-25.79-4.29-22-15.14-21.42-8.29-7.43-20.29 1.71-5.37 33.71-8.8 41.42S238.51 100 247.08 114s6.29 18.85 6.29 18.85 7.14-15.71 3.71-24.85 2.29-20.3 4.58-22.66c0 0 2.15-4.75 1.81-6.48"/><path d="M289.65 46.57s1.71 13.15-1.72 14.86l-9.71-1.14 1.43-4.57s-13.71 2-15.14 8.57c0 0-3.14-8.86-4.86-4.57s.86 11.14 2 10.85 1.43 18.47 8.29 18.52 17.14-8.81 20.14-17.09 0-12 0-12m-2.45 16.76s7.65-2.78 5.42-5" fill="none" stroke="#336" stroke-linecap="round" stroke-miterlimit="10" stroke-width="2"/><path d="M276.61 87.05s-1.08 8.45 0 10l-8.68 24.53s-8.62-18-8.85-24.87m17.53-4.95s7.45 5.32 11 6 5.83 43.88 14.21 61.5c0 0 20.6 10 24.59 10" fill="none" stroke="#336" stroke-linecap="round" stroke-miterlimit="10" stroke-width="2"/><path d="M271.77 208c6.45 0 10.78-.21 10.78-.21s-11-26.6-13-34.24 5.7-27.55 5.7-27.55c12.63-.67 12-12 9.3-20.95s3.08-25.65 3.08-25.65m-60.31 80.16a119.1 119.1 0 0 1-9.59 21.15c6.47 6 31.87 7.18 48.89 7.28m-31.94-83.65a128.07 128.07 0 0 1-4.84 47.4" fill="none" stroke="#336" stroke-linecap="round" stroke-miterlimit="10" stroke-width="2"/><path d="M237.52 94.35s7.47 16.55-1.84 27.26c0 0-16.29 15.36-16.29 20.35s10.21 30.57 10.21 30.57" fill="none" stroke="#336" stroke-linecap="round" stroke-miterlimit="10" stroke-width="2"/><path d="M250.69 89.09s-10.36 5-15 5.66-26.26 39.89-28.26 42.55 19.26 44 19.26 44m59.19-38.01s5 21.27 10.64 25.93 23.25 6 23.25 6m-50.22-8.62s-21.37 2.16-37.66-2.8m35.96 8.73s-20.18 7.47-38-.91m24.78-27s-11.6 1-14.28-3m-12.58 130.79c5.93 22.85 5 26 3.58 31.11-1.33 4.8-3.28 14.53-1.87 32.56m-9.04-133.61s-4.55 14.71.06 40.71m24.4 138.39c2.67-.2 4.74-.25 4.74-.25s2.33-9.31 0-9.31m2.58-98.79c-.38 4-.88 7.89-1.53 11.69-1.83 10.78 1.05 14.63-1.83 19.28S246 366 247.31 372c.54 2.42-1.6 3.37-4.53 3.45m9.9-149.78s.6 8.08.68 19.43m-3.72 136.22s4.65 21.94 15.62 23.27c7.37.89-.85 4.69-10.44 1.85m30.93-134.1a175.78 175.78 0 0 1 .13 19.88c-1.67 22.61-13.63 20.61-22.61 74.14 0 0-7.18.09-9.91-3.12s-4.72.46-4.72 3.12 15.63 12 17.29 9.64 1.56-13.34-.33-12.76m18.02-118.74c.56 5.88 1.09 12 1.51 17.9m-5.57-54.4s.44 3.43 1.1 9" fill="none" stroke="#336" stroke-linecap="round" stroke-miterlimit="10" stroke-width="2"/><path d="M262.94 376s-2 8.33 2.32 15.31 14.77 10.61 8.65 12.3m-9.21-130.87c2.94 7.81 5.2 15.59 4.43 19.44-1.87 9.35-16.7 21-15.77 34.62s2.46 27.71-.68 32m4.66-103.45c.91 2 2 4.38 3.16 7m-30.63-88.75s4.91-2.81 6.61 4.73c3.87 17.18-7 9.32-8.08 5.28s-2.06-3-1.89-2.61m-46.06 92.22v11.91m19.36-12.39v11.44m1.67 61.21v48.23h-19.96v-28.18m14.83-14.34v35.81M289.17 71s-7-3.14-8.58 1.72c-.9 2.69-1.13 10.62-5.34 8.36m-1.21 3.28l-2.85-1.05v1.05m12.02-10.09s2.88 1.38 4.42 1.12M270.13 69s2.5 2.8 5.12 2.21m3.19-4.15s-4.73-3-7.25-2.89" fill="none" stroke="#336" stroke-linecap="round" stroke-miterlimit="10" stroke-width="2"/><path d="M626.5 207.33c-9.22-10.33-39.63-10.45-39.63-10.45-7.67-23.64-22.51-25.61-26.47-26.92s-6 .6-6.5-5.77-5.24-2.29-7.22-2.95-3.88-8.85-3.88-8.85 2.27 1.72 1.44-1.65 2.07-14 4-19.26-11.85-16.85-17.34-19.91-25.21 13.94-27.39 15.29-2.86 1.29-5.05.66-1.31 1.88-1.31 1.88 3.52 2.48 2.21 3.06-3.25 1-1.68 2.74 6.68 3.48 6.68 3.48l-1.57 8.89a31.16 31.16 0 0 1 3.67 4.72c1 1.88-1.16 3.33-.36 5.86s6.15 8.54 6.82 11.43 1 3.73 2.23 4.29 4.9-1.24 5.77-1.17 1.61.36 1.76.72.14 1.81-2.54 2.54-19 6.36-21.66 10c-.78 1-2.2 4.74-3.84 9.49-7.69-.1-25-.28-29.2-.08-5.44.26-2.23 6.79-2.23 6.79l14.49 45.63-2.13 8.95c-.82 3.94 4.8 5.34 9.08 5.38 6.46.05 14.45.19 16 .19 2.58 0 17.2-.3 17.2-.3s3.37 15.79 3.37 17.89-1.73 4.08-4.11 6.28.89 3.74.89 3.74-60.62 8.53-67.26 11.32a42.17 42.17 0 0 0-9.2 5.36c-6.15 7 .23 18.32.23 18.32s14.78 23.59 15 23.92 8.11 15.08 9.12 17.18 4.61 13.9 5.64 17 2.92 2.71 4.14 3.78 2 3.31 2.08 6.66 1 1.89 3.06 4.61.62 5.08 1.27 7.72 1.57 5.35 1.08 7.7-4.82 3.59-9.77 4.16a13.1 13.1 0 0 0-7.86 3.95c-1.68 8.35 14.06 7.18 14.06 7.18h20.67c7.33 2.64 11.93-1.39 11.93-1.39l20.75-.41s-.76-9.21-.92-9.36 1.35-.38 3.12-1.42-.91-6.5-.9-8.33 1.11 0 2.87-1.13-.41-1.85-1.52-3.94-.37-5 1.53-7.64.2-7-.78-9.95 1.15-6.78 1.94-8.55.73-2.84.52-6.74 3.55-28.32 3.55-28.32l6.81 1 .54 12.61 4.45 1.31v25.31s-4.53 3.47-4.45 4.62.07 30.38.07 30.38l-7.65-3.1s-4.09 8.15-3.44 9.87a6.32 6.32 0 0 0 1.72 2.57L507 432.8s-9.44 1.42-9 5.34-1.5 14.34 6.84 14.38c3.95 0 3.52-3 3.95-4.14s.11-7.49 4.57-8.23 33.9-3.48 33.9-3.48-.74 9.75 0 10.67 6.12 9.16 9.74 6.23 4-16.49 2.77-16.88 34.71.51 34.71.51 4.59 9.17 6.07 8.29 8.07-7.41 6.12-13.21a8.48 8.48 0 0 0-5.47-2.28c-3.38-.23-35.77-6.21-35.77-6.21v-37.64s-2-3.09-3.57-3.88l.45-24.47s6.53.17 7.33-1.28c.52-.93.56-7 .52-11.11 4 .56 7.72 1.06 10.44 1.42 11.08 1.47 16.57.2 25.12 0s7.53-9.32 7.53-9.32c-.62-38.83 13-120.45 13.93-124.48s-.68-5.7-.68-5.7zM513.93 380.6c-.59 3.62-2.4 2.77-3.68 4.9s1.28 4.47.95 7.32-2.5 7.65-2.5 7.65a27.85 27.85 0 0 0-5-4.06c-2.7-1.64-.7-4.74-.28-7.08s.64-5.32-1.49-8.09-5.11-5.33-6.81-10.22-13.79-28.43-14-30.26-10.32-17-10.32-17l27.89 2.34s-4.33 3.63-7.92 6 .94 9.72 6.69 8.66 17.68-2 17.68-2-.63 38.24-1.21 41.84z" fill="#fff"/><path d="M536.76 115.46s-14.18.77-18.41 6.35-14.38 9.13-12.26 11.67 1.38 3.14 2.28 6.62 7.59 9.65 6.14 16.4 1.57 10.42 1.11 12.37-.08 5.8 2.23 3.79 4.18 2.16 4.18 2.16 11.35-10.2 14.73-10.43 9.23-2.54 9.23-2.54l-2.77-9.49 1.38-.25s1.93-14.16 3-17.33 1.59-9.62-10.84-19.32zm-21.17 223.4l26.92 2.71s-1.8 11.31-2.24 14.92-.76 15.31-.95 17.17-2 5.33-2.3 7.93 1.74 4.9 1.12 9.24-3.87 5.89-2.61 10.52 3.88 5.57 1.49 6-4 1.53-2.76 4.14 1.09 4.23-.38 5.16-.68 4.21-.61 7.25a4.56 4.56 0 0 1-2.37 4.2l-18.14-1.78 1.6-5.34s1.42-7.84.21-9.49-3.65-2.17-4.15-4.37-1.28-6.58-1.28-6.58a16.9 16.9 0 0 0 2.19-4.64 28.76 28.76 0 0 0 .38-5.47c0-2.48 1.92-3.42 2.92-4.1s5.8-4.74 5.8-9.48-1.43-18.02-1.43-23.44-2.16-14.52-3.41-14.55z" fill="#1f407b" opacity=".5"/><path d="M441.57 321.87c0-.79 1.24-8.7 5.84-10.64S524 294.71 524 294.71s3.12 5.64 8.07 7.6 22.51 3.51 22.51 3.51 2.38 19.38-.65 20.76-48.58 2.4-52.32 0-31.61-3.12-31.61-3.12a340.09 340.09 0 0 1 25.61 47.68s1.32 4.81 2.44 5.56 6.4 6.69 6.13 9.72-2.37 6.87-.71 8.71 5.55 4.7 6 7.2-.55 3.32 1.6 5.47 5.57 5.28 4.66 7.7a3.61 3.61 0 0 1-3.13 2.46s2.39 11.61-3.45 11.59-14.8-2.06-17.95-1.4-23.77-.45-20.47-2.67 16-2.46 21.25-2.85 13.25.5 9.36-1.6-14.82-11.23-9.75-9.49 8.19-1.22 6.92-3.74-11.68-.34-13.1-4.74.72-2.46-.64-7.52-4.68-2.15-4.29-8.19-6.43-6.24-7.6-10.53-5.83-12.82-7.88-14.69-23.35-35.96-23.43-40.26z" fill="#1f407b" opacity=".5"/><path d="M540 169.61a15.24 15.24 0 0 0-2.77 1.29s1.13-.53 2.77-1.29zm14.55-.74c-3.54-.45-.24-3.05-.21-4.56 0-1.12-9.47 3.09-14.32 5.3 11.74-4.1 30.37 3.64 16.47 5.21-9-2.82-48.48 12.75-50.49 13.39-.18.06-.24.24-.2.5l-14.09 34.71s4.86 6.91 1.55 7.51-6.93-.9-6.33 2.41 2.28 4.22-.06 5.42-5.08 5.24-2.11 6.47 17.92 6.2 20.45 0 4.58-9.86 3.87-11.89 4.69-13.34 4.69-13.34.78-8.22 1.07-12.86c1.95 4 4.46 9 5.5 14.19a134.42 134.42 0 0 1 2.54 26.14c.11 9.58 6.51 31.07 7.12 39.5s-6 7.77-6 7.77 5.72 4.58 8.07 7.6 22.51 3.51 22.51 3.51-.2-26.09-.28-47 3.12-39.65 6.24-50.15 25.94-13.11 25.94-13.11c-8.92-23.91-28.39-26.28-31.93-26.72z" opacity=".3" fill="#28c1d8"/><path d="M491.67 248.7l12.58-1.1 10.7 1.62 3.08 12.6h-32.34s3.93-14.45 4.36-14.6 1.62 1.48 1.62 1.48z" fill="#28c1d8" opacity=".3"/><path d="M481.47 231.6l-7.54-28.68h18.88l-5.81 20.3s-3.61-.11-3.56 1.46 1.28 4.94.16 5.76a8.89 8.89 0 0 1-2.13 1.16zm23.31 15.61l9.73 1.94-.76-27.85s-5.34 5.45-5.38 7.3 1.19 5.86.71 6.82-4.3 11.79-4.3 11.79z" fill="#4cbea0" opacity=".7"/><path d="M620.34 202.92s-42-6-50.31 5.07-17.41 55.39-14.59 75.61 5.22 50.42-9.45 49-59.28-5-55.94 3.95c0 0 2.68 6.25 10.35 4s21.55-1.75 24.41-1.3 29.74 4 29.74 4 45.21 6.52 50.57 4.46 9.83-5.21 9.1-9.58-.24-15.82.23-19.6 8-95.54 13.12-105.44c0 .05 2.73-5.62-7.23-10.17z" fill="#1f407b" opacity=".5"/><path d="M550.35 342.65v12.6l4.2 1.24v25.3s-4.6 3.11-4.46 6 0 36.46 0 36.46-9.06-6.95-9.39-6.15-2.3 7.32-.44 8.15 11.64-2.66 11.24-.76-48 10.47-48.37 12.86 2.37 16.41 4.67 12.84 1.49-10 5.29-10.67 34.24-3.71 34.24-3.71.36-6.68 4-5.31 6.53 25.55 7.55 19.51 1.43-13.87 1.43-13.87l34.22-.33s4.71 9.09 5.81 8.79 7.15-5.65 7.14-8.34.46-7.88-7.81-7.38-33.51-5.69-33.51-5.69l-.33-37.93s-1.47-3.56-3.26-4.26l-.35-24.09s8.39-.47 8.23-1.42.11-10.79.11-10.79z" fill="#1f407b"/><path d="M504.6 139.16l-1.39 8.53s3.49 4.42 3.49 5.58-.93 4.18 1.63 7.9 5.35 7.45 5.58 11.17 7.44 0 7.44 0" fill="none" stroke="#336" stroke-linecap="round" stroke-miterlimit="10" stroke-width="2"/><path d="M515.4 142.9s11.3 6.21 13.85 12.94c0 0 12.56-4.43 15.35-3.73 0 0 .7-14 3.72-19.53S533.67 107.7 526 111.65s-21.86 17.21-26 16.74-2.1 2.56 0 3.72-4.6.93-2.42 2.79 7.06 2.56 9.16 5.81a14.11 14.11 0 0 1 1.86 7.44s2.32-2.09 1.86-4.65-3-5.34-.9-5.81 8.11 3 5.32 10.46m28.34 3.91a17.09 17.09 0 0 0 2.77 8.88m-24.64 14.65s11.83-14.5 31.15-14.65c5.12 0-2.09 6.28 5.59 8.37s21.62 5.58 28.36 26.27" fill="none" stroke="#336" stroke-linecap="round" stroke-miterlimit="10" stroke-width="2"/><path d="M537.25 170.9s-31.86 7.44-35.58 11.63S487 223.22 487 223.22s24.66 3 17.68 4.88-22.56-9.07-21.63-1.63-1.39 3.26-1.86 5.81-6.27 9.77 6.51 14.19 16.61 1.68 18.29-3 4-8.47 2.36-12.19 5.4-10.18 5.4-11.34m-12.17-33.89s8.6 1.63 8.84 11.86" fill="none" stroke="#336" stroke-linecap="round" stroke-miterlimit="10" stroke-width="2"/><path d="M513.67 211.82s.23 5.85 0 12.59.7 24.19 1.86 27.91 6.52 24.64 5.82 29.06-8.14 5.12-2.33 8.84 6.05 7.9 13 12.09 22.51 3.51 22.51 3.51" fill="none" stroke="#336" stroke-linecap="round" stroke-miterlimit="10" stroke-width="2"/><path d="M479.25 243.56s-6.41 16.74-1.24 17.79c11.45 2.33 40 .47 40 .47m-14.8-14.38l11.74 1.78m4.05 41s-46.69 6.16-62.5 9.64-19.34 10.33-16.5 19.88c3.09 10.49 26.74 43.25 29.53 54.64s1.86 7.91 5.35 11.39 2.88-.23 3.3 5.82 3.21 4.18 3.44 8.37.34 5.35 1.79 7.44 1.55 9.77-5.23 9.77-15.16 2.09-11.44 8.13 30.92 2.33 34 3.49 10 2.32 11.62-1.86a22.63 22.63 0 0 0 1.63-7.44s-25.34 2.56-27.67-6.05 29.53 9.54 29.53 3.26-3.72-7.67-5.35-9.53 1.4-4.19-2.56-8.14-4.65-.7-4.42-6.28 2.1-5.81-1.39-11.16-4.88-4.42-5.81-8.37-20-46.32-26.28-49.58l38.41 2.88" fill="none" stroke="#336" stroke-linecap="round" stroke-miterlimit="10" stroke-width="2"/><path d="M542.51 341.57s-4 23.05-3.26 29.32-1 4.42-2.23 10.7 1.54 4.88 1.07 10.46-3 6.51-2.56 9.3 3.21 4.65 1.49 6-3.34-1-3.11 2.53 4.37 6.3 0 6.77-18.82-6.51-14.86-3 12.56.93 14.19 5.11a13.54 13.54 0 0 1 0 8.61h-20.65m2.48-88.1s1.17 36 0 40.69-5.11 1.63-4.18 7.21 1.11 6.51-.14 8.84a15.81 15.81 0 0 0-1.61 4.58" fill="none" stroke="#336" stroke-linecap="round" stroke-miterlimit="10" stroke-width="2"/><path d="M490.05 334.31a17.49 17.49 0 0 1 11.53-7.73c7.81-1.29 47.85 5.16 52.32 0S546.46 214 565.46 202.19s66.38-1.37 62.52 9.63-16.76 105.34-14.18 127.45-89.79-6.9-112.22.93c-9.07 3.17-11.37-2.74-11.53-3.61M519 153.09a9.61 9.61 0 0 1 2.31 8.76m17.42-4.38s.82 5.72 2.51 5.24m-63.01 84.73l-15.37-47.6s-2.85-3.32 2.13-4.26 31 0 31 0" fill="none" stroke="#336" stroke-linecap="round" stroke-miterlimit="10" stroke-width="2"/><path d="M550.09 342.65v12.53s14.22 5 19.94 1.45v-11.14" fill="none" stroke="#336" stroke-linecap="round" stroke-miterlimit="10" stroke-width="2"/><path d="M554.55 356.49v28.64a6.43 6.43 0 0 0 7.67 0v-27.22m-7.67 23.88s-4.84 2.32-4.46 4.63 0 37.83 0 37.83l-49.09 10a8.15 8.15 0 0 0-3 6.41c0 4.27.46 11.25 5.55 11.95 4.68.65 5.17-2.56 5.58-7.26s6.45-5.55 6.45-5.55l32-3" fill="none" stroke="#336" stroke-linecap="round" stroke-miterlimit="10" stroke-width="2"/><path d="M547.55 447.46s-1.33-15.18 2.54-15.92 10.1 4.7 10 8 .7 25.86-12.54 7.92z" fill="none" stroke="#336" stroke-linecap="round" stroke-miterlimit="10" stroke-width="2"/><path d="M559.12 436.81h35.41s3 6.38 5.13 8.51 10.69-8.2 6.83-13.78c-1.28-1.85-6.4-1.85-6.4-1.85l-34.26-5.44v-38c0-2.47-3.61-4.47-3.61-4.47m-12.13 35.47s-7.49-4.85-7.58-3.55-6.31 12-1.79 11.78" fill="none" stroke="#336" stroke-linecap="round" stroke-miterlimit="10" stroke-width="2"/></g></svg>