<?xml version="1.0" encoding="UTF-8"?>
<svg width="19px" height="20px" viewBox="0 0 19 20" version="1.1" xmlns="http://www.w3.org/2000/svg" xmlns:xlink="http://www.w3.org/1999/xlink">
    <!-- Generator: Sketch 56.2 (81672) - https://sketch.com -->
    <title>Shape</title>
    <desc>Created with Sketch.</desc>
    <g id="Loop-#9-Copy" stroke="none" stroke-width="1" fill="none" fill-rule="evenodd">
        <g id="RALLIO---HP-#9" transform="translate(-589.000000, -6470.000000)" fill="#000000" fill-rule="nonzero">
            <g id="Group-7" transform="translate(0.000000, 5574.000000)">
                <g id="Group-35" transform="translate(0.000000, 713.000000)">
                    <g id="Group-10" transform="translate(589.000000, 182.000000)">
                        <g id="Group-15">
                            <g id="np_address_2028475_000000" transform="translate(0.000000, 1.000000)">
                                <path d="M0.813478261,11.401087 L4.16782609,11.401087 L4.16782609,19.1286957 C4.16782609,19.5278043 4.46928261,19.8505 4.86841304,19.8505 L8.26515217,19.8505 C8.66426087,19.8505 9.00819565,19.5278043 9.00819565,19.1286957 L9.00819565,11.401087 L14.2518913,11.401087 C14.4429587,11.401087 14.6255435,11.3204152 14.7571522,11.1887913 L18.3873696,7.60944348 C18.5274848,7.47357391 18.6039109,7.28674783 18.6039109,7.09144348 C18.6039109,6.89613043 18.5232391,6.70931304 18.3873696,6.57768261 L14.7571522,3.03659565 C14.6212826,2.90497174 14.4429565,2.82005435 14.2518913,2.82005435 L9.00819565,2.82005435 L9.00819565,0.871184783 C9.00819565,0.472076087 8.66428261,0.149380435 8.26515217,0.149380435 L4.86841304,0.149380435 C4.46930435,0.149380435 4.16782609,0.472076087 4.16782609,0.871184783 L4.16782609,2.82431522 L0.813478261,2.82431522 C0.414369565,2.82431522 0.091673913,3.16822826 0.091673913,3.5673587 L0.091673913,10.670837 C0.091673913,11.0699457 0.414369565,11.4011413 0.813478261,11.4011413 L0.813478261,11.401087 Z M7.56456522,18.4069565 L5.61143478,18.4069565 L5.61143478,11.401087 L7.56456522,11.401087 L7.56456522,18.4069565 Z M5.61143478,1.59304348 L7.56456522,1.59304348 L7.56456522,2.82436957 L5.61143478,2.82436957 L5.61143478,1.59304348 Z M1.53534783,4.26804348 L13.9588261,4.26804348 L16.8503478,7.09152174 L13.9546957,9.9576087 L1.53534783,9.9576087 L1.53534783,4.26804348 Z" id="Shape"></path>
                            </g>
                        </g>
                    </g>
                </g>
            </g>
        </g>
    </g>
</svg>