<?xml version="1.0" encoding="UTF-8"?>
<svg width="15px" height="15px" viewBox="0 0 15 15" version="1.1" xmlns="http://www.w3.org/2000/svg" xmlns:xlink="http://www.w3.org/1999/xlink">
    <!-- Generator: Sketch 56.2 (81672) - https://sketch.com -->
    <title>facebook/black</title>
    <desc>Created with Sketch.</desc>
    <g id="Loop-#9-Copy" stroke="none" stroke-width="1" fill="none" fill-rule="evenodd">
        <g id="RALLIO---HP-#9" transform="translate(-1223.000000, -6475.000000)" fill="#000000">
            <g id="Group-7" transform="translate(0.000000, 5574.000000)">
                <g id="Group-35" transform="translate(0.000000, 713.000000)">
                    <g id="Group-10" transform="translate(589.000000, 182.000000)">
                        <g id="Group-29" transform="translate(634.000000, 6.000000)">
                            <g id="facebook/black">
                                <g id="Path">
                                    <path d="M14.172,0 L0.822,0 C0.367053107,0.00329680302 0,0.373041162 0,0.828 L0,14.178 C0.00329680302,14.6329469 0.373041162,15 0.828,15 L8.013,15 L8.013,9.1995 L6.063,9.1995 L6.063,6.9285 L8.013,6.9285 L8.013,5.2575 C8.013,3.321 9.1965,2.265 10.9245,2.265 C11.5077206,2.26251636 12.0906258,2.29256302 12.6705,2.355 L12.6705,4.38 L11.4795,4.38 C10.539,4.38 10.356,4.83 10.356,5.4825 L10.356,6.9285 L12.6,6.9285 L12.3,9.1995 L10.35,9.1995 L10.35,15 L14.172,15 C14.6292918,15 15,14.6292918 15,14.172 L15,0.822 C14.9967032,0.367053107 14.6269588,0 14.172,0 L14.172,0 Z" fill-rule="nonzero"></path>
                                </g>
                            </g>
                        </g>
                    </g>
                </g>
            </g>
        </g>
    </g>
</svg>