<?xml version="1.0" encoding="UTF-8"?>
<svg width="15px" height="15px" viewBox="0 0 15 15" version="1.1" xmlns="http://www.w3.org/2000/svg" xmlns:xlink="http://www.w3.org/1999/xlink">
    <!-- Generator: Sketch 56.2 (81672) - https://sketch.com -->
    <title>linkedin/black</title>
    <desc>Created with Sketch.</desc>
    <g id="Loop-#9-Copy" stroke="none" stroke-width="1" fill="none" fill-rule="evenodd">
        <g id="RALLIO---HP-#9" transform="translate(-1268.000000, -6475.000000)" fill="#000000">
            <g id="Group-7" transform="translate(0.000000, 5574.000000)">
                <g id="Group-35" transform="translate(0.000000, 713.000000)">
                    <g id="Group-10" transform="translate(589.000000, 182.000000)">
                        <g id="Group-29" transform="translate(634.000000, 6.000000)">
                            <g id="linkedin/black" transform="translate(45.000000, 0.000000)">
                                <path d="M12.6580033,12.7842708 L10.42533,12.7842708 L10.42533,8.87135417 C10.42533,7.716875 9.93945957,7.36083333 9.31270627,7.36083333 C8.65026815,7.36083333 8.00061881,7.86447917 8.00061881,8.90020833 L8.00061881,12.7842708 L5.76784241,12.7842708 L5.76784241,5.62020833 L7.91511964,5.62020833 L7.91511964,6.6128125 L7.94358498,6.6128125 C8.15965347,6.17177083 8.91377888,5.41885417 10.0658003,5.41885417 C11.3116749,5.41885417 12.6580033,6.16520833 12.6580033,8.35354167 L12.6580033,12.7842708 Z M3.31023102,4.62208333 C2.59921617,4.62208333 2.02289604,4.075625 2.02289604,3.32770833 C2.02289604,2.57979167 2.59921617,2.03270833 3.31023102,2.03270833 C4.02114274,2.03270833 4.59746287,2.57979167 4.59746287,3.32770833 C4.59746287,4.075625 4.02114274,4.62208333 3.31023102,4.62208333 Z M2.19389439,12.77875 L4.42667079,12.77875 L4.42667079,5.61479167 L2.19389439,5.61479167 L2.19389439,12.77875 Z M13.7555693,0 L1.09632838,0 C0.490820957,0 -2.84217094e-14,0.495729167 -2.84217094e-14,1.10729167 L-2.84217094e-14,13.8927083 C-2.84217094e-14,14.5042708 0.490820957,15 1.09632838,15 L13.7555693,15 C14.3610767,15 14.8518977,14.5042708 14.8518977,13.8927083 L14.8518977,1.10729167 C14.8518977,0.495729167 14.3610767,0 13.7555693,0 Z"></path>
                            </g>
                        </g>
                    </g>
                </g>
            </g>
        </g>
    </g>
</svg>