<?xml version="1.0" encoding="UTF-8"?>
<svg width="26px" height="26px" viewBox="0 0 26 26" version="1.1" xmlns="http://www.w3.org/2000/svg" xmlns:xlink="http://www.w3.org/1999/xlink">
    <!-- Generator: Sketch 56.2 (81672) - https://sketch.com -->
    <title>np_login_344461_000000</title>
    <desc>Created with Sketch.</desc>
    <g id="Loop-#9-Copy" stroke="none" stroke-width="1" fill="none" fill-rule="evenodd">
        <g id="RALLIO---HP-#9" transform="translate(-1755.000000, -73.000000)" fill="#000000" fill-rule="nonzero">
            <g id="Group-2" transform="translate(1217.000000, 70.000000)">
                <g id="np_login_344461_000000" transform="translate(538.000000, 3.000000)">
                    <path d="M13.0741507,0 C7.56395864,0 2.85908419,3.47062857 1,8.35714286 L2.99870015,8.35714286 C3.54106352,7.16857143 4.29462334,6.07285714 5.24088626,5.12096 C7.33420975,3.01659429 10.1153323,1.85714286 13.0742688,1.85714286 C16.0332053,1.85714286 18.8154801,3.01668343 20.9088331,5.12096 C23.0010044,7.22532571 24.1537371,10.0238171 24.1537371,13 C24.1537371,15.9761829 23.0009158,18.7746743 20.9088331,20.87904 C18.8167504,22.9834057 16.034387,24.1428571 13.0742688,24.1428571 C10.1153323,24.1428571 7.33305761,22.9833166 5.24088626,20.87904 C4.29462334,19.9272617 3.54106352,18.8315474 2.99870015,17.6428571 L1,17.6428571 C2.85793205,22.5293714 7.56277696,26 13.0741507,26 C20.2127031,26 26,20.18016 26,13 C26,5.82102857 20.2127031,0 13.0741507,0 Z" id="Path"></path>
                    <polygon id="Path" points="10.3214933 16.7494627 11.6567111 18 17 13 11.6567111 8 10.3214933 9.25053733 13.3839111 12.1162048 0 12.1162048 0 13.8837387 13.3839111 13.8837387"></polygon>
                </g>
            </g>
        </g>
    </g>
</svg>