<?xml version="1.0" encoding="UTF-8"?>
<svg width="13px" height="20px" viewBox="0 0 13 20" version="1.1" xmlns="http://www.w3.org/2000/svg" xmlns:xlink="http://www.w3.org/1999/xlink">
    <!-- Generator: Sketch 56.2 (81672) - https://sketch.com -->
    <title>Shape</title>
    <desc>Created with Sketch.</desc>
    <g id="Loop-#9-Copy" stroke="none" stroke-width="1" fill="none" fill-rule="evenodd">
        <g id="RALLIO---HP-#9" transform="translate(-1046.000000, -6470.000000)" fill="#000000" fill-rule="nonzero">
            <g id="Group-7" transform="translate(0.000000, 5574.000000)">
                <g id="Group-35" transform="translate(0.000000, 713.000000)">
                    <g id="Group-10" transform="translate(589.000000, 182.000000)">
                        <g id="Group-14" transform="translate(457.000000, 0.000000)">
                            <g id="Group-12">
                                <g id="np_phone_1251949_000000" transform="translate(0.000000, 1.000000)">
                                    <path d="M11.4024,0.083594 L0.9978,0.083594 C0.55562,0.083594 0.19702,0.464054 0.19702,0.933594 L0.19702,19.065594 C0.19702,19.535134 0.55484,19.916374 0.9978,19.916374 L11.4018,19.916374 C11.84398,19.916374 12.20258,19.534334 12.20258,19.065594 L12.20258,0.934394 C12.20258,0.464854 11.84476,0.083594 11.40258,0.083594 L11.4024,0.083594 Z M6.1992,18.903994 C5.6578,18.903994 5.21952,18.439154 5.21952,17.863374 C5.21952,17.288374 5.6578,16.822754 6.1992,16.822754 C6.7406,16.822754 7.17966,17.289154 7.17966,17.863374 C7.17966,18.439154 6.7406,18.903994 6.1992,18.903994 L6.1992,18.903994 Z M10.886,15.613394 L1.5406,15.613394 L1.5406,1.500994 L10.886,1.500994 L10.886,15.613394 Z" id="Shape"></path>
                                </g>
                            </g>
                        </g>
                    </g>
                </g>
            </g>
        </g>
    </g>
</svg>