<?xml version="1.0" encoding="UTF-8"?>
<svg width="35px" height="34px" viewBox="0 0 35 34" version="1.1" xmlns="http://www.w3.org/2000/svg" xmlns:xlink="http://www.w3.org/1999/xlink">
    <!-- Generator: Sketch 56.2 (81672) - https://sketch.com -->
    <title>np_mouse-scroll_496866_000000</title>
    <desc>Created with Sketch.</desc>
    <g id="Loop-#9-Copy" stroke="none" stroke-width="1" fill="none" fill-rule="evenodd">
        <g id="RALLIO---HP-#9" transform="translate(-943.000000, -1038.000000)" fill="#244262" fill-rule="nonzero">
            <g id="HERO" transform="translate(-3.000000, 174.000000)">
                <g id="scroll-icon" transform="translate(923.000000, 843.000000)">
                    <g id="np_mouse-scroll_496866_000000" transform="translate(23.355556, 21.000000)">
                        <path d="M10.8792522,0 C4.92514663,0 0.1021261,4.8416 0.1021261,10.8181818 L0.1021261,23.1818182 C0.1021261,29.1586061 4.92535191,34 10.8792522,34 C16.8333578,34 21.6563783,29.1584 21.6563783,23.1818182 L21.6563783,10.8181818 C21.6563783,4.84139394 16.8331525,0 10.8792522,0 Z M19.0903959,23.1818182 C19.0903959,27.7155636 15.3957918,31.4242424 10.8792522,31.4242424 C6.36271261,31.4242424 2.6681085,27.7155636 2.6681085,23.1818182 L2.6681085,10.8181818 C2.6681085,6.28443636 6.36271261,2.57575758 10.8792522,2.57575758 C15.3957918,2.57575758 19.0903959,6.28443636 19.0903959,10.8181818 L19.0903959,23.1818182 Z" id="Shape"></path>
                        <path d="M10.8792522,6.902 C10.1615982,6.902 9.596261,7.46949091 9.596261,8.18987879 L9.596261,11.950897 C9.596261,12.6712848 10.1615982,13.2387758 10.8792522,13.2387758 C11.5969062,13.2387758 12.1622434,12.6712848 12.1622434,11.950897 L12.1622434,8.18987879 C12.1622434,7.52177879 11.5989076,6.902 10.8792522,6.902 L10.8792522,6.902 Z" id="Path"></path>
                        <path d="M32.9467009,23.1292727 L31.202654,24.8799636 L31.202654,7.21181212 C31.202654,6.79928909 30.8438167,6.43908485 30.4328592,6.43908485 C30.0219018,6.43908485 29.6630645,6.79928909 29.6630645,7.21181212 L29.6630645,24.9319939 L27.9190176,23.181303 C27.6102991,22.8714085 27.1492229,22.8714085 26.8404839,23.181303 C26.5317654,23.4911976 26.5317654,23.9540303 26.8404839,24.2639455 L29.9196628,27.3548545 C29.971783,27.4071733 30.074022,27.5098018 30.176261,27.5098018 C30.2785,27.5621206 30.380739,27.5621206 30.4328592,27.5621206 C30.4849795,27.5621206 30.6373372,27.5621206 30.6894575,27.5098018 C30.7916965,27.457483 30.8438167,27.4071733 30.9460557,27.3548545 L34.0252346,24.2639455 C34.3339531,23.9540509 34.3339531,23.4912182 34.0252346,23.181303 C33.7165161,22.8714085 33.2554399,22.8714085 32.9467009,23.1289842 L32.9467009,23.1292727 Z" id="Path"></path>
                    </g>
                </g>
            </g>
        </g>
    </g>
</svg>