<?xml version="1.0" encoding="UTF-8"?>
<svg width="19px" height="15px" viewBox="0 0 19 15" version="1.1" xmlns="http://www.w3.org/2000/svg" xmlns:xlink="http://www.w3.org/1999/xlink">
    <!-- Generator: Sketch 56.2 (81672) - https://sketch.com -->
    <title>twitter/black</title>
    <desc>Created with Sketch.</desc>
    <g id="Loop-#9-Copy" stroke="none" stroke-width="1" fill="none" fill-rule="evenodd">
        <g id="RALLIO---HP-#9" transform="translate(-1313.000000, -6475.000000)" fill="#14171A" fill-rule="nonzero">
            <g id="Group-7" transform="translate(0.000000, 5574.000000)">
                <g id="Group-35" transform="translate(0.000000, 713.000000)">
                    <g id="Group-10" transform="translate(589.000000, 182.000000)">
                        <g id="Group-29" transform="translate(634.000000, 6.000000)">
                            <g id="twitter/black" transform="translate(90.150000, 0.000000)">
                                <path d="M5.91865079,14.9411765 C13.0285714,14.9411765 16.9190476,9.19117647 16.9190476,4.21323529 C16.9190476,4.05147059 16.9190476,3.88970588 16.9115079,3.72794118 C17.6654762,3.19852941 18.3214286,2.52941176 18.8416667,1.77205882 C18.1480159,2.07352941 17.4015873,2.27205882 16.6174603,2.36764706 C17.4166667,1.90441176 18.027381,1.16176471 18.3214286,0.279411765 C17.575,0.713235294 16.7456349,1.02205882 15.8634921,1.19117647 C15.1547619,0.455882353 14.1519841,-2.13162821e-14 13.0436508,-2.13162821e-14 C10.9099206,-2.13162821e-14 9.17579365,1.69117647 9.17579365,3.77205882 C9.17579365,4.06617647 9.21349206,4.35294118 9.27380952,4.63235294 C6.06190476,4.47794118 3.21190476,2.97058824 1.30436508,0.691176471 C0.972619048,1.25 0.784126984,1.89705882 0.784126984,2.58823529 C0.784126984,3.89705882 1.4702381,5.05147059 2.5031746,5.72794118 C1.86984127,5.70588235 1.27420635,5.53676471 0.753968254,5.25735294 C0.753968254,5.27205882 0.753968254,5.28676471 0.753968254,5.30882353 C0.753968254,7.13235294 2.08849206,8.66176471 3.85277778,9.00735294 C3.52857143,9.09558824 3.18928571,9.13970588 2.83492063,9.13970588 C2.58611111,9.13970588 2.34484127,9.11764706 2.11111111,9.07352941 C2.60119048,10.5735294 4.03373016,11.6617647 5.72261905,11.6911765 C4.39563492,12.7058824 2.72936508,13.3088235 0.91984127,13.3088235 C0.610714286,13.3088235 0.301587302,13.2941176 -4.26325641e-14,13.2573529 C1.70396825,14.3161765 3.73968254,14.9411765 5.91865079,14.9411765"></path>
                            </g>
                        </g>
                    </g>
                </g>
            </g>
        </g>
    </g>
</svg>