<?xml version="1.0" standalone="no"?>
<!DOCTYPE svg PUBLIC "-//W3C//DTD SVG 1.1//EN" "http://www.w3.org/Graphics/SVG/1.1/DTD/svg11.dtd" >
<svg xmlns="http://www.w3.org/2000/svg" xmlns:xlink="http://www.w3.org/1999/xlink" version="1.1">
<metadata>
Created by FontForge 20170731 at Sat Jul 13 00:38:17 2019
 By Aleksey,,,
This typeface is licensed under the SIL open font license.
</metadata>
<defs>
<font id="Jost-BoldItalic" horiz-adv-x="598" >
  <font-face 
    font-family="Jost*"
    font-weight="700"
    font-style="italic"
    font-stretch="normal"
    units-per-em="1000"
    panose-1="0 0 0 0 0 0 0 0 0 0"
    ascent="800"
    descent="-200"
    x-height="460"
    cap-height="700"
    bbox="-219 -364 1762.92 1052"
    underline-thickness="50"
    underline-position="-175"
    slope="-10"
    unicode-range="U+0020-FF19"
  />
<missing-glyph horiz-adv-x="500" 
d="M50 -200h400v1000h-400v-1000zM100 -150v900h300v-900h-300z" />
    <glyph glyph-name=".notdef" horiz-adv-x="500" 
d="M50 -200h400v1000h-400v-1000zM100 -150v900h300v-900h-300z" />
    <glyph glyph-name=".null" horiz-adv-x="0" 
 />
    <glyph glyph-name="nonmarkingreturn" horiz-adv-x="333" 
 />
    <glyph glyph-name="space" unicode=" " horiz-adv-x="300" 
 />
    <glyph glyph-name="exclam" unicode="!" horiz-adv-x="333" 
d="M167 700h185l-111 -468h-123zM57 62q0 38 27 62.5t68 24.5t68 -24.5t27 -62.5t-27 -62.5t-68 -24.5t-68 24.5t-27 62.5z" />
    <glyph glyph-name="quotedbl" unicode="&#x22;" horiz-adv-x="502" 
d="M191 700h161l-152 -319h-102zM396 700h161l-152 -319h-101z" />
    <glyph glyph-name="numbersign" unicode="#" horiz-adv-x="648" 
d="M35 172l21 122h94l48 118h-81l19 122h112l67 166h134l-68 -166h101l67 166h135l-68 -166h64l-21 -122h-93l-48 -118h82l-21 -122h-111l-70 -172h-133l71 172h-102l-71 -172h-132l70 172h-66zM274 287h114l54 131h-115z" />
    <glyph glyph-name="dollar" unicode="$" horiz-adv-x="602" 
d="M497 489q-16 38 -39.5 66t-63.5 29q-35 1 -59.5 -17t-29.5 -46q-6 -31 15 -50t55 -32t65 -26q69 -28 111.5 -82t32.5 -135q-12 -86 -76 -138t-154 -64l-13 -106h-122l20 108q-71 15 -123 62t-76 110l127 83q25 -54 57.5 -89.5t87.5 -35.5q38 0 64.5 18t31.5 51
q5 29 -12.5 47.5t-47 32.5t-60.5 27q-39 17 -77.5 45.5t-61.5 71.5t-16 102q7 48 37.5 86.5t77 64t101.5 34.5l14 112h123l-22 -114q63 -14 103 -52t64 -90z" />
    <glyph glyph-name="percent" unicode="%" horiz-adv-x="893" 
d="M84 534q7 50 37.5 92t76 67.5t98.5 25.5t91 -26.5t56.5 -68.5t11.5 -91q-7 -50 -37.5 -91.5t-76 -66.5t-98.5 -25q-52 0 -90.5 26t-57 68t-11.5 90zM721 700h161l-644 -700h-159zM207 533q-3 -23 10.5 -43t41.5 -21q27 -1 48 20t25 46q3 23 -9.5 43.5t-41.5 21.5
q-27 1 -48.5 -20.5t-25.5 -46.5zM505 167q7 50 37.5 92t76 67t98.5 25t91 -26t56 -68t11 -91q-7 -50 -37.5 -92t-76 -67.5t-98.5 -25.5q-52 0 -90.5 26.5t-56.5 68.5t-11 91zM628 166q-3 -23 10.5 -43.5t39.5 -21.5q27 -1 49 19t26 47q3 23 -10.5 43.5t-39.5 21.5
q-27 1 -48.5 -19t-26.5 -47z" />
    <glyph glyph-name="ampersand" unicode="&#x26;" horiz-adv-x="730" 
d="M531 0l-41 56q-51 -32 -108.5 -51t-120.5 -18q-62 1 -113.5 25t-79 69t-19.5 107q7 56 37.5 93.5t73.5 62.5t86 43q-26 36 -44.5 73.5t-13.5 83.5q7 49 40 88t83.5 62t109.5 23q57 0 98.5 -23.5t62.5 -62t15 -84.5q-6 -44 -29.5 -76.5t-59.5 -59t-80 -52.5l96 -128
q26 26 50.5 54.5t46.5 55.5l92 -79q-26 -32 -55.5 -64.5t-62.5 -62.5l100 -135h-164zM331 533q-4 -24 7 -46.5t29 -46.5q35 19 61.5 42.5t30.5 51.5q2 22 -11.5 41t-42.5 20q-30 1 -49.5 -17.5t-24.5 -44.5zM293 116q33 -2 65 7.5t62 27.5l-110 150q-37 -17 -66.5 -39.5
t-35.5 -60.5q-6 -37 18 -60t67 -25z" />
    <glyph glyph-name="quotesingle" unicode="'" horiz-adv-x="297" 
d="M191 700h161l-152 -319h-102z" />
    <glyph glyph-name="parenleft" unicode="(" horiz-adv-x="330" 
d="M283 779h138q-65 -113 -112.5 -236t-68.5 -253q-19 -123 -11.5 -247t43.5 -243h-134q-42 118 -53 242t7 248q20 131 69 255t122 234z" />
    <glyph glyph-name="parenright" unicode=")" horiz-adv-x="330" 
d="M103 -199h-137q65 113 112 236t68 253q19 123 12 247.5t-43 242.5h134q42 -118 53 -242t-7 -248q-20 -130 -69 -254.5t-123 -234.5z" />
    <glyph glyph-name="asterisk" unicode="*" horiz-adv-x="574" 
d="M224 233l-101 85l139 123l-161 31l63 130l141 -76l4 174h141l-53 -170l161 73l21 -133l-173 -31l99 -127l-125 -82l-52 154z" />
    <glyph glyph-name="plus" unicode="+" horiz-adv-x="654" 
d="M68 196l25 146h188l34 199h156l-34 -199h188l-26 -146h-188l-34 -199h-155l34 199h-188z" />
    <glyph glyph-name="comma" unicode="," horiz-adv-x="313" 
d="M105 109l148 -34l-164 -247l-113 24z" />
    <glyph glyph-name="hyphen" unicode="-" horiz-adv-x="215" 
d="M6 172l22 132h210l-23 -132h-209z" />
    <glyph glyph-name="period" unicode="." horiz-adv-x="312" 
d="M50 68q0 38 27 65.5t68 27.5t67.5 -27.5t26.5 -65.5t-26.5 -65t-67.5 -27t-68 27t-27 65z" />
    <glyph glyph-name="slash" unicode="/" horiz-adv-x="590" 
d="M524 700h150l-561 -850l-154 1z" />
    <glyph glyph-name="zero" unicode="0" horiz-adv-x="643" 
d="M70 350q11 75 39 140.5t72.5 115.5t102.5 78.5t128 28.5q72 0 119.5 -30t74.5 -81t34.5 -116t-1.5 -136q-10 -75 -38 -141t-72 -115.5t-102 -78t-129 -28.5q-70 0 -118 30t-75 81t-35.5 116.5t0.5 135.5zM232 350q-4 -35 -4 -72.5t7.5 -70t26 -52.5t51.5 -21q45 -1 79 31
t56 82t29 103q4 35 4 72.5t-7.5 70t-26 52.5t-51.5 21q-45 1 -79 -31t-55.5 -82t-29.5 -103z" />
    <glyph glyph-name="one" unicode="1" horiz-adv-x="493" 
d="M121 495l26 151l343 68l-123 -714h-161l91 538z" />
    <glyph glyph-name="two" unicode="2" horiz-adv-x="637" 
d="M-1 0l352 323q40 38 74 74.5t41 82.5q5 33 -13.5 59.5t-60.5 27.5q-34 1 -59.5 -17t-41.5 -47t-23 -62h-165q13 74 52 136t103.5 99.5t151.5 37.5q75 0 130 -31t82 -82t18 -110q-8 -58 -42.5 -105t-81.5 -85l-179 -144l269 -1l-25 -156h-582z" />
    <glyph glyph-name="three" unicode="3" horiz-adv-x="603" 
d="M293 -16q-78 0 -132 32.5t-79.5 87t-20.5 119.5l164 -1q-2 -46 20 -73t67 -28q42 -1 75 22t39 65q7 33 -9.5 54t-47.5 32t-71 12l4 33v0l10 76q33 2 64.5 13t53 31.5t24.5 48.5q4 29 -11.5 48.5t-50.5 20.5q-40 1 -67 -24.5t-36 -58.5l-155 1q12 62 48.5 111.5t93 78
t128.5 28.5q68 0 119.5 -25t78.5 -68.5t18 -101.5q-9 -59 -49 -96t-97 -57q58 -21 91.5 -63t23.5 -111q-9 -64 -50.5 -110.5t-105.5 -71.5t-140 -25z" />
    <glyph glyph-name="four" unicode="4" horiz-adv-x="679" 
d="M4 125l493 574l128 1l-74 -431h108l-26 -145h-107l-21 -124h-174l21 124zM251 247h140l35 199z" />
    <glyph glyph-name="five" unicode="5" horiz-adv-x="626" 
d="M607 223q-7 -58 -36 -102t-72.5 -74t-95 -45t-104.5 -15q-85 0 -149 26t-114 65l82 139q35 -33 76 -53.5t84 -20.5q56 0 99.5 25t50.5 75q5 33 -10.5 54t-43 31.5t-58.5 10.5q-46 2 -98.5 -9.5t-103.5 -33.5l155 404h397l-23 -148h-271l-62 -124q56 24 120 24
q59 0 101.5 -31t63 -82.5t12.5 -115.5z" />
    <glyph glyph-name="six" unicode="6" horiz-adv-x="649" 
d="M410 696h218l-242 -231q26 8 58 8q57 0 100 -31t65 -82.5t15 -113.5q-10 -81 -55 -139.5t-113 -90.5t-146 -32q-77 0 -135.5 32.5t-87.5 91.5t-19 138q8 57 38.5 105.5t68.5 90.5zM233 246q-7 -46 17.5 -80.5t73.5 -35.5q34 0 63 15t48.5 41.5t24.5 59.5q7 47 -17.5 82
t-74.5 36q-33 1 -62 -15t-48.5 -43t-24.5 -60z" />
    <glyph glyph-name="seven" unicode="7" horiz-adv-x="585" 
d="M93 541l26 159h559l-437 -700h-184l348 541h-312z" />
    <glyph glyph-name="eight" unicode="8" horiz-adv-x="609" 
d="M55 190q9 69 55 114.5t107 68.5q-41 24 -64.5 64t-15.5 95q9 59 47 100t94 62.5t117 21.5q59 0 109 -22t77.5 -63.5t18.5 -100.5q-8 -58 -45 -99t-88 -63q49 -24 78.5 -68.5t20.5 -109.5q-9 -64 -52.5 -110t-105 -71t-128.5 -25q-48 0 -91.5 14t-76 41t-48.5 65t-9 86z
M291 514q-4 -30 11 -53.5t47 -24.5q35 -1 61 23.5t31 55.5t-11 54.5t-48 24.5q-36 1 -61 -23.5t-30 -56.5zM225 215q-6 -38 13 -64.5t57 -27.5q41 -1 72 26.5t38 67.5q5 34 -14.5 61t-56.5 28q-40 1 -71 -27t-38 -64z" />
    <glyph glyph-name="nine" unicode="9" horiz-adv-x="649" 
d="M315 3h-217l239 232q-24 -8 -56 -8q-57 1 -100.5 31.5t-65.5 82t-15 113.5q10 81 55 140t113 90.5t146 31.5q77 0 135.5 -32.5t88 -91t19.5 -138.5q-8 -57 -39 -105.5t-69 -90.5zM492 454q7 47 -18 81t-74 35q-50 1 -88.5 -32.5t-46.5 -83.5q-7 -46 18 -81.5t74 -36.5
q34 0 62.5 15.5t48 42.5t24.5 60z" />
    <glyph glyph-name="colon" unicode=":" horiz-adv-x="312" 
d="M110 442q0 38 27 65.5t68 27.5t67.5 -27.5t26.5 -65.5t-26.5 -65.5t-67.5 -27.5t-68 27.5t-27 65.5zM47 68q0 38 26.5 65.5t67.5 27.5t68 -27.5t27 -65.5t-27 -65t-68 -27t-67.5 27t-26.5 65z" />
    <glyph glyph-name="semicolon" unicode=";" horiz-adv-x="381" 
d="M160 436q0 38 27 65t68 27t67.5 -27t26.5 -65t-26.5 -66t-67.5 -28t-68 28t-27 66zM127 109l147 -34l-164 -247l-113 24z" />
    <glyph glyph-name="less" unicode="&#x3c;" horiz-adv-x="621" 
d="M292 264l266 -120l-26 -144l-460 215l17 101l536 215l-28 -156z" />
    <glyph glyph-name="equal" unicode="=" horiz-adv-x="607" 
d="M75 290l23 132h503l-23 -132h-503zM40 83l23 132h502l-23 -132h-502z" />
    <glyph glyph-name="greater" unicode="&#x3e;" horiz-adv-x="621" 
d="M365 264l-265 120l24 143l461 -214l-17 -101l-535 -215l27 155z" />
    <glyph glyph-name="question" unicode="?" horiz-adv-x="608" 
d="M466 500q7 41 -17.5 65t-71.5 25q-48 1 -92.5 -24t-76.5 -62l-90 87q58 57 126.5 93t154.5 35q64 0 117 -27.5t82 -76.5t19 -115q-9 -61 -46 -105t-88.5 -71t-107.5 -39l-20 -83h-124l10 178h30q49 1 91 17.5t69.5 43.5t34.5 59zM172 60q0 35 27 58.5t67 23.5t66 -24
t26 -58t-26 -59t-66 -25t-67 25t-27 59z" />
    <glyph glyph-name="at" unicode="@" horiz-adv-x="747" 
d="M44 320q12 81 51.5 154t99.5 129t136.5 88t162.5 32q76 0 132 -29t91.5 -76.5t49 -106.5t3.5 -121q-8 -72 -40.5 -128t-81 -87.5t-104.5 -30.5q-43 1 -66 24.5t-27 59.5q-25 -34 -58.5 -54t-71.5 -20q-43 0 -67.5 22.5t-33.5 58.5t-4 78q7 58 34.5 107.5t69 80t87.5 29.5
q31 -1 52 -17t32 -41l13 48h114l-62 -212q-1 -6 -3 -13t-3 -14q-1 -13 1 -25t15 -14q19 -5 39.5 16.5t36 57.5t18.5 74q10 59 -4.5 111.5t-56 86.5t-113.5 34q-87 1 -156.5 -40.5t-115 -110t-59.5 -151.5q-11 -69 5.5 -124t63 -87.5t123.5 -33.5q52 -1 98 11.5t91 31.5
l24 -91q-50 -25 -107 -39t-125 -14q-106 1 -174 48.5t-96 125.5t-14 172zM335 320q-3 -24 2.5 -44.5t26.5 -22.5q20 -3 40.5 14.5t35 44.5t17.5 52q2 26 -4 45.5t-27 21.5q-21 3 -41 -15t-33.5 -45t-16.5 -51z" />
    <glyph glyph-name="A" unicode="A" horiz-adv-x="713" 
d="M502 0l-39 134h-215l-86 -134h-194l488 747l232 -747h-186zM405 441l-104 -178h150z" />
    <glyph glyph-name="B" unicode="B" horiz-adv-x="645" 
d="M611 196q-10 -70 -51.5 -113t-104.5 -63t-138 -20h-274l120 700h247q62 0 115 -19.5t82.5 -59t20.5 -100.5q-8 -54 -43 -91t-85 -57q54 -21 87 -65t24 -112zM378 568h-69l-25 -146h61q39 0 69 19.5t36 55.5q6 35 -14.5 53t-57.5 18zM233 132h78q46 1 85 21t46 68
q7 44 -21.5 62.5t-71.5 19.5h-86z" />
    <glyph glyph-name="C" unicode="C" horiz-adv-x="679" 
d="M247 350q-9 -56 8.5 -102t57 -73.5t96.5 -28.5q70 -1 124 27.5t97 64.5l-27 -184q-46 -31 -99.5 -50.5t-121.5 -19.5q-81 0 -145 28.5t-106.5 78.5t-60 116.5t-6.5 142.5q12 79 49.5 146t95.5 116t131 76.5t156 27.5q66 0 114.5 -18.5t90.5 -52.5l-28 -184q-31 41 -76 67
t-109 26q-58 0 -109 -26t-86 -72t-46 -106z" />
    <glyph glyph-name="D" unicode="D" horiz-adv-x="710" 
d="M293 0h-249l118 700h241q108 0 183 -45t109.5 -124t18.5 -181q-16 -105 -74 -183.5t-147 -122.5t-200 -44zM380 548h-69l-68 -396h60q58 0 107.5 22t84 66t45.5 110q15 95 -30 146.5t-130 51.5z" />
    <glyph glyph-name="E" unicode="E" horiz-adv-x="584" 
d="M162 700h457l-25 -140h-293l-22 -124h275l-24 -137h-274l-28 -159h295l-25 -140h-454z" />
    <glyph glyph-name="F" unicode="F" horiz-adv-x="536" 
d="M162 700h418l-26 -147h-254l-24 -136h246l-24 -137h-246l-48 -280h-160z" />
    <glyph glyph-name="G" unicode="G" horiz-adv-x="790" 
d="M422 253l24 130h344q-9 -81 -40 -154t-82.5 -129.5t-123 -89.5t-162.5 -33q-81 0 -145 29t-106.5 80.5t-60 119t-6.5 144.5q12 80 51 147t97.5 116t132.5 76t156 27q101 0 171.5 -45t113.5 -122l-158 -77q-19 42 -53 68.5t-89 26.5q-60 0 -112.5 -28t-87.5 -77t-46 -112
q-9 -59 5.5 -110.5t53.5 -82.5t101 -31q74 0 121.5 36t75.5 91h-175z" />
    <glyph glyph-name="H" unicode="H" horiz-adv-x="763" 
d="M162 700h169l-44 -255h288l43 255h170l-121 -700h-167l49 293h-288l-50 -293h-167z" />
    <glyph glyph-name="I" unicode="I" horiz-adv-x="311" 
d="M162 700h172l-120 -700h-170z" />
    <glyph glyph-name="J" unicode="J" horiz-adv-x="320" 
d="M-112 -64q14 -13 33 -23t40 -9q28 1 51 22.5t28 58.5l123 715h182l-128 -754q-10 -63 -47 -104t-91 -61t-117 -20q-53 0 -99.5 17.5t-81.5 40.5z" />
    <glyph glyph-name="K" unicode="K" horiz-adv-x="680" 
d="M162 700h176l-46 -269l269 269h204l-337 -332l225 -368h-197l-186 307l-53 -307h-173z" />
    <glyph glyph-name="L" unicode="L" horiz-adv-x="513" 
d="M163 700h168l-95 -553h273l-25 -147h-441z" />
    <glyph glyph-name="M" unicode="M" horiz-adv-x="865" 
d="M284 354l-102 -354h-179l237 735l216 -424l368 429l-17 -740h-177l20 348l-231 -284z" />
    <glyph glyph-name="N" unicode="N" horiz-adv-x="769" 
d="M631 700h162l-125 -734l-395 427l-68 -393h-162l125 734l395 -427z" />
    <glyph glyph-name="O" unicode="O" horiz-adv-x="796" 
d="M64 350q12 78 49 144.5t94 116.5t129 77.5t152 27.5q79 0 141.5 -28.5t104 -79t59 -117t6.5 -141.5q-12 -78 -49 -146t-94 -119t-129 -79.5t-154 -28.5q-80 0 -142.5 29.5t-103.5 81.5t-57.5 119.5t-5.5 142.5zM241 350q-8 -53 5 -101t49 -77.5t95 -30.5q60 0 108.5 28
t80.5 76t42 105q9 54 -4 101.5t-49 77.5t-96 30q-59 1 -108 -27.5t-81 -76t-42 -105.5z" />
    <glyph glyph-name="P" unicode="P" horiz-adv-x="605" 
d="M162 700h233q119 -1 182 -61.5t51 -167.5q-8 -72 -48.5 -123t-105.5 -78t-147 -28h-75l-41 -242h-167zM380 560h-73l-31 -178h65q47 1 82 23.5t43 65.5q8 41 -16.5 65t-69.5 24z" />
    <glyph glyph-name="Q" unicode="Q" horiz-adv-x="838" 
d="M64 350q12 78 49.5 144.5t95.5 116.5t130.5 77.5t152.5 27.5q79 0 141 -28.5t102.5 -79.5t57.5 -117t6 -141q-10 -65 -37 -123t-68 -105l119 -135h-172l-45 52q-48 -29 -103.5 -45.5t-116.5 -16.5q-80 0 -143 29.5t-104.5 81.5t-58.5 119.5t-6 142.5zM241 350
q-9 -58 7.5 -108.5t56 -81.5t99.5 -32q52 0 98 21l-129 151h165l59 -67q30 44 39 98q10 56 -4 108t-53 86t-104 34q-59 1 -108.5 -27.5t-82.5 -76t-43 -105.5z" />
    <glyph glyph-name="R" unicode="R" horiz-adv-x="628" 
d="M162 700h246q79 0 134 -28.5t81 -80t17 -120.5q-10 -75 -56 -128.5t-118 -79.5l131 -263h-191l-104 242h-50l-41 -242h-167zM380 555h-74l-31 -181h65q47 0 82 24t43 67q8 41 -16 65.5t-69 24.5z" />
    <glyph glyph-name="S" unicode="S" horiz-adv-x="607" 
d="M162 251q24 -54 55.5 -89.5t86.5 -35.5q37 0 63.5 17.5t33.5 50.5q6 30 -11 48.5t-46 32t-60 26.5q-39 18 -77 45.5t-60 69.5t-15 102q10 61 49.5 105.5t99 68.5t127.5 24q61 0 104.5 -21t73 -55.5t45.5 -77.5l-135 -73q-17 35 -42 58.5t-64 23.5q-32 0 -57 -16.5
t-30 -42.5q-4 -19 7.5 -34t33 -26.5t46.5 -20.5t47 -18q71 -28 111.5 -82t29.5 -135q-10 -70 -51.5 -118.5t-103.5 -74.5t-133 -26q-62 0 -114 24.5t-89 68t-54 98.5z" />
    <glyph glyph-name="T" unicode="T" horiz-adv-x="545" 
d="M68 547l27 153h542l-26 -153h-187l-94 -547h-168l94 547h-188z" />
    <glyph glyph-name="U" unicode="U" horiz-adv-x="680" 
d="M159 700h168l-80 -457q-4 -31 2.5 -58t26 -43.5t55.5 -17.5q57 -1 89.5 34.5t41.5 84.5l80 457h168l-80 -470q-13 -81 -56.5 -139t-109.5 -89t-149 -31q-78 0 -135 31t-84.5 89.5t-16.5 138.5z" />
    <glyph glyph-name="V" unicode="V" horiz-adv-x="713" 
d="M382 287l228 413h199l-475 -747l-244 747h192z" />
    <glyph glyph-name="W" unicode="W" horiz-adv-x="1034" 
d="M734 289l189 411h202l-411 -743l-154 419l-285 -420l-181 744h197l61 -409l261 446z" />
    <glyph glyph-name="X" unicode="X" horiz-adv-x="666" 
d="M533 700h211l-270 -345l172 -355h-203l-87 229l-162 -229h-211l293 362l-157 338h203l73 -200z" />
    <glyph glyph-name="Y" unicode="Y" horiz-adv-x="641" 
d="M542 700h197l-311 -419l-48 -281h-171l50 288l-167 412h189l86 -259z" />
    <glyph glyph-name="Z" unicode="Z" horiz-adv-x="602" 
d="M120 547l27 153h538l-414 -553h284l-27 -147h-550l410 546z" />
    <glyph glyph-name="bracketleft" unicode="[" horiz-adv-x="352" 
d="M320 648l-114 -736h98l-21 -132h-248l155 1000h248l-21 -132h-97z" />
    <glyph glyph-name="backslash" unicode="\" horiz-adv-x="529" 
d="M107 700h143l238 -700h-142z" />
    <glyph glyph-name="bracketright" unicode="]" horiz-adv-x="352" 
d="M86 -88l113 736h-99l22 132h247l-154 -1000h-248l21 132h98z" />
    <glyph glyph-name="asciicircum" unicode="^" horiz-adv-x="494" 
d="M322 577l-98 -129h-140l210 262h90l120 -263h-130z" />
    <glyph glyph-name="underscore" unicode="_" horiz-adv-x="515" 
d="M-55 -153l17 95h519l-17 -95h-519z" />
    <glyph glyph-name="grave" unicode="`" horiz-adv-x="363" 
d="M135 656l118 51l123 -163l-86 -40z" />
    <glyph glyph-name="a" unicode="a" 
d="M42 230q9 69 45 123.5t89.5 85.5t114.5 31q53 0 88.5 -26t53.5 -68l14 84h150l-79 -460h-149l12 69q-31 -36 -72 -57.5t-90 -21.5q-61 0 -104 32.5t-62 87t-11 120.5zM199 230q-7 -45 14.5 -80.5t67.5 -36.5q29 0 55.5 15.5t45.5 42.5t24 59q7 45 -15 80.5t-63 36.5
q-31 1 -58.5 -15t-46 -43t-24.5 -59z" />
    <glyph glyph-name="b" unicode="b" 
d="M582 230q-9 -68 -45 -122.5t-89.5 -86t-115.5 -31.5q-52 0 -87 25.5t-53 65.5l-14 -81h-151l133 780h152l-67 -387q31 35 71.5 56t88.5 21q62 0 104.5 -32.5t62 -87t10.5 -120.5zM425 230q7 45 -15 80.5t-68 36.5q-28 1 -54.5 -15t-45 -42.5t-24.5 -59.5q-7 -45 14.5 -80
t62.5 -37q31 -1 58.5 15t47 43t24.5 59z" />
    <glyph glyph-name="c" unicode="c" horiz-adv-x="478" 
d="M200 230q-7 -49 20.5 -82.5t76.5 -35.5q42 -1 80 19t64 48l-20 -148q-29 -19 -65 -30t-82 -11q-72 0 -127 31t-82.5 85.5t-18.5 123.5q10 71 51 125t104.5 84.5t137.5 30.5q44 0 78 -11t62 -29l-19 -149q-19 32 -50.5 49.5t-68.5 17.5q-53 0 -93 -34t-48 -84z" />
    <glyph glyph-name="d" unicode="d" 
d="M42 230q9 69 45 123.5t89.5 85.5t114.5 31q52 0 87 -25.5t54 -65.5l68 401h152l-134 -780h-151l11 66q-30 -35 -70.5 -55.5t-88.5 -20.5q-61 0 -104 32.5t-62 87t-11 120.5zM199 230q-7 -45 14.5 -80.5t67.5 -36.5q29 0 55.5 15.5t45.5 42.5t24 59q7 45 -15 80.5
t-63 36.5q-31 1 -58.5 -15t-46 -43t-24.5 -59z" />
    <glyph glyph-name="e" unicode="e" horiz-adv-x="556" 
d="M529 125q-43 -60 -105.5 -98t-152.5 -37q-77 1 -130 32t-77.5 85.5t-15.5 122.5q2 13 4.5 25t6.5 24q27 86 99.5 138.5t175.5 52.5q75 0 125 -29.5t72 -82t14 -121.5q-2 -18 -6 -40h-342q1 -42 20.5 -68t59.5 -28q38 -1 68 16t51 42zM322 368q-40 1 -68 -24.5t-41 -62.5
h180q0 35 -16 60.5t-55 26.5z" />
    <glyph glyph-name="f" unicode="f" horiz-adv-x="334" 
d="M68 460h54l29 170q13 73 63.5 120t132.5 46q44 0 72 -16t48 -36l-75 -110q-8 11 -18 18.5t-23 7.5q-25 0 -40.5 -20.5t-19.5 -48.5l-23 -131h109l-22 -126h-108l-58 -334h-145l57 334h-56z" />
    <glyph glyph-name="g" unicode="g" horiz-adv-x="592" 
d="M6 -33l143 -1q2 -39 22 -60.5t62 -22.5q52 -1 89.5 35.5t45.5 91.5l11 65q-30 -33 -70 -52.5t-88 -19.5q-61 0 -104 31t-63 84t-12 119q9 69 45 121.5t89.5 82.5t114.5 29q52 0 87 -24t54 -63l13 77h146l-77 -450q-19 -118 -95.5 -183.5t-188.5 -65.5q-114 0 -169.5 56
t-54.5 150zM200 236q-7 -45 15.5 -77t67.5 -33q40 -1 76.5 28.5t46.5 74.5l1 11q6 45 -16 75.5t-63 31.5q-49 1 -84.5 -31.5t-43.5 -79.5z" />
    <glyph glyph-name="h" unicode="h" horiz-adv-x="551" 
d="M368 280q4 32 -4 56.5t-43 26.5t-59 -22.5t-33 -56.5l-49 -284h-152l134 780h152l-65 -376q24 33 59 53t83 20q56 0 86.5 -22.5t40 -62t2.5 -89.5l-51 -303h-151z" />
    <glyph glyph-name="i" unicode="i" horiz-adv-x="267" 
d="M126 632q0 36 26 59t63 23t63 -23t26 -59t-26 -59t-63 -23t-63 23t-26 59zM112 460h147l-79 -460h-146z" />
    <glyph glyph-name="j" unicode="j" horiz-adv-x="263" 
d="M123 632q0 36 25.5 59t62.5 23t63 -23t26 -59t-26 -59t-63 -23t-62.5 23t-25.5 59zM-76 -77q8 -11 19 -18.5t24 -7.5q24 -1 38.5 20.5t18.5 48.5l85 494h146l-91 -533q-13 -73 -62 -120t-131 -46q-43 0 -72.5 16.5t-50.5 35.5z" />
    <glyph glyph-name="k" unicode="k" horiz-adv-x="561" 
d="M407 460h186l-230 -195l164 -265h-170l-145 236l-40 -236h-145l133 780h146l-82 -476z" />
    <glyph glyph-name="l" unicode="l" horiz-adv-x="262" 
d="M162 780h152l-134 -780h-151z" />
    <glyph glyph-name="m" unicode="m" horiz-adv-x="796" 
d="M343 280q3 30 -2 55.5t-37 27.5q-29 3 -49.5 -18.5t-29.5 -50.5l-51 -294h-146l80 460h145l-11 -61q24 31 57.5 51t78.5 20q52 0 79 -21t35 -58q28 35 67.5 57t88.5 22q54 0 81 -23.5t34 -62.5t1 -88l-50 -296h-152l50 280q3 30 -2 55.5t-37 27.5q-32 3 -53.5 -23.5
t-28.5 -58.5h-1l-47 -281h-151z" />
    <glyph glyph-name="n" unicode="n" horiz-adv-x="557" 
d="M368 280q4 32 -4 56.5t-43 26.5t-59 -22.5t-33 -56.5l-49 -284h-152l80 460h151l-11 -62q24 32 59 52t83 20q83 0 115 -49.5t21 -124.5l-51 -296h-157z" />
    <glyph glyph-name="o" unicode="o" horiz-adv-x="571" 
d="M48 230q9 71 50 125t103.5 84.5t135.5 30.5q72 0 126 -31t81 -85.5t18 -123.5q-9 -70 -50.5 -124.5t-104 -85t-135.5 -30.5q-71 0 -125 31.5t-81 85.5t-18 123zM202 230q-7 -45 15 -79t67 -35q31 0 57 15t44 41.5t23 57.5q7 45 -15 79t-67 35q-30 1 -56.5 -14.5
t-44.5 -41.5t-23 -58z" />
    <glyph glyph-name="p" unicode="p" 
d="M141 -220h-152l117 680h151l-11 -66q29 37 69 59.5t90 22.5q62 0 104.5 -33.5t62 -89t10.5 -123.5q-9 -70 -45 -126t-89.5 -88t-115.5 -32q-56 0 -90 27.5t-49 71.5zM425 230q7 45 -15.5 77.5t-67.5 33.5q-28 1 -54.5 -13.5t-45.5 -39.5t-24 -58q-7 -46 15 -77.5
t63 -33.5q31 -1 58.5 13.5t46.5 40.5t24 57z" />
    <glyph glyph-name="q" unicode="q" 
d="M42 230q10 71 45.5 126.5t89 88t115.5 31.5q55 0 89 -27.5t50 -70.5l14 82h152l-117 -680h-151l49 286q-29 -37 -69.5 -59.5t-90.5 -22.5q-62 0 -104.5 33.5t-61 89.5t-10.5 123zM199 230q-7 -45 15.5 -77.5t67.5 -33.5q40 -1 76 28t46 74l3 14q5 44 -17 74.5t-62 31.5
q-31 1 -58.5 -13.5t-46.5 -40t-24 -57.5z" />
    <glyph glyph-name="r" unicode="r" horiz-adv-x="402" 
d="M363 303q-11 11 -23 18t-29 7q-33 1 -57.5 -23.5t-34.5 -58.5l-42 -246h-149l80 460h148l-11 -63q25 33 57 53.5t66 20.5q25 0 45 -11.5t34 -28.5z" />
    <glyph glyph-name="s" unicode="s" horiz-adv-x="442" 
d="M85 175q40 -38 74.5 -60t64.5 -21q17 0 33 10t18 26q3 19 -10 30.5t-33 19.5t-39 15q-31 13 -57.5 31t-41 45.5t-9.5 67.5q6 43 32.5 72t66.5 44t86 15q56 0 102 -20t84 -49l-66 -98q-23 25 -53 43t-60 18q-19 0 -36 -7.5t-19 -22.5q-3 -18 13 -29.5t40 -19t44 -15.5
q47 -19 79.5 -52t26.5 -89q-8 -75 -60 -111.5t-129 -36.5q-69 0 -124 27t-100 68z" />
    <glyph glyph-name="t" unicode="t" horiz-adv-x="309" 
d="M56 460h78l27 160h145l-28 -160h81l-23 -126h-79l-58 -334h-144l57 334h-79z" />
    <glyph glyph-name="u" unicode="u" horiz-adv-x="557" 
d="M215 180q-3 -32 4.5 -56.5t42.5 -26.5t59 22.5t33 56.5l49 284h151l-79 -460h-151l11 63q-24 -33 -59 -53t-83 -20q-82 0 -113.5 49t-22.5 125l51 296h157z" />
    <glyph glyph-name="v" unicode="v" horiz-adv-x="511" 
d="M51 460h159l61 -251l140 251h162l-341 -516z" />
    <glyph glyph-name="w" unicode="w" horiz-adv-x="739" 
d="M45 460h153l52 -231l175 268l83 -269l133 232h162l-318 -491l-100 272l-193 -272z" />
    <glyph glyph-name="x" unicode="x" horiz-adv-x="517" 
d="M395 460h171l-209 -227l143 -233h-162l-74 135l-108 -135h-177l221 244l-135 216h167l63 -119z" />
    <glyph glyph-name="y" unicode="y" horiz-adv-x="506" 
d="M571 460l-408 -680h-155l157 261l-122 419h160l60 -269l150 269h158z" />
    <glyph glyph-name="z" unicode="z" horiz-adv-x="507" 
d="M272 322h-190l24 138h443l-278 -322h189l-24 -138h-453z" />
    <glyph glyph-name="braceleft" unicode="{" horiz-adv-x="386" 
d="M338 609l-19 -119q-8 -43 -20.5 -83.5t-37 -72t-68.5 -45.5q40 -16 55 -48t14.5 -72t-6.5 -79l-19 -120q-3 -20 6.5 -34.5t31.5 -14.5h36l-18 -121h-87q-40 1 -74 17t-52 47t-12 76l29 185q5 47 -3 71t-40 39l16 110q35 13 52 37.5t24 73.5l29 184q7 46 32.5 77t63 47
t79.5 16h94l-18 -120h-33q-23 0 -37 -14.5t-18 -36.5z" />
    <glyph glyph-name="bar" unicode="|" horiz-adv-x="342" 
d="M200 785h151l-154 -1000h-151z" />
    <glyph glyph-name="braceright" unicode="}" horiz-adv-x="386" 
d="M109 -29l18 119q8 43 20.5 83.5t37 72t68.5 45.5q-40 16 -55 48t-14.5 72t6.5 79l19 120q3 20 -6.5 34.5t-31.5 14.5h-35l17 121h87q41 0 74.5 -16.5t51.5 -47.5t12 -76l-29 -185q-5 -47 3 -71t40 -39l-16 -110q-34 -13 -51.5 -37.5t-24.5 -73.5l-28 -184
q-7 -46 -32.5 -77t-63 -46.5t-79.5 -16.5h-95l18 120h33q23 0 37.5 14.5t18.5 36.5z" />
    <glyph glyph-name="asciitilde" unicode="~" horiz-adv-x="558" 
d="M162 163l-118 5q-2 13 0 25q3 26 13.5 50t29.5 45q23 26 56 42t77 16q32 0 59 -13.5t56 -35.5q17 -12 32 -23t30 -11q16 0 26.5 12.5t13.5 26.5q2 8 1.5 17.5t-2.5 16.5l119 -5q1 -7 1.5 -14t-0.5 -15q-3 -25 -13 -50t-28 -46q-22 -25 -50 -39t-66 -14q-30 0 -57 14.5
t-57 35.5q-19 14 -36.5 24.5t-36.5 9.5q-21 -1 -34 -14.5t-17 -30.5q-1 -8 -0.5 -15t1.5 -14z" />
    <glyph glyph-name="uni00A0" unicode="&#xa0;" horiz-adv-x="300" 
 />
    <glyph glyph-name="exclamdown" unicode="&#xa1;" horiz-adv-x="333" 
d="M303 408q-4 -36 -35.5 -61t-69.5 -24q-39 1 -62 25.5t-19 61.5q5 36 35.5 61t68.5 24q39 -1 63 -25.5t19 -61.5zM193 -229h-186l112 468h123z" />
    <glyph glyph-name="cent" unicode="&#xa2;" horiz-adv-x="562" 
d="M213 230q-7 -50 19 -83t75 -35q44 -1 81 20.5t64 47.5l-22 -150q-50 -32 -117 -39l-12 -103h-130l27 114q-72 24 -111.5 84.5t-27.5 143.5q13 87 73 148.5t145 82.5l13 117h130l-27 -111q30 -3 55.5 -13t46.5 -24l-23 -151q-18 30 -46 49.5t-70 19.5q-33 0 -63.5 -15.5
t-52 -42t-27.5 -60.5z" />
    <glyph glyph-name="sterling" unicode="&#xa3;" horiz-adv-x="592" 
d="M100 370h89q-10 23 -22.5 45.5t-20.5 48.5t-4 58q8 60 47.5 102t97 64.5t119.5 21.5q67 0 114.5 -27.5t72.5 -71.5t24 -94l-141 -50q1 26 -4 50.5t-21.5 41t-50.5 16.5q-37 1 -67 -21t-37 -60q-7 -35 5.5 -64t26.5 -60h143l-19 -100h-105q-5 -37 -25.5 -70t-49.5 -60h250
l-25 -140h-475q65 67 114 130.5t66 139.5h-120z" />
    <glyph glyph-name="currency" unicode="&#xa4;" horiz-adv-x="559" 
d="M65 34l-53 68l79 66q-29 60 -19 132q6 39 22 75t41 65l-55 65l70 61l52 -66q30 19 65 29.5t73 10.5q37 0 68.5 -11t56.5 -30l79 67l53 -65l-79 -69q29 -60 19 -132q-6 -39 -22 -75t-41 -66l52 -66l-66 -58l-55 64q-30 -18 -65 -28.5t-72 -10.5q-38 0 -69.5 11t-56.5 31z
M207 300q-6 -40 14 -70t63 -31q44 -1 77 29t40 72q6 40 -13.5 70t-62.5 31t-77 -29t-41 -72z" />
    <glyph glyph-name="yen" unicode="&#xa5;" horiz-adv-x="649" 
d="M35 115l18 100h197l9 50h-199l18 100h154l-136 335h188l86 -259l176 259h197l-250 -335h148l-18 -100h-194l-9 -50h195l-18 -100h-193l-20 -115h-172l20 115h-197z" />
    <glyph glyph-name="brokenbar" unicode="&#xa6;" horiz-adv-x="342" 
d="M188 695h151l-45 -265h-153zM267 270l-46 -265h-152l46 265h152z" />
    <glyph glyph-name="section" unicode="&#xa7;" horiz-adv-x="561" 
d="M123 173q29 -32 64.5 -51.5t69.5 -18.5q23 0 41.5 9.5t21.5 25.5t-10 26t-33 17t-39 13q-34 11 -65 29.5t-49 46t-13 65.5q7 47 39 76.5t76 45.5q-29 20 -47 49.5t-12 72.5q7 47 38 79t75 48.5t89 16.5q56 0 102.5 -20.5t71.5 -55.5l-83 -98q-19 21 -43.5 34.5
t-50.5 13.5q-19 0 -37.5 -7.5t-20.5 -21.5q-2 -13 12 -21.5t35 -14.5t39 -12q52 -16 85.5 -53t26.5 -90q-7 -45 -34 -74.5t-66 -45.5q31 -22 49 -53.5t13 -73.5q-7 -51 -40 -85t-80 -51t-96 -17q-73 0 -126 27.5t-87 71.5zM257 369q-4 -22 6.5 -36t28.5 -23.5t38 -16.5
q13 9 23 21.5t13 29.5q6 31 -16.5 48t-51.5 29q-15 -9 -26.5 -21.5t-14.5 -30.5z" />
    <glyph glyph-name="dieresis" unicode="&#xa8;" horiz-adv-x="496" 
d="M361 632q4 34 33.5 58t63.5 23q35 -1 58.5 -24.5t18.5 -58.5q-4 -34 -33 -57.5t-64 -22.5t-58 24.5t-19 57.5zM124 632q4 34 33.5 58t63.5 23q35 -1 58.5 -24.5t18.5 -58.5q-4 -34 -33 -57.5t-64 -22.5t-58 24.5t-19 57.5z" />
    <glyph glyph-name="copyright" unicode="&#xa9;" horiz-adv-x="776" 
d="M74 350q10 75 45 140.5t89 114.5t122.5 77t144.5 28q75 0 135 -28.5t100 -79t57 -115.5t8 -137q-10 -75 -45 -140.5t-89 -114.5t-122 -77t-145 -28q-75 0 -135 28.5t-100 79t-57 115.5t-8 137zM130 350q-9 -60 3.5 -115.5t44.5 -99.5t81.5 -69.5t113.5 -25.5
q66 0 124.5 24t105 67t77 99.5t40.5 119.5q9 60 -3.5 115.5t-44.5 99.5t-81.5 69.5t-113.5 25.5q-65 0 -123.5 -24t-105.5 -67t-77.5 -99.5t-40.5 -119.5zM319 350q-7 -52 19.5 -86t78.5 -35q41 -1 74.5 16t58.5 38l-15 -111q-28 -19 -59 -30t-72 -11q-64 0 -111 29t-70 79
t-15 111q8 63 44 112.5t91.5 78t120.5 28.5q41 0 69.5 -11t54.5 -31l-14 -110q-19 23 -46.5 39t-65.5 16q-52 0 -93.5 -34.5t-49.5 -87.5z" />
    <glyph glyph-name="ordfeminine" unicode="&#xaa;" horiz-adv-x="261" 
d="M144 624l-17 56q22 9 48 17t55 8q41 0 69.5 -18.5t25.5 -56.5l-28 -170h-73l6 35q-12 -18 -31.5 -29t-45.5 -10q-34 1 -55.5 20.5t-17.5 52.5q5 35 37 54.5t70 19.5q18 0 33.5 -4t27.5 -11l4 23q-1 14 -8 23t-24 10q-22 2 -42.5 -6t-33.5 -14zM156 529q-1 -10 6 -16.5
t19 -7.5q21 0 37.5 13t22.5 34q-8 5 -17 7.5t-21 2.5q-16 0 -30.5 -9.5t-16.5 -23.5zM241 552v0v0v0z" />
    <glyph glyph-name="guillemotleft" unicode="&#xab;" horiz-adv-x="524" 
d="M359 256l113 -194l-100 -62l-131 260l213 249l84 -68zM161 256l113 -194l-100 -62l-131 260l212 249l85 -68z" />
    <glyph glyph-name="logicalnot" unicode="&#xac;" horiz-adv-x="631" 
d="M83 272l21 132h509l-41 -229h-105l19 97h-403z" />
    <glyph glyph-name="uni00AD" unicode="&#xad;" horiz-adv-x="203" 
d="M12 200l12 75h197l-12 -75h-197z" />
    <glyph glyph-name="registered" unicode="&#xae;" horiz-adv-x="776" 
d="M74 350q10 75 45 140.5t89 114.5t122.5 77t144.5 28q75 0 135 -28.5t100 -79t57 -115.5t8 -137q-10 -75 -45 -140.5t-89 -114.5t-122 -77t-145 -28q-75 0 -135 28.5t-100 79t-57 115.5t-8 137zM130 350q-9 -60 3.5 -115.5t44.5 -99.5t81.5 -69.5t113.5 -25.5
q66 0 124.5 24t105 67t77 99.5t40.5 119.5q9 60 -3.5 115.5t-44.5 99.5t-81.5 69.5t-113.5 25.5q-65 0 -123.5 -24t-105.5 -67t-77.5 -99.5t-40.5 -119.5zM316 570h146q69 -1 110 -36.5t33 -95.5q-6 -46 -35 -78t-74 -47l81 -163h-115l-54 152h-32l-24 -152h-101zM448 484
h-44l-16 -104h38q27 2 48.5 15t25.5 38q3 24 -12 37t-40 14z" />
    <glyph glyph-name="macron" unicode="&#xaf;" horiz-adv-x="515" 
d="M147 572l21 132h364l-21 -132h-364z" />
    <glyph glyph-name="degree" unicode="&#xb0;" horiz-adv-x="286" 
d="M90 597q5 35 25.5 62.5t52 44t67.5 16.5q55 0 87 -35.5t25 -88.5q-5 -34 -26 -62t-52 -44t-68 -16q-55 0 -86.5 35.5t-24.5 87.5zM164 596q-3 -22 8.5 -39t33.5 -18q23 -1 43 17t24 41q3 22 -8 39.5t-34 18.5t-43 -17.5t-24 -41.5z" />
    <glyph glyph-name="plusminus" unicode="&#xb1;" horiz-adv-x="613" 
d="M96 332l22 137h169l23 151h153l-24 -151h170l-21 -137h-170l-24 -150h-151l23 150h-170zM46 6l20 131h492l-20 -131h-492z" />
    <glyph glyph-name="uni00B2" unicode="&#xb2;" horiz-adv-x="396" 
d="M42 283l214 193q24 23 46.5 44.5t26.5 49.5q2 19 -8 35.5t-34 17.5q-31 2 -50.5 -22.5t-26.5 -53.5l-100 1q9 44 33 81t63 60t91 22q45 0 77.5 -19t48.5 -50t10 -67q-5 -34 -26 -62t-49 -50l-109 -87l160 -1l-16 -93z" />
    <glyph glyph-name="uni00B3" unicode="&#xb3;" horiz-adv-x="353" 
d="M198 271q-71 0 -106.5 42.5t-32.5 100.5h98q0 -26 11.5 -43t38.5 -18q24 -1 45.5 14t24.5 39q6 30 -18 43t-59 15l9 50h1l2 15q30 3 56.5 17.5t30.5 39.5q2 17 -7.5 28t-29.5 12q-23 0 -39 -15t-22 -34l-96 1q13 55 56.5 92.5t107.5 37.5q41 0 72 -15t47 -41.5t10 -61.5
q-6 -36 -31.5 -58t-60.5 -33q35 -13 55.5 -38t14.5 -67q-5 -38 -30.5 -65.5t-64 -42.5t-83.5 -15z" />
    <glyph glyph-name="acute" unicode="&#xb4;" horiz-adv-x="363" 
d="M394 651l-195 -147l-82 45l168 157z" />
    <glyph glyph-name="mu" unicode="&#xb5;" horiz-adv-x="557" 
d="M215 180q-3 -32 4.5 -56.5t42.5 -26.5t59 22.5t33 56.5l49 284h151l-79 -460h-151l10 59q-24 -31 -59.5 -50t-81.5 -19q-11 0 -21 1l-53 -311h-144l132 780h158z" />
    <glyph glyph-name="paragraph" unicode="&#xb6;" horiz-adv-x="651" 
d="M113 486q11 68 47.5 115.5t91.5 73t119 25.5h318l-157 -920h-132l141 826h-54l-142 -826h-131l84 490q-60 4 -105.5 30.5t-67 74t-12.5 111.5z" />
    <glyph glyph-name="periodcentered" unicode="&#xb7;" horiz-adv-x="312" 
d="M82 270q5 37 36 64.5t70 26.5q40 -1 62.5 -28.5t17.5 -64.5q-4 -37 -35 -65t-70 -27q-40 1 -62.5 29t-18.5 65z" />
    <glyph glyph-name="cedilla" unicode="&#xb8;" horiz-adv-x="381" 
d="M159 71l114 -4l-109 -122q8 2 16.5 3t17.5 1q35 -2 58.5 -29t18.5 -70q-4 -34 -26.5 -58t-53.5 -36t-63 -13q-40 -1 -72.5 9t-65.5 31l52 67q17 -12 37 -18.5t36 -6.5q20 0 40 9.5t21 26.5q2 18 -15.5 25t-34.5 7q-14 1 -37.5 -3.5t-47.5 -12.5z" />
    <glyph glyph-name="uni00B9" unicode="&#xb9;" horiz-adv-x="467" 
d="M198 571l15 90l208 42l-74 -429h-99l56 322z" />
    <glyph glyph-name="ordmasculine" unicode="&#xba;" horiz-adv-x="269" 
d="M89 581q8 52 49.5 85.5t95.5 33.5t87 -34t26 -87q-5 -34 -26 -61t-52.5 -42.5t-67.5 -15.5q-54 0 -86.5 34.5t-25.5 86.5zM166 580q-3 -21 7.5 -38t31.5 -18q22 -1 41.5 16.5t22.5 39.5q3 21 -7.5 38.5t-31.5 18.5q-22 1 -41.5 -16.5t-22.5 -40.5z" />
    <glyph glyph-name="guillemotright" unicode="&#xbb;" horiz-adv-x="524" 
d="M199 254l-113 194l101 62l130 -260l-212 -249l-85 68zM398 254l-113 194l100 62l131 -260l-213 -249l-84 68z" />
    <glyph glyph-name="onequarter" unicode="&#xbc;" horiz-adv-x="798" 
d="M92 571l16 90l207 42l-74 -429h-99l55 322zM701 699h101l-625 -699h-100zM756 75h-63l-13 -75h-106l13 75h-203l-11 -3l300 347l79 1l-44 -258l64 -1zM630 265l-103 -117h83z" />
    <glyph glyph-name="onehalf" unicode="&#xbd;" horiz-adv-x="868" 
d="M92 571l16 90l207 42l-74 -429h-99l55 322zM701 699h101l-625 -699h-100zM461 3l214 193q24 23 46.5 44.5t26.5 49.5q2 19 -8 35.5t-34 17.5q-31 2 -50.5 -22.5t-26.5 -53.5l-101 1q9 44 33.5 81t63.5 60t91 22q45 0 77.5 -19t48.5 -50t10 -67q-5 -34 -26 -62t-49 -50
l-109 -87l160 -1l-17 -93z" />
    <glyph glyph-name="threequarters" unicode="&#xbe;" horiz-adv-x="852" 
d="M206 271q-71 0 -106.5 42.5t-32.5 100.5h98q0 -26 11.5 -43t38.5 -18q24 -1 45.5 14t24.5 39q6 30 -18 43t-59 15l9 50h1l2 15q30 3 56 17.5t30 39.5q2 17 -7 28t-29 12q-23 0 -39.5 -15t-22.5 -34l-95 1q13 55 56.5 92.5t107.5 37.5q41 0 72 -15t47 -41.5t10 -61.5
q-6 -36 -31.5 -58t-60.5 -33q35 -13 55.5 -38t14.5 -67q-5 -38 -30.5 -65.5t-64 -42.5t-83.5 -15zM762 699h102l-625 -699h-100zM813 75h-65l-13 -75h-105l13 75h-203l-11 -3l300 347l79 1l-45 -258l65 -1zM686 265l-103 -117h83z" />
    <glyph glyph-name="questiondown" unicode="&#xbf;" horiz-adv-x="608" 
d="M500 640q-4 -33 -35 -58t-69 -24q-37 1 -61.5 25.5t-20.5 58.5q5 33 36 58t68 24q38 -1 62.5 -25.5t19.5 -58.5zM209 200q-7 -41 18.5 -65t71.5 -25q48 -1 92 24t76 62l90 -87q-58 -57 -126.5 -93t-154.5 -35q-63 1 -116 28t-81.5 76t-19.5 115q10 61 46.5 105t88.5 71.5
t107 38.5l19 83h124l-9 -178h-31q-49 -1 -90.5 -17.5t-69.5 -43t-35 -59.5z" />
    <glyph glyph-name="Agrave" unicode="&#xc0;" horiz-adv-x="713" 
d="M337 957l118 51l121 -164l-87 -39zM502 0l-42 134h-212l-86 -134h-194l488 747l232 -747h-186zM408 441l-106 -178h149z" />
    <glyph glyph-name="Aacute" unicode="&#xc1;" horiz-adv-x="713" 
d="M648 952l-198 -147l-81 45l170 156zM502 0l-42 134h-212l-86 -134h-194l488 747l232 -747h-186zM408 441l-106 -178h149z" />
    <glyph glyph-name="Acircumflex" unicode="&#xc2;" horiz-adv-x="713" 
d="M483 874l-103 -84l-95 74l212 138l172 -143l-113 -70zM502 0l-42 134h-212l-86 -134h-194l488 747l232 -747h-186zM408 441l-106 -178h149z" />
    <glyph glyph-name="Atilde" unicode="&#xc3;" horiz-adv-x="713" 
d="M285 865q16 35 49.5 64.5t79.5 27.5q28 0 46 -13t35.5 -25.5t42.5 -11.5q22 1 40 17t34 35l61 -76q-13 -19 -35 -39t-49.5 -33t-57.5 -12q-25 1 -45 14.5t-39.5 26.5t-42.5 11q-25 -1 -37 -18.5t-18 -31.5zM502 0l-42 134h-212l-86 -134h-194l488 747l232 -747h-186z
M408 441l-106 -178h149z" />
    <glyph glyph-name="Adieresis" unicode="&#xc4;" horiz-adv-x="713" 
d="M243 837q5 34 34 58t63 23q35 -1 58 -24.5t18 -58.5q-4 -34 -33 -57.5t-64 -22.5t-57.5 24.5t-18.5 57.5zM522 831q5 34 34.5 57.5t63.5 22.5q35 -1 58 -24t18 -58q-4 -34 -33.5 -58t-64.5 -23t-57.5 25t-18.5 58zM502 0l-42 134h-212l-86 -134h-194l488 747l232 -747
h-186zM408 441l-106 -178h149z" />
    <glyph glyph-name="Aring" unicode="&#xc5;" horiz-adv-x="713" 
d="M344 802q5 33 25 58.5t50 40.5t63 15q50 0 82 -33t25 -83q-6 -43 -39 -74t-75 -39l213 -687h-186l-42 134h-212l-86 -134h-194l450 689q-37 10 -58.5 41t-15.5 72zM421 800q-2 -17 7.5 -31t26.5 -15q18 -1 36.5 14t20.5 34q2 17 -8 31t-27 15q-18 2 -36 -13.5t-20 -34.5z
M408 441l-106 -178h149z" />
    <glyph glyph-name="AE" unicode="&#xc6;" horiz-adv-x="1053" 
d="M986 140l-25 -140h-455l26 150h-225l-108 -150h-215l537 700h560l-25 -140h-274l-21 -124h256l-24 -137h-256l-27 -159h276zM419 306h139l43 253z" />
    <glyph glyph-name="Ccedilla" unicode="&#xc7;" horiz-adv-x="679" 
d="M247 350q-9 -56 8.5 -102t57 -73.5t96.5 -28.5q70 -1 124 27.5t97 64.5l-27 -184q-46 -31 -99 -50.5t-120 -19.5l-55 -62q8 2 16.5 3t17.5 1q35 -2 58.5 -29t18.5 -70q-5 -34 -27 -58t-53 -36.5t-63 -13.5q-40 -1 -73 9.5t-66 31.5l54 66q17 -12 36.5 -18t35.5 -6
q20 0 40.5 9.5t21.5 26.5q2 18 -15.5 24.5t-34.5 6.5q-14 1 -38 -2.5t-48 -11.5l83 139q-81 19 -137 70t-80.5 125t-11.5 161q12 79 49.5 146t95.5 116t131 76.5t156 27.5q66 0 114.5 -18.5t90.5 -52.5l-28 -184q-31 41 -76 67t-109 26q-58 0 -109 -26t-86 -72t-46 -106z
" />
    <glyph glyph-name="Egrave" unicode="&#xc8;" horiz-adv-x="584" 
d="M273 935l118 51l121 -163l-87 -40zM162 700h457l-25 -140h-293l-22 -124h275l-24 -137h-274l-28 -159h295l-25 -140h-454z" />
    <glyph glyph-name="Eacute" unicode="&#xc9;" horiz-adv-x="584" 
d="M585 930l-197 -146l-82 44l171 156zM162 700h457l-25 -140h-293l-22 -124h275l-24 -137h-274l-28 -159h295l-25 -140h-454z" />
    <glyph glyph-name="Ecircumflex" unicode="&#xca;" horiz-adv-x="584" 
d="M429 883l-124 -94l-45 43l176 138l136 -143l-53 -38zM162 700h457l-25 -140h-293l-22 -124h275l-24 -137h-274l-28 -159h295l-25 -140h-454z" />
    <glyph glyph-name="Edieresis" unicode="&#xcb;" horiz-adv-x="584" 
d="M454 867q5 34 34.5 57.5t63.5 22.5q35 -1 57.5 -24.5t17.5 -58.5q-4 -34 -33 -57.5t-64 -22.5t-57.5 25t-18.5 58zM217 867q5 34 34.5 57.5t63.5 22.5q35 -1 58 -24.5t18 -58.5q-4 -34 -33.5 -57.5t-64.5 -22.5t-57.5 25t-18.5 58zM162 700h457l-25 -140h-293l-22 -124
h275l-24 -137h-274l-28 -159h295l-25 -140h-454z" />
    <glyph glyph-name="Igrave" unicode="&#xcc;" horiz-adv-x="311" 
d="M125 935l119 51l121 -163l-88 -40zM162 700h172l-120 -700h-170z" />
    <glyph glyph-name="Iacute" unicode="&#xcd;" horiz-adv-x="311" 
d="M437 930l-198 -147l-81 45l170 156zM162 700h172l-120 -700h-170z" />
    <glyph glyph-name="Icircumflex" unicode="&#xce;" horiz-adv-x="311" 
d="M277 883l-124 -94l-46 43l177 138l136 -143l-52 -38zM162 700h172l-120 -700h-170z" />
    <glyph glyph-name="Idieresis" unicode="&#xcf;" horiz-adv-x="311" 
d="M307 860q5 34 34.5 57.5t63.5 22.5q35 -1 58 -24.5t18 -58.5q-4 -34 -33.5 -57.5t-64.5 -22.5t-57.5 25t-18.5 58zM70 860q5 34 34 57.5t63 22.5q35 -1 58.5 -24.5t18.5 -58.5q-4 -34 -33.5 -57.5t-64.5 -22.5t-57.5 25t-18.5 58zM162 700h172l-120 -700h-170z" />
    <glyph glyph-name="Eth" unicode="&#xd0;" horiz-adv-x="710" 
d="M293 0h-249l51 303h-67l19 99h65l50 298h241q108 -1 183 -46t109.5 -123.5t18.5 -180.5q-16 -105 -74 -183t-147 -121.5t-200 -45.5zM371 303h-102l-26 -151h60q58 2 107.5 23.5t84 65t45.5 109.5q15 95 -30 145.5t-130 52.5h-69l-25 -146h103z" />
    <glyph glyph-name="Ntilde" unicode="&#xd1;" horiz-adv-x="769" 
d="M280 836q16 35 49.5 64.5t79.5 27.5q28 0 46 -13.5t35 -26t42 -11.5q22 1 40 17t34 35l61 -76q-13 -19 -35 -38.5t-49.5 -32.5t-57.5 -12q-24 1 -44 14.5t-39.5 26.5t-42.5 11q-25 -1 -37.5 -18.5t-18.5 -31.5zM631 700h162l-125 -734l-395 427l-68 -393h-162l125 734
l395 -427z" />
    <glyph glyph-name="Ograve" unicode="&#xd2;" horiz-adv-x="796" 
d="M387 935l118 51l121 -163l-87 -40zM64 350q12 78 49 144.5t94 116.5t129 77.5t152 27.5q79 0 141.5 -28.5t104 -79t59 -117t6.5 -141.5q-12 -78 -49 -146t-94 -119t-129 -79.5t-154 -28.5q-80 0 -142.5 29.5t-103.5 81.5t-57.5 119.5t-5.5 142.5zM241 350q-8 -53 5 -101
t49 -77.5t95 -30.5q60 0 108.5 28t80.5 76t42 105q9 54 -4 101.5t-49 77.5t-96 30q-59 1 -108 -27.5t-81 -76t-42 -105.5z" />
    <glyph glyph-name="Oacute" unicode="&#xd3;" horiz-adv-x="796" 
d="M691 930l-197 -146l-82 44l170 156zM64 350q12 78 49 144.5t94 116.5t129 77.5t152 27.5q79 0 141.5 -28.5t104 -79t59 -117t6.5 -141.5q-12 -78 -49 -146t-94 -119t-129 -79.5t-154 -28.5q-80 0 -142.5 29.5t-103.5 81.5t-57.5 119.5t-5.5 142.5zM241 350q-8 -53 5 -101
t49 -77.5t95 -30.5q60 0 108.5 28t80.5 76t42 105q9 54 -4 101.5t-49 77.5t-96 30q-59 1 -108 -27.5t-81 -76t-42 -105.5z" />
    <glyph glyph-name="Ocircumflex" unicode="&#xd4;" horiz-adv-x="796" 
d="M536 883l-124 -94l-46 43l177 138l135 -143l-52 -38zM64 350q12 78 49.5 144.5t94.5 116.5t129 77.5t152 27.5q79 0 141.5 -28.5t103.5 -79t58.5 -117t6.5 -141.5q-12 -78 -49 -146t-94 -119t-129 -79.5t-154 -28.5q-80 0 -142.5 29.5t-103.5 81.5t-57.5 119.5
t-5.5 142.5zM241 350q-8 -53 5 -101t49 -77.5t95 -30.5q60 0 108.5 28t80.5 76t42 105q9 54 -4 101.5t-49 77.5t-96 30q-59 1 -108 -27.5t-81 -76t-42 -105.5z" />
    <glyph glyph-name="Otilde" unicode="&#xd5;" horiz-adv-x="796" 
d="M357 845q0 22 20.5 40t47 28.5t44.5 10.5q26 0 42.5 -12t32 -23t38.5 -10q18 1 33 15t30 32l41 -46q-17 -25 -45.5 -48t-65.5 -22q-23 1 -40 12.5t-33 23t-37 10.5q-27 -1 -40 -18.5t-19 -31.5zM64 350q12 78 49.5 144.5t94.5 116.5t129 77.5t152 27.5q79 0 141.5 -28.5
t103.5 -79t58.5 -117t6.5 -141.5q-12 -78 -49 -146t-94 -119t-129 -79.5t-154 -28.5q-80 0 -142.5 29.5t-103.5 81.5t-57.5 119.5t-5.5 142.5zM241 350q-8 -53 5 -101t49 -77.5t95 -30.5q60 0 108.5 28t80.5 76t42 105q9 54 -4 101.5t-49 77.5t-96 30q-59 1 -108 -27.5
t-81 -76t-42 -105.5z" />
    <glyph glyph-name="Odieresis" unicode="&#xd6;" horiz-adv-x="796" 
d="M550 860q5 34 34.5 57.5t63.5 22.5q35 -1 58 -24.5t18 -58.5q-4 -34 -33.5 -57.5t-64.5 -22.5t-57.5 25t-18.5 58zM313 860q5 34 34.5 57.5t63.5 22.5q35 -1 58 -24.5t18 -58.5q-4 -34 -33.5 -57.5t-64.5 -22.5t-57.5 25t-18.5 58zM64 350q12 78 49 144.5t94 116.5
t129 77.5t152 27.5q79 0 141.5 -28.5t104 -79t59 -117t6.5 -141.5q-12 -78 -49 -146t-94 -119t-129 -79.5t-154 -28.5q-80 0 -142.5 29.5t-103.5 81.5t-57.5 119.5t-5.5 142.5zM241 350q-8 -53 5 -101t49 -77.5t95 -30.5q60 0 108.5 28t80.5 76t42 105q9 54 -4 101.5
t-49 77.5t-96 30q-59 1 -108 -27.5t-81 -76t-42 -105.5z" />
    <glyph glyph-name="multiply" unicode="&#xd7;" horiz-adv-x="578" 
d="M112 2l-78 99l185 157l-131 159l104 91l126 -162l181 162l78 -99l-185 -157l131 -159l-104 -91l-126 162z" />
    <glyph glyph-name="Oslash" unicode="&#xd8;" horiz-adv-x="766" 
d="M64 350q12 78 49 144.5t94.5 116.5t129 77.5t152.5 27.5q56 0 104 -15t86 -42l96 97l65 -56l-100 -99q38 -50 53.5 -114.5t5.5 -136.5q-12 -78 -49 -145.5t-94.5 -119t-129.5 -80t-153 -28.5q-58 0 -107.5 16.5t-87.5 45.5l-96 -95l-63 53l101 102q-36 50 -51 114.5
t-5 136.5zM241 350q-10 -67 11 -119l304 305q-35 23 -84 23q-59 1 -108 -27.5t-81 -76t-42 -105.5zM621 350q11 68 -11 120l-306 -305q36 -24 86 -24q60 0 108.5 28t80.5 75.5t42 105.5z" />
    <glyph glyph-name="Ugrave" unicode="&#xd9;" horiz-adv-x="680" 
d="M315 928l118 52l121 -164l-86 -40zM158 700h168l-80 -457q-4 -31 2.5 -58t26 -43.5t55.5 -17.5q55 -1 88 34.5t43 84.5l80 457h168l-80 -470q-13 -81 -57.5 -139t-111 -89t-146.5 -31q-78 0 -134.5 31t-84 89t-17.5 139z" />
    <glyph glyph-name="Uacute" unicode="&#xda;" horiz-adv-x="680" 
d="M630 924l-198 -147l-82 45l171 156zM158 700h168l-80 -457q-4 -31 2.5 -58t26 -43.5t55.5 -17.5q55 -1 88 34.5t43 84.5l80 457h168l-80 -470q-13 -81 -57.5 -139t-111 -89t-146.5 -31q-78 0 -134.5 31t-84 89t-17.5 139z" />
    <glyph glyph-name="Ucircumflex" unicode="&#xdb;" horiz-adv-x="680" 
d="M464 861l-103 -84l-95 74l212 137l173 -142l-114 -70zM158 700h168l-80 -457q-4 -31 2.5 -58t26 -43.5t55.5 -17.5q55 -1 88 34.5t43 84.5l80 457h168l-80 -470q-13 -81 -57.5 -139t-111 -89t-146.5 -31q-78 0 -134.5 31t-84 89t-17.5 139z" />
    <glyph glyph-name="Udieresis" unicode="&#xdc;" horiz-adv-x="680" 
d="M510 860q5 34 34.5 57.5t63.5 22.5q35 -1 58 -24.5t18 -58.5q-4 -34 -33 -57.5t-64 -22.5t-58 25t-19 58zM236 860q5 34 34.5 57.5t63.5 22.5q35 -1 58 -24.5t18 -58.5q-4 -34 -33.5 -57.5t-64.5 -22.5t-57.5 25t-18.5 58zM158 700h168l-80 -457q-4 -31 2.5 -58t26 -43.5
t55.5 -17.5q55 -1 88 34.5t43 84.5l80 457h168l-80 -470q-13 -81 -57.5 -139t-111 -89t-146.5 -31q-78 0 -134.5 31t-84 89t-17.5 139z" />
    <glyph glyph-name="Yacute" unicode="&#xdd;" horiz-adv-x="641" 
d="M610 924l-197 -147l-82 45l170 156zM542 700h197l-311 -419l-48 -281h-171l50 288l-167 412h189l86 -259z" />
    <glyph glyph-name="Thorn" unicode="&#xde;" horiz-adv-x="594" 
d="M168 700h148l-21 -121h73q79 -1 135 -28t82.5 -77t15.5 -121q-16 -108 -96.5 -166t-202.5 -60h-84l-22 -127h-147zM355 445h-83l-31 -184h74q53 2 91 22.5t47 69.5q8 48 -20 69.5t-78 22.5z" />
    <glyph glyph-name="germandbls" unicode="&#xdf;" horiz-adv-x="574" 
d="M266 128q58 5 100.5 38t52.5 89q11 53 -23.5 81t-100.5 31l12 73l9 65q51 2 83 22t38 57q5 33 -14 53.5t-57 20.5t-64.5 -19.5t-31.5 -52.5l-101 -586h-145l103 606q10 59 47 101.5t91.5 65.5t116.5 23q67 0 115.5 -24t72.5 -66.5t15 -99.5q-10 -62 -46 -103t-91 -63
q61 -30 94.5 -85t22.5 -131q-12 -77 -57 -128.5t-113 -77.5t-150 -28z" />
    <glyph glyph-name="agrave" unicode="&#xe0;" 
d="M218 683l118 51l121 -163l-87 -41zM42 230q9 69 45 123.5t89.5 85.5t114.5 31q53 0 88.5 -26t53.5 -68l14 84h150l-79 -460h-149l12 69q-31 -36 -72 -57.5t-90 -21.5q-61 0 -104 32.5t-62 87t-11 120.5zM199 230q-7 -45 14.5 -80.5t67.5 -36.5q29 0 55.5 15.5t45.5 42.5
t24 59q7 45 -15 80.5t-63 36.5q-31 1 -58.5 -15t-46 -43t-24.5 -59z" />
    <glyph glyph-name="aacute" unicode="&#xe1;" 
d="M527 678l-198 -147l-81 45l171 157zM42 230q9 69 45 123.5t89.5 85.5t114.5 31q53 0 88.5 -26t53.5 -68l14 84h150l-79 -460h-149l12 69q-31 -36 -72 -57.5t-90 -21.5q-61 0 -104 32.5t-62 87t-11 120.5zM199 230q-7 -45 14.5 -80.5t67.5 -36.5q29 0 55.5 15.5t45.5 42.5
t24 59q7 45 -15 80.5t-63 36.5q-31 1 -58.5 -15t-46 -43t-24.5 -59z" />
    <glyph glyph-name="acircumflex" unicode="&#xe2;" 
d="M387 615l-103 -84l-96 74l213 138l173 -143l-113 -70zM42 230q9 69 45 123.5t89.5 85.5t114.5 31q53 0 88.5 -26t53.5 -68l14 84h150l-79 -460h-149l12 69q-31 -36 -72 -57.5t-90 -21.5q-61 0 -104 32.5t-62 87t-11 120.5zM199 230q-7 -45 14.5 -80.5t67.5 -36.5
q29 0 55.5 15.5t45.5 42.5t24 59q7 45 -15 80.5t-63 36.5q-31 1 -58.5 -15t-46 -43t-24.5 -59z" />
    <glyph glyph-name="atilde" unicode="&#xe3;" 
d="M194 598q15 36 48.5 64.5t80.5 28.5q28 0 46 -13t35.5 -26t42.5 -12q22 1 40 17.5t34 35.5l61 -77q-13 -19 -35 -39t-49.5 -33t-57.5 -12q-24 1 -44.5 14.5t-40 26.5t-42.5 11q-25 -1 -36.5 -18.5t-18.5 -31.5zM42 230q9 69 45 123.5t89.5 85.5t114.5 31q53 0 88.5 -26
t53.5 -68l14 84h150l-79 -460h-149l12 69q-31 -36 -72 -57.5t-90 -21.5q-61 0 -104 32.5t-62 87t-11 120.5zM199 230q-7 -45 14.5 -80.5t67.5 -36.5q29 0 55.5 15.5t45.5 42.5t24 59q7 45 -15 80.5t-63 36.5q-31 1 -58.5 -15t-46 -43t-24.5 -59z" />
    <glyph glyph-name="adieresis" unicode="&#xe4;" 
d="M408 614q5 34 34.5 57.5t63.5 22.5q35 -1 58 -24.5t18 -58.5q-4 -34 -33.5 -57.5t-64.5 -22.5t-57.5 25t-18.5 58zM171 614q5 34 34.5 57.5t63.5 22.5q35 -1 58 -24.5t18 -58.5q-4 -34 -33.5 -57.5t-64.5 -22.5t-57.5 25t-18.5 58zM42 230q9 69 45 123.5t89.5 85.5
t114.5 31q53 0 88.5 -26t53.5 -68l14 84h150l-79 -460h-149l12 69q-31 -36 -72 -57.5t-90 -21.5q-61 0 -104 32.5t-62 87t-11 120.5zM199 230q-7 -45 14.5 -80.5t67.5 -36.5q29 0 55.5 15.5t45.5 42.5t24 59q7 45 -15 80.5t-63 36.5q-31 1 -58.5 -15t-46 -43t-24.5 -59z" />
    <glyph glyph-name="aring" unicode="&#xe5;" 
d="M250 647q5 33 25 59t50 41t63 15q34 0 60 -15.5t39.5 -42t8.5 -59.5q-4 -33 -24.5 -58.5t-50.5 -40.5t-64 -15q-33 0 -59 15.5t-39 42t-9 58.5zM327 646q-2 -17 7.5 -31.5t26.5 -14.5q18 0 36.5 14t20.5 33q2 17 -8 32t-27 15q-18 0 -36 -14.5t-20 -33.5zM42 230
q9 69 45 123.5t89.5 85.5t114.5 31q53 0 88.5 -26t53.5 -68l14 84h150l-79 -460h-149l12 69q-31 -36 -72 -57.5t-90 -21.5q-61 0 -104 32.5t-62 87t-11 120.5zM199 230q-7 -45 14.5 -80.5t67.5 -36.5q29 0 55.5 15.5t45.5 42.5t24 59q7 45 -15 80.5t-63 36.5
q-31 1 -58.5 -15t-46 -43t-24.5 -59z" />
    <glyph glyph-name="ae" unicode="&#xe6;" horiz-adv-x="870" 
d="M143 318l-36 103q44 20 98 36t112 16q66 -1 100 -26t40 -72q37 44 90 70t119 25q68 0 112 -31t63 -83.5t11 -118.5q-1 -8 -3 -18t-4 -21v0v-1l-341 1q-1 -41 17.5 -68t59.5 -29q38 -1 69 15.5t52 41.5l132 -34q-44 -60 -106.5 -97.5t-152.5 -36.5q-77 0 -121 33t-60 85
q-21 -58 -74.5 -88t-132.5 -30q-51 0 -92.5 15.5t-63.5 46.5t-15 77q7 48 38.5 81.5t78 51t99.5 17.5q34 0 64.5 -8t53.5 -21l8 40q3 29 -14 47t-50 19q-44 2 -84.5 -12t-66.5 -26zM633 367q-41 1 -69.5 -23.5t-42.5 -62.5l177 1q0 35 -13.5 59.5t-51.5 25.5zM168 137
q-4 -23 11.5 -34.5t40.5 -12.5q42 -1 73 23t43 67q-17 8 -35.5 12t-40.5 4q-33 -1 -60 -15.5t-32 -43.5z" />
    <glyph glyph-name="ccedilla" unicode="&#xe7;" horiz-adv-x="478" 
d="M194 230q-7 -49 18.5 -82.5t75.5 -35.5q42 -1 80 18.5t65 47.5l-21 -147q-29 -19 -65.5 -30t-82.5 -11l-49 -55q8 2 16 2.5t17 0.5q35 -2 58.5 -29t18.5 -70q-5 -34 -27 -58t-53 -36t-63 -13q-40 -1 -73 9t-66 31l54 67q36 -25 72 -25q20 0 40.5 10t21.5 27
q2 18 -15.5 24.5t-34.5 6.5q-14 1 -38 -3t-48 -12l81 137q-71 24 -109.5 84t-26.5 142q11 71 53 125t105.5 84.5t137.5 30.5q44 0 78 -11t62 -29l-22 -149q-18 32 -49 49.5t-68 17.5q-34 0 -64.5 -15.5t-51.5 -42.5t-27 -60z" />
    <glyph glyph-name="egrave" unicode="&#xe8;" horiz-adv-x="556" 
d="M212 687l119 50l121 -162l-87 -41zM521 124q-44 -60 -106.5 -97.5t-152.5 -36.5q-77 1 -130 32.5t-76.5 85.5t-13.5 122q2 13 4.5 25t6.5 24q28 86 101 138.5t177 52.5q75 0 124.5 -29.5t71 -82t12.5 -121.5q-1 -8 -3 -18t-4 -21h-342q0 -42 19.5 -68.5t59.5 -28.5
q38 -1 68.5 15.5t51.5 41.5zM319 368q-41 1 -69.5 -24.5t-42.5 -62.5l178 1q-1 35 -14 60t-52 26z" />
    <glyph glyph-name="eacute" unicode="&#xe9;" horiz-adv-x="556" 
d="M542 681l-198 -146l-82 45l171 156zM521 124q-44 -60 -106.5 -97.5t-152.5 -36.5q-77 1 -130 32.5t-76.5 85.5t-13.5 122q2 13 4.5 25t6.5 24q28 86 101 138.5t177 52.5q75 0 124.5 -29.5t71 -82t12.5 -121.5q-1 -8 -3 -18t-4 -21h-342q0 -42 19.5 -68.5t59.5 -28.5
q38 -1 68.5 15.5t51.5 41.5zM319 368q-41 1 -69.5 -24.5t-42.5 -62.5l178 1q-1 35 -14 60t-52 26z" />
    <glyph glyph-name="ecircumflex" unicode="&#xea;" horiz-adv-x="556" 
d="M364 615l-103 -84l-95 74l212 138l173 -143l-113 -70zM521 124q-44 -60 -106.5 -97.5t-152.5 -36.5q-77 1 -130 32.5t-76.5 85.5t-13.5 122q2 13 4.5 25t6.5 24q28 86 101 138.5t177 52.5q75 0 124.5 -29.5t71 -82t12.5 -121.5q-1 -8 -3 -18t-4 -21h-342
q0 -42 19.5 -68.5t59.5 -28.5q38 -1 68.5 15.5t51.5 41.5zM319 368q-41 1 -69.5 -24.5t-42.5 -62.5l178 1q-1 35 -14 60t-52 26z" />
    <glyph glyph-name="edieresis" unicode="&#xeb;" horiz-adv-x="556" 
d="M392 614q5 34 34.5 57.5t63.5 22.5q35 -1 58 -24.5t18 -58.5q-4 -34 -33.5 -57.5t-64.5 -22.5t-57.5 25t-18.5 58zM155 614q5 34 34.5 57.5t63.5 22.5q35 -1 58 -24.5t18 -58.5q-4 -34 -33.5 -57.5t-64.5 -22.5t-57.5 25t-18.5 58zM521 124q-44 -60 -106.5 -97.5
t-152.5 -36.5q-77 1 -130 32.5t-76.5 85.5t-13.5 122q2 13 4.5 25t6.5 24q28 86 101 138.5t177 52.5q75 0 124.5 -29.5t71 -82t12.5 -121.5q-1 -8 -3 -18t-4 -21h-342q0 -42 19.5 -68.5t59.5 -28.5q38 -1 68.5 15.5t51.5 41.5zM319 368q-41 1 -69.5 -24.5t-42.5 -62.5l178 1
q-1 35 -14 60t-52 26z" />
    <glyph glyph-name="igrave" unicode="&#xec;" horiz-adv-x="267" 
d="M49 690l119 51l121 -163l-88 -40zM112 460h147l-80 -460h-145z" />
    <glyph glyph-name="iacute" unicode="&#xed;" horiz-adv-x="267" 
d="M392 685l-197 -147l-81 46l170 156zM112 460h147l-80 -460h-145z" />
    <glyph glyph-name="icircumflex" unicode="&#xee;" horiz-adv-x="267" 
d="M216 618l-103 -84l-95 75l212 137l172 -143l-112 -69zM112 460h147l-80 -460h-145z" />
    <glyph glyph-name="idieresis" unicode="&#xef;" horiz-adv-x="267" 
d="M245 625q5 34 34.5 58t63.5 23q35 -1 58 -24.5t18 -58.5q-4 -34 -33.5 -58t-64.5 -23t-57.5 25t-18.5 58zM8 625q5 34 34.5 58t63.5 23q35 -1 58 -24.5t18 -58.5q-4 -34 -33.5 -58t-64.5 -23t-57.5 25t-18.5 58zM112 460h147l-80 -460h-145z" />
    <glyph glyph-name="eth" unicode="&#xf0;" horiz-adv-x="649" 
d="M195 520l11 78h75l-69 99h205l59 -99h159l-13 -78h-99l47 -78q27 -45 42 -93.5t7 -102.5q-11 -80 -57 -139t-114 -91t-147 -32q-77 0 -135 33t-86.5 92t-17.5 138q9 65 46 116t90 81t110 30q42 0 70 -15l-42 61h-141zM454 246q8 46 -15.5 81.5t-73.5 36.5
q-33 1 -62.5 -15t-49.5 -43t-26 -60q-7 -46 16.5 -80.5t72.5 -35.5q34 0 63 15t49.5 41.5t25.5 59.5z" />
    <glyph glyph-name="ntilde" unicode="&#xf1;" horiz-adv-x="557" 
d="M163 599q16 35 49 64.5t79 27.5q28 0 46 -13.5t35.5 -26t42.5 -11.5q22 1 40 17.5t34 35.5l61 -77q-13 -19 -35 -39t-49.5 -33t-57.5 -12q-24 1 -44 14.5t-39.5 26.5t-42.5 11q-25 -1 -38 -18.5t-19 -31.5zM368 280q3 32 -4.5 56.5t-42.5 26.5t-59 -22.5t-33 -56.5
l-49 -284h-152l80 460h151l-10 -59q24 31 59.5 50t81.5 19q83 0 114 -49t22 -125l-51 -296h-157z" />
    <glyph glyph-name="ograve" unicode="&#xf2;" horiz-adv-x="571" 
d="M222 690l118 51l121 -163l-87 -40zM42 230q10 71 52 125t105 84.5t136 30.5q72 0 125.5 -31t79.5 -85.5t16 -123.5q-10 -70 -52 -124.5t-105.5 -85t-136.5 -30.5q-72 0 -125 31.5t-79 85.5t-16 123zM196 230q-7 -44 13.5 -78.5t65.5 -35.5q31 0 57.5 15t45.5 41.5
t24 57.5q7 44 -14 78.5t-66 35.5q-30 1 -57 -14.5t-45 -41.5t-24 -58z" />
    <glyph glyph-name="oacute" unicode="&#xf3;" horiz-adv-x="571" 
d="M533 685l-198 -147l-81 46l170 156zM42 230q10 71 52 125t105 84.5t136 30.5q72 0 125.5 -31t79.5 -85.5t16 -123.5q-10 -70 -52 -124.5t-105.5 -85t-136.5 -30.5q-72 0 -125 31.5t-79 85.5t-16 123zM196 230q-7 -44 13.5 -78.5t65.5 -35.5q31 0 57.5 15t45.5 41.5
t24 57.5q7 44 -14 78.5t-66 35.5q-30 1 -57 -14.5t-45 -41.5t-24 -58z" />
    <glyph glyph-name="ocircumflex" unicode="&#xf4;" horiz-adv-x="571" 
d="M369 622l-102 -84l-96 74l213 138l171 -143l-112 -70zM42 230q10 71 52 125t105 84.5t136 30.5q72 0 125.5 -31t79.5 -85.5t16 -123.5q-10 -70 -52 -124.5t-105.5 -85t-136.5 -30.5q-72 0 -125 31.5t-79 85.5t-16 123zM196 230q-7 -44 13.5 -78.5t65.5 -35.5
q31 0 57.5 15t45.5 41.5t24 57.5q7 44 -14 78.5t-66 35.5q-30 1 -57 -14.5t-45 -41.5t-24 -58z" />
    <glyph glyph-name="otilde" unicode="&#xf5;" horiz-adv-x="571" 
d="M170 598q0 24 21.5 45.5t51.5 34.5t55 13q28 0 46 -13.5t35.5 -26t42.5 -11.5q22 1 40 17.5t34 35.5l61 -77q-13 -19 -35 -39t-49.5 -33t-57.5 -12q-24 1 -44 14.5t-39.5 26.5t-42.5 11q-25 -1 -37.5 -18.5t-18.5 -31.5zM42 230q10 71 52 125t105 84.5t136 30.5
q72 0 125.5 -31t79.5 -85.5t16 -123.5q-10 -70 -52 -124.5t-105.5 -85t-136.5 -30.5q-72 0 -125 31.5t-79 85.5t-16 123zM196 230q-7 -44 13.5 -78.5t65.5 -35.5q31 0 57.5 15t45.5 41.5t24 57.5q7 44 -14 78.5t-66 35.5q-30 1 -57 -14.5t-45 -41.5t-24 -58z" />
    <glyph glyph-name="odieresis" unicode="&#xf6;" horiz-adv-x="571" 
d="M397 625q5 34 34.5 58t63.5 23q35 -1 58 -24.5t18 -58.5q-4 -34 -33.5 -58t-64.5 -23t-57.5 25t-18.5 58zM160 625q5 34 34.5 58t63.5 23q35 -1 58 -24.5t18 -58.5q-4 -34 -33.5 -58t-64.5 -23t-57.5 25t-18.5 58zM42 230q10 71 52 125t105 84.5t136 30.5q72 0 125.5 -31
t79.5 -85.5t16 -123.5q-10 -70 -52 -124.5t-105.5 -85t-136.5 -30.5q-72 0 -125 31.5t-79 85.5t-16 123zM196 230q-7 -44 13.5 -78.5t65.5 -35.5q31 0 57.5 15t45.5 41.5t24 57.5q7 44 -14 78.5t-66 35.5q-30 1 -57 -14.5t-45 -41.5t-24 -58z" />
    <glyph glyph-name="divide" unicode="&#xf7;" horiz-adv-x="620" 
d="M284 555q3 25 18.5 46t38.5 34t49 12q40 -1 63 -29t18 -65q-4 -37 -35 -64.5t-70 -26.5q-40 1 -63 28.5t-19 64.5zM40 260l24 137h574l-24 -137h-574zM207 100q5 37 35.5 64.5t69.5 26.5q40 -1 63 -28.5t18 -64.5q-3 -24 -18.5 -45.5t-38.5 -34t-49 -12.5q-40 1 -62 29
t-18 65z" />
    <glyph glyph-name="oslash" unicode="&#xf8;" horiz-adv-x="529" 
d="M42 230q11 73 52.5 126.5t104.5 83.5t136 30q61 0 110 -23l52 59l56 -36l-53 -60q33 -32 48.5 -78t7.5 -102q-10 -72 -52.5 -126t-105.5 -84t-136 -30q-65 0 -116 26l-59 -66l-54 34l61 69q-31 32 -45.5 77t-6.5 100zM184 230q-6 -38 7 -68l163 183q-15 5 -31 5
q-33 1 -62.5 -15.5t-50 -44t-26.5 -60.5zM414 230q7 40 -11 72l-166 -185q17 -7 37 -7q34 0 63.5 15.5t50.5 43t26 61.5z" />
    <glyph glyph-name="ugrave" unicode="&#xf9;" horiz-adv-x="557" 
d="M229 690l118 51l121 -163l-87 -40zM215 180q-3 -32 4.5 -56.5t42.5 -26.5t59 22.5t33 56.5l49 284h151l-79 -460h-151l10 59q-24 -31 -59.5 -50t-81.5 -19q-82 0 -113.5 49t-22.5 125l51 296h157z" />
    <glyph glyph-name="uacute" unicode="&#xfa;" horiz-adv-x="557" 
d="M511 685l-197 -147l-81 46l170 156zM215 180q-3 -32 4.5 -56.5t42.5 -26.5t59 22.5t33 56.5l49 284h151l-79 -460h-151l10 59q-24 -31 -59.5 -50t-81.5 -19q-82 0 -113.5 49t-22.5 125l51 296h157z" />
    <glyph glyph-name="ucircumflex" unicode="&#xfb;" horiz-adv-x="557" 
d="M362 622l-103 -84l-96 74l213 138l172 -143l-113 -70zM215 180q-3 -32 4.5 -56.5t42.5 -26.5t59 22.5t33 56.5l49 284h151l-79 -460h-151l10 59q-24 -31 -59.5 -50t-81.5 -19q-82 0 -113.5 49t-22.5 125l51 296h157z" />
    <glyph glyph-name="udieresis" unicode="&#xfc;" horiz-adv-x="557" 
d="M391 622q5 34 33.5 57.5t62.5 22.5q35 -1 58.5 -24.5t18.5 -58.5q-4 -34 -33.5 -58t-64.5 -23t-57 25.5t-18 58.5zM153 622q5 34 34.5 57.5t63.5 22.5q35 -1 58 -24.5t18 -58.5q-4 -34 -33.5 -58t-64.5 -23t-57.5 25.5t-18.5 58.5zM215 180q-3 -32 4.5 -56.5t42.5 -26.5
t59 22.5t33 56.5l49 284h151l-79 -460h-151l10 59q-24 -31 -59.5 -50t-81.5 -19q-82 0 -113.5 49t-22.5 125l51 296h157z" />
    <glyph glyph-name="yacute" unicode="&#xfd;" horiz-adv-x="506" 
d="M502 685l-198 -147l-81 46l170 156zM571 460l-408 -680h-155l157 261l-122 419h161l59 -268l150 268h158z" />
    <glyph glyph-name="thorn" unicode="&#xfe;" 
d="M141 -220h-152l172 1000h151l-66 -385q31 34 71.5 54.5t87.5 20.5q62 0 104.5 -32.5t62 -87t10.5 -120.5q-9 -68 -45 -122.5t-89.5 -86.5t-115.5 -31q-52 0 -86.5 24.5t-53.5 64.5zM425 230q7 45 -15 80.5t-68 36.5q-38 1 -72 -26.5t-48 -68.5l-7 -42q0 -40 22 -68
t58 -29q31 -1 58.5 15t47 43t24.5 59z" />
    <glyph glyph-name="ydieresis" unicode="&#xff;" horiz-adv-x="506" 
d="M363 614q5 34 34.5 57.5t63.5 22.5q35 -1 58 -24.5t18 -58.5q-4 -34 -33.5 -57.5t-64.5 -22.5t-57.5 25t-18.5 58zM126 614q5 34 34 57.5t63 22.5q35 -1 58.5 -24.5t18.5 -58.5q-4 -34 -34 -57.5t-65 -22.5t-57 25t-18 58zM571 460l-408 -680h-155l157 261l-122 419h161
l59 -268l150 268h158z" />
    <glyph glyph-name="Amacron" unicode="&#x100;" horiz-adv-x="713" 
d="M286 805l23 132h363l-23 -132h-363zM502 0l-42 134h-212l-86 -134h-194l488 747l232 -747h-186zM408 441l-106 -178h149z" />
    <glyph glyph-name="amacron" unicode="&#x101;" 
d="M183 534l23 132h364l-23 -132h-364zM42 230q9 69 45 123.5t89.5 85.5t114.5 31q53 0 88.5 -26t53.5 -68l14 84h150l-79 -460h-149l12 69q-31 -36 -72 -57.5t-90 -21.5q-61 0 -104 32.5t-62 87t-11 120.5zM199 230q-7 -45 14.5 -80.5t67.5 -36.5q29 0 55.5 15.5t45.5 42.5
t24 59q7 45 -15 80.5t-63 36.5q-31 1 -58.5 -15t-46 -43t-24.5 -59z" />
    <glyph glyph-name="Abreve" unicode="&#x102;" horiz-adv-x="713" 
d="M331 951h96q0 -24 11.5 -41t38.5 -18q28 -1 48 17.5t27 41.5l100 -1q-13 -61 -59.5 -103t-120.5 -42t-109.5 42t-31.5 104zM502 0l-42 134h-212l-86 -134h-194l488 747l232 -747h-186zM408 441l-106 -178h149z" />
    <glyph glyph-name="abreve" unicode="&#x103;" 
d="M212 677l96 -1q0 -24 12 -40.5t39 -17.5q28 -1 47.5 17t26.5 41l100 -1q-13 -61 -59.5 -102.5t-120.5 -41.5t-109.5 42t-31.5 104zM42 230q9 69 45 123.5t89.5 85.5t114.5 31q53 0 88.5 -26t53.5 -68l14 84h150l-79 -460h-149l12 69q-31 -36 -72 -57.5t-90 -21.5
q-61 0 -104 32.5t-62 87t-11 120.5zM199 230q-7 -45 14.5 -80.5t67.5 -36.5q29 0 55.5 15.5t45.5 42.5t24 59q7 45 -15 80.5t-63 36.5q-31 1 -58.5 -15t-46 -43t-24.5 -59z" />
    <glyph glyph-name="Aogonek" unicode="&#x104;" horiz-adv-x="713" 
d="M624 -110l22 -72q-17 -15 -41.5 -26.5t-59.5 -11.5q-46 0 -76.5 27t-24.5 74q6 40 37.5 68.5t70.5 50.5h-50l-42 134h-212l-86 -134h-194l488 747l232 -747h-48q-33 -19 -61.5 -42t-33.5 -52q-1 -15 4.5 -24.5t21.5 -11.5q14 -1 28.5 6t24.5 14zM408 441l-106 -178h149z
" />
    <glyph glyph-name="aogonek" unicode="&#x105;" 
d="M42 230q9 69 45 123.5t89.5 85.5t114.5 31q53 0 88.5 -26t53.5 -68l14 84h150l-79 -460h-32q-33 -19 -61 -42t-33 -52q-1 -15 4.5 -24.5t21.5 -11.5q14 -1 28 6t24 14l22 -72q-17 -15 -41.5 -26.5t-59.5 -11.5q-46 0 -76.5 27t-24.5 74q6 40 38 68.5t71 50.5h-30l12 69
q-31 -36 -72 -57.5t-90 -21.5q-61 0 -104 32.5t-62 87t-11 120.5zM199 230q-7 -45 14.5 -80.5t67.5 -36.5q29 0 55.5 15.5t45.5 42.5t24 59q7 45 -15 80.5t-63 36.5q-31 1 -58.5 -15t-46 -43t-24.5 -59z" />
    <glyph glyph-name="Cacute" unicode="&#x106;" horiz-adv-x="679" 
d="M664 924l-197 -147l-82 45l171 156zM247 350q-9 -56 8.5 -102t57 -73.5t96.5 -28.5q70 -1 124 27.5t97 64.5l-27 -184q-46 -31 -99.5 -50.5t-121.5 -19.5q-81 0 -145 28.5t-106.5 78.5t-60 116.5t-6.5 142.5q12 79 49.5 146t95.5 116t131 76.5t156 27.5q66 0 114.5 -18.5
t90.5 -52.5l-28 -184q-31 41 -76 67t-109 26q-58 0 -109 -26t-86 -72t-46 -106z" />
    <glyph glyph-name="cacute" unicode="&#x107;" horiz-adv-x="478" 
d="M504 678l-197 -147l-82 45l170 157zM194 230q-7 -49 18.5 -82.5t75.5 -35.5q42 -1 80 18.5t65 47.5l-21 -147q-29 -19 -65.5 -30t-82.5 -11q-72 0 -126.5 31t-81 85.5t-16.5 123.5q11 71 53 125t105.5 84.5t137.5 30.5q44 0 78 -11t62 -29l-22 -149q-18 32 -49 49.5
t-68 17.5q-34 0 -64.5 -15.5t-51.5 -42.5t-27 -60z" />
    <glyph glyph-name="Ccircumflex" unicode="&#x108;" horiz-adv-x="679" 
d="M530 861l-103 -84l-96 74l213 137l172 -142l-113 -70zM247 350q-9 -56 8.5 -102t57 -73.5t96.5 -28.5q70 -1 124 27.5t97 64.5l-27 -184q-46 -31 -99.5 -50.5t-121.5 -19.5q-81 0 -145 28.5t-106.5 78.5t-60 116.5t-6.5 142.5q12 79 49.5 146t95.5 116t131 76.5t156 27.5
q66 0 114.5 -18.5t90.5 -52.5l-28 -184q-31 41 -76 67t-109 26q-58 0 -109 -26t-86 -72t-46 -106z" />
    <glyph glyph-name="ccircumflex" unicode="&#x109;" horiz-adv-x="478" 
d="M339 615l-103 -84l-96 74l212 138l173 -143l-113 -70zM194 230q-7 -49 18.5 -82.5t75.5 -35.5q42 -1 80 18.5t65 47.5l-21 -147q-29 -19 -65.5 -30t-82.5 -11q-72 0 -126.5 31t-81 85.5t-16.5 123.5q11 71 53 125t105.5 84.5t137.5 30.5q44 0 78 -11t62 -29l-22 -149
q-18 32 -49 49.5t-68 17.5q-34 0 -64.5 -15.5t-51.5 -42.5t-27 -60z" />
    <glyph glyph-name="Cdotaccent" unicode="&#x10a;" horiz-adv-x="679" 
d="M414 860q5 34 34.5 57.5t63.5 22.5q35 -1 58 -24.5t18 -58.5q-4 -34 -33.5 -57.5t-64.5 -22.5t-57.5 25t-18.5 58zM247 350q-9 -56 8.5 -102t57 -73.5t96.5 -28.5q70 -1 124 27.5t97 64.5l-27 -184q-46 -31 -99.5 -50.5t-121.5 -19.5q-81 0 -145 28.5t-106.5 78.5
t-60 116.5t-6.5 142.5q12 79 49.5 146t95.5 116t131 76.5t156 27.5q66 0 114.5 -18.5t90.5 -52.5l-28 -184q-31 41 -76 67t-109 26q-58 0 -109 -26t-86 -72t-46 -106z" />
    <glyph glyph-name="cdotaccent" unicode="&#x10b;" horiz-adv-x="478" 
d="M255 620q5 34 34.5 58t63.5 23q35 -1 58 -24.5t18 -58.5q-4 -34 -33.5 -58t-64.5 -23t-57.5 25t-18.5 58zM194 230q-7 -49 18.5 -82.5t75.5 -35.5q42 -1 80 18.5t65 47.5l-21 -147q-29 -19 -65.5 -30t-82.5 -11q-72 0 -126.5 31t-81 85.5t-16.5 123.5q11 71 53 125
t105.5 84.5t137.5 30.5q44 0 78 -11t62 -29l-22 -149q-18 32 -49 49.5t-68 17.5q-34 0 -64.5 -15.5t-51.5 -42.5t-27 -60z" />
    <glyph glyph-name="Ccaron" unicode="&#x10c;" horiz-adv-x="679" 
d="M529 903l103 85l96 -74l-213 -138l-172 143l113 70zM247 350q-9 -56 8.5 -102t57 -73.5t96.5 -28.5q70 -1 124 27.5t97 64.5l-27 -184q-46 -31 -99.5 -50.5t-121.5 -19.5q-81 0 -145 28.5t-106.5 78.5t-60 116.5t-6.5 142.5q12 79 49.5 146t95.5 116t131 76.5t156 27.5
q66 0 114.5 -18.5t90.5 -52.5l-28 -184q-31 41 -76 67t-109 26q-58 0 -109 -26t-86 -72t-46 -106z" />
    <glyph glyph-name="ccaron" unicode="&#x10d;" horiz-adv-x="478" 
d="M339 658l103 84l95 -74l-213 -138l-173 144l114 69zM194 230q-7 -49 18.5 -82.5t75.5 -35.5q42 -1 80 18.5t65 47.5l-21 -147q-29 -19 -65.5 -30t-82.5 -11q-72 0 -126.5 31t-81 85.5t-16.5 123.5q11 71 53 125t105.5 84.5t137.5 30.5q44 0 78 -11t62 -29l-22 -149
q-18 32 -49 49.5t-68 17.5q-34 0 -64.5 -15.5t-51.5 -42.5t-27 -60z" />
    <glyph glyph-name="Dcaron" unicode="&#x10e;" horiz-adv-x="710" 
d="M488 903l103 85l95 -74l-212 -138l-172 143l112 70zM293 0h-249l118 700h241q108 -1 183 -46t109.5 -123.5t18.5 -180.5q-16 -105 -74 -183t-147 -121.5t-200 -45.5zM380 548h-69l-68 -396h60q58 2 107.5 23.5t84 65t45.5 109.5q15 95 -30 145.5t-130 52.5z" />
    <glyph glyph-name="dcaron" unicode="&#x10f;" 
d="M42 230q9 69 45 123.5t89.5 85.5t114.5 31q52 0 87 -25.5t54 -65.5l68 401h152l-134 -780h-151l11 66q-30 -35 -70.5 -55.5t-88.5 -20.5q-61 0 -104 32.5t-62 87t-11 120.5zM761 779l149 -34l-165 -247l-113 24zM199 230q-7 -45 14.5 -80.5t67.5 -36.5q40 -1 75.5 29
t47.5 74l4 26q3 41 -19 72.5t-61 32.5q-31 1 -58.5 -15t-46 -43t-24.5 -59z" />
    <glyph glyph-name="Dcroat" unicode="&#x110;" horiz-adv-x="710" 
d="M293 0h-249l50 297h-67l18 101h66l51 302h241q108 -1 183 -46t109.5 -123.5t18.5 -180.5q-16 -105 -74 -183t-147 -121.5t-200 -45.5zM364 297h-96l-25 -145h60q58 2 107.5 23.5t84 65t45.5 109.5q15 95 -30 145.5t-130 52.5h-69l-26 -150h97z" />
    <glyph glyph-name="dcroat" unicode="&#x111;" 
d="M42 230q9 69 45 123.5t89.5 85.5t114.5 31q52 0 87 -25.5t54 -65.5l31 186h-109l18 100h108l20 115h152l-20 -115h89l-18 -100h-88l-97 -565h-151l11 66q-30 -35 -70.5 -55.5t-88.5 -20.5q-61 0 -104 32.5t-62 87t-11 120.5zM199 230q-7 -45 14.5 -80.5t67.5 -36.5
q40 -1 75.5 29t47.5 74l4 26q3 41 -19 72.5t-61 32.5q-31 1 -58.5 -15t-46 -43t-24.5 -59z" />
    <glyph glyph-name="Emacron" unicode="&#x112;" horiz-adv-x="584" 
d="M221 777l23 132h364l-23 -133zM162 700h457l-25 -140h-293l-22 -124h275l-24 -137h-274l-28 -159h295l-25 -140h-454z" />
    <glyph glyph-name="emacron" unicode="&#x113;" horiz-adv-x="556" 
d="M165 531l23 131h364l-24 -132zM521 124q-44 -60 -106.5 -97.5t-152.5 -36.5q-77 1 -130 32.5t-76.5 85.5t-13.5 122q2 13 4.5 25t6.5 24q28 86 101 138.5t177 52.5q75 0 124.5 -29.5t71 -82t12.5 -121.5q-1 -8 -3 -18t-4 -21h-342q0 -42 19.5 -68.5t59.5 -28.5
q38 -1 68.5 15.5t51.5 41.5zM319 368q-41 1 -69.5 -24.5t-42.5 -62.5l178 1q-1 35 -14 60t-52 26z" />
    <glyph glyph-name="Ebreve" unicode="&#x114;" horiz-adv-x="584" 
d="M266 923h96q0 -24 12 -41t39 -18q28 -1 47.5 17t26.5 41h101q-13 -61 -59.5 -103t-120.5 -42t-110 42t-32 104zM162 700h457l-25 -140h-293l-22 -124h275l-24 -137h-274l-28 -159h295l-25 -140h-454z" />
    <glyph glyph-name="ebreve" unicode="&#x115;" horiz-adv-x="556" 
d="M210 677h96q0 -24 12 -40.5t39 -17.5q28 -1 47.5 16.5t26.5 40.5h100q-13 -61 -59.5 -103t-120.5 -42t-109.5 42t-31.5 104zM521 124q-44 -60 -106.5 -97.5t-152.5 -36.5q-77 1 -130 32.5t-76.5 85.5t-13.5 122q2 13 4.5 25t6.5 24q28 86 101 138.5t177 52.5
q75 0 124.5 -29.5t71 -82t12.5 -121.5q-1 -8 -3 -18t-4 -21h-342q0 -42 19.5 -68.5t59.5 -28.5q38 -1 68.5 15.5t51.5 41.5zM319 368q-41 1 -69.5 -24.5t-42.5 -62.5l178 1q-1 35 -14 60t-52 26z" />
    <glyph glyph-name="Edotaccent" unicode="&#x116;" horiz-adv-x="584" 
d="M330 860q5 34 34.5 57.5t63.5 22.5q35 -1 58 -24.5t18 -58.5q-4 -34 -33.5 -57.5t-64.5 -22.5t-57.5 25t-18.5 58zM162 700h457l-25 -140h-293l-22 -124h275l-24 -137h-274l-28 -159h295l-25 -140h-454z" />
    <glyph glyph-name="edotaccent" unicode="&#x117;" horiz-adv-x="556" 
d="M274 614q5 34 34 57.5t63 22.5q35 -1 58 -24.5t18 -58.5q-4 -34 -33.5 -57.5t-64.5 -22.5t-57 25t-18 58zM521 124q-44 -60 -106.5 -97.5t-152.5 -36.5q-77 1 -130 32.5t-76.5 85.5t-13.5 122q2 13 4.5 25t6.5 24q28 86 101 138.5t177 52.5q75 0 124.5 -29.5t71 -82
t12.5 -121.5q-1 -8 -3 -18t-4 -21h-342q0 -42 19.5 -68.5t59.5 -28.5q38 -1 68.5 15.5t51.5 41.5zM319 368q-41 1 -69.5 -24.5t-42.5 -62.5l178 1q-1 35 -14 60t-52 26z" />
    <glyph glyph-name="Eogonek" unicode="&#x118;" horiz-adv-x="584" 
d="M341 -110l22 -72q-17 -15 -42 -26.5t-60 -11.5q-46 0 -76.5 27t-24.5 74q6 40 38 68.5t71 50.5h-225l118 700h457l-25 -140h-293l-22 -124h275l-24 -137h-274l-28 -159h295l-25 -140h-141q-33 -19 -61.5 -42t-33.5 -52q-1 -15 4.5 -24.5t21.5 -11.5q14 -1 28.5 6t24.5 14
z" />
    <glyph glyph-name="eogonek" unicode="&#x119;" horiz-adv-x="556" 
d="M272 -103l22 -70q-17 -15 -42 -26.5t-60 -11.5q-46 0 -76 26.5t-24 73.5q6 36 32.5 63t61.5 48q-80 22 -118 84t-26 146q2 13 4.5 25t6.5 24q28 86 101 138.5t177 52.5q75 0 124.5 -29.5t71 -82t12.5 -121.5q-1 -8 -3 -18t-4 -21h-342q0 -42 19.5 -68.5t59.5 -28.5
q38 -1 68.5 15.5t51.5 41.5l132 -34q-44 -60 -106.5 -97.5t-152.5 -36.5h-1q-25 -16 -44 -35t-23 -41q-5 -33 25 -36q14 -1 28.5 5.5t24.5 13.5zM319 368q-41 1 -69.5 -24.5t-42.5 -62.5l178 1q-1 35 -14 60t-52 26z" />
    <glyph glyph-name="Ecaron" unicode="&#x11a;" horiz-adv-x="584" 
d="M421 903l103 85l95 -74l-212 -138l-173 143l113 70zM162 700h457l-25 -140h-293l-22 -124h275l-24 -137h-274l-28 -159h295l-25 -140h-454z" />
    <glyph glyph-name="ecaron" unicode="&#x11b;" horiz-adv-x="556" 
d="M364 658l103 84l95 -74l-212 -138l-172 144l113 69zM521 124q-44 -60 -106.5 -97.5t-152.5 -36.5q-77 1 -130 32.5t-76.5 85.5t-13.5 122q2 13 4.5 25t6.5 24q28 86 101 138.5t177 52.5q75 0 124.5 -29.5t71 -82t12.5 -121.5q-1 -8 -3 -18t-4 -21h-342q0 -42 19.5 -68.5
t59.5 -28.5q38 -1 68.5 15.5t51.5 41.5zM319 368q-41 1 -69.5 -24.5t-42.5 -62.5l178 1q-1 35 -14 60t-52 26z" />
    <glyph glyph-name="Gcircumflex" unicode="&#x11c;" horiz-adv-x="790" 
d="M534 861l-102 -84l-96 74l213 137l172 -142l-113 -70zM422 253l24 131l344 -1q-9 -81 -41 -154t-85 -129.5t-125 -89.5t-160 -33q-81 0 -144.5 29t-105.5 80.5t-59 119t-6 144.5q12 80 51 147t97.5 116t132.5 76t156 27q101 0 171.5 -45t113.5 -122l-158 -77
q-19 42 -53 68.5t-89 26.5q-60 1 -112.5 -27.5t-87.5 -77.5t-46 -112q-9 -59 5.5 -110t53.5 -82t101 -32q74 -1 124.5 37.5t80.5 90.5z" />
    <glyph glyph-name="gcircumflex" unicode="&#x11d;" horiz-adv-x="592" 
d="M392 615l-103 -84l-95 74l213 138l172 -143l-114 -70zM6 -33l143 -1q2 -39 22 -61t62 -22q52 -1 88.5 35.5t46.5 91.5l11 65q-30 -34 -70.5 -53t-87.5 -19q-61 0 -104 31t-63 84t-12 119q9 69 45 121.5t89.5 82.5t114.5 29q52 0 87 -23.5t54 -62.5l13 76h146l-77 -450
q-12 -79 -52 -134.5t-100 -85t-134 -29.5q-114 0 -168.5 56t-53.5 150zM200 236q-7 -45 15.5 -77t67.5 -33q37 -1 71 23.5t49 63.5l7 45q-1 38 -23.5 63t-58.5 26q-31 1 -58.5 -13.5t-46 -40t-23.5 -57.5z" />
    <glyph glyph-name="Gbreve" unicode="&#x11e;" horiz-adv-x="790" 
d="M380 923h96q0 -24 11.5 -41t38.5 -18q28 -1 48 17t27 41h100q-13 -61 -59.5 -103t-120.5 -42t-109.5 42t-31.5 104zM422 253l24 131l344 -1q-9 -81 -41 -154t-85 -129.5t-125 -89.5t-160 -33q-81 0 -144.5 29t-105.5 80.5t-59 119t-6 144.5q12 80 51 147t97.5 116
t132.5 76t156 27q101 0 171.5 -45t113.5 -122l-158 -77q-19 42 -53 68.5t-89 26.5q-60 1 -112.5 -27.5t-87.5 -77.5t-46 -112q-9 -59 5.5 -110t53.5 -82t101 -32q74 -1 124.5 37.5t80.5 90.5z" />
    <glyph glyph-name="gbreve" unicode="&#x11f;" horiz-adv-x="592" 
d="M238 677h96q0 -24 11.5 -40.5t38.5 -17.5q28 -1 48 16.5t27 40.5h100q-13 -61 -60 -103t-121 -42t-109 42t-31 104zM6 -33l143 -1q2 -39 22 -61t62 -22q52 -1 88.5 35.5t46.5 91.5l11 65q-30 -34 -70.5 -53t-87.5 -19q-61 0 -104 31t-63 84t-12 119q9 69 45 121.5
t89.5 82.5t114.5 29q52 0 87 -23.5t54 -62.5l13 76h146l-77 -450q-12 -79 -52 -134.5t-100 -85t-134 -29.5q-114 0 -168.5 56t-53.5 150zM200 236q-7 -45 15.5 -77t67.5 -33q37 -1 71 23.5t49 63.5l7 45q-1 38 -23.5 63t-58.5 26q-31 1 -58.5 -13.5t-46 -40t-23.5 -57.5z
" />
    <glyph glyph-name="Gdotaccent" unicode="&#x120;" horiz-adv-x="790" 
d="M443 860q5 34 34.5 57.5t63.5 22.5q35 -1 58.5 -24.5t18.5 -58.5q-4 -34 -33.5 -57.5t-64.5 -22.5t-58 25t-19 58zM422 253l24 131l344 -1q-9 -81 -41 -154t-85 -129.5t-125 -89.5t-160 -33q-81 0 -144.5 29t-105.5 80.5t-59 119t-6 144.5q12 80 51 147t97.5 116
t132.5 76t156 27q101 0 171.5 -45t113.5 -122l-158 -77q-19 42 -53 68.5t-89 26.5q-60 1 -112.5 -27.5t-87.5 -77.5t-46 -112q-9 -59 5.5 -110t53.5 -82t101 -32q74 -1 124.5 37.5t80.5 90.5z" />
    <glyph glyph-name="gdotaccent" unicode="&#x121;" horiz-adv-x="592" 
d="M292 629q5 34 34.5 57.5t63.5 22.5q35 -1 58 -24t18 -58q-4 -34 -33.5 -58t-64.5 -23t-57.5 25t-18.5 58zM6 -33l143 -1q2 -39 22 -61t62 -22q52 -1 88.5 35.5t46.5 91.5l11 65q-30 -34 -70.5 -53t-87.5 -19q-61 0 -104 31t-63 84t-12 119q9 69 45 121.5t89.5 82.5
t114.5 29q52 0 87 -23.5t54 -62.5l13 76h146l-77 -450q-12 -79 -52 -134.5t-100 -85t-134 -29.5q-114 0 -168.5 56t-53.5 150zM200 236q-7 -45 15.5 -77t67.5 -33q37 -1 71 23.5t49 63.5l7 45q-1 38 -23.5 63t-58.5 26q-31 1 -58.5 -13.5t-46 -40t-23.5 -57.5z" />
    <glyph glyph-name="uni0122" unicode="&#x122;" horiz-adv-x="790" 
d="M422 253l24 131l344 -1q-9 -81 -41 -154t-85 -129.5t-125 -89.5t-160 -33q-81 0 -144.5 29t-105.5 80.5t-59 119t-6 144.5q12 80 51 147t97.5 116t132.5 76t156 27q101 0 171.5 -45t113.5 -122l-158 -77q-19 42 -53 68.5t-89 26.5q-60 1 -112.5 -27.5t-87.5 -77.5
t-46 -112q-9 -59 5.5 -110t53.5 -82t101 -32q74 -1 124.5 37.5t80.5 90.5zM299 -84l148 -33l-164 -247l-113 24z" />
    <glyph glyph-name="uni0123" unicode="&#x123;" horiz-adv-x="553" 
d="M330 842l143 -53l-183 -230l-109 39zM-43 -33l143 -1q2 -38 22 -60t62 -23q52 -1 89 35.5t47 91.5l11 62q-30 -32 -69.5 -50.5t-85.5 -18.5q-61 0 -104.5 31t-64 84t-12.5 119q9 69 44.5 121.5t88.5 82t114 29.5q52 0 88 -23.5t55 -63.5l13 77h146l-77 -450
q-12 -79 -51.5 -134.5t-99 -84.5t-133.5 -30q-115 0 -170.5 56t-55.5 150zM152 236q-7 -45 15.5 -77t67.5 -33q28 0 54.5 14t45.5 39.5t24 57.5q7 45 -14.5 77t-62.5 33q-31 1 -59 -13.5t-47 -40t-24 -57.5z" />
    <glyph glyph-name="Hcircumflex" unicode="&#x124;" horiz-adv-x="763" 
d="M506 861l-103 -84l-95 74l212 137l172 -142l-112 -70zM162 700h169l-44 -255h288l43 255h170l-121 -700h-167l49 293h-288l-50 -293h-167z" />
    <glyph glyph-name="hcircumflex" unicode="&#x125;" horiz-adv-x="551" 
d="M361 924l-103 -84l-95 75l212 137l173 -143l-113 -69zM368 280q3 32 -4.5 56.5t-42.5 26.5t-59 -22.5t-33 -56.5l-49 -284h-152l134 780h152l-64 -373q24 31 59 50.5t82 19.5q56 0 86 -22.5t39.5 -62t3.5 -89.5l-51 -303h-151z" />
    <glyph glyph-name="Hbar" unicode="&#x126;" horiz-adv-x="763" 
d="M20 537l19 106h65l10 57h171l-10 -57h285l10 57h171l-10 -57h67l-18 -106h-67l-93 -537h-169l50 293h-286l-51 -293h-169l91 537h-66zM241 445h286l15 92h-285z" />
    <glyph glyph-name="hbar" unicode="&#x127;" horiz-adv-x="551" 
d="M320 280q4 32 -3 56.5t-42 26.5q-36 2 -60.5 -23.5t-32.5 -58.5h-1l-48 -281h-153l103 597h-53l23 131h52l9 52h153l-9 -52h121l-23 -131h-120l-33 -192q23 32 57.5 52t81.5 20q56 1 86.5 -21.5t40.5 -62t4 -90.5l-51 -303h-152z" />
    <glyph glyph-name="Itilde" unicode="&#x128;" horiz-adv-x="311" 
d="M81 845q16 35 49 64t79 27q28 0 46 -13t35.5 -25.5t42.5 -11.5q22 1 40.5 17t34.5 35l60 -76q-13 -19 -35 -39t-49.5 -33t-57.5 -12q-24 1 -44 14.5t-39.5 26.5t-42.5 11q-25 -1 -37.5 -18.5t-18.5 -31.5zM162 700h172l-120 -700h-170z" />
    <glyph glyph-name="itilde" unicode="&#x129;" horiz-adv-x="267" 
d="M17 599q16 35 49 64.5t79 27.5q28 0 46 -13.5t35.5 -26t42.5 -11.5q22 1 40.5 17.5t34.5 35.5l60 -77q-13 -19 -35 -39t-49.5 -33t-57.5 -12q-24 1 -44 14.5t-39.5 26.5t-42.5 11q-25 -1 -37.5 -18.5t-18.5 -31.5zM112 460h147l-80 -460h-145z" />
    <glyph glyph-name="Imacron" unicode="&#x12a;" horiz-adv-x="311" 
d="M79 777l24 132h363l-23 -133zM162 700h172l-120 -700h-170z" />
    <glyph glyph-name="imacron" unicode="&#x12b;" horiz-adv-x="267" 
d="M16 531l23 131h363l-23 -132zM112 460h147l-80 -460h-145z" />
    <glyph glyph-name="Ibreve" unicode="&#x12c;" horiz-adv-x="311" 
d="M125 923h96q0 -24 12 -41t39 -18q28 -1 47.5 17t26.5 41h99q-13 -61 -59 -103t-120 -42t-109.5 42t-31.5 104zM162 700h172l-120 -700h-170z" />
    <glyph glyph-name="ibreve" unicode="&#x12d;" horiz-adv-x="267" 
d="M61 677h95q0 -24 12 -40.5t39 -17.5q28 -1 48 16.5t27 40.5h99q-13 -61 -59 -103t-120 -42t-109.5 42t-31.5 104zM112 460h147l-80 -460h-145z" />
    <glyph glyph-name="Iogonek" unicode="&#x12e;" horiz-adv-x="311" 
d="M172 -109l23 -70q-17 -15 -42 -27t-60 -12q-46 0 -76.5 27t-24.5 74q6 39 36 67.5t68 49.5h-52l118 700h172l-120 -700h-26q-34 -19 -62 -41t-33 -51q-2 -15 4 -25t22 -12q14 -1 28.5 6t24.5 14z" />
    <glyph glyph-name="iogonek" unicode="&#x12f;" horiz-adv-x="267" 
d="M128 634q5 34 34 57.5t63 22.5q35 -1 58.5 -24.5t18.5 -58.5q-4 -34 -33 -57.5t-64 -22.5t-58 25t-19 58zM139 -110l22 -72q-17 -15 -42 -26.5t-60 -11.5q-46 0 -76.5 27t-24.5 74q6 40 38 68.5t71 50.5h-33l78 460h147l-80 -460h-24q-33 -19 -61.5 -42t-33.5 -52
q-1 -15 4 -24.5t21 -11.5q14 -1 29 6t25 14z" />
    <glyph glyph-name="Idotaccent" unicode="&#x130;" horiz-adv-x="311" 
d="M188 860q5 34 34.5 57.5t63.5 22.5q35 -1 58 -24.5t18 -58.5q-4 -34 -33.5 -57.5t-64.5 -22.5t-57.5 25t-18.5 58zM162 700h172l-120 -700h-170z" />
    <glyph glyph-name="dotlessi" unicode="&#x131;" horiz-adv-x="267" 
d="M112 460h147l-80 -460h-145z" />
    <glyph glyph-name="IJ" unicode="&#x132;" horiz-adv-x="607" 
d="M174 -64q14 -13 32.5 -23t39.5 -9q28 1 50.5 23t28.5 58l124 715h181l-128 -754q-11 -63 -47.5 -104t-90 -61t-116.5 -20q-53 0 -99.5 17.5t-81.5 40.5zM162 700h172l-120 -700h-170z" />
    <glyph glyph-name="ij" unicode="&#x133;" horiz-adv-x="528" 
d="M389 634q5 34 34.5 57.5t63.5 22.5q35 -1 58 -24.5t18 -58.5q-4 -34 -33.5 -57.5t-64.5 -22.5t-57.5 25t-18.5 58zM128 634q5 34 34 57.5t63 22.5q35 -1 58.5 -24.5t18.5 -58.5q-4 -34 -33 -57.5t-64 -22.5t-58 25t-19 58zM188 -77q8 -6 19.5 -16t21.5 -10q24 -1 40 20.5
t20 48.5l85 494h145l-90 -533q-13 -73 -63.5 -120t-132.5 -46q-43 0 -71 16.5t-49 35.5zM112 460h147l-80 -460h-145z" />
    <glyph glyph-name="Jcircumflex" unicode="&#x134;" horiz-adv-x="320" 
d="M284 861l-102 -84l-96 74l212 137l173 -142l-113 -70zM-112 -64q14 -13 33 -23t40 -9q28 1 50.5 23t28.5 58l123 715h182l-128 -754q-11 -63 -48 -104t-90.5 -61t-116.5 -20q-53 0 -99.5 17.5t-81.5 40.5z" />
    <glyph glyph-name="jcircumflex" unicode="&#x135;" horiz-adv-x="263" 
d="M212 615l-103 -84l-96 74l213 138l172 -143l-113 -70zM-76 -77q8 -10 17.5 -18t22.5 -8q25 0 40.5 20.5t19.5 48.5l85 494h146l-91 -533q-13 -73 -63 -120t-132 -46q-43 0 -72 16.5t-49 35.5z" />
    <glyph glyph-name="uni0136" unicode="&#x136;" horiz-adv-x="680" 
d="M162 700h176l-46 -269l269 269h204l-337 -332l225 -368h-197l-186 307l-53 -307h-173zM281 -61l148 -34l-164 -247l-114 24z" />
    <glyph glyph-name="uni0137" unicode="&#x137;" horiz-adv-x="561" 
d="M407 460h186l-229 -193l163 -267h-170l-145 236l-40 -236h-145l133 780h146l-82 -476zM209 -61l149 -34l-165 -247l-113 24z" />
    <glyph glyph-name="kgreenlandic" unicode="&#x138;" horiz-adv-x="561" 
d="M105 460h146l-27 -156l183 156h186l-229 -193l163 -267h-170l-145 236l-40 -236h-145z" />
    <glyph glyph-name="Lacute" unicode="&#x139;" horiz-adv-x="513" 
d="M580 924l-197 -147l-82 45l170 156zM163 700h168l-95 -553h273l-25 -147h-441z" />
    <glyph glyph-name="lacute" unicode="&#x13a;" horiz-adv-x="262" 
d="M432 987l-197 -146l-82 44l170 157zM162 780h152l-134 -780h-151z" />
    <glyph glyph-name="uni013B" unicode="&#x13b;" horiz-adv-x="513" 
d="M163 700h168l-95 -553h273l-25 -147h-441zM220 -61l147 -34l-164 -247l-113 24z" />
    <glyph glyph-name="uni013C" unicode="&#x13c;" horiz-adv-x="262" 
d="M162 780h152l-134 -780h-151zM60 -61l148 -34l-165 -247l-112 24z" />
    <glyph glyph-name="Lcaron" unicode="&#x13d;" horiz-adv-x="513" 
d="M494 715l148 -33l-164 -247l-113 24zM163 700h168l-95 -553h273l-25 -147h-441z" />
    <glyph glyph-name="lcaron" unicode="&#x13e;" horiz-adv-x="262" 
d="M162 780h152l-134 -780h-151zM443 779l149 -34l-165 -247l-113 24z" />
    <glyph glyph-name="Ldot" unicode="&#x13f;" horiz-adv-x="513" 
d="M163 700h168l-95 -553h273l-25 -147h-441zM360 432q5 37 36 64.5t70 26.5q40 -1 63 -28.5t18 -64.5q-3 -24 -18.5 -45.5t-38.5 -34t-49 -12.5q-40 1 -62.5 29t-18.5 65z" />
    <glyph glyph-name="ldot" unicode="&#x140;" horiz-adv-x="463" 
d="M162 780h152l-134 -780h-151zM287 410q5 37 36 64.5t70 26.5q40 -1 62.5 -28.5t17.5 -64.5q-4 -37 -35 -65t-70 -27q-40 1 -62.5 29t-18.5 65z" />
    <glyph glyph-name="Lslash" unicode="&#x141;" horiz-adv-x="518" 
d="M33 308l-27 78l115 71l42 243h168l-22 -127l91 56l28 -76l-137 -85l-55 -321h273l-25 -147h-441l60 352z" />
    <glyph glyph-name="lslash" unicode="&#x142;" horiz-adv-x="262" 
d="M21 308l-28 78l114 69l55 325h152l-38 -223l76 46l27 -77l-121 -74l-78 -452h-151l60 349z" />
    <glyph glyph-name="Nacute" unicode="&#x143;" horiz-adv-x="769" 
d="M661 909l-198 -147l-82 45l171 156zM631 700h162l-125 -734l-395 427l-68 -393h-162l125 734l395 -427z" />
    <glyph glyph-name="nacute" unicode="&#x144;" horiz-adv-x="557" 
d="M529 678l-197 -147l-81 45l170 157zM368 280q3 32 -4.5 56.5t-42.5 26.5t-59 -22.5t-33 -56.5l-49 -284h-152l80 460h151l-11 -62q24 32 59 52t83 20q83 0 114 -49t22 -125l-51 -296h-157z" />
    <glyph glyph-name="uni0145" unicode="&#x145;" horiz-adv-x="769" 
d="M631 700h162l-125 -734l-395 427l-68 -393h-162l125 734l395 -427zM313 -55l148 -33l-164 -247l-113 24z" />
    <glyph glyph-name="uni0146" unicode="&#x146;" horiz-adv-x="557" 
d="M368 280q3 32 -4.5 56.5t-42.5 26.5t-59 -22.5t-33 -56.5l-49 -284h-152l80 460h151l-10 -59q24 31 59.5 50t81.5 19q83 0 114 -49t22 -125l-51 -296h-157zM208 -61l148 -34l-164 -247l-114 24z" />
    <glyph glyph-name="Ncaron" unicode="&#x147;" horiz-adv-x="769" 
d="M487 904l102 84l96 -75l-212 -137l-172 143l112 69zM631 700h162l-125 -734l-395 427l-68 -393h-162l125 734l395 -427z" />
    <glyph glyph-name="ncaron" unicode="&#x148;" horiz-adv-x="557" 
d="M360 658l103 84l95 -74l-212 -138l-172 144l112 69zM368 280q3 32 -4.5 56.5t-42.5 26.5t-59 -22.5t-33 -56.5l-49 -284h-152l80 460h151l-10 -59q24 31 59.5 50t81.5 19q83 0 114 -49t22 -125l-51 -296h-157z" />
    <glyph glyph-name="napostrophe" unicode="&#x149;" horiz-adv-x="725" 
d="M198 700h159l-144 -255h-111zM536 280q3 32 -4.5 56.5t-42.5 26.5t-59 -22.5t-33 -56.5l-49 -284h-151l79 460h151l-10 -60q24 32 59 51t82 19q83 0 114 -49t22 -125l-51 -296h-157z" />
    <glyph glyph-name="Omacron" unicode="&#x14c;" horiz-adv-x="796" 
d="M322 777l23 132h364l-23 -133zM64 350q12 78 49.5 144.5t94.5 116.5t129 77.5t152 27.5q79 0 141.5 -28.5t103.5 -79t58.5 -117t6.5 -141.5q-12 -78 -49 -146t-94 -119t-129 -79.5t-154 -28.5q-80 0 -142.5 29.5t-103.5 81.5t-57.5 119.5t-5.5 142.5zM241 350
q-8 -53 5 -101t49 -77.5t95 -30.5q60 0 108.5 28t80.5 76t42 105q9 54 -4 101.5t-49 77.5t-96 30q-59 1 -108 -27.5t-81 -76t-42 -105.5z" />
    <glyph glyph-name="omacron" unicode="&#x14d;" horiz-adv-x="571" 
d="M169 531l22 131h364l-23 -132zM42 230q10 71 52 125t105 84.5t136 30.5q72 0 125.5 -31t79.5 -85.5t16 -123.5q-10 -70 -52 -124.5t-105.5 -85t-136.5 -30.5q-72 0 -125 31.5t-79 85.5t-16 123zM196 230q-7 -44 13.5 -78.5t65.5 -35.5q31 0 57.5 15t45.5 41.5t24 57.5
q7 44 -14 78.5t-66 35.5q-30 1 -57 -14.5t-45 -41.5t-24 -58z" />
    <glyph glyph-name="Obreve" unicode="&#x14e;" horiz-adv-x="796" 
d="M368 923h96q0 -24 11.5 -41t38.5 -18q28 -1 48 17t27 41h100q-13 -61 -60 -103t-121 -42t-109 42t-31 104zM64 350q12 78 49.5 144.5t94.5 116.5t129 77.5t152 27.5q79 0 141.5 -28.5t103.5 -79t58.5 -117t6.5 -141.5q-12 -78 -49 -146t-94 -119t-129 -79.5t-154 -28.5
q-80 0 -142.5 29.5t-103.5 81.5t-57.5 119.5t-5.5 142.5zM241 350q-8 -53 5 -101t49 -77.5t95 -30.5q60 0 108.5 28t80.5 76t42 105q9 54 -4 101.5t-49 77.5t-96 30q-59 1 -108 -27.5t-81 -76t-42 -105.5z" />
    <glyph glyph-name="obreve" unicode="&#x14f;" horiz-adv-x="571" 
d="M214 677h96q0 -24 11.5 -40.5t38.5 -17.5q28 -1 48 16.5t27 40.5h99q-13 -61 -59.5 -103t-120.5 -42t-109 42t-31 104zM42 230q10 71 52 125t105 84.5t136 30.5q72 0 125.5 -31t79.5 -85.5t16 -123.5q-10 -70 -52 -124.5t-105.5 -85t-136.5 -30.5q-72 0 -125 31.5
t-79 85.5t-16 123zM196 230q-7 -44 13.5 -78.5t65.5 -35.5q31 0 57.5 15t45.5 41.5t24 57.5q7 44 -14 78.5t-66 35.5q-30 1 -57 -14.5t-45 -41.5t-24 -58z" />
    <glyph glyph-name="OE" unicode="&#x152;" horiz-adv-x="955" 
d="M919 140l-23 -140h-539q-75 2 -133.5 29t-98 74.5t-55.5 110.5t-6 136q12 75 47 138.5t88.5 110.5t121.5 73.5t144 27.5h551l-25 -140h-292l-22 -124h275l-24 -137h-274l-28 -159h293zM403 150h63l68 400h-53q-99 -2 -162.5 -54t-80.5 -146q-15 -90 26.5 -144t138.5 -56z
" />
    <glyph glyph-name="oe" unicode="&#x153;" horiz-adv-x="873" 
d="M45 230q10 68 46.5 122.5t91.5 86t120 31.5q70 0 109 -38.5t51 -98.5q34 60 92 99t131 38q60 0 100 -33.5t57.5 -87t10.5 -115.5q-1 -7 -3.5 -17.5t-4.5 -18.5v0v-1l-338 1q0 -40 17.5 -69.5t60.5 -30.5q39 -1 67.5 17.5t51.5 43.5l131 -35q-25 -36 -61.5 -66.5t-81 -49
t-94.5 -18.5q-68 1 -109.5 39t-55.5 95q-30 -60 -81.5 -97t-120.5 -37q-65 0 -110 32.5t-65.5 87.5t-11.5 120zM638 367q-39 2 -69.5 -22.5t-43.5 -63.5h176q1 34 -12.5 59t-50.5 27zM193 230q-7 -46 13 -79.5t66 -34.5q45 -1 78.5 32t40.5 82q6 45 -11 79t-61 35
q-46 2 -82 -31.5t-44 -82.5z" />
    <glyph glyph-name="Racute" unicode="&#x154;" horiz-adv-x="628" 
d="M588 924l-197 -147l-82 45l170 156zM162 700h246q79 -1 135 -29.5t82 -79.5t15 -120q-12 -75 -57.5 -128t-116.5 -79l131 -264h-191l-104 242h-50l-41 -242h-167zM380 555h-74l-31 -181h65q47 2 82 25t43 66q8 41 -16 65t-69 25z" />
    <glyph glyph-name="racute" unicode="&#x155;" horiz-adv-x="399" 
d="M473 678l-197 -146l-81 45l170 156zM360 303q-11 11 -23 18t-29 7q-34 1 -57 -25.5t-33 -62.5l-41 -240h-149l80 460h148l-9 -50q24 28 54 45t64 16q25 0 44.5 -11.5t33.5 -28.5z" />
    <glyph glyph-name="uni0156" unicode="&#x156;" horiz-adv-x="628" 
d="M162 700h246q79 -1 135 -29.5t82 -79.5t15 -120q-12 -75 -57.5 -128t-116.5 -79l131 -264h-191l-104 242h-50l-41 -242h-167zM380 555h-74l-31 -181h65q47 2 82 25t43 66q8 41 -16 65t-69 25zM277 -61l148 -34l-164 -247l-113 24z" />
    <glyph glyph-name="uni0157" unicode="&#x157;" horiz-adv-x="399" 
d="M360 303q-11 11 -23 18t-29 7q-34 1 -57 -25.5t-33 -62.5l-41 -240h-149l80 460h148l-8 -49q23 28 53 44.5t64 15.5q25 0 44.5 -11.5t33.5 -28.5zM59 -61l147 -34l-163 -247l-113 24z" />
    <glyph glyph-name="Rcaron" unicode="&#x158;" horiz-adv-x="628" 
d="M428 903l103 85l95 -74l-212 -138l-173 143l113 70zM162 700h246q79 -1 135 -29.5t82 -79.5t15 -120q-12 -75 -57.5 -128t-116.5 -79l131 -264h-191l-104 242h-50l-41 -242h-167zM380 555h-74l-31 -181h65q47 2 82 25t43 66q8 41 -16 65t-69 25z" />
    <glyph glyph-name="rcaron" unicode="&#x159;" horiz-adv-x="399" 
d="M308 659l103 84l95 -75l-212 -137l-173 143l114 69zM360 303q-11 11 -23 18t-29 7q-34 1 -57 -25.5t-33 -62.5l-41 -240h-149l80 460h148l-8 -49q23 28 53 44.5t64 15.5q25 0 44.5 -11.5t33.5 -28.5z" />
    <glyph glyph-name="Sacute" unicode="&#x15a;" horiz-adv-x="607" 
d="M619 924l-197 -147l-82 45l170 156zM162 251q24 -54 55.5 -89.5t86.5 -35.5q37 0 63.5 17.5t33.5 50.5q6 30 -11 48.5t-46 32t-60 26.5q-39 18 -76.5 46t-59.5 70.5t-15 101.5q10 61 48.5 105t96 68t124.5 24q95 0 152.5 -44.5t76.5 -109.5l-135 -73q-17 35 -40 58
t-62 24q-32 0 -59 -16t-32 -43q-4 -19 7.5 -34t33 -26.5t46.5 -20.5t47 -18q71 -28 111.5 -82t29.5 -135q-10 -70 -51 -119t-104 -74.5t-139 -25.5q-93 0 -160 53t-91 138z" />
    <glyph glyph-name="sacute" unicode="&#x15b;" horiz-adv-x="442" 
d="M483 678l-197 -147l-82 45l171 157zM80 174q36 -37 69 -56.5t65 -19.5q18 0 34 8t19 24q3 17 -15.5 28.5t-44.5 20t-45 17.5q-43 21 -71.5 54.5t-21.5 86.5q7 44 36.5 73.5t72.5 44.5t89 15q56 0 103 -19.5t83 -49.5l-67 -98q-25 25 -56.5 40.5t-62.5 15.5
q-19 0 -36 -6.5t-19 -22.5q-2 -15 15 -25.5t42 -19t44 -16.5q47 -19 79 -51.5t25 -87.5q-9 -75 -63 -112t-131 -37q-69 0 -124.5 26.5t-95.5 68.5z" />
    <glyph glyph-name="Scircumflex" unicode="&#x15c;" horiz-adv-x="607" 
d="M436 861l-103 -84l-95 74l212 137l172 -142l-112 -70zM162 251q24 -54 55.5 -89.5t86.5 -35.5q37 0 63.5 17.5t33.5 50.5q6 30 -11 48.5t-46 32t-60 26.5q-39 18 -76.5 46t-59.5 70.5t-15 101.5q10 61 48.5 105t96 68t124.5 24q95 0 152.5 -44.5t76.5 -109.5l-135 -73
q-17 35 -40 58t-62 24q-32 0 -59 -16t-32 -43q-4 -19 7.5 -34t33 -26.5t46.5 -20.5t47 -18q71 -28 111.5 -82t29.5 -135q-10 -70 -51 -119t-104 -74.5t-139 -25.5q-93 0 -160 53t-91 138z" />
    <glyph glyph-name="scircumflex" unicode="&#x15d;" horiz-adv-x="442" 
d="M312 615l-102 -84l-96 74l212 138l173 -143l-113 -70zM80 174q36 -37 69 -56.5t65 -19.5q18 0 34 8t19 24q3 17 -15.5 28.5t-44.5 20t-45 17.5q-43 21 -71.5 54.5t-21.5 86.5q7 44 36.5 73.5t72.5 44.5t89 15q56 0 103 -19.5t83 -49.5l-67 -98q-25 25 -56.5 40.5
t-62.5 15.5q-19 0 -36 -6.5t-19 -22.5q-2 -15 15 -25.5t42 -19t44 -16.5q47 -19 79 -51.5t25 -87.5q-9 -75 -63 -112t-131 -37q-69 0 -124.5 26.5t-95.5 68.5z" />
    <glyph glyph-name="Scedilla" unicode="&#x15e;" horiz-adv-x="607" 
d="M162 251q24 -54 55.5 -89.5t86.5 -35.5q37 0 63.5 17.5t33.5 50.5q6 30 -11 48.5t-46 32t-60 26.5q-39 18 -77 45.5t-60 69.5t-15 102q10 61 48 105t96 68.5t126 24.5q96 0 152 -44t77 -110l-135 -73q-17 35 -42 58.5t-64 23.5q-32 0 -57 -16.5t-30 -42.5q-4 -19 7.5 -34
t33 -26.5t46.5 -20.5t47 -18q71 -28 111.5 -82t29.5 -135q-10 -67 -48 -114.5t-96.5 -74t-128.5 -29.5l-38 -43q8 2 16 2.5t17 0.5q35 -2 59 -29t19 -70q-5 -34 -27 -58t-53 -36t-63 -13q-40 -1 -73 9t-66 31l53 67q17 -12 37 -18.5t36 -6.5q20 0 40.5 10t21.5 27
q2 18 -16 24.5t-35 6.5q-14 1 -38 -3t-48 -12l70 118q-68 17 -116.5 65.5t-67.5 117.5z" />
    <glyph glyph-name="scedilla" unicode="&#x15f;" horiz-adv-x="442" 
d="M78 175q39 -38 73 -60t64 -21q17 0 33.5 10t18.5 26q3 19 -9.5 30.5t-32 19.5t-38.5 15q-31 13 -57.5 31t-40.5 45.5t-9 67.5q7 43 34 72t67.5 44t85.5 15q56 0 102 -19.5t84 -49.5l-67 -97q-23 25 -52.5 43t-59.5 18q-19 0 -36 -7.5t-20 -22.5q-4 -18 11.5 -29.5
t39.5 -19t44 -15.5q47 -19 79 -52t25 -89q-8 -71 -56.5 -108t-117.5 -41l-39 -43q13 4 32 4q35 -2 59 -29t19 -70q-4 -34 -26.5 -58t-53.5 -36t-63 -13q-39 -1 -72.5 9t-66.5 31l53 67q36 -25 72 -25q20 0 41 9.5t22 26.5q2 18 -16 25t-35 7q-14 1 -37.5 -3.5t-47.5 -12.5
l71 119q-44 11 -81.5 34t-70.5 53z" />
    <glyph glyph-name="Scaron" unicode="&#x160;" horiz-adv-x="607" 
d="M436 903l102 85l96 -74l-213 -138l-172 143l113 70zM162 251q24 -54 55.5 -89.5t86.5 -35.5q37 0 63.5 17.5t33.5 50.5q6 30 -11 48.5t-46 32t-60 26.5q-39 18 -76.5 46t-59.5 70.5t-15 101.5q10 61 48.5 105t96 68t124.5 24q95 0 152.5 -44.5t76.5 -109.5l-135 -73
q-17 35 -40 58t-62 24q-32 0 -59 -16t-32 -43q-4 -19 7.5 -34t33 -26.5t46.5 -20.5t47 -18q71 -28 111.5 -82t29.5 -135q-10 -70 -51 -119t-104 -74.5t-139 -25.5q-93 0 -160 53t-91 138z" />
    <glyph glyph-name="scaron" unicode="&#x161;" horiz-adv-x="442" 
d="M298 645l103 85l95 -75l-213 -137l-172 143l113 69zM80 174q36 -37 69 -56.5t65 -19.5q18 0 34 8t19 24q3 17 -15.5 28.5t-44.5 20t-45 17.5q-43 21 -71.5 54.5t-21.5 86.5q7 44 36.5 73.5t72.5 44.5t89 15q56 0 103 -19.5t83 -49.5l-67 -98q-25 25 -56.5 40.5
t-62.5 15.5q-19 0 -36 -6.5t-19 -22.5q-2 -15 15 -25.5t42 -19t44 -16.5q47 -19 79 -51.5t25 -87.5q-9 -75 -63 -112t-131 -37q-69 0 -124.5 26.5t-95.5 68.5z" />
    <glyph glyph-name="Tcaron" unicode="&#x164;" horiz-adv-x="545" 
d="M396 903l103 85l95 -74l-212 -138l-171 143l112 70zM68 547l27 153h542l-26 -153h-187l-94 -547h-168l94 547h-188z" />
    <glyph glyph-name="tcaron" unicode="&#x165;" horiz-adv-x="471" 
d="M475 785l148 -34l-164 -247l-114 25zM56 460h78l27 160h145l-28 -160h80l-22 -126h-79l-58 -334h-144l57 334h-79z" />
    <glyph glyph-name="Utilde" unicode="&#x168;" horiz-adv-x="680" 
d="M218 845q0 24 21.5 45t51.5 34.5t54 12.5q28 0 46 -13.5t35 -26t42 -11.5q22 1 40 17t34 35l64 -77q-12 -19 -34 -38.5t-49 -32.5t-57 -12q-24 1 -44 14.5t-39.5 26.5t-42.5 11q-25 -1 -37.5 -18.5t-19.5 -31.5zM110 700h170l-81 -457q-4 -30 2 -57.5t25 -44t55 -17.5
q55 -1 88.5 34.5t43.5 84.5l79 457h170l-80 -470q-13 -81 -57 -139t-110 -89t-146 -31q-77 0 -135 31t-86 89t-18 139z" />
    <glyph glyph-name="utilde" unicode="&#x169;" horiz-adv-x="557" 
d="M114 599q15 35 48 64t79 28q28 0 46 -13.5t35.5 -26t42.5 -11.5q22 1 40 17.5t34 35.5l63 -78q-12 -19 -33.5 -38.5t-48.5 -32.5t-57 -12q-24 1 -44.5 14.5t-40 26.5t-42.5 11q-25 -1 -37 -18.5t-19 -31.5zM168 180q-4 -31 3.5 -56t41.5 -27q35 -2 59.5 22.5t33.5 56.5
l49 284h153l-80 -460h-152l11 62q-24 -32 -58.5 -52t-81.5 -20q-82 -1 -114 48.5t-23 125.5l50 296h158z" />
    <glyph glyph-name="Umacron" unicode="&#x16a;" horiz-adv-x="680" 
d="M216 777l23 131h365l-23 -131h-365zM110 700h170l-81 -457q-4 -30 2 -57.5t25 -44t55 -17.5q55 -1 88.5 34.5t43.5 84.5l79 457h170l-80 -470q-13 -81 -57 -139t-110 -89t-146 -31q-77 0 -135 31t-86 89t-18 139z" />
    <glyph glyph-name="umacron" unicode="&#x16b;" horiz-adv-x="557" 
d="M113 531l23 131h365l-23 -131h-365zM168 180q-4 -31 3.5 -56t41.5 -27q35 -2 59.5 22.5t33.5 56.5l49 284h153l-80 -460h-152l11 62q-24 -32 -58.5 -52t-81.5 -20q-82 -1 -114 48.5t-23 125.5l50 296h158z" />
    <glyph glyph-name="Ubreve" unicode="&#x16c;" horiz-adv-x="680" 
d="M261 923l96 -1q0 -23 11 -40t38 -18q28 -1 48 17t27 41l102 -1q-13 -61 -58.5 -102.5t-119.5 -41.5t-111 41.5t-33 104.5zM110 700h170l-81 -457q-4 -30 2 -57.5t25 -44t55 -17.5q55 -1 88.5 34.5t43.5 84.5l79 457h170l-80 -470q-13 -81 -57 -139t-110 -89t-146 -31
q-77 0 -135 31t-86 89t-18 139z" />
    <glyph glyph-name="ubreve" unicode="&#x16d;" horiz-adv-x="557" 
d="M158 677l96 -1q0 -23 11 -39.5t38 -17.5q28 -1 48 16.5t27 40.5l101 -1q-13 -61 -58 -102.5t-119 -41.5t-111 41.5t-33 104.5zM168 180q-4 -31 3.5 -56t41.5 -27q35 -2 59.5 22.5t33.5 56.5l49 284h153l-80 -460h-152l11 62q-24 -32 -58.5 -52t-81.5 -20
q-82 -1 -114 48.5t-23 125.5l50 296h158z" />
    <glyph glyph-name="Uring" unicode="&#x16e;" horiz-adv-x="680" 
d="M343 893q5 33 25 58.5t50 40.5t63 15q34 0 60 -15t39.5 -41.5t8.5 -59.5q-4 -33 -24.5 -58.5t-50.5 -40.5t-64 -15q-33 0 -59 15.5t-39 42t-9 58.5zM420 891q-2 -17 8 -31t27 -15q18 -1 36 14t20 34q2 17 -8 31.5t-27 15.5q-18 2 -36 -14t-20 -35zM158 700h168l-80 -457
q-4 -31 2.5 -58t26 -43.5t55.5 -17.5q55 -1 88 34.5t43 84.5l80 457h168l-80 -470q-13 -81 -57.5 -139t-111 -89t-146.5 -31q-78 0 -134.5 31t-84 89t-17.5 139z" />
    <glyph glyph-name="uring" unicode="&#x16f;" horiz-adv-x="557" 
d="M239 648q5 33 25 58.5t50.5 40.5t63.5 15q50 0 82 -33t25 -83q-4 -33 -24.5 -59t-50.5 -41t-64 -15q-33 0 -59 15.5t-39 42.5t-9 59zM317 646q-2 -17 7.5 -31t26.5 -15q18 -1 36.5 13.5t20.5 33.5q2 17 -8 31.5t-27 15.5q-18 2 -36 -13.5t-20 -34.5zM215 180
q-3 -32 4.5 -56.5t42.5 -26.5t59 22.5t33 56.5l49 284h151l-79 -460h-151l11 63q-24 -33 -59 -53t-83 -20q-82 0 -113.5 49t-22.5 125l51 296h157z" />
    <glyph glyph-name="Wcircumflex" unicode="&#x174;" horiz-adv-x="1034" 
d="M643 882l-103 -84l-96 74l212 137l173 -142l-113 -70zM731 290l192 410h203l-416 -744l-150 420l-289 -421l-175 745h196l58 -409l263 447z" />
    <glyph glyph-name="wcircumflex" unicode="&#x175;" horiz-adv-x="739" 
d="M454 642l-102 -84l-96 74l211 137l173 -143l-113 -69zM45 460h153l52 -231l175 269l83 -270l133 232h162l-318 -491l-100 271l-193 -271z" />
    <glyph glyph-name="Ycircumflex" unicode="&#x176;" horiz-adv-x="641" 
d="M440 861l-103 -84l-96 75l211 137l174 -143l-113 -70zM542 700h198l-312 -419l-48 -281h-172l51 289l-167 411h189l86 -258z" />
    <glyph glyph-name="ycircumflex" unicode="&#x177;" horiz-adv-x="506" 
d="M337 615l-103 -84l-96 75l212 137l173 -143l-113 -70zM572 460l-408 -680h-157l158 262l-122 418h161l59 -268l149 268h160z" />
    <glyph glyph-name="Ydieresis" unicode="&#x178;" horiz-adv-x="641" 
d="M219 870q5 34 34 58t63 23q35 -1 58.5 -24.5t18.5 -58.5q-4 -34 -34 -57.5t-65 -22.5t-57 24.5t-18 57.5zM493 870q5 34 34 58t63 23q35 -1 58 -24.5t18 -58.5q-4 -34 -33.5 -57.5t-64.5 -22.5t-57 24.5t-18 57.5zM542 700h197l-311 -419l-48 -281h-171l50 288l-167 412
h189l86 -259z" />
    <glyph glyph-name="Zacute" unicode="&#x179;" horiz-adv-x="602" 
d="M622 924l-197 -147l-82 45l170 156zM120 547l27 153h538l-414 -553h284l-27 -147h-550l410 546z" />
    <glyph glyph-name="zacute" unicode="&#x17a;" horiz-adv-x="507" 
d="M533 685l-197 -147l-81 46l170 156zM272 321l-190 1l24 138h443l-278 -321l189 -1l-24 -138h-453z" />
    <glyph glyph-name="Zdotaccent" unicode="&#x17b;" horiz-adv-x="602" 
d="M355 860q5 34 34.5 57.5t63.5 22.5q35 -1 58 -24.5t18 -58.5q-4 -34 -33.5 -57.5t-64.5 -22.5t-57.5 25t-18.5 58zM120 547l27 153h538l-414 -553h284l-27 -147h-550l410 546z" />
    <glyph glyph-name="zdotaccent" unicode="&#x17c;" horiz-adv-x="507" 
d="M267 625q5 34 34.5 58t63.5 23q35 -1 58 -24.5t18 -58.5q-4 -34 -33 -58t-64 -23t-58 25t-19 58zM272 321l-190 1l24 138h443l-278 -321l189 -1l-24 -138h-453z" />
    <glyph glyph-name="Zcaron" unicode="&#x17d;" horiz-adv-x="602" 
d="M445 903l103 85l96 -74l-212 -138l-173 143l113 70zM120 547l27 153h538l-414 -553h284l-27 -147h-550l410 546z" />
    <glyph glyph-name="zcaron" unicode="&#x17e;" horiz-adv-x="500" 
d="M356 658l103 84l95 -75l-212 -137l-173 143l114 69zM273 321l-191 1l24 138h443l-279 -321h190l-24 -139h-453z" />
    <glyph glyph-name="uni0212" unicode="&#x212;" horiz-adv-x="628" 
d="M263 776q17 61 65 104t124 42q74 -1 105 -43.5t23 -102.5h-94q-1 26 -13.5 42t-41.5 17q-28 1 -46.5 -17t-26.5 -41zM162 700h246q79 -1 135 -29.5t82 -79.5t15 -120q-12 -75 -57.5 -128t-116.5 -79l131 -264h-191l-104 242h-50l-41 -242h-167zM380 555h-74l-31 -181h65
q47 2 82 25t43 66q8 41 -16 65t-69 25z" />
    <glyph glyph-name="uni0213" unicode="&#x213;" horiz-adv-x="399" 
d="M130 530q12 41 37 74.5t63.5 53.5t89.5 19q74 -1 104.5 -43.5t22.5 -102.5h-94q-1 26 -13.5 42t-41.5 17q-28 1 -46.5 -17.5t-26.5 -41.5zM360 303q-11 11 -23 18t-29 7q-34 1 -57 -25.5t-33 -62.5l-41 -240h-149l80 460h148l-8 -49q23 28 53 44.5t64 15.5
q25 0 44.5 -11.5t33.5 -28.5z" />
    <glyph glyph-name="uni0218" unicode="&#x218;" horiz-adv-x="607" 
d="M162 251q24 -54 55.5 -89.5t86.5 -35.5q37 0 63.5 17.5t33.5 50.5q6 30 -11 48.5t-46 32t-60 26.5q-39 18 -76.5 46t-59.5 70.5t-15 101.5q10 61 48.5 105t96 68t124.5 24q95 0 152.5 -44.5t76.5 -109.5l-135 -73q-17 35 -40 58t-62 24q-32 0 -59 -16t-32 -43
q-4 -19 7.5 -34t33 -26.5t46.5 -20.5t47 -18q71 -28 111.5 -82t29.5 -135q-10 -70 -51 -119t-104 -74.5t-139 -25.5q-93 0 -160 53t-91 138zM211 -71l150 -34l-166 -247l-113 24z" />
    <glyph glyph-name="uni0219" unicode="&#x219;" horiz-adv-x="442" 
d="M80 174q36 -37 69 -56.5t65 -19.5q18 0 34 8t19 24q3 17 -15.5 28.5t-44.5 20t-45 17.5q-43 21 -71.5 54.5t-21.5 86.5q7 44 36.5 73.5t72.5 44.5t89 15q56 0 103 -19.5t83 -49.5l-67 -98q-25 25 -56.5 40.5t-62.5 15.5q-19 0 -36 -6.5t-19 -22.5q-2 -15 15 -25.5t42 -19
t44 -16.5q47 -19 79 -51.5t25 -87.5q-9 -75 -63 -112t-131 -37q-69 0 -124.5 26.5t-95.5 68.5zM151 -68l148 -34l-164 -247l-113 25z" />
    <glyph glyph-name="uni021A" unicode="&#x21a;" horiz-adv-x="545" 
d="M68 547l27 153h542l-26 -153h-187l-94 -547h-168l94 547h-188zM200 -60l148 -34l-164 -247l-113 24z" />
    <glyph glyph-name="uni021B" unicode="&#x21b;" horiz-adv-x="309" 
d="M56 460h78l27 160h145l-28 -160h81l-23 -126h-79l-58 -334h-144l57 334h-79zM81 -60l148 -34l-164 -247l-113 24z" />
    <glyph glyph-name="uni0237" unicode="&#x237;" horiz-adv-x="263" 
d="M-76 -77q8 -10 17.5 -18t22.5 -8q25 0 40.5 20.5t19.5 48.5l85 494h146l-91 -533q-13 -73 -63 -120t-132 -46q-43 0 -72 16.5t-49 35.5z" />
    <glyph glyph-name="circumflex" unicode="&#x2c6;" horiz-adv-x="465" 
d="M316 628l-102 -84l-96 74l213 137l172 -142l-113 -70z" />
    <glyph glyph-name="caron" unicode="&#x2c7;" horiz-adv-x="465" 
d="M318 678l103 84l95 -74l-213 -138l-172 143l113 70z" />
    <glyph glyph-name="breve" unicode="&#x2d8;" horiz-adv-x="529" 
d="M218 850h96q1 -24 12.5 -40.5t38.5 -17.5q28 -1 47.5 17t26.5 41l100 -1q-13 -61 -59 -103t-120 -42q-73 0 -109 42t-33 104z" />
    <glyph glyph-name="dotaccent" unicode="&#x2d9;" horiz-adv-x="291" 
d="M170 815q5 34 34.5 57.5t63.5 22.5q35 -1 58 -24.5t18 -58.5q-4 -34 -33.5 -57.5t-64.5 -22.5t-57.5 25t-18.5 58z" />
    <glyph glyph-name="ring" unicode="&#x2da;" horiz-adv-x="317" 
d="M141 770q5 33 25 58.5t50 40.5t63 15q50 0 82 -33t25 -83q-4 -33 -24.5 -58.5t-50.5 -40.5t-64 -15q-50 0 -81.5 33.5t-24.5 82.5zM218 768q-2 -17 7.5 -31t26.5 -15q18 -1 36 14t20 34q2 17 -8 31.5t-27 15.5q-18 2 -35.5 -14t-19.5 -35z" />
    <glyph glyph-name="ogonek" unicode="&#x2db;" horiz-adv-x="252" 
d="M153 -110l23 -71q-17 -15 -41.5 -27t-59.5 -12q-46 0 -76.5 27t-25.5 74q5 35 29 61t58 46.5t67 36.5l40 -25q-32 -19 -60 -42t-33 -52q-3 -33 27 -36q14 -1 28 6t24 14z" />
    <glyph glyph-name="tilde" unicode="&#x2dc;" horiz-adv-x="514" 
d="M152 639q15 35 48.5 65t79.5 28q28 0 46.5 -13.5t36 -26t42.5 -11.5q22 1 39 17t33 35l63 -76q-13 -19 -34.5 -39t-49 -33t-57.5 -12q-24 1 -44.5 14.5t-40 26.5t-43.5 11q-25 -1 -36.5 -18.5t-17.5 -31.5z" />
    <glyph glyph-name="pi" unicode="&#x3c0;" horiz-adv-x="585" 
d="M80 460h520l-22 -126h-78l-28 -156q-4 -40 6 -51.5t35 -17.5l-18 -117q-55 1 -96.5 9t-62 35t-13.5 85l37 213h-102l-58 -334h-141l57 334h-59z" />
    <glyph glyph-name="uni0400" unicode="&#x400;" horiz-adv-x="533" 
d="M257 930l118 50l122 -165l-85 -39zM161 700h459l-25 -140h-293l-22 -124h275l-24 -137h-274l-28 -159h295l-24 -140h-458z" />
    <glyph glyph-name="uni0401" unicode="&#x401;" horiz-adv-x="533" 
d="M453 860q4 34 33 57.5t63 22.5q35 -1 59.5 -24.5t19.5 -58.5q-4 -34 -33 -57.5t-64 -22.5t-58.5 24.5t-19.5 58.5zM216 860q4 34 33 57.5t63 22.5q35 -1 59.5 -24.5t19.5 -58.5q-4 -34 -33 -57.5t-64 -22.5t-58.5 24.5t-19.5 58.5zM161 700h459l-25 -140h-293l-22 -124
h275l-24 -137h-274l-28 -159h295l-24 -140h-458z" />
    <glyph glyph-name="uni0403" unicode="&#x403;" horiz-adv-x="492" 
d="M581 922l-195 -145l-84 46l169 155zM167 700h411l-26 -153h-240l-95 -547h-169z" />
    <glyph glyph-name="uni040C" unicode="&#x40c;" horiz-adv-x="548" 
d="M621 909l-195 -145l-84 47l168 155zM161 700h178l-46 -265l266 265h208l-339 -334l224 -366h-195l-186 308l-54 -308h-175z" />
    <glyph glyph-name="uni040D" unicode="&#x40d;" horiz-adv-x="769" 
d="M359 911l116 50l122 -164l-84 -39zM326 700l-65 -377l543 422l-130 -745h-164l65 377l-543 -421l130 744h164z" />
    <glyph glyph-name="uni040E" unicode="&#x40e;" horiz-adv-x="587" 
d="M261 923l96 -1q0 -23 12 -40t38 -18q28 -1 47.5 17t26.5 41l102 -1q-12 -61 -58 -103t-120 -42t-110.5 42t-33.5 105zM695 700l-439 -700h-173l134 220l-133 480h177l63 -322l195 322h176z" />
    <glyph glyph-name="uni0410" unicode="&#x410;" horiz-adv-x="713" 
d="M502 0l-42 134h-210l-86 -134h-198l490 748l231 -748h-185zM410 441l-106 -178h148z" />
    <glyph glyph-name="uni0411" unicode="&#x411;" horiz-adv-x="653" 
d="M167 700h492l-24 -140h-318l-21 -124h129q64 0 113 -28.5t74 -77t16 -111.5t-46.5 -112.5t-94 -77.5t-122.5 -29h-317zM377 299h-105l-27 -159h97q44 1 75.5 20.5t39.5 59.5q8 38 -15 58t-65 21z" />
    <glyph glyph-name="uni0412" unicode="&#x412;" horiz-adv-x="646" 
d="M613 196q-9 -70 -50.5 -112.5t-104.5 -62.5t-138 -21h-277l120 700h246q62 -1 115.5 -20t83.5 -58.5t21 -100.5q-7 -55 -42.5 -91.5t-87.5 -56.5q55 -22 89 -65.5t25 -111.5zM380 568h-68l-26 -146h58q40 1 70.5 20t36.5 55q6 34 -14 52t-57 19zM234 132h76q47 2 86 21.5
t47 67.5q8 44 -20.5 62t-71.5 19l-86 1z" />
    <glyph glyph-name="uni0413" unicode="&#x413;" horiz-adv-x="492" 
d="M167 700h411l-26 -153h-240l-95 -547h-169z" />
    <glyph glyph-name="uni0414" unicode="&#x414;" horiz-adv-x="856" 
d="M621 0h-441l-20 -110h-170l45 257h107l381 592l177 -592h114l-44 -257h-169zM474 423l-144 -276h194z" />
    <glyph glyph-name="uni0415" unicode="&#x415;" horiz-adv-x="586" 
d="M162 700h459l-25 -140h-293l-22 -124h275l-24 -137h-274l-28 -159h295l-24 -140h-457z" />
    <glyph glyph-name="uni0416" unicode="&#x416;" horiz-adv-x="1055" 
d="M296 700l190 -281l48 281h177l-46 -266l264 266h213l-346 -334l231 -366h-194l-188 316l-54 -316h-176l52 306l-295 -306h-207l367 378l-223 322h187z" />
    <glyph glyph-name="uni0417" unicode="&#x417;" horiz-adv-x="649" 
d="M321 -16q-90 0 -152 30.5t-91.5 84.5t-23.5 124l163 -1q-1 -49 27 -74.5t80 -26.5q51 -1 91.5 20.5t49.5 66.5q9 35 -10 56t-54.5 31t-79.5 11l11 86v0l3 23q59 2 105.5 23t55.5 65q6 34 -16 53.5t-63 20.5q-50 1 -82.5 -23t-44.5 -60l-157 1q12 65 51 114t100.5 76.5
t141.5 27.5q73 0 130.5 -23.5t88 -67t20.5 -104.5q-9 -60 -52.5 -97t-104.5 -56q59 -22 94.5 -63.5t25.5 -110.5q-9 -66 -51.5 -112.5t-108 -70.5t-147.5 -24z" />
    <glyph glyph-name="uni0418" unicode="&#x418;" horiz-adv-x="769" 
d="M326 700l-65 -377l543 422l-130 -745h-164l65 377l-543 -421l130 744h164z" />
    <glyph glyph-name="uni0419" unicode="&#x419;" horiz-adv-x="769" 
d="M363 922h96q1 -24 13 -41t39 -18q28 -1 47 17t26 41h100q-13 -61 -58.5 -103t-119.5 -42q-73 0 -109.5 42t-33.5 104zM326 700l-65 -377l543 422l-130 -745h-164l65 377l-543 -421l130 744h164z" />
    <glyph glyph-name="uni041A" unicode="&#x41a;" horiz-adv-x="682" 
d="M161 700h178l-46 -265l266 265h208l-339 -334l224 -366h-195l-186 308l-54 -308h-175z" />
    <glyph glyph-name="uni041B" unicode="&#x41b;" horiz-adv-x="748" 
d="M766 700l-120 -700h-173l94 547h-219l-43 -250q-23 -141 -99.5 -216t-221.5 -80l19 142q53 7 85.5 46t42.5 98l71 413h564z" />
    <glyph glyph-name="uni041C" unicode="&#x41c;" horiz-adv-x="866" 
d="M285 353l-102 -353h-181l237 736l216 -424l370 431l-18 -743h-177l19 345l-229 -282z" />
    <glyph glyph-name="uni041D" unicode="&#x41d;" horiz-adv-x="763" 
d="M161 700h171l-44 -255h286l43 255h171l-121 -700h-168l49 293h-286l-51 -293h-169z" />
    <glyph glyph-name="uni041E" unicode="&#x41e;" horiz-adv-x="796" 
d="M63 350q11 78 48.5 144.5t94.5 116.5t128.5 77.5t151.5 27.5q79 0 141.5 -28.5t104.5 -79t60 -116.5t7 -142q-11 -78 -47.5 -146t-93.5 -119t-129 -79.5t-154 -28.5q-80 0 -142.5 29.5t-104 81t-58.5 119t-7 143.5zM242 350q-8 -53 4.5 -100.5t47.5 -77.5t94 -31
q60 0 109 28.5t81.5 76t42.5 104.5q9 54 -3.5 101.5t-48 77.5t-95.5 30q-59 1 -108 -28t-81.5 -76.5t-42.5 -104.5z" />
    <glyph glyph-name="uni041F" unicode="&#x41f;" horiz-adv-x="748" 
d="M568 547h-253l-94 -547h-173l120 700h599l-121 -700h-172z" />
    <glyph glyph-name="uni0420" unicode="&#x420;" horiz-adv-x="607" 
d="M162 700h232q79 -1 135.5 -28.5t83.5 -78.5t16 -123q-16 -108 -96 -167t-202 -61h-76l-42 -242h-169zM383 559l-74 1l-30 -178h61q47 1 82.5 24t44.5 66q8 41 -15.5 63.5t-68.5 23.5z" />
    <glyph glyph-name="uni0421" unicode="&#x421;" horiz-adv-x="679" 
d="M248 350q-9 -56 7.5 -101.5t55.5 -73t96 -28.5q70 -1 125 27.5t98 63.5l-26 -184q-46 -32 -99 -51t-121 -19q-81 0 -145 28t-107 78t-61.5 116.5t-7.5 143.5q12 80 49.5 146.5t95 116t130.5 76.5t156 27q67 0 115.5 -18.5t91.5 -52.5l-26 -184q-31 41 -76 67t-109 26
q-58 0 -109 -26t-86.5 -72t-46.5 -106z" />
    <glyph glyph-name="uni0422" unicode="&#x422;" horiz-adv-x="547" 
d="M68 547l27 153h544l-27 -153h-187l-94 -547h-169l93 547h-187z" />
    <glyph glyph-name="uni0423" unicode="&#x423;" horiz-adv-x="599" 
d="M708 700l-440 -700h-179l134 220l-139 480h183l64 -322l195 322h182z" />
    <glyph glyph-name="uni0424" unicode="&#x424;" horiz-adv-x="906" 
d="M459 700h174l-14 -80h4q63 0 118 -19t94.5 -54t58 -84.5t9.5 -112.5q-12 -84 -63.5 -144.5t-128.5 -92.5t-165 -33h-20l-14 -80h-172l14 80h-4q-63 0 -118 19t-94.5 54t-58 84.5t-9.5 112.5q12 84 63.5 144.5t128.5 93t165 32.5h18zM731 350q9 43 -8 69t-51.5 38
t-78.5 14l-41 -241q67 4 116.5 31t62.5 89zM241 350q-9 -43 8 -69t51.5 -38t78.5 -14l41 241q-67 -4 -116.5 -31t-62.5 -89z" />
    <glyph glyph-name="uni0425" unicode="&#x425;" horiz-adv-x="678" 
d="M541 700h215l-278 -347l165 -353h-201l-83 227l-165 -227h-216l302 365l-149 335h201l68 -197z" />
    <glyph glyph-name="uni0426" unicode="&#x426;" horiz-adv-x="834" 
d="M240 153h284l94 547h173l-93 -547h107l-50 -288h-163l23 135h-573l120 700h172z" />
    <glyph glyph-name="uni0427" unicode="&#x427;" horiz-adv-x="697" 
d="M333 700l-38 -211q-8 -55 16.5 -87t74.5 -32l97 1l56 329h177l-121 -700h-175l37 220h-142q-71 0 -117 34.5t-65 91t-10 121.5l39 233h171z" />
    <glyph glyph-name="uni0428" unicode="&#x428;" horiz-adv-x="1050" 
d="M804 153l94 547h171l-120 -700h-901l120 700h170l-93 -547h197l94 547h164l-94 -547h198z" />
    <glyph glyph-name="uni0429" unicode="&#x429;" horiz-adv-x="1118" 
d="M804 153l94 547h171l-95 -547h108l-49 -288h-164l24 135h-845l120 700h170l-93 -547h197l94 547h164l-94 -547h198z" />
    <glyph glyph-name="uni042A" unicode="&#x42a;" horiz-adv-x="714" 
d="M250 548h-177l27 152h345l-42 -242h59q79 0 135.5 -27.5t83.5 -78.5t16 -123q-10 -72 -50.5 -123t-104 -78t-144.5 -28h-243zM451 317l-72 1l-31 -178h60q47 1 82.5 24t44.5 66q8 41 -15.5 64t-68.5 23z" />
    <glyph glyph-name="uni042B" unicode="&#x42b;" horiz-adv-x="883" 
d="M733 700h174l-120 -700h-172zM161 700h171l-42 -242h62q79 0 135.5 -27.5t83.5 -78.5t16 -123q-16 -108 -96 -168t-202 -61h-247zM341 317l-75 1l-31 -178h63q47 1 82.5 24t44.5 66q8 41 -15.5 64t-68.5 23z" />
    <glyph glyph-name="uni042C" unicode="&#x42c;" horiz-adv-x="605" 
d="M161 700h171l-42 -242h62q79 0 135.5 -27.5t83.5 -78.5t16 -123q-16 -108 -96 -168t-202 -61h-247zM341 317l-75 1l-31 -178h63q47 1 82.5 24t44.5 66q8 41 -15.5 64t-68.5 23z" />
    <glyph glyph-name="uni042D" unicode="&#x42d;" horiz-adv-x="679" 
d="M152 282l24 136h340q-12 61 -60 101t-116 41t-124 -25t-97 -54l22 165q47 32 100 51t121 19q81 0 145 -28t107 -78t61 -116.5t7 -143.5q-12 -79 -49 -146t-94.5 -116.5t-130.5 -76.5t-156 -27q-67 0 -115.5 18.5t-91.5 52.5l22 164q31 -33 77.5 -56t109.5 -23
q48 0 93.5 18t83.5 50t61 74h-340z" />
    <glyph glyph-name="uni042E" unicode="&#x42e;" horiz-adv-x="1109" 
d="M161 700h171l-44 -255h113q32 80 91.5 141t138 95.5t168.5 34.5q79 0 141.5 -28.5t104.5 -79t60 -116.5t7 -142q-11 -78 -48 -146t-93.5 -119t-128.5 -79.5t-154 -28.5q-97 0 -167.5 42t-109 114t-39.5 160h-110l-51 -293h-169zM555 350q-8 -53 4.5 -100.5t47.5 -77.5
t94 -31q60 0 108.5 28.5t81 76t42.5 104.5q9 54 -3 101.5t-47.5 77.5t-95.5 30q-59 1 -108 -28t-81.5 -76.5t-42.5 -104.5z" />
    <glyph glyph-name="uni042F" unicode="&#x42f;" horiz-adv-x="628" 
d="M653 700l-120 -700h-170l42 243l-41 -1l-189 -242h-205l228 270q-57 27 -85 79t-17 122t51 121t103.5 79.5t143.5 28.5h259zM352 375l75 -1l31 181h-62q-47 0 -82.5 -24t-44.5 -67q-8 -40 15 -64t68 -25z" />
    <glyph glyph-name="uni0430" unicode="&#x430;" 
d="M42 230q9 69 45 123.5t89.5 85.5t114.5 31q53 0 88.5 -26t53.5 -68l14 84h150l-79 -460h-149l12 69q-31 -36 -72 -57.5t-90 -21.5q-61 0 -104 32.5t-62 87t-11 120.5zM199 230q-7 -45 14.5 -80.5t67.5 -36.5q29 0 55.5 15.5t45.5 42.5t24 59q7 45 -15 80.5t-63 36.5
q-31 1 -58.5 -15t-46 -43t-24.5 -59z" />
    <glyph glyph-name="uni0431" unicode="&#x431;" horiz-adv-x="590" 
d="M56 244q0 97 29 179t84 144t134 95q60 25 101 51t62 67l147 -1q-21 -73 -81 -124t-139 -83q-68 -27 -117.5 -76t-69.5 -112q28 40 69 62.5t94 22.5q70 0 120 -31.5t74 -85.5t15 -122q-9 -69 -49 -123.5t-101.5 -85.5t-137.5 -31q-82 0 -134 36t-76 94t-24 124zM213 210
q0 -37 21 -65.5t63 -28.5q46 0 82 33.5t43 80.5q8 50 -16.5 82.5t-68.5 32.5q-30 0 -58.5 -15t-47 -45t-18.5 -75l-5 2v-1z" />
    <glyph glyph-name="uni0432" unicode="&#x432;" horiz-adv-x="509" 
d="M122 460h231q40 0 74 -14t53.5 -41.5t13.5 -70.5q-6 -41 -32.5 -66t-64.5 -37q39 -10 62.5 -35t17.5 -72q-7 -55 -49.5 -89.5t-110.5 -34.5h-274zM316 365h-63l-15 -85h55q20 0 36.5 12t20.5 31q3 17 -6.5 29.5t-27.5 12.5zM294 185l-72 1l-16 -91h65q26 0 44.5 14
t22.5 33q3 19 -9 31t-35 12z" />
    <glyph glyph-name="uni0433" unicode="&#x433;" horiz-adv-x="347" 
d="M108 460h292l-22 -126h-141l-58 -334h-149z" />
    <glyph glyph-name="uni0434" unicode="&#x434;" horiz-adv-x="683" 
d="M474 0h-315l-17 -90h-148l36 209h82l283 379l152 -379h90l-37 -209h-142zM363 274l-94 -155h134z" />
    <glyph glyph-name="uni0435" unicode="&#x435;" horiz-adv-x="558" 
d="M524 124q-43 -61 -105.5 -98t-151.5 -36q-77 1 -130 32t-77.5 85.5t-15.5 122.5q2 13 4 25t6 24q27 86 100 138.5t176 52.5q113 0 168.5 -64.5t43.5 -168.5q-2 -18 -6 -40h-343q1 -42 19 -68t58 -28q38 -1 68.5 16t51.5 42zM321 368q-41 2 -69 -23.5t-42 -63.5l176 1
q1 35 -12.5 60t-52.5 26z" />
    <glyph glyph-name="uni0436" unicode="&#x436;" horiz-adv-x="857" 
d="M237 460l142 -168l29 168h145l-27 -156l187 156h184l-233 -199l164 -261h-165l-148 240l-41 -240h-144l39 228l-219 -228h-184l264 272l-155 188h162z" />
    <glyph glyph-name="uni0437" unicode="&#x437;" horiz-adv-x="522" 
d="M250 -10q-89 0 -141 44.5t-54 123.5h139q5 -25 19.5 -42t44.5 -18q31 -1 53.5 14t26.5 40q5 27 -15.5 38t-49.5 13l4 27v0l9 56q22 2 41 11t22 28q2 15 -8.5 25t-28.5 10q-23 1 -39.5 -15.5t-21.5 -37.5l-139 1q14 72 69 117t135 45q51 0 93 -17.5t65.5 -48t17.5 -71.5
q-6 -37 -32 -58.5t-66 -31.5q41 -13 65 -39.5t18 -69.5q-6 -47 -40 -79.5t-84 -48.5t-103 -16z" />
    <glyph glyph-name="uni0438" unicode="&#x438;" horiz-adv-x="573" 
d="M255 460l-37 -212l362 256l-89 -504h-147l37 212l-362 -256l89 504h147z" />
    <glyph glyph-name="uni0439" unicode="&#x439;" horiz-adv-x="573" 
d="M212 694h95q1 -24 13 -41t39 -18q28 -1 47 17.5t26 41.5l100 -1q-13 -61 -58.5 -102.5t-119.5 -41.5q-73 0 -109 41.5t-33 103.5zM255 460l-37 -212l362 256l-89 -504h-147l37 212l-362 -256l89 504h147z" />
    <glyph glyph-name="uni043A" unicode="&#x43a;" horiz-adv-x="563" 
d="M104 460h148l-27 -153l180 153h190l-232 -196l163 -264h-168l-145 237l-41 -237h-145z" />
    <glyph glyph-name="uni043B" unicode="&#x43b;" horiz-adv-x="605" 
d="M583 460l-80 -460h-146l55 321h-159l-27 -161q-16 -87 -76 -122.5t-167 -37.5l20 136q31 3 52.5 15t28.5 47l46 262h453z" />
    <glyph glyph-name="uni043C" unicode="&#x43c;" horiz-adv-x="637" 
d="M-27 0l223 496l123 -310l238 317l49 -503h-150l-3 183l-166 -216l-90 220l-67 -187h-157z" />
    <glyph glyph-name="uni043D" unicode="&#x43d;" horiz-adv-x="596" 
d="M106 460h148l-28 -161h194l27 161h147l-79 -460h-146l32 186h-195l-32 -186h-145z" />
    <glyph glyph-name="uni043E" unicode="&#x43e;" horiz-adv-x="571" 
d="M41 230q10 71 51.5 125t104 84.5t135.5 30.5q72 0 126 -31t81 -85t17 -124t-51.5 -124.5t-104 -85t-135.5 -30.5q-72 0 -126 31t-81 85.5t-17 123.5zM196 230q-7 -43 13 -78t65 -36q31 0 57.5 15t45.5 41.5t24 57.5q7 44 -12.5 78.5t-64.5 35.5q-30 1 -57.5 -14.5
t-46 -41.5t-24.5 -58z" />
    <glyph glyph-name="uni043F" unicode="&#x43f;" horiz-adv-x="557" 
d="M555 460l-79 -460h-147l57 328h-155l-57 -328h-147l80 460h448z" />
    <glyph glyph-name="uni0440" unicode="&#x440;" horiz-adv-x="573" 
d="M143 -220h-154l117 680h152l-11 -63q29 36 68 57.5t89 21.5q62 1 105 -32.5t63 -89.5t12 -124q-9 -71 -44.5 -127t-89 -88t-115.5 -31q-56 0 -90.5 27.5t-50.5 71.5zM426 231q7 45 -15 77t-67 33q-28 1 -55 -14t-46 -40.5t-24 -57.5q-7 -45 14.5 -76.5t62.5 -33.5
q31 -1 59 14t47 41t24 57z" />
    <glyph glyph-name="uni0441" unicode="&#x441;" horiz-adv-x="475" 
d="M195 230q-8 -48 17 -82t74 -36q42 -1 81 19t66 48l-20 -148q-28 -19 -64.5 -30t-82.5 -11q-72 0 -126.5 31t-82 85.5t-17.5 123.5q10 72 51.5 126t104.5 84t137 30q45 0 80 -11t63 -29l-20 -149q-17 32 -48.5 49.5t-68.5 17.5q-34 0 -64.5 -15.5t-51.5 -42.5t-28 -60z
" />
    <glyph glyph-name="uni0442" unicode="&#x442;" horiz-adv-x="322" 
d="M55 460h318l-22 -126h-85l-58 -334h-146l56 334h-86z" />
    <glyph glyph-name="uni0443" unicode="&#x443;" horiz-adv-x="507" 
d="M572 460l-408 -680h-157l158 262l-122 418h161l59 -268l149 268h160z" />
    <glyph glyph-name="uni0444" unicode="&#x444;" horiz-adv-x="647" 
d="M41 230q9 65 45 114.5t92.5 80t126.5 40.5l16 95h144l-17 -97q61 -13 106 -44t66 -79t12 -110q-9 -65 -45.5 -114.5t-93 -80.5t-126.5 -41l-16 -94h-142l17 97q-62 12 -107 43.5t-66 79.5t-12 110zM495 230q9 41 -10 68t-59 38l-36 -210q41 12 68.5 38.5t36.5 65.5z
M178 230q-9 -41 10 -68t59 -38l36 210q-42 -12 -69 -38.5t-36 -65.5z" />
    <glyph glyph-name="uni0445" unicode="&#x445;" horiz-adv-x="517" 
d="M393 460h173l-213 -227l143 -233h-161l-73 134l-109 -134h-178l223 244l-133 216h166l61 -118z" />
    <glyph glyph-name="uni0446" unicode="&#x446;" horiz-adv-x="602" 
d="M503 125h80l-40 -228h-143l18 103h-390l79 460h153l-58 -334h148l59 334h152z" />
    <glyph glyph-name="uni0447" unicode="&#x447;" horiz-adv-x="531" 
d="M251 460l-27 -145q-13 -75 52 -75h56l37 220h154l-80 -460h-152l20 116h-91q-66 0 -100.5 27.5t-43 75.5t-0.5 109l22 132h153z" />
    <glyph glyph-name="uni0448" unicode="&#x448;" horiz-adv-x="812" 
d="M473 125l132 1l58 334h147l-80 -460h-702l79 460h147l-58 -334h131l58 334h146z" />
    <glyph glyph-name="uni0449" unicode="&#x449;" horiz-adv-x="850" 
d="M473 125l131 1l58 334h147l-57 -334h77l-39 -229h-143l18 103h-637l79 460h147l-58 -334h131l58 334h146z" />
    <glyph glyph-name="uni044A" unicode="&#x44a;" horiz-adv-x="594" 
d="M169 335l-137 -1l23 126h275l-27 -155h101q45 0 80.5 -16t54 -47.5t12.5 -79.5q-6 -47 -32 -84t-66 -57.5t-87 -20.5h-254zM371 206l-84 1l-16 -90h76q23 0 41 12.5t22 33.5q4 19 -7.5 31t-31.5 12z" />
    <glyph glyph-name="uni044B" unicode="&#x44b;" horiz-adv-x="742" 
d="M586 460h154l-80 -460h-152zM106 460h154l-27 -155h98q45 0 80.5 -16t54 -47.5t12.5 -79.5q-6 -47 -32 -84t-66 -57.5t-87 -20.5h-264zM297 206l-81 1l-16 -90h73q23 0 41 12.5t22 33.5q4 19 -7.5 31t-31.5 12z" />
    <glyph glyph-name="uni044C" unicode="&#x44c;" horiz-adv-x="529" 
d="M112 460h154l-27 -155h98q45 0 80.5 -16t54 -47.5t12.5 -79.5q-6 -47 -32.5 -84t-66.5 -57.5t-87 -20.5h-263zM303 206l-81 1l-15 -90h72q23 0 41.5 12.5t22.5 33.5q4 19 -7 31t-33 12z" />
    <glyph glyph-name="uni044D" unicode="&#x44d;" horiz-adv-x="478" 
d="M126 280h183q-5 37 -26.5 61.5t-61.5 25.5q-40 2 -79.5 -17.5t-66.5 -48.5l16 129q29 17 65.5 28.5t81.5 11.5q73 0 127 -31t81.5 -85t17.5 -124q-10 -71 -51.5 -125.5t-104.5 -84.5t-138 -30q-46 0 -80 11t-63 31l18 128q17 -32 47 -50t69 -18q43 0 78 24t54 64h-183z
" />
    <glyph glyph-name="uni044E" unicode="&#x44e;" horiz-adv-x="797" 
d="M106 460h148l-28 -161h59q22 52 63 90.5t95 59.5t114 21q72 0 126 -31t81 -85t17 -124t-51.5 -124.5t-104 -85t-135.5 -30.5q-64 0 -114 25t-79.5 69t-32.5 102h-58l-32 -186h-145zM421 230q-7 -43 13 -78t65 -36q31 0 57.5 15t45.5 41.5t24 57.5q7 44 -13 78.5t-65 35.5
q-30 1 -57 -14.5t-45.5 -41.5t-24.5 -58z" />
    <glyph glyph-name="uni044F" unicode="&#x44f;" horiz-adv-x="529" 
d="M170 0h-164l162 186q-36 17 -56.5 49.5t-14.5 80.5q7 50 37 81.5t74 46.5t91 16h245l-78 -460h-153l28 165h-44zM290 267l69 -1l12 74h-59q-24 0 -45 -8t-24 -29q-3 -19 11 -27.5t36 -8.5z" />
    <glyph glyph-name="uni0450" unicode="&#x450;" horiz-adv-x="527" 
d="M191 683l118 50l124 -162l-87 -41zM524 124q-43 -61 -105.5 -98t-151.5 -36q-77 1 -130 32t-77.5 85.5t-15.5 122.5q2 13 4 25t6 24q27 86 100 138.5t176 52.5q113 0 168.5 -64.5t43.5 -168.5q-2 -18 -6 -40h-343q1 -42 19 -68t58 -28q38 -1 68.5 16t51.5 42zM321 368
q-41 2 -69 -23.5t-42 -63.5l176 1q1 35 -12.5 60t-52.5 26z" />
    <glyph glyph-name="uni0451" unicode="&#x451;" horiz-adv-x="527" 
d="M386 613q4 34 33.5 58t63.5 23q35 -1 58.5 -24.5t18.5 -58.5q-4 -34 -33 -58t-64 -23t-58 25t-19 58zM149 613q4 34 33.5 58t63.5 23q35 -1 58.5 -24.5t18.5 -58.5q-4 -34 -33 -58t-64 -23t-58 25t-19 58zM524 124q-43 -61 -105.5 -98t-151.5 -36q-77 1 -130 32
t-77.5 85.5t-15.5 122.5q2 13 4 25t6 24q27 86 100 138.5t176 52.5q113 0 168.5 -64.5t43.5 -168.5q-2 -18 -6 -40h-343q1 -42 19 -68t58 -28q38 -1 68.5 16t51.5 42zM321 368q-41 2 -69 -23.5t-42 -63.5l176 1q1 35 -12.5 60t-52.5 26z" />
    <glyph glyph-name="uni0453" unicode="&#x453;" horiz-adv-x="347" 
d="M468 676l-195 -145l-85 47l169 155zM108 460h292l-22 -126h-141l-58 -334h-149z" />
    <glyph glyph-name="uni045C" unicode="&#x45c;" horiz-adv-x="426" 
d="M562 676l-196 -145l-84 47l168 155zM104 460h148l-27 -153l180 153h190l-232 -196l163 -264h-168l-145 237l-41 -237h-145z" />
    <glyph glyph-name="uni045D" unicode="&#x45d;" horiz-adv-x="573" 
d="M197 697l118 51l124 -163l-87 -40zM255 460l-37 -212l362 256l-89 -504h-147l37 212l-362 -256l89 504h147z" />
    <glyph glyph-name="uni045E" unicode="&#x45e;" horiz-adv-x="464" 
d="M171 677l96 -1q1 -24 12 -40.5t38 -17.5q28 -1 48 17t27 41l100 -1q-13 -61 -58.5 -102.5t-119.5 -41.5t-110.5 42t-32.5 104zM572 460l-408 -680h-157l158 262l-122 418h161l59 -268l149 268h160z" />
    <glyph glyph-name="uni1E9E" unicode="&#x1e9e;" horiz-adv-x="866" 
d="M519 -16q-82 0 -132 35t-70 89.5t-14 114.5l145 -1q-3 -41 17.5 -70t67.5 -31q46 -1 77 22.5t38 64.5q7 36 -10 57t-48.5 30.5t-68.5 10.5l11 74h2l5 36q50 2 88.5 22.5t45.5 63.5q5 28 -11.5 44.5t-46.5 24.5t-67 8q-68 0 -125.5 -29t-96 -83.5t-51.5 -131.5l-58 -335
h-168l61 361q19 106 80.5 184.5t155.5 121.5t208 43q60 0 116 -11t99 -33.5t65 -58.5t14 -86q-11 -64 -60.5 -102.5t-118.5 -55.5q45 -13 80 -35.5t52.5 -58t9.5 -85.5q-9 -62 -52 -107t-106 -69t-134 -24z" />
    <glyph glyph-name="uni2010" unicode="&#x2010;" horiz-adv-x="215" 
d="M6 172l22 132h210l-23 -132h-209z" />
    <glyph glyph-name="figuredash" unicode="&#x2012;" horiz-adv-x="608" 
d="M69 172l22 132h468l-23 -132h-467z" />
    <glyph glyph-name="endash" unicode="&#x2013;" horiz-adv-x="760" 
d="M69 172l22 132h623l-23 -132h-622z" />
    <glyph glyph-name="emdash" unicode="&#x2014;" horiz-adv-x="911" 
d="M69 172l22 132h777l-23 -132h-776z" />
    <glyph glyph-name="quoteleft" unicode="&#x2018;" horiz-adv-x="321" 
d="M272 445h-159l145 254h111z" />
    <glyph glyph-name="quoteright" unicode="&#x2019;" horiz-adv-x="321" 
d="M191 700h160l-145 -255h-111z" />
    <glyph glyph-name="quotesinglbase" unicode="&#x201a;" horiz-adv-x="321" 
d="M95 80h159l-145 -255h-110z" />
    <glyph glyph-name="quotedblleft" unicode="&#x201c;" horiz-adv-x="545" 
d="M272 445h-159l145 254h111zM497 445h-159l145 254h110z" />
    <glyph glyph-name="quotedblright" unicode="&#x201d;" horiz-adv-x="545" 
d="M191 700h160l-145 -255h-111zM416 700h159l-144 -255h-112z" />
    <glyph glyph-name="dagger" unicode="&#x2020;" horiz-adv-x="614" 
d="M153 540h149l25 160h142l-25 -160h151l-20 -126h-150l-87 -564h-142l87 564h-151z" />
    <glyph glyph-name="daggerdbl" unicode="&#x2021;" horiz-adv-x="614" 
d="M94 158h149l40 256h-151l21 126h149l25 160h142l-25 -160h151l-20 -126h-150l-40 -256h151l-20 -126h-150l-28 -182h-142l28 182h-151z" />
    <glyph glyph-name="bullet" unicode="&#x2022;" horiz-adv-x="291" 
d="M64 445q5 37 35 64.5t69 26.5q40 -1 64 -29t19 -65q-4 -37 -34.5 -64.5t-69.5 -26.5q-40 1 -63.5 29t-19.5 65z" />
    <glyph glyph-name="ellipsis" unicode="&#x2026;" horiz-adv-x="897" 
d="M48 70q5 37 36 64.5t70 26.5q40 -1 62.5 -28.5t17.5 -64.5q-4 -37 -35 -65t-70 -27q-40 1 -62.5 29t-18.5 65zM339 70q5 37 36 64.5t70 26.5q40 -1 62.5 -28.5t17.5 -64.5q-4 -37 -35 -65t-70 -27q-40 1 -62.5 29t-18.5 65zM630 70q5 37 36 64.5t70 26.5
q40 -1 62.5 -28.5t17.5 -64.5q-4 -37 -35 -65t-70 -27q-40 1 -62.5 29t-18.5 65z" />
    <glyph glyph-name="perthousand" unicode="&#x2030;" horiz-adv-x="1336" 
d="M84 534q7 50 37.5 92t76 67.5t98.5 25.5t91 -26.5t56.5 -68.5t11.5 -91q-7 -50 -37.5 -91.5t-76 -66.5t-98.5 -25q-52 0 -90.5 26t-57 68t-11.5 90zM721 700h161l-644 -700h-159zM207 533q-3 -23 10 -42.5t39 -21.5q27 -1 49.5 20t26.5 46q3 23 -9.5 43.5t-38.5 21.5
q-27 2 -50 -20t-27 -47zM947 167q7 50 37.5 92t76.5 67t99 25t91 -26t56 -68t11 -91q-7 -50 -37.5 -92t-76 -67.5t-98.5 -25.5q-52 0 -90.5 26.5t-57 68.5t-11.5 91zM505 167q7 50 37.5 92t76 67t98.5 25t91 -26t56 -68t11 -91q-7 -50 -37.5 -92t-76 -67.5t-98.5 -25.5
q-52 0 -90.5 26.5t-56.5 68.5t-11 91zM1070 166q-3 -23 10 -43t39 -22q27 -1 49.5 20t26.5 46q3 23 -9.5 43.5t-38.5 21.5q-27 2 -50 -19.5t-27 -46.5zM628 166q-3 -23 9.5 -43t38.5 -22q27 -1 50 20t27 46q3 23 -9.5 43.5t-38.5 21.5q-27 2 -50 -19.5t-27 -46.5z" />
    <glyph glyph-name="uni2031" unicode="&#x2031;" horiz-adv-x="1779" 
d="M84 534q7 50 37.5 92t76 67.5t98.5 25.5t91 -26.5t56.5 -68.5t11.5 -91q-7 -50 -37.5 -91.5t-76 -66.5t-98.5 -25q-52 0 -90.5 26t-57 68t-11.5 90zM721 700h161l-644 -700h-159zM207 533q-3 -23 10 -42.5t39 -21.5q27 -1 49.5 20t26.5 46q3 23 -9.5 43.5t-38.5 21.5
q-27 2 -50 -20t-27 -47zM1390 167q7 50 37.5 92t76 67t98.5 25t91 -26t56.5 -68t11.5 -91q-7 -50 -37.5 -92t-76 -67.5t-98.5 -25.5q-52 0 -90.5 26.5t-57 68.5t-11.5 91zM947 167q7 50 37.5 92t76.5 67t99 25t91 -26t56 -68t11 -91q-7 -50 -37.5 -92t-76 -67.5t-98.5 -25.5
q-52 0 -90.5 26.5t-57 68.5t-11.5 91zM505 167q7 50 37.5 92t76 67t98.5 25t91 -26t56 -68t11 -91q-7 -50 -37.5 -92t-76 -67.5t-98.5 -25.5q-52 0 -90.5 26.5t-56.5 68.5t-11 91zM1513 166q-3 -23 9.5 -43t38.5 -22q27 -1 50 20t27 46q3 23 -9.5 43.5t-38.5 21.5
q-27 2 -50 -19.5t-27 -46.5zM1070 166q-3 -23 10 -43t39 -22q27 -1 49.5 20t26.5 46q3 23 -9.5 43.5t-38.5 21.5q-27 2 -50 -19.5t-27 -46.5zM628 166q-3 -23 9.5 -43t38.5 -22q27 -1 50 20t27 46q3 23 -9.5 43.5t-38.5 21.5q-27 2 -50 -19.5t-27 -46.5z" />
    <glyph glyph-name="guilsinglleft" unicode="&#x2039;" horiz-adv-x="339" 
d="M161 256l113 -194l-100 -62l-131 260l212 249l85 -68z" />
    <glyph glyph-name="guilsinglright" unicode="&#x203a;" horiz-adv-x="339" 
d="M212 254l-113 194l99 62l132 -260l-212 -249l-85 68z" />
    <glyph glyph-name="uni203D" unicode="&#x203d;" horiz-adv-x="608" 
d="M267 504l146 -1l-36 -135q37 16 64 44.5t35 68.5q9 52 -21 80.5t-85 28.5q-49 1 -91 -21.5t-71 -63.5l-90 86q47 54 119.5 91t160.5 36q64 0 117 -27t82.5 -76t19.5 -115q-10 -65 -50.5 -110.5t-97 -72t-115.5 -35.5l-21 -80h-91zM175 63q5 35 36.5 60.5t69.5 24.5
q39 -1 63 -26t19 -61q-4 -35 -35.5 -60.5t-69.5 -24.5q-39 1 -63 26t-20 61z" />
    <glyph glyph-name="fraction" unicode="&#x2044;" horiz-adv-x="707" 
d="M651 699h126l-624 -699h-126z" />
    <glyph glyph-name="uni2070" unicode="&#x2070;" horiz-adv-x="378" 
d="M75 490q8 60 35 109.5t70 79t98 29.5q57 0 90 -31t44.5 -80.5t4.5 -106.5q-8 -59 -34.5 -109t-69 -79.5t-99.5 -29.5q-56 0 -89 30.5t-45 80.5t-5 107zM173 490q-3 -28 -2 -57.5t12 -50.5t37 -22q27 -1 47.5 18.5t34.5 50t18 61.5q3 28 2 58t-12 50.5t-38 21.5
q-26 1 -47 -18.5t-34 -50t-18 -61.5z" />
    <glyph glyph-name="uni2074" unicode="&#x2074;" horiz-adv-x="413" 
d="M425 355h-64l-13 -75h-106l13 75h-203l-11 -3l300 347l78 1l-44 -258l65 -1zM298 545l-103 -117h83z" />
    <glyph glyph-name="uni2075" unicode="&#x2075;" horiz-adv-x="375" 
d="M395 412q-6 -46 -34.5 -78t-69 -48t-82.5 -16q-52 0 -90 16t-69 39l50 83q22 -19 46 -31.5t49 -12.5q32 0 60.5 15.5t32.5 45.5q3 28 -18 41.5t-47 14.5q-24 1 -51.5 -4.5t-55.5 -14.5l-22 -11l102 247h240l-15 -88l-162 -1l-37 -73q33 15 68 14q53 -1 83 -41t22 -97z
" />
    <glyph glyph-name="uni2076" unicode="&#x2076;" horiz-adv-x="372" 
d="M274 695h134l-145 -137q13 4 30 4q34 1 60 -18t39.5 -50.5t8.5 -68.5q-6 -48 -33.5 -83t-68.5 -54t-88 -19q-46 0 -81.5 19.5t-53.5 55t-11 82.5q5 35 24.5 63.5t41.5 53.5zM165 425q-4 -28 11 -48t43 -21q29 -1 53.5 20t28.5 50q4 28 -9.5 48.5t-42.5 21.5
q-29 2 -54.5 -20t-29.5 -51z" />
    <glyph glyph-name="uni2077" unicode="&#x2077;" horiz-adv-x="367" 
d="M97 605l17 95h338l-270 -419h-112l213 323z" />
    <glyph glyph-name="uni2078" unicode="&#x2078;" horiz-adv-x="350" 
d="M61 395q5 42 34 69t66 41q-25 14 -39.5 38t-10.5 57q5 35 28 59t56.5 37t69.5 13q35 0 65 -13t47 -37.5t12 -60.5q-4 -35 -27.5 -59.5t-54.5 -37.5q30 -15 48.5 -41.5t13.5 -66.5q-5 -38 -31 -65.5t-63.5 -42t-76.5 -14.5q-38 0 -71.5 15t-52 42.5t-13.5 66.5zM203 589
q-2 -17 6.5 -32t27.5 -16t36.5 14.5t19.5 34.5q2 18 -6.5 31.5t-27.5 14.5t-36 -13.5t-20 -33.5zM164 409q-3 -22 8 -38.5t33 -17.5q23 -1 43 16t23 41q2 20 -9 36.5t-32 17.5q-22 1 -42.5 -16.5t-23.5 -38.5z" />
    <glyph glyph-name="uni2079" unicode="&#x2079;" horiz-adv-x="369" 
d="M215 285h-133l145 137q-13 -4 -31 -4q-34 1 -60 19.5t-38.5 49.5t-8.5 68q6 49 33.5 83.5t68.5 53.5t87 19t81.5 -19.5t53.5 -54.5t11 -83q-5 -34 -24 -63t-42 -54zM324 555q4 28 -10 48t-43 21q-29 2 -54 -19.5t-29 -50.5q-4 -28 10.5 -48t42.5 -22q29 -1 54 20.5
t29 50.5z" />
    <glyph glyph-name="uni2080" unicode="&#x2080;" horiz-adv-x="378" 
d="M27 210q8 60 35 109.5t70.5 79t98.5 29.5q57 0 90 -30.5t44.5 -80.5t4.5 -107q-8 -59 -35 -109t-69.5 -79.5t-99.5 -29.5q-56 0 -89 30.5t-45 80.5t-5 107zM125 210q-3 -28 -2 -57.5t12 -50.5t37 -22q27 -1 47.5 18.5t34.5 50t18 61.5q3 28 2 58t-12 50.5t-38 21.5
q-26 1 -47 -18.5t-34 -50t-18 -61.5z" />
    <glyph glyph-name="uni2081" unicode="&#x2081;" horiz-adv-x="349" 
d="M109 298l17 90l206 42l-74 -429h-98l55 322z" />
    <glyph glyph-name="uni2082" unicode="&#x2082;" horiz-adv-x="398" 
d="M-3 3l215 193q24 23 46 44.5t26 49.5q2 19 -7.5 35.5t-33.5 17.5q-31 2 -51 -22.5t-27 -53.5l-100 1q9 44 33 81t63 60t91 22q45 0 77.5 -19t48.5 -50t10 -67q-5 -34 -26 -62t-49 -50l-108 -87l159 -1l-16 -93z" />
    <glyph glyph-name="uni2083" unicode="&#x2083;" horiz-adv-x="360" 
d="M155 -9q-71 0 -107 42.5t-33 100.5h98q0 -26 12 -43t39 -18q24 -1 45.5 14t24.5 39q6 30 -18.5 43t-59.5 15l9 50h2l2 15q30 3 56 17.5t30 39.5q2 17 -7 28t-29 12q-23 0 -39.5 -15t-22.5 -34l-95 1q13 55 56 92.5t107 37.5q41 0 72 -15t47 -41.5t10 -61.5
q-6 -36 -31 -58t-61 -33q36 -13 56.5 -38t14.5 -67q-5 -38 -30.5 -65.5t-64 -42.5t-83.5 -15z" />
    <glyph glyph-name="uni2084" unicode="&#x2084;" horiz-adv-x="418" 
d="M375 75h-63l-13 -75h-107l13 75h-202l-11 -3l300 347l79 1l-44 -258l64 -1zM250 265l-104 -117h83z" />
    <glyph glyph-name="uni2085" unicode="&#x2085;" horiz-adv-x="383" 
d="M351 132q-6 -46 -34.5 -78t-69 -48t-82.5 -16q-52 0 -90 16t-69 39l50 83q22 -19 45.5 -31.5t48.5 -12.5q32 0 61 15.5t33 45.5q3 28 -18.5 41.5t-47.5 14.5q-24 1 -50.5 -4t-53.5 -14l-24 -12l101 247h240l-15 -88l-161 -1l-37 -73q33 15 67 14q53 -1 83.5 -41t22.5 -97
z" />
    <glyph glyph-name="uni2086" unicode="&#x2086;" horiz-adv-x="382" 
d="M230 415h133l-145 -137q13 4 30 4q34 1 60 -18t39.5 -50.5t8.5 -68.5q-6 -48 -33.5 -83t-68 -54t-87.5 -19q-46 0 -81.5 19.5t-53.5 55t-11 82.5q5 35 24.5 63.5t41.5 53.5zM121 145q-4 -28 10.5 -48t42.5 -21q29 -1 54 20t29 50q4 28 -10 48.5t-43 21.5q-29 2 -54 -20
t-29 -51z" />
    <glyph glyph-name="uni2087" unicode="&#x2087;" horiz-adv-x="372" 
d="M53 325l17 95h338l-270 -420h-112l212 324z" />
    <glyph glyph-name="uni2088" unicode="&#x2088;" horiz-adv-x="357" 
d="M17 115q5 42 34 69t66 41q-25 14 -39.5 38t-10.5 57q5 35 28 59t56.5 37t69.5 13q35 0 65.5 -13t47.5 -37.5t12 -60.5q-4 -35 -27.5 -59.5t-55.5 -37.5q30 -15 48.5 -41.5t13.5 -66.5q-5 -38 -31 -65.5t-63.5 -42t-76.5 -14.5q-38 0 -71.5 15t-52 43t-13.5 66zM160 309
q-2 -17 6 -32t27 -16t37 14.5t20 34.5q2 18 -6.5 31.5t-27.5 14.5t-36 -13.5t-20 -33.5zM120 129q-3 -22 8.5 -38.5t33.5 -17.5q23 -1 43 16t23 41q2 20 -9.5 36.5t-32.5 17.5q-22 1 -42.5 -16.5t-23.5 -38.5z" />
    <glyph glyph-name="uni2089" unicode="&#x2089;" horiz-adv-x="386" 
d="M169 5h-134l146 137q-13 -4 -30 -4q-34 1 -60.5 19.5t-39.5 49.5t-9 68q6 49 34 83.5t69.5 53.5t87.5 19t81.5 -19.5t53 -54.5t10.5 -83q-5 -34 -24 -63t-42 -54zM279 275q4 28 -10.5 48t-43.5 21q-29 2 -54 -19.5t-29 -50.5q-4 -28 10.5 -48t42.5 -22q29 -1 54.5 20.5
t29.5 50.5z" />
    <glyph glyph-name="Euro" unicode="&#x20ac;" horiz-adv-x="636" 
d="M53 250l15 84h60l2 16q2 16 5 31h-46l15 84h57q28 71 76 129t113 92t144 34q39 0 74 -11t68 -30l-24 -162q-27 29 -59.5 45.5t-73.5 16.5q-55 0 -97 -31.5t-69 -82.5h271l-16 -84h-285q-4 -15 -6 -31l-2 -16h267l-15 -84h-252q6 -54 32.5 -91t83.5 -38q44 -1 84.5 17
t74.5 44l-23 -161q-34 -18 -72 -29t-79 -11q-81 0 -134.5 37t-81.5 98.5t-33 133.5h-74z" />
    <glyph glyph-name="trademark" unicode="&#x2122;" horiz-adv-x="724" 
d="M449 718l1 -3l106 -209l184 212l4 6v-1l2 2l-2 -12l-11 -363h-88l10 168l-115 -137l-69 142l-50 -173l-91 1zM107 623l13 77h272l-13 -77h-93l-48 -273h-85l47 273h-93z" />
    <glyph glyph-name="uni2150" unicode="&#x2150;" horiz-adv-x="914" 
d="M92 571l16 90l207 42l-74 -429h-99l55 322zM677 699h125l-624 -699h-125zM588 325l16 95h338l-269 -420h-112l212 324z" />
    <glyph glyph-name="uni2151" unicode="&#x2151;" horiz-adv-x="858" 
d="M92 571l16 90l207 42l-74 -429h-99l55 322zM671 699h125l-624 -699h-125zM650 5h-134l145 137q-14 -4 -31 -4q-34 1 -60 19.5t-38.5 49.5t-8.5 68q6 49 33.5 83.5t69 53.5t87.5 19t81.5 -19.5t53.5 -54.5t11 -83q-5 -34 -24.5 -63t-42.5 -54zM758 275q4 28 -9.5 48
t-42.5 21q-29 2 -54.5 -19.5t-29.5 -50.5q-4 -28 11 -48t43 -22q29 -1 53.5 20.5t28.5 50.5z" />
    <glyph glyph-name="uni2152" unicode="&#x2152;" horiz-adv-x="1176" 
d="M92 571l16 90l207 42l-74 -429h-99l55 322zM671 699h125l-624 -699h-125zM558 298l15 90l208 42l-75 -429h-98l55 322zM813 210q8 60 35 109.5t70 79t98 29.5q57 0 90 -30.5t44.5 -80.5t4.5 -107q-8 -59 -35 -109t-69.5 -79.5t-99.5 -29.5q-56 0 -88.5 30.5t-44.5 80.5
t-5 107zM910 210q-3 -28 -2 -57.5t12.5 -50.5t37.5 -22q27 -1 47.5 18.5t34.5 50t18 61.5q3 28 2 58t-12 50.5t-38 21.5q-26 1 -47 -18.5t-34.5 -50t-18.5 -61.5z" />
    <glyph glyph-name="onethird" unicode="&#x2153;" horiz-adv-x="849" 
d="M92 571l16 90l207 42l-74 -429h-99l55 322zM670 699h125l-623 -699h-126zM641 -9q-71 0 -106.5 42.5t-32.5 100.5h98q0 -26 12 -43t39 -18q24 -1 45 14t24 39q6 30 -17.5 43t-58.5 15l7 50h2l2 15q30 3 56.5 17.5t30.5 39.5q2 17 -7 28t-29 12q-23 0 -40 -15t-23 -34
l-95 1q13 55 56.5 92.5t107.5 37.5q41 0 72 -15t47 -41.5t10 -61.5q-6 -36 -31.5 -58t-61.5 -33q36 -13 57 -38t15 -67q-5 -38 -31 -65.5t-64.5 -42.5t-83.5 -15z" />
    <glyph glyph-name="twothirds" unicode="&#x2154;" horiz-adv-x="978" 
d="M47 283l214 193q24 23 46.5 44.5t26.5 49.5q2 19 -8 35.5t-34 17.5q-31 2 -50.5 -22.5t-26.5 -53.5l-101 1q9 44 33.5 81t63.5 60t91 22q45 0 77.5 -19t48.5 -50t10 -67q-5 -34 -26.5 -62t-49.5 -50l-108 -87l160 -1l-16 -93zM812 699h126l-624 -699h-126zM771 -9
q-71 0 -107 42.5t-33 100.5h98q0 -26 12 -43t39 -18q24 -1 45 14t24 39q6 30 -17.5 43t-58.5 15l8 50h1l3 15q30 3 56 17.5t30 39.5q2 17 -7 28t-29 12q-23 0 -39.5 -15t-22.5 -34l-95 1q13 55 56 92.5t107 37.5q41 0 72 -15t47 -41.5t10 -61.5q-6 -36 -31.5 -58t-60.5 -33
q35 -12 56 -37.5t15 -67.5q-5 -38 -30.5 -65.5t-64 -42.5t-83.5 -15z" />
    <glyph glyph-name="uni2155" unicode="&#x2155;" horiz-adv-x="838" 
d="M92 571l16 90l207 42l-74 -429h-99l55 322zM671 699h125l-624 -699h-125zM678 329l-37 -72q32 14 66 13q36 0 61.5 -19t38 -50t7.5 -69q-6 -46 -34.5 -78t-69 -48t-82.5 -16q-52 0 -90 16t-69 39l49 83q22 -19 46 -31.5t49 -12.5q32 0 60.5 15.5t32.5 45.5
q3 28 -18.5 41.5t-47.5 14.5q-24 1 -51 -4.5t-54 -14.5l-23 -11l102 247h240l-16 -88z" />
    <glyph glyph-name="uni2156" unicode="&#x2156;" horiz-adv-x="976" 
d="M47 283l214 193q24 23 46.5 44.5t26.5 49.5q2 19 -8 35.5t-34 17.5q-31 2 -50.5 -22.5t-26.5 -53.5l-101 1q9 44 33.5 81t63.5 60t91 22q45 0 77.5 -19t48.5 -50t10 -67q-5 -34 -26.5 -62t-49.5 -50l-108 -87l160 -1l-16 -93zM812 699h126l-624 -699h-126zM807 329
l-37 -73q33 15 67 14q53 -1 83.5 -41t22.5 -97q-6 -46 -34.5 -78t-69 -48t-82.5 -16q-52 0 -90 16t-69 39l50 83q22 -19 45.5 -31.5t48.5 -12.5q32 0 60.5 15.5t32.5 45.5q3 28 -18 41.5t-47 14.5q-24 1 -50.5 -4t-53.5 -14l-25 -12l103 247h240l-16 -88z" />
    <glyph glyph-name="uni2157" unicode="&#x2157;" horiz-adv-x="903" 
d="M203 271q-71 0 -106.5 42.5t-32.5 100.5h98q0 -26 11.5 -43t38.5 -18q24 -1 45.5 14t24.5 39q6 30 -18 43t-59 15l9 50h1l2 15q30 3 56 17.5t30 39.5q2 17 -7 28t-29 12q-23 0 -39.5 -15t-22.5 -34l-95 1q13 55 56 92.5t107 37.5q41 0 72 -15t47.5 -41.5t10.5 -61.5
q-6 -36 -31.5 -58t-60.5 -33q35 -13 55.5 -38t14.5 -67q-5 -38 -30.5 -65.5t-64 -42.5t-83.5 -15zM743 699h125l-624 -699h-125zM731 329l-36 -72q32 14 66 13q53 -1 83.5 -41t22.5 -97q-6 -46 -34.5 -78t-69 -48t-82.5 -16q-52 0 -90 16t-69 39l50 83q22 -19 45.5 -31.5
t48.5 -12.5q32 0 60.5 15.5t32.5 45.5q3 28 -18 41.5t-47 14.5q-24 1 -50 -4t-53 -14l-25 -12l102 247h240l-16 -88z" />
    <glyph glyph-name="uni2158" unicode="&#x2158;" horiz-adv-x="987" 
d="M430 355h-63l-13 -75h-106l13 75h-203l-11 -3l300 347l79 1l-44 -258l64 -1zM801 699l125 -1l-623 -698h-125zM304 545l-103 -117h83zM820 329l-38 -74q33 15 68 14q53 -1 83.5 -41t22.5 -97q-6 -46 -34.5 -77.5t-69 -47.5t-82.5 -16q-52 0 -90 15.5t-69 38.5l50 83
q22 -19 46 -31t49 -12q32 0 60.5 15t32.5 45q3 28 -18 42t-47 15q-22 1 -47 -3.5t-51 -12.5l-31 -15l102 247h240l-16 -88h-161z" />
    <glyph glyph-name="uni2159" unicode="&#x2159;" horiz-adv-x="846" 
d="M92 571l16 90l207 42l-74 -429h-99l55 322zM689 699h125l-623 -699h-126zM693 415h134l-146 -137q13 4 30 4q34 1 60.5 -18t40 -50.5t8.5 -68.5q-6 -48 -34 -83t-69 -54t-88 -19q-46 0 -81.5 19.5t-53 55t-10.5 82.5q5 35 24.5 63.5t41.5 53.5zM583 145q-4 -28 11 -48
t43 -21q29 -1 53.5 20t28.5 50q4 28 -9.5 48.5t-42.5 21.5q-29 2 -54.5 -20t-29.5 -51z" />
    <glyph glyph-name="uni215A" unicode="&#x215a;" horiz-adv-x="904" 
d="M764 699h126l-624 -699h-125zM401 412q-6 -46 -34.5 -78t-68.5 -48t-82 -16q-52 0 -90 16t-69 39l49 83q22 -19 46.5 -31.5t49.5 -12.5q32 0 60 15.5t32 45.5q3 28 -18 41.5t-47 14.5q-24 1 -50.5 -4t-53.5 -14l-24 -12l101 247h240l-15 -88l-162 -1l-37 -73q33 15 67 14
q53 -1 83.5 -41t22.5 -97zM749 415h134l-145 -137q13 4 30 4q34 1 60 -18t39.5 -50.5t8.5 -68.5q-6 -48 -33.5 -83t-68 -54t-87.5 -19q-46 0 -81.5 19.5t-53.5 55t-11 82.5q5 35 24 63.5t41 53.5zM640 145q-4 -28 10.5 -48t42.5 -21q29 -1 54 20t29 50q4 28 -9.5 48.5
t-42.5 21.5q-29 2 -54.5 -20t-29.5 -51z" />
    <glyph glyph-name="oneeighth" unicode="&#x215b;" horiz-adv-x="865" 
d="M92 571l16 90l207 42l-74 -429h-99l55 322zM689 699h125l-623 -699h-126zM522 115q5 42 34 69t66 41q-25 14 -39.5 38t-10.5 57q5 35 28 59t56.5 37t69.5 13q35 0 65.5 -13t47.5 -37.5t12 -60.5q-4 -35 -27.5 -59.5t-55.5 -37.5q30 -15 48.5 -41.5t13.5 -66.5
q-5 -38 -31 -65.5t-63.5 -42t-76.5 -14.5q-38 0 -71.5 15t-52 43t-13.5 66zM665 309q-2 -17 6.5 -32t27.5 -16t36 14.5t19 34.5q2 18 -6.5 31.5t-27.5 14.5t-35.5 -13.5t-19.5 -33.5zM625 129q-3 -22 8 -38.5t33 -17.5q23 -1 43 16t23 41q2 20 -9 36.5t-32 17.5
q-22 1 -42.5 -16.5t-23.5 -38.5z" />
    <glyph glyph-name="threeeighths" unicode="&#x215c;" horiz-adv-x="925" 
d="M203 271q-71 0 -106.5 42.5t-32.5 100.5h98q0 -26 11.5 -43t38.5 -18q24 -1 45.5 14t24.5 39q6 30 -18 43t-59 15l9 50h1l2 15q30 3 56 17.5t30 39.5q2 17 -7 28t-29 12q-23 0 -39.5 -15t-22.5 -34l-95 1q13 55 56 92.5t107 37.5q41 0 72 -15t47.5 -41.5t10.5 -61.5
q-6 -36 -31.5 -58t-60.5 -33q35 -13 55.5 -38t14.5 -67q-5 -38 -30.5 -65.5t-64 -42.5t-83.5 -15zM749 699h126l-625 -699h-125zM582 115q5 42 33.5 69t66.5 41q-26 14 -40.5 38t-10.5 57q5 35 28 59t57 37t70 13q35 0 65.5 -13t47.5 -37.5t12 -60.5q-4 -35 -27.5 -59.5
t-55.5 -37.5q30 -15 48.5 -41.5t13.5 -66.5q-5 -38 -31 -65.5t-63.5 -42t-76.5 -14.5q-38 0 -71.5 15t-52 42.5t-13.5 66.5zM725 309q-2 -17 6.5 -32t27.5 -16t36 14.5t19 34.5q2 18 -6.5 31.5t-27.5 14.5t-35.5 -13.5t-19.5 -33.5zM685 129q-3 -22 8.5 -38.5t33.5 -17.5
q23 -1 43 16t23 41q2 20 -9.5 36.5t-32.5 17.5q-22 1 -42.5 -16.5t-23.5 -38.5z" />
    <glyph glyph-name="fiveeighths" unicode="&#x215d;" horiz-adv-x="940" 
d="M764 699h126l-624 -699h-125zM395 412q-6 -46 -34.5 -78t-69 -48t-82.5 -16q-52 0 -90 16t-69 39l50 83q22 -19 46 -31.5t49 -12.5q32 0 60.5 15.5t32.5 45.5q3 28 -18 41.5t-47 14.5q-24 1 -51.5 -4.5t-55.5 -14.5l-22 -11l102 247h240l-15 -88l-162 -1l-37 -73
q33 15 68 14q53 -1 83 -41t22 -97zM598 115q5 42 33.5 69t65.5 41q-25 14 -39.5 38t-10.5 57q5 35 28 59t56.5 37t69.5 13q35 0 65.5 -13t47.5 -37.5t12 -60.5q-4 -35 -27.5 -59.5t-55.5 -37.5q31 -15 49.5 -41.5t13.5 -66.5q-5 -38 -31 -65.5t-63.5 -42t-76.5 -14.5
q-38 0 -71.5 15t-52 42.5t-13.5 66.5zM740 309q-2 -17 6.5 -32t27.5 -16t36.5 14.5t19.5 34.5q2 18 -6.5 31.5t-27.5 14.5t-36 -13.5t-20 -33.5zM701 129q-3 -22 8 -38.5t33 -17.5q23 -1 43 16t23 41q2 20 -9.5 36.5t-32.5 17.5q-22 1 -42 -16.5t-23 -38.5z" />
    <glyph glyph-name="seveneighths" unicode="&#x215e;" horiz-adv-x="834" 
d="M97 605l17 95h338l-270 -419h-112l213 323zM651 699h126l-624 -699h-126zM491 115q5 42 34 69t66 41q-25 14 -39.5 38t-10.5 57q5 35 28 59t56.5 37t69.5 13q35 0 65.5 -13t47.5 -37.5t12 -60.5q-4 -35 -27.5 -59.5t-55.5 -37.5q30 -15 48.5 -41.5t13.5 -66.5
q-5 -38 -31 -65.5t-63.5 -42t-76.5 -14.5q-38 0 -71.5 15t-52.5 43t-13 66zM634 309q-2 -17 6 -32t27 -16t36.5 14.5t19.5 34.5q2 18 -6.5 31.5t-27.5 14.5t-35.5 -13.5t-19.5 -33.5zM594 129q-3 -22 8 -38.5t33 -17.5q23 -1 43.5 16t23.5 41q2 20 -9.5 36.5t-32.5 17.5
q-22 1 -42.5 -16.5t-23.5 -38.5z" />
    <glyph glyph-name="minus" unicode="&#x2212;" horiz-adv-x="575" 
d="M56 172l23 132h467l-22 -132h-468z" />
    <glyph glyph-name="uni2219" unicode="&#x2219;" horiz-adv-x="312" 
d="M112 444q3 25 18.5 46t38.5 34t49 12q40 -1 62.5 -29t17.5 -65q-4 -37 -35 -64.5t-70 -26.5q-40 1 -62.5 28.5t-18.5 64.5z" />
    <glyph glyph-name="uniFF10" unicode="&#xff10;" horiz-adv-x="610" 
d="M54 350q11 75 39 140.5t72 115.5t102 78.5t128 28.5q72 0 119.5 -30t74.5 -81t34.5 -116t-1.5 -136q-10 -75 -38 -141t-72 -115.5t-102 -78t-129 -28.5q-70 0 -118 30t-75 81t-35 116.5t1 135.5zM215 350q-4 -35 -4 -72.5t7.5 -70t26.5 -52.5t52 -21q45 -1 79 31t56 82
t29 103q4 35 4 72.5t-7.5 70t-26.5 52.5t-52 21q-45 1 -79 -31t-55.5 -82t-29.5 -103z" />
    <glyph glyph-name="uniFF11" unicode="&#xff11;" horiz-adv-x="610" 
d="M161 495l27 151l342 68l-122 -714h-162l92 538z" />
    <glyph glyph-name="uniFF12" unicode="&#xff12;" horiz-adv-x="610" 
d="M-18 0l357 323q41 38 75.5 74.5t42.5 82.5q5 32 -11.5 59t-58.5 28q-34 1 -60.5 -17t-44 -47t-24.5 -62l-164 1q14 74 55 136t106.5 99.5t152.5 36.5q75 0 128.5 -32t78.5 -83.5t15 -111.5q-9 -58 -44 -103t-82 -83l-182 -144l269 -1l-27 -156h-582z" />
    <glyph glyph-name="uniFF13" unicode="&#xff13;" horiz-adv-x="610" 
d="M283 -16q-78 0 -131.5 32.5t-78.5 87t-19 119.5l163 -1q-3 -46 19 -73t67 -28q42 -1 75 22t40 65q7 33 -9 54t-47 32t-71 12l12 86h2l4 23q33 2 64 13t52.5 31.5t25.5 48.5q4 29 -10.5 48.5t-49.5 20.5q-40 1 -67 -24.5t-37 -58.5l-156 1q13 62 50 111.5t94 78t129 28.5
q68 0 119.5 -25t78 -68.5t16.5 -101.5q-10 -60 -50.5 -97t-98.5 -56q57 -22 90 -64t22 -110q-10 -64 -52 -110.5t-105.5 -71.5t-140.5 -25z" />
    <glyph glyph-name="uniFF14" unicode="&#xff14;" horiz-adv-x="610" 
d="M588 124h-95l-21 -124h-174l21 124h-311l-10 -3l467 578l127 1l-74 -431h96zM392 445l-162 -199l129 1z" />
    <glyph glyph-name="uniFF15" unicode="&#xff15;" horiz-adv-x="610" 
d="M587 223q-8 -58 -37.5 -102t-73.5 -74t-96 -45t-105 -15q-85 0 -148.5 26t-113.5 65l84 139q35 -33 75.5 -53.5t82.5 -20.5q56 0 100 25t52 75q5 33 -10 54t-42 31.5t-58 10.5q-83 3 -176 -31l-33 -16l168 408h398l-25 -148h-271l-63 -124q56 25 118 24q59 0 101 -31
t61.5 -83t11.5 -115z" />
    <glyph glyph-name="uniFF16" unicode="&#xff16;" horiz-adv-x="610" 
d="M392 696h217l-243 -230q24 7 55 7q57 0 100 -31.5t64.5 -82.5t13.5 -113q-11 -81 -57.5 -139.5t-114.5 -90.5t-147 -32q-77 0 -134.5 32.5t-86 91.5t-17.5 138q9 57 40 105.5t70 90.5zM207 246q-7 -46 16.5 -80.5t72.5 -35.5q34 0 63 15t49 41.5t25 59.5q8 46 -15 81.5
t-73 36.5q-33 1 -62.5 -15t-49.5 -43t-26 -60z" />
    <glyph glyph-name="uniFF17" unicode="&#xff17;" horiz-adv-x="610" 
d="M101 541l27 159h561l-449 -700h-185l357 540z" />
    <glyph glyph-name="uniFF18" unicode="&#xff18;" horiz-adv-x="610" 
d="M68 190q10 69 56 115t106 68q-41 24 -64.5 64t-15.5 95q9 59 47.5 100t94.5 62.5t117 21.5q59 0 109 -22t77.5 -63.5t18.5 -100.5q-8 -58 -45.5 -99t-88.5 -63q49 -24 79 -68.5t21 -109.5q-9 -64 -52.5 -110t-105.5 -71t-129 -25q-48 0 -91.5 14t-76 41t-48.5 65t-9 86z
M304 514q-4 -30 11 -53.5t47 -24.5q33 -1 60 23.5t32 55.5t-10.5 54.5t-47.5 24.5q-33 1 -60 -23.5t-32 -56.5zM238 215q-6 -38 13.5 -64.5t57.5 -27.5q39 -1 70.5 26.5t38.5 67.5q5 34 -14.5 61t-56.5 28q-25 1 -48.5 -12t-39.5 -34t-21 -45z" />
    <glyph glyph-name="uniFF19" unicode="&#xff19;" horiz-adv-x="610" 
d="M285 3h-218l243 231q-24 -7 -55 -7q-57 1 -100 32t-64 82.5t-13 112.5q12 81 57.5 140t114 90.5t146.5 31.5q77 0 134.5 -32.5t86 -91.5t17.5 -138q-9 -57 -40 -105.5t-70 -90.5zM469 454q8 47 -15.5 81t-73.5 35q-33 1 -62.5 -14.5t-49 -42t-25.5 -59.5
q-7 -46 16.5 -81.5t72.5 -36.5q34 0 63 15.5t49 42.5t25 60z" />
    <glyph glyph-name="atilde.alt" horiz-adv-x="527" 
d="M152 601q16 35 49 64.5t79 27.5q28 0 46.5 -13t36 -25.5t42.5 -11.5q22 1 39.5 17t33.5 35l61 -76q-13 -19 -34.5 -39t-49 -33t-57.5 -12q-24 1 -44.5 14.5t-40 26.5t-42.5 11q-25 -1 -37.5 -18.5t-18.5 -31.5zM143 318l-36 103q45 20 98.5 36t111.5 16q54 0 99.5 -16.5
t71 -49.5t18.5 -83l-55 -324h-145l11 64q-25 -35 -65.5 -54.5t-90.5 -19.5q-46 0 -80.5 17t-52.5 48t-12 74q7 48 38.5 81.5t78 51t99.5 17.5q34 0 64.5 -8t53.5 -21l8 43q5 60 -64 63q-44 2 -84.5 -12t-66.5 -26zM168 137q-3 -23 12 -34.5t40 -12.5q43 -1 74 23t43 66
q-16 9 -35 13t-41 4q-33 -1 -60.5 -15.5t-32.5 -43.5z" />
    <glyph glyph-name="abreve.alt" horiz-adv-x="527" 
d="M196 680l96 -1q0 -24 11.5 -40.5t38.5 -17.5q28 -1 48 17t27 41l100 -1q-13 -61 -59.5 -102.5t-120.5 -41.5t-109.5 42t-31.5 104zM143 318l-36 103q45 20 98.5 36t111.5 16q54 0 99.5 -16.5t71 -49.5t18.5 -83l-55 -324h-145l11 64q-25 -35 -65.5 -54.5t-90.5 -19.5
q-46 0 -80.5 17t-52.5 48t-12 74q7 48 38.5 81.5t78 51t99.5 17.5q34 0 64.5 -8t53.5 -21l8 43q5 60 -64 63q-44 2 -84.5 -12t-66.5 -26zM168 137q-3 -23 12 -34.5t40 -12.5q43 -1 74 23t43 66q-16 9 -35 13t-41 4q-33 -1 -60.5 -15.5t-32.5 -43.5z" />
    <glyph glyph-name="aogonek.alt" horiz-adv-x="527" 
d="M143 318l-36 103q45 20 98.5 36t111.5 16q54 0 99.5 -16.5t71 -49.5t18.5 -83l-55 -324h-31q-33 -19 -61.5 -42t-33.5 -52q-1 -15 4.5 -24.5t21.5 -11.5q14 -1 28.5 6t24.5 14l22 -72q-17 -15 -41.5 -26.5t-59.5 -11.5q-46 0 -77 27t-25 74q6 40 38 68.5t71 50.5h-26
l11 64q-25 -35 -65.5 -54.5t-90.5 -19.5q-46 0 -80.5 17t-52 48.5t-11.5 75.5q8 47 38.5 80t76.5 50.5t100 17.5q34 0 64.5 -8t53.5 -21l8 43q5 60 -64 63q-44 2 -84.5 -12t-66.5 -26zM168 137q-3 -23 13 -34.5t39 -12.5q43 -1 74 23t43 66q-16 9 -35 13t-41 4
q-33 -1 -60.5 -15.5t-32.5 -43.5z" />
    <glyph glyph-name="aring.alt" horiz-adv-x="527" 
d="M229 650q5 33 25 58.5t50 40.5t63 15q34 0 60 -15t39.5 -41.5t8.5 -59.5q-4 -33 -24.5 -58.5t-50.5 -40.5t-64 -15q-33 0 -59 15.5t-39 42t-9 58.5zM307 648q-2 -17 7.5 -31t26.5 -15q18 -1 36 14t20 34q2 17 -8 31t-27 15q-18 2 -35.5 -13.5t-19.5 -34.5zM143 318
l-36 103q45 20 98.5 36t111.5 16q54 0 99.5 -16.5t71 -49.5t18.5 -83l-55 -324h-145l11 64q-25 -35 -65.5 -54.5t-90.5 -19.5q-46 0 -80.5 17t-52.5 48t-12 74q7 48 38.5 81.5t78 51t99.5 17.5q34 0 64.5 -8t53.5 -21l8 43q5 60 -64 63q-44 2 -84.5 -12t-66.5 -26zM168 137
q-3 -23 12 -34.5t40 -12.5q43 -1 74 23t43 66q-16 9 -35 13t-41 4q-33 -1 -60.5 -15.5t-32.5 -43.5z" />
    <glyph glyph-name="acircumflex.alt" horiz-adv-x="527" 
d="M350 618l-103 -84l-95 74l213 137l172 -143l-113 -69zM143 318l-36 103q45 20 98.5 36t111.5 16q54 0 99.5 -16.5t71 -49.5t18.5 -83l-55 -324h-145l11 64q-25 -35 -65.5 -54.5t-90.5 -19.5q-46 0 -80.5 17t-52.5 48t-12 74q7 48 38.5 81.5t78 51t99.5 17.5q34 0 64.5 -8
t53.5 -21l8 43q5 60 -64 63q-44 2 -84.5 -12t-66.5 -26zM168 137q-3 -23 12 -34.5t40 -12.5q43 -1 74 23t43 66q-16 9 -35 13t-41 4q-33 -1 -60.5 -15.5t-32.5 -43.5z" />
    <glyph glyph-name="agrave.alt" horiz-adv-x="527" 
d="M191 685l118 51l121 -163l-87 -40zM143 318l-36 103q45 20 98.5 36t111.5 16q54 0 99.5 -16.5t71 -49.5t18.5 -83l-55 -324h-145l11 64q-25 -35 -65.5 -54.5t-90.5 -19.5q-46 0 -80.5 17t-52.5 48t-12 74q7 48 38.5 81.5t78 51t99.5 17.5q34 0 64.5 -8t53.5 -21l8 43
q5 60 -64 63q-44 2 -84.5 -12t-66.5 -26zM168 137q-3 -23 12 -34.5t40 -12.5q43 -1 74 23t43 66q-16 9 -35 13t-41 4q-33 -1 -60.5 -15.5t-32.5 -43.5z" />
    <glyph glyph-name="amacron.alt" horiz-adv-x="527" 
d="M151 541l23 131h365l-23 -132zM143 318l-36 103q45 20 98.5 36t111.5 16q54 0 99.5 -16.5t71 -49.5t18.5 -83l-55 -324h-145l11 64q-25 -35 -65.5 -54.5t-90.5 -19.5q-46 0 -80.5 17t-52.5 48t-12 74q7 48 38.5 81.5t78 51t99.5 17.5q34 0 64.5 -8t53.5 -21l8 43
q5 60 -64 63q-44 2 -84.5 -12t-66.5 -26zM168 137q-3 -23 12 -34.5t40 -12.5q43 -1 74 23t43 66q-16 9 -35 13t-41 4q-33 -1 -60.5 -15.5t-32.5 -43.5z" />
    <glyph glyph-name="adieresis.alt" horiz-adv-x="527" 
d="M378 617q5 34 34.5 57.5t63.5 22.5q35 -1 58 -24.5t18 -58.5q-4 -34 -33.5 -57.5t-64.5 -22.5t-57.5 25t-18.5 58zM141 617q5 34 34 57.5t63 22.5q35 -1 58 -24.5t18 -58.5q-4 -34 -33 -57.5t-64 -22.5t-57.5 25t-18.5 58zM143 318l-36 103q45 20 98.5 36t111.5 16
q54 0 99.5 -16.5t71 -49.5t18.5 -83l-55 -324h-145l11 64q-25 -35 -65.5 -54.5t-90.5 -19.5q-46 0 -80.5 17t-52.5 48t-12 74q7 48 38.5 81.5t78 51t99.5 17.5q34 0 64.5 -8t53.5 -21l8 43q5 60 -64 63q-44 2 -84.5 -12t-66.5 -26zM168 137q-3 -23 12 -34.5t40 -12.5
q43 -1 74 23t43 66q-16 9 -35 13t-41 4q-33 -1 -60.5 -15.5t-32.5 -43.5z" />
    <glyph glyph-name="a.alt" horiz-adv-x="527" 
d="M143 318l-36 103q45 20 98.5 36t111.5 16q54 0 99.5 -16.5t71 -49.5t18.5 -83l-55 -324h-145l11 64q-25 -35 -65.5 -54.5t-90.5 -19.5q-46 0 -80.5 17t-52 48.5t-11.5 75.5q8 47 38.5 80t76.5 50.5t100 17.5q34 0 64.5 -8t53.5 -21l8 43q4 28 -13 45t-51 18
q-44 2 -84.5 -12t-66.5 -26zM168 137q-3 -23 13 -34.5t39 -12.5q43 -1 74 23t43 66q-33 17 -76 17q-34 0 -61.5 -15t-31.5 -44z" />
    <glyph glyph-name="aacute.alt" horiz-adv-x="527" 
d="M526 680l-197 -146l-81 45l170 156zM143 318l-36 103q45 20 98.5 36t111.5 16q54 0 99.5 -16.5t71 -49.5t18.5 -83l-55 -324h-145l11 64q-25 -35 -65.5 -54.5t-90.5 -19.5q-46 0 -80.5 17t-52.5 48t-12 74q7 48 38.5 81.5t78 51t99.5 17.5q34 0 64.5 -8t53.5 -21l8 43
q5 60 -64 63q-44 2 -84.5 -12t-66.5 -26zM168 137q-3 -23 12 -34.5t40 -12.5q43 -1 74 23t43 66q-16 9 -35 13t-41 4q-33 -1 -60.5 -15.5t-32.5 -43.5z" />
    </font>
</defs>
</svg>
