<?xml version="1.0" encoding="UTF-8"?>
<svg width="255px" height="58px" viewBox="0 0 255 58" version="1.1" xmlns="http://www.w3.org/2000/svg" xmlns:xlink="http://www.w3.org/1999/xlink">
    <!-- Generator: Sketch 56.2 (81672) - https://sketch.com -->
    <title>RALLIO-01</title>
    <desc>Created with Sketch.</desc>
    <g id="Symbols" stroke="none" stroke-width="1" fill="none" fill-rule="evenodd">
        <g id="Logo/Blue" transform="translate(0.000000, -0.000000)" fill="#244262">
            <g id="RALLIO-01">
                <path d="M119.763995,27.4413096 C120.587998,25.8473909 121,24.1206229 121,22.2615527 C120.892966,20.9761565 120.661013,19.7742187 120.304411,18.6560129 C119.947675,17.5375335 119.310982,16.46995 118.394332,15.4531256 C117.477682,14.4365749 116.143652,13.6066427 114.39251,12.964013 C112.6411,12.3212464 110.417313,12 107.720746,12 L99,12 L99,45 L102.242227,45 L102.242227,15.0374754 L108.780064,15.0374754 C110.299656,15.0374754 111.751209,15.3297167 113.13526,15.913515 C114.519042,16.4973134 115.635373,17.3624076 116.484387,18.5082505 C117.333266,19.6542301 117.757639,21.0250002 117.757639,22.6206975 C117.757639,24.1583844 117.365403,25.4875621 116.580664,26.6080938 C115.795924,27.7286254 114.681342,28.5771648 113.236781,29.1538487 C111.792221,29.7305326 110.09984,30.0188061 108.159506,30.0188061 L105.44156,30.0188061 L116.495144,45 L120.571997,45 L111.401733,32.6534922 C113.235033,32.6534922 114.881023,32.1833888 116.339971,31.2429083 C117.79865,30.3025647 118.940126,29.0353651 119.763995,27.4413096" id="Fill-1"></path>
                <path d="M135.585479,30.9115374 L142.005059,15.8322457 L148.371314,30.9115374 L135.585479,30.9115374 Z M140.178316,12 L126,45 L129.568849,45 L134.334379,33.9491497 L149.57866,33.9491497 L154.431288,45 L158,45 L143.83317,12 L140.178316,12 L140.178316,12 Z" id="Fill-2"></path>
                <path d="M250.135719,35.3295945 C249.228307,37.0457069 248.067918,38.4493779 246.657304,39.5403351 C245.245316,40.6314284 243.730212,41.4352772 242.110618,41.9518816 C240.492399,42.4684859 238.901677,42.7376159 237.341203,42.7592716 C235.831598,42.7592716 234.269749,42.4936828 232.658404,41.9627775 C231.045685,41.4315999 229.53883,40.5916582 228.133716,39.4428163 C226.729976,38.2939744 225.588836,36.80191 224.710296,34.9664869 C223.830381,33.1313363 223.365675,30.9635867 223.314805,28.4635106 C223.314805,26.8883646 223.676395,25.3040932 224.398201,23.7108327 C225.120006,22.1175721 226.138783,20.6671848 227.455906,19.359262 C228.773029,18.0514754 230.288133,17.0164962 232.001218,16.2540519 C233.715677,15.4918801 235.527753,15.110658 237.438818,15.110658 C239.839337,15.110658 242.138115,15.7013548 244.337903,16.8827483 C246.536316,18.0641419 248.31127,19.7385773 249.660015,21.9063269 C251.010135,24.0739402 251.68382,26.5271638 251.68382,29.2655888 C251.560082,31.5922831 251.044506,33.6136183 250.135719,35.3295945 Z M252.631103,20.5623112 C251.051381,17.9034266 248.906588,15.8115401 246.198099,14.2869241 C243.488235,12.7624442 240.53502,12 237.341203,12 C234.854068,12 232.54704,12.4698879 230.421495,13.409119 C228.294575,14.34835 226.455003,15.6237211 224.901402,17.23496 C223.347802,18.846335 222.151668,20.6400811 221.312998,22.6161981 C220.474329,24.5924513 220.035747,26.6030268 220,28.6477884 C220,31.1985306 220.479829,33.5358485 221.438111,35.6601505 C222.397769,37.7844524 223.699768,39.607209 225.34411,41.1281476 C226.988451,42.6492225 228.829399,43.825168 230.864202,44.6559844 C232.899006,45.4869369 234.970931,45.9350329 237.078603,46 C239.259143,46 241.409436,45.6043408 243.528106,44.8131585 C245.646777,44.0219762 247.567467,42.8858008 249.288801,41.4044962 C251.010135,39.9233278 252.380878,38.153008 253.402404,36.0936731 C254.422556,34.0344745 254.956004,31.7873206 255,29.3522116 C255,26.1513896 254.209451,23.2214682 252.631103,20.5623112 L252.631103,20.5623112 Z" id="Fill-3"></path>
                <polygon id="Fill-4" points="209 45 212 45 212 12 209 12"></polygon>
                <path d="M166.172414,37.1461378 L166.172414,12 L163,12 L163,37.1461378 C163,41.476785 166.526897,45 170.862069,45 L181,45 L181,41.8308977 L170.862069,41.8308977 C168.275862,41.8308977 166.172414,39.7293695 166.172414,37.1461378" id="Fill-5"></path>
                <path d="M187.172414,37.1461378 L187.172414,12 L184,12 L184,37.1461378 C184,41.476785 187.526897,45 191.862069,45 L202,45 L202,41.8308977 L191.862069,41.8308977 C189.275862,41.8308977 187.172414,39.7293695 187.172414,37.1461378" id="Fill-6"></path>
                <polygon id="Fill-7" points="74 58 76 58 76 1 74 1"></polygon>
                <path d="M56.8558281,27.6724214 C56.3397646,31.9232454 54.7425611,38.0087971 50.1271806,43.5251629 C47.8298089,46.2711626 44.9571779,48.6285336 41.820066,50.3425248 C40.0122825,51.3300444 35.2114396,53.9533913 28.7411634,53.8483972 C24.8427866,53.7848805 18.9470908,52.6900398 12.9998023,47.834028 C7.64610215,43.4624676 4.31931896,37.7706096 3.37938018,31.3740455 C2.93378158,28.3420839 2.4517965,20.5033908 7.58772086,13.2162247 C9.62142634,10.3307348 14.1614542,5.24146361 21.7180298,3.57606815 C22.0133305,3.51104572 24.7068804,2.94925195 28.3506876,3.23329729 C33.0241778,3.59783355 37.1439961,5.13578506 40.5955524,7.80457924 C43.7945756,10.2777586 46.0905895,13.2947992 47.4200537,16.7717879 C48.5580816,19.7481724 49.8487154,24.2095323 47.9253913,28.5697309 C46.2457752,32.3774442 42.595451,35.0237885 38.3989224,35.475934 C36.8951289,35.637874 33.0544546,35.7098778 29.8753896,32.8887258 C29.730251,32.759913 29.592444,32.6284992 29.4604752,32.4955797 L28.4180297,31.2404415 C27.9963267,30.6329267 27.6839189,30.0358155 27.456775,29.5123507 C29.1739995,29.35616 31.8336068,28.4088859 33.0434572,27.6186239 C34.3661329,26.7545785 35.9277645,25.5531009 36.6749093,24.0885221 C37.4219182,22.6239433 37.7954227,21.037396 37.7954227,19.3292911 C37.6983469,18.1482101 37.4881742,17.043787 37.164769,16.0162958 C36.841228,14.9886677 36.2640679,14.0077188 35.433017,13.0733123 C34.6018303,12.1393165 33.3922515,11.3768429 31.8044161,10.7863024 C30.2165808,10.1957619 28.2002539,9.90062851 25.7554355,9.90062851 L17.8484364,9.90062851 L17.8484364,42.4121158 L20.7880023,42.4121158 L20.7880023,12.691528 L26.7158756,12.691528 C28.0935383,12.691528 29.409697,12.9599679 30.6646232,13.4964372 C31.9192779,14.0329064 32.9314466,14.8276858 33.701265,15.8805016 C34.4708119,16.9334542 34.8557211,18.1929729 34.8557211,19.6591944 C34.8557211,21.072029 34.5,22.2932187 33.7884296,23.3229001 C33.0769925,24.3524447 32.0664531,25.1321663 30.7566756,25.6620648 C29.4468981,26.1919634 27.9124206,26.4568442 26.1531072,26.4568442 L23.6888736,26.4568442 L23.7148057,27.4231459 C23.7169781,27.5021311 23.7221373,27.5805687 23.7308267,27.6591431 C23.7615108,27.9330587 23.8279025,28.4402336 23.8857407,28.6446093 C24.1314852,29.7279514 25.038296,32.7907131 27.812222,35.2521199 C31.9210429,38.8984408 36.8165178,38.8126111 38.7306095,38.6065927 C44.0313592,38.0354905 48.6479616,34.6799226 50.778743,29.8490985 C53.1737336,24.4192467 51.671841,19.1388781 50.3338232,15.6393026 C48.7945937,11.6136615 46.1573886,8.1370834 42.4957955,5.30621226 C33.171896,-1.90279 22.2645059,0.232957169 21.0513969,0.500302011 C12.4683968,2.39170175 7.33708862,8.13653585 5.04229658,11.3925852 C-0.75048519,19.61142 -0.210661905,28.4269553 0.290331034,31.8354994 C1.3470324,39.0258847 5.06225483,45.4041057 11.0343894,50.2807877 C17.6739714,55.7018786 24.300791,56.9249847 28.6907925,56.9964409 C28.8363384,56.998768 28.979712,57 29.1234929,57 C36.188308,57 41.3431044,54.1839129 43.3077028,53.1105637 C46.7843765,51.2113613 49.9677861,48.5986918 52.5141608,45.5552315 C57.7623673,39.2822784 59.4817642,32.3681357 60,27.6724214 L56.8558281,27.6724214" id="Fill-8"></path>
            </g>
        </g>
    </g>
</svg>