<?xml version="1.0" encoding="UTF-8"?>
<svg width="60px" height="57px" viewBox="0 0 60 57" version="1.1" xmlns="http://www.w3.org/2000/svg" xmlns:xlink="http://www.w3.org/1999/xlink">
    <!-- Generator: Sketch 56.2 (81672) - https://sketch.com -->
    <title>Fill 8</title>
    <desc>Created with Sketch.</desc>
    <g id="Symbols" stroke="none" stroke-width="1" fill="none" fill-rule="evenodd">
        <g id="Logo/Sign/Blue" fill="#244262">
            <path d="M56.8558281,27.6724214 C56.3397646,31.9232454 54.7425611,38.0087971 50.1271806,43.5251629 C47.8298089,46.2711626 44.9571779,48.6285336 41.820066,50.3425248 C40.0122825,51.3300444 35.2114396,53.9533913 28.7411634,53.8483972 C24.8427866,53.7848805 18.9470908,52.6900398 12.9998023,47.834028 C7.64610215,43.4624676 4.31931896,37.7706096 3.37938018,31.3740455 C2.93378158,28.3420839 2.4517965,20.5033908 7.58772086,13.2162247 C9.62142634,10.3307348 14.1614542,5.24146361 21.7180298,3.57606815 C22.0133305,3.51104572 24.7068804,2.94925195 28.3506876,3.23329729 C33.0241778,3.59783355 37.1439961,5.13578506 40.5955524,7.80457924 C43.7945756,10.2777586 46.0905895,13.2947992 47.4200537,16.7717879 C48.5580816,19.7481724 49.8487154,24.2095323 47.9253913,28.5697309 C46.2457752,32.3774442 42.595451,35.0237885 38.3989224,35.475934 C36.8951289,35.637874 33.0544546,35.7098778 29.8753896,32.8887258 C29.730251,32.759913 29.592444,32.6284992 29.4604752,32.4955797 L28.4180297,31.2404415 C27.9963267,30.6329267 27.6839189,30.0358155 27.456775,29.5123507 C29.1739995,29.35616 31.8336068,28.4088859 33.0434572,27.6186239 C34.3661329,26.7545785 35.9277645,25.5531009 36.6749093,24.0885221 C37.4219182,22.6239433 37.7954227,21.037396 37.7954227,19.3292911 C37.6983469,18.1482101 37.4881742,17.043787 37.164769,16.0162958 C36.841228,14.9886677 36.2640679,14.0077188 35.433017,13.0733123 C34.6018303,12.1393165 33.3922515,11.3768429 31.8044161,10.7863024 C30.2165808,10.1957619 28.2002539,9.90062851 25.7554355,9.90062851 L17.8484364,9.90062851 L17.8484364,42.4121158 L20.7880023,42.4121158 L20.7880023,12.691528 L26.7158756,12.691528 C28.0935383,12.691528 29.409697,12.9599679 30.6646232,13.4964372 C31.9192779,14.0329064 32.9314466,14.8276858 33.701265,15.8805016 C34.4708119,16.9334542 34.8557211,18.1929729 34.8557211,19.6591944 C34.8557211,21.072029 34.5,22.2932187 33.7884296,23.3229001 C33.0769925,24.3524447 32.0664531,25.1321663 30.7566756,25.6620648 C29.4468981,26.1919634 27.9124206,26.4568442 26.1531072,26.4568442 L23.6888736,26.4568442 L23.7148057,27.4231459 C23.7169781,27.5021311 23.7221373,27.5805687 23.7308267,27.6591431 C23.7615108,27.9330587 23.8279025,28.4402336 23.8857407,28.6446093 C24.1314852,29.7279514 25.038296,32.7907131 27.812222,35.2521199 C31.9210429,38.8984408 36.8165178,38.8126111 38.7306095,38.6065927 C44.0313592,38.0354905 48.6479616,34.6799226 50.778743,29.8490985 C53.1737336,24.4192467 51.671841,19.1388781 50.3338232,15.6393026 C48.7945937,11.6136615 46.1573886,8.1370834 42.4957955,5.30621226 C33.171896,-1.90279 22.2645059,0.232957169 21.0513969,0.500302011 C12.4683968,2.39170175 7.33708862,8.13653585 5.04229658,11.3925852 C-0.75048519,19.61142 -0.210661905,28.4269553 0.290331034,31.8354994 C1.3470324,39.0258847 5.06225483,45.4041057 11.0343894,50.2807877 C17.6739714,55.7018786 24.300791,56.9249847 28.6907925,56.9964409 C28.8363384,56.998768 28.979712,57 29.1234929,57 C36.188308,57 41.3431044,54.1839129 43.3077028,53.1105637 C46.7843765,51.2113613 49.9677861,48.5986918 52.5141608,45.5552315 C57.7623673,39.2822784 59.4817642,32.3681357 60,27.6724214 L56.8558281,27.6724214" id="Fill-8"></path>
        </g>
    </g>
</svg>