<?xml version="1.0" encoding="UTF-8"?>
<svg width="138px" height="30px" viewBox="0 0 138 30" version="1.1" xmlns="http://www.w3.org/2000/svg" xmlns:xlink="http://www.w3.org/1999/xlink">
    <!-- Generator: Sketch 56.2 (81672) - https://sketch.com -->
    <title>Logo/White</title>
    <desc>Created with Sketch.</desc>
    <g id="Loop-#9-Copy" stroke="none" stroke-width="1" fill="none" fill-rule="evenodd">
        <g id="RALLIO---HP-#9" transform="translate(-891.000000, -6339.000000)" fill="#000000">
            <g id="Group-7" transform="translate(0.000000, 5574.000000)">
                <g id="Group-35" transform="translate(0.000000, 713.000000)">
                    <g id="Logo/White" transform="translate(890.914286, 52.000000)">
                        <path d="M18.0182555,13.5696357 C18.7298947,12.1689193 19.0857143,10.6514565 19.0857143,9.01772817 C18.9932755,7.88813755 18.7929528,6.83188915 18.4849784,5.84922346 C18.1768879,4.8663173 17.6270165,3.92813788 16.8353644,3.03456496 C16.0437122,2.14123251 14.8915953,1.41189811 13.3792459,0.847162912 C11.8666642,0.282307482 9.94612098,0 7.61726779,0 L0.0857142857,0 L0.0857142857,29 L2.88581941,29 L2.88581941,2.66929659 L8.53213293,2.66929659 C9.84450801,2.66929659 11.0981218,2.92611464 12.2934387,3.43914958 C13.4885234,3.95218451 14.4526273,4.71241884 15.1858665,5.71937164 C15.9189896,6.72644466 16.285493,7.93106079 16.285493,9.33334024 C16.285493,10.6846408 15.9467444,11.8527061 15.2690149,12.8374157 C14.5912854,13.8221254 13.6286912,14.5678115 12.3811162,15.0745943 C11.1335411,15.5813771 9.67194015,15.8347084 7.99619708,15.8347084 L5.64887935,15.8347084 L15.1951568,29 L18.7160753,29 L10.7963022,18.1500386 C12.3796065,18.1500386 13.801143,17.7369174 15.0611438,16.9104346 C16.3209124,16.084072 17.3067324,14.9704724 18.0182555,13.5696357" id="Fill-1"></path>
                        <path d="M32.4730084,16.6192298 L38.090141,3.36773108 L43.6606137,16.6192298 L32.4730084,16.6192298 Z M36.4917408,0 L24.0857143,29 L27.2084571,29 L31.3782957,19.2886467 L44.7170414,19.2886467 L48.9630911,29 L52.0857143,29 L39.6897376,0 L36.4917408,0 L36.4917408,0 Z" id="Fill-2"></path>
                        <path d="M133.777351,20.8987718 C132.973643,22.3625147 131.945871,23.5597635 130.69647,24.4902858 C129.445851,25.4209242 128.103902,26.10656 126.669404,26.5471931 C125.236125,26.9878262 123.8272,27.2173782 122.445065,27.2358493 C121.107987,27.2358493 119.724635,27.0093176 118.297444,26.5564867 C116.869035,26.1034234 115.534392,25.3870026 114.289862,24.407108 C113.04655,23.4272134 112.035826,22.1545703 111.257691,20.5890624 C110.478337,19.0237868 110.066741,17.1748239 110.021685,15.0424061 C110.021685,13.6988992 110.34195,12.3476089 110.981264,10.9886514 C111.620577,9.62969387 112.522922,8.39259876 113.689517,7.27701755 C114.856111,6.16155251 116.198061,5.27877613 117.715364,4.62845606 C119.233886,3.97836833 120.838867,3.6532083 122.531525,3.6532083 C124.657698,3.6532083 126.693759,4.1570379 128.642143,5.16469712 C130.589309,6.17235633 132.161411,7.60055121 133.356013,9.44951409 C134.551834,11.2983608 135.148526,13.3908162 135.148526,15.7265316 C135.03893,17.711065 134.582277,19.4351451 133.777351,20.8987718 Z M135.987549,8.30314781 C134.588366,6.03527564 132.688692,4.25101949 130.289745,2.9506117 C127.88958,1.65032007 125.273875,1 122.445065,1 C120.242174,1 118.198807,1.40078675 116.316181,2.20189558 C114.432338,3.0030044 112.803002,4.09082096 111.426956,5.46511293 C110.05091,6.83952106 108.991477,8.36948092 108.248656,10.0549925 C107.505834,11.7406203 107.117376,13.4555229 107.085714,15.1995842 C107.085714,17.3752173 107.510705,19.3688119 108.35947,21.1807166 C109.209452,22.9926212 110.362652,24.5473253 111.819069,25.8445965 C113.275485,27.1419839 114.906039,28.1449963 116.708294,28.8536337 C118.510548,29.5623873 120.345682,29.9445869 122.212477,30 C124.143812,30 126.048357,29.6625259 127.924894,28.987694 C129.801431,28.312862 131.502613,27.3437713 133.027223,26.0803056 C134.551834,24.816956 135.76592,23.3069774 136.670701,21.5504859 C137.574264,19.7941106 138.046747,17.8774205 138.085714,15.8004158 C138.085714,13.0703029 137.385514,10.5712523 135.987549,8.30314781 L135.987549,8.30314781 Z" id="Fill-3"></path>
                        <polygon id="Fill-4" points="97.0857143 29 100.085714 29 100.085714 0 97.0857143 0"></polygon>
                        <path d="M59.9056377,22.0981211 L59.9056377,0 L57.0857143,0 L57.0857143,22.0981211 C57.0857143,25.9038413 60.2207334,29 64.07422,29 L73.0857143,29 L73.0857143,26.2150313 L64.07422,26.2150313 C61.7753695,26.2150313 59.9056377,24.3682338 59.9056377,22.0981211" id="Fill-5"></path>
                        <path d="M77.9056377,22.0981211 L77.9056377,0 L75.0857143,0 L75.0857143,22.0981211 C75.0857143,25.9038413 78.2207334,29 82.07422,29 L91.0857143,29 L91.0857143,26.2150313 L82.07422,26.2150313 C79.7753695,26.2150313 77.9056377,24.3682338 77.9056377,22.0981211" id="Fill-6"></path>
                    </g>
                </g>
            </g>
        </g>
    </g>
</svg>