<svg xmlns="http://www.w3.org/2000/svg" viewBox="0 0 638.43 555.66"><title>Asset 2</title><g id="Layer_2" data-name="Layer 2"><g id="Tech"><path d="M140.19,502v41.47a8,8,0,0,0,4.74,7.63c5.11,2.25,10.83,3.86,12.81,3.52s11.83-5.56,11.83-5.56l-4.31-49.57Z" style="fill:#ebe7f3"/><path d="M528.5,137.17s-11.7-4.39-9.57-10.28.32-7.45,0-11.94-1.13-4.82.82-9,3.88-4.76,4.29-7.7-.66-8.46,1.82-6.43,7,8.15,7.72,11.75,4,7.7,4.31,10-.92,4.85-.15,6.89a10.67,10.67,0,0,1,.21,7.85C536.79,131.87,531.06,140.14,528.5,137.17Z" style="fill:#ebe7f3"/><path d="M367,72,380,64.39,390,68.08l19.59-37.22,19.53,38.56-1.86,1,.28,17.44,65-37.18s5.68-1.92,9.52.9l7.34,4a15.18,15.18,0,0,1,2.47,7.55v55.33l-18,11.65L360.45,86.35Z" style="fill:#ebe7f3"/><polygon points="253.73 25.54 261.2 15.69 321.57 1.15 338.94 31.5 356.33 48.67 331.69 54.4 253.73 25.54" style="fill:#ebe7f3"/><path d="M113.29,76s-4-6.1-.64-7.88c0,0-.09-11.21,11.45-10.1,0,0,5.13-10.19,11.07-2.92Z" style="fill:#ebe7f3"/><polygon points="78.04 134.44 60.6 154.23 66.17 157.4 66.17 192.09 73.83 193.25 78.04 134.44" style="fill:#ebe7f3"/><path d="M42.39,239.8s-7.9-5.82-1.93-12l-10-9.37L66,199.74v5.41l-4.12,42.07Z" style="fill:#ebe7f3"/><polygon points="30.35 413.59 30.35 431.07 24.47 436.71 24.47 443.46 27.88 445.17 27.88 447.45 21.99 452.75 58.22 471.81 70.02 465.12 75.38 456.8 30.35 413.59" style="fill:#ebe7f3"/><path d="M69.5,142.1s9-75,97-104,143-11,172,0,41,47,127,65,167,67,170,175-65,184-178,215-200,41-301,19-149-110-149-152,0-75.81,38-128C69.64,198.93,69.5,142.1,69.5,142.1Z" style="fill:#ebe7f3"/><path d="M298.5,9.1s43,6,71,30" style="fill:none;stroke:#ebe7f3;stroke-linecap:round;stroke-miterlimit:10;stroke-width:3px"/><path d="M398.5,63.1s42,20,68,23,100,26,120,44" style="fill:none;stroke:#ebe7f3;stroke-linecap:round;stroke-miterlimit:10;stroke-width:3px"/><path d="M586.5,452.1s-56,39-94,54" style="fill:none;stroke:#ebe7f3;stroke-linecap:round;stroke-miterlimit:10;stroke-width:3px"/><path d="M193.5,538.1s-159-9-192-137" style="fill:none;stroke:#ebe7f3;stroke-linecap:round;stroke-miterlimit:10;stroke-width:3px"/><path d="M59.5,108.1s-8,32-12,62-35,67-46,81" style="fill:none;stroke:#ebe7f3;stroke-linecap:round;stroke-miterlimit:10;stroke-width:3px"/><path d="M158.45,253,501.72,55.81s9.55-6.17,10.11,7.31V335a20.53,20.53,0,0,1-9.55,21.69L161.82,553.58s-13.48,6.75-12.92-13.48l0-265.74S148.06,259,158.45,253Z" style="fill:#fcfafb"/><path d="M179,266s.39-5.57,3.79-7.38S472.7,91.91,472.7,91.91s6.63-6.21,6.63.59V342s-.25,10.09-9.57,13.79-284.35,165-284.35,165-6.41,3.3-6.4-4.28Z" style="fill:#1f407b;opacity:0.5"/><path d="M507.87,54.4s-3.87-.23-5.39,1.05S156.73,254.17,156.73,254.17s-7.6,7.32-7.87,17.29.24,271.71.24,271.71-1,9.48,8,11.49c0,0-14.43-3.68-15.66-6.8a18.31,18.31,0,0,1-1.32-7.44c.07-1.5,0-269,0-269s1.67-20.56,12.2-24.68L490.38,51.61s8.92-3,11.64,0Z" style="fill:#1f407b;opacity:0.5"/><path d="M168.51,548.76l418-206.71,34.1-19.7s15.82-22-8-25.14-100.77-14.06-100.77-14.06v50.18s1.89,16.08-7.12,21.66S168.51,548.76,168.51,548.76Z" style="fill:#999;opacity:0.4"/><polyline points="181.38 305.06 181.91 305.4 216.58 327.88 216.58 446.08 194.78 431.4 194.78 361.71 199.45 355.87 198.52 350.28 180.19 341.09" style="fill:#1f407b;opacity:0.5"/><polygon points="235.19 354.58 279.77 329.69 279.77 368.6 256.92 355.98 234.79 369.3 235.19 354.58" style="fill:#1f407b;opacity:0.5"/><polygon points="237.56 400.9 263.29 416.5 285.29 409.9 302.76 423.75 265.99 445.28 235.19 430.69 233.79 400.9 237.56 400.9" style="fill:#1f407b;opacity:0.5"/><polygon points="316.91 334.52 337.52 346.84 316.91 359.1 316.91 334.52" style="fill:#1f407b;opacity:0.5"/><polygon points="38.84 340.43 63.28 354.86 63.28 366.64 57.84 361.98 38.84 372.24 38.84 340.43" style="fill:#999;opacity:0.4"/><polyline points="76.24 369.3 76.24 361.71 103.05 376.57 103.05 420.33 87.64 414.76 88.11 378.02 76.24 370.72" style="fill:#999;opacity:0.4"/><polygon points="140.19 436.71 114.56 423.75 114.56 380.39 139.33 392.56 140.19 436.71" style="fill:#999;opacity:0.4"/><polygon points="57.41 447.27 31.77 434.31 31.77 390.95 56.54 403.12 57.41 447.27" style="fill:#999;opacity:0.4"/><path d="M76,209.94a16.55,16.55,0,0,1,3.76,11.45,7.53,7.53,0,0,1,1.73,1.71,10.89,10.89,0,0,1,1.5,9l21.24,10.77-1.29-66.21-37-18.25v47.17C69.29,205.08,73.09,206.61,76,209.94Z" style="fill:#999;opacity:0.4"/><polyline points="66 302.7 66 309.34 79.55 317.03 94 311.58 94.38 300.2 79.29 308.31 66 301.06" style="fill:#999;opacity:0.4"/><polyline points="95.87 319.43 95.87 326.06 109.41 333.75 123.87 328.31 124.25 316.92 109.16 325.03 95.87 317.78" style="fill:#999;opacity:0.4"/><polyline points="104.23 276.57 104.23 283.21 117.77 290.9 132.22 285.45 132.6 274.07 117.52 282.17 104.23 274.93" style="fill:#999;opacity:0.4"/><polygon points="182.49 288.46 231.75 260.85 251.88 270.01 247.5 273.17 231.62 266.03 183.32 291.56 182.49 288.46" style="fill:#1f407b;opacity:0.5"/><polygon points="179.01 491.63 206.58 476.37 233.4 489.05 242.07 484.64 205.55 466.06 179.01 476.37 179.01 491.63" style="fill:#1f407b;opacity:0.5"/><polyline points="233.81 367.24 259.86 358.71 258.35 341.65 235.19 354.58 234.79 369.3" style="fill:#1f407b;opacity:0.5"/><polygon points="138.06 102.9 167.42 118.02 172.5 114.63 172.5 147.32 138.5 127.17 138.06 102.9" style="fill:#999;opacity:0.4"/><polygon points="195 135.58 195 159.81 228.71 180 229.45 147.31 224.02 151.1 195 135.58" style="fill:#999;opacity:0.4"/><polygon points="276.79 136.66 276.79 152.76 293.52 143.19 293.52 126.93 276.79 136.66" style="fill:#999;opacity:0.4"/><polygon points="280.85 133.54 293.52 143.19 293.52 126.93 280.85 133.54" style="fill:#999"/><polygon points="232.3 36.87 266.32 55.07 266.74 92.92 230.94 74.42 232.3 36.87" style="fill:#999;opacity:0.4"/><polygon points="254.28 42.06 271.51 51.85 277.62 50.7 277.62 86.63 302.57 98.75 301.48 74.87 279.36 52.66 261.2 18.71 254.93 24.13 254.28 42.06" style="fill:#999;opacity:0.4"/><polygon points="353.19 129.82 353.93 92.9 385.5 111.15 353.19 129.82" style="fill:#999;opacity:0.4"/><polyline points="390.27 110.24 390.27 109.56 390 70.16 410.7 33.71 409.59 78.63 409.59 96.75" style="fill:#999;opacity:0.4"/><polygon points="387.03 111.99 351.44 91.3 361.37 76.67 390 92.92 390.27 108.34 387.03 111.99" style="fill:#999;opacity:0.4"/><polygon points="117.94 164.69 143.7 153.32 143.7 211.69 117.94 225.16 117.94 164.69" style="fill:#999;opacity:0.4"/><polygon points="512.14 175.42 531.22 172.02 551.13 199.41 551.13 262.78 511.83 242.12 512.14 175.42" style="fill:#999;opacity:0.4"/><path d="M157.59,158.2v32.73l23.23,12.6.12-4.9s-8.5-9.43-8.22-12.88-.68-13-.57-16.19,0-4.94,0-4.94Z" style="fill:#999;opacity:0.4"/><path d="M189.16,169.77l46.11,27-29.72,18.8-12.05-6.45L148.86,233,78.73,272.9,65.91,261l-.49-10.71,14.77,8.39,100.63-53.36,1.67-2.37.24-6.33s8.63-6.6,9.45-10.58-1.33-5.4-1-8.26S189.16,169.77,189.16,169.77Z" style="fill:#999;opacity:0.4"/><polygon points="230.42 59.23 203.54 70.75 261.88 103.14 280.6 93.47 301.48 104.57 327.41 96.35 323.11 89.87 304.12 98.75 277.62 86.63 266.74 92.92 230.94 74.42 230.42 59.23" style="fill:#999;opacity:0.4"/><polygon points="214.53 103.96 246.64 125.11 268.04 125.16 233.98 104.81 214.53 103.96" style="fill:#999;opacity:0.4"/><polygon points="158.06 71.88 190.17 93.03 211.57 93.08 177.51 72.73 158.06 71.88" style="fill:#999;opacity:0.4"/><polygon points="100.83 127.56 132.94 148.72 154.34 148.76 120.28 128.41 100.83 127.56" style="fill:#999;opacity:0.4"/><polygon points="248.13 111.99 281.28 94.7 312.48 111.99 264.08 142.41 265.48 127.38 269.09 124.47 248.13 111.99" style="fill:#999;opacity:0.4"/><polyline points="313.22 123.42 333.58 133.54 353.35 121.68 352.54 107.69 353.19 99.17 313.51 118.55" style="fill:#999;opacity:0.4"/><polygon points="261.94 210.93 319.72 249.82 316.93 211.47 301.87 190.93 261.94 210.93" style="fill:#1f407b;opacity:0.5"/><polygon points="346.5 227.39 346.5 277.62 415.06 316.03 415.06 291.64 379.36 262.69 379.36 246.43 363.66 218.84 346.5 227.39" style="fill:#1f407b;opacity:0.5"/><polygon points="451.01 219.41 450.5 149.17 462.1 135.07 429.12 115.31 408.62 126.22 408.62 191.68 451.01 219.41" style="fill:#1f407b;opacity:0.5"/><path d="M382.89,157.79s-.71-3-5.18,0-2,7.21-9.19,6.83-8.8.64-9.16,6.82-3.11,4,3,9.66,10.61,6.43,13.94,6,8.4-1.35,8.31-5.65,0-10.34,0-10.34-3.66.67-1.22-3S385.54,159,382.89,157.79Z" style="fill:#1f407b;opacity:0.5"/><path d="M376,327.88s-1.35,5.32-3.23,5.64-6.66-1.32-7.94,1-2.44,3.25-2.36,6-2.07.34-1,3.69-.09,2.48.61,5.15-2.12.84,2.75,3,3.92,6.12,10,3.15,10.79-4,9.26-6.16-.81,2.21-4.67-2.47-8-4.56-3.41-7.45,6.52-3.53,5.2-5.87S376,327.88,376,327.88Z" style="fill:#1f407b;opacity:0.5"/><path d="M462.39,359.74l-37.71-19.37,53.84-32.15.81,25.76s.47,15.5-5.82,19.31S463,359.74,463,359.74" style="fill:#1f407b;opacity:0.5"/><polyline points="322.99 386.11 320.7 383.32 356.05 365.97 402.04 394.36 397.04 398.01 354.62 370.26 324.36 386.28" style="fill:#1f407b;opacity:0.5"/><path d="M185.4,183.21c-1.09.43-3.1,1.64-3.37.68-.36-1.31-.41-2.75-.67-4.1-.91-4.78-.4-9.77-.31-14.61a12.89,12.89,0,0,0,2.36-8.46c-.23-4.18-7.23-4.18-7,0,.28,5.15-4.66,8.12-5.16,13.25a62.74,62.74,0,0,0,1.3,17.44c.83,4.1,3.59,8.22,8.19,8,4.17-.15,6.45-4.47,8.91-7.19C192.47,185.14,188.75,181.89,185.4,183.21Z" style="fill:#4cbea0;opacity:0.7000000000000001"/><path d="M80.57,234.72c-.32-3.07-4.85-4.67-6.53-1.63-.86,1.57-1.67,3.2-3.23,4.18-1.72,1.09-4.94.27-5.58-1.72a3.62,3.62,0,0,0-5.14-1.92c-3.56,1.94-5.68.83-5.73-3.31,0-4.32,1.83-7.39,5.12-10,.08-.06.13-.13.2-.19,2.3-1,3.47-4.19.57-5.71a14.34,14.34,0,0,0-15.71,1.3c-3.52,2.75-4.47,8.85-4,13.48-3.65,3.05-.52,6.87,2.52,10.52,1.74,2.08.36,4.5,1.78,6.72,1.54,2.42,4.79,3.89,7.41,4.7a3.39,3.39,0,0,0,3.35-.84,3.73,3.73,0,0,0,2.74.63,21,21,0,0,0,2.45-.52,19.32,19.32,0,0,0,5.69-.33C73.43,248.47,81.37,242.52,80.57,234.72Z" style="fill:#4cbea0;opacity:0.7000000000000001"/><path d="M140,63.86c-1.18-4-8-2.41-6.75,1.71.47,1.61,1.34,3.59,1,5.29-.22,1.18-1.27,2.1-2.05,2.93-.42.46-1.46,2.18-1.86,2.33a3.35,3.35,0,0,1-3.58-.54c-2.77-3.12-7.91,1.22-4.95,4.56,3.26,3.66,10.57,3.59,13.87,0,1.66-1.82,3.65-3.82,4.72-6.05C142.07,70.75,141,67.23,140,63.86Z" style="fill:#4cbea0;opacity:0.7000000000000001"/><path d="M219,50a8.41,8.41,0,0,1-.13-1.36c.09-1.6-.54-3.26-.75-4.82-.46-3.58,2-6.87,1.49-10.58-.6-4.11-7.6-4.12-7,0,.52,3.57-1.5,7-1.49,10.58,0,1.61.61,3.22.75,4.82.16,2-.25,3.6.56,5.55,2.19,5.26,8.86,4.67,9.5-1.09C222.13,51.06,220.64,50,219,50Z" style="fill:#4cbea0;opacity:0.7000000000000001"/><path d="M345.54,92.9c-4.53,3.76-11.18-4.46-5.73-7.22a2.74,2.74,0,0,0,1.68-3c1.83-1.23,2.52-4-.1-5.34-7.68-4-15.86,1.15-15.8,8.56a3.76,3.76,0,0,0-2.14,2.5c-.54,1.78.58,3.68,1.56,5.05a11.93,11.93,0,0,0,2.76,2.3,10,10,0,0,0-.28,1.64c-.28,2.06,2.05,4,3.76,4.54a6.61,6.61,0,0,0,2.37.3,11,11,0,0,0,5.52,1.67c4.74.2,9.64-3,11.9-7.08C353,93.26,348.31,90.61,345.54,92.9Z" style="fill:#4cbea0;opacity:0.7000000000000001"/><path d="M533.11,128.79c-3.48-4.36-2.71-13.49-1.8-18.55a70.4,70.4,0,0,0,1.14-8.92c.15-3.13-1.75-5.34-3.18-7.95-2-3.61-8.16-.6-6,3.25.32.59.58,1.11.81,1.62-1,4.3-4.46,7.88-5.44,12.21s.65,10.53,1.39,14.82c.61,3.5,1.85,7,4.94,9.09s6.59,1,8.18-2.32A3.07,3.07,0,0,0,533.11,128.79Z" style="fill:#4cbea0;opacity:0.7000000000000001"/><polyline points="279.77 368.6 279.77 329.69 235.19 354.58 235.19 430.69 265.99 445.28 301.13 425.05" style="fill:none;stroke:#336;stroke-linecap:round;stroke-miterlimit:10;stroke-width:2px"/><line x1="257.12" y1="355.87" x2="235.19" y2="367.77" style="fill:none;stroke:#336;stroke-linecap:round;stroke-miterlimit:10;stroke-width:2px"/><polyline points="274.46 411.05 263.29 416.5 236.34 400.16" style="fill:none;stroke:#336;stroke-linecap:round;stroke-miterlimit:10;stroke-width:2px"/><polyline points="236.34 393.28 263.86 409.9 307.14 386.11" style="fill:none;stroke:#336;stroke-linecap:round;stroke-miterlimit:10;stroke-width:2px"/><line x1="242.9" y1="350.28" x2="261.56" y2="400.16" style="fill:none;stroke:#336;stroke-linecap:round;stroke-miterlimit:10;stroke-width:2px"/><line x1="252.23" y1="346.84" x2="268.16" y2="395.57" style="fill:none;stroke:#336;stroke-linecap:round;stroke-miterlimit:10;stroke-width:2px"/><line x1="257.12" y1="342.34" x2="276.47" y2="392.13" style="fill:none;stroke:#336;stroke-linecap:round;stroke-miterlimit:10;stroke-width:2px"/><line x1="266.8" y1="339.39" x2="283.92" y2="387.49" style="fill:none;stroke:#336;stroke-linecap:round;stroke-miterlimit:10;stroke-width:2px"/><line x1="272.92" y1="333.52" x2="290.8" y2="383.25" style="fill:none;stroke:#336;stroke-linecap:round;stroke-miterlimit:10;stroke-width:2px"/><line x1="297.11" y1="319.33" x2="297.11" y2="379.29" style="fill:none;stroke:#336;stroke-linecap:round;stroke-miterlimit:10;stroke-width:2px"/><polyline points="297.11 375.22 309.72 367.24 309.72 306.86 297.11 315.6 297.11 298.12 321.92 282.64 321.92 278.44" style="fill:none;stroke:#336;stroke-linecap:round;stroke-miterlimit:10;stroke-width:2px"/><polyline points="297.11 309.01 304.85 303.85 309.72 306.86" style="fill:none;stroke:#336;stroke-linecap:round;stroke-miterlimit:10;stroke-width:2px"/><polyline points="316.91 285.76 316.91 360.97 309.72 364.62" style="fill:none;stroke:#336;stroke-linecap:round;stroke-miterlimit:10;stroke-width:2px"/><polyline points="316.91 359.74 337.52 346.84 316.91 334.52" style="fill:none;stroke:#336;stroke-linecap:round;stroke-miterlimit:10;stroke-width:2px"/><polyline points="216.58 446.08 194.78 431.4 194.78 358.38" style="fill:none;stroke:#336;stroke-linecap:round;stroke-miterlimit:10;stroke-width:2px"/><path d="M233.93,230.77c29.36,15.85,58.48,32.1,88,47.67L298.7,293.17c.19-1.89.37-3.78.56-5.67-8.76,6.67-18.76,11.67-28.76,17.67-15,8-29,16-44,25-1,1-3,0-4,1-2,1-5,3-5,5-2,37-1,73-.92,109.91,3.33-1.47-.2-3,0,0,5.92-2.91,11.92-5.91,16.92-9.91,12,3,22,9,33,14,14-8,27-16,41.26-23.92L276,410.4c11.46-7.23,23.46-10.23,32.46-20.23a4.82,4.82,0,0,0-2-7c-4-2-7-3-11-5-11-7-21-13-33-18-8-3-6-12-5.38-18.06" style="fill:none;stroke:#336;stroke-linecap:round;stroke-miterlimit:10;stroke-width:2px"/><path d="M137.34,374.94c-16.84-10.77-34.84-19.77-52.84-30.77-8-5-17-8-24-15-10-2-17-8-26-14-4-2-14-4-10-12,24-12,46-25,70-38,23-13,45-26,69-39,10-5,20-10,30-17,5,1,7,5,12.05,6.45" style="fill:none;stroke:#336;stroke-linecap:round;stroke-miterlimit:10;stroke-width:2px"/><path d="M199.08,351.43c1.85,3.44-3.66,6.8-6,8.17q-6.72,4-13.47,7.95" style="fill:none;stroke:#336;stroke-linecap:round;stroke-miterlimit:10;stroke-width:2px"/><path d="M181.63,316.35l33.79,18.17" style="fill:none;stroke:#336;stroke-linecap:round;stroke-miterlimit:10;stroke-width:2px"/><path d="M179.77,362a141.94,141.94,0,0,1,17.87-10.26c-4.45-2.87-2.62.84,0,0l-17.46-10.63" style="fill:none;stroke:#336;stroke-linecap:round;stroke-miterlimit:10;stroke-width:2px"/><path d="M24.8,305c18.8,9.64,36.76,20.81,55.08,31.31,9.42,5.4,19,10.41,28.17,16.2,9.48,6,19.34,11.31,29.14,16.79" style="fill:none;stroke:#336;stroke-linecap:round;stroke-miterlimit:10;stroke-width:2px"/><path d="M198.19,219.75c-1.69-3.58-4.69-3.58-7.69-2.58-35,20-67,39-102,58-10,6-18,12-28,18-7,3-12,7-18.79,10.1,1.66,1,3.31,2,5,2.9-1.64-1-3.29-2-5-2.9l95.87,56.15" style="fill:none;stroke:#336;stroke-linecap:round;stroke-miterlimit:10;stroke-width:2px"/><path d="M183,278.94c15.49-8.77,30.49-17.77,46.49-25.77,2-1,5,0,7,1,18,9,34,19,51,30,5,3,11,1,13.63-4.4a7,7,0,0,0-1.05.76,4,4,0,0,0,1.05-.76c-.54-.37-4.68-3.48-5-2.17s4.24,2.27,5,2.17L225,235.36" style="fill:none;stroke:#336;stroke-linecap:round;stroke-miterlimit:10;stroke-width:2px"/><path d="M220.89,237.73c25.36,14.48,50.72,29,76.22,43.19" style="fill:none;stroke:#336;stroke-linecap:round;stroke-miterlimit:10;stroke-width:2px"/><path d="M46.09,305.84a12.29,12.29,0,0,0,3.41-2.67c40-21,76-44,114.77-64.86" style="fill:none;stroke:#336;stroke-linecap:round;stroke-miterlimit:10;stroke-width:2px"/><path d="M231.75,260.85l-49.26,27.62a152.19,152.19,0,0,1-1.11,16.59l35.2,21.77,65.28-37.31Z" style="fill:none;stroke:#336;stroke-linecap:round;stroke-miterlimit:10;stroke-width:2px"/><path d="M183.32,291.56c16.18-8.39,32.18-17.39,48.18-26.39,6,2,11,5,16,8,10,7,21,11,30.31,18.66" style="fill:none;stroke:#336;stroke-linecap:round;stroke-miterlimit:10;stroke-width:2px"/><polygon points="103.84 274.61 103.84 286.44 117.17 293.84 132.22 286.22 132.22 273.75 120.11 266.01 103.84 274.61" style="fill:none;stroke:#336;stroke-linecap:round;stroke-miterlimit:10;stroke-width:2px"/><polyline points="103.84 274.61 118.03 281.49 132.22 273.75" style="fill:none;stroke:#336;stroke-linecap:round;stroke-miterlimit:10;stroke-width:2px"/><line x1="118.03" y1="281.49" x2="118.03" y2="293.84" style="fill:none;stroke:#336;stroke-linecap:round;stroke-miterlimit:10;stroke-width:2px"/><polygon points="66 301.06 66 309.34 79.55 317.03 94.38 309.16 94.38 300.2 80.94 293.16 66 301.06" style="fill:none;stroke:#336;stroke-linecap:round;stroke-miterlimit:10;stroke-width:2px"/><polyline points="66 301.06 80.19 307.94 94.38 300.2" style="fill:none;stroke:#336;stroke-linecap:round;stroke-miterlimit:10;stroke-width:2px"/><line x1="80.19" y1="307.94" x2="80.19" y2="314.64" style="fill:none;stroke:#336;stroke-linecap:round;stroke-miterlimit:10;stroke-width:2px"/><polygon points="95.79 317.21 95.79 325.49 109.33 333.19 124.17 325.31 124.17 316.35 110.73 309.32 95.79 317.21" style="fill:none;stroke:#336;stroke-linecap:round;stroke-miterlimit:10;stroke-width:2px"/><polyline points="95.79 317.21 109.98 324.09 124.17 316.35" style="fill:none;stroke:#336;stroke-linecap:round;stroke-miterlimit:10;stroke-width:2px"/><line x1="109.98" y1="324.09" x2="109.98" y2="330.8" style="fill:none;stroke:#336;stroke-linecap:round;stroke-miterlimit:10;stroke-width:2px"/><path d="M179.23,444.25c2.27-3.08,8.27-2.08,8.27-5.08,2-20,1-40,1-60-3-1-6-2-9.48,0" style="fill:none;stroke:#336;stroke-linecap:round;stroke-miterlimit:10;stroke-width:2px"/><path d="M91.19,421.24c15.08,8.95,30.26,17.75,45.7,26.06" style="fill:none;stroke:#336;stroke-linecap:round;stroke-miterlimit:10;stroke-width:2px"/><path d="M27.88,311.29c-.36,22.56-.38,45.13-.38,67.69" style="fill:none;stroke:#336;stroke-linecap:round;stroke-miterlimit:10;stroke-width:2px"/><path d="M179.1,383.25l6.22-4" style="fill:none;stroke:#336;stroke-linecap:round;stroke-miterlimit:10;stroke-width:2px"/><line x1="188.33" y1="432.84" x2="194.78" y2="431.4" style="fill:none;stroke:#336;stroke-linecap:round;stroke-miterlimit:10;stroke-width:2px"/><path d="M265.15,400.16c0,.78-1.61,1.4-3.59,1.4s-3.58-.62-3.58-1.4,1.61-1.4,3.58-1.4S265.15,399.39,265.15,400.16Z" style="fill:none;stroke:#336;stroke-linecap:round;stroke-miterlimit:10;stroke-width:2px"/><path d="M272.53,396.13c0,.78-1.61,1.4-3.59,1.4s-3.58-.62-3.58-1.4,1.61-1.4,3.58-1.4S272.53,395.36,272.53,396.13Z" style="fill:none;stroke:#336;stroke-linecap:round;stroke-miterlimit:10;stroke-width:2px"/><path d="M280.6,391.71c0,.78-1.6,1.41-3.58,1.41s-3.58-.63-3.58-1.41,1.6-1.4,3.58-1.4S280.6,390.94,280.6,391.71Z" style="fill:none;stroke:#336;stroke-linecap:round;stroke-miterlimit:10;stroke-width:2px"/><path d="M287,386.92c0,.78-1.6,1.4-3.58,1.4s-3.58-.62-3.58-1.4,1.6-1.4,3.58-1.4S287,386.15,287,386.92Z" style="fill:none;stroke:#336;stroke-linecap:round;stroke-miterlimit:10;stroke-width:2px"/><path d="M294,383.32c0,.78-1.6,1.4-3.58,1.4s-3.58-.62-3.58-1.4,1.6-1.4,3.58-1.4S294,382.55,294,383.32Z" style="fill:none;stroke:#336;stroke-linecap:round;stroke-miterlimit:10;stroke-width:2px"/><polygon points="229.59 352.21 230.14 332.64 237.21 329.02 239.23 337.65 241.34 326.65 248.29 323.18 249.72 340.7 243.96 344.39 243.71 335.23 241.72 345.27 238.07 347.7 235.35 340.25 235.13 349.35 229.59 352.21" style="fill:none;stroke:#336;stroke-linecap:round;stroke-miterlimit:10;stroke-width:2px"/><polygon points="250.67 340.43 254.3 319.99 262.07 315.33 266.81 331.41 261.62 334.21 260.76 331.67 256.03 333.47 255.5 337.81 250.67 340.43" style="fill:none;stroke:#336;stroke-linecap:round;stroke-miterlimit:10;stroke-width:2px"/><polyline points="258.56 323.47 256.92 328.79 259.86 327.34 258.98 323.41" style="fill:none;stroke:#336;stroke-linecap:round;stroke-miterlimit:10;stroke-width:2px"/><polygon points="267.96 311.89 268.22 330.79 278.12 325.53 278.05 320.48 273.69 322.88 273.5 309.57 267.96 311.89" style="fill:none;stroke:#336;stroke-linecap:round;stroke-miterlimit:10;stroke-width:2px"/><polygon points="279.86 305.92 280.12 324.23 290.72 318.52 290.65 313.44 285.35 316.29 285.16 302.7 279.86 305.92" style="fill:none;stroke:#336;stroke-linecap:round;stroke-miterlimit:10;stroke-width:2px"/><polyline points="283.36 301.51 277.83 304.63 278.02 318.61 274.36 319.64" style="fill:none;stroke:#336;stroke-linecap:round;stroke-miterlimit:10;stroke-width:2px"/><polyline points="272.9 308.86 270.99 308.22 265.45 310.81 265.65 324.92" style="fill:none;stroke:#336;stroke-linecap:round;stroke-miterlimit:10;stroke-width:2px"/><polyline points="261.94 314.68 259.68 314.23 251.78 318.21 249.58 330.72" style="fill:none;stroke:#336;stroke-linecap:round;stroke-miterlimit:10;stroke-width:2px"/><polyline points="248.28 322.52 245.66 321.72 239.35 325.02 237.93 329.18 235.65 327.53 228.22 331.34 226.84 350.89 228.88 352.31" style="fill:none;stroke:#336;stroke-linecap:round;stroke-miterlimit:10;stroke-width:2px"/><polyline points="38.84 369.3 38.84 340.43 63.28 354.86 63.28 363.44" style="fill:none;stroke:#336;stroke-linecap:round;stroke-miterlimit:10;stroke-width:2px"/><polyline points="76.24 369.3 76.24 361.71 103.05 376.57 103.05 420.33 88.11 411.13" style="fill:none;stroke:#336;stroke-linecap:round;stroke-miterlimit:10;stroke-width:2px"/><polyline points="139.33 436.71 114.56 423.75 114.56 380.39 133.31 391.02" style="fill:none;stroke:#336;stroke-linecap:round;stroke-miterlimit:10;stroke-width:2px"/><path d="M158.45,253,501.72,55.81s9.55-6.17,10.11,7.31V335a20.53,20.53,0,0,1-9.55,21.69L161.82,553.58s-13.48,6.75-12.92-13.48l0-265.74S148.06,259,158.45,253Z" style="fill:none;stroke:#336;stroke-linecap:round;stroke-miterlimit:10;stroke-width:2px"/><path d="M507.87,54.4l-8.18-3.91s-5.59-1.12-9.31,1.12L152.32,246.78s-11.83,4.81-12.13,26.52V542.8s-2.11,9.26,15.68,11.86" style="fill:none;stroke:#336;stroke-linecap:round;stroke-miterlimit:10;stroke-width:2px"/><path d="M179.08,265.16a7.14,7.14,0,0,1,3.62-7.24L473.6,90.62s5.43-3.92,5.73,1.5V342a17.07,17.07,0,0,1-8.14,13L185.41,520.79s-6.48,5.73-6.4-7.54Z" style="fill:none;stroke:#336;stroke-linecap:round;stroke-miterlimit:10;stroke-width:2px"/><path d="M171.13,421.13a2.62,2.62,0,0,1-2.62,2.62h0a2.62,2.62,0,0,1-2.62-2.62V383a2.62,2.62,0,0,1,2.62-2.62h0a2.62,2.62,0,0,1,2.62,2.62Z" style="fill:#1f407b;opacity:0.5"/><path d="M171.6,371.33a2.86,2.86,0,0,1-2.85,2.86h0a2.86,2.86,0,0,1-2.86-2.86h0a2.86,2.86,0,0,1,2.86-2.86h0a2.86,2.86,0,0,1,2.85,2.86Z" style="fill:#1f407b;opacity:0.5"/><polyline points="31.57 378.43 57.29 361.71 87.64 376.57 59.6 393.29 31.57 381.22 56.98 365.43 79.28 375.02" style="fill:none;stroke:#336;stroke-linecap:round;stroke-miterlimit:10;stroke-width:2px"/><polyline points="87.64 376.57 87.64 382.15 59.6 399.8 30.35 388.18 30.35 381.22" style="fill:none;stroke:#336;stroke-linecap:round;stroke-miterlimit:10;stroke-width:2px"/><polyline points="30.35 384.93 25.4 388.18 58.99 404.13 91.97 383.38" style="fill:none;stroke:#336;stroke-linecap:round;stroke-miterlimit:10;stroke-width:2px"/><line x1="87.64" y1="386.11" x2="87.64" y2="432.3" style="fill:none;stroke:#336;stroke-linecap:round;stroke-miterlimit:10;stroke-width:2px"/><line x1="59" y1="404.13" x2="59" y2="432.3" style="fill:none;stroke:#336;stroke-linecap:round;stroke-miterlimit:10;stroke-width:2px"/><polyline points="30.35 390.54 30.35 436.71 57.6 450.12 86.09 434.02" style="fill:none;stroke:#336;stroke-linecap:round;stroke-miterlimit:10;stroke-width:2px"/><polyline points="87.64 429.52 94.45 434.02 59.6 454.44 24.47 436.71 30.35 431.07" style="fill:none;stroke:#336;stroke-linecap:round;stroke-miterlimit:10;stroke-width:2px"/><polyline points="59.6 454.44 59.6 461.11 94.45 440.61 94.45 434.02" style="fill:none;stroke:#336;stroke-linecap:round;stroke-miterlimit:10;stroke-width:2px"/><polyline points="59.6 461.11 24.47 443.46 24.47 436.71" style="fill:none;stroke:#336;stroke-linecap:round;stroke-miterlimit:10;stroke-width:2px"/><polyline points="89.62 443.45 89.62 448.91 58.69 466.06 27.88 448.91 27.88 445.17" style="fill:none;stroke:#336;stroke-linecap:round;stroke-miterlimit:10;stroke-width:2px"/><polyline points="27.88 447.45 21.99 452.75 58.22 471.81 96.31 448.91 91.97 447.45" style="fill:none;stroke:#336;stroke-linecap:round;stroke-miterlimit:10;stroke-width:2px"/><polyline points="182.21 476.37 205.55 466.06 242.07 484.64" style="fill:none;stroke:#336;stroke-linecap:round;stroke-miterlimit:10;stroke-width:2px"/><polyline points="191.55 484.64 206.58 476.37 231.62 487.93" style="fill:none;stroke:#336;stroke-linecap:round;stroke-miterlimit:10;stroke-width:2px"/><polygon points="189.6 132.48 212.03 103.85 233.98 104.81 269.29 125.09 267.86 126.76 247.34 125.8 224.91 152.76 189.6 132.48" style="fill:none;stroke:#336;stroke-linecap:round;stroke-miterlimit:10;stroke-width:2px"/><polyline points="212.03 103.85 246.63 124.13 268.04 125.16" style="fill:none;stroke:#336;stroke-linecap:round;stroke-miterlimit:10;stroke-width:2px"/><polyline points="246.05 125.16 224.36 150.7 191.21 132.31" style="fill:none;stroke:#336;stroke-linecap:round;stroke-miterlimit:10;stroke-width:2px"/><polyline points="195 135.58 195 159.81 229.45 180 314.86 131.53" style="fill:none;stroke:#336;stroke-linecap:round;stroke-miterlimit:10;stroke-width:2px"/><line x1="264.08" y1="127.38" x2="264.08" y2="160.05" style="fill:none;stroke:#336;stroke-linecap:round;stroke-miterlimit:10;stroke-width:2px"/><line x1="229.45" y1="147.31" x2="229.45" y2="180" style="fill:none;stroke:#336;stroke-linecap:round;stroke-miterlimit:10;stroke-width:2px"/><polyline points="235.27 153.33 244.34 147.99 244.34 166.37 235.27 172.08 235.27 154.45" style="fill:none;stroke:#336;stroke-linecap:round;stroke-miterlimit:10;stroke-width:2px"/><polyline points="250.92 144.52 260.49 139.05 260.49 158.05 250.92 163.14 250.92 145.75" style="fill:none;stroke:#336;stroke-linecap:round;stroke-miterlimit:10;stroke-width:2px"/><line x1="255.71" y1="142.4" x2="255.71" y2="159.29" style="fill:none;stroke:#336;stroke-linecap:round;stroke-miterlimit:10;stroke-width:2px"/><line x1="239.81" y1="151.1" x2="239.81" y2="168.11" style="fill:none;stroke:#336;stroke-linecap:round;stroke-miterlimit:10;stroke-width:2px"/><line x1="235.89" y1="157.93" x2="243.72" y2="153.46" style="fill:none;stroke:#336;stroke-linecap:round;stroke-miterlimit:10;stroke-width:2px"/><line x1="251.69" y1="148.53" x2="259.51" y2="144.06" style="fill:none;stroke:#336;stroke-linecap:round;stroke-miterlimit:10;stroke-width:2px"/><polyline points="222.36 172.83 212.8 166.99 213.29 148.53 223.1 153.46 223.1 171.22" style="fill:none;stroke:#336;stroke-linecap:round;stroke-miterlimit:10;stroke-width:2px"/><line x1="213.13" y1="154.69" x2="222.36" y2="159.6" style="fill:none;stroke:#336;stroke-linecap:round;stroke-miterlimit:10;stroke-width:2px"/><line x1="214.53" y1="150.7" x2="214.53" y2="167.12" style="fill:none;stroke:#336;stroke-linecap:round;stroke-miterlimit:10;stroke-width:2px"/><polyline points="197.65 139.05 206.84 144.89 206.84 163.14 197.65 157.93 197.65 140.54" style="fill:none;stroke:#336;stroke-linecap:round;stroke-miterlimit:10;stroke-width:2px"/><line x1="197.65" y1="145.26" x2="206.84" y2="150.7" style="fill:none;stroke:#336;stroke-linecap:round;stroke-miterlimit:10;stroke-width:2px"/><line x1="199.38" y1="140.15" x2="199.38" y2="157.93" style="fill:none;stroke:#336;stroke-linecap:round;stroke-miterlimit:10;stroke-width:2px"/><polyline points="264.08 144.06 314.86 114.51 314.86 113.34 264.08 142.41" style="fill:none;stroke:#336;stroke-linecap:round;stroke-miterlimit:10;stroke-width:2px"/><line x1="313.48" y1="115.31" x2="313.48" y2="131.53" style="fill:none;stroke:#336;stroke-linecap:round;stroke-miterlimit:10;stroke-width:2px"/><polyline points="314.38 113.34 280.6 93.47 247.31 112.46" style="fill:none;stroke:#336;stroke-linecap:round;stroke-miterlimit:10;stroke-width:2px"/><polyline points="293.52 126.93 293.52 143.19 280.85 135.06" style="fill:none;stroke:#336;stroke-linecap:round;stroke-miterlimit:10;stroke-width:2px"/><line x1="276.79" y1="136.67" x2="276.79" y2="152.76" style="fill:none;stroke:#336;stroke-linecap:round;stroke-miterlimit:10;stroke-width:2px"/><polygon points="268.04 160.05 279.36 153.46 294.51 161.65 283.33 168.85 268.04 160.05" style="fill:none;stroke:#336;stroke-linecap:round;stroke-miterlimit:10;stroke-width:2px"/><path d="M252,135.09c-1,2.77-3.48,5-5.47,5s-2.79-2.27-1.76-5.05,3.47-5,5.47-5S253,132.31,252,135.09Z" style="fill:none;stroke:#336;stroke-linecap:round;stroke-miterlimit:10;stroke-width:2px"/><path d="M300.65,191.76c7.85,7.41,12.85,16.41,19.85,24.41,13-4,24-13,36.28-19.53-1.08-1.41-10.77,6.24,0,0-1.08-1.41-5.29-4.87-6-1.17s4.48,2.07,6,1.17l-20-25.5" style="fill:none;stroke:#336;stroke-linecap:round;stroke-miterlimit:10;stroke-width:2px"/><path d="M301.87,190.93c7.63,7.24,12.63,15.24,19.63,23.24,12-4,23-12,33.67-17.7" style="fill:none;stroke:#336;stroke-linecap:round;stroke-miterlimit:10;stroke-width:2px"/><path d="M351.38,199.74c.12,8.43.12,16.43.12,24.43-3,2-7,3-10,5-8,6-16,10-24,15-19-9-35-21-54.27-30.49" style="fill:none;stroke:#336;stroke-linecap:round;stroke-miterlimit:10;stroke-width:2px"/><path d="M282.29,201v23.26" style="fill:none;stroke:#336;stroke-linecap:round;stroke-miterlimit:10;stroke-width:2px"/><line x1="316.93" y1="211.47" x2="316.93" y2="244.16" style="fill:none;stroke:#336;stroke-linecap:round;stroke-miterlimit:10;stroke-width:2px"/><polyline points="311.11 217.49 302.04 212.15 302.04 230.53 311.11 236.24 311.11 218.61" style="fill:none;stroke:#336;stroke-linecap:round;stroke-miterlimit:10;stroke-width:2px"/><polyline points="295.46 208.67 285.89 203.21 285.89 222.21 295.46 227.3 295.46 209.9" style="fill:none;stroke:#336;stroke-linecap:round;stroke-miterlimit:10;stroke-width:2px"/><line x1="290.67" y1="206.56" x2="290.67" y2="223.45" style="fill:none;stroke:#336;stroke-linecap:round;stroke-miterlimit:10;stroke-width:2px"/><line x1="306.57" y1="215.25" x2="306.57" y2="232.27" style="fill:none;stroke:#336;stroke-linecap:round;stroke-miterlimit:10;stroke-width:2px"/><line x1="310.48" y1="222.08" x2="302.66" y2="217.61" style="fill:none;stroke:#336;stroke-linecap:round;stroke-miterlimit:10;stroke-width:2px"/><line x1="294.69" y1="212.69" x2="286.87" y2="208.22" style="fill:none;stroke:#336;stroke-linecap:round;stroke-miterlimit:10;stroke-width:2px"/><polyline points="324.02 236.99 333.58 231.15 333.09 212.69 323.28 217.61 323.28 235.37" style="fill:none;stroke:#336;stroke-linecap:round;stroke-miterlimit:10;stroke-width:2px"/><line x1="333.25" y1="218.85" x2="324.02" y2="223.76" style="fill:none;stroke:#336;stroke-linecap:round;stroke-miterlimit:10;stroke-width:2px"/><line x1="331.84" y1="214.85" x2="331.84" y2="231.27" style="fill:none;stroke:#336;stroke-linecap:round;stroke-miterlimit:10;stroke-width:2px"/><polyline points="348.73 203.21 339.54 209.04 339.54 227.3 348.73 222.08 348.73 204.7" style="fill:none;stroke:#336;stroke-linecap:round;stroke-miterlimit:10;stroke-width:2px"/><line x1="348.73" y1="209.42" x2="339.54" y2="214.85" style="fill:none;stroke:#336;stroke-linecap:round;stroke-miterlimit:10;stroke-width:2px"/><line x1="347" y1="204.31" x2="347" y2="222.08" style="fill:none;stroke:#336;stroke-linecap:round;stroke-miterlimit:10;stroke-width:2px"/><path d="M277.8,204l4.49,2.57" style="fill:none;stroke:#336;stroke-linecap:round;stroke-miterlimit:10;stroke-width:2px"/><path d="M282.29,208.22q-3-1.75-6-3.49" style="fill:none;stroke:#336;stroke-linecap:round;stroke-miterlimit:10;stroke-width:2px"/><path d="M269.59,209.39v7.53" style="fill:none;stroke:#336;stroke-linecap:round;stroke-miterlimit:10;stroke-width:2px"/><polygon points="278.33 224.21 267.02 217.61 251.87 225.81 263.05 233.01 278.33 224.21" style="fill:none;stroke:#336;stroke-linecap:round;stroke-miterlimit:10;stroke-width:2px"/><path d="M294.36,199.24c1,2.77,3.48,5,5.47,5s2.79-2.28,1.76-5.05-3.47-5-5.47-5S293.33,196.47,294.36,199.24Z" style="fill:none;stroke:#336;stroke-linecap:round;stroke-miterlimit:10;stroke-width:2px"/><polygon points="132.66 99.8 155.09 71.17 177.04 72.13 212.35 92.41 210.92 94.08 190.4 93.12 167.97 120.08 132.66 99.8" style="fill:none;stroke:#336;stroke-linecap:round;stroke-miterlimit:10;stroke-width:2px"/><polyline points="155.09 71.17 189.68 91.45 211.1 92.48" style="fill:none;stroke:#336;stroke-linecap:round;stroke-miterlimit:10;stroke-width:2px"/><polyline points="189.1 92.48 167.42 118.02 134.27 99.63" style="fill:none;stroke:#336;stroke-linecap:round;stroke-miterlimit:10;stroke-width:2px"/><path d="M138.06,102.9c.44,8.27.44,16.27.44,24.27,10,6,20,12,30,19,2,1,3,2,5,1a189.39,189.39,0,0,1,17.21-10.3" style="fill:none;stroke:#336;stroke-linecap:round;stroke-miterlimit:10;stroke-width:2px"/><path d="M207.14,94.7v12.36" style="fill:none;stroke:#336;stroke-linecap:round;stroke-miterlimit:10;stroke-width:2px"/><line x1="172.5" y1="114.63" x2="172.5" y2="147.32" style="fill:none;stroke:#336;stroke-linecap:round;stroke-miterlimit:10;stroke-width:2px"/><polyline points="178.33 120.65 187.4 115.31 187.4 133.69 178.33 139.41 178.33 121.77" style="fill:none;stroke:#336;stroke-linecap:round;stroke-miterlimit:10;stroke-width:2px"/><path d="M194,121.68v-8.61" style="fill:none;stroke:#336;stroke-linecap:round;stroke-miterlimit:10;stroke-width:2px"/><path d="M194,111.84l9.57-5.47v4.74" style="fill:none;stroke:#336;stroke-linecap:round;stroke-miterlimit:10;stroke-width:2px"/><path d="M198.76,109.73v6.89" style="fill:none;stroke:#336;stroke-linecap:round;stroke-miterlimit:10;stroke-width:2px"/><line x1="182.86" y1="118.42" x2="182.86" y2="135.43" style="fill:none;stroke:#336;stroke-linecap:round;stroke-miterlimit:10;stroke-width:2px"/><line x1="178.95" y1="125.25" x2="186.78" y2="120.78" style="fill:none;stroke:#336;stroke-linecap:round;stroke-miterlimit:10;stroke-width:2px"/><line x1="194.75" y1="115.85" x2="202.57" y2="111.38" style="fill:none;stroke:#336;stroke-linecap:round;stroke-miterlimit:10;stroke-width:2px"/><polyline points="165.41 140.15 155.85 134.31 156.35 115.85 166.16 120.78 166.16 138.54" style="fill:none;stroke:#336;stroke-linecap:round;stroke-miterlimit:10;stroke-width:2px"/><line x1="156.18" y1="122.02" x2="165.42" y2="126.92" style="fill:none;stroke:#336;stroke-linecap:round;stroke-miterlimit:10;stroke-width:2px"/><line x1="157.59" y1="118.02" x2="157.59" y2="134.44" style="fill:none;stroke:#336;stroke-linecap:round;stroke-miterlimit:10;stroke-width:2px"/><polyline points="140.7 106.37 149.89 112.21 149.89 130.46 140.7 125.25 140.7 107.86" style="fill:none;stroke:#336;stroke-linecap:round;stroke-miterlimit:10;stroke-width:2px"/><line x1="140.7" y1="112.58" x2="149.89" y2="118.02" style="fill:none;stroke:#336;stroke-linecap:round;stroke-miterlimit:10;stroke-width:2px"/><line x1="142.44" y1="107.48" x2="142.44" y2="125.25" style="fill:none;stroke:#336;stroke-linecap:round;stroke-miterlimit:10;stroke-width:2px"/><path d="M195.08,102.41c-1,2.77-3.48,5-5.48,5s-2.78-2.27-1.75-5.05,3.47-5,5.47-5S196.1,99.63,195.08,102.41Z" style="fill:none;stroke:#336;stroke-linecap:round;stroke-miterlimit:10;stroke-width:2px"/><line x1="415.06" y1="291.64" x2="415.06" y2="319.74" style="fill:none;stroke:#336;stroke-linecap:round;stroke-miterlimit:10;stroke-width:2px"/><polyline points="415.06 316.92 406.64 321.16 380.35 306.89 380.35 310.3" style="fill:none;stroke:#336;stroke-linecap:round;stroke-miterlimit:10;stroke-width:2px"/><line x1="378.56" y1="305.69" x2="338.39" y2="282.79" style="fill:none;stroke:#336;stroke-linecap:round;stroke-miterlimit:10;stroke-width:2px"/><polyline points="415.06 316.03 407.98 312.69 407.75 309.45 401.81 305.98 397.48 308.44" style="fill:none;stroke:#336;stroke-linecap:round;stroke-miterlimit:10;stroke-width:2px"/><polyline points="407.48 309.72 403.63 311.7 403.63 316.67 408.07 314.02" style="fill:none;stroke:#336;stroke-linecap:round;stroke-miterlimit:10;stroke-width:2px"/><line x1="403.15" y1="316.46" x2="397.48" y2="313.2" style="fill:none;stroke:#336;stroke-linecap:round;stroke-miterlimit:10;stroke-width:2px"/><line x1="402.61" y1="314.02" x2="397.7" y2="311.7" style="fill:none;stroke:#336;stroke-linecap:round;stroke-miterlimit:10;stroke-width:2px"/><line x1="400.16" y1="306.89" x2="398.39" y2="305.98" style="fill:none;stroke:#336;stroke-linecap:round;stroke-miterlimit:10;stroke-width:2px"/><polyline points="398.39 307.21 398.39 304.91 397.05 303.94" style="fill:none;stroke:#336;stroke-linecap:round;stroke-miterlimit:10;stroke-width:2px"/><polyline points="396.09 308.33 393.25 306.44 393.25 304.53 395.61 303.25" style="fill:none;stroke:#336;stroke-linecap:round;stroke-miterlimit:10;stroke-width:2px"/><polyline points="393.25 304.53 396.51 306.44 396.51 308.33" style="fill:none;stroke:#336;stroke-linecap:round;stroke-miterlimit:10;stroke-width:2px"/><polyline points="393.25 305.98 390.31 307.58 390.31 310.25 394.32 312.86 396.51 311.97 396.51 308.54 394.21 309.72 390.87 307.9" style="fill:none;stroke:#336;stroke-linecap:round;stroke-miterlimit:10;stroke-width:2px"/><line x1="394.22" y1="309.72" x2="394.22" y2="312.34" style="fill:none;stroke:#336;stroke-linecap:round;stroke-miterlimit:10;stroke-width:2px"/><line x1="393.41" y1="303.94" x2="363.19" y2="286.62" style="fill:none;stroke:#336;stroke-linecap:round;stroke-miterlimit:10;stroke-width:2px"/><polyline points="363.19 288.62 363.19 273.91 353.2 268.51 349.79 270.02 349.79 284.38 359.68 290.28 362.83 288.78" style="fill:none;stroke:#336;stroke-linecap:round;stroke-miterlimit:10;stroke-width:2px"/><polyline points="362.75 274.25 360.09 275.79 360.09 289.7" style="fill:none;stroke:#336;stroke-linecap:round;stroke-miterlimit:10;stroke-width:2px"/><line x1="359.76" y1="275.79" x2="350.21" y2="270.02" style="fill:none;stroke:#336;stroke-linecap:round;stroke-miterlimit:10;stroke-width:2px"/><line x1="354.98" y1="273.33" x2="354.98" y2="287.48" style="fill:none;stroke:#336;stroke-linecap:round;stroke-miterlimit:10;stroke-width:2px"/><line x1="345.99" y1="277.62" x2="349.79" y2="279.81" style="fill:none;stroke:#336;stroke-linecap:round;stroke-miterlimit:10;stroke-width:2px"/><polyline points="373.47 272.9 362.42 266.77 362.42 272.9" style="fill:none;stroke:#336;stroke-linecap:round;stroke-miterlimit:10;stroke-width:2px"/><polyline points="373.47 273.33 373.47 287.48 363.58 281.97" style="fill:none;stroke:#336;stroke-linecap:round;stroke-miterlimit:10;stroke-width:2px"/><line x1="367.94" y1="270.51" x2="367.94" y2="283.55" style="fill:none;stroke:#336;stroke-linecap:round;stroke-miterlimit:10;stroke-width:2px"/><line x1="372.72" y1="285.21" x2="364" y2="280.41" style="fill:none;stroke:#336;stroke-linecap:round;stroke-miterlimit:10;stroke-width:2px"/><polyline points="359.76 271.89 359.76 265.19 348.63 258.63 348.63 271.89 349.79 272.9" style="fill:none;stroke:#336;stroke-linecap:round;stroke-miterlimit:10;stroke-width:2px"/><line x1="354.2" y1="262.7" x2="354.2" y2="268.1" style="fill:none;stroke:#336;stroke-linecap:round;stroke-miterlimit:10;stroke-width:2px"/><polyline points="367.57 245.34 356.49 238.94 356.49 252.98 367.57 259.63 367.57 246" style="fill:none;stroke:#336;stroke-linecap:round;stroke-miterlimit:10;stroke-width:2px"/><line x1="362.03" y1="242.14" x2="362.03" y2="254.89" style="fill:none;stroke:#336;stroke-linecap:round;stroke-miterlimit:10;stroke-width:2px"/><line x1="367.57" y1="258.05" x2="357.68" y2="252.48" style="fill:none;stroke:#336;stroke-linecap:round;stroke-miterlimit:10;stroke-width:2px"/><polyline points="345.72 226.24 363.66 218.84 379.36 245.59 345.99 226.24 345.99 277.62 337.65 282.3 337.65 285.63 406.39 325.34 458.67 292.4 458.67 266.77" style="fill:none;stroke:#336;stroke-linecap:round;stroke-miterlimit:10;stroke-width:2px"/><line x1="379.36" y1="245.59" x2="426.78" y2="217.52" style="fill:none;stroke:#336;stroke-linecap:round;stroke-miterlimit:10;stroke-width:2px"/><line x1="363.66" y1="218.84" x2="410.8" y2="191.68" style="fill:none;stroke:#336;stroke-linecap:round;stroke-miterlimit:10;stroke-width:2px"/><line x1="410.28" y1="191.98" x2="426.78" y2="217.52" style="fill:none;stroke:#336;stroke-linecap:round;stroke-miterlimit:10;stroke-width:2px"/><polyline points="410.05 191.98 402.48 193.91 346.5 225.91" style="fill:none;stroke:#336;stroke-linecap:round;stroke-miterlimit:10;stroke-width:2px"/><line x1="425.67" y1="218.18" x2="425.67" y2="233.12" style="fill:none;stroke:#336;stroke-linecap:round;stroke-miterlimit:10;stroke-width:2px"/><polyline points="378.56 245.59 378.56 269.23 416.15 291.64 461.01 265.4" style="fill:none;stroke:#336;stroke-linecap:round;stroke-miterlimit:10;stroke-width:2px"/><polyline points="378.56 260.91 426.78 233.12 461.01 265.4" style="fill:none;stroke:#336;stroke-linecap:round;stroke-miterlimit:10;stroke-width:2px"/><polyline points="406.77 292.42 395.73 286.03 395.73 300.3 406.77 306.89 406.77 292.79" style="fill:none;stroke:#336;stroke-linecap:round;stroke-miterlimit:10;stroke-width:2px"/><line x1="406.27" y1="304.76" x2="396.52" y2="299.24" style="fill:none;stroke:#336;stroke-linecap:round;stroke-miterlimit:10;stroke-width:2px"/><line x1="401.25" y1="289.7" x2="401.25" y2="301.54" style="fill:none;stroke:#336;stroke-linecap:round;stroke-miterlimit:10;stroke-width:2px"/><polyline points="390.03 302 390.03 288.2 381.15 282.81 381.15 296.46" style="fill:none;stroke:#336;stroke-linecap:round;stroke-miterlimit:10;stroke-width:2px"/><polyline points="388.04 288.82 382.89 286.03 382.89 291.64 388.04 294.24" style="fill:none;stroke:#336;stroke-linecap:round;stroke-miterlimit:10;stroke-width:2px"/><polyline points="458.67 265.4 415.85 290.28 379.36 260.91" style="fill:none;stroke:#336;stroke-linecap:round;stroke-miterlimit:10;stroke-width:2px"/><polyline points="424.55 219.9 379.36 246.43 346.5 227.39" style="fill:none;stroke:#336;stroke-linecap:round;stroke-miterlimit:10;stroke-width:2px"/><polygon points="454.32 275.79 419.79 295.28 419.79 301.54 454.32 281.97 454.32 275.79" style="fill:none;stroke:#336;stroke-linecap:round;stroke-miterlimit:10;stroke-width:2px"/><polyline points="230.94 36.14 266.32 55.07 277.62 50.7 277.62 86.63 266.74 92.92 230.94 74.42 230.94 36.14 253.69 28.65" style="fill:none;stroke:#336;stroke-linecap:round;stroke-miterlimit:10;stroke-width:2px"/><polyline points="232.3 40.99 265.89 59.65 277.09 55.39" style="fill:none;stroke:#336;stroke-linecap:round;stroke-miterlimit:10;stroke-width:2px"/><line x1="266.32" y1="55.07" x2="266.32" y2="92.07" style="fill:none;stroke:#336;stroke-linecap:round;stroke-miterlimit:10;stroke-width:2px"/><polyline points="277.09 63.49 267.7 67.54 267.7 89.19 276.45 84.82 276.45 65.2" style="fill:none;stroke:#336;stroke-linecap:round;stroke-miterlimit:10;stroke-width:2px"/><polyline points="242.96 55.07 254.28 60.78 254.28 78.21 242.96 71.38 242.96 56.99 252.88 61.89" style="fill:none;stroke:#336;stroke-linecap:round;stroke-miterlimit:10;stroke-width:2px"/><line x1="246.64" y1="58.8" x2="246.64" y2="72.13" style="fill:none;stroke:#336;stroke-linecap:round;stroke-miterlimit:10;stroke-width:2px"/><line x1="249.79" y1="60.79" x2="249.79" y2="72.13" style="fill:none;stroke:#336;stroke-linecap:round;stroke-miterlimit:10;stroke-width:2px"/><line x1="238.38" y1="38.75" x2="253.73" y2="33.85" style="fill:none;stroke:#336;stroke-linecap:round;stroke-miterlimit:10;stroke-width:2px"/><polyline points="252.88 26.6 261.2 16.25 280.61 52.57 301.4 73.57 355.36 48.67 338.94 31.5 284.02 53.25" style="fill:none;stroke:#336;stroke-linecap:round;stroke-miterlimit:10;stroke-width:2px"/><polyline points="330.62 21.48 329.66 33.63 296.92 45.79 281.67 19.77 297.13 31.5 331.69 20.73 315.2 5.88 277.62 15.07 297.68 29.76 329.33 20.16" style="fill:none;stroke:#336;stroke-linecap:round;stroke-miterlimit:10;stroke-width:2px"/><line x1="297.13" y1="31.5" x2="297.13" y2="45.79" style="fill:none;stroke:#336;stroke-linecap:round;stroke-miterlimit:10;stroke-width:2px"/><polyline points="305.33 42.67 305.33 31.5 313.51 28.65 313.51 37.25" style="fill:none;stroke:#336;stroke-linecap:round;stroke-miterlimit:10;stroke-width:2px"/><polyline points="317.48 38.15 317.48 26.98 325.66 24.13 325.66 32.73" style="fill:none;stroke:#336;stroke-linecap:round;stroke-miterlimit:10;stroke-width:2px"/><polyline points="261.2 16.25 321.57 1.15 338.94 31.5" style="fill:none;stroke:#336;stroke-linecap:round;stroke-miterlimit:10;stroke-width:2px"/><line x1="302.69" y1="72.97" x2="302.69" y2="96.03" style="fill:none;stroke:#336;stroke-linecap:round;stroke-miterlimit:10;stroke-width:2px"/><path d="M352.54,74.69c2.82-7.79,0-16.34.67-24.37" style="fill:none;stroke:#336;stroke-linecap:round;stroke-miterlimit:10;stroke-width:2px"/><path d="M277.62,86.63c8.88,4.54,16.88,8.54,25.88,12.54,6-2,11-6,16.11-8.66" style="fill:none;stroke:#336;stroke-linecap:round;stroke-miterlimit:10;stroke-width:2px"/><polyline points="307.01 76.34 319.44 70.45 319.44 86.56 307.71 92.92 307.71 79.21 318.17 73.57 318.17 85.57" style="fill:none;stroke:#336;stroke-linecap:round;stroke-miterlimit:10;stroke-width:2px"/><polyline points="267.33 33.03 259.72 29.42 259.72 39.28 266.9 43.18 266.9 34.78 260.5 31.33 260.5 38.68" style="fill:none;stroke:#336;stroke-linecap:round;stroke-miterlimit:10;stroke-width:2px"/><polyline points="289.04 68.96 283.58 66.37 283.58 73.44 288.73 76.24 288.73 70.22 284.14 67.74 284.14 73.01" style="fill:none;stroke:#336;stroke-linecap:round;stroke-miterlimit:10;stroke-width:2px"/><path d="M323.82,79.87c-2.32-7.7,5.68-10.7,10.46-13.37,0,1.55-2.9,1.57,0,0v4.63" style="fill:none;stroke:#336;stroke-linecap:round;stroke-miterlimit:10;stroke-width:2px"/><path d="M323.11,69.28l12.44-5.89v7" style="fill:none;stroke:#336;stroke-linecap:round;stroke-miterlimit:10;stroke-width:2px"/><path d="M339.28,68.53c-.53-6,5.74-9.45,10.82-10.42.28,3.65-2.86,1.28,0,0v12" style="fill:none;stroke:#336;stroke-linecap:round;stroke-miterlimit:10;stroke-width:2px"/><path d="M338.94,60.88,351.37,55c0,4.45,1.46,11.81-.83,15.82" style="fill:none;stroke:#336;stroke-linecap:round;stroke-miterlimit:10;stroke-width:2px"/><polyline points="272.78 52.57 254.28 42.06 254.28 26.6 261.2 18.71 280.03 53.91 300.07 74.62" style="fill:none;stroke:#336;stroke-linecap:round;stroke-miterlimit:10;stroke-width:2px"/><line x1="301.48" y1="74.87" x2="355.36" y2="50.32" style="fill:none;stroke:#336;stroke-linecap:round;stroke-miterlimit:10;stroke-width:2px"/><path d="M373.06,186.93s-12.39.84-10.72-5.83c0,0-7.63-5.6-3-9.66,0,0-1.31-11.43,12.15-10.72,0,0,3.58-6.31,7.75-5.6s6.91,6.44,6.55,9.29A5.88,5.88,0,0,1,387.6,171s3.69,4.71-.6,8c0,0-1.57,8.13-10.13,7.9,0,0-6.19,1.27-7.62-3.37" style="fill:none;stroke:#336;stroke-linecap:round;stroke-miterlimit:10;stroke-width:2px"/><polyline points="376.28 187.13 376.28 200.99 377.71 201.95 372.35 201.95 374.25 200.4 374.25 187.13" style="fill:none;stroke:#336;stroke-linecap:round;stroke-miterlimit:10;stroke-width:2px"/><line x1="374.37" y1="164.06" x2="371.63" y2="156.19" style="fill:none;stroke:#336;stroke-linecap:round;stroke-miterlimit:10;stroke-width:2px"/><path d="M125.56,82.71s-11.67.78-10.1-5.5c0,0-7.18-5.28-2.81-9.09,0,0-1.23-10.78,11.45-10.1,0,0,3.37-6,7.3-5.28s6.51,6.06,6.17,8.76a5.52,5.52,0,0,1,1.68,6.21s3.48,4.45-.56,7.59c0,0-1.48,7.66-9.54,7.44,0,0-5.83,1.2-7.18-3.17" style="fill:none;stroke:#336;stroke-linecap:round;stroke-miterlimit:10;stroke-width:2px"/><polyline points="128.59 82.89 128.59 95.95 129.94 96.85 124.89 96.85 126.68 95.39 126.68 82.89" style="fill:none;stroke:#336;stroke-linecap:round;stroke-miterlimit:10;stroke-width:2px"/><line x1="126.8" y1="61.16" x2="124.21" y2="53.75" style="fill:none;stroke:#336;stroke-linecap:round;stroke-miterlimit:10;stroke-width:2px"/><path d="M60,250.24S42.49,251.42,44.85,242c0,0-10.78-7.92-4.21-13.66,0,0-1.85-16.18,17.19-15.17,0,0,5.06-8.93,11-7.92s9.78,9.1,9.27,13.15c0,0,4.72,3.68,2.53,9.34,0,0,5.23,6.67-.84,11.39,0,0-2.23,11.5-14.33,11.18,0,0-8.77,1.8-10.79-4.77" style="fill:none;stroke:#336;stroke-linecap:round;stroke-miterlimit:10;stroke-width:2px"/><polyline points="64.58 250.51 64.58 270.13 66.6 271.48 59.01 271.48 61.71 269.29 61.71 250.51" style="fill:none;stroke:#336;stroke-linecap:round;stroke-miterlimit:10;stroke-width:2px"/><line x1="61.88" y1="217.87" x2="58" y2="206.75" style="fill:none;stroke:#336;stroke-linecap:round;stroke-miterlimit:10;stroke-width:2px"/><path d="M338.13,102.19s-12.39.83-10.72-5.84c0,0-7.63-5.6-3-9.65,0,0-1.31-11.44,12.15-10.72,0,0,3.58-6.32,7.75-5.6s6.91,6.43,6.55,9.29a5.87,5.87,0,0,1,1.79,6.6s3.69,4.72-.6,8.06c0,0-1.57,8.12-10.12,7.89,0,0-6.2,1.28-7.63-3.37" style="fill:none;stroke:#336;stroke-linecap:round;stroke-miterlimit:10;stroke-width:2px"/><polyline points="341.35 102.38 341.35 116.25 342.78 117.2 337.42 117.2 339.32 115.65 339.32 102.38" style="fill:none;stroke:#336;stroke-linecap:round;stroke-miterlimit:10;stroke-width:2px"/><line x1="339.44" y1="79.31" x2="336.7" y2="71.45" style="fill:none;stroke:#336;stroke-linecap:round;stroke-miterlimit:10;stroke-width:2px"/><path d="M373.46,357.82s-12.4.83-10.73-5.84c0,0-7.62-5.6-3-9.65,0,0-1.31-11.44,12.16-10.73,0,0,3.57-6.31,7.74-5.6s6.91,6.44,6.56,9.3a5.87,5.87,0,0,1,1.78,6.6s3.7,4.72-.59,8.05c0,0-1.58,8.13-10.13,7.9,0,0-6.2,1.28-7.63-3.37" style="fill:none;stroke:#336;stroke-linecap:round;stroke-miterlimit:10;stroke-width:2px"/><polyline points="376.67 358.01 376.67 371.88 378.1 372.83 372.74 372.83 374.65 371.28 374.65 358.01" style="fill:none;stroke:#336;stroke-linecap:round;stroke-miterlimit:10;stroke-width:2px"/><line x1="374.77" y1="334.94" x2="372.03" y2="327.08" style="fill:none;stroke:#336;stroke-linecap:round;stroke-miterlimit:10;stroke-width:2px"/><path d="M478.19,247.4c-2.92.52-6.65-.11-7.62-3.37" style="fill:none;stroke:#336;stroke-linecap:round;stroke-miterlimit:10;stroke-width:2px"/><path d="M474.38,247.37c-3.88-.2-10.88.8-10.88-6.2l-2-1c-4-6-1-14,4-18,2-2,5,0,7-1s3-3,5.19-5.08" style="fill:none;stroke:#336;stroke-linecap:round;stroke-miterlimit:10;stroke-width:2px"/><path d="M477.21,262.38h-3.54c2.47-2,1.9-3.07,1.9-6.28v-8.54" style="fill:none;stroke:#336;stroke-linecap:round;stroke-miterlimit:10;stroke-width:2px"/><path d="M477.6,247.56v13.87" style="fill:none;stroke:#336;stroke-linecap:round;stroke-miterlimit:10;stroke-width:2px"/><line x1="475.69" y1="224.49" x2="472.95" y2="216.63" style="fill:none;stroke:#336;stroke-linecap:round;stroke-miterlimit:10;stroke-width:2px"/><path d="M381,358.34l42,25" style="fill:none;stroke:#336;stroke-linecap:round;stroke-miterlimit:10;stroke-width:2px"/><path d="M316.93,320.22c13.57,7.95,26.57,15.95,40.26,23.94" style="fill:none;stroke:#336;stroke-linecap:round;stroke-miterlimit:10;stroke-width:2px"/><polyline points="478.52 308.22 424.68 340.37 462.39 359.74" style="fill:none;stroke:#336;stroke-linecap:round;stroke-miterlimit:10;stroke-width:2px"/><polyline points="461.01 290.13 474.07 282.81 458.84 274.25" style="fill:none;stroke:#336;stroke-linecap:round;stroke-miterlimit:10;stroke-width:2px"/><polyline points="325.09 381.92 355.17 365.42 394.88 390.54" style="fill:none;stroke:#336;stroke-linecap:round;stroke-miterlimit:10;stroke-width:2px"/><polyline points="324.36 386.28 354.44 369.78 394.15 394.89" style="fill:none;stroke:#336;stroke-linecap:round;stroke-miterlimit:10;stroke-width:2px"/><line x1="307.36" y1="379.29" x2="345.99" y2="406.39" style="fill:none;stroke:#336;stroke-linecap:round;stroke-miterlimit:10;stroke-width:2px"/><polyline points="342 244.17 323.28 258.05 339.54 265.17 345.99 260.47" style="fill:none;stroke:#336;stroke-linecap:round;stroke-miterlimit:10;stroke-width:2px"/><line x1="432.73" y1="339.39" x2="477.21" y2="314.02" style="fill:none;stroke:#336;stroke-linecap:round;stroke-miterlimit:10;stroke-width:2px"/><path d="M390,109V70.16L408.41,81l20.71-11.53L409.59,31.55,390,68.08,380,64.39,360.52,75.78,351.43,90.3l35.8,20.43C388.17,110.16,389.09,109.57,390,109Z" style="fill:none;stroke:#336;stroke-linecap:round;stroke-miterlimit:10;stroke-width:2px"/><line x1="409.59" y1="31.55" x2="409.59" y2="80.66" style="fill:none;stroke:#336;stroke-linecap:round;stroke-miterlimit:10;stroke-width:2px"/><path d="M477.23,118.45l-22.42-12.92" style="fill:none;stroke:#336;stroke-linecap:round;stroke-miterlimit:10;stroke-width:2px"/><path d="M413.94,126c13.56,4.19,24.56,13.19,35.56,21.19,9-8,16-19,27.23-24.21" style="fill:none;stroke:#336;stroke-linecap:round;stroke-miterlimit:10;stroke-width:2px"/><path d="M427.26,70.45V86.8" style="fill:none;stroke:#336;stroke-linecap:round;stroke-miterlimit:10;stroke-width:2px"/><path d="M456.41,104.38l1.4,2.88" style="fill:none;stroke:#336;stroke-linecap:round;stroke-miterlimit:10;stroke-width:2px"/><polyline points="465.45 111.67 469.2 110.24 471.94 115.4" style="fill:none;stroke:#336;stroke-linecap:round;stroke-miterlimit:10;stroke-width:2px"/><path d="M431.24,116.71l27.46,16.61" style="fill:none;stroke:#336;stroke-linecap:round;stroke-miterlimit:10;stroke-width:2px"/><polyline points="426.6 133.32 430.74 131.25 432.67 136.83 438.83 126.22 431.48 130.81" style="fill:none;stroke:#336;stroke-linecap:round;stroke-miterlimit:10;stroke-width:2px"/><polyline points="438.83 140.39 442.1 136.83 444.65 142.49 451.01 132.43 442.87 136.83" style="fill:none;stroke:#336;stroke-linecap:round;stroke-miterlimit:10;stroke-width:2px"/><path d="M417.54,123.78l3,6,4.87-10" style="fill:none;stroke:#336;stroke-linecap:round;stroke-miterlimit:10;stroke-width:2px"/><path d="M381.14,107.26l3.45-2.93c.81,2,1.63,4,2.44,5.93" style="fill:none;stroke:#336;stroke-linecap:round;stroke-miterlimit:10;stroke-width:2px"/><line x1="384.59" y1="104.33" x2="390" y2="101.96" style="fill:none;stroke:#336;stroke-linecap:round;stroke-miterlimit:10;stroke-width:2px"/><polyline points="368.19 99.86 371.87 95.94 373.94 101.96 381.14 91.3 372.76 95.94" style="fill:none;stroke:#336;stroke-linecap:round;stroke-miterlimit:10;stroke-width:2px"/><polyline points="356.56 93.22 359.44 89.39 362.4 95.94 370.39 84.06 360.63 89.39" style="fill:none;stroke:#336;stroke-linecap:round;stroke-miterlimit:10;stroke-width:2px"/><line x1="361.37" y1="76.67" x2="389.32" y2="93.68" style="fill:none;stroke:#336;stroke-linecap:round;stroke-miterlimit:10;stroke-width:2px"/><path d="M409.46,129.11c0,9.06,0,18.06,1,27.06,1,13-2,25-2,38,0,4-3,6-6.45,7.49.05-1.78,1.28-1.14,0,0,.43-3.08,2.73-7.22,6.06-7.84" style="fill:none;stroke:#336;stroke-linecap:round;stroke-miterlimit:10;stroke-width:2px"/><path d="M409.59,81.84V96.75" style="fill:none;stroke:#336;stroke-linecap:round;stroke-miterlimit:10;stroke-width:2px"/><path d="M388.2,185.75l15,9.55" style="fill:none;stroke:#336;stroke-linecap:round;stroke-miterlimit:10;stroke-width:2px"/><path d="M402.05,201.66c-6.55-4.49-14.55-6.49-18.55-12.49-1-1,4,0,3.9-3.13" style="fill:none;stroke:#336;stroke-linecap:round;stroke-miterlimit:10;stroke-width:2px"/><path d="M353.82,128.92V91.4" style="fill:none;stroke:#336;stroke-linecap:round;stroke-miterlimit:10;stroke-width:2px"/><path d="M356.5,165.17a8.66,8.66,0,0,1-2.57-4.09" style="fill:none;stroke:#336;stroke-linecap:round;stroke-miterlimit:10;stroke-width:2px"/><path d="M389.66,141.35q-.07,10.1,0,20.19" style="fill:none;stroke:#336;stroke-linecap:round;stroke-miterlimit:10;stroke-width:2px"/><polyline points="451.01 148.63 451.01 219.41 409.59 196.34" style="fill:none;stroke:#336;stroke-linecap:round;stroke-miterlimit:10;stroke-width:2px"/><path d="M451.75,219.41l24.85-14.68" style="fill:none;stroke:#336;stroke-linecap:round;stroke-miterlimit:10;stroke-width:2px"/><path d="M457.37,208.61l9.47-4.88v-20s-1.78-5.18-5.48-2.51-4,8.87-4,8.87v16.13l7.54-3.55.15-18.68a18.64,18.64,0,0,1-2.22-1.59" style="fill:none;stroke:#336;stroke-linecap:round;stroke-miterlimit:10;stroke-width:2px"/><path d="M477.51,172.66c-8.07,4.09-4.8,18.35-4.76,25.45l3.73-1.75" style="fill:none;stroke:#336;stroke-linecap:round;stroke-miterlimit:10;stroke-width:2px"/><path d="M472.75,200.48l3.58-1.85" style="fill:none;stroke:#336;stroke-linecap:round;stroke-miterlimit:10;stroke-width:2px"/><path d="M440.59,207.47l-6.5-4.51V184.5s1.22-4.78,3.76-2.32,2.74,8.2,2.74,8.2v14.9L435.41,202l-.1-17.26a13.27,13.27,0,0,0,1.52-1.47" style="fill:none;stroke:#336;stroke-linecap:round;stroke-miterlimit:10;stroke-width:2px"/><path d="M441.31,175.52,434.8,171V152.55s1.22-4.78,3.76-2.32,2.75,8.2,2.75,8.2v14.9l-5.19-3.28-.1-17.26a13.27,13.27,0,0,0,1.52-1.47" style="fill:none;stroke:#336;stroke-linecap:round;stroke-miterlimit:10;stroke-width:2px"/><path d="M424.55,198.53,418,194V175.57s1.22-4.79,3.77-2.33,2.74,8.21,2.74,8.21v14.9l-5.18-3.28-.11-17.26a13.69,13.69,0,0,0,1.53-1.47" style="fill:none;stroke:#336;stroke-linecap:round;stroke-miterlimit:10;stroke-width:2px"/><path d="M425.26,166.58l-6.5-4.51V143.62s1.22-4.79,3.76-2.33,2.74,8.2,2.74,8.2v14.9l-5.18-3.28-.1-17.26a12.15,12.15,0,0,0,1.52-1.47" style="fill:none;stroke:#336;stroke-linecap:round;stroke-miterlimit:10;stroke-width:2px"/><path d="M402.64,188.52,396.13,184V165.55s1.22-4.79,3.76-2.32,2.75,8.2,2.75,8.2v14.9l-5.19-3.28-.1-17.26a13.27,13.27,0,0,0,1.52-1.47" style="fill:none;stroke:#336;stroke-linecap:round;stroke-miterlimit:10;stroke-width:2px"/><path d="M401.43,133.54c2.51,6.17,1.21,14.22,1.21,20.69-2.56-1.62-5.05-2.11-5.2-5.12-.23-4.35-.05-8.75-.08-13.11" style="fill:none;stroke:#336;stroke-linecap:round;stroke-miterlimit:10;stroke-width:2px"/><path d="M402.64,156.42c-8.14-2.25-8.14-12.25-6.51-19.27" style="fill:none;stroke:#336;stroke-linecap:round;stroke-miterlimit:10;stroke-width:2px"/><path d="M397.11,103.89c0-2.79-.3-3.14,1.5-5.14" style="fill:none;stroke:#336;stroke-linecap:round;stroke-miterlimit:10;stroke-width:2px"/><path d="M395.87,104.57a20.82,20.82,0,0,1,.1-4.93c1.25-4.85,4.71-1.47,5.63,1.65" style="fill:none;stroke:#336;stroke-linecap:round;stroke-miterlimit:10;stroke-width:2px"/><path d="M361.74,160c.06-1.23.21-2.44.26-3.67" style="fill:none;stroke:#336;stroke-linecap:round;stroke-miterlimit:10;stroke-width:2px"/><path d="M367.22,153.78v4.14" style="fill:none;stroke:#336;stroke-linecap:round;stroke-miterlimit:10;stroke-width:2px"/><path d="M360.45,160.65c.06-1.21.21-2.41.26-3.62" style="fill:none;stroke:#336;stroke-linecap:round;stroke-miterlimit:10;stroke-width:2px"/><path d="M362.71,124.08c.79-3.91-2.21-8.91,1.46-12.52" style="fill:none;stroke:#336;stroke-linecap:round;stroke-miterlimit:10;stroke-width:2px"/><path d="M361.43,124.75c1.07-4.58-2.93-11.58,3.07-14.58,3,3,3,7,3.43,11.09" style="fill:none;stroke:#336;stroke-linecap:round;stroke-miterlimit:10;stroke-width:2px"/><line x1="457.37" y1="192.49" x2="465.03" y2="188.5" style="fill:none;stroke:#336;stroke-linecap:round;stroke-miterlimit:10;stroke-width:2px"/><line x1="461.2" y1="185.24" x2="461.2" y2="203.14" style="fill:none;stroke:#336;stroke-linecap:round;stroke-miterlimit:10;stroke-width:2px"/><path d="M457.37,175l9.47-4.88v-20s-1.78-5.17-5.48-2.51-4,8.87-4,8.87v16.13l7.54-3.55.15-18.68a18.64,18.64,0,0,1-2.22-1.59" style="fill:none;stroke:#336;stroke-linecap:round;stroke-miterlimit:10;stroke-width:2px"/><path d="M476.4,139.8c-6,5.07-3.65,18-3.65,24.73l4.4-2.07" style="fill:none;stroke:#336;stroke-linecap:round;stroke-miterlimit:10;stroke-width:2px"/><path d="M472.75,166.9l4.74-2.44" style="fill:none;stroke:#336;stroke-linecap:round;stroke-miterlimit:10;stroke-width:2px"/><line x1="457.37" y1="158.91" x2="465.03" y2="154.92" style="fill:none;stroke:#336;stroke-linecap:round;stroke-miterlimit:10;stroke-width:2px"/><line x1="461.2" y1="151.66" x2="461.2" y2="169.56" style="fill:none;stroke:#336;stroke-linecap:round;stroke-miterlimit:10;stroke-width:2px"/><path d="M403,87.6c1.08,3.28.33,6-1.67,6.16s-4.51-2.46-5.59-5.75-.33-6.05,1.68-6.16S401.93,84.31,403,87.6Z" style="fill:none;stroke:#336;stroke-linecap:round;stroke-miterlimit:10;stroke-width:2px"/><path d="M417.31,93.27a1.83,1.83,0,0,0,.57,0c.72-.36,1.43-.74,2.13-1.13a10.67,10.67,0,0,0,2.89-4.57c1.08-3.29.33-6-1.68-6.17s-4.5,2.46-5.58,5.75S415.31,93.16,417.31,93.27Z" style="fill:none;stroke:#336;stroke-linecap:round;stroke-miterlimit:10;stroke-width:2px"/><polyline points="390.27 68.93 409.07 78.05 426.96 68.37" style="fill:none;stroke:#336;stroke-linecap:round;stroke-miterlimit:10;stroke-width:2px"/><path d="M351.43,91.3l34.07,19.85" style="fill:none;stroke:#336;stroke-linecap:round;stroke-miterlimit:10;stroke-width:2px"/><path d="M412.3,126.69c7.2,5.48,14.2,7.48,21.2,13.48,6,3,11,7,17,9a3.49,3.49,0,0,1,2-1c3-4,3-9,6-12,5-5,12-8,18-11" style="fill:none;stroke:#336;stroke-linecap:round;stroke-miterlimit:10;stroke-width:2px"/><polygon points="60.6 154.23 101.31 177.4 128.12 144.96 161.55 151.91 125.81 129.74 90.06 120.8 60.6 154.23" style="fill:none;stroke:#336;stroke-linecap:round;stroke-miterlimit:10;stroke-width:2px"/><path d="M84.85,234.07c5.65,2.1,10.65,6.1,15.65,8.1,2,1,3,0,5-1,18-10,35-19,52-29,0-20,0-41-.05-61.11" style="fill:none;stroke:#336;stroke-linecap:round;stroke-miterlimit:10;stroke-width:2px"/><path d="M66.16,157.4v46.78" style="fill:none;stroke:#336;stroke-linecap:round;stroke-miterlimit:10;stroke-width:2px"/><line x1="103.69" y1="174.53" x2="103.69" y2="242.94" style="fill:none;stroke:#336;stroke-linecap:round;stroke-miterlimit:10;stroke-width:2px"/><path d="M71.17,204.48V171.54" style="fill:none;stroke:#336;stroke-linecap:round;stroke-miterlimit:10;stroke-width:2px"/><path d="M71.17,169.88c8.33,5.29,17.33,8.29,24.33,14.29,0,15,0,29-.48,44.06-3.57-2,0-9.16,0,0l-10.71-6" style="fill:none;stroke:#336;stroke-linecap:round;stroke-miterlimit:10;stroke-width:2px"/><line x1="71.17" y1="184.29" x2="95.02" y2="197" style="fill:none;stroke:#336;stroke-linecap:round;stroke-miterlimit:10;stroke-width:2px"/><line x1="72.35" y1="200.83" x2="95.02" y2="212.87" style="fill:none;stroke:#336;stroke-linecap:round;stroke-miterlimit:10;stroke-width:2px"/><line x1="88.17" y1="181.93" x2="88.17" y2="222.86" style="fill:none;stroke:#336;stroke-linecap:round;stroke-miterlimit:10;stroke-width:2px"/><path d="M78.73,176v34.43" style="fill:none;stroke:#336;stroke-linecap:round;stroke-miterlimit:10;stroke-width:2px"/><polyline points="117.94 164.69 142.03 151.06 142.03 209.8 117.94 222.86 117.94 166.34" style="fill:none;stroke:#336;stroke-linecap:round;stroke-miterlimit:10;stroke-width:2px"/><line x1="117.94" y1="176.03" x2="140.38" y2="163.51" style="fill:none;stroke:#336;stroke-linecap:round;stroke-miterlimit:10;stroke-width:2px"/><line x1="117.94" y1="181.93" x2="140.38" y2="168.23" style="fill:none;stroke:#336;stroke-linecap:round;stroke-miterlimit:10;stroke-width:2px"/><line x1="117.94" y1="192.09" x2="140.38" y2="179.33" style="fill:none;stroke:#336;stroke-linecap:round;stroke-miterlimit:10;stroke-width:2px"/><line x1="117.94" y1="197" x2="142.03" y2="184.29" style="fill:none;stroke:#336;stroke-linecap:round;stroke-miterlimit:10;stroke-width:2px"/><line x1="117.94" y1="208.73" x2="139.2" y2="197" style="fill:none;stroke:#336;stroke-linecap:round;stroke-miterlimit:10;stroke-width:2px"/><line x1="117.94" y1="212.87" x2="140.38" y2="200.83" style="fill:none;stroke:#336;stroke-linecap:round;stroke-miterlimit:10;stroke-width:2px"/><line x1="126.2" y1="162.33" x2="126.2" y2="216.65" style="fill:none;stroke:#336;stroke-linecap:round;stroke-miterlimit:10;stroke-width:2px"/><line x1="136.12" y1="157.6" x2="136.12" y2="211.69" style="fill:none;stroke:#336;stroke-linecap:round;stroke-miterlimit:10;stroke-width:2px"/><line x1="91.42" y1="121.14" x2="128.12" y2="144.96" style="fill:none;stroke:#336;stroke-linecap:round;stroke-miterlimit:10;stroke-width:2px"/><polyline points="63.48 153.86 101.02 174.53 126.2 143.72" style="fill:none;stroke:#336;stroke-linecap:round;stroke-miterlimit:10;stroke-width:2px"/><line x1="129.16" y1="146.84" x2="161.55" y2="153.32" style="fill:none;stroke:#336;stroke-linecap:round;stroke-miterlimit:10;stroke-width:2px"/><polyline points="143.7 153.32 143.7 211.69 117.94 225.16" style="fill:none;stroke:#336;stroke-linecap:round;stroke-miterlimit:10;stroke-width:2px"/><path d="M84.64,225,95,230.56" style="fill:none;stroke:#336;stroke-linecap:round;stroke-miterlimit:10;stroke-width:2px"/><path d="M563.76,149.63l-33.12,8.28-18.46,11.45c.06,2,0,4,0,6.06L528.5,172l24.83,30,37.72-21.47Z" style="fill:none;stroke:#336;stroke-linecap:round;stroke-miterlimit:10;stroke-width:2px"/><path d="M585.89,183.54c-1.39,20.63.61,40.63-.39,61.63a323.88,323.88,0,0,1-32,17c-2,1-3,0-5-1s-3-3-5-4c-10-5-20-10-29.12-15.66" style="fill:none;stroke:#336;stroke-linecap:round;stroke-miterlimit:10;stroke-width:2px"/><line x1="551.13" y1="199.41" x2="551.13" y2="262.78" style="fill:none;stroke:#336;stroke-linecap:round;stroke-miterlimit:10;stroke-width:2px"/><polyline points="581.26 195.11 559.16 207.58 559.16 249.16 581.26 236.68 581.26 196.64" style="fill:none;stroke:#336;stroke-linecap:round;stroke-miterlimit:10;stroke-width:2px"/><line x1="581.26" y1="208.45" x2="559.16" y2="220.23" style="fill:none;stroke:#336;stroke-linecap:round;stroke-miterlimit:10;stroke-width:2px"/><line x1="580.16" y1="223.77" x2="559.16" y2="234.93" style="fill:none;stroke:#336;stroke-linecap:round;stroke-miterlimit:10;stroke-width:2px"/><line x1="565.5" y1="206.27" x2="565.5" y2="244.19" style="fill:none;stroke:#336;stroke-linecap:round;stroke-miterlimit:10;stroke-width:2px"/><line x1="574.26" y1="200.8" x2="574.26" y2="240.63" style="fill:none;stroke:#336;stroke-linecap:round;stroke-miterlimit:10;stroke-width:2px"/><polyline points="537.93 190.29 515.61 177.67 515.61 232.09 537.93 244.19 537.93 191.82" style="fill:none;stroke:#336;stroke-linecap:round;stroke-miterlimit:10;stroke-width:2px"/><line x1="537.93" y1="200.8" x2="517.14" y2="189.2" style="fill:none;stroke:#336;stroke-linecap:round;stroke-miterlimit:10;stroke-width:2px"/><line x1="537.93" y1="206.27" x2="517.14" y2="193.57" style="fill:none;stroke:#336;stroke-linecap:round;stroke-miterlimit:10;stroke-width:2px"/><line x1="537.93" y1="215.68" x2="517.14" y2="203.86" style="fill:none;stroke:#336;stroke-linecap:round;stroke-miterlimit:10;stroke-width:2px"/><line x1="537.93" y1="220.23" x2="515.61" y2="208.45" style="fill:none;stroke:#336;stroke-linecap:round;stroke-miterlimit:10;stroke-width:2px"/><line x1="537.93" y1="231.09" x2="518.24" y2="220.23" style="fill:none;stroke:#336;stroke-linecap:round;stroke-miterlimit:10;stroke-width:2px"/><line x1="537.93" y1="234.93" x2="517.14" y2="223.77" style="fill:none;stroke:#336;stroke-linecap:round;stroke-miterlimit:10;stroke-width:2px"/><line x1="530.27" y1="188.1" x2="530.27" y2="238.43" style="fill:none;stroke:#336;stroke-linecap:round;stroke-miterlimit:10;stroke-width:2px"/><line x1="521.08" y1="183.73" x2="521.08" y2="233.84" style="fill:none;stroke:#336;stroke-linecap:round;stroke-miterlimit:10;stroke-width:2px"/><line x1="562.5" y1="149.95" x2="528.5" y2="172.02" style="fill:none;stroke:#336;stroke-linecap:round;stroke-miterlimit:10;stroke-width:2px"/><polyline points="588.38 180.26 553.6 199.41 530.27 170.87" style="fill:none;stroke:#336;stroke-linecap:round;stroke-miterlimit:10;stroke-width:2px"/><path d="M527.54,173.75l-14.33,2.87" style="fill:none;stroke:#336;stroke-linecap:round;stroke-miterlimit:10;stroke-width:2px"/><polyline points="514.07 179.76 514.07 233.84 537.93 246.32" style="fill:none;stroke:#336;stroke-linecap:round;stroke-miterlimit:10;stroke-width:2px"/><line x1="581.26" y1="239.56" x2="559.16" y2="251.32" style="fill:none;stroke:#336;stroke-linecap:round;stroke-miterlimit:10;stroke-width:2px"/><path d="M528.05,136.57s-9.5-3.76-8.61-8.78,1.14-2.69-.06-10.4-3.1-6.64,0-10.94.11-1.08,3.49-6.81.16-11.12,5.18-6.1,4,7.17,6.28,13.63,4.84,5,3.58,10.75,3.36,4.31.34,9.87S532.35,137.29,528.05,136.57Z" style="fill:none;stroke:#336;stroke-linecap:round;stroke-miterlimit:10;stroke-width:2px"/><polyline points="528.05 136.57 528.05 145.36 529.84 145.36 529.84 136.66" style="fill:none;stroke:#336;stroke-linecap:round;stroke-miterlimit:10;stroke-width:2px"/><path d="M180.94,196.53s-9.51-3.76-8.61-8.78,1.13-2.69-.06-10.4-3.11-6.64,0-10.94.11-1.08,3.49-6.82.15-11.11,5.18-6.09,3.94,7.17,6.27,13.62,4.84,5,3.59,10.76,3.36,4.31.33,9.87S185.24,197.25,180.94,196.53Z" style="fill:none;stroke:#336;stroke-linecap:round;stroke-miterlimit:10;stroke-width:2px"/><polyline points="180.94 196.53 180.94 205.32 182.73 205.32 182.73 196.62" style="fill:none;stroke:#336;stroke-linecap:round;stroke-miterlimit:10;stroke-width:2px"/><path d="M217.37,58.41s-6.61-2.63-6-6.12.79-1.87,0-7.24-2.17-4.62,0-7.62.07-.75,2.43-4.74.11-7.74,3.6-4.25,2.75,5,4.37,9.49,3.37,3.5,2.5,7.49,2.34,3,.23,6.87S220.37,58.9,217.37,58.41Z" style="fill:none;stroke:#336;stroke-linecap:round;stroke-miterlimit:10;stroke-width:2px"/><polyline points="217.37 58.41 217.37 64.52 218.62 64.52 218.62 58.46" style="fill:none;stroke:#336;stroke-linecap:round;stroke-miterlimit:10;stroke-width:2px"/><line x1="188.07" y1="167.61" x2="235.27" y2="196.82" style="fill:none;stroke:#336;stroke-linecap:round;stroke-miterlimit:10;stroke-width:2px"/><line x1="172.15" y1="164.62" x2="157.59" y2="155.69" style="fill:none;stroke:#336;stroke-linecap:round;stroke-miterlimit:10;stroke-width:2px"/><line x1="193.98" y1="151.45" x2="184.34" y2="156.42" style="fill:none;stroke:#336;stroke-linecap:round;stroke-miterlimit:10;stroke-width:2px"/><polyline points="157.59 190.93 180.82 203.53 81 259.14 66.6 250.28" style="fill:none;stroke:#336;stroke-linecap:round;stroke-miterlimit:10;stroke-width:2px"/><polyline points="40.64 228.32 30.5 218.84 66 199.74" style="fill:none;stroke:#336;stroke-linecap:round;stroke-miterlimit:10;stroke-width:2px"/><polyline points="313.22 123.42 333.58 133.54 353.19 121.68" style="fill:none;stroke:#336;stroke-linecap:round;stroke-miterlimit:10;stroke-width:2px"/><line x1="321.92" y1="96.03" x2="303.05" y2="104.57" style="fill:none;stroke:#336;stroke-linecap:round;stroke-miterlimit:10;stroke-width:2px"/><path d="M222,81.06l-26.5-14.69" style="fill:none;stroke:#336;stroke-linecap:round;stroke-miterlimit:10;stroke-width:2px"/><path d="M261.88,103.14,248.26,95.6" style="fill:none;stroke:#336;stroke-linecap:round;stroke-miterlimit:10;stroke-width:2px"/><line x1="203.54" y1="70.75" x2="230.42" y2="59.23" style="fill:none;stroke:#336;stroke-linecap:round;stroke-miterlimit:10;stroke-width:2px"/><line x1="138.06" y1="118.02" x2="101.5" y2="97.36" style="fill:none;stroke:#336;stroke-linecap:round;stroke-miterlimit:10;stroke-width:2px"/><polyline points="514.38 257.44 562.5 283.15 621.5 252.1" style="fill:none;stroke:#336;stroke-linecap:round;stroke-miterlimit:10;stroke-width:2px"/><line x1="512.23" y1="288.94" x2="550.14" y2="311.29" style="fill:none;stroke:#336;stroke-linecap:round;stroke-miterlimit:10;stroke-width:2px"/><line x1="512.23" y1="137.17" x2="539.5" y2="154.23" style="fill:none;stroke:#336;stroke-linecap:round;stroke-miterlimit:10;stroke-width:2px"/><polyline points="585.48 192.97 610.5 210.45 637.43 199.2" style="fill:none;stroke:#336;stroke-linecap:round;stroke-miterlimit:10;stroke-width:2px"/><path d="M400.51,356.38l-1-1.09v-3.57l1.4-1.09a13.57,13.57,0,0,1,9.47-5l6.68,1.7,5,.24,8.24,5.2,5,4.27s3.89,2.72,3.73,4.27c0,0-.07,2,0,3.5s-5.83,4.89-7.78,5.51-6.29-.85-6.29-.85-3.88-7.92-5.2-2.88l-13.43-7.37s-1.64-4.51-3.27-5.36S400.2,354.67,400.51,356.38Z" style="fill:none;stroke:#336;stroke-linecap:round;stroke-miterlimit:10;stroke-width:2px"/><path d="M410.22,355.29s2.17-2.4,4.89-1.86,5.83,3.57,5.83,3.57,3.49,4.27,2.09,4.35S410.22,355.29,410.22,355.29Z" style="fill:none;stroke:#336;stroke-linecap:round;stroke-miterlimit:10;stroke-width:2px"/><path d="M408.43,353.35l5.59-1s5.47-4.4,7.15-4.35c0,0-3.88-.62-5.44,0S408.28,351.41,408.43,353.35Z" style="fill:none;stroke:#336;stroke-linecap:round;stroke-miterlimit:10;stroke-width:2px"/><path d="M423.36,357.35l2.47,4.47s8.15-2.72,8.85-4.47l-4.42-4S424.31,357.78,423.36,357.35Z" style="fill:none;stroke:#336;stroke-linecap:round;stroke-miterlimit:10;stroke-width:2px"/><path d="M428.16,366.17s0-.86.54-1,2.25-.78,2.1,0,.15,1.55-.85,1.47A5.52,5.52,0,0,1,428.16,366.17Z" style="fill:none;stroke:#336;stroke-linecap:round;stroke-miterlimit:10;stroke-width:2px"/><path d="M436.78,361.35s1.24-1.24,1.47-.93-.07.62,0,.93-.85.47-.93.47A3.71,3.71,0,0,1,436.78,361.35Z" style="fill:none;stroke:#336;stroke-linecap:round;stroke-miterlimit:10;stroke-width:2px"/><path d="M419.86,366.25s.69,3.1,1.85,3.33,2,0,1.65-1.66" style="fill:none;stroke:#336;stroke-linecap:round;stroke-miterlimit:10;stroke-width:2px"/><path d="M422.91,369.83s1.79-.07,1.79-.63" style="fill:none;stroke:#336;stroke-linecap:round;stroke-miterlimit:10;stroke-width:2px"/><path d="M400.59,355s1,3.34,2.27,3.59a1.57,1.57,0,0,0,1.83-2.23" style="fill:none;stroke:#336;stroke-linecap:round;stroke-miterlimit:10;stroke-width:2px"/><path d="M403.8,358.84a4.42,4.42,0,0,0,1.58-.21" style="fill:none;stroke:#336;stroke-linecap:round;stroke-miterlimit:10;stroke-width:2px"/><path d="M425.57,366.64s3.34,1.74,4.91,1.58,7.2-3.65,7.86-4.23" style="fill:none;stroke:#336;stroke-linecap:round;stroke-miterlimit:10;stroke-width:2px"/><path d="M432.31,365.71s4.75-2,5.48-2.76" style="fill:none;stroke:#336;stroke-linecap:round;stroke-miterlimit:10;stroke-width:2px"/><path d="M402.71,352.72s3.38,3,3.71,4.86" style="fill:none;stroke:#336;stroke-linecap:round;stroke-miterlimit:10;stroke-width:2px"/><path d="M422.55,364a10.85,10.85,0,0,1,3,4.24" style="fill:none;stroke:#336;stroke-linecap:round;stroke-miterlimit:10;stroke-width:2px"/><path d="M519.07,284.59l-1-1.09v-3.57l1.4-1.09a13.64,13.64,0,0,1,9.48-5l6.68,1.71,5,.24,8.23,5.2,5,4.27s3.88,2.72,3.73,4.27c0,0-.07,2,0,3.5s-5.83,4.89-7.77,5.51-6.29-.85-6.29-.85-3.88-7.93-5.2-2.88l-13.44-7.37s-1.63-4.51-3.26-5.36S518.76,282.88,519.07,284.59Z" style="fill:none;stroke:#336;stroke-linecap:round;stroke-miterlimit:10;stroke-width:2px"/><path d="M528.78,283.5s2.18-2.41,4.9-1.86,5.82,3.57,5.82,3.57,3.5,4.27,2.1,4.35S528.78,283.5,528.78,283.5Z" style="fill:none;stroke:#336;stroke-linecap:round;stroke-miterlimit:10;stroke-width:2px"/><path d="M527,281.56l5.59-1s5.46-4.4,7.14-4.35c0,0-3.88-.62-5.43,0S526.84,279.61,527,281.56Z" style="fill:none;stroke:#336;stroke-linecap:round;stroke-miterlimit:10;stroke-width:2px"/><path d="M541.93,285.56l2.46,4.47s8.16-2.72,8.86-4.47l-4.43-4S542.88,286,541.93,285.56Z" style="fill:none;stroke:#336;stroke-linecap:round;stroke-miterlimit:10;stroke-width:2px"/><path d="M546.72,294.37s0-.85.55-1,2.25-.78,2.09,0,.16,1.55-.85,1.47A5.38,5.38,0,0,1,546.72,294.37Z" style="fill:none;stroke:#336;stroke-linecap:round;stroke-miterlimit:10;stroke-width:2px"/><path d="M555.34,289.56s1.25-1.24,1.48-.93-.08.62,0,.93-.85.47-.93.47A3.35,3.35,0,0,1,555.34,289.56Z" style="fill:none;stroke:#336;stroke-linecap:round;stroke-miterlimit:10;stroke-width:2px"/><path d="M538.42,294.46s.69,3.1,1.86,3.33,2,0,1.65-1.66" style="fill:none;stroke:#336;stroke-linecap:round;stroke-miterlimit:10;stroke-width:2px"/><path d="M541.47,298s1.79-.07,1.79-.63" style="fill:none;stroke:#336;stroke-linecap:round;stroke-miterlimit:10;stroke-width:2px"/><path d="M519.16,283.21s1,3.34,2.27,3.59a1.57,1.57,0,0,0,1.83-2.23" style="fill:none;stroke:#336;stroke-linecap:round;stroke-miterlimit:10;stroke-width:2px"/><path d="M522.37,287.05a4.42,4.42,0,0,0,1.58-.21" style="fill:none;stroke:#336;stroke-linecap:round;stroke-miterlimit:10;stroke-width:2px"/><path d="M544.14,294.85s3.34,1.74,4.9,1.58,7.21-3.65,7.87-4.23" style="fill:none;stroke:#336;stroke-linecap:round;stroke-miterlimit:10;stroke-width:2px"/><path d="M550.87,293.91s4.75-2,5.48-2.75" style="fill:none;stroke:#336;stroke-linecap:round;stroke-miterlimit:10;stroke-width:2px"/><path d="M521.28,280.93s3.38,3,3.71,4.86" style="fill:none;stroke:#336;stroke-linecap:round;stroke-miterlimit:10;stroke-width:2px"/><path d="M541.11,292.2a10.93,10.93,0,0,1,3,4.24" style="fill:none;stroke:#336;stroke-linecap:round;stroke-miterlimit:10;stroke-width:2px"/><path d="M217.56,90.83l-.77-.83V87.28l1.07-.82a10.35,10.35,0,0,1,7.21-3.85l5.08,1.3,3.78.18,6.27,4L244,91.3s3,2.07,2.84,3.25c0,0,0,1.54,0,2.66s-4.44,3.73-5.92,4.2-4.79-.65-4.79-.65-3-6-4-2.19L222,93s-1.24-3.43-2.48-4.08S217.32,89.53,217.56,90.83Z" style="fill:none;stroke:#336;stroke-linecap:round;stroke-miterlimit:10;stroke-width:2px"/><path d="M225,90a4.44,4.44,0,0,1,3.72-1.42c2.07.42,4.44,2.72,4.44,2.72s2.66,3.25,1.59,3.31S225,90,225,90Z" style="fill:none;stroke:#336;stroke-linecap:round;stroke-miterlimit:10;stroke-width:2px"/><path d="M223.59,88.52l4.26-.76s4.16-3.36,5.44-3.31c0,0-3-.48-4.14,0S223.47,87,223.59,88.52Z" style="fill:none;stroke:#336;stroke-linecap:round;stroke-miterlimit:10;stroke-width:2px"/><path d="M235,91.57l1.87,3.4s6.21-2.07,6.74-3.4l-3.37-3S235.68,91.89,235,91.57Z" style="fill:none;stroke:#336;stroke-linecap:round;stroke-miterlimit:10;stroke-width:2px"/><path d="M238.61,98.28s0-.65.41-.77,1.71-.59,1.6,0,.11,1.18-.66,1.12A4.13,4.13,0,0,1,238.61,98.28Z" style="fill:none;stroke:#336;stroke-linecap:round;stroke-miterlimit:10;stroke-width:2px"/><path d="M245.17,94.61s.94-.94,1.12-.71-.06.48,0,.71-.65.36-.71.36A2.5,2.5,0,0,1,245.17,94.61Z" style="fill:none;stroke:#336;stroke-linecap:round;stroke-miterlimit:10;stroke-width:2px"/><path d="M232.29,98.34s.52,2.36,1.41,2.54,1.52,0,1.26-1.27" style="fill:none;stroke:#336;stroke-linecap:round;stroke-miterlimit:10;stroke-width:2px"/><path d="M234.61,101.06s1.36,0,1.36-.47" style="fill:none;stroke:#336;stroke-linecap:round;stroke-miterlimit:10;stroke-width:2px"/><path d="M217.62,89.78s.79,2.54,1.73,2.73a1.19,1.19,0,0,0,1.39-1.69" style="fill:none;stroke:#336;stroke-linecap:round;stroke-miterlimit:10;stroke-width:2px"/><path d="M220.07,92.7a3.3,3.3,0,0,0,1.2-.16" style="fill:none;stroke:#336;stroke-linecap:round;stroke-miterlimit:10;stroke-width:2px"/><path d="M236.64,98.64s2.54,1.32,3.73,1.2,5.48-2.78,6-3.21" style="fill:none;stroke:#336;stroke-linecap:round;stroke-miterlimit:10;stroke-width:2px"/><path d="M241.76,97.93a28.39,28.39,0,0,0,4.17-2.1" style="fill:none;stroke:#336;stroke-linecap:round;stroke-miterlimit:10;stroke-width:2px"/><path d="M219.24,88.05s2.57,2.31,2.82,3.7" style="fill:none;stroke:#336;stroke-linecap:round;stroke-miterlimit:10;stroke-width:2px"/><path d="M234.33,96.63a8.23,8.23,0,0,1,2.31,3.22" style="fill:none;stroke:#336;stroke-linecap:round;stroke-miterlimit:10;stroke-width:2px"/><path d="M91.73,466.5l-1-1.09v-3.57l1.4-1.09a13.57,13.57,0,0,1,9.47-5l6.68,1.7,5,.24,8.23,5.2,5,4.27s3.89,2.72,3.73,4.27c0,0-.07,2,0,3.5s-5.83,4.89-7.77,5.51-6.29-.85-6.29-.85-3.88-7.92-5.2-2.88L97.55,469.3s-1.63-4.51-3.26-5.36S91.42,464.79,91.73,466.5Z" style="fill:none;stroke:#336;stroke-linecap:round;stroke-miterlimit:10;stroke-width:2px"/><path d="M101.44,465.41s2.17-2.4,4.89-1.86,5.82,3.57,5.82,3.57,3.5,4.27,2.1,4.35S101.44,465.41,101.44,465.41Z" style="fill:none;stroke:#336;stroke-linecap:round;stroke-miterlimit:10;stroke-width:2px"/><path d="M99.65,463.47l5.59-1s5.47-4.4,7.15-4.35c0,0-3.89-.62-5.44,0S99.49,461.53,99.65,463.47Z" style="fill:none;stroke:#336;stroke-linecap:round;stroke-miterlimit:10;stroke-width:2px"/><path d="M114.58,467.47l2.47,4.47s8.15-2.72,8.85-4.47l-4.43-4S115.53,467.9,114.58,467.47Z" style="fill:none;stroke:#336;stroke-linecap:round;stroke-miterlimit:10;stroke-width:2px"/><path d="M119.38,476.29s0-.86.54-1,2.25-.78,2.1,0,.15,1.55-.86,1.47A5.41,5.41,0,0,1,119.38,476.29Z" style="fill:none;stroke:#336;stroke-linecap:round;stroke-miterlimit:10;stroke-width:2px"/><path d="M128,471.47s1.24-1.24,1.47-.93-.07.62,0,.93-.85.47-.93.47S128,471.47,128,471.47Z" style="fill:none;stroke:#336;stroke-linecap:round;stroke-miterlimit:10;stroke-width:2px"/><path d="M111.08,476.37s.69,3.1,1.85,3.33,2,0,1.65-1.66" style="fill:none;stroke:#336;stroke-linecap:round;stroke-miterlimit:10;stroke-width:2px"/><path d="M114.13,480s1.79-.07,1.79-.63" style="fill:none;stroke:#336;stroke-linecap:round;stroke-miterlimit:10;stroke-width:2px"/><path d="M91.81,465.12s1,3.34,2.27,3.59a1.57,1.57,0,0,0,1.83-2.23" style="fill:none;stroke:#336;stroke-linecap:round;stroke-miterlimit:10;stroke-width:2px"/><path d="M95,469a4.42,4.42,0,0,0,1.58-.21" style="fill:none;stroke:#336;stroke-linecap:round;stroke-miterlimit:10;stroke-width:2px"/><path d="M116.79,476.76s3.34,1.74,4.91,1.58,7.2-3.65,7.86-4.23" style="fill:none;stroke:#336;stroke-linecap:round;stroke-miterlimit:10;stroke-width:2px"/><path d="M123.53,475.83s4.74-2,5.47-2.76" style="fill:none;stroke:#336;stroke-linecap:round;stroke-miterlimit:10;stroke-width:2px"/><path d="M93.93,462.84s3.38,3,3.71,4.86" style="fill:none;stroke:#336;stroke-linecap:round;stroke-miterlimit:10;stroke-width:2px"/><path d="M113.77,474.11a10.85,10.85,0,0,1,3,4.24" style="fill:none;stroke:#336;stroke-linecap:round;stroke-miterlimit:10;stroke-width:2px"/><path d="M332,258.24c-4.39,12-13.93,19.5-21.31,16.79s-9.79-14.61-5.4-26.59,13.93-19.5,21.31-16.79S336.34,246.26,332,258.24Z" style="fill:#1f407b;opacity:0.5"/><path d="M315.82,396.93c-9.28,25.3-28.66,41.47-43.29,36.11s-19-30.23-9.69-55.54S291.5,336,306.13,341.4,325.1,371.62,315.82,396.93Z" style="fill:#1f407b;opacity:0.5"/><path d="M290,278.33c-7.74,21.11-25.21,34.12-39,29.06s-18.73-26.29-11-47.4,25.21-34.12,39-29.05S297.7,257.22,290,278.33Z" style="fill:#1f407b;opacity:0.5"/><path d="M437.71,216.1c-7.74,21.11-25.21,34.12-39,29.06s-18.74-26.28-11-47.4,25.21-34.12,39-29S445.45,195,437.71,216.1Z" style="fill:#1f407b;opacity:0.5"/><path d="M366.88,311.72c-.1,12.5-7.89,22.58-17.41,22.51S332.32,324,332.41,311.45s7.89-22.58,17.41-22.51S367,299.21,366.88,311.72Z" style="fill:#1f407b;opacity:0.5"/><path d="M247.54,389.43c-5,13.51-15.3,22.13-23.11,19.27s-10.12-16.13-5.17-29.64,15.3-22.13,23.1-19.27S252.49,375.92,247.54,389.43Z" style="fill:#1f407b;opacity:0.5"/><line x1="293.15" y1="258.68" x2="305.3" y2="254.61" style="fill:none;stroke:#fff;stroke-linecap:round;stroke-miterlimit:10;stroke-width:3px"/><path d="M289.46,274.42c-7.46,20.33-23.74,33.06-36.37,28.43s-16.83-24.87-9.37-45.2,23.74-33.07,36.37-28.44S296.91,254.08,289.46,274.42Z" style="fill:#fff;stroke:#fff;stroke-linecap:round;stroke-miterlimit:10;stroke-width:2px"/><path d="M438.1,211.34c-7.46,20.33-23.74,33.06-36.37,28.43s-16.83-24.87-9.37-45.2,23.74-33.06,36.37-28.43S445.55,191,438.1,211.34Z" style="fill:#fff;stroke:#fff;stroke-linecap:round;stroke-miterlimit:10;stroke-width:2px"/><path d="M311.56,394.88c-8.63,23.53-26.65,38.57-40.25,33.58s-17.64-28.11-9-51.64,26.65-38.56,40.25-33.57S320.19,371.36,311.56,394.88Z" style="fill:#fff;stroke:#fff;stroke-linecap:round;stroke-miterlimit:10;stroke-width:2px"/><path d="M245.43,388.66c-4.4,12-13.34,19.71-20,17.28s-8.46-14.12-4.07-26.1,13.34-19.72,20-17.29S249.82,376.68,245.43,388.66Z" style="fill:#fff;stroke:#fff;stroke-linecap:round;stroke-miterlimit:10;stroke-width:2px"/><path d="M331.75,254.23c-4.39,12-13.34,19.72-20,17.28s-8.47-14.12-4.08-26.1,13.34-19.72,20-17.28S336.14,242.25,331.75,254.23Z" style="fill:#fff;stroke:#fff;stroke-linecap:round;stroke-miterlimit:10;stroke-width:2px"/><path d="M364.69,309.36c-.88,11.83-7.94,20.95-15.77,20.37s-13.47-10.65-12.6-22.47,7.94-20.95,15.77-20.37S365.56,297.53,364.69,309.36Z" style="fill:#fff;stroke:#fff;stroke-linecap:round;stroke-miterlimit:10;stroke-width:2px"/><path d="M359,308.93c-.52,7.05-4.73,12.49-9.4,12.14s-8-6.34-7.51-13.39,4.73-12.49,9.4-12.14S359.48,301.88,359,308.93Z" style="fill:#1f407b"/><path d="M320,262.76l-6-8.85s-3.46-11.45,6-16.49,8.8,6.87,6,12.67S320,262.76,320,262.76Z" style="fill:#4cbea0"/><path d="M324.9,247.22c-.88,3.45-3.42,5.79-5.68,5.22s-3.38-3.84-2.51-7.29,3.41-5.8,5.67-5.22S325.77,243.76,324.9,247.22Z" style="fill:#fff"/><line x1="286.93" y1="280.35" x2="337.05" y2="302.44" style="fill:none;stroke:#fff;stroke-linecap:round;stroke-miterlimit:10;stroke-width:3px"/><line x1="357.22" y1="288.79" x2="394.69" y2="234.66" style="fill:none;stroke:#fff;stroke-linecap:round;stroke-miterlimit:10;stroke-width:3px"/><line x1="338.54" y1="321.09" x2="311.65" y2="351.3" style="fill:none;stroke:#fff;stroke-linecap:round;stroke-miterlimit:10;stroke-width:3px"/><path d="M288.57,360.36c-11.28,7.26-20.36,24.61-20.28,38.75.07,13.05,7.92,18.81,18,13.93l-.1-17.32L281,399l0-8.58,5.16-3.32,0-6.33a20.25,20.25,0,0,1,7.47-13.71l6.17-4,.05,8.45-4.27,2.74a5.56,5.56,0,0,0-2.11,4.47l0,3.8,6.4-4.12.05,8.58L293,391.46l.09,16.82c9.23-8.4,16.1-23.14,16-35.45C309.07,358.69,299.86,353.1,288.57,360.36Z" style="fill:#3a579b"/><path d="M227.16,402.78c0-1.73-.07-3.32-.13-4.89a.8.8,0,0,0-.25-.63c-4.66-2.41-3.94-12.73,2-20.46,5.4-7.07,12.34-8.16,14.45-2.28,1.9,5.27-.71,13.38-6,18.51a16.31,16.31,0,0,1-5.58,3.76,2.33,2.33,0,0,0-1.22,1.07C229.39,399.47,228.32,401,227.16,402.78Zm1.44-4.56c.36-.55.64-.9.86-1.3a4.25,4.25,0,0,1,2.34-2.16,13,13,0,0,0,4.77-3.12c5.72-5.53,7.28-13.8,4.13-17.41-2.28-2.61-6.6-1.49-10.29,2.69-6.4,7.26-6.54,17.47-2.14,18.63.14,0,.25.3.26.53C228.59,396.72,228.58,397.4,228.6,398.22Z" style="fill:#28c1d8;fill-rule:evenodd"/><path d="M240.63,377.65c-1.16,2.25-2.29,4.26-3.22,6.35-.85,1.9-1.69,2.74-2.95,2.73a10.79,10.79,0,0,0-2.55.54,2,2,0,0,0-.83.53c-1.33,1.39-2.66,2.81-4.13,4.38,1.22-2.4,2.41-4.56,3.45-6.79.7-1.51,1.36-2.19,2.4-2.24a15.53,15.53,0,0,0,2.92-.61,1.71,1.71,0,0,0,.72-.46C237.79,380.68,239.13,379.24,240.63,377.65Z" style="fill:#28c1d8;fill-rule:evenodd"/><path d="M251.88,270a3.3,3.3,0,0,1-2.1-2.52c0-.49,0-1,0-1.47a4.27,4.27,0,0,0,.13-.48c.74-4.05,1.46-8.1,2.21-12.15a3.11,3.11,0,0,1,1.7-2.54l4.9-2.59c-.06.92-.12,1.85-.18,2.76l-.69,11a.64.64,0,0,0-.06.46c0,.11,0,.23,0,.35a9.69,9.69,0,0,1-2.32,5.41A4.65,4.65,0,0,1,251.88,270Z" style="fill:#4cbea0;fill-rule:evenodd"/><path d="M282.35,250.37a14.1,14.1,0,0,1-1.94,4.55c-.23.2-.46.38-.69.59-2,1.84-3.89,1.79-4.9-.06a8.47,8.47,0,0,1-.53-2.11l-.81-6.3c-.26-2.08-.5-4.16-.76-6.24,1.67-.88,3.33-1.78,5-2.65.88-.47,1.33-.28,1.62.66s.48,1.7.75,2.53c.76,2.44,1.37,5,2.23,7.38C282.32,249.27,282.34,249.82,282.35,250.37Z" style="fill:#7bd0e4;fill-rule:evenodd"/><path d="M280.49,257.32c.12,4.48.26,9,.37,13.46a3.91,3.91,0,0,1-1.67,3.2c-.22.15-.44.25-.65.37L254.75,287c-1.75.93-2.42.46-2.48-1.76q-.15-6.37-.31-12.75a2,2,0,0,1,.92-.29c2.12-.5,4.07-2.87,4.75-5.79.06-.23-.06-.55.23-.68s.22.25.3.43c.52,1.1,1.25,1.83,2.39,1.75,2.3-.15,4.32-2.36,5.3-5.74.06-.24,0-.58.29-.71s.23.24.31.41a2.4,2.4,0,0,0,2.7,1.65c2.19-.37,4.13-2.69,5-5.84.07-.26,0-.59.27-.74s.2.27.26.43c.82,2.12,2.84,2.38,4.92.65A3.17,3.17,0,0,1,280.49,257.32Zm-3.25,10.48.12.1a5.7,5.7,0,0,1-2.3,3.83c-1.23.87-2.35.71-2.91-.4a4.68,4.68,0,0,1,.22-4.13c.86-1.93,2.46-3.09,3.81-2.65.67.21.8-.64,1.05-1.1.35-.67-.18-.52-.35-.59-1.42-.59-3.31.42-4.73,2.47a8.39,8.39,0,0,0-1.44,6.51c.64,2.18,2.66,2.8,4.57,1.4a9.25,9.25,0,0,0,3.47-7.28c0-.48-.13-.58-.51-.37-1,.58-2.08,1.14-3.12,1.65a.89.89,0,0,0-.52,1.05c0,.43-.07,1,.54.6S276.54,268.16,277.24,267.8Z" style="fill:#3a6bb1;fill-rule:evenodd"/><path d="M280.49,257.32a3.17,3.17,0,0,0-.92.68c-2.08,1.73-4.1,1.47-4.92-.65-.06-.16,0-.61-.26-.43s-.2.48-.27.74c-.84,3.15-2.78,5.47-5,5.84a2.4,2.4,0,0,1-2.7-1.65c-.08-.17-.05-.53-.31-.41s-.23.47-.29.71c-1,3.38-3,5.59-5.3,5.74-1.14.08-1.87-.65-2.39-1.75-.08-.18-.07-.54-.3-.43s-.17.45-.23.68c-.68,2.92-2.63,5.29-4.75,5.79a2,2,0,0,0-.92.29c0-.82-.05-1.64-.08-2.46a4.65,4.65,0,0,0,3.56-1.73,9.69,9.69,0,0,0,2.32-5.41c.09.26.2.51.28.79a2.62,2.62,0,0,0,4,1.57,8.76,8.76,0,0,0,4-7c0,.1.08.19.1.29.51,3.11,3.26,3.66,5.69,1.08a9,9,0,0,0,2.48-6.29,8.47,8.47,0,0,0,.53,2.11c1,1.85,2.94,1.9,4.9.06.23-.21.46-.39.69-.59A15.74,15.74,0,0,1,280.49,257.32Z" style="fill:#1f407b;fill-rule:evenodd"/><path d="M266,258.26a8.76,8.76,0,0,1-4,7,2.62,2.62,0,0,1-4-1.57c-.08-.28-.19-.53-.28-.79s0-.24,0-.35a.49.49,0,0,0,.06-.46l.69-11c.06-.91.12-1.84.18-2.76l6.92-3.68c0,.35.06.7.07,1.07Q265.85,252,266,258.26Z" style="fill:#7bd0e4;fill-rule:evenodd"/><path d="M257.81,262.06a.49.49,0,0,1-.06.46A.64.64,0,0,1,257.81,262.06Z" style="fill:#5783c3;fill-rule:evenodd"/><path d="M266,258.26q-.18-6.3-.35-12.61c0-.37-.05-.72-.07-1.07l7.12-3.78c.26,2.08.5,4.16.76,6.24l.81,6.3a9,9,0,0,1-2.48,6.29c-2.43,2.58-5.18,2-5.69-1.08C266.1,258.45,266.05,258.36,266,258.26Z" style="fill:#4cbea0;fill-rule:evenodd"/><path d="M277.24,267.8c-.7.36-1.4.67-2.1,1.09s-.5-.17-.54-.6a.89.89,0,0,1,.52-1.05c1-.51,2.08-1.07,3.12-1.65.38-.21.5-.11.51.37a9.25,9.25,0,0,1-3.47,7.28c-1.91,1.4-3.93.78-4.57-1.4a8.39,8.39,0,0,1,1.44-6.51c1.42-2.05,3.31-3.06,4.73-2.47.17.07.7-.08.35.59-.25.46-.38,1.31-1.05,1.1-1.35-.44-2.95.72-3.81,2.65a4.68,4.68,0,0,0-.22,4.13c.56,1.11,1.68,1.27,2.91.4a5.7,5.7,0,0,0,2.3-3.83C277.37,267.78,277.33,267.75,277.24,267.8Z" style="fill:#f8f9fd;fill-rule:evenodd"/><path d="M277.24,267.8c.09-.05.13,0,.12.1Z" style="fill:#567ebf;fill-rule:evenodd"/><path d="M399.73,221.65V209c.09-1,.16-2,.27-3a22.44,22.44,0,0,1,7.05-13.21c1.06-1,2.16-1.87,3.24-2.8l11.88-8.66,2.59-1.59c3.92-2.32,6.81-1.57,7.56,2,.21,1,.28,2.1.41,3.15V197.6c-.09,1-.17,2-.28,3a22.47,22.47,0,0,1-7.05,13.21c-1.06,1-2.15,1.86-3.23,2.79l-11.88,8.66c-.87.53-1.73,1.08-2.6,1.59-3.91,2.32-6.8,1.58-7.56-2C399.92,223.83,399.86,222.71,399.73,221.65Zm30.12-28.33-.21.15c0-2.51.06-5.05,0-7.5-.11-4-2.43-4.89-6.26-2.19q-7.14,5-14.28,10.41a14.91,14.91,0,0,0-6.25,11.22q-.15,7.74,0,15.25c.07,4,2.44,4.81,6.24,2.12q7.14-5,14.29-10.4a14.91,14.91,0,0,0,6.16-10.47C429.82,198.94,429.76,196.17,429.85,193.32Z" style="fill:#28c1d8;fill-rule:evenodd"/><path d="M416.22,212.31c-4.72,3.44-8.45,2.16-8.45-2.9s3.77-11.75,8.51-15.19,8.4-2.11,8.4,2.9S420.94,208.87,416.22,212.31Zm-5.49-5c0,3.24,2.46,4.08,5.48,1.88s5.51-6.63,5.52-9.86-2.46-4.13-5.52-1.89S410.73,204.06,410.73,207.29Z" style="fill:#28c1d8;fill-rule:evenodd"/><path d="M427,186.07a5.17,5.17,0,0,1-2,3.52c-1.08.78-2,.44-2-.74a5.17,5.17,0,0,1,2.07-3.56C426.18,184.55,427,184.9,427,186.07Z" style="fill:#28c1d8;fill-rule:evenodd"/><line x1="246.6" y1="384.91" x2="261.88" y2="381.27" style="fill:none;stroke:#fff;stroke-linecap:round;stroke-miterlimit:10;stroke-width:3px"/></g></g></svg>