<svg width="19" height="20" viewBox="0 0 19 20" xmlns="http://www.w3.org/2000/svg"><path d="M.813 11.401h3.355v7.728c0 .399.301.721.7.721h3.397c.4 0 .743-.322.743-.721V11.4h5.244a.72.72 0 0 0 .505-.212l3.63-3.58a.719.719 0 0 0 0-1.031l-3.63-3.541a.733.733 0 0 0-.505-.217H9.008V.871c0-.399-.344-.722-.743-.722H4.868c-.399 0-.7.323-.7.722v1.953H.813c-.399 0-.721.344-.721.743v7.104c0 .399.322.73.721.73zm6.752 7.006H5.61v-7.006h1.954v7.006zM5.61 1.593h1.954v1.231H5.61V1.593zM1.535 4.268H13.96l2.891 2.824-2.895 2.866H1.535v-5.69z"/></svg>