<svg width="15" height="15" viewBox="0 0 15 15" xmlns="http://www.w3.org/2000/svg"><path d="M12.658 12.784h-2.233V8.871c0-1.154-.486-1.51-1.112-1.51C8.65 7.36 8 7.864 8 8.9v3.883H5.768V5.62h2.147v.993h.029c.216-.441.97-1.194 2.122-1.194 1.246 0 2.592.746 2.592 2.935v4.43zM3.31 4.622a1.27 1.27 0 0 1-1.287-1.294A1.27 1.27 0 0 1 3.31 2.033a1.27 1.27 0 0 1 1.287 1.295A1.27 1.27 0 0 1 3.31 4.622zM2.194 12.78h2.233V5.615H2.194v7.164zM13.756 0H1.096C.491 0 0 .496 0 1.107v12.786C0 14.504.49 15 1.096 15h12.66c.605 0 1.096-.496 1.096-1.107V1.107c0-.611-.49-1.107-1.096-1.107z" fill-rule="evenodd"/></svg>