<svg width="26" height="26" viewBox="0 0 26 26" xmlns="http://www.w3.org/2000/svg"><path d="M13.074 0C7.564 0 2.86 3.47 1 8.357h1.999A11.156 11.156 0 0 1 5.24 5.121a10.976 10.976 0 0 1 7.833-3.264 10.98 10.98 0 0 1 7.835 3.264A11.103 11.103 0 0 1 24.154 13c0 2.976-1.153 5.775-3.245 7.879a10.975 10.975 0 0 1-7.835 3.264c-2.959 0-5.74-1.16-7.833-3.264a11.153 11.153 0 0 1-2.242-3.236H1C2.858 22.529 7.563 26 13.074 26 20.213 26 26 20.18 26 13c0-7.179-5.787-13-12.926-13z"/><path d="M10.321 16.75L11.657 18 17 13l-5.343-5-1.336 1.25 3.063 2.866H0v1.768h13.384z"/></svg>