<svg width="19" height="15" viewBox="0 0 19 15" xmlns="http://www.w3.org/2000/svg"><path d="M6.069 14.941c7.11 0 11-5.75 11-10.728 0-.162 0-.323-.007-.485a7.77 7.77 0 0 0 1.93-1.956c-.694.302-1.44.5-2.225.596A3.812 3.812 0 0 0 18.471.279a7.81 7.81 0 0 1-2.458.912A3.905 3.905 0 0 0 13.193 0C11.06 0 9.327 1.691 9.327 3.772c0 .294.037.58.098.86a11.073 11.073 0 0 1-7.97-3.94 3.7 3.7 0 0 0-.52 1.896c0 1.31.686 2.463 1.72 3.14a3.987 3.987 0 0 1-1.75-.47v.05c0 1.824 1.334 3.354 3.099 3.7a3.86 3.86 0 0 1-1.018.132c-.249 0-.49-.022-.724-.066.49 1.5 1.923 2.588 3.612 2.617A7.88 7.88 0 0 1 1.07 13.31c-.31 0-.618-.015-.92-.052a11.202 11.202 0 0 0 5.919 1.684" fill="#14171A"/></svg>