<svg width="60" height="57" viewBox="0 0 60 57" xmlns="http://www.w3.org/2000/svg"><path d="M56.856 27.672c-.516 4.251-2.113 10.337-6.729 15.853a29.183 29.183 0 0 1-8.307 6.818c-1.808.987-6.609 3.61-13.079 3.505-3.898-.063-9.794-1.158-15.741-6.014-5.354-4.372-8.68-10.063-9.62-16.46-.446-3.032-.928-10.87 4.208-18.158 2.033-2.885 6.573-7.975 14.13-9.64.295-.065 2.989-.627 6.633-.343 4.673.365 8.793 1.903 12.245 4.572 3.199 2.473 5.495 5.49 6.824 8.967 1.138 2.976 2.429 7.438.505 11.798-1.68 3.807-5.33 6.454-9.526 6.906-1.504.162-5.345.234-8.524-2.587a9.047 9.047 0 0 1-.415-.393l-1.042-1.256a10.074 10.074 0 0 1-.961-1.728c1.717-.156 4.377-1.103 5.586-1.893 1.323-.864 2.885-2.066 3.632-3.53.747-1.465 1.12-3.052 1.12-4.76a15.14 15.14 0 0 0-.63-3.313c-.324-1.027-.9-2.008-1.732-2.943-.831-.934-2.04-1.696-3.629-2.287-1.587-.59-3.604-.885-6.049-.885h-7.907v32.511h2.94v-29.72h5.928a9.95 9.95 0 0 1 3.949.804c1.254.537 2.266 1.332 3.036 2.385.77 1.052 1.155 2.312 1.155 3.778 0 1.413-.356 2.634-1.068 3.664-.711 1.03-1.722 1.81-3.031 2.34-1.31.529-2.845.794-4.604.794H23.69l.026.966c.002.08.007.158.016.236.03.274.097.781.155.986.245 1.083 1.152 4.146 3.926 6.607 4.109 3.646 9.005 3.56 10.919 3.355 5.3-.572 9.917-3.927 12.048-8.758 2.395-5.43.893-10.71-.445-14.21-1.54-4.025-4.177-7.502-7.838-10.333C33.172-1.903 22.265.233 21.05.5 12.468 2.392 7.337 8.137 5.042 11.393-.75 19.61-.21 28.427.29 31.835c1.057 7.19 4.772 13.57 10.744 18.446 6.64 5.42 13.267 6.644 17.657 6.715.145.003.289.004.432.004 7.065 0 12.22-2.816 14.185-3.89a32.338 32.338 0 0 0 9.206-7.555c5.248-6.273 6.968-13.187 7.486-17.883h-3.144" fill="#244262" fill-rule="evenodd"/></svg>