<svg width="255" height="58" viewBox="0 0 255 58" xmlns="http://www.w3.org/2000/svg"><path d="M119.764 27.441c.824-1.594 1.236-3.32 1.236-5.18a16.285 16.285 0 0 0-.696-3.605c-.356-1.118-.993-2.186-1.91-3.203-.916-1.016-2.25-1.846-4.001-2.489-1.752-.643-3.976-.964-6.672-.964H99v33h3.242V15.037h6.538c1.52 0 2.971.293 4.355.877 1.384.583 2.5 1.448 3.35 2.594.848 1.146 1.273 2.517 1.273 4.113 0 1.537-.393 2.867-1.177 3.987-.785 1.12-1.9 1.97-3.344 2.546-1.445.577-3.137.865-5.077.865h-2.718L116.495 45h4.077l-9.17-12.347c1.833 0 3.479-.47 4.938-1.41 1.459-.94 2.6-2.208 3.424-3.802m15.821 3.471l6.42-15.08 6.366 15.08h-12.786zM140.178 12L126 45h3.569l4.765-11.05h15.245L154.43 45H158l-14.167-33h-3.655zm109.958 23.33c-.908 1.716-2.068 3.12-3.479 4.21a14.71 14.71 0 0 1-4.546 2.412c-1.619.516-3.21.786-4.77.807-1.51 0-3.071-.265-4.683-.796-1.612-.531-3.12-1.371-4.524-2.52s-2.545-2.641-3.424-4.477c-.88-1.835-1.344-4.002-1.395-6.502 0-1.576.361-3.16 1.083-4.753s1.74-3.044 3.058-4.352A15.12 15.12 0 0 1 232 16.254a13.236 13.236 0 0 1 5.438-1.143c2.4 0 4.7.59 6.899 1.772 2.198 1.181 3.973 2.856 5.322 5.023 1.35 2.168 2.024 4.621 2.024 7.36-.124 2.326-.64 4.348-1.548 6.064zm2.495-14.768c-1.58-2.659-3.724-4.75-6.433-6.275-2.71-1.525-5.663-2.287-8.857-2.287-2.487 0-4.794.47-6.92 1.41-2.126.938-3.966 2.214-5.52 3.825-1.553 1.611-2.75 3.405-3.588 5.381-.839 1.976-1.277 3.987-1.313 6.032 0 2.55.48 4.888 1.438 7.012.96 2.124 2.262 3.947 3.906 5.468a18.213 18.213 0 0 0 5.52 3.528c2.035.83 4.107 1.279 6.215 1.344 2.18 0 4.33-.396 6.45-1.187a18.905 18.905 0 0 0 5.76-3.409 16.749 16.749 0 0 0 4.113-5.31c1.02-2.06 1.554-4.307 1.598-6.742 0-3.2-.79-6.13-2.369-8.79zM209 45h3V12h-3zm-42.828-7.854V12H163v25.146c0 4.33 3.527 7.854 7.862 7.854H181v-3.17h-10.138a4.692 4.692 0 0 1-4.69-4.684m21 0V12H184v25.146c0 4.33 3.527 7.854 7.862 7.854H202v-3.17h-10.138a4.692 4.692 0 0 1-4.69-4.684M74 58h2V1h-2zM56.856 27.672c-.516 4.251-2.113 10.337-6.729 15.853a29.183 29.183 0 0 1-8.307 6.818c-1.808.987-6.609 3.61-13.079 3.505-3.898-.063-9.794-1.158-15.741-6.014-5.354-4.372-8.68-10.063-9.62-16.46-.446-3.032-.928-10.87 4.208-18.158 2.033-2.885 6.573-7.975 14.13-9.64.295-.065 2.989-.627 6.633-.343 4.673.365 8.793 1.903 12.245 4.572 3.199 2.473 5.495 5.49 6.824 8.967 1.138 2.976 2.429 7.438.505 11.798-1.68 3.807-5.33 6.454-9.526 6.906-1.504.162-5.345.234-8.524-2.587a9.047 9.047 0 0 1-.415-.393l-1.042-1.256a10.074 10.074 0 0 1-.961-1.728c1.717-.156 4.377-1.103 5.586-1.893 1.323-.864 2.885-2.066 3.632-3.53.747-1.465 1.12-3.052 1.12-4.76a15.14 15.14 0 0 0-.63-3.313c-.324-1.027-.9-2.008-1.732-2.943-.831-.934-2.04-1.696-3.629-2.287-1.587-.59-3.604-.885-6.049-.885h-7.907v32.511h2.94v-29.72h5.928a9.95 9.95 0 0 1 3.949.804c1.254.537 2.266 1.332 3.036 2.385.77 1.052 1.155 2.312 1.155 3.778 0 1.413-.356 2.634-1.068 3.664-.711 1.03-1.722 1.81-3.031 2.34-1.31.529-2.845.794-4.604.794H23.69l.026.966c.002.08.007.158.016.236.03.274.097.781.155.986.245 1.083 1.152 4.146 3.926 6.607 4.109 3.646 9.005 3.56 10.919 3.355 5.3-.572 9.917-3.927 12.048-8.758 2.395-5.43.893-10.71-.445-14.21-1.54-4.025-4.177-7.502-7.838-10.333C33.172-1.903 22.265.233 21.05.5 12.468 2.392 7.337 8.137 5.042 11.393-.75 19.61-.21 28.427.29 31.835c1.057 7.19 4.772 13.57 10.744 18.446 6.64 5.42 13.267 6.644 17.657 6.715.145.003.289.004.432.004 7.065 0 12.22-2.816 14.185-3.89a32.338 32.338 0 0 0 9.206-7.555c5.248-6.273 6.968-13.187 7.486-17.883h-3.144" fill="#244262" fill-rule="evenodd"/></svg>