<svg width="138" height="30" viewBox="0 0 138 30" xmlns="http://www.w3.org/2000/svg"><path d="M17.933 13.57C18.644 12.169 19 10.65 19 9.018a14.534 14.534 0 0 0-.6-3.169c-.309-.983-.859-1.92-1.65-2.814-.792-.894-1.944-1.623-3.456-2.188C11.78.282 9.86 0 7.532 0H0v29h2.8V2.67h5.646c1.313 0 2.566.256 3.762.77 1.195.512 2.159 1.272 2.892 2.28.733 1.006 1.1 2.211 1.1 3.613 0 1.352-.339 2.52-1.017 3.504-.677.985-1.64 1.73-2.888 2.238-1.247.506-2.709.76-4.385.76H5.563L15.11 29h3.521l-7.92-10.85c1.584 0 3.005-.413 4.265-1.24 1.26-.826 2.246-1.94 2.958-3.34m14.453 3.05l5.617-13.252 5.57 13.251H32.388zM36.406 0L24 29h3.123l4.17-9.711H44.63L48.877 29H52L39.604 0h-3.198zm97.286 20.899c-.804 1.464-1.832 2.66-3.081 3.591a13.204 13.204 0 0 1-4.027 2.057c-1.434.44-2.843.67-4.225.689-1.337 0-2.72-.227-4.147-.68-1.429-.453-2.763-1.169-4.008-2.149-1.243-.98-2.254-2.252-3.032-3.818-.78-1.565-1.191-3.414-1.236-5.547 0-1.343.32-2.694.96-4.053.639-1.36 1.541-2.596 2.708-3.712a13.424 13.424 0 0 1 4.026-2.649 12.108 12.108 0 0 1 4.816-.975c2.126 0 4.162.504 6.11 1.512a12.196 12.196 0 0 1 4.714 4.285c1.196 1.848 1.793 3.94 1.793 6.277-.11 1.984-.566 3.708-1.371 5.172zm2.21-12.596c-1.4-2.268-3.299-4.052-5.698-5.352-2.4-1.3-5.016-1.951-7.845-1.951-2.203 0-4.246.4-6.129 1.202-1.883.801-3.513 1.889-4.889 3.263-1.376 1.375-2.435 2.904-3.178 4.59-.743 1.686-1.131 3.4-1.163 5.145 0 2.175.425 4.169 1.274 5.98a14.31 14.31 0 0 0 3.46 4.665 16.221 16.221 0 0 0 4.889 3.009A16.262 16.262 0 0 0 122.127 30a16.77 16.77 0 0 0 5.712-1.012 16.894 16.894 0 0 0 5.103-2.908 14.37 14.37 0 0 0 3.643-4.53c.904-1.756 1.376-3.673 1.415-5.75 0-2.73-.7-5.229-2.098-7.497zM97 29h3V0h-3zm-37.18-6.902V0H57v22.098C57 25.904 60.135 29 63.989 29H73v-2.785h-9.011c-2.3 0-4.17-1.847-4.17-4.117m18.001 0V0H75v22.098C75 25.904 78.135 29 81.989 29H91v-2.785h-9.011c-2.3 0-4.17-1.847-4.17-4.117" fill-rule="evenodd"/></svg>