<svg id="Agency" xmlns="http://www.w3.org/2000/svg" viewBox="0 0 634.02 462.37"><defs><style>.cls-1{fill:#ebe7f3;}.cls-2{fill:#1f407b;opacity:0.5;}.cls-3{fill:#28c1d8;opacity:0.3;}.cls-4{fill:none;stroke:#336;stroke-linecap:round;stroke-miterlimit:10;stroke-width:2px;}</style></defs><title>02_Agency404</title><path class="cls-1" d="M89.54,188.35S-51,244.92,31.27,423.17c25.84,56,104.93,121.58,215.29,94.08,146.46-36.51,158.71-12,320.86-47.93,103-22.81,72.73-185.59,47.48-214.5-60.34-69-19.35-101.94-84.57-150.75-36.88-27.6-125.36-51-189.14-39.88-127.23,22.21-96.6,33.72-173.27,78C137.65,159.66,116.87,175.85,89.54,188.35Z" transform="translate(-5.44 -61.36)"/><path class="cls-2" d="M392.65,107.65c-.18-.4-3.14-13-.64-13.14s5,2.19,5.54-.78,10-18.26,20.92-18.6,16.15-2.6,13.31,5.21-2.47,20.6-.44,24.13,4.12,11,2.53,13.44-12.06,15.3-15.4,16.23-2.16.81-2.16.81v-5.3s12.06-7.49,13.76-9.87,3.42-8.42-2-15.31c0,0-3.86-10.26-3.78-10.74s-6.15-11.12-7.51-6.36c0,0,2,4.9-.5,6.36s-21.48,0-21.48,4.18a84.67,84.67,0,0,0,1.25,11.22s4.39,8,5.36,10.65,3.81,7.88,6.42,8.47l-2.41,2.27s-6.3-3.14-5.91-6.09S392.65,107.65,392.65,107.65Z" transform="translate(-5.44 -61.36)"/><polygon class="cls-2" points="393.32 180.09 464.85 198.56 459.88 274.41 434.38 275.3 420.74 233.03 424.72 274.93 400.71 275.3 393.32 180.09"/><path class="cls-2" d="M465.32,335.77s-3.73,64.09-3.7,69.85,1,55.72,1,55.72H451.89L439.82,336.65Z" transform="translate(-5.44 -61.36)"/><polygon class="cls-2" points="424.72 274.93 426.46 399.98 411.08 399 400.71 275.3 424.72 274.93"/><path class="cls-2" d="M416.52,460.36,428.89,463s.28,7.12-3.77,10.13-28.34,7.69-24,5.1S416.52,460.36,416.52,460.36Z" transform="translate(-5.44 -61.36)"/><path class="cls-2" d="M448.16,461.34l11.78.24s3.48,17.59-5.89,19.1-12.26-1-9-4.89S448.16,461.34,448.16,461.34Z" transform="translate(-5.44 -61.36)"/><path class="cls-3" d="M392.56,162.78s8.55-15.43,13.59-15l2.42,3-2.25,2.08s26.12,55.72,32.05,61.09l-30.71-9Z" transform="translate(-5.44 -61.36)"/><path class="cls-3" d="M394.29,213.93l60.53,11.36,15.25,7,.22,27.14L407.83,243l8.49-12.5L406,222.68S396.3,218.86,394.29,213.93Z" transform="translate(-5.44 -61.36)"/><path class="cls-3" d="M420.3,152.73s25.58-22.29,22.89-17.78,26.05,2.16,26.88,8.84-18-1.67-26.88,48.8Z" transform="translate(-5.44 -61.36)"/><path class="cls-3" d="M446.5,216.15s18.69-45.38,22-52.68,7.36-13.32,6.52-5.17-7.23,62.06-7.23,62.06Z" transform="translate(-5.44 -61.36)"/><path class="cls-4" d="M416.31,135s2,.72,10.62-8.31c10.27-10.81,8.73-13,6-17.77s-4.21-18.67-1.8-25.74,6-11-16.57-8.28-19.27,16.56-19.27,16.56-12-5.72-5.42,9.93,9.34,18.67,9.64,22.89S405,131,405,131" transform="translate(-5.44 -61.36)"/><path class="cls-4" d="M401.33,117.91s1.21,8.73,4.82,9.63" transform="translate(-5.44 -61.36)"/><path class="cls-4" d="M425.8,122.72s-12.42-5.34-16.94,4.82" transform="translate(-5.44 -61.36)"/><path class="cls-4" d="M425.8,100.67s-3.62-2.49-12.54,4.51l-6,2.47s-9.23-1.92-11.06.92c0,0-3.32-11.44,0-13.25s29.51,4.82,20.17-8.13c0,0,2.71-7.53,9.64,10.69,0,0,1.5,6.78,4.21,10.69s2.11,11.14-3.91,15.36a46,46,0,0,1-10.54,5.72" transform="translate(-5.44 -61.36)"/><path class="cls-4" d="M425.8,102.93s2.26,5.87-4.29,8.35-8.25-2.48-8.25-2.48" transform="translate(-5.44 -61.36)"/><path class="cls-4" d="M408.86,110.6s1.82,5.84-5.12,5.88-6.17-5.88-6.17-5.88" transform="translate(-5.44 -61.36)"/><path class="cls-4" d="M411.52,116.48s-.85,9.63,6.83,1.43" transform="translate(-5.44 -61.36)"/><line class="cls-4" x1="398.3" y1="43.11" x2="393.71" y2="44.28"/><line class="cls-4" x1="415.63" y1="39.35" x2="410.42" y2="39.35"/><path class="cls-4" d="M431.78,121.56S435.51,134,436.42,135" transform="translate(-5.44 -61.36)"/><path class="cls-4" d="M420.3,152.73s13.77-13.22,14.83-15,8.51-9.26,6,0-20.09,16.71-20.09,16.71" transform="translate(-5.44 -61.36)"/><path class="cls-4" d="M443.19,135s34.33-5.15,32.52,16.08-7.9,69.33-7.9,69.33" transform="translate(-5.44 -61.36)"/><path class="cls-4" d="M438.37,213.93c-3-3.19-6.3-8.28-10.31-15.7-10.39-19.2-21.91-45.17-21.91-45.17l9.71-9.27s21.69,44.5,28.46,51.28" transform="translate(-5.44 -61.36)"/><path class="cls-4" d="M470.07,167.29S461.94,212,452.9,216.52" transform="translate(-5.44 -61.36)"/><path class="cls-4" d="M466.45,141.77s-16,6.55-23.26,50.82" transform="translate(-5.44 -61.36)"/><path class="cls-4" d="M414.92,144.69s4.81-18.92-3.4-17.15-8.21,7.41-8.21,7.41,1.94.63,2.84,0,3.94-1.67,3.67,1.11-7.2,8.56-1.25,14.7" transform="translate(-5.44 -61.36)"/><path class="cls-4" d="M405,141.77s-23.79,5.95-21.68,22.81,7.38,50.74,15.88,55.78,55.67,8.36,55.67,8.36l2.52-10.45s-41.85-7.62-49.68-13.34c0,0-9-46.67-12.92-48.78" transform="translate(-5.44 -61.36)"/><path class="cls-4" d="M458.25,218.27s18.67,4.58,22.28,2.09,13.55,3.24,11.14,6.25-12.57,7.23-16.52,5.12S455.24,227,455.24,227" transform="translate(-5.44 -61.36)"/><path class="cls-4" d="M486,220.36s21-6.7,24-11.21,9.34,33.72,9.34,33.72L475.78,245V233.54" transform="translate(-5.44 -61.36)"/><path class="cls-4" d="M401.14,335.77c2.21,46.55,5.79,98.52,10.89,125.57H431.9s-2.26-106.28,0-119.31" transform="translate(-5.44 -61.36)"/><path class="cls-4" d="M406.15,222.72s-6.77,14.13-7.67,19.55c-.43,2.56.73,49.72,2.66,93.5" transform="translate(-5.44 -61.36)"/><path class="cls-4" d="M465.32,335.77c2.14-30.93,5-76.33,5-76.33S409.43,242.83,398.76,241" transform="translate(-5.44 -61.36)"/><path class="cls-4" d="M430.16,336.28c4.72,49.24,11.41,115.82,13.93,125.06h18.52s-2.25-75.43,0-93.5c.69-5.51,1.68-17.73,2.71-32.07" transform="translate(-5.44 -61.36)"/><path class="cls-4" d="M425.12,282.47s2.67,28.82,5,53.81" transform="translate(-5.44 -61.36)"/><path class="cls-4" d="M470.07,232.3s.5,19.84.22,25.78" transform="translate(-5.44 -61.36)"/><path class="cls-4" d="M448.16,461.34s-14.91,19.87-9.49,22.13,24.4,2.71,22.14-22.13" transform="translate(-5.44 -61.36)"/><path class="cls-4" d="M415.13,461.34S392.6,476.7,395.31,479s36.14,3.17,33.43-17.61" transform="translate(-5.44 -61.36)"/><path class="cls-4" d="M484,275.79" transform="translate(-5.44 -61.36)"/></svg>