<svg xmlns="http://www.w3.org/2000/svg" width="1280" height="640" viewBox="0 0 1280 640"><path d="M218.5 230.2c0 1.7-.3 3.6-.9 5.6-.6 2-1.6 3.8-3.1 5.5s-3.4 3.1-5.9 4.3c-2.5 1.1-5.6 1.7-9.3 1.7h-20.9v-59.9h20.9c3.5 0 6.3.6 8.6 1.7s4 2.5 5.4 4.1c1.3 1.7 2.2 3.4 2.7 5.3s.7 3.5.7 5c0 2.9-.7 5.5-2.2 7.8-1.5 2.3-3.5 3.8-6 4.7 3.1 1.2 5.5 3 7.3 5.4 1.8 2.4 2.7 5.3 2.7 8.8zm-8.9-26.8c0-6.5-4.3-9.7-12.9-9.7h-11v19.4h11c8.6 0 12.9-3.2 12.9-9.7zm1.7 26.8c0-1.1-.2-2.3-.5-3.6-.4-1.3-1-2.4-2-3.4s-2.3-1.9-4-2.6c-1.7-.7-3.8-1-6.4-1h-12.7v21.3h12.7c2.6 0 4.7-.3 6.4-1 1.7-.7 3-1.6 4-2.6s1.6-2.2 2-3.4c.3-1.4.5-2.6.5-3.7zm22.7 17.1v-59.9h22.8c1 0 2.1.2 3.4.5 1.3.3 2.6.8 4 1.4 1.3.6 2.6 1.4 3.7 2.3 1.2.9 2.1 1.8 2.8 2.8 1 1.4 1.9 3.1 2.8 5 .9 2 1.4 4.5 1.4 7.6 0 2.2-.3 4.3-1 6.3s-1.5 3.5-2.4 4.5c-.7.8-1.5 1.6-2.5 2.4-1 .8-2.1 1.6-3.3 2.3-1.2.7-2.5 1.3-3.9 1.7-1.4.5-2.8.7-4.3.7-.3 0-.5.1-.5.3 0 .1 0 .2.1.3l16.5 21.9H266l-20.3-27.1c1.1.1 2.3.1 3.3.1h2.7c.9 0 1.6 0 2.1-.1s1.2-.2 1.9-.3c.7-.1 1.5-.3 2.3-.5.8-.2 1.5-.4 2.2-.7.7-.3 1.2-.6 1.6-.9.7-.5 1.4-1 2.2-1.7.8-.7 1.5-1.4 2.2-2.3.7-.9 1.3-1.9 1.7-3.1.5-1.2.7-2.6.7-4.1 0-2.3-.5-4.3-1.4-6-1-1.7-2-3-3-4-.4-.4-1-.8-1.7-1.3-.7-.4-1.5-.8-2.3-1.2s-1.6-.7-2.4-.9c-.8-.2-1.5-.4-2.1-.4h-15.1v54.5H234zm80-60l25.5 59.9h-6.9l-8.6-20.1h-27.4l-8.4 20.1H280l26.9-59.9h7.1zm-15.1 34.4h22.9l-11.3-26.9-11.6 26.9zm56.8-18.3v43.8h-7.2v-61.9l41.8 45.8v-43.8h7.2v61.9l-41.8-45.8zm109.1 13.9c0 4.3-.8 8.2-2.3 11.9-1.6 3.7-3.7 6.8-6.4 9.5s-5.9 4.8-9.6 6.3c-3.7 1.5-7.7 2.3-11.9 2.3h-19.2v-59.9h19.2c4.3 0 8.2.8 11.9 2.3 3.7 1.5 6.9 3.6 9.6 6.3 2.7 2.7 4.8 5.8 6.4 9.5 1.6 3.6 2.3 7.5 2.3 11.8zm-7.2 0c0-3.3-.6-6.4-1.9-9.3-1.3-2.9-3-5.4-5.2-7.5-2.2-2.1-4.7-3.8-7.6-5-2.9-1.2-6-1.8-9.3-1.8h-11v47.2h11c3.3 0 6.4-.6 9.3-1.8 2.9-1.2 5.5-2.9 7.6-5 2.2-2.1 3.9-4.6 5.2-7.5 1.3-2.8 1.9-5.9 1.9-9.3z" fill="#28C1D8"/><path d="M505.6 187l-.2 3.6c.9-1.4 2-2.5 3.2-3.2 1.2-.7 2.7-1.1 4.3-1.1 3.1 0 5.6 1.4 7.3 4.3 1-1.4 2.1-2.5 3.3-3.2 1.2-.7 2.6-1.1 4.1-1.1 2 0 3.6.5 4.9 1.4 1.3 1 2.1 2.1 2.5 3.5.4 1.4.5 3.7.5 6.8v27.2h-11.3v-24.9c0-3.3-.1-5.3-.3-6.1-.2-.8-.7-1.2-1.5-1.2s-1.4.4-1.6 1.2c-.2.8-.4 2.8-.4 6.1v24.9h-11.3V201c0-3.7-.1-6-.3-6.7s-.7-1.1-1.5-1.1c-.5 0-1 .2-1.3.6-.4.4-.6.9-.6 1.4 0 .6-.1 1.8-.1 3.6v26.5H494V187h11.6zm60.3 19.8h-15.1v8.3c0 1.7.1 2.8.4 3.3.2.5.7.7 1.4.7.9 0 1.5-.3 1.8-1 .3-.7.4-1.9.4-3.8v-5h11v2.8c0 2.4-.1 4.2-.4 5.4s-1 2.6-2.1 4.1-2.5 2.5-4.2 3.2c-1.7.7-3.8 1.1-6.3 1.1s-4.6-.4-6.5-1.1c-1.9-.7-3.3-1.7-4.4-2.9-1-1.2-1.8-2.6-2.2-4.1-.4-1.5-.6-3.7-.6-6.5v-11.1c0-3.3.5-6 1.4-7.9.9-1.9 2.4-3.4 4.4-4.4 2.1-1 4.4-1.5 7.1-1.5 3.3 0 6 .6 8.1 1.9 2.1 1.2 3.6 2.9 4.5 4.9.9 2 1.3 4.9 1.3 8.6v5zm-11.6-6.2v-2.8c0-2-.1-3.3-.3-3.8-.2-.6-.6-.9-1.3-.9-.8 0-1.3.2-1.5.7-.2.5-.3 1.8-.3 4v2.8h3.4zm39.2-1.4h-10.3v-2.1c0-1.8-.1-2.9-.3-3.4-.2-.5-.7-.7-1.5-.7-.7 0-1.1.2-1.5.6-.3.4-.5 1.1-.5 1.9 0 1.2.1 2 .2 2.6.2.5.7 1.1 1.5 1.8s2.5 1.6 5 2.9c3.4 1.7 5.6 3.2 6.7 4.7 1.1 1.5 1.6 3.6 1.6 6.4 0 3.1-.4 5.5-1.2 7-.8 1.6-2.2 2.8-4 3.7-1.9.9-4.2 1.3-6.8 1.3-3 0-5.5-.5-7.6-1.4-2.1-.9-3.5-2.2-4.3-3.7-.8-1.6-1.2-4-1.2-7.1v-1.8h10.3v2.4c0 2.1.1 3.4.4 4 .3.6.8.9 1.5.9.8 0 1.4-.2 1.7-.6.3-.4.5-1.3.5-2.6 0-1.8-.2-3-.6-3.4-.4-.5-2.7-1.8-6.8-4.1-3.4-1.9-5.5-3.7-6.3-5.2s-1.1-3.4-1.1-5.6c0-3.1.4-5.3 1.2-6.8s2.2-2.6 4.1-3.4c1.9-.8 4.2-1.2 6.7-1.2s4.7.3 6.5 1c1.8.6 3.1 1.5 4.1 2.5 1 1.1 1.5 2 1.7 2.9.2.9.3 2.3.3 4.2v2.3zm27.8 0H611v-2.1c0-1.8-.1-2.9-.3-3.4-.2-.5-.7-.7-1.5-.7-.7 0-1.1.2-1.5.6-.3.4-.5 1.1-.5 1.9 0 1.2.1 2 .2 2.6.2.5.7 1.1 1.5 1.8s2.5 1.6 5 2.9c3.4 1.7 5.6 3.2 6.7 4.7 1.1 1.5 1.6 3.6 1.6 6.4 0 3.1-.4 5.5-1.2 7-.8 1.6-2.2 2.8-4 3.7-1.9.9-4.2 1.3-6.8 1.3-3 0-5.5-.5-7.6-1.4-2.1-.9-3.5-2.2-4.3-3.7-.8-1.6-1.2-4-1.2-7.1v-1.8h10.3v2.4c0 2.1.1 3.4.4 4 .3.6.8.9 1.5.9.8 0 1.4-.2 1.7-.6.3-.4.5-1.3.5-2.6 0-1.8-.2-3-.6-3.4-.4-.5-2.7-1.8-6.8-4.1-3.4-1.9-5.5-3.7-6.3-5.2s-1.1-3.4-1.1-5.6c0-3.1.4-5.3 1.2-6.8s2.2-2.6 4.1-3.4c1.9-.8 4.2-1.2 6.7-1.2s4.7.3 6.5 1c1.8.6 3.1 1.5 4.1 2.5 1 1.1 1.5 2 1.7 2.9.2.9.3 2.3.3 4.2v2.3zm14.4 2.6h-10.9v-2.6c0-3 .3-5.2 1-6.8s2.1-3 4.1-4.2c2.1-1.2 4.7-1.8 8-1.8 3.9 0 6.9.7 8.9 2.1 2 1.4 3.2 3.1 3.6 5.1.4 2 .6 6.2.6 12.5v19.2h-11.3v-3.4c-.7 1.4-1.6 2.4-2.8 3.1-1.1.7-2.5 1-4 1-2 0-3.9-.6-5.6-1.7-1.7-1.1-2.5-3.6-2.5-7.5v-3.1c0-2.9.5-4.8 1.4-5.8.9-1 3.1-2.2 6.7-3.6 3.8-1.5 5.9-2.5 6.1-3 .3-.5.4-1.6.4-3.2 0-2-.1-3.3-.4-3.9-.3-.6-.8-.9-1.5-.9-.8 0-1.3.3-1.5.8-.2.5-.3 1.8-.3 4v3.7zm3.7 5.3c-1.9 1.4-2.9 2.5-3.2 3.4-.3.9-.4 2.2-.4 4 0 2 .1 3.3.4 3.8.3.6.8.9 1.5.9s1.2-.2 1.4-.7c.2-.5.3-1.6.3-3.6v-7.8zm42.1-20.1v29.4c0 4-.1 6.5-.3 7.7-.2 1.2-.8 2.4-1.9 3.7-1.1 1.3-2.7 2.3-4.7 3-2 .7-4.5 1-7.5 1-3.7 0-6.7-.6-8.9-1.9-2.2-1.3-3.4-3.7-3.5-7.4H666c0 1.7.6 2.5 1.8 2.5.9 0 1.5-.3 1.8-.8.3-.5.4-1.6.4-3.3V218c-1 .9-2 1.6-3.2 2.1-1.1.5-2.3.7-3.5.7-2.1 0-3.8-.4-5.2-1.3-1.4-.8-2.3-2-2.8-3.3-.5-1.4-.7-3.3-.7-5.9v-13.9c0-3.6.7-6.2 2-7.8 1.3-1.6 3.3-2.4 6-2.4 1.5 0 2.8.3 4 .9s2.3 1.5 3.2 2.7l.8-2.9h10.9zm-11.7 10.2c0-1.7-.1-2.9-.3-3.3-.2-.5-.6-.7-1.3-.7-.7 0-1.1.3-1.4.8-.3.5-.4 1.6-.4 3.2V210c0 1.7.1 2.8.3 3.3.2.5.7.8 1.3.8.8 0 1.3-.3 1.5-.9.2-.6.3-2 .3-4.2v-11.8zm42.2 9.6h-15.1v8.3c0 1.7.1 2.8.4 3.3.2.5.7.7 1.4.7.9 0 1.5-.3 1.8-1 .3-.7.4-1.9.4-3.8v-5h11v2.8c0 2.4-.1 4.2-.4 5.4s-1 2.6-2.1 4.1c-1.1 1.4-2.5 2.5-4.2 3.2-1.7.7-3.8 1.1-6.3 1.1s-4.6-.4-6.5-1.1c-1.9-.7-3.3-1.7-4.4-2.9-1-1.2-1.8-2.6-2.2-4.1-.4-1.5-.6-3.7-.6-6.5v-11.1c0-3.3.5-6 1.4-7.9.9-1.9 2.4-3.4 4.4-4.4 2.1-1 4.4-1.5 7.1-1.5 3.3 0 6 .6 8.1 1.9 2.1 1.2 3.6 2.9 4.5 4.9.9 2 1.3 4.9 1.3 8.6v5zm-11.7-6.2v-2.8c0-2-.1-3.3-.3-3.8s-.6-.9-1.3-.9c-.8 0-1.3.2-1.5.7-.2.5-.3 1.8-.3 4v2.8h3.4zm39.2-1.4h-10.3v-2.1c0-1.8-.1-2.9-.3-3.4-.2-.5-.7-.7-1.5-.7-.7 0-1.1.2-1.5.6-.3.4-.5 1.1-.5 1.9 0 1.2.1 2 .2 2.6.2.5.7 1.1 1.5 1.8s2.5 1.6 5 2.9c3.4 1.7 5.6 3.2 6.7 4.7 1.1 1.5 1.6 3.6 1.6 6.4 0 3.1-.4 5.5-1.2 7-.8 1.6-2.2 2.8-4 3.7-1.9.9-4.2 1.3-6.8 1.3-3 0-5.5-.5-7.6-1.4-2.1-.9-3.5-2.2-4.3-3.7-.8-1.6-1.2-4-1.2-7.1v-1.8h10.3v2.4c0 2.1.1 3.4.4 4 .3.6.8.9 1.5.9.8 0 1.4-.2 1.7-.6.3-.4.5-1.3.5-2.6 0-1.8-.2-3-.6-3.4-.4-.5-2.7-1.8-6.8-4.1-3.4-1.9-5.5-3.7-6.3-5.2s-1.1-3.4-1.1-5.6c0-3.1.4-5.3 1.2-6.8s2.2-2.6 4.1-3.4c1.9-.8 4.2-1.2 6.7-1.2s4.7.3 6.5 1c1.8.6 3.1 1.5 4.1 2.5.9 1.1 1.5 2 1.7 2.9.2.9.3 2.3.3 4.2v2.3zm26.1-12.2l-.5 5c1.7-3.6 4.1-5.5 7.3-5.7v13.5c-2.1 0-3.7.3-4.7.9-1 .6-1.6 1.4-1.8 2.4-.2 1-.3 3.4-.3 7.1v15.1H754V187h11.6zm35.8 19.8h-15.1v8.3c0 1.7.1 2.8.4 3.3.2.5.7.7 1.4.7.9 0 1.5-.3 1.8-1 .3-.7.4-1.9.4-3.8v-5h11v2.8c0 2.4-.1 4.2-.4 5.4s-1 2.6-2.1 4.1c-1.1 1.4-2.5 2.5-4.2 3.2-1.7.7-3.8 1.1-6.3 1.1s-4.6-.4-6.5-1.1c-1.9-.7-3.3-1.7-4.4-2.9-1-1.2-1.8-2.6-2.2-4.1-.4-1.5-.6-3.7-.6-6.5v-11.1c0-3.3.5-6 1.4-7.9.9-1.9 2.4-3.4 4.4-4.4 2.1-1 4.4-1.5 7.1-1.5 3.3 0 6 .6 8.1 1.9 2.1 1.2 3.6 2.9 4.5 4.9.9 2 1.3 4.9 1.3 8.6v5zm-11.6-6.2v-2.8c0-2-.1-3.3-.3-3.8-.2-.6-.6-.9-1.3-.9-.8 0-1.3.2-1.5.7-.2.5-.3 1.8-.3 4v2.8h3.4zm25.8 1.2h-10.9v-2.6c0-3 .3-5.2 1-6.8s2-3 4.1-4.2c2.1-1.2 4.7-1.8 8-1.8 3.9 0 6.9.7 8.9 2.1 2 1.4 3.2 3.1 3.6 5.1.4 2 .6 6.2.6 12.5v19.2h-11.3v-3.4c-.7 1.4-1.6 2.4-2.8 3.1-1.1.7-2.5 1-4 1-2 0-3.9-.6-5.6-1.7-1.7-1.1-2.5-3.6-2.5-7.5v-3.1c0-2.9.5-4.8 1.4-5.8.9-1 3.1-2.2 6.7-3.6 3.8-1.5 5.9-2.5 6.1-3 .3-.5.4-1.6.4-3.2 0-2-.1-3.3-.4-3.9-.3-.6-.8-.9-1.5-.9-.8 0-1.3.3-1.5.8-.2.5-.3 1.8-.3 4v3.7zm3.7 5.3c-1.9 1.4-2.9 2.5-3.2 3.4-.3.9-.4 2.2-.4 4 0 2 .1 3.3.4 3.8.3.6.8.9 1.5.9s1.2-.2 1.4-.7c.2-.5.3-1.6.3-3.6v-7.8zm41.4-5.7h-11V197c0-1.5-.1-2.6-.4-3.1-.2-.5-.7-.8-1.4-.8s-1.1.2-1.4.7c-.2.5-.3 1.6-.3 3.2v18c0 1.4.2 2.4.5 3.1.3.7.9 1 1.5 1 .8 0 1.3-.4 1.6-1.1.3-.7.4-2.1.4-4v-4.6h10.4c0 3.1-.1 5.3-.3 6.9-.2 1.5-.8 3.1-1.9 4.7-1.1 1.6-2.5 2.8-4.3 3.6-1.7.8-3.9 1.2-6.5 1.2-3.3 0-5.9-.6-7.8-1.7-1.9-1.1-3.3-2.7-4.1-4.7-.8-2-1.2-4.9-1.2-8.6V200c0-3.2.3-5.7 1-7.3.7-1.7 2-3.1 4.2-4.4 2.1-1.3 4.7-1.9 7.8-1.9 3 0 5.6.6 7.8 1.9 2.2 1.3 3.6 2.9 4.3 4.9.7 1.9 1.1 4.7 1.1 8.2zm15.1-22.8v10.5c1-.9 2.1-1.6 3.2-2.1 1.2-.5 2.4-.7 3.7-.7 2 0 3.8.5 5.2 1.6 1.4 1 2.3 2.2 2.6 3.6.3 1.4.5 3.8.5 7.4v26.4h-11.6v-26.9c0-2.2-.1-3.7-.3-4.3-.2-.6-.7-1-1.5-1-.7 0-1.2.3-1.4 1-.3.7-.4 1.9-.4 3.9v27.3h-11.6v-46.6h11.6z" fill="#4CBEA0"/><path d="M287.5 289.5v2c-.8-.3-1.4-.5-1.9-.5-.4 0-.7.1-1 .2s-.4.3-.5.6-.1.8-.1 1.7v2.2h3.3v1.8H284v14.2h-2.1v-14.2h-2.1v-1.8h2.1v-2.5c0-1.1.1-2 .3-2.4s.6-.9 1.1-1.2 1.1-.4 1.8-.4c.6-.2 1.4 0 2.4.3zm2.6 6.1h2.1v7.4c0 1.8.1 3.1.3 3.8.3 1 .9 1.7 1.7 2.3.8.6 1.8.8 3 .8 1.1 0 2.1-.3 2.9-.8.8-.6 1.3-1.3 1.7-2.2.2-.6.3-1.9.3-3.9v-7.4h2.1v7.8c0 2.2-.3 3.9-.8 5s-1.3 2-2.3 2.6-2.3.9-3.9.9-2.8-.3-3.9-.9-1.8-1.5-2.3-2.6-.8-2.8-.8-5.1v-7.7zm17.7 0h2.1v2.3c.6-.9 1.3-1.6 2-2.1s1.4-.7 2.2-.7c.6 0 1.2.2 1.8.5l-1.1 1.7c-.4-.2-.8-.3-1.1-.3-.7 0-1.3.3-2 .8s-1.1 1.4-1.5 2.6c-.3.9-.4 2.7-.4 5.5v5.4h-2.1v-15.7zm11.6-5.9h2.1v5.9h3.3v1.8h-3.3v14.2h-2.1v-14.2h-2.8v-1.8h2.8v-5.9zm8.3-.2h2.1v9c.8-1.1 1.7-1.9 2.7-2.5s2.1-.8 3.2-.8c1.2 0 2.2.3 3.2.9s1.6 1.4 2 2.4.7 2.6.7 4.8v8.2h-2.1v-7.6c0-1.8-.1-3.1-.2-3.7-.3-1.1-.7-1.8-1.4-2.4s-1.5-.8-2.6-.8c-1.2 0-2.4.4-3.3 1.2s-1.6 1.8-1.9 3c-.2.8-.3 2.2-.3 4.3v5.8h-2.1v-21.8zm31.8 16.8l1.7.9c-.6 1.1-1.2 2-2 2.7-.7.7-1.6 1.2-2.5 1.6-.9.4-2 .5-3.2.5-2.6 0-4.6-.9-6.1-2.6s-2.2-3.6-2.2-5.8c0-2 .6-3.8 1.9-5.4 1.6-2 3.7-3 6.3-3 2.7 0 4.9 1 6.5 3.1 1.2 1.5 1.7 3.3 1.8 5.4h-14.3c0 1.9.6 3.4 1.8 4.6 1.1 1.2 2.6 1.8 4.2 1.8.8 0 1.6-.1 2.4-.4.8-.3 1.4-.7 2-1.1.4-.5 1-1.3 1.7-2.3zm0-4.3c-.3-1.1-.7-2-1.2-2.6-.5-.7-1.2-1.2-2.1-1.6-.9-.4-1.8-.6-2.7-.6-1.6 0-2.9.5-4 1.5-.8.7-1.4 1.8-1.9 3.3h11.9zm5.3-6.4h2.1v2.3c.6-.9 1.3-1.6 2-2.1s1.4-.7 2.2-.7c.6 0 1.2.2 1.8.5l-1.1 1.7c-.4-.2-.8-.3-1.1-.3-.7 0-1.3.3-2 .8s-1.1 1.4-1.5 2.6c-.3.9-.4 2.7-.4 5.5v5.4h-2.1v-15.7zm15.9 0h2.1l4.9 11.6 5.1-11.6h.4l5.1 11.6 5-11.6h2.1l-6.9 15.9h-.4l-5.1-11.4-5.1 11.4h-.4l-6.8-15.9zm27.1-6.1h2.1v9c.8-1.1 1.7-1.9 2.7-2.5s2.1-.8 3.2-.8c1.2 0 2.2.3 3.2.9s1.6 1.4 2 2.4.7 2.6.7 4.8v8.2h-2.1v-7.6c0-1.8-.1-3.1-.2-3.7-.3-1.1-.7-1.8-1.4-2.4s-1.5-.8-2.6-.8c-1.2 0-2.4.4-3.3 1.2s-1.6 1.8-1.9 3c-.2.8-.3 2.2-.3 4.3v5.8h-2.1v-21.8zm31.7 16.8l1.7.9c-.6 1.1-1.2 2-2 2.7-.7.7-1.6 1.2-2.5 1.6-.9.4-2 .5-3.2.5-2.6 0-4.6-.9-6.1-2.6s-2.2-3.6-2.2-5.8c0-2 .6-3.8 1.9-5.4 1.6-2 3.7-3 6.3-3 2.7 0 4.9 1 6.5 3.1 1.2 1.5 1.7 3.3 1.8 5.4h-14.3c0 1.9.6 3.4 1.8 4.6 1.1 1.2 2.6 1.8 4.2 1.8.8 0 1.6-.1 2.4-.4.8-.3 1.4-.7 2-1.1.5-.5 1.1-1.3 1.7-2.3zm0-4.3c-.3-1.1-.7-2-1.2-2.6-.5-.7-1.2-1.2-2.1-1.6-.9-.4-1.8-.6-2.7-.6-1.6 0-2.9.5-4 1.5-.8.7-1.4 1.8-1.9 3.3h11.9zm6.1-6.4h2.1v2.9c.8-1.1 1.7-1.9 2.7-2.5s2.1-.8 3.3-.8c1.2 0 2.2.3 3.2.9s1.6 1.4 2 2.4.7 2.6.7 4.8v8.2h-2.1v-7.6c0-1.8-.1-3.1-.2-3.7-.2-1.1-.7-1.8-1.4-2.4s-1.6-.8-2.6-.8c-1.2 0-2.4.4-3.3 1.2s-1.6 1.8-1.9 3c-.2.8-.3 2.2-.3 4.3v5.8h-2.1v-15.7z" fill="#fff"/><path d="M553.3 317.3h-24.5v-4.9c0-4.2-.2-6.8-.7-8-.5-1.1-1.7-1.7-3.6-1.7-1.5 0-2.7.5-3.5 1.5-.8 1-1.2 2.6-1.2 4.6 0 2.8.2 4.8.6 6.1.4 1.3 1.5 2.7 3.5 4.3 1.9 1.5 5.9 3.8 11.9 6.8 8 3.9 13.3 7.6 15.8 11.1s3.8 8.5 3.8 15.1c0 7.4-1 13-2.9 16.7s-5.1 6.7-9.6 8.7c-4.5 2-9.9 3-16.2 3-7 0-13-1.1-18-3.3s-8.4-5.1-10.3-8.9c-1.9-3.7-2.8-9.4-2.8-17V347h24.5v5.7c0 4.9.3 8 .9 9.5.6 1.5 1.8 2.2 3.7 2.2 2 0 3.3-.5 4.1-1.5.8-1 1.2-3 1.2-6.2 0-4.3-.5-7-1.5-8.1-1-1.1-6.4-4.3-16.1-9.7-8.1-4.6-13.1-8.7-14.8-12.4-1.8-3.7-2.7-8.1-2.7-13.2 0-7.2 1-12.6 2.9-16 1.9-3.4 5.2-6.1 9.7-8 4.6-1.9 9.9-2.8 16-2.8 6 0 11.1.8 15.3 2.3 4.2 1.5 7.5 3.5 9.7 6 2.3 2.5 3.6 4.8 4.1 7 .5 2.1.7 5.5.7 10v5.5zm37.2-48.9v24.9c2.4-2.2 4.9-3.8 7.7-4.9 2.8-1.1 5.7-1.6 8.9-1.6 4.8 0 8.9 1.2 12.3 3.7 3.4 2.5 5.5 5.3 6.2 8.5s1.1 9.1 1.1 17.6V379h-27.6v-63.8c0-5.3-.3-8.7-.8-10.2s-1.7-2.3-3.5-2.3c-1.7 0-2.8.8-3.4 2.3-.6 1.5-.9 4.6-.9 9.2V379h-27.6V268.4h27.6zm70.4 55.1H635v-6.1c0-7 .8-12.4 2.4-16.2 1.6-3.8 4.9-7.2 9.7-10.1 4.9-2.9 11.2-4.4 19-4.4 9.3 0 16.4 1.7 21.1 5 4.7 3.3 7.6 7.4 8.5 12.2 1 4.8 1.4 14.7 1.4 29.7V379h-26.9v-8.1c-1.7 3.2-3.9 5.7-6.5 7.3-2.7 1.6-5.8 2.4-9.5 2.4-4.8 0-9.3-1.4-13.3-4.1s-6-8.6-6-17.8v-7.5c0-6.8 1.1-11.4 3.2-13.9s7.5-5.3 15.9-8.6c9.1-3.6 13.9-5.9 14.6-7.2.6-1.2 1-3.7 1-7.5 0-4.7-.4-7.8-1.1-9.3-.7-1.4-1.9-2.2-3.5-2.2-1.9 0-3 .6-3.5 1.8-.5 1.2-.7 4.3-.7 9.4v9.8zm8.7 12.4c-4.4 3.2-7 5.9-7.7 8.1-.7 2.2-1.1 5.3-1.1 9.4 0 4.7.3 7.7.9 9.1s1.8 2.1 3.7 2.1c1.7 0 2.9-.5 3.4-1.6s.8-3.9.8-8.4v-18.7zm64.8-47.6l-1.1 11.9c4-8.5 9.8-13.1 17.4-13.6v31.9c-5.1 0-8.8.7-11.1 2.1-2.4 1.4-3.8 3.3-4.4 5.7-.5 2.4-.8 8.1-.8 16.9V379h-27.6v-90.7h27.6zm85 47h-35.8v19.6c0 4.1.3 6.7.9 7.9.6 1.2 1.7 1.8 3.4 1.8 2.1 0 3.5-.8 4.2-2.4.7-1.6 1.1-4.6 1.1-9.1v-12h26.2v6.7c0 5.6-.4 9.9-1.1 12.9-.7 3-2.4 6.2-5 9.6s-5.9 6-9.9 7.7c-4 1.7-9 2.6-15 2.6-5.8 0-11-.8-15.4-2.5-4.5-1.7-7.9-4-10.4-6.9-2.5-2.9-4.2-6.2-5.2-9.7-1-3.5-1.4-8.7-1.4-15.4v-26.5c0-7.9 1.1-14.2 3.2-18.8 2.1-4.6 5.7-8.1 10.5-10.5 4.9-2.4 10.5-3.7 16.8-3.7 7.7 0 14.1 1.5 19.2 4.4 5 2.9 8.6 6.8 10.6 11.7 2 4.9 3 11.7 3 20.5v12.1zm-27.7-14.8v-6.6c0-4.7-.3-7.7-.8-9.1-.5-1.4-1.5-2.1-3.1-2.1-1.9 0-3.1.6-3.6 1.7-.5 1.2-.7 4.3-.7 9.4v6.6h8.2zm99.5-52.1V379h-27.6v-6.6c-2.6 2.7-5.4 4.8-8.3 6.2-2.9 1.4-6 2.1-9.2 2.1-4.3 0-8-1.1-11.1-3.4s-5.2-4.9-6-7.8c-.9-3-1.3-7.8-1.3-14.5v-42.5c0-7 .4-11.9 1.3-14.8.9-2.9 2.9-5.5 6.1-7.7 3.2-2.2 7-3.3 11.4-3.3 3.4 0 6.6.6 9.4 1.9 2.8 1.2 5.4 3.1 7.8 5.5v-25.7h27.5zm-27.6 42.7c0-3.3-.3-5.6-.9-6.7-.6-1.1-1.7-1.7-3.4-1.7-1.6 0-2.7.5-3.3 1.5-.6 1-.9 3.3-.9 6.9v44.4c0 3.7.3 6.1.8 7.3s1.6 1.7 3.1 1.7c1.8 0 3-.6 3.6-1.9.6-1.3.9-4.5.9-9.5v-42z" fill="#4CBEA0"/><path d="M918.5 311.5v-22.1h2.1v8.9c.9-1.1 1.8-1.8 2.9-2.4s2.2-.8 3.5-.8c2.3 0 4.2.8 5.8 2.5 1.6 1.6 2.4 3.6 2.4 6 0 2.3-.8 4.3-2.4 5.9-1.6 1.6-3.5 2.4-5.8 2.4-1.3 0-2.5-.3-3.5-.8s-2-1.4-2.8-2.5v2.9h-2.2zm8.3-1.5c1.1 0 2.2-.3 3.2-.8 1-.6 1.7-1.4 2.3-2.4.6-1 .9-2.1.9-3.2s-.3-2.2-.9-3.2-1.3-1.8-2.3-2.4-2-.9-3.1-.9-2.2.3-3.2.9-1.8 1.3-2.3 2.3c-.5 1-.8 2.1-.8 3.3 0 1.8.6 3.4 1.8 4.6s2.6 1.8 4.4 1.8zm10.4-14.4h2.2l5.5 12.3 5.3-12.3h2.2l-9.5 21.8h-2.2l3.1-7-6.6-14.8zm41.8 9.1h-12.8c.2 1.1.7 2 1.5 2.7.8.7 1.8 1 3.1 1 1.5 0 2.8-.5 3.9-1.6l3.4 1.6c-.8 1.2-1.8 2.1-3 2.6s-2.6.9-4.2.9c-2.5 0-4.5-.8-6.1-2.4s-2.4-3.6-2.4-5.9c0-2.4.8-4.5 2.4-6.1 1.6-1.6 3.5-2.4 5.9-2.4 2.5 0 4.6.8 6.1 2.4s2.4 3.7 2.4 6.4l-.2.8zm-4-3.1c-.3-.9-.8-1.6-1.6-2.2-.8-.6-1.7-.8-2.7-.8-1.1 0-2.1.3-2.9.9-.5.4-1 1.1-1.5 2.1h8.7zm7.2-6h4v1.8c.7-.8 1.4-1.3 2.3-1.7s1.7-.6 2.7-.6c1 0 1.9.2 2.7.7.8.5 1.4 1.2 1.9 2.1.6-.9 1.4-1.7 2.3-2.1s1.9-.7 3-.7 2.1.3 3 .8c.9.5 1.5 1.2 1.9 2.1.4.8.6 2.2.6 4.1v9.3h-4v-8.1c0-1.8-.2-3-.7-3.7s-1.1-1-2-1c-.7 0-1.3.2-1.8.6-.5.4-.9.9-1.2 1.6s-.4 1.8-.4 3.3v7.2h-4v-7.7c0-1.4-.1-2.5-.3-3.1-.2-.6-.5-1.1-.9-1.4-.4-.3-.9-.5-1.5-.5-.7 0-1.3.2-1.8.6-.5.4-.9.9-1.2 1.7-.3.7-.4 1.8-.4 3.4v7.1h-4v-15.8zm32.2 0v1.8c.7-.7 1.5-1.3 2.3-1.6s1.7-.5 2.7-.5c2.1 0 3.8.8 5.3 2.4s2.2 3.6 2.2 6-.8 4.4-2.3 6-3.3 2.4-5.3 2.4c-.9 0-1.8-.2-2.6-.5s-1.6-.9-2.4-1.6v7.5h-4v-21.8h4.1zm4.2 3.3c-1.3 0-2.3.4-3.1 1.3s-1.2 2-1.2 3.4.4 2.6 1.2 3.4 1.9 1.3 3.1 1.3c1.2 0 2.2-.4 3.1-1.3.8-.9 1.3-2 1.3-3.4s-.4-2.5-1.2-3.4-2-1.3-3.2-1.3zm11.2-9.4h4v22.1h-4v-22.1zm15.1 5.7c1.5 0 2.9.4 4.2 1.1 1.3.8 2.4 1.8 3.1 3.1s1.1 2.7 1.1 4.2-.4 2.9-1.1 4.2c-.7 1.3-1.8 2.3-3.1 3.1s-2.7 1.1-4.3 1.1c-2.3 0-4.2-.8-5.9-2.4-1.6-1.6-2.4-3.6-2.4-5.9 0-2.5.9-4.6 2.7-6.2 1.8-1.6 3.6-2.3 5.7-2.3zm.1 3.8c-1.2 0-2.3.4-3.1 1.3s-1.2 2-1.2 3.3c0 1.4.4 2.5 1.2 3.4.8.9 1.8 1.3 3.1 1.3s2.3-.4 3.1-1.3c.8-.9 1.2-2 1.2-3.4s-.4-2.5-1.2-3.3-1.9-1.3-3.1-1.3zm9.8-3.4h4.1l4.1 10 4.6-10h4.1l-10 21.8h-4.1l3.3-7-6.1-14.8zm35.2 9.1h-12.8c.2 1.1.7 2 1.5 2.7.8.7 1.8 1 3.1 1 1.5 0 2.8-.5 3.9-1.6l3.4 1.6c-.8 1.2-1.8 2.1-3 2.6s-2.6.9-4.2.9c-2.5 0-4.5-.8-6.1-2.4s-2.4-3.6-2.4-5.9c0-2.4.8-4.5 2.3-6.1 1.6-1.6 3.5-2.4 5.9-2.4 2.5 0 4.6.8 6.1 2.4s2.4 3.7 2.4 6.4l-.1.8zm-4-3.1c-.3-.9-.8-1.6-1.6-2.2-.8-.6-1.7-.8-2.7-.8-1.1 0-2.1.3-2.9.9-.5.4-1 1.1-1.5 2.1h8.7zm23.2 3.1h-12.8c.2 1.1.7 2 1.5 2.7.8.7 1.8 1 3.1 1 1.5 0 2.8-.5 3.9-1.6l3.4 1.6c-.8 1.2-1.8 2.1-3 2.6s-2.6.9-4.2.9c-2.5 0-4.5-.8-6.1-2.4s-2.4-3.6-2.4-5.9c0-2.4.8-4.5 2.4-6.1 1.6-1.6 3.5-2.4 5.9-2.4 2.5 0 4.6.8 6.1 2.4s2.4 3.7 2.4 6.4l-.2.8zm-4-3.1c-.3-.9-.8-1.6-1.6-2.2s-1.7-.8-2.7-.8c-1.1 0-2.1.3-2.9.9-.5.4-1 1.1-1.5 2.1h8.7zm17-3.8l-2.5 2.5c-1-1-1.9-1.5-2.7-1.5-.4 0-.8.1-1.1.3s-.4.4-.4.7c0 .2.1.4.2.6.2.2.6.4 1.2.7l1.5.7c1.5.8 2.6 1.5 3.2 2.3s.9 1.7.9 2.8c0 1.4-.5 2.6-1.6 3.5-1 .9-2.4 1.4-4.2 1.4-2.3 0-4.2-.9-5.6-2.7l2.5-2.7c.5.5 1 1 1.6 1.3.6.3 1.2.5 1.7.5s1-.1 1.3-.4.5-.5.5-.9c0-.6-.6-1.2-1.7-1.8l-1.3-.7c-2.6-1.3-3.9-2.9-3.9-4.9 0-1.3.5-2.3 1.5-3.2 1-.9 2.2-1.3 3.7-1.3 1 0 2 .2 2.9.7.9.6 1.6 1.3 2.3 2.1zM36.7 363.1h2.2l5.3 11.6 5.3-11.6h2.2L44.4 379H44l-7.3-15.9zm31.5 10.6l1.7.9c-.6 1.1-1.2 2-2 2.7-.7.7-1.6 1.2-2.5 1.6-.9.4-2 .5-3.2.5-2.6 0-4.6-.9-6.1-2.6s-2.2-3.6-2.2-5.8c0-2 .6-3.8 1.9-5.4 1.6-2 3.7-3 6.3-3 2.7 0 4.9 1 6.5 3.1 1.2 1.5 1.7 3.3 1.8 5.4H56.1c0 1.9.6 3.4 1.8 4.6 1.1 1.2 2.6 1.8 4.2 1.8.8 0 1.6-.1 2.4-.4.8-.3 1.4-.7 2-1.1.5-.5 1.1-1.2 1.7-2.3zm0-4.3c-.3-1.1-.7-2-1.2-2.6-.5-.7-1.2-1.2-2.1-1.6-.9-.4-1.8-.6-2.7-.6-1.6 0-2.9.5-4 1.5-.8.7-1.4 1.8-1.9 3.3h11.9zm5.3-6.3h2.1v2.3c.6-.9 1.3-1.6 2-2.1s1.4-.7 2.2-.7c.6 0 1.2.2 1.8.5l-1.1 1.7c-.4-.2-.8-.3-1.1-.3-.7 0-1.3.3-2 .8s-1.1 1.4-1.5 2.6c-.3.9-.4 2.7-.4 5.5v5.4h-2.1v-15.7zm17.8 1.7l-1.3 1.4c-1.1-1.1-2.2-1.6-3.2-1.6-.7 0-1.2.2-1.7.7-.5.4-.7 1-.7 1.5s.2 1 .6 1.5c.4.5 1.2 1 2.5 1.7 1.5.8 2.6 1.6 3.1 2.3.5.7.8 1.6.8 2.5 0 1.3-.5 2.4-1.4 3.3s-2.1 1.4-3.4 1.4c-.9 0-1.8-.2-2.6-.6-.8-.4-1.5-1-2.1-1.7l1.3-1.5c1 1.2 2.2 1.8 3.3 1.8.8 0 1.5-.3 2.1-.8.6-.5.9-1.1.9-1.9 0-.6-.2-1.1-.6-1.6-.4-.4-1.2-1-2.6-1.7-1.4-.7-2.4-1.5-2.9-2.2s-.8-1.5-.8-2.5c0-1.2.4-2.2 1.2-3s1.9-1.2 3.1-1.2c1.5.1 3 .8 4.4 2.2zm3.4-1.7h2.1v7.4c0 1.8.1 3.1.3 3.8.3 1 .9 1.7 1.7 2.3.8.6 1.8.8 3 .8 1.1 0 2.1-.3 2.9-.8.8-.6 1.3-1.3 1.7-2.2.2-.6.3-1.9.3-3.9v-7.4h2.1v7.8c0 2.2-.3 3.9-.8 5s-1.3 2-2.3 2.6-2.3.9-3.9.9-2.8-.3-3.9-.9-1.8-1.5-2.3-2.6-.8-2.8-.8-5.1v-7.7zm26.5 1.7l-1.3 1.4c-1.1-1.1-2.2-1.6-3.2-1.6-.7 0-1.2.2-1.7.7-.5.4-.7 1-.7 1.5s.2 1 .6 1.5c.4.5 1.2 1 2.5 1.7 1.5.8 2.6 1.6 3.1 2.3.5.7.8 1.6.8 2.5 0 1.3-.5 2.4-1.4 3.3s-2.1 1.4-3.4 1.4c-.9 0-1.8-.2-2.6-.6-.8-.4-1.5-1-2.1-1.7l1.3-1.5c1 1.2 2.2 1.8 3.3 1.8.8 0 1.5-.3 2.1-.8.6-.5.9-1.1.9-1.9 0-.6-.2-1.1-.6-1.6-.4-.4-1.2-1-2.6-1.7-1.4-.7-2.4-1.5-2.9-2.2s-.8-1.5-.8-2.5c0-1.2.4-2.2 1.2-3s1.9-1.2 3.1-1.2c1.5.1 2.9.8 4.4 2.2zm13.8-7.6h2.1v5.9h3.3v1.8H137V379h-2v-14.2h-2.8V363h2.8v-5.8zm8.3-.3h2.1v9c.8-1.1 1.7-1.9 2.7-2.5s2.1-.8 3.2-.8c1.2 0 2.2.3 3.2.9s1.6 1.4 2 2.4.7 2.6.7 4.8v8.2h-2.1v-7.6c0-1.8-.1-3.1-.2-3.7-.3-1.1-.7-1.8-1.4-2.4s-1.5-.8-2.6-.8c-1.2 0-2.4.4-3.3 1.2s-1.6 1.8-1.9 3c-.2.8-.3 2.2-.3 4.3v5.8h-2.1v-21.8zm31.7 16.8l1.7.9c-.6 1.1-1.2 2-2 2.7-.7.7-1.6 1.2-2.5 1.6-.9.4-2 .5-3.2.5-2.6 0-4.6-.9-6.1-2.6s-2.2-3.6-2.2-5.8c0-2 .6-3.8 1.9-5.4 1.6-2 3.7-3 6.3-3 2.7 0 4.9 1 6.5 3.1 1.2 1.5 1.7 3.3 1.8 5.4H163c0 1.9.6 3.4 1.8 4.6 1.1 1.2 2.6 1.8 4.2 1.8.8 0 1.6-.1 2.4-.4.8-.3 1.4-.7 2-1.1.4-.5 1-1.2 1.6-2.3zm0-4.3c-.3-1.1-.7-2-1.2-2.6-.5-.7-1.2-1.2-2.1-1.6-.9-.4-1.8-.6-2.7-.6-1.6 0-2.9.5-4 1.5-.8.7-1.4 1.8-1.9 3.3H175zm23.9-4.1l-2.5 2.5c-1-1-1.9-1.5-2.7-1.5-.4 0-.8.1-1.1.3s-.4.4-.4.7c0 .2.1.4.2.6s.6.4 1.2.7l1.5.7c1.5.8 2.6 1.5 3.2 2.3s.9 1.7.9 2.8c0 1.4-.5 2.6-1.6 3.5s-2.4 1.4-4.2 1.4c-2.3 0-4.2-.9-5.6-2.7l2.5-2.7c.5.5 1 1 1.6 1.3s1.2.5 1.7.5 1-.1 1.3-.4.5-.5.5-.9c0-.6-.6-1.2-1.7-1.8l-1.3-.7c-2.6-1.3-3.9-2.9-3.9-4.9 0-1.3.5-2.3 1.5-3.2s2.2-1.3 3.7-1.3c1 0 2 .2 2.9.7s1.7 1.3 2.3 2.1zm15.2-2.2h4V379h-4v-1.7c-.8.7-1.6 1.3-2.3 1.6-.8.3-1.6.5-2.6.5-2.1 0-3.8-.8-5.3-2.4-1.5-1.6-2.3-3.6-2.3-6 0-2.5.7-4.5 2.2-6 1.5-1.6 3.2-2.4 5.3-2.4 1 0 1.9.2 2.7.5s1.6.9 2.3 1.6v-1.6zm-4.2 3.3c-1.2 0-2.3.4-3.1 1.3-.8.9-1.2 2-1.2 3.4s.4 2.5 1.2 3.4 1.9 1.3 3.1 1.3c1.3 0 2.3-.4 3.1-1.3s1.2-2 1.2-3.4-.4-2.5-1.2-3.4-1.8-1.3-3.1-1.3zm12.2-3.3h4v1.8c.7-.8 1.4-1.3 2.3-1.7s1.7-.6 2.7-.6c1 0 1.9.2 2.7.7s1.4 1.2 1.9 2.1c.6-.9 1.4-1.7 2.3-2.1.9-.5 1.9-.7 3-.7s2.1.3 3 .8 1.5 1.2 1.9 2.1.6 2.2.6 4.1v9.3h-4v-8.1c0-1.8-.2-3-.7-3.7s-1.1-1-2-1c-.7 0-1.3.2-1.8.6s-.9.9-1.2 1.6-.4 1.8-.4 3.3v7.2h-4v-7.7c0-1.4-.1-2.5-.3-3.1-.2-.6-.5-1.1-.9-1.4s-.9-.5-1.5-.5c-.7 0-1.3.2-1.8.6-.5.4-.9.9-1.2 1.7s-.4 1.8-.4 3.4v7.1h-4v-15.8zm44.2 9.1h-12.8c.2 1.1.7 2 1.5 2.7s1.8 1 3.1 1c1.5 0 2.8-.5 3.9-1.6l3.4 1.6c-.8 1.2-1.8 2.1-3 2.6s-2.6.9-4.2.9c-2.5 0-4.5-.8-6.1-2.4s-2.4-3.6-2.4-5.9c0-2.4.8-4.5 2.4-6.1s3.5-2.4 5.9-2.4c2.5 0 4.6.8 6.1 2.4s2.4 3.7 2.4 6.4l-.2.8zm-4-3.1c-.3-.9-.8-1.6-1.6-2.2-.8-.6-1.7-.8-2.7-.8-1.1 0-2.1.3-2.9.9-.5.4-1 1.1-1.5 2.1h8.7zm15.6-6h4v1.8c.7-.8 1.4-1.3 2.3-1.7s1.7-.6 2.7-.6c1 0 1.9.2 2.7.7s1.4 1.2 1.9 2.1c.6-.9 1.4-1.7 2.3-2.1.9-.5 1.9-.7 3-.7s2.1.3 3 .8 1.5 1.2 1.9 2.1.6 2.2.6 4.1v9.3h-4v-8.1c0-1.8-.2-3-.7-3.7s-1.1-1-2-1c-.7 0-1.3.2-1.8.6s-.9.9-1.2 1.6-.4 1.8-.4 3.3v7.2h-4v-7.7c0-1.4-.1-2.5-.3-3.1-.2-.6-.5-1.1-.9-1.4s-.9-.5-1.5-.5c-.7 0-1.3.2-1.8.6-.5.4-.9.9-1.2 1.7s-.4 1.8-.4 3.4v7.1h-4v-15.8zm44.2 9.1h-12.8c.2 1.1.7 2 1.5 2.7s1.8 1 3.1 1c1.5 0 2.8-.5 3.9-1.6l3.4 1.6c-.8 1.2-1.8 2.1-3 2.6s-2.6.9-4.2.9c-2.5 0-4.5-.8-6.1-2.4s-2.4-3.6-2.4-5.9c0-2.4.8-4.5 2.4-6.1s3.5-2.4 5.9-2.4c2.5 0 4.6.8 6.1 2.4s2.4 3.7 2.4 6.4l-.2.8zm-4-3.1c-.3-.9-.8-1.6-1.6-2.2-.8-.6-1.7-.8-2.7-.8-1.1 0-2.1.3-2.9.9-.5.4-1 1.1-1.5 2.1h8.7zm17-3.8l-2.5 2.5c-1-1-1.9-1.5-2.7-1.5-.4 0-.8.1-1.1.3s-.4.4-.4.7c0 .2.1.4.2.6s.6.4 1.2.7l1.5.7c1.5.8 2.6 1.5 3.2 2.3s.9 1.7.9 2.8c0 1.4-.5 2.6-1.6 3.5s-2.4 1.4-4.2 1.4c-2.3 0-4.2-.9-5.6-2.7l2.5-2.7c.5.5 1 1 1.6 1.3s1.2.5 1.7.5 1-.1 1.3-.4.5-.5.5-.9c0-.6-.6-1.2-1.7-1.8l-1.3-.7c-2.6-1.3-3.9-2.9-3.9-4.9 0-1.3.5-2.3 1.5-3.2s2.2-1.3 3.7-1.3c1 0 2 .2 2.9.7s1.7 1.3 2.3 2.1zm13.2 0l-2.5 2.5c-1-1-1.9-1.5-2.7-1.5-.4 0-.8.1-1.1.3s-.4.4-.4.7c0 .2.1.4.2.6s.6.4 1.2.7l1.5.7c1.5.8 2.6 1.5 3.2 2.3s.9 1.7.9 2.8c0 1.4-.5 2.6-1.6 3.5s-2.4 1.4-4.2 1.4c-2.3 0-4.2-.9-5.6-2.7l2.5-2.7c.5.5 1 1 1.6 1.3s1.2.5 1.7.5 1-.1 1.3-.4.5-.5.5-.9c0-.6-.6-1.2-1.7-1.8l-1.3-.7c-2.6-1.3-3.9-2.9-3.9-4.9 0-1.3.5-2.3 1.5-3.2s2.2-1.3 3.7-1.3c1 0 2 .2 2.9.7s1.7 1.3 2.3 2.1zm15.2-2.2h4V379h-4v-1.7c-.8.7-1.6 1.3-2.3 1.6-.8.3-1.6.5-2.6.5-2.1 0-3.8-.8-5.3-2.4-1.5-1.6-2.3-3.6-2.3-6 0-2.5.7-4.5 2.2-6 1.5-1.6 3.2-2.4 5.3-2.4 1 0 1.9.2 2.7.5s1.6.9 2.3 1.6v-1.6zm-4.2 3.3c-1.2 0-2.3.4-3.1 1.3-.8.9-1.2 2-1.2 3.4s.4 2.5 1.2 3.4 1.9 1.3 3.1 1.3c1.3 0 2.3-.4 3.1-1.3s1.2-2 1.2-3.4-.4-2.5-1.2-3.4-1.8-1.3-3.1-1.3zm24-3.3h4v13.7c0 2.7-.5 4.7-1.6 5.9-1.5 1.7-3.6 2.6-6.6 2.6-1.6 0-2.9-.2-3.9-.6-1.1-.4-2-1-2.7-1.7s-1.3-1.7-1.6-2.8h4.4c.4.4.9.8 1.5 1s1.3.3 2.2.3c1.1 0 1.9-.2 2.6-.5s1.1-.8 1.4-1.3.4-1.4.4-2.7c-.7.7-1.4 1.2-2.2 1.5s-1.6.5-2.6.5c-2.1 0-3.9-.8-5.4-2.3s-2.2-3.5-2.2-5.9c0-2.5.8-4.6 2.3-6.1 1.4-1.4 3.1-2.1 5.1-2.1.9 0 1.8.2 2.6.5s1.6.9 2.5 1.7v-1.7zm-4.1 3.3c-1.3 0-2.3.4-3.1 1.3s-1.2 1.9-1.2 3.2c0 1.3.4 2.4 1.3 3.3s1.9 1.3 3.2 1.3c1.2 0 2.3-.4 3.1-1.2s1.2-1.9 1.2-3.3c0-1.3-.4-2.4-1.2-3.2s-2-1.4-3.3-1.4zm28.1 5.8h-12.8c.2 1.1.7 2 1.5 2.7s1.8 1 3.1 1c1.5 0 2.8-.5 3.9-1.6l3.4 1.6c-.8 1.2-1.8 2.1-3 2.6s-2.6.9-4.2.9c-2.5 0-4.5-.8-6.1-2.4s-2.4-3.6-2.4-5.9c0-2.4.8-4.5 2.4-6.1s3.5-2.4 5.9-2.4c2.5 0 4.6.8 6.1 2.4s2.4 3.7 2.4 6.4l-.2.8zm-4-3.1c-.3-.9-.8-1.6-1.6-2.2-.8-.6-1.7-.8-2.7-.8-1.1 0-2.1.3-2.9.9-.5.4-1 1.1-1.5 2.1h8.7z" fill="#fff"/><path d="M961.3 227c0 3.2-.6 6-1.8 8.6-1.2 2.6-2.9 4.8-5 6.6-2.1 1.9-4.6 3.3-7.4 4.3-2.9 1-5.9 1.5-9.2 1.5-3.2 0-6.2-.5-8.9-1.6-2.7-1-5.2-2.7-7.5-5l5-5c1.9 1.7 3.9 3 5.8 3.6 2 .7 4 1 6.1 1 2.2 0 4.2-.3 6.1-.9 1.9-.6 3.6-1.6 5-2.8 1.4-1.2 2.6-2.7 3.4-4.5.8-1.7 1.2-3.7 1.2-5.9 0-4.5-1.4-8-4.1-10.4-2.8-2.4-6.4-3.6-11-3.6-2.2 0-4.4.3-6.6 1-2.3.7-4.4 1.8-6.5 3.3v-30H957v6.4h-24.2V207c.8-.3 1.9-.5 3.1-.7 1.2-.1 2.5-.2 3.9-.2 3.1 0 6 .5 8.7 1.5 2.7 1 5 2.4 6.8 4.2 1.9 1.8 3.4 4 4.5 6.6 1 2.6 1.5 5.5 1.5 8.6zm55.4-.8c0 2.9-.6 5.7-1.8 8.4-1.2 2.6-2.7 5-4.7 6.9-2 2-4.3 3.6-6.9 4.7-2.6 1.2-5.4 1.8-8.4 1.8s-5.8-.6-8.5-1.8c-2.7-1.2-5-2.7-7-4.7s-3.6-4.3-4.8-6.9c-1.2-2.6-1.8-5.5-1.8-8.5 0-2.7.5-5.4 1.5-8.2 1-2.8 2.3-5.5 4-8.1 1.7-2.6 3.5-5.2 5.5-7.6 2-2.4 4.1-4.7 6.3-6.8 2.1-2.1 4.2-4.1 6.2-5.8 2-1.7 3.8-3.1 5.3-4.3l5.8 4.3c-1.9 1.1-3.9 2.5-6 4.2-2.1 1.7-4 3.5-5.9 5.3l-4.8 4.8c-1.3 1.4-2.2 2.4-2.6 3 1.4-.7 2.8-1.1 4.1-1.4 1.3-.3 2.7-.4 4.2-.4 2.8 0 5.4.6 7.8 1.7 2.4 1.1 4.6 2.6 6.4 4.5 1.8 1.9 3.3 4.2 4.3 6.7 1.2 2.6 1.8 5.3 1.8 8.2zm-7.2.3c0-2-.4-3.9-1.2-5.7-.8-1.8-1.8-3.3-3.2-4.6-1.3-1.3-2.9-2.4-4.7-3.2-1.8-.8-3.7-1.2-5.7-1.2s-3.9.4-5.7 1.2c-1.8.8-3.3 1.8-4.6 3.2-1.3 1.3-2.4 2.9-3.1 4.6-.8 1.8-1.2 3.7-1.2 5.7s.4 3.9 1.2 5.7c.8 1.8 1.8 3.3 3.1 4.6 1.3 1.3 2.9 2.4 4.6 3.2 1.8.8 3.7 1.2 5.7 1.2s3.9-.4 5.7-1.2c1.8-.8 3.3-1.8 4.7-3.2 1.3-1.3 2.4-2.9 3.2-4.6.8-1.8 1.2-3.7 1.2-5.7zm37.7 20.8v-52.8l-12.3 5-2.4-5.9 17.5-6.9h4.5v60.7h-7.3zm58.6-46.2c0 2-.4 3.9-1.1 5.6-.8 1.8-1.8 3.3-3.1 4.6-1.3 1.3-2.9 2.4-4.6 3.1-1.8.8-3.6 1.1-5.6 1.1s-3.9-.4-5.6-1.1c-1.8-.8-3.3-1.8-4.6-3.1-1.3-1.3-2.4-2.9-3.1-4.6-.8-1.8-1.1-3.6-1.1-5.6s.4-3.9 1.1-5.6c.7-1.8 1.8-3.3 3.1-4.6 1.3-1.3 2.9-2.4 4.6-3.1 1.8-.7 3.6-1.1 5.6-1.1s3.9.4 5.6 1.1c1.8.8 3.3 1.8 4.6 3.1 1.3 1.3 2.4 2.9 3.1 4.6.8 1.7 1.1 3.6 1.1 5.6zm-6.2 0c0-1.1-.2-2.2-.6-3.2-.4-1-1-1.9-1.8-2.7-.8-.7-1.6-1.3-2.7-1.8-1-.4-2.1-.6-3.2-.6s-2.2.2-3.2.6c-1 .4-1.9 1-2.7 1.8-.8.8-1.3 1.6-1.8 2.7-.4 1-.6 2.1-.6 3.2s.2 2.2.6 3.2c.4 1 1 1.9 1.8 2.7.8.8 1.6 1.3 2.7 1.8 1 .4 2.1.6 3.2.6s2.2-.2 3.2-.6c1-.4 1.9-1 2.7-1.8.7-.7 1.3-1.6 1.8-2.7.4-1 .6-2.1.6-3.2zM1094 248h-5.7l33.8-61.4h5.7L1094 248zm45.3-14.5c0 2-.4 3.9-1.1 5.6s-1.8 3.3-3.1 4.6c-1.3 1.3-2.9 2.4-4.6 3.1-1.8.8-3.6 1.1-5.6 1.1-2 0-3.9-.4-5.6-1.1-1.8-.7-3.3-1.8-4.6-3.1-1.3-1.3-2.4-2.9-3.1-4.6-.8-1.8-1.1-3.6-1.1-5.6 0-2 .4-3.9 1.1-5.6.7-1.8 1.8-3.3 3.1-4.6 1.3-1.3 2.9-2.4 4.6-3.1 1.8-.8 3.6-1.1 5.6-1.1 2 0 3.9.4 5.6 1.1 1.8.8 3.3 1.8 4.6 3.1 1.3 1.3 2.4 2.9 3.1 4.6s1.1 3.6 1.1 5.6zm-6.2 0c0-1.1-.2-2.2-.6-3.2-.4-1-1-1.9-1.8-2.7-.8-.7-1.6-1.3-2.7-1.8-1-.4-2.1-.6-3.2-.6s-2.2.2-3.2.6c-1 .4-1.9 1-2.7 1.8-.8.8-1.3 1.6-1.8 2.7-.4 1-.6 2.1-.6 3.2s.2 2.2.6 3.2c.4 1 1 1.9 1.8 2.7.8.8 1.6 1.3 2.7 1.8 1 .4 2.1.6 3.2.6s2.2-.2 3.2-.6c1-.4 1.9-1 2.7-1.8.7-.8 1.3-1.6 1.8-2.7.4-1 .6-2.1.6-3.2z" fill="#28C1D8"/><path d="M916.9 363.1h2.2l5.3 11.6 5.3-11.6h2.2l-7.3 15.9h-.4l-7.3-15.9zm18.9-6.6c.5 0 .9.2 1.2.5.3.3.5.7.5 1.2s-.2.9-.5 1.2c-.3.3-.7.5-1.2.5s-.9-.2-1.2-.5-.5-.7-.5-1.2.2-.9.5-1.2.7-.5 1.2-.5zm-1.1 6.6h2.1V379h-2.1v-15.9zm22.2 0V379h-2v-2.7c-.9 1-1.8 1.8-2.9 2.4s-2.2.8-3.5.8c-2.3 0-4.2-.8-5.8-2.5s-2.4-3.6-2.4-6c0-2.3.8-4.3 2.4-5.9s3.6-2.4 5.8-2.4c1.3 0 2.5.3 3.6.8s2 1.4 2.8 2.5v-2.9h2zm-8.2 1.6c-1.1 0-2.2.3-3.2.8-1 .6-1.7 1.3-2.3 2.4-.6 1-.9 2.1-.9 3.2s.3 2.2.9 3.2c.6 1 1.3 1.8 2.3 2.4 1 .6 2 .9 3.1.9s2.2-.3 3.2-.8c1-.6 1.8-1.3 2.3-2.3s.8-2.1.8-3.3c0-1.8-.6-3.4-1.8-4.6s-2.6-1.9-4.4-1.9zm28.7-2c2.5 0 4.5.9 6.1 2.7 1.5 1.6 2.2 3.5 2.2 5.8 0 2.2-.8 4.2-2.3 5.8-1.6 1.7-3.5 2.5-6 2.5-2.4 0-4.4-.8-6-2.5-1.5-1.7-2.3-3.6-2.3-5.8 0-2.2.7-4.1 2.2-5.7 1.6-1.9 3.6-2.8 6.1-2.8zm0 2c-1.7 0-3.2.6-4.4 1.9s-1.8 2.8-1.8 4.6c0 1.2.3 2.2.8 3.2s1.3 1.8 2.3 2.3c1 .5 2 .8 3.1.8s2.2-.3 3.1-.8c1-.5 1.7-1.3 2.3-2.3s.8-2.1.8-3.2c0-1.8-.6-3.3-1.8-4.6s-2.7-1.9-4.4-1.9zm18.7-7.8v2c-.8-.3-1.4-.5-1.9-.5-.4 0-.7.1-1 .2-.3.2-.4.3-.5.6s-.1.8-.1 1.7v2.2h3.3v1.8h-3.3v14.2h-2.1v-14.2h-2.1v-1.8h2.1v-2.5c0-1.1.1-2 .3-2.4s.6-.9 1.1-1.2 1.1-.4 1.8-.4c.6-.1 1.4.1 2.4.3zm9.4 0v2c-.8-.3-1.4-.5-1.9-.5-.4 0-.7.1-1 .2-.3.2-.4.3-.5.6s-.1.8-.1 1.7v2.2h3.3v1.8h-3.3v14.2h-2.1v-14.2h-2.1v-1.8h2.1v-2.5c0-1.1.1-2 .3-2.4s.6-.9 1.1-1.2 1.1-.4 1.8-.4c.6-.1 1.4.1 2.4.3zm3.5-.4c.5 0 .9.2 1.2.5.3.3.5.7.5 1.2s-.2.9-.5 1.2c-.3.3-.7.5-1.2.5s-.9-.2-1.2-.5-.5-.7-.5-1.2.2-.9.5-1.2.8-.5 1.2-.5zm-1 6.6h2.1V379h-2.1v-15.9zm21.8 3.3l-1.6 1c-1.4-1.9-3.3-2.8-5.8-2.8-1.9 0-3.6.6-4.8 1.9-1.3 1.2-1.9 2.8-1.9 4.6 0 1.2.3 2.3.9 3.3.6 1 1.4 1.8 2.4 2.4s2.2.8 3.5.8c2.3 0 4.3-.9 5.7-2.8l1.6 1.1c-.8 1.1-1.8 2-3.1 2.7-1.3.6-2.7.9-4.4.9-2.5 0-4.6-.8-6.3-2.4s-2.5-3.5-2.5-5.8c0-1.5.4-3 1.2-4.3.8-1.3 1.8-2.4 3.2-3.1s2.9-1.1 4.6-1.1c1.1 0 2.1.2 3.1.5s1.8.7 2.5 1.3 1.2 1 1.7 1.8zm4.7-9.9c.5 0 .9.2 1.2.5.3.3.5.7.5 1.2s-.2.9-.5 1.2c-.3.3-.7.5-1.2.5s-.9-.2-1.2-.5-.5-.7-.5-1.2.2-.9.5-1.2.7-.5 1.2-.5zm-1.1 6.6h2.1V379h-2.1v-15.9zm22.2 0V379h-2v-2.7c-.9 1-1.8 1.8-2.9 2.4s-2.2.8-3.5.8c-2.3 0-4.2-.8-5.8-2.5s-2.4-3.6-2.4-6c0-2.3.8-4.3 2.4-5.9s3.6-2.4 5.8-2.4c1.3 0 2.5.3 3.6.8s2 1.4 2.8 2.5v-2.9h2zm-8.2 1.6c-1.1 0-2.2.3-3.2.8-1 .6-1.7 1.3-2.3 2.4-.6 1-.9 2.1-.9 3.2s.3 2.2.9 3.2c.6 1 1.3 1.8 2.3 2.4 1 .6 2 .9 3.1.9s2.2-.3 3.2-.8c1-.6 1.8-1.3 2.3-2.3s.8-2.1.8-3.3c0-1.8-.6-3.4-1.8-4.6s-2.6-1.9-4.4-1.9zm12.5-7.8h2.1V379h-2.1v-22.1zm14.8 22.1v-22.1h2.1v8.9c.9-1.1 1.8-1.8 2.9-2.4 1.1-.5 2.2-.8 3.5-.8 2.3 0 4.2.8 5.8 2.5 1.6 1.6 2.4 3.6 2.4 6 0 2.3-.8 4.3-2.4 5.9s-3.5 2.4-5.8 2.4c-1.3 0-2.5-.3-3.5-.8-1.1-.6-2-1.4-2.8-2.5v2.9h-2.2zm8.2-1.5c1.1 0 2.2-.3 3.2-.8 1-.6 1.7-1.3 2.3-2.4.6-1 .9-2.1.9-3.2s-.3-2.2-.9-3.2c-.6-1-1.3-1.8-2.3-2.4-1-.6-2-.9-3.1-.9s-2.2.3-3.2.9c-1 .6-1.8 1.3-2.3 2.3s-.8 2.1-.8 3.3c0 1.8.6 3.4 1.8 4.6s2.6 1.8 4.4 1.8zm11.3-14.4h2.1v2.3c.6-.9 1.3-1.6 2-2.1s1.4-.7 2.2-.7c.6 0 1.2.2 1.8.5l-1.1 1.7c-.4-.2-.8-.3-1.1-.3-.7 0-1.3.3-2 .8-.6.6-1.1 1.4-1.5 2.6-.3.9-.4 2.7-.4 5.5v5.4h-2.1v-15.7zm25.7 0V379h-2v-2.7c-.9 1-1.8 1.8-2.9 2.4-1.1.5-2.2.8-3.5.8-2.3 0-4.2-.8-5.8-2.5-1.6-1.6-2.4-3.6-2.4-6 0-2.3.8-4.3 2.4-5.9s3.5-2.4 5.8-2.4c1.3 0 2.5.3 3.6.8s2 1.4 2.8 2.5v-2.9h2zm-8.2 1.6c-1.1 0-2.2.3-3.2.8-1 .6-1.7 1.3-2.3 2.4-.6 1-.9 2.1-.9 3.2s.3 2.2.9 3.2 1.3 1.8 2.3 2.4c1 .6 2 .9 3.1.9s2.2-.3 3.2-.8c1-.6 1.8-1.3 2.3-2.3.5-1 .8-2.1.8-3.3 0-1.8-.6-3.4-1.8-4.6-1.1-1.3-2.6-1.9-4.4-1.9zm12.8-1.6h2.1v2.9c.8-1.1 1.7-1.9 2.7-2.5 1-.5 2.1-.8 3.3-.8 1.2 0 2.2.3 3.2.9.9.6 1.6 1.4 2 2.4s.7 2.6.7 4.8v8.2h-2.1v-7.6c0-1.8-.1-3.1-.2-3.7-.2-1.1-.7-1.8-1.4-2.4-.7-.5-1.6-.8-2.6-.8-1.2 0-2.4.4-3.3 1.2-1 .8-1.6 1.8-1.9 3-.2.8-.3 2.2-.3 4.3v5.8h-2.1v-15.7zm34.2-6.2V379h-2v-2.7c-.9 1-1.8 1.8-2.9 2.4-1.1.5-2.2.8-3.5.8-2.3 0-4.2-.8-5.8-2.5-1.6-1.6-2.4-3.6-2.4-6 0-2.3.8-4.3 2.4-5.9s3.5-2.4 5.8-2.4c1.3 0 2.5.3 3.6.8s2 1.4 2.8 2.5v-9.1h2zm-8.2 7.8c-1.1 0-2.2.3-3.2.8-1 .6-1.7 1.3-2.3 2.4-.6 1-.9 2.1-.9 3.2s.3 2.2.9 3.2 1.3 1.8 2.3 2.4c1 .6 2 .9 3.1.9s2.2-.3 3.2-.8c1-.6 1.8-1.3 2.3-2.3.5-1 .8-2.1.8-3.3 0-1.8-.6-3.4-1.8-4.6-1.1-1.3-2.6-1.9-4.4-1.9z" fill="#fff"/><path d="M407.3 447.8l-3.5 3.6c-2.9-2.8-5.8-4.3-8.6-4.3-1.8 0-3.3.6-4.6 1.8-1.3 1.2-1.9 2.5-1.9 4.1 0 1.4.5 2.7 1.6 3.9 1 1.3 3.2 2.8 6.6 4.5 4.1 2.1 6.8 4.1 8.3 6.1 1.4 2 2.2 4.2 2.2 6.7 0 3.5-1.2 6.4-3.7 8.9-2.5 2.4-5.5 3.6-9.2 3.6-2.5 0-4.8-.5-7-1.6s-4.1-2.5-5.5-4.4l3.4-3.9c2.8 3.2 5.8 4.7 8.9 4.7 2.2 0 4.1-.7 5.6-2.1 1.5-1.4 2.3-3.1 2.3-5 0-1.6-.5-3-1.5-4.2-1-1.2-3.3-2.7-6.9-4.5-3.8-2-6.4-3.9-7.8-5.9-1.4-1.9-2.1-4.1-2.1-6.6 0-3.2 1.1-5.9 3.3-8 2.2-2.1 5-3.2 8.4-3.2 3.8.1 7.8 2 11.7 5.8zm29.8-5.7c6.5 0 12 2.4 16.3 7.1 3.9 4.3 5.9 9.4 5.9 15.4 0 5.9-2.1 11.1-6.2 15.6-4.1 4.4-9.5 6.7-15.9 6.7-6.5 0-11.9-2.2-16-6.7-4.1-4.4-6.2-9.6-6.2-15.6 0-5.9 2-11 5.9-15.3 4.2-4.8 9.7-7.2 16.2-7.2zm0 5.3c-4.5 0-8.5 1.7-11.7 5s-4.9 7.4-4.9 12.2c0 3.1.7 5.9 2.2 8.6 1.5 2.7 3.5 4.7 6 6.2 2.5 1.4 5.3 2.2 8.3 2.2 3 0 5.8-.7 8.3-2.2 2.5-1.4 4.5-3.5 6-6.2s2.2-5.5 2.2-8.6c0-4.8-1.6-8.8-4.9-12.2-3.1-3.3-7-5-11.5-5zm73.5 4.6l-4.3 2.7c-3.7-5-8.9-7.5-15.3-7.5-5.2 0-9.5 1.7-12.9 5-3.4 3.3-5.1 7.4-5.1 12.1 0 3.1.8 6 2.4 8.7 1.6 2.7 3.7 4.9 6.5 6.4s5.8 2.3 9.2 2.3c6.2 0 11.3-2.5 15.3-7.5l4.3 2.9c-2 3.1-4.8 5.4-8.2 7.1-3.4 1.7-7.3 2.5-11.7 2.5-6.7 0-12.3-2.1-16.7-6.4-4.4-4.3-6.6-9.5-6.6-15.6 0-4.1 1-7.9 3.1-11.5 2.1-3.5 4.9-6.3 8.5-8.3 3.6-2 7.7-3 12.1-3 2.8 0 5.5.4 8.1 1.3s4.8 2 6.7 3.4c1.8 1.5 3.4 3.3 4.6 5.4zm12.4-26.3c1.2 0 2.3.4 3.2 1.3.9.9 1.3 2 1.3 3.2 0 1.2-.4 2.3-1.3 3.2-.9.9-1.9 1.3-3.2 1.3-1.2 0-2.3-.4-3.2-1.3-.9-.9-1.3-1.9-1.3-3.2 0-1.3.4-2.3 1.3-3.2 1-.9 2-1.3 3.2-1.3zm-2.7 17.5h5.5v42.5h-5.5v-42.5zm59.2 0v42.5h-5.4v-7.3c-2.3 2.8-4.9 4.9-7.7 6.3s-6 2.1-9.4 2.1c-6 0-11.2-2.2-15.4-6.5-4.3-4.4-6.4-9.7-6.4-15.9 0-6.1 2.1-11.4 6.4-15.7 4.3-4.3 9.5-6.5 15.5-6.5 3.5 0 6.6.7 9.5 2.2 2.8 1.5 5.3 3.7 7.4 6.7v-7.8h5.5zm-21.8 4.2c-3 0-5.9.7-8.4 2.2-2.6 1.5-4.6 3.6-6.1 6.3s-2.3 5.6-2.3 8.6.8 5.9 2.3 8.6c1.5 2.7 3.6 4.9 6.2 6.4s5.4 2.3 8.3 2.3c3 0 5.8-.8 8.5-2.3 2.7-1.5 4.7-3.6 6.2-6.1 1.4-2.6 2.2-5.5 2.2-8.7 0-4.9-1.6-9-4.9-12.3-3.3-3.4-7.3-5-12-5zm33.3-20.6h5.5v58.9H591v-58.9zm80.2 25.2l-4.3 2.7c-3.7-5-8.9-7.5-15.3-7.5-5.2 0-9.5 1.7-12.9 5-3.4 3.3-5.1 7.4-5.1 12.1 0 3.1.8 6 2.4 8.7 1.6 2.7 3.7 4.9 6.5 6.4 2.7 1.5 5.8 2.3 9.2 2.3 6.2 0 11.3-2.5 15.3-7.5l4.3 2.9c-2 3.1-4.8 5.4-8.2 7.1-3.4 1.7-7.3 2.5-11.7 2.5-6.7 0-12.3-2.1-16.7-6.4-4.4-4.3-6.6-9.5-6.6-15.6 0-4.1 1-7.9 3.1-11.5 2.1-3.5 4.9-6.3 8.5-8.3 3.6-2 7.7-3 12.1-3 2.8 0 5.5.4 8.1 1.3s4.8 2 6.7 3.4c1.8 1.5 3.4 3.3 4.6 5.4zm10.5-25.2h5.5v24c2.2-2.9 4.6-5.1 7.3-6.5s5.5-2.2 8.6-2.2c3.2 0 6 .8 8.5 2.4 2.5 1.6 4.3 3.8 5.4 6.5 1.2 2.7 1.8 7 1.8 12.8v21.9h-5.5v-20.3c0-4.9-.2-8.2-.6-9.8-.7-2.8-1.9-4.9-3.7-6.3-1.8-1.4-4.1-2.1-7-2.1-3.3 0-6.3 1.1-8.9 3.3s-4.3 4.9-5.2 8.1c-.5 2.1-.8 5.9-.8 11.6v15.6h-5.5v-59zm91.2 16.4v42.5h-5.4v-7.3c-2.3 2.8-4.9 4.9-7.7 6.3s-6 2.1-9.4 2.1c-6 0-11.2-2.2-15.4-6.5-4.3-4.4-6.4-9.7-6.4-15.9 0-6.1 2.1-11.4 6.4-15.7 4.3-4.3 9.5-6.5 15.5-6.5 3.5 0 6.6.7 9.5 2.2 2.8 1.5 5.3 3.7 7.4 6.7v-7.8h5.5zm-21.9 4.2c-3 0-5.9.7-8.4 2.2-2.6 1.5-4.6 3.6-6.1 6.3s-2.3 5.6-2.3 8.6.8 5.9 2.3 8.6c1.5 2.7 3.6 4.9 6.2 6.4s5.4 2.3 8.3 2.3c3 0 5.8-.8 8.5-2.3 2.7-1.5 4.7-3.6 6.2-6.1 1.4-2.6 2.2-5.5 2.2-8.7 0-4.9-1.6-9-4.9-12.3-3.3-3.4-7.3-5-12-5zm34.2-4.2h5.5v7.6c2.2-2.9 4.6-5.1 7.3-6.5s5.5-2.2 8.7-2.2c3.2 0 6 .8 8.5 2.4 2.5 1.6 4.3 3.8 5.4 6.5s1.8 7 1.8 12.8v21.9h-5.5v-20.3c0-4.9-.2-8.2-.6-9.8-.6-2.8-1.8-4.9-3.6-6.3-1.8-1.4-4.1-2.1-7-2.1-3.3 0-6.3 1.1-8.9 3.3-2.6 2.2-4.3 4.9-5.2 8.1-.5 2.1-.8 6-.8 11.6v15.6h-5.5v-42.6zm48.8 0h5.5v7.6c2.2-2.9 4.6-5.1 7.3-6.5s5.5-2.2 8.7-2.2c3.2 0 6 .8 8.5 2.4 2.5 1.6 4.3 3.8 5.4 6.5s1.8 7 1.8 12.8v21.9h-5.5v-20.3c0-4.9-.2-8.2-.6-9.8-.6-2.8-1.8-4.9-3.6-6.3-1.8-1.4-4.1-2.1-7-2.1-3.3 0-6.3 1.1-8.9 3.3-2.6 2.2-4.3 4.9-5.2 8.1-.5 2.1-.8 6-.8 11.6v15.6H834v-42.6zm84.5 28.4l4.6 2.4c-1.5 3-3.3 5.4-5.2 7.2-2 1.8-4.2 3.2-6.7 4.2s-5.3 1.4-8.4 1.4c-6.9 0-12.4-2.3-16.3-6.8-3.9-4.5-5.9-9.7-5.9-15.4 0-5.4 1.7-10.2 5-14.4 4.2-5.4 9.8-8 16.9-8 7.2 0 13 2.7 17.4 8.2 3.1 3.9 4.6 8.7 4.7 14.5h-38.2c.1 4.9 1.7 9 4.7 12.1 3.1 3.2 6.8 4.7 11.3 4.7 2.2 0 4.3-.4 6.3-1.1 2-.8 3.8-1.8 5.2-3s3-3.3 4.6-6zm0-11.5c-.7-2.9-1.8-5.2-3.2-7-1.4-1.7-3.2-3.2-5.5-4.2-2.3-1.1-4.7-1.6-7.2-1.6-4.2 0-7.8 1.3-10.8 4-2.2 2-3.8 4.9-5 8.8h31.7zm15.4-33.3h5.5v58.9h-5.5v-58.9zm38.2 21l-3.5 3.6c-2.9-2.8-5.8-4.3-8.6-4.3-1.8 0-3.3.6-4.6 1.8-1.3 1.2-1.9 2.5-1.9 4.1 0 1.4.5 2.7 1.6 3.9 1 1.3 3.2 2.8 6.6 4.5 4.1 2.1 6.8 4.1 8.3 6.1 1.4 2 2.2 4.2 2.2 6.7 0 3.5-1.2 6.4-3.7 8.9s-5.5 3.6-9.2 3.6c-2.5 0-4.8-.5-7-1.6s-4.1-2.5-5.5-4.4l3.4-3.9c2.8 3.2 5.8 4.7 8.9 4.7 2.2 0 4.1-.7 5.6-2.1 1.5-1.4 2.3-3.1 2.3-5 0-1.6-.5-3-1.5-4.2-1-1.2-3.3-2.7-6.9-4.5-3.8-2-6.4-3.9-7.8-5.9-1.4-1.9-2.1-4.1-2.1-6.6 0-3.2 1.1-5.9 3.3-8 2.2-2.1 5-3.2 8.4-3.2 3.8.1 7.8 2 11.7 5.8zm15.7 29.3c1.3 0 2.5.5 3.4 1.4s1.4 2.1 1.4 3.4c0 1.3-.5 2.5-1.4 3.4s-2.1 1.4-3.4 1.4-2.5-.5-3.4-1.4-1.4-2.1-1.4-3.4c0-1.4.5-2.5 1.4-3.4s2.1-1.4 3.4-1.4z" fill="#53C7DE"/><path fill="none" stroke="#fff" stroke-width="3" stroke-linecap="round" stroke-linejoin="round" stroke-miterlimit="10" d="M919.4 170s108.1-8.7 140.9-89.9m-15.3 3.6s22.1-18.3 24.4-12.9 0 19.8 0 19.8"/><path opacity=".6" fill="#fff" d="M1197.7 269.7c2.5 1.7 3.2 1.1 3.3-1 .1-2.8-.2-5 3.7-3.3 4 1.7 8.1-3.1 8.1-1.7 0 1.4 4.9 2.8 4.7 4.4-.2 1.6-.7 8.9 1.3 4.5.6-1.4 1.4-2.4 2.1-3.2 0 0 2.6-11.9-5.7-11.8 0 0-1.9-3.3-8.2-2.5s-11.6 5-9.1 14.7c.1-.2-.1-.2-.2-.1z"/><path opacity=".5" fill="#53C7DE" d="M1181.6 311.7s.3-14.6 6.5-18.9c6.2-4.3 10.5-2.6 14.4-4.9 0 0 .8 13.4 7 18.1h.1c6.1-4.7 7-18.1 7-18.1 3.9 2.3 8.3.7 14.4 4.9 6.2 4.3 6.5 18.9 6.5 18.9"/><path fill="#fff" d="M1208.5 301.5c1.4-1.4 2.4-3.8 2.4-3.8l-1-6.3 1.9-5.4c-3.3 1.4-6.7 0-6.7 0l1.9 5.4-1 6.3c.1 0 1 2.4 2.5 3.8-.1 0 0 0 0 0z"/><path opacity=".5" fill="#4CBEA0" d="M1178.1 271.7s-6 6.1-12 5.5c0 0 2 11.1 6 12.9H1160s-5.7-31 16.1-31.5 15.8 31.5 15.8 31.5h-11.3s4.9-4.1 5.3-13.9c0 .1-6.6-1.5-7.8-4.5z"/><path fill="none" stroke="#999" stroke-width="1.5" stroke-miterlimit="10" d="M1148.8 308.6s-1.1-15.6 19.3-17l-5.3 5.4h4.6l-2.6 2.8 8.4 8.8m41-53.7s-1.9-3.3-8.2-2.5-11.6 5-9.1 14.7c0 0-2.1 0-.6 3.6.9 2.1 2.1 2.5 2.1 2.5s1.7 11.3 10.1 11.1c8.4-.2 9.7-11.1 9.7-11.1s1.4-.7 2.3-2.4c.9-1.7 1.5-3.8-.6-4 .1-.1 2.7-12-5.7-11.9zm-33.7 54.1s.3-14.6 6.5-18.9c6.2-4.3 10.5-2.6 14.4-4.9 0 0 .8 13.4 7 18.1h.1c6.1-4.7 7-18.1 7-18.1 3.9 2.3 8.3.7 14.4 4.9 6.2 4.3 6.5 18.9 6.5 18.9m-59.3-39.9s-6 6.1-12 5.5c0 0 2 11.1 6 12.9H1159s-5.7-31 16.1-31.5 15.8 31.5 15.8 31.5h-11.3s4.9-4.1 5.3-13.9c0 .1-6.6-1.5-7.8-4.5z"/><path fill-rule="evenodd" clip-rule="evenodd" fill="#fff" d="M163.7 470.5c0-3.2-.1-6.5-.1-9.7v-2.9h-3.3c-.8 0-1.1-.3-1.1-1.1v-3.5c0-.7.3-1 1-1h3.4v-3.9c0-3.6 2.1-5.9 5.6-6.2 1.5-.1 3.1 0 4.8 0v5h-2.9c-1.5 0-1.9.5-2 1.9v2.7c0 .1.1.2.1.5h4.8c-.3 1.9-.5 3.6-.7 5.5h-4.2v12.6c-1.8.1-3.6.1-5.4.1zm124.1 0h-5.3v-8.3c0-.5 0-1-.1-1.4-.2-1.5-1.1-2.4-2.4-2.4-1.5-.1-2.7.8-3 2.2-.1.3-.1.6-.1.9v9h-5.3v-15.9h5.2v2.2c.2-.2.3-.3.3-.4 1.4-1.9 3.3-2.4 5.5-2.1 2.1.3 3.7 1.4 4.4 3.4.3.8.4 1.6.6 2.4 0 .1.1.2.1.3.1 3.3.1 6.7.1 10.1zM263 449c.8-1.9 2.5-2.7 4.3-1.9 1.1.5 1.7 1.5 1.6 2.8-.1 1.1-.9 2-2 2.3-1.9.5-3.2-.2-3.9-2.2v-1zm.4 5.6h5.2v15.9h-5.2v-15.9zm-45.6 15.9H215c-.7-.3-1.4-.3-2.2-.5-1.3-.4-2.6-.9-3.7-1.6 2.6.1 4.9-.5 7-2.1-2.2-.3-3.8-1.3-4.6-3.4.7 0 1.4.1 2.1-.1-2.8-.8-4-3.2-3.8-4.9.3.1.7.3 1 .4.3.1.7.2 1 .1-2.1-1.7-2.4-4-1.7-5.9.3-.7.3-.7.8-.1 2.5 2.7 5.6 4.3 9.3 4.7.5 0 .5-.1.4-.5-.3-2.4 1.2-4.7 3.5-5.4.2-.1.4 0 .6-.2h1.6c1 .3 2 .7 2.8 1.5.1.1.3.1.4 0 .9-.2 1.8-.6 2.8-1.1-.4 1.2-1.1 1.9-1.9 2.6.3 0 .5 0 .8-.1.6-.2 1.2-.3 1.8-.5-.6.9-1.3 1.6-2.2 2.3-.2.1-.2.3-.2.5 0 1.3-.1 2.6-.4 3.8-1.5 5.2-4.7 8.8-10.1 10.2-.8.1-1.6.2-2.3.3z"/><g fill-rule="evenodd" clip-rule="evenodd" fill="#fff"><path d="M317.3 463.6v-11.2c0-.1.1-.2.1-.4.3-2.9 2.4-5.3 5.2-6.2.6-.2 1.1-.3 1.7-.4h11c.1 0 .3.1.4.1 2.9.3 5.5 2.5 6.2 5.3.1.5.2 1.1.4 1.7v11c-.1.4-.2.7-.3 1.1-.8 2.9-2.6 4.8-5.5 5.5-.5.1-1 .2-1.4.3H325c-.3-.1-.5-.1-.8-.1-3.1-.3-5.2-1.9-6.3-4.7-.4-.6-.5-1.3-.6-2zm12.4 4.5h5c.5 0 1.1-.1 1.6-.2 2.2-.8 3.5-2.6 3.5-5v-9.7c0-2.9-2.2-5.2-5.1-5.2h-10c-2.9 0-5 2.3-5 5.2v9.7c0 3.2 2.1 5.3 5.3 5.3 1.6-.1 3.2-.1 4.7-.1z"/><path d="M323.4 457.9c-.1-3.4 3-6.3 6.4-6.3 3.4 0 6.5 2.9 6.4 6.6-.1 3.5-2.9 6.3-6.5 6.3-3.6-.2-6.4-3-6.3-6.6zm2.4 0c0 2.3 1.7 4 3.9 4 2.3 0 4-1.7 4-4 0-2.2-1.8-3.9-4-3.9s-3.9 1.7-3.9 3.9zm10.4-4.9c-.8 0-1.5-.6-1.5-1.5 0-.8.7-1.5 1.5-1.5s1.4.6 1.4 1.5c.1 1-.5 1.5-1.4 1.5z"/></g><path fill="none" stroke="#fff" stroke-width="3" stroke-linecap="round" stroke-linejoin="round" stroke-miterlimit="10" d="M428.7 376.9s1.6-21.3 23.5-25.1v-8.9s-.4-4 2.7-1.5c3.1 2.4 21 16.4 21 16.4s1.8 1.8 0 3.2c-1.8 1.4-21 16.6-21 16.6s-2.7 1.7-2.7-1.4v-9.6s-18 .3-23.5 17.5"/></svg>